<svg width="273" height="110" viewBox="0 0 273 110" fill="none" xmlns="http://www.w3.org/2000/svg">
<path d="M67.2556 71.8402L68.4691 71.6973C67.9846 71.7843 67.4955 71.873 67.0048 71.9617C66.5187 72.07 66.0405 72.2113 65.5529 72.3295C64.5793 72.5725 63.5855 72.7811 62.615 73.098C60.66 73.6957 58.6801 74.4379 56.7157 75.3082C59.0197 74.7187 61.3688 74.2638 63.6416 73.9453C64.785 73.7975 65.933 73.7187 67.0375 73.5397C68.1684 73.4543 69.2853 73.3656 70.3726 73.2113C74.7733 72.8106 78.9808 72.3163 82.8721 70.5692C82.9952 71.18 83.6339 71.8139 84.5093 72.4182C85.3864 73.0159 86.497 73.5364 87.6015 74.0783C89.8042 75.0504 91.9835 75.8681 92.1502 75.584C93.1129 75.5988 94.0849 75.7302 95.0601 75.8402C96.0368 75.9486 97.0182 76.0996 98.0027 76.3065C96.6583 75.9863 95.3155 75.7909 93.9852 75.6005C95.3155 75.7926 96.6583 75.9863 98.0027 76.3065C104.238 77.502 110.569 80.057 116.905 83.2459C123.282 86.4429 129.815 90.2837 136.997 93.6778C138.992 94.6056 141.905 95.8519 145.409 97.0572C148.913 98.2805 153.015 99.3758 157.075 100.182C165.231 101.822 173.258 102.437 177.562 102.964C178.818 103.1 180.05 103.225 181.324 103.328C179.231 103.039 179.231 103.039 177.139 102.75C182.415 102.297 187.248 101.796 192.006 101.253C191.162 100.921 191.003 100.602 189.038 100.131C189.837 100.202 190.633 100.281 191.442 100.331C193.607 99.315 198.679 99.0671 201.038 98.3331C200.574 98.9258 202.479 98.801 204.169 98.6401C203.931 98.5662 203.695 98.471 203.46 98.3872C206.647 98.0424 210.092 97.2838 213.386 96.1984C216.687 95.1261 219.818 93.709 222.49 92.3511C223.222 91.9488 223.865 91.8322 224.276 91.7977C225.886 90.7123 227.419 89.5432 228.892 88.3247C228.906 88.75 229.941 88.1671 230.733 87.7221C231.511 87.2656 232.044 86.9438 231.096 87.9815C234.009 84.6695 237.447 82.0882 239.583 78.5562C241.988 75.9437 244.264 73.1866 246.414 70.318C247.503 68.8927 248.574 67.4444 249.603 65.9501C250.657 64.4788 251.659 62.9599 252.648 61.4295C256.606 55.3079 260.133 48.8185 263.048 42.1666L262.666 42.3488C264.679 37.6624 265.447 33.0729 268.302 27.7001C268.785 25.5145 269.453 22.9266 269.931 20.631C270.383 18.3223 270.62 16.296 270.269 15.2369C271.714 10.4749 271.687 8.36159 272.684 3.6062C271.682 4.60128 273.168 -1.17053 272.003 0.975634C270.179 3.73264 270.972 4.16943 269.411 6.48144H269.657C264.95 18.1138 259.491 29.2781 253.108 39.9744C249.553 47.5722 244.15 54.8235 239.005 61.6922C236.259 65.446 233.312 69.2063 230.328 72.5364C227.344 75.878 224.273 78.7581 221.381 80.993C220.028 82.1276 218.659 82.1933 217.257 82.5398C214.453 84.1539 210.945 85.4561 207.155 86.3756C203.354 87.282 199.276 87.8091 195.361 88.2492C195.509 88.241 195.651 88.2443 195.746 88.2459C191.567 88.6203 188.373 87.8633 184.178 87.9175C184.195 88.1261 183.543 88.126 183.223 88.2279C182.885 87.7221 176.576 88.1228 170.309 88.2344C164.028 88.4068 157.757 87.9487 157.095 87.507C156.665 87.4791 156.224 87.4314 155.777 87.3641C147.314 85.2787 139.712 79.9749 132.703 76.8484C131.016 76.5545 129.145 76.0849 127.655 75.9289C126.577 74.9404 126.017 75.5578 124.555 74.7154C121.514 71.0684 118.847 70.7006 120.606 72.2999C117.31 70.9814 114.105 69.3295 111.155 68.1143C109.731 67.6759 108.338 67.2161 106.882 66.8286C105.642 66.515 105.078 65.9862 104.626 65.3179C101.452 64.4591 102.536 64.2998 99.2987 63.0174C98.9887 62.579 96.8515 62.1159 94.6317 61.8844C92.4399 61.579 90.1734 61.5297 89.7185 61.3064L90.2933 61.3343C88.3508 60.7924 86.7198 60.2259 85.1013 59.5707C84.285 59.2669 83.4501 59.019 82.5746 58.7792C81.6976 58.5477 80.7769 58.3293 79.7441 58.285C74.0739 57.6577 67.8693 58.1142 62.0137 59.7711C56.088 61.3474 50.8445 64.1734 46.3613 66.7859C46.6027 67.4493 48.2633 65.4526 48.8116 66.226C43.4265 69.1882 38.0974 72.0947 33.3711 75.4855C32.4255 75.9601 31.2011 76.4396 30.6933 76.543C29.0514 77.4543 29.9986 77.4855 28.8536 78.2376L28.3489 77.8271C27.0372 79.4757 25.6057 79.0356 24.2364 80.4297C24.3018 80.7023 23.7675 81.1522 23.2192 81.5644C22.8048 81.0389 21.5882 82.9125 21.3109 82.3542L21.3249 82.4084C20.9931 82.6564 20.7891 82.883 20.3248 83.1096C19.8186 83.7582 15.2169 90.0407 14.8353 90.8502L14.4848 91.0177C13.6592 91.7796 13.628 92.4972 14.1841 92.1409L13.1482 93.0588L13.2355 92.9143L12.2058 93.8305C11.983 93.9603 11.5687 93.9241 11.6637 93.4315C11.2478 94.1557 10.7025 94.8765 10.0592 95.3396C11.8927 94.09 14.2324 92.6745 16.3292 91.7238C15.7855 92.5103 14.329 93.3544 13.6467 94.1081C12.4862 94.5843 10.4502 96.0293 8.89242 97.2378C8.62137 97.581 8.92046 98.3183 8.03098 98.7994C7.3518 98.7863 7.30039 99.6303 6.49035 99.9718C6.93276 99.09 7.62752 98.4759 8.30359 97.8175C7.7646 97.4792 6.44673 99.2313 5.81584 99.6697C5.70524 100.054 4.36401 101.346 3.72532 102.348C3.62251 101.558 2.85765 102.841 2.18781 103.185C1.63636 103.765 1.49461 104.317 1.85133 104.197C2.16912 104.804 4.09919 101.978 3.90291 103.282C3.49945 103.307 2.60373 104.576 2.12238 105.258C2.37786 105.488 2.65981 104.97 2.58816 105.614C1.97907 106.309 1.71737 107.353 1.12697 107.556C1.15657 107.359 1.42918 107.09 1.59742 106.878C1.23446 107.359 1.74073 105.673 2.33424 104.07C2.91996 102.464 3.55553 100.918 3.12558 101.594C3.36236 101.532 2.64891 103.238 1.97284 104.855C1.32948 106.514 0.717284 108.079 0.963411 107.763C1.52888 107.282 1.13944 108.565 1.67842 108.034L1.85289 107.102C2.5679 106.351 3.27513 106.402 3.24086 106.842C2.72057 107.52 2.96046 106.146 3.35146 104.821C3.73 103.487 4.18798 102.139 3.84995 102.839C4.01507 102.716 4.18175 102.597 4.3531 102.484C4.11009 103.115 3.22217 104.56 2.54298 104.829C2.78911 105.047 2.37163 105.804 2.05073 106.448L1.85912 106.612C1.55848 107.304 0.896427 108.067 1.52576 107.967C2.76574 106.246 3.00719 107.364 3.28603 108.483C3.56331 109.606 3.87954 110.726 5.1164 109.22C3.56799 110.08 4.82978 108.267 5.847 106.855C6.14609 106.893 6.89693 106.532 7.82068 105.711C8.46871 104.86 8.02786 105.046 8.02163 104.76C8.53102 104.423 9.36598 103.662 9.55291 104.052C9.76944 103.105 10.6527 103.285 11.201 102.438C11.6356 101.637 11.0188 102.335 11.2789 101.712C12.2214 100.803 13.5361 99.5252 14.3493 98.8782C14.8851 98.8717 16.1796 98.5203 15.932 99.5728C14.4879 100.885 15.8432 98.3429 14.4708 99.8684C15.6562 99.8782 13.3445 101.313 13.5377 102.064C14.2418 101.87 15.1577 100.947 15.8728 100.108L15.6422 100.177C16.2419 99.407 17.5474 97.9554 18.5957 97.5925C18.6066 97.9899 19.0802 97.8536 18.6144 98.3922L19.6239 97.5465C19.6893 97.361 19.7563 97.1705 19.4291 97.3725C19.7469 96.7764 20.2921 96.4595 20.7579 96.2788C20.9074 96.3527 22.0212 94.9406 23.1226 93.5547C24.2239 92.1704 25.3144 90.8207 25.291 90.9717C26.0309 90.3625 26.4842 90.5957 27.0279 89.7583C26.9905 89.6203 25.358 91.2657 23.8937 92.8683C22.4185 94.4578 21.1318 96.0227 21.5695 95.5629C21.9807 95.4315 23.7722 93.356 25.643 91.3806C27.5015 89.3937 29.4175 87.4971 29.8241 87.5628C30.3709 87.1096 31.008 86.53 30.6933 86.3674C31.7339 85.7697 30.7572 87.0899 31.6062 86.8223C31.5921 86.7681 31.4597 86.7319 31.6825 86.576L32.5642 86.415C33.7559 84.8731 36.3013 83.7746 37.4883 82.0587C37.2328 82.6876 37.0614 83.5808 36.2374 84.594L35.9679 84.5858C35.8822 84.7746 35.1236 85.4873 35.3277 85.7352C36.3932 85.1966 37.1752 84.5382 37.9992 83.5234C38.2329 83.4561 38.4977 83.3657 38.6909 83.3329C38.6628 83.3001 38.6286 83.2836 38.6052 83.2393C39.0445 83.1605 39.0273 83.213 38.9791 83.4068C38.9759 83.438 38.9713 83.4741 38.951 83.5185C40.0757 83.8518 42.3438 80.2261 44.3564 79.392C44.7973 78.9125 44.3175 79.2212 44.8596 78.6153C46.8458 77.6678 48.229 77.0652 50.2245 76.0537C50.6249 75.3131 50.5968 75.1374 49.6513 75.2392L51.1623 74.4559C50.7666 75.3361 51.5673 75.1456 52.3415 74.9814C53.122 74.8287 53.8697 74.694 53.4071 75.5906C53.9367 75.5611 54.8075 75.1341 55.5318 74.5446C55.4929 74.2507 55.429 73.7843 56.4572 73.2654C58.0336 72.896 57.6426 72.9436 58.9589 72.7285C59.3702 72.9403 58.9885 73.2572 59.1458 73.5019C60.7908 72.3016 60.9902 73.5594 62.6461 72.8845C63.6587 72.3689 65.8068 71.8451 65.7196 71.185C67.2088 70.7876 67.3132 71.3393 67.2556 71.8402Z" fill="#6AA59B"/>
</svg>
