<svg width="167" height="31" viewBox="0 0 167 31" fill="none" xmlns="http://www.w3.org/2000/svg">
<path d="M39.0919 9.90282C38.6849 9.90282 38.3117 10.0467 37.9709 10.3344C37.63 10.6221 37.3376 11.028 37.0937 11.5519C36.8498 12.0759 36.6618 12.7074 36.5295 13.4449C36.3973 14.1839 36.3312 14.9986 36.3312 15.889C36.3312 16.79 36.4399 17.5941 36.6588 18.3013C36.8777 19.0085 37.1789 19.6082 37.5653 20.1004C37.9518 20.5925 38.4043 20.9696 38.9215 21.2316C39.4401 21.4936 39.9984 21.6238 40.5979 21.6238C41.1767 21.6238 41.7086 21.5344 42.1905 21.3573C42.6724 21.1786 43.1 20.9802 43.4717 20.7606C43.8419 20.541 44.1475 20.3305 44.387 20.1322C44.625 19.9338 44.7911 19.8126 44.8822 19.7702C45.0247 19.7082 45.1393 19.7203 45.2245 19.8096C45.3112 19.899 45.3083 20.0322 45.2172 20.2109C45.1569 20.326 45.0541 20.4986 44.9116 20.7288C44.769 20.959 44.578 21.2134 44.34 21.4905C44.1005 21.7677 43.814 22.0539 43.479 22.3476C43.1441 22.6414 42.7547 22.908 42.3125 23.1487C41.8702 23.3895 41.3721 23.5864 40.8182 23.7378C40.2643 23.8892 39.6473 23.9665 38.9655 23.9665C37.9077 23.9665 36.9585 23.809 36.1152 23.4955C35.2719 23.1805 34.5505 22.7202 33.951 22.1129C33.3516 21.5057 32.8917 20.7591 32.5714 19.8732C32.2511 18.9888 32.0909 17.9803 32.0909 16.8476C32.0909 15.8527 32.2129 14.9668 32.4568 14.1914C32.7007 13.4161 33.0239 12.7407 33.425 12.1637C33.8261 11.5883 34.286 11.1007 34.8046 10.7024C35.3233 10.3041 35.8537 9.98157 36.3973 9.73625C36.9409 9.48941 37.4772 9.31223 38.0061 9.20168C38.535 9.09114 39.0125 9.03662 39.4386 9.03662C40.1292 9.03662 40.7654 9.10174 41.3442 9.23349C41.9231 9.36523 42.4212 9.54847 42.8385 9.78319C43.2557 10.0194 43.5804 10.2965 43.814 10.6161C44.0476 10.9356 44.1652 11.2794 44.1652 11.6458C44.1652 11.9699 44.1123 12.2425 44.005 12.4636C43.8978 12.6831 43.7611 12.8649 43.5936 13.0057C43.4261 13.1465 43.2381 13.2495 43.0295 13.3116C42.8208 13.3752 42.6107 13.4055 42.3962 13.4055C42.0906 13.4055 41.8041 13.3479 41.5352 13.2328C41.2664 13.1178 41.0445 12.9239 40.8726 12.6513C40.7404 12.453 40.6331 12.1955 40.5523 11.8821C40.4715 11.5671 40.3775 11.2642 40.2702 10.9704C40.163 10.6766 40.0234 10.4253 39.8515 10.2163C39.681 10.0073 39.4269 9.90282 39.0919 9.90282Z" fill="#FFFCEB"/>
<path d="M51.6701 21.0273C51.6701 21.4574 51.7582 21.8026 51.9375 22.0646C52.1152 22.3266 52.318 22.5341 52.5472 22.6855C52.7764 22.8369 52.9997 22.9444 53.2187 23.008C53.4376 23.0701 53.5874 23.108 53.6682 23.1186C53.749 23.1398 53.8078 23.1731 53.8431 23.2201C53.8783 23.267 53.8916 23.317 53.8813 23.37C53.871 23.423 53.8431 23.4699 53.7975 23.5108C53.752 23.5532 53.6888 23.5729 53.6065 23.5729H45.6183C45.5374 23.5729 45.4728 23.5517 45.4273 23.5108C45.3817 23.4684 45.3538 23.4215 45.3435 23.37C45.3332 23.317 45.3464 23.2685 45.3817 23.2201C45.417 23.1731 45.4757 23.1383 45.5566 23.1186C45.6374 23.108 45.7872 23.0716 46.0061 23.008C46.2251 22.9444 46.4484 22.8384 46.6776 22.6855C46.9068 22.5341 47.1095 22.3266 47.2873 22.0646C47.4651 21.8026 47.5547 21.4574 47.5547 21.0273V3.41252C47.5547 3.27623 47.4945 3.19294 47.3725 3.16114C47.352 3.16114 47.2785 3.146 47.1521 3.1142C47.0243 3.0824 46.8803 3.04605 46.7173 3.00365C46.5542 2.96125 46.4043 2.92491 46.2677 2.8931C46.131 2.8613 46.0473 2.8401 46.0164 2.8295C45.8842 2.7977 45.8151 2.72804 45.8107 2.61749C45.8048 2.50695 45.8798 2.43123 46.0311 2.39034C46.4278 2.29646 46.8568 2.16774 47.3196 2.0057C47.7825 1.84367 48.2467 1.66043 48.714 1.456C49.1812 1.25156 49.6337 1.03198 50.0701 0.795747C50.5064 0.559511 50.8987 0.32176 51.244 0.08098C51.3351 0.0188922 51.4291 -0.0083659 51.5261 0.00223446C51.6231 0.0128348 51.6715 0.0915804 51.6715 0.238471V21.0273H51.6701Z" fill="#FFFCEB"/>
<path d="M59.0471 15.2458C58.8841 15.2458 58.8032 15.3351 58.8032 15.5123C58.8032 16.5814 58.8943 17.4976 59.078 18.2624C59.2602 19.0271 59.5276 19.6525 59.8787 20.1401C60.2299 20.6277 60.6662 20.9866 61.1893 21.2168C61.7123 21.447 62.3191 21.5621 63.0112 21.5621C63.5401 21.5621 64.0102 21.5045 64.4216 21.3895C64.833 21.2744 65.1915 21.1411 65.4956 20.9882C65.8012 20.8367 66.0495 20.6929 66.242 20.5566C66.4345 20.4203 66.577 20.3309 66.6696 20.2901C66.8121 20.228 66.9237 20.2401 67.0046 20.3294C67.0854 20.4188 67.0854 20.552 67.0046 20.7307C66.9737 20.7928 66.9061 20.917 66.7989 21.1002C66.6916 21.2835 66.5373 21.4955 66.3346 21.7362C66.1318 21.977 65.8776 22.2284 65.572 22.4904C65.2679 22.7524 64.9035 22.9931 64.4819 23.2127C64.0602 23.4323 63.5768 23.614 63.0332 23.7549C62.4896 23.8957 61.8828 23.9669 61.2113 23.9669C60.1946 23.9669 59.2749 23.8018 58.4521 23.4717C57.6293 23.1415 56.9256 22.663 56.3408 22.0346C55.756 21.4061 55.3035 20.6414 54.9847 19.7403C54.6644 18.8393 54.5042 17.8232 54.5042 16.692C54.5042 15.4563 54.7026 14.3614 55.0993 13.4074C55.496 12.4549 56.0146 11.6553 56.6537 11.0117C57.2943 10.3681 58.0201 9.87747 58.8341 9.5428C59.6466 9.20813 60.4752 9.04004 61.3186 9.04004C62.112 9.04004 62.8099 9.1521 63.4152 9.37774C64.0191 9.60337 64.5436 9.89564 64.9858 10.2576C65.4281 10.6195 65.7939 11.0223 66.0833 11.4675C66.3728 11.9127 66.6064 12.3549 66.7842 12.7956C66.9619 13.2363 67.0868 13.6497 67.1574 14.0374C67.2279 14.425 67.2646 14.7339 67.2646 14.9641C67.2646 15.0686 67.2308 15.1428 67.1662 15.1837C67.1001 15.2261 67.0104 15.2473 66.8988 15.2473H59.0471V15.2458ZM58.8796 14.2085C58.8591 14.3448 58.9208 14.4129 59.0633 14.4129C59.0942 14.4129 59.1955 14.4099 59.3674 14.4053C59.5408 14.4008 59.7509 14.3917 60.0007 14.3811C60.249 14.3705 60.5164 14.3599 60.8014 14.3493C61.0864 14.3387 61.3583 14.3281 61.6168 14.3175C61.8754 14.3069 62.0988 14.2993 62.2883 14.2933C62.4764 14.2887 62.5954 14.2796 62.6468 14.269C62.8099 14.2584 62.9803 14.1858 63.1581 14.0495C63.3359 13.9132 63.4255 13.6785 63.4255 13.3423C63.4255 13.0379 63.3843 12.6881 63.3035 12.2898C63.2227 11.8915 63.092 11.5145 62.9142 11.1586C62.7364 10.8027 62.5101 10.5014 62.2354 10.2545C61.9606 10.0092 61.6257 9.88504 61.229 9.88504C60.9145 9.88504 60.6398 9.97136 60.4062 10.144C60.1726 10.3166 59.9713 10.5423 59.8038 10.8194C59.6363 11.0965 59.4967 11.4039 59.3851 11.7386C59.2734 12.0733 59.1823 12.4019 59.1103 12.7199C59.0383 13.0394 58.9854 13.3332 58.9502 13.5997C58.9134 13.8708 58.8899 14.0722 58.8796 14.2085Z" fill="#FFFCEB"/>
<path d="M81.8087 22.1269C81.9512 22.0951 82.0628 22.1239 82.1436 22.2133C82.2245 22.3026 82.2303 22.4207 82.1583 22.5661C82.0966 22.6812 81.9982 22.8175 81.8615 22.975C81.7249 23.1325 81.5413 23.2794 81.312 23.4141C81.0828 23.5504 80.8037 23.6655 80.4731 23.7594C80.1425 23.8533 79.7547 23.9002 79.3065 23.9002C78.6865 23.9002 78.1649 23.7715 77.7433 23.5156C77.3216 23.2597 77.0292 22.9629 76.8661 22.6282C76.825 22.5449 76.7677 22.5086 76.6913 22.5176C76.6149 22.5282 76.5517 22.56 76.5003 22.6115C76.4694 22.6433 76.3754 22.7296 76.2182 22.8705C76.061 23.0113 75.8377 23.1643 75.5467 23.3263C75.2573 23.4883 74.9091 23.6352 74.5021 23.7655C74.0951 23.8957 73.6279 23.9623 73.099 23.9623C72.1939 23.9623 71.4343 23.8306 70.8202 23.5701C70.2046 23.3081 69.7065 22.9704 69.326 22.557C68.9454 22.1436 68.6707 21.6772 68.5032 21.1593C68.3357 20.6414 68.252 20.125 68.252 19.6116C68.252 18.7848 68.4782 18.0609 68.9307 17.4431C69.3833 16.8252 69.9695 16.3649 70.6909 16.0605C71.0773 15.903 71.4813 15.791 71.903 15.7228C72.3247 15.6547 72.7434 15.5835 73.1607 15.5108C73.578 15.4381 73.9864 15.3457 74.3875 15.2352C74.7886 15.1246 75.1677 14.9444 75.5232 14.6931C75.8994 14.4311 76.1609 14.0964 76.3078 13.6875C76.4547 13.2787 76.5282 12.8441 76.5282 12.3837C76.5282 12.049 76.4841 11.7265 76.3989 11.4175C76.3122 11.1086 76.1903 10.8391 76.0331 10.6089C75.8759 10.3787 75.6922 10.1955 75.4836 10.0592C75.2749 9.9229 75.0487 9.85475 74.8048 9.85475C74.3684 9.85475 74.0481 9.96984 73.8439 10.2C73.6411 10.4302 73.481 10.7088 73.3634 11.0329C73.2459 11.357 73.1372 11.6962 73.0358 12.046C72.9344 12.3973 72.7713 12.6987 72.548 12.9501C72.3644 13.15 72.1293 13.2984 71.8384 13.3983C71.5489 13.4982 71.2712 13.5482 71.0068 13.5482C70.732 13.5482 70.4881 13.5013 70.2751 13.4074C70.0621 13.3135 69.8784 13.1848 69.7256 13.0227C69.5728 12.8607 69.4582 12.6714 69.3833 12.4564C69.3069 12.2413 69.2687 12.0142 69.2687 11.7734C69.2687 11.4493 69.3451 11.1238 69.4979 10.7997C69.6507 10.4756 69.9225 10.1818 70.3133 9.91987C70.7041 9.65789 71.2301 9.44588 71.8913 9.28385C72.5524 9.12181 73.3899 9.04004 74.4066 9.04004C75.535 9.04004 76.4973 9.15816 77.2951 9.39288C78.0929 9.62912 78.7438 9.97136 79.2463 10.4226C79.7488 10.8739 80.1146 11.4312 80.3438 12.096C80.573 12.7608 80.6862 13.5179 80.6862 14.366C80.6862 15.3821 80.6553 16.3361 80.5951 17.2265C80.5333 18.117 80.4907 18.9059 80.4658 19.5919C80.4408 20.2779 80.4525 20.8443 80.504 21.2895C80.5554 21.7347 80.6964 22.0103 80.9315 22.1148C81.0329 22.1678 81.1607 22.1905 81.312 22.186C81.4737 22.1769 81.6368 22.1587 81.8087 22.1269ZM76.5194 15.1034C76.5194 15.0414 76.4944 14.999 76.443 14.9778C76.3916 14.9566 76.346 14.9732 76.3063 15.0247C76.2255 15.1186 76.1506 15.2079 76.086 15.2912C76.0198 15.3745 75.9302 15.4745 75.8185 15.5895C75.6246 15.7985 75.4277 15.9954 75.2235 16.1786C75.0208 16.3619 74.8165 16.5481 74.6138 16.7359C74.411 16.904 74.2097 17.0706 74.0114 17.2387C73.813 17.4068 73.6279 17.59 73.4545 17.7884C73.1901 18.1033 72.9947 18.4456 72.8668 18.8181C72.739 19.1906 72.6758 19.5859 72.6758 20.0038C72.6758 20.287 72.717 20.5717 72.7978 20.861C72.8786 21.1487 73.0035 21.4061 73.171 21.6302C73.3385 21.8559 73.5515 22.0391 73.8116 22.1799C74.0702 22.3208 74.3831 22.392 74.7489 22.392C75.1148 22.392 75.4116 22.3132 75.6408 22.1557C75.87 21.9982 76.0478 21.8104 76.1741 21.5894C76.3005 21.3698 76.3901 21.1472 76.4415 20.9215C76.4929 20.6959 76.5179 20.5202 76.5179 20.3945V15.1034H76.5194Z" fill="#FFFCEB"/>
<path d="M99.9964 23.1168C100.077 23.138 100.136 23.1714 100.171 23.2183C100.207 23.2652 100.22 23.3152 100.209 23.3682C100.199 23.4212 100.171 23.4682 100.126 23.509C100.08 23.5515 100.017 23.5711 99.9347 23.5711H98.1657H98.0291H94.187H94.0504H92.2829C92.2021 23.5711 92.1374 23.5499 92.0919 23.509C92.0463 23.4666 92.0184 23.4197 92.0081 23.3682C91.9978 23.3152 92.0111 23.2668 92.0463 23.2183C92.0816 23.1714 92.1404 23.1365 92.2212 23.1168C92.302 23.1062 92.4416 23.0729 92.6399 23.0154C92.8383 22.9578 93.041 22.8579 93.2496 22.717C93.4583 22.5762 93.6434 22.3763 93.8065 22.1204C93.9696 21.8645 94.0504 21.5253 94.0504 21.1073V15.3407V15.215V14.3352C94.0401 13.8945 94.0078 13.4417 93.9519 12.9753C93.8961 12.5089 93.7786 12.0849 93.6008 11.7033C93.423 11.3217 93.1644 11.0067 92.8236 10.7598C92.4827 10.5145 92.0287 10.3903 91.4586 10.3903C90.8695 10.3903 90.4111 10.5115 90.0864 10.7523C89.7617 10.9931 89.5192 11.2914 89.362 11.6472C89.2048 12.0031 89.1079 12.3832 89.0726 12.786C89.0373 13.1888 89.0197 13.5477 89.0197 13.8627V21.1073C89.0197 21.5268 89.1005 21.8645 89.2636 22.1204C89.4267 22.3778 89.6118 22.5762 89.8204 22.717C90.0291 22.8579 90.2318 22.9578 90.4302 23.0154C90.6285 23.0729 90.7681 23.1077 90.8489 23.1168C90.9297 23.138 90.9885 23.1714 91.0237 23.2183C91.059 23.2652 91.0722 23.3152 91.0619 23.3682C91.0517 23.4212 91.0237 23.4682 90.9782 23.509C90.9326 23.5515 90.8695 23.5711 90.7872 23.5711H83.1339C83.0531 23.5711 82.9885 23.5499 82.9429 23.509C82.8974 23.4666 82.8694 23.4197 82.8592 23.3682C82.8489 23.3152 82.8621 23.2668 82.8974 23.2183C82.9326 23.1714 82.9914 23.1365 83.0722 23.1168C83.153 23.1062 83.2926 23.0729 83.4909 23.0154C83.6893 22.9578 83.892 22.8579 84.1007 22.717C84.3093 22.5762 84.4944 22.3763 84.6575 22.1204C84.8206 21.8645 84.9014 21.5253 84.9014 21.1073V12.3696C84.9014 12.2333 84.8397 12.15 84.7178 12.1182C84.6972 12.1182 84.6237 12.1031 84.4974 12.0713C84.3695 12.0395 84.2256 12.0031 84.0625 11.9607C83.8994 11.9183 83.7495 11.882 83.6129 11.8502C83.4762 11.8184 83.3925 11.7972 83.3616 11.7881C83.2294 11.7563 83.1604 11.6866 83.1559 11.5761C83.1501 11.4655 83.225 11.3898 83.3763 11.3489C83.773 11.255 84.202 11.1263 84.6649 10.9643C85.1277 10.8022 85.592 10.619 86.0592 10.4146C86.5264 10.2101 86.9789 9.99056 87.4167 9.75432C87.8531 9.51809 88.2454 9.28034 88.5907 9.03956C88.6818 8.97595 88.7758 8.95021 88.8728 8.96081C88.9697 8.97141 89.0182 9.05016 89.0182 9.19705V10.5478C89.2313 10.3495 89.4752 10.1571 89.7499 9.9739C90.0247 9.79067 90.3317 9.63166 90.6726 9.49537C91.0135 9.35908 91.394 9.25005 91.8157 9.16525C92.2373 9.08196 92.7016 9.03956 93.21 9.03956C94.043 9.03956 94.7424 9.13345 95.3066 9.32274C95.8708 9.51203 96.338 9.76341 96.7097 10.0769C97.08 10.3919 97.365 10.7523 97.5633 11.1611C97.7617 11.57 97.9042 11.994 97.9909 12.4332C98.0776 12.8739 98.1275 13.31 98.1437 13.7446C98.1584 14.1792 98.1672 14.5851 98.1672 14.9621V15.0409V21.1058C98.1672 21.5253 98.248 21.863 98.4111 22.1189C98.5742 22.3763 98.7593 22.5747 98.9679 22.7155C99.1766 22.8564 99.3793 22.9563 99.5777 23.0139C99.776 23.0729 99.9156 23.1062 99.9964 23.1168Z" fill="#FFFCEB"/>
<path d="M105.104 15.2458C104.94 15.2458 104.86 15.3351 104.86 15.5123C104.86 16.5814 104.951 17.4976 105.134 18.2624C105.317 19.0271 105.584 19.6525 105.935 20.1401C106.286 20.6277 106.723 20.9866 107.246 21.2168C107.769 21.447 108.376 21.5621 109.068 21.5621C109.596 21.5621 110.067 21.5045 110.478 21.3895C110.889 21.2744 111.248 21.1411 111.552 20.9882C111.858 20.8367 112.106 20.6929 112.298 20.5566C112.491 20.4203 112.633 20.3309 112.726 20.2901C112.868 20.228 112.98 20.2401 113.061 20.3294C113.142 20.4188 113.142 20.552 113.061 20.7307C113.03 20.7928 112.962 20.917 112.855 21.1002C112.748 21.2835 112.594 21.4955 112.391 21.7362C112.188 21.977 111.934 22.2284 111.628 22.4904C111.323 22.7524 110.96 22.9931 110.538 23.2127C110.117 23.4323 109.633 23.614 109.09 23.7549C108.546 23.8957 107.939 23.9669 107.268 23.9669C106.251 23.9669 105.331 23.8018 104.508 23.4717C103.686 23.1415 102.982 22.663 102.397 22.0346C101.812 21.4061 101.36 20.6414 101.041 19.7403C100.721 18.8393 100.561 17.8232 100.561 16.692C100.561 15.4563 100.759 14.3614 101.156 13.4074C101.552 12.4549 102.071 11.6553 102.71 11.0117C103.351 10.3681 104.077 9.87747 104.89 9.5428C105.703 9.20813 106.532 9.04004 107.375 9.04004C108.168 9.04004 108.866 9.1521 109.472 9.37774C110.075 9.60337 110.6 9.89564 111.042 10.2576C111.484 10.6195 111.85 11.0223 112.14 11.4675C112.429 11.9127 112.663 12.3549 112.841 12.7956C113.018 13.2363 113.143 13.6497 113.214 14.0374C113.284 14.425 113.321 14.7339 113.321 14.9641C113.321 15.0686 113.287 15.1428 113.223 15.1837C113.156 15.2261 113.067 15.2473 112.955 15.2473H105.104V15.2458ZM104.936 14.2085C104.915 14.3448 104.977 14.4129 105.12 14.4129C105.151 14.4129 105.252 14.4099 105.425 14.4053C105.599 14.4008 105.809 14.3917 106.059 14.3811C106.307 14.3705 106.574 14.3599 106.859 14.3493C107.144 14.3387 107.416 14.3281 107.675 14.3175C107.933 14.3069 108.157 14.2993 108.346 14.2933C108.534 14.2887 108.653 14.2796 108.705 14.269C108.868 14.2584 109.038 14.1858 109.216 14.0495C109.394 13.9132 109.483 13.6785 109.483 13.3423C109.483 13.0379 109.442 12.6881 109.361 12.2898C109.281 11.8915 109.15 11.5145 108.972 11.1586C108.794 10.8027 108.568 10.5014 108.293 10.2545C108.018 10.0092 107.683 9.88504 107.287 9.88504C106.972 9.88504 106.698 9.97136 106.464 10.144C106.23 10.3166 106.029 10.5423 105.862 10.8194C105.694 11.0965 105.555 11.4039 105.443 11.7386C105.331 12.0733 105.24 12.4019 105.168 12.7199C105.096 13.0394 105.043 13.3332 105.008 13.5997C104.97 13.8708 104.946 14.0722 104.936 14.2085Z" fill="#FFFCEB"/>
<path d="M123.855 9.03804C124.283 9.03804 124.643 9.09256 124.938 9.2031C125.234 9.31365 125.472 9.46054 125.655 9.64378C125.837 9.82701 125.97 10.042 126.052 10.2874C126.133 10.5342 126.174 10.7932 126.174 11.0657C126.174 11.5685 126.018 11.9607 125.71 12.2439C125.4 12.5271 124.985 12.6679 124.467 12.6679C124.07 12.6679 123.76 12.5952 123.537 12.4483C123.313 12.3014 123.122 12.1424 122.965 11.9698C122.808 11.7972 122.662 11.6382 122.53 11.4913C122.398 11.3444 122.235 11.2717 122.042 11.2717C121.869 11.2717 121.684 11.3323 121.486 11.4519C121.287 11.573 121.105 11.8002 120.936 12.1349C120.769 12.4695 120.629 12.9314 120.517 13.5175C120.406 14.1035 120.35 14.8637 120.35 15.7965V21.233C120.35 21.6525 120.419 21.9826 120.556 22.2234C120.692 22.4642 120.851 22.6474 121.029 22.7731C121.206 22.8988 121.381 22.9851 121.555 23.032C121.728 23.079 121.854 23.1077 121.935 23.1184C122.016 23.1396 122.075 23.1729 122.11 23.2198C122.145 23.2668 122.158 23.3167 122.148 23.3697C122.138 23.4227 122.11 23.4697 122.064 23.5106C122.019 23.553 121.956 23.5727 121.873 23.5727H120.348H120.212H116.37H116.233H114.708C114.627 23.5727 114.562 23.5514 114.517 23.5106C114.471 23.4682 114.443 23.4212 114.433 23.3697C114.423 23.3167 114.436 23.2683 114.471 23.2198C114.507 23.1729 114.565 23.138 114.646 23.1184C114.727 23.1077 114.855 23.079 115.027 23.032C115.2 22.9851 115.375 22.8988 115.553 22.7731C115.731 22.6474 115.888 22.4642 116.026 22.2234C116.162 21.9826 116.232 21.6525 116.232 21.233V12.3696C116.232 12.2333 116.171 12.15 116.049 12.1182C116.029 12.1182 115.955 12.1031 115.829 12.0713C115.701 12.0395 115.557 12.0031 115.394 11.9607C115.231 11.9183 115.081 11.882 114.944 11.8502C114.808 11.8184 114.724 11.7972 114.693 11.7881C114.561 11.7563 114.492 11.6866 114.488 11.5761C114.482 11.4655 114.557 11.3898 114.708 11.3489C115.105 11.255 115.534 11.1263 115.996 10.9643C116.459 10.8022 116.924 10.619 117.391 10.4146C117.858 10.2101 118.31 9.99056 118.747 9.75432C119.183 9.51809 119.576 9.28034 119.921 9.03956C120.012 8.97595 120.106 8.95021 120.203 8.96081C120.3 8.97141 120.348 9.05016 120.348 9.19705V11.4443C120.704 10.6372 121.187 10.036 121.797 9.63772C122.407 9.23642 123.093 9.03804 123.855 9.03804Z" fill="#FFFCEB"/>
<path d="M132.286 21.1061C132.286 21.5256 132.367 21.8633 132.53 22.1192C132.693 22.3767 132.878 22.5751 133.087 22.7159C133.295 22.8567 133.498 22.9567 133.696 23.0142C133.895 23.0718 134.034 23.1066 134.115 23.1157C134.196 23.1369 134.255 23.1702 134.29 23.2171C134.325 23.2641 134.338 23.3141 134.328 23.3671C134.318 23.4201 134.29 23.467 134.244 23.5079C134.199 23.5503 134.136 23.57 134.053 23.57H126.4C126.319 23.57 126.255 23.5488 126.209 23.5079C126.164 23.4655 126.136 23.4185 126.125 23.3671C126.115 23.3141 126.128 23.2656 126.164 23.2171C126.199 23.1702 126.258 23.1354 126.338 23.1157C126.419 23.1051 126.559 23.0718 126.757 23.0142C126.956 22.9567 127.158 22.8567 127.367 22.7159C127.576 22.5751 127.761 22.3752 127.924 22.1192C128.087 21.8633 128.168 21.5241 128.168 21.1061V12.3699C128.168 12.2336 128.106 12.1504 127.984 12.1186C127.963 12.1186 127.89 12.1034 127.764 12.0716C127.636 12.0398 127.492 12.0035 127.329 11.9611C127.166 11.9187 127.016 11.8823 126.879 11.8505C126.742 11.8187 126.659 11.7975 126.628 11.7884C126.496 11.7566 126.427 11.687 126.422 11.5764C126.416 11.4659 126.491 11.3902 126.643 11.3493C127.039 11.2554 127.468 11.1267 127.931 10.9646C128.394 10.8026 128.858 10.6194 129.325 10.4149C129.793 10.2105 130.245 9.99092 130.683 9.75468C131.119 9.51844 131.512 9.28069 131.857 9.03991C131.948 8.97631 132.042 8.95056 132.139 8.96116C132.236 8.97177 132.284 9.05051 132.284 9.1974V21.1061H132.286ZM132.408 3.41263C132.286 3.10825 132.115 2.84476 131.897 2.61912C131.678 2.39348 131.419 2.21631 131.119 2.08456C130.82 1.95433 130.486 1.8877 130.12 1.8877C129.765 1.8877 129.428 1.95584 129.114 2.09213C128.798 2.22842 128.526 2.41166 128.298 2.64184C128.069 2.87201 127.888 3.14157 127.758 3.45049C127.625 3.75942 127.559 4.08651 127.559 4.4333C127.559 4.78008 127.62 5.10415 127.742 5.40702C127.864 5.7114 128.034 5.97338 128.253 6.19296C128.472 6.41254 128.73 6.5882 129.03 6.71995C129.33 6.85169 129.657 6.91681 130.013 6.91681C130.379 6.91681 130.717 6.84866 131.027 6.71237C131.337 6.57608 131.609 6.39588 131.842 6.17024C132.076 5.94461 132.259 5.67808 132.392 5.36916C132.524 5.06023 132.59 4.73314 132.59 4.38635C132.59 4.03957 132.53 3.71701 132.408 3.41263Z" fill="#FFFCEB"/>
<path d="M151.877 23.1168C151.958 23.138 152.016 23.1714 152.052 23.2183C152.087 23.2652 152.1 23.3152 152.09 23.3682C152.08 23.4212 152.052 23.4682 152.006 23.509C151.961 23.5515 151.897 23.5711 151.815 23.5711H150.046H149.91H146.067H145.931H144.162C144.081 23.5711 144.016 23.5499 143.971 23.509C143.925 23.4666 143.897 23.4197 143.887 23.3682C143.877 23.3152 143.89 23.2668 143.925 23.2183C143.961 23.1714 144.019 23.1365 144.1 23.1168C144.181 23.1062 144.321 23.0729 144.519 23.0154C144.717 22.9578 144.92 22.8579 145.129 22.717C145.337 22.5762 145.522 22.3763 145.685 22.1204C145.849 21.8645 145.929 21.5253 145.929 21.1073V15.3407V15.215V14.3352C145.919 13.8945 145.887 13.4417 145.831 12.9753C145.775 12.5089 145.658 12.0849 145.48 11.7033C145.302 11.3217 145.043 11.0067 144.703 10.7598C144.362 10.5145 143.908 10.3903 143.338 10.3903C142.748 10.3903 142.29 10.5115 141.965 10.7523C141.641 10.9931 141.398 11.2914 141.241 11.6472C141.084 12.0031 140.987 12.3832 140.952 12.786C140.916 13.1888 140.899 13.5477 140.899 13.8627V21.1073C140.899 21.5268 140.979 21.8645 141.143 22.1204C141.306 22.3778 141.491 22.5762 141.699 22.717C141.908 22.8579 142.111 22.9578 142.309 23.0154C142.507 23.0729 142.647 23.1077 142.728 23.1168C142.809 23.138 142.867 23.1714 142.903 23.2183C142.938 23.2652 142.951 23.3152 142.941 23.3682C142.931 23.4212 142.903 23.4682 142.857 23.509C142.812 23.5515 142.748 23.5711 142.666 23.5711H135.013C134.932 23.5711 134.867 23.5499 134.822 23.509C134.776 23.4666 134.748 23.4197 134.738 23.3682C134.728 23.3152 134.741 23.2668 134.776 23.2183C134.812 23.1714 134.87 23.1365 134.951 23.1168C135.032 23.1062 135.172 23.0729 135.37 23.0154C135.568 22.9578 135.771 22.8579 135.98 22.717C136.188 22.5762 136.373 22.3763 136.536 22.1204C136.7 21.8645 136.78 21.5253 136.78 21.1073V12.3696C136.78 12.2333 136.719 12.15 136.597 12.1182C136.576 12.1182 136.503 12.1031 136.376 12.0713C136.249 12.0395 136.105 12.0031 135.941 11.9607C135.778 11.9183 135.628 11.882 135.492 11.8502C135.355 11.8184 135.271 11.7972 135.241 11.7881C135.108 11.7563 135.039 11.6866 135.035 11.5761C135.029 11.4655 135.104 11.3898 135.255 11.3489C135.652 11.255 136.081 11.1263 136.544 10.9643C137.007 10.8022 137.471 10.619 137.938 10.4146C138.405 10.2101 138.858 9.99056 139.296 9.75432C139.732 9.51809 140.124 9.28034 140.47 9.03956C140.561 8.97595 140.655 8.95021 140.752 8.96081C140.849 8.97141 140.897 9.05016 140.897 9.19705V10.5478C141.11 10.3495 141.354 10.1571 141.629 9.9739C141.904 9.79067 142.211 9.63166 142.552 9.49537C142.892 9.35908 143.273 9.25005 143.695 9.16525C144.116 9.08196 144.581 9.03956 145.089 9.03956C145.922 9.03956 146.621 9.13345 147.186 9.32274C147.75 9.51203 148.217 9.76341 148.589 10.0769C148.959 10.3919 149.244 10.7523 149.442 11.1611C149.641 11.57 149.783 11.994 149.87 12.4332C149.957 12.8739 150.006 13.31 150.023 13.7446C150.037 14.1792 150.046 14.5851 150.046 14.9621V15.0409V21.1058C150.046 21.5253 150.127 21.863 150.29 22.1189C150.453 22.3763 150.638 22.5747 150.847 22.7155C151.056 22.8564 151.258 22.9563 151.457 23.0139C151.655 23.0729 151.795 23.1062 151.877 23.1168Z" fill="#FFFCEB"/>
<path d="M159.834 9.03809C160.88 9.03809 161.844 9.22889 162.723 9.61202C163.601 9.99515 164.357 10.5176 164.987 11.1839C165.617 11.8487 166.109 12.6316 166.466 13.5326C166.822 14.4337 167 15.3968 167 16.4235C167 17.4608 166.806 18.4345 166.421 19.3462C166.034 20.2578 165.506 21.0559 164.836 21.7419C164.164 22.4279 163.374 22.97 162.464 23.3683C161.555 23.7665 160.576 23.9649 159.529 23.9649C158.481 23.9649 157.519 23.7741 156.64 23.391C155.762 23.0094 155.006 22.4854 154.376 21.8191C153.746 21.1543 153.254 20.3729 152.896 19.4779C152.541 18.583 152.363 17.6153 152.363 16.5795C152.363 15.5528 152.556 14.5821 152.942 13.6644C153.328 12.7482 153.857 11.9471 154.527 11.2596C155.199 10.5736 155.988 10.0315 156.899 9.63322C157.81 9.23646 158.788 9.03809 159.834 9.03809ZM159.683 23.1335C160.171 23.1335 160.595 22.9609 160.955 22.6156C161.315 22.2704 161.616 21.7964 161.854 21.1937C162.094 20.591 162.273 19.8868 162.395 19.0797C162.517 18.2725 162.577 17.4139 162.577 16.5023C162.577 15.5906 162.517 14.732 162.395 13.9249C162.273 13.1177 162.092 12.4135 161.854 11.8108C161.615 11.2081 161.315 10.7341 160.955 10.3889C160.594 10.0436 160.171 9.87097 159.683 9.87097C159.195 9.87097 158.771 10.0436 158.411 10.3889C158.049 10.7341 157.748 11.2081 157.504 11.8108C157.26 12.4135 157.079 13.1177 156.963 13.9249C156.846 14.732 156.789 15.5906 156.789 16.5023C156.789 17.4139 156.847 18.2725 156.963 19.0797C157.079 19.8868 157.26 20.591 157.504 21.1937C157.748 21.7964 158.051 22.2704 158.411 22.6156C158.771 22.9594 159.195 23.1335 159.683 23.1335Z" fill="#FFFCEB"/>
<path d="M25.6218 25.7616C25.5557 25.5284 25.5058 25.3649 25.4779 25.2786C25.4632 25.2331 25.4558 25.2089 25.4558 25.2089C25.1252 24.1988 24.6654 23.2433 24.0733 22.3468C22.7465 20.3342 20.9923 18.8517 18.8134 17.9083C17.4132 17.3025 15.9513 16.9951 14.4365 16.9921C9.96707 16.9815 5.49763 16.9876 1.02966 16.9876C0.740223 16.9876 0.450782 16.9906 0.161341 16.9876C0.0438019 16.986 -0.00909084 17.0391 0.00119386 17.1572C0.0114786 17.2904 0.0291095 17.4222 0.0335172 17.5554C0.0555558 18.3187 0.168688 19.0698 0.347935 19.8088C0.788708 21.6245 1.57916 23.2297 2.71048 24.6289C4.08569 26.113 6.12794 27.3487 8.07174 27.7833C10.0053 28.2164 11.9961 28.2633 13.9722 28.3451C13.9899 28.3451 14.0075 28.3466 14.0266 28.3466C15.8661 28.4223 18.2859 28.601 20.6235 29.0159C22.8744 29.4157 25.0503 30.0366 26.5563 30.9997C26.3594 28.6207 25.8775 26.6718 25.6218 25.7616Z" fill="#FFFCEB"/>
<path d="M11.5322 29.0177C11.5383 29.0162 11.5428 29.0162 11.5489 29.0146C11.5398 29.0162 11.5307 29.0162 11.5201 29.0177C11.5246 29.0177 11.5292 29.0177 11.5322 29.0177Z" fill="#FFFCEB"/>
<path d="M12.4695 28.922C12.4771 28.9205 12.4847 28.919 12.4923 28.9175C12.4817 28.919 12.471 28.919 12.4589 28.9205C12.4634 28.922 12.4665 28.922 12.4695 28.922Z" fill="#FFFCEB"/>
<path d="M11.5024 29.0191C11.5084 29.0176 11.5159 29.0176 11.5219 29.0176C11.5189 29.0176 11.5159 29.0176 11.5114 29.0176L11.5024 29.0191Z" fill="#FFFCEB"/>
<path d="M25.6218 6.14922C25.5557 6.38243 25.5058 6.54598 25.4779 6.6323C25.4632 6.67773 25.4558 6.70196 25.4558 6.70196C25.1252 7.71202 24.6654 8.66757 24.0733 9.56406C22.7465 11.5766 20.9923 13.0591 18.8134 14.0026C17.4132 14.6083 15.9513 14.9157 14.4365 14.9188C9.96707 14.9294 5.49763 14.9233 1.02966 14.9233C0.740223 14.9233 0.450782 14.9203 0.161341 14.9233C0.0438019 14.9248 -0.00909084 14.8718 0.00119386 14.7537C0.0114786 14.6204 0.0291095 14.4887 0.0335172 14.3554C0.0555558 13.5922 0.168688 12.8411 0.347935 12.1021C0.788708 10.2864 1.57916 8.6812 2.71048 7.28195C4.08569 5.7979 6.12794 4.5622 8.07174 4.12758C10.0053 3.69448 11.9961 3.64754 13.9722 3.56577C13.9899 3.56577 14.0075 3.56425 14.0266 3.56425C15.8661 3.48853 18.2859 3.30984 20.6235 2.89491C22.8744 2.49513 25.0503 1.87425 26.5563 0.911133C26.3594 3.29167 25.8775 5.24062 25.6218 6.14922Z" fill="#FFFCEB"/>
<path d="M11.5322 2.89502C11.5383 2.89653 11.5428 2.89653 11.5489 2.89805C11.5398 2.89653 11.5307 2.89653 11.5201 2.89502C11.5246 2.89502 11.5292 2.89502 11.5322 2.89502Z" fill="#FFFCEB"/>
<path d="M12.4695 2.98877C12.4771 2.99028 12.4847 2.9918 12.4923 2.99331C12.4817 2.9918 12.471 2.9918 12.4589 2.99028C12.4634 2.99028 12.4665 2.98877 12.4695 2.98877Z" fill="#FFFCEB"/>
<path d="M11.5024 2.89209C11.5084 2.8936 11.5159 2.8936 11.5219 2.8936C11.5189 2.8936 11.5159 2.8936 11.5114 2.8936L11.5024 2.89209Z" fill="#FFFCEB"/>
</svg>
