<svg width="389" height="322" viewBox="0 0 389 322" fill="none" xmlns="http://www.w3.org/2000/svg">
<path d="M347.495 132.707C336.998 108.764 303.24 85.6929 280.721 77.4414C243.792 63.9092 200.496 77.4869 164.239 62.0732C141.303 52.3232 123.725 32.007 103.161 17.2923C82.5978 2.57754 55.0228 -6.19336 32.6918 8.63627C27.6836 11.9637 23.1784 16.3611 19.5095 21.5125C11.9925 32.0644 8.25557 45.1993 4.72259 57.9678C1.58392 69.3073 -1.56154 81.3529 0.858744 92.4793C4.86536 110.904 22.1632 119.872 37.895 125.825C53.6269 131.778 71.2442 138.5 77.9793 155.666C80.837 162.951 81.3038 171.279 81.714 179.42C82.5434 195.923 83.3252 212.615 87.461 228.199C91.5991 243.782 99.4899 258.401 111.77 266.382C132.318 279.74 159.279 271.84 182.682 262.016C206.085 252.189 231.083 240.498 254.289 247.284C284.442 256.101 299.984 292.374 325.469 311.821C334.641 318.818 346.067 323.69 357.278 320.339C368.842 316.882 377.646 305.53 384.345 293.976C397.856 270.669 380.864 202.152 347.495 132.707Z" fill="#F4D6AB"/>
</svg>
