<svg width="335" height="339" viewBox="0 0 335 339" fill="none" xmlns="http://www.w3.org/2000/svg">
<path d="M335 112.009C332.119 80.8457 318.153 61.2107 302.986 34.2787C298.46 26.2398 293.307 18.3706 286.259 12.689C274.897 3.52852 259.954 1.07762 245.66 0.307919C186.99 -2.84179 127.449 18.2921 82.5651 58.2002C37.6811 98.1083 7.92276 156.378 1.05249 217.807C-0.397555 230.766 -0.830404 244.167 2.9474 256.594C7.30234 270.922 16.8611 282.756 26.4655 293.894C38.1139 307.399 50.4381 320.725 65.6744 329.409C80.9106 338.094 99.6698 341.621 115.716 334.739C135.947 326.065 147.271 303.614 155.476 282.298C163.681 260.982 171.246 237.873 188.385 223.61C213.201 202.96 249.118 207.809 278.629 195.815C306.555 184.467 327.894 156.783 332.691 125.673" fill="#A6C49F"/>
</svg>
