<svg width="31" height="39" viewBox="0 0 31 39" fill="none" xmlns="http://www.w3.org/2000/svg">
<path d="M7.69667 8.76491C7.52486 6.08984 8.28477 3.81161 10.2566 2.01725C11.7182 0.686967 13.4614 0.00798282 15.4411 7.23201e-05C17.7803 -0.0091566 19.7521 0.864954 21.3209 2.59472C22.8935 4.32843 23.4592 6.41021 23.3032 8.76359C23.8147 8.76359 24.2852 8.75436 24.7543 8.76622C25.431 8.78205 26.1208 8.73722 26.783 8.84797C28.5129 9.13802 29.816 10.5672 29.9217 12.3088C30.0856 14.9839 30.1953 17.6629 30.3235 20.3406C30.5059 24.1548 30.6869 27.9676 30.8653 31.7818C30.9142 32.8366 30.9737 33.8913 30.9988 34.9473C31.0517 37.2361 29.3455 38.9909 27.0433 38.9936C19.3464 39.0015 11.6508 39.0028 3.95395 38.9936C1.64118 38.9909 -0.0914163 37.2097 0.00373764 34.9038C0.170257 30.8721 0.375102 26.843 0.564088 22.8126C0.710784 19.6748 0.853515 16.537 1.00418 13.3991C1.02929 12.8731 1.04118 12.3378 1.14823 11.8263C1.52752 10.0293 3.06849 8.78732 4.90416 8.76622C5.81209 8.75568 6.72002 8.76491 7.69667 8.76491ZM15.4781 36.3976C19.3068 36.3976 23.1341 36.3989 26.9627 36.3963C27.8997 36.3963 28.4204 35.8505 28.39 34.917C28.3755 34.4846 28.3609 34.0508 28.3398 33.6184C28.1336 29.2491 27.9261 24.8812 27.7186 20.512C27.5957 17.9147 27.4821 15.3174 27.3473 12.7215C27.2971 11.7551 26.7843 11.3055 25.8288 11.3108C23.8609 11.3213 21.8918 11.3292 19.9239 11.3345C14.9825 11.3477 10.0412 11.3582 5.10108 11.3714C4.21166 11.3741 3.71342 11.8263 3.65659 12.7215C3.59051 13.7894 3.55615 14.8586 3.50593 15.9265C3.2099 22.2154 2.91122 28.5056 2.61651 34.7944C2.56496 35.894 3.05395 36.3976 4.15615 36.3989C7.93059 36.3976 11.705 36.3976 15.4781 36.3976ZM20.6918 8.74513C20.8808 6.44054 20.1869 4.54861 18.1715 3.34621C16.3055 2.23347 14.3773 2.29544 12.5733 3.5097C10.7297 4.75033 10.1204 6.57633 10.3147 8.74513H20.6918Z" fill="#E5A755"/>
</svg>
