<svg width="151" height="24" viewBox="0 0 151 24" fill="none" xmlns="http://www.w3.org/2000/svg">
<path d="M150.502 6.27459C150.228 5.2513 149.421 4.44491 148.398 4.17101C146.542 3.67327 139.099 3.67327 139.099 3.67327C139.099 3.67327 131.658 3.67327 129.801 4.17101C128.777 4.44491 127.97 5.2513 127.696 6.27459C127.198 8.1293 127.198 12 127.198 12C127.198 12 127.198 15.8707 127.696 17.7254C127.97 18.7487 128.777 19.5551 129.801 19.829C131.656 20.3267 139.099 20.3267 139.099 20.3267C139.099 20.3267 146.541 20.3267 148.398 19.829C149.421 19.5551 150.228 18.7487 150.502 17.7254C151 15.8707 151 12 151 12C151 12 150.999 8.1293 150.502 6.27459ZM136.719 15.569V8.43239L142.902 12.0014L136.719 15.569ZM95.396 10.3622C95.6894 10.0327 95.9301 9.69899 96.2319 9.41536C97.1569 8.54362 98.2529 8.10289 99.5312 8.11401C100.234 8.11957 100.928 8.17101 101.605 8.36566C103.155 8.81335 104.055 9.87974 104.484 11.3924C104.806 12.5269 104.865 13.692 104.868 14.8599C104.872 17.325 104.861 19.7887 104.867 22.2537C104.867 22.4845 104.803 22.5457 104.575 22.5429C103.305 22.5318 102.033 22.5318 100.764 22.5429C100.54 22.5443 100.492 22.4762 100.492 22.2649C100.499 19.9194 100.501 17.5753 100.494 15.2298C100.492 14.6416 100.455 14.0549 100.289 13.4835C99.986 12.431 99.2321 11.8943 98.1291 11.9527C96.6228 12.032 95.8397 12.7772 95.6477 14.3094C95.6018 14.675 95.5796 15.0407 95.5809 15.4091C95.5823 17.6893 95.5782 19.9708 95.5865 22.251C95.5879 22.479 95.5309 22.5457 95.2972 22.5429C94.0175 22.5318 92.7379 22.5332 91.4582 22.5415C91.2537 22.5429 91.1939 22.4873 91.1939 22.2802C91.1995 17.7643 91.1995 13.2485 91.1939 8.7341C91.1939 8.51025 91.2663 8.45881 91.4777 8.4602C92.6934 8.46854 93.9076 8.46993 95.1233 8.45881C95.3473 8.45742 95.4043 8.52972 95.4001 8.74105C95.3876 9.28189 95.396 9.82134 95.396 10.3622ZM88.4357 15.5217C88.4357 17.756 88.4315 19.9889 88.4413 22.2231C88.4427 22.472 88.3801 22.5471 88.1227 22.5443C86.8528 22.5304 85.5829 22.5332 84.313 22.5429C84.1099 22.5443 84.0487 22.4929 84.0487 22.2829C84.0543 17.7602 84.0543 13.2374 84.0501 8.71463C84.0501 8.52694 84.0946 8.4602 84.2935 8.46159C85.5815 8.46993 86.8695 8.47271 88.1575 8.4602C88.4051 8.45742 88.4385 8.55335 88.4385 8.76608C88.4329 11.017 88.4357 13.2694 88.4357 15.5217ZM88.7862 3.97915C88.7876 5.382 87.6484 6.52485 86.2492 6.52485C84.868 6.52485 83.719 5.382 83.7135 4.00139C83.7093 2.60549 84.8568 1.45568 86.2533 1.45707C87.6415 1.45846 88.7848 2.59715 88.7862 3.97915ZM12.0177 13.5002L12.6839 9.15676H8.51531V6.33855C8.51531 5.14981 9.09811 3.99166 10.9647 3.99166H12.8606V0.293361C12.8606 0.293361 11.14 0 9.49592 0C6.0617 0 3.81673 2.07994 3.81673 5.84637V9.15676H0V13.5002H3.81673V24H8.51531V13.5002H12.0177Z" fill="#FFFCEB"/>
<path d="M56.7265 21.2598L50.1446 11.6744L49.4005 10.5909L44.6921 3.73446L44.3013 3.16553H38.5164L39.9268 5.22093L46.186 14.3392L46.9302 15.4227L51.9598 22.7491L52.3506 23.3166H58.1355L56.7265 21.2598ZM53.0405 22.003L47.8148 14.3922L47.0706 13.3087L41.0076 4.4763H43.6156L48.5186 11.6186L49.2628 12.7021L55.6472 22.0016H53.0405V22.003Z" fill="#FFFCEB"/>
<path d="M47.0706 13.3087L47.8148 14.3922L46.9329 15.4213L40.1647 23.3152H38.4969L46.1888 14.3378L47.0706 13.3087ZM57.4415 3.16553L50.146 11.6744L49.2642 12.7021L48.52 11.6186L49.4019 10.5895L54.3439 4.82352L55.7723 3.16553H57.4415Z" fill="#FFFCEB"/>
</svg>
