<svg width="1104" height="863" viewBox="0 0 1104 863" fill="none" xmlns="http://www.w3.org/2000/svg">
<path d="M582.826 843.27C532.735 837.55 488.765 814.04 447.245 771.34C396.755 719.36 337.275 676.29 291.095 644.58C169.165 560.96 81.9354 460.08 24.4554 336.2C-6.58464 269.25 -6.96455 216.34 23.2954 174.44C89.8055 82.3998 185.395 36.89 299.775 42.84C362.125 46.16 418.015 69.5599 465.695 91.2899C584.695 145.45 699.165 145.95 815.675 92.87L821.235 90.34C909.825 49.99 1001.41 8.27989 1102.91 0.989894C1103.96 0.919894 1105.01 1.06983 1105.98 1.42983C1106.36 1.37983 1106.75 1.36002 1107.13 1.37002C1202.67 4.44002 1279.32 31.0098 1341.53 82.6798L1346.33 86.6598C1399.66 130.92 1454.79 176.69 1500.55 229.51C1527.85 260.97 1549.02 306.45 1558.59 354.29C1574.27 432.8 1552.28 512.54 1493.25 591.27C1437.5 665.68 1361.9 730.66 1262.14 789.92C1158.23 851.69 1054.94 873.54 946.415 857.07C854.315 843.02 745.495 830.33 636.735 842.94C617.935 845.1 600.005 845.23 582.826 843.27ZM315.955 58.81C310.345 58.17 304.705 57.6898 299.015 57.3998C188.255 51.6298 99.4755 93.8799 35.0855 182.97C8.20549 220.22 9.04532 268.33 37.6653 330.06C94.0353 451.51 179.625 550.46 299.335 632.56C346.075 664.66 406.325 708.28 457.705 761.18C510.775 815.77 565.475 836.52 635.045 828.43C745.516 815.62 855.586 828.45 948.616 842.63C1053.56 858.76 1153.79 837.35 1254.71 777.36C1352.79 719.09 1427 655.36 1481.58 582.49C1538.02 507.21 1559.13 431.39 1544.31 357.12C1535.21 311.68 1515.24 268.63 1489.55 239.02C1444.56 187.1 1389.9 141.73 1337.03 97.85L1332.23 93.86C1272.56 44.34 1198.83 18.7898 1106.68 15.9198C1105.74 15.8598 1105.07 15.7299 1104.36 15.4599C1104.22 15.4799 1104.09 15.4999 1103.95 15.5099C1005.09 22.6099 914.685 63.77 827.275 103.58L821.715 106.11C701.115 161.06 582.675 160.53 459.665 104.54C417.615 85.3899 368.965 64.86 315.955 58.81Z" fill="url(#paint0_linear_32_675)"/>
<defs>
<linearGradient id="paint0_linear_32_675" x1="823.137" y1="-32.9357" x2="721.336" y2="858.948" gradientUnits="userSpaceOnUse">
<stop offset="0.2714" stop-color="#F4F1DF"/>
<stop offset="0.6951" stop-color="#F4D6AB"/>
</linearGradient>
</defs>
</svg>
