<svg width="325" height="978" viewBox="0 0 325 978" fill="none" xmlns="http://www.w3.org/2000/svg">
<path d="M125.126 976.14C61.1956 968.84 7.3855 935.83 -42.4845 902.2C-59.4445 890.74 -76.1646 878.45 -92.3445 866.56C-116.245 848.98 -140.965 830.81 -166.535 815.3C-202.425 793.52 -233.695 785.03 -267.985 787.8C-306.475 790.88 -341.855 804.55 -376.095 817.75C-386.585 821.8 -397.094 825.85 -407.685 829.64C-469.034 851.51 -534.825 855.73 -603.285 842.19C-632.245 836.47 -661.215 829 -689.265 821.77C-713.885 815.42 -739.345 808.86 -764.545 803.56C-797.625 796.59 -831.545 790.5 -864.345 784.62C-896.035 778.93 -928.805 773.04 -960.905 766.36C-1023.63 753.28 -1075.09 702.68 -1080.58 648.68C-1083.93 615.72 -1079.07 581.7 -1065.31 541.6C-1043.38 477.63 -1004.86 422.61 -967.625 369.39C-910.435 287.71 -833.235 232.38 -737.235 203.63C-643.455 175.54 -533.845 138.66 -431.915 78.0901C-314.795 8.50008 -198.465 -35.01 -76.2646 -54.93C-27.0846 -62.94 23.0355 -70.1699 71.5155 -77.1599C93.9155 -80.3899 116.285 -83.6298 138.675 -86.9398C139.945 -87.1198 141.186 -86.96 142.286 -86.56C143.266 -86.69 144.245 -86.6199 145.205 -86.3499C204.915 -69.5399 237.235 -48.38 236.975 15.2001C236.795 61.7 230.176 110.04 217.306 158.88C195.606 241.35 169.055 320.58 145.945 387.21C118.025 467.79 130.015 539.61 182.635 606.77C222.195 657.22 260.596 706.73 295.596 757.62C323.016 797.49 330.955 833.64 319.885 868.15C295.185 945.31 212.696 978.95 146.505 977.56C139.276 977.43 132.136 976.94 125.126 976.14ZM-237.485 773.73C-211.695 776.67 -186.515 786.11 -158.965 802.84C-132.845 818.69 -107.865 837.05 -83.7045 854.82C-67.6445 866.63 -51.0344 878.83 -34.3245 890.13C19.2256 926.23 77.3955 961.55 146.836 963.01C207.786 964.3 283.595 933.78 306.026 863.73C315.625 833.8 308.296 801.8 283.616 765.9C248.856 715.35 210.595 666.05 171.185 615.78C115.275 544.42 102.525 468.1 132.185 382.46C155.215 316.09 181.665 237.2 203.225 155.2C215.615 108.22 222.235 59.8001 222.405 15.1701C222.625 -34.2899 203.656 -54.7299 141.266 -72.2899C141.066 -72.3499 140.895 -72.3999 140.695 -72.4699C118.345 -69.1599 95.9656 -65.9299 73.6056 -62.7099C25.1956 -55.7199 -24.8546 -48.5099 -73.9146 -40.5099C-194.275 -20.8999 -308.935 22.0001 -424.465 90.6501C-527.735 152.02 -638.415 189.28 -733.045 217.62C-827.115 245.8 -899.635 297.76 -954.725 376.47C-992.315 430.17 -1030.23 484.33 -1051.5 546.37C-1064.56 584.41 -1069.19 616.46 -1066.06 647.24C-1061.19 695.19 -1014.68 740.29 -957.905 752.13C-926.015 758.77 -893.335 764.64 -861.745 770.31C-828.845 776.22 -794.825 782.33 -761.515 789.33C-736.005 794.71 -710.385 801.31 -685.595 807.7C-657.765 814.87 -628.985 822.28 -600.455 827.93C-533.675 841.13 -472.255 837.21 -412.575 815.95C-402.085 812.22 -391.705 808.21 -381.325 804.21C-346.135 790.61 -309.725 776.57 -269.145 773.32C-258.375 772.42 -247.885 772.54 -237.485 773.73Z" fill="url(#paint0_linear_32_695)"/>
<defs>
<linearGradient id="paint0_linear_32_695" x1="-279.784" y1="-134.99" x2="-399.761" y2="916.127" gradientUnits="userSpaceOnUse">
<stop offset="0.2714" stop-color="#F4F1DF"/>
<stop offset="0.6951" stop-color="#F4D6AB"/>
</linearGradient>
</defs>
</svg>
