<svg width="736" height="563" viewBox="0 0 736 563" fill="none" xmlns="http://www.w3.org/2000/svg">
<path d="M277.905 560.17C271.055 559.39 264.165 558.44 257.235 557.32C150.135 540 70.4753 484.92 20.4453 393.61C-10.6247 336.88 -4.76452 284.2 38.3655 232.52C78.9655 183.91 134.385 165.41 192.405 149.26C279.195 125.03 357.035 101.45 430.475 58.1101C458.665 41.4801 489.755 29.3002 519.815 17.5202C533.395 12.2002 546.985 6.88016 560.325 1.14016C562.095 0.370162 563.975 0.330158 565.755 1.01016C566.545 0.890158 567.415 0.940123 568.175 1.10012C575.945 2.71012 583.975 3.80016 591.995 4.89016C610.235 7.37016 629.085 9.92012 645.255 18.4701C707.835 51.5301 737.245 110.7 735.185 199.36C733.565 271.41 703.765 337.64 644.045 401.82C529.525 524.86 412.675 575.56 277.905 560.17ZM564.525 15.2001C551.525 20.7401 538.326 25.9201 525.115 31.1001C495.595 42.6701 465.065 54.6302 437.865 70.6702C363.015 114.85 280.885 139.7 196.305 163.3C140.585 178.81 87.4554 196.48 49.5654 241.87C10.6954 288.41 5.36535 335.75 33.2253 386.61C80.9853 473.76 157.135 526.36 259.555 542.92C397.935 565.5 516.675 517.28 633.355 391.88C691.315 329.57 719.035 268.29 720.605 199.02C722.545 115.28 696.435 62.0001 638.435 31.3601C624.545 24.0201 607.785 21.7401 590.025 19.3301C581.655 18.2001 573.295 17.0502 565.215 15.3802C564.965 15.3302 564.735 15.2701 564.525 15.2001Z" fill="url(#paint0_linear_32_691)"/>
<defs>
<linearGradient id="paint0_linear_32_691" x1="399.989" y1="-18.1812" x2="333.262" y2="566.417" gradientUnits="userSpaceOnUse">
<stop offset="0.2714" stop-color="#F4F1DF"/>
<stop offset="0.6951" stop-color="#F4D6AB"/>
</linearGradient>
</defs>
</svg>
