<svg width="1442" height="4733" viewBox="0 0 1442 4733" fill="none" xmlns="http://www.w3.org/2000/svg">
<path d="M1108.78 4731.73C1104.82 4731.28 1100.88 4730.64 1097.02 4729.77C1006.03 4709.38 1001.46 4662.89 995.135 4598.55C994.505 4592.11 993.855 4585.44 993.085 4578.55C988.595 4538.26 989.645 4496.94 990.665 4456.99C991.205 4435.45 991.775 4413.19 991.445 4391.42C991.185 4372.02 987.615 4352.34 984.155 4335.65C979.265 4312.21 964.375 4300.34 939.895 4300.41C911.325 4300.47 882.745 4300.71 854.165 4300.96C814.605 4301.3 775.065 4301.65 735.505 4301.49L709.925 4301.47C602.355 4301.55 491.176 4301.61 398.115 4226.35C351.125 4188.32 317.565 4157.04 289.285 4124.96C258.985 4090.56 229.625 4054.39 201.225 4019.41C172.365 3983.86 142.536 3947.1 111.776 3912.3C73.4456 3868.93 18.9155 3839.68 -59.8845 3820.26L-83.9645 3814.34C-190.885 3788.07 -301.435 3760.9 -404.505 3716.21C-515.005 3668.28 -593.785 3598.85 -645.385 3503.96C-683.695 3433.56 -739.164 3345.01 -828.814 3284.81C-874.724 3253.95 -923.295 3226.1 -973.175 3197.92C-1039.43 3160.49 -1086.88 3101.49 -1114.2 3022.56C-1149.88 2919.4 -1196.8 2821.13 -1253.63 2730.49C-1260.97 2718.78 -1269.53 2707.37 -1277.79 2696.34L-1280.57 2692.63C-1314.74 2646.76 -1355.23 2638.18 -1404.34 2666.31C-1442 2687.92 -1475.75 2718.46 -1508.41 2748L-1511.7 2750.99C-1525.47 2763.43 -1538.11 2777.91 -1550.33 2791.91C-1562.47 2805.79 -1574.99 2820.14 -1588.86 2832.87C-1652.48 2891.16 -1708.99 2920.29 -1772.13 2927.3C-1776.2 2927.69 -1779.74 2924.85 -1780.17 2920.86C-1780.62 2916.86 -1777.73 2913.25 -1773.74 2912.8C-1713.86 2906.16 -1659.89 2878.19 -1598.72 2822.12C-1585.43 2809.94 -1573.16 2795.9 -1561.31 2782.32C-1548.8 2768 -1535.88 2753.19 -1521.48 2740.17L-1518.17 2737.19C-1484.94 2707.13 -1450.59 2676.06 -1411.58 2653.66C-1355.7 2621.64 -1307.68 2631.82 -1268.88 2683.9L-1266.12 2687.6C-1257.68 2698.87 -1248.95 2710.52 -1241.28 2722.74C-1183.86 2814.31 -1136.46 2913.58 -1100.41 3017.79C-1074.29 3093.26 -1029.06 3149.59 -965.995 3185.22C-915.875 3213.54 -867.034 3241.54 -820.694 3272.71C-728.414 3334.68 -671.694 3425.12 -632.594 3496.99C-582.604 3588.92 -506.104 3656.25 -398.704 3702.83C-296.784 3747.04 -186.834 3774.06 -80.4845 3800.18L-56.3845 3806.12C25.4155 3826.27 82.3154 3856.95 122.685 3902.64C153.655 3937.67 183.596 3974.55 212.536 4010.22C240.846 4045.08 270.105 4081.14 300.225 4115.32C327.935 4146.77 360.945 4177.52 407.285 4215.02C496.265 4287.01 604.885 4286.95 709.905 4286.89L735.535 4286.91C775.035 4287.06 814.525 4286.72 854.005 4286.38C882.635 4286.13 911.245 4285.89 939.855 4285.82C971.295 4285.73 992.095 4302.41 998.395 4332.68C1002 4350.05 1005.72 4370.58 1006.01 4391.21C1006.32 4413.26 1005.76 4435.67 1005.22 4457.35C1004.22 4496.82 1003.19 4537.63 1007.55 4576.93C1008.32 4583.89 1008.99 4590.61 1009.63 4597.11C1015.79 4659.69 1019.5 4697.46 1100.2 4715.53C1115.13 4718.92 1131.49 4718.27 1147.3 4717.66C1240.35 4714.04 1299.84 4677.59 1329.15 4606.25C1345.04 4567.6 1351.88 4524.47 1349.5 4478.05C1345.34 4397.69 1319.77 4341.88 1269.02 4302.4C1235.94 4276.71 1197.66 4252.96 1151.99 4229.8C1095.31 4201.04 1102.91 4164.12 1117.81 4131.78C1135.14 4094.21 1153.76 4065.8 1174.7 4044.91C1207.25 4012.41 1242.72 3981.97 1277.04 3952.53C1292.4 3939.36 1307.75 3926.19 1322.9 3912.8C1381.26 3861.18 1416.74 3795.09 1425.51 3721.67C1434.8 3644 1401.63 3579.36 1326.92 3529.54C1260.46 3485.18 1195.18 3436.83 1132.06 3390.06C1112.25 3375.39 1092.45 3360.71 1072.58 3346.14C1008.03 3298.81 936.725 3251.12 852.845 3223.01L850.005 3222.06C802.245 3206.07 752.865 3189.53 707.105 3166.96C615.795 3121.93 576.455 3037.82 541.055 2948.26C514.926 2882.19 488.315 2816.29 461.725 2750.4C446.125 2711.8 430.555 2673.2 415.065 2634.57C377.075 2539.82 339.235 2438.28 330.325 2330.41C323.225 2244.25 342.715 2183.03 391.665 2137.77C407.325 2123.28 423.175 2109 439.035 2094.72C472.925 2064.17 507.976 2032.57 540.365 1999.58C577.255 1962.05 619.055 1919.52 647.955 1872.14C678.465 1822.15 677.875 1767.69 646.295 1722.75C623.335 1690.02 595.275 1655.93 560.505 1618.53C522.735 1577.9 481.795 1528.79 474.015 1460.07C465.965 1389.27 485.325 1317.57 533.215 1240.86C562.265 1194.38 597.605 1151.02 631.785 1109.08C645.545 1092.21 659.285 1075.33 672.655 1058.24C771.265 932.28 778.855 841.4 701.655 710.95C681.325 676.58 658.185 642.93 635.795 610.4C624.805 594.44 613.835 578.48 603.105 562.35C546.396 477.1 528.935 397.28 549.745 318.33C561.955 272.02 581.465 227.09 600.305 183.64C606.345 169.73 612.375 155.85 618.185 141.9C647.765 70.8601 673.905 -6.21997 664.895 -88.4999L660.595 -127.19C650.975 -213.12 641.035 -301.96 641.225 -391.13C641.425 -492.12 672.855 -582.33 706.775 -664.79C727.205 -714.48 749.005 -764.55 770.085 -812.96C779.295 -834.1 788.485 -855.25 797.605 -876.42C799.186 -880.11 803.385 -881.89 807.195 -880.23C810.885 -878.64 812.595 -874.36 811.005 -870.66C801.855 -849.46 792.655 -828.3 783.445 -807.14C762.405 -758.8 740.635 -708.8 720.265 -659.24C686.895 -578.17 656.005 -489.57 655.825 -391.1C655.635 -302.76 665.515 -214.33 675.085 -128.81L679.395 -90.0899C688.755 -4.53992 661.995 74.6601 631.655 147.49C625.825 161.5 619.765 175.46 613.705 189.43C595.065 232.39 575.795 276.8 563.865 322.04C544.186 396.72 560.995 472.68 615.275 554.27C625.945 570.33 636.896 586.22 647.835 602.13C670.355 634.86 693.645 668.71 714.225 703.52C794.135 838.56 785.985 937.13 684.165 1067.2C670.725 1084.37 656.916 1101.32 643.115 1118.26C609.216 1159.84 574.176 1202.85 545.615 1248.56C498.906 1323.38 480.755 1390.07 488.535 1458.41C495.105 1516.46 525.045 1558.92 571.215 1608.6C606.425 1646.49 634.905 1681.08 658.275 1714.36C693.315 1764.27 694.105 1824.55 660.435 1879.72C630.665 1928.53 588.225 1971.7 550.795 2009.79C518.105 2043.1 482.885 2074.84 448.825 2105.55C433.025 2119.79 417.216 2134.04 401.605 2148.48C356.216 2190.45 338.185 2247.89 344.895 2329.23C353.625 2435.07 391.045 2535.44 428.635 2629.16C444.115 2667.79 459.695 2706.37 475.285 2744.96C501.885 2810.88 528.505 2876.82 554.655 2942.92C588.975 3029.72 626.946 3111.18 713.605 3153.91C758.476 3176.03 807.385 3192.41 854.685 3208.25L857.545 3209.21C943.315 3237.95 1015.76 3286.36 1081.26 3334.4C1101.15 3348.99 1120.98 3363.67 1140.79 3378.36C1203.79 3425.02 1268.91 3473.26 1335.08 3517.43C1414.72 3570.54 1450.04 3639.84 1440.04 3723.42C1430.84 3800.43 1393.7 3869.7 1332.61 3923.73C1317.41 3937.17 1302.01 3950.39 1286.6 3963.6C1252.49 3992.86 1217.21 4023.12 1185.05 4055.23C1165.36 4074.89 1147.72 4101.93 1131.11 4137.9C1115.76 4171.24 1115.34 4194.84 1158.68 4216.82C1205.18 4240.41 1244.23 4264.65 1278.04 4290.91C1332.4 4333.18 1359.76 4392.41 1364.14 4477.32C1366.65 4525.9 1359.45 4571.15 1342.74 4611.8C1311.03 4688.98 1247.33 4728.38 1147.96 4732.24C1135.58 4732.71 1122.04 4733.24 1108.78 4731.73Z" fill="url(#paint0_linear_32_533)"/>
<defs>
<linearGradient id="paint0_linear_32_533" x1="323.162" y1="-935.801" x2="-305.287" y2="4570.05" gradientUnits="userSpaceOnUse">
<stop offset="0.2714" stop-color="#F4F1DF"/>
<stop offset="0.6951" stop-color="#F4D6AB"/>
</linearGradient>
</defs>
</svg>
