<svg width="336" height="1067" viewBox="0 0 336 1067" fill="none" xmlns="http://www.w3.org/2000/svg">
<path d="M-88.1545 1061.89C-193.085 1049.91 -279.875 1014.93 -352.145 955.72L-354.364 953.9C-431.914 890.32 -512.095 824.57 -537.765 718.39C-546.295 683.1 -555.104 637.2 -547.614 595.04C-538.114 541.6 -512.234 488.83 -470.734 438.23C-416.804 372.52 -391.505 291.86 -395.525 198.47C-398.935 118.78 -364.265 21.3401 -255.285 8.99008C-239.375 7.18008 -223.445 5.43003 -207.525 3.68003L-176.814 0.289888C-175.624 0.159888 -174.474 0.330045 -173.474 0.700045C-172.684 0.600045 -171.865 0.609888 -171.104 0.789888C-109.854 12.9799 -33.3445 36.3296 15.0455 109.26C22.2055 120.05 29.4955 130.79 36.7755 141.55C61.3055 177.78 86.6955 215.25 107.485 254.53L125.505 288.62C174.945 382.3 226.076 479.16 289.516 566.86C338.956 635.13 348.306 706.6 316.566 773.56C291.176 827.11 259.866 883.05 223.536 939.82C168.686 1025.54 82.6655 1069.25 -25.2045 1066.25C-46.8745 1065.66 -67.8546 1064.21 -88.1545 1061.89ZM-175.074 14.7699C-175.074 14.7699 -175.164 14.7799 -175.194 14.7899L-205.934 18.1698C-221.824 19.9198 -237.734 21.6601 -253.625 23.4701C-352.535 34.6701 -384.244 120.89 -380.944 197.84C-376.754 294.92 -403.174 378.91 -459.434 447.47C-499.354 496.12 -524.175 546.63 -533.265 597.58C-540.265 637.08 -531.764 681.06 -523.574 714.97C-499.064 816.4 -424.274 877.71 -345.114 942.62L-342.895 944.44C-259.255 1012.98 -155.145 1048.04 -24.7745 1051.69C77.7054 1054.54 159.336 1013.13 211.266 931.96C247.276 875.7 278.275 820.31 303.405 767.32C340.455 689.17 309.895 619.82 277.735 575.41C213.675 486.87 162.306 389.54 112.626 295.43L94.6256 261.36C74.1856 222.78 49.0355 185.63 24.7155 149.73C17.4055 138.94 10.1054 128.16 2.91541 117.33C-42.4946 48.8799 -115.454 26.7297 -173.934 15.0897C-174.344 15.0197 -174.704 14.9099 -175.074 14.7699Z" fill="url(#paint0_linear_32_671)"/>
<defs>
<linearGradient id="paint0_linear_32_671" x1="-34.3067" y1="16.1259" x2="-152.796" y2="1054.21" gradientUnits="userSpaceOnUse">
<stop offset="0.2714" stop-color="#F4F1DF"/>
<stop offset="0.6951" stop-color="#F4D6AB"/>
</linearGradient>
</defs>
</svg>
