<svg width="1046" height="1268" viewBox="0 0 1046 1268" fill="none" xmlns="http://www.w3.org/2000/svg">
<path d="M881.365 1266.36C866.695 1264.69 851.895 1260.23 837.315 1253.02C802.045 1235.56 768.495 1214.96 737.575 1191.78C710.935 1171.81 684.685 1150.49 659.295 1129.87C623.925 1101.14 587.355 1071.44 549.465 1045.2C492.275 1005.53 430.685 969.87 371.115 935.37L342.975 919.05C233.085 855.16 155.865 758.9 94.8354 673.16C50.2754 610.57 20.7253 540.18 7.01534 463.95C-13.1647 352.1 16.7553 267.87 98.5053 206.45C105.055 201.53 111.575 196.51 118.075 191.5C140.245 174.47 163.135 156.86 187.675 142.51C297.065 78.45 389.575 28.11 500.605 11.23C521.035 8.13 541.555 5.76993 562.085 3.40993C571.405 2.32993 580.735 1.2699 590.035 0.129897C591.285 -0.0301026 592.445 0.140044 593.465 0.530044C594.045 0.450044 594.635 0.450034 595.235 0.520034L619.665 3.28004C638.205 5.38004 656.735 7.47994 675.225 9.66994C706.705 13.3999 750.325 24.1001 765.785 73.8101C769.155 84.6301 772.635 95.45 776.115 106.27C789.555 148.01 803.455 191.16 810.355 234.97C827.945 346.38 869.755 439.96 938.235 521.05C984.835 576.25 1013.43 643.36 1023.23 720.5C1030.31 776.26 1037.87 842.34 1040.26 909.72C1040.81 925 1041.66 940.3 1042.52 955.62C1046.22 1021.85 1050.06 1090.33 1027.1 1157.33C1011.19 1203.67 977.145 1242.4 938.235 1258.41C919.935 1265.93 900.745 1268.57 881.365 1266.36ZM591.865 14.5801H591.825C582.475 15.7301 573.115 16.7999 563.755 17.8799C543.405 20.2199 523.045 22.5499 502.805 25.6299C394.325 42.1199 303.055 91.8201 195.035 155.07C171.285 168.98 148.765 186.3 126.965 203.05C120.405 208.1 113.845 213.13 107.245 218.09C30.3353 275.88 2.24543 355.45 21.3554 461.36C34.6754 535.47 63.4053 603.88 106.715 664.7C166.845 749.17 242.805 843.94 350.305 906.44L378.415 922.74C438.235 957.38 500.075 993.2 557.765 1033.21C596.095 1059.76 632.895 1089.65 668.455 1118.54C693.755 1139.07 719.895 1160.31 746.305 1180.11C776.515 1202.75 809.305 1222.88 843.765 1239.94C874.205 1255 904.115 1256.64 932.685 1244.92C967.825 1230.45 998.705 1195.08 1013.3 1152.59C1035.34 1088.29 1031.58 1021.25 1027.96 956.41C1027.09 941 1026.24 925.6 1025.7 910.22C1023.33 843.44 1015.81 777.76 1008.75 722.33C999.315 648.02 971.825 583.46 927.065 530.44C856.845 447.26 813.965 351.35 795.955 237.23C789.215 194.55 775.505 151.95 762.225 110.73C758.735 99.86 755.235 88.9999 751.855 78.1299C741.865 46.0199 717.695 29.3699 673.485 24.1299C654.995 21.9399 636.505 19.84 618.005 17.76L593.565 14.99C592.985 14.92 592.415 14.7901 591.865 14.5801Z" fill="url(#paint0_linear_32_713)"/>
<defs>
<linearGradient id="paint0_linear_32_713" x1="605.288" y1="1.47971" x2="466.341" y2="1218.79" gradientUnits="userSpaceOnUse">
<stop offset="0.2714" stop-color="#F4F1DF"/>
<stop offset="0.6951" stop-color="#F4D6AB"/>
</linearGradient>
</defs>
</svg>
