<svg width="827" height="891" viewBox="0 0 827 891" fill="none" xmlns="http://www.w3.org/2000/svg">
<path d="M712.305 889.8C699.475 888.34 685.685 884.84 670.965 879.29C666.845 877.75 662.505 876.61 658.205 875.46C650.845 873.49 643.225 871.46 636.235 867.62L619.875 858.68C477.635 780.97 330.575 700.63 200.695 596.53C138.495 546.7 68.7353 486.39 27.9553 400.98C-29.2947 281.19 3.76542 168.19 116.375 98.7C188.935 53.94 277.105 7.30994 380.925 0.879944C381.945 0.809944 382.955 0.950129 383.925 1.32013C384.375 1.26013 384.825 1.25008 385.275 1.27008C479.695 6.48008 546.095 55.8201 582.785 147.57C596.785 182.56 607.435 219.52 616.875 254.23C635.715 323.63 664.775 377.48 703.215 414.31C810.295 516.96 846.855 644.63 814.975 804.63C807.605 841.59 791.735 867.07 767.805 880.37C752.095 889.08 733.525 892.22 712.305 889.8ZM382.325 15.3702C382.155 15.3902 382.005 15.41 381.835 15.42C281.215 21.66 195.065 67.2902 124.035 111.1C16.8253 177.27 -13.3846 280.63 41.1254 394.7C76.6154 469.03 134.225 524.6 209.825 585.16C338.705 688.46 485.195 768.49 626.875 845.89L643.245 854.84C648.705 857.83 655.145 859.56 661.985 861.39C666.745 862.66 671.515 863.95 676.095 865.65C710.965 878.78 739.435 879.46 760.745 867.61C780.755 856.5 794.205 834.34 800.685 801.77C831.525 647.05 796.355 523.75 693.145 424.82C652.765 386.14 622.375 330.03 602.835 258.04C593.505 223.74 582.985 187.28 569.275 152.97C534.875 66.93 472.605 20.6901 384.475 15.8101C383.695 15.7701 382.965 15.6202 382.325 15.3702Z" fill="url(#paint0_linear_32_715)"/>
<defs>
<linearGradient id="paint0_linear_32_715" x1="469.103" y1="10.1889" x2="373.143" y2="850.899" gradientUnits="userSpaceOnUse">
<stop offset="0.2714" stop-color="#F4F1DF"/>
<stop offset="0.6951" stop-color="#F4D6AB"/>
</linearGradient>
</defs>
</svg>
