<svg width="1920" height="2456" viewBox="0 0 1920 2456" fill="none" xmlns="http://www.w3.org/2000/svg">
<path d="M1060.48 3242.81C1059.5 3242.7 1058.52 3242.38 1057.61 3241.84C1054.15 3239.8 1052.99 3235.34 1055.02 3231.86C1063.92 3216.75 1072.92 3201.71 1081.94 3186.66C1102.06 3153.03 1122.86 3118.27 1141.98 3083.4L1156 3058.03C1179.88 3014.93 1204.58 2970.38 1222.36 2924.31C1247.42 2859.32 1252.4 2786.79 1237.12 2708.74C1229.18 2668.15 1218.2 2627.3 1207.58 2587.8C1203.83 2573.86 1200.08 2559.92 1196.45 2545.95C1193.85 2535.91 1190.77 2526.01 1187.69 2516.1C1183.67 2503.22 1179.52 2489.9 1176.51 2476.42C1169.58 2445.59 1171.7 2422.39 1182.97 2405.5C1193.91 2389.09 1213.37 2378.63 1242.45 2373.54C1303.36 2362.92 1352.34 2359.58 1396.59 2363.01C1476.07 2369.18 1541.34 2347.09 1596.14 2295.49C1612.4 2280.16 1628.63 2264.8 1644.86 2249.43C1694.51 2202.44 1745.85 2153.85 1797.54 2107.32C1855.01 2055.62 1897.94 1990.92 1939.46 1928.36L1957.3 1901.58C2006.86 1827.68 2047.22 1814.26 2130.09 1844.01C2256.15 1889.2 2379.82 1891.3 2497.64 1850.24C2586.3 1819.3 2626.81 1747.14 2611.72 1647.06C2598.44 1559.23 2547.16 1494.74 2459.29 1455.35C2433.96 1443.99 2407.6 1433.46 2382.12 1423.28C2343.07 1407.67 2302.69 1391.52 2264.68 1371.95C2142.33 1308.96 2059.23 1216.7 2017.64 1097.74C2007.09 1067.49 1999.72 1035.8 1992.58 1005.14C1987.97 985.39 1983.23 964.97 1977.69 945.25C1936.61 799.16 1852.4 704.49 1720.24 655.81C1685.53 643.02 1636.97 645.63 1614.78 695.33C1590.98 748.7 1576.77 808.31 1568.76 888.6C1565.28 923.83 1563.21 955.71 1573.27 988.9C1583.82 1023.59 1603.66 1045.55 1635.71 1058.01C1663.82 1068.95 1692.11 1079.44 1720.43 1089.93C1754.66 1102.62 1790.07 1115.74 1824.6 1129.5C1860.57 1143.87 1894.64 1159.67 1916.29 1194.83C1945.64 1242.48 1929.13 1303.53 1876.17 1343.31C1842.76 1368.45 1804.09 1387.17 1766.68 1405.27C1754.3 1411.27 1741.94 1417.26 1729.75 1423.47C1713.39 1431.82 1696.37 1439.37 1679.91 1446.67C1662.03 1454.61 1643.53 1462.82 1626.06 1471.99C1578.76 1496.75 1548.08 1540.83 1529.47 1610.71C1521.5 1640.57 1515.85 1671.74 1510.4 1701.88C1505.8 1727.22 1501.06 1753.41 1494.93 1778.92C1479.88 1841.36 1451.19 1885.84 1360.02 1899.99C1336.79 1903.59 1313.52 1906.94 1290.25 1910.3C1259.78 1914.7 1229.33 1919.11 1198.94 1924.05C1113.37 1937.98 1052.36 1973.7 1012.47 2033.25C994.385 2060.27 980.185 2090.89 966.445 2120.49C958.975 2136.58 951.495 2152.68 943.385 2168.38C917.925 2217.64 872.775 2242.64 816.245 2238.78C746.395 2233.99 675.575 2227.11 607.085 2220.44C565.265 2216.37 523.426 2212.3 481.575 2208.66C447.906 2205.83 420.965 2193.04 403.575 2171.9C385.625 2150.07 378.145 2119.74 381.985 2084.18C392.715 1984.31 431.535 1922.18 504.175 1888.66C533.155 1875.3 568.295 1868.68 600.605 1870.5C733.275 1877.89 822.315 1799.54 838.835 1660.92C842.385 1631.01 844.755 1599.58 838.235 1572.27C823.785 1511.62 754.485 1465.39 686.755 1471.27C670.885 1472.66 654.995 1473.86 639.095 1475.07C598.706 1478.14 556.945 1481.31 516.525 1487.57C446.835 1498.4 385.206 1475.58 338.345 1421.62C301.936 1379.63 268.895 1333.74 236.945 1289.37C222.545 1269.38 208.155 1249.39 193.415 1229.68C178.205 1209.35 163.286 1188.77 148.355 1168.2C113.026 1119.51 76.5054 1069.15 36.7754 1023.15C1.27539 982.05 -50.6646 955.09 -117.575 943.02C-143.205 938.4 -168.865 934.04 -194.535 929.69C-242.955 921.47 -293.035 912.96 -341.975 902.77C-453.315 879.66 -531.905 847.46 -596.745 798.4C-642.975 763.43 -680.985 715.08 -716.345 646.23C-741.805 596.68 -766.595 552.55 -792.125 511.33C-858.355 404.36 -965.725 357.61 -1051.88 328.82L-1055.82 327.49C-1092.39 315.24 -1130.2 302.59 -1163.89 283.26C-1212.27 255.49 -1230.11 206.5 -1247.34 159.13C-1249.61 152.9 -1251.87 146.69 -1254.2 140.52C-1265.42 110.82 -1277.94 79.6 -1296.31 53.1C-1323.65 13.84 -1361.56 5.05011 -1405.94 27.7401C-1430.61 40.3701 -1453.81 57.5901 -1476.25 74.2401L-1485.25 80.8998C-1548.31 127.4 -1611.45 170.1 -1690.28 181.74C-1714.7 185.32 -1739.74 186 -1763.95 186.65C-1775.02 186.95 -1786.11 187.25 -1797.15 187.82C-1801.22 188.05 -1804.61 184.95 -1804.8 180.91C-1805.02 176.89 -1801.93 173.46 -1797.91 173.25C-1786.74 172.68 -1775.53 172.37 -1764.34 172.07C-1740.56 171.43 -1715.96 170.77 -1692.41 167.31C-1616.9 156.16 -1555.42 114.52 -1493.88 69.16L-1484.93 62.5199C-1462.01 45.5299 -1438.31 27.9499 -1412.57 14.7599C-1361.49 -11.3301 -1315.96 -0.670338 -1284.32 44.7797C-1264.98 72.6497 -1252.09 104.81 -1240.54 135.37C-1238.18 141.59 -1235.9 147.86 -1233.62 154.14C-1216.53 201.12 -1200.38 245.5 -1156.63 270.62C-1124.17 289.22 -1087.06 301.65 -1051.17 313.67L-1047.22 315C-958.765 344.55 -848.395 392.72 -779.695 503.66C-753.965 545.22 -728.995 589.68 -703.355 639.57C-669.035 706.4 -632.345 753.17 -587.925 786.78C-524.875 834.47 -448.105 865.84 -338.965 888.5C-290.285 898.64 -240.355 907.12 -192.065 915.31C-166.345 919.68 -140.615 924.05 -114.955 928.67C-44.6746 941.34 10.0854 969.92 47.8455 1013.62C87.9755 1060.09 124.685 1110.7 160.195 1159.63C175.095 1180.15 189.975 1200.67 205.135 1220.95C219.915 1240.73 234.365 1260.79 248.805 1280.85C280.565 1324.96 313.406 1370.58 349.375 1412.06C393.375 1462.75 448.865 1483.32 514.325 1473.16C555.315 1466.8 597.355 1463.61 638.015 1460.53C653.855 1459.32 669.705 1458.12 685.505 1456.74C760.065 1450.2 836.395 1501.59 852.425 1568.88C859.485 1598.4 857.035 1631.38 853.325 1662.63C836.075 1807.57 738.926 1892.8 599.815 1885.04C569.805 1883.35 537.185 1889.49 510.305 1901.88C442.795 1933.03 406.635 1991.45 396.495 2085.72C393.095 2117.29 399.446 2143.88 414.865 2162.62C429.716 2180.65 453.186 2191.46 482.845 2194.12C524.765 2197.76 566.635 2201.83 608.505 2205.91C676.915 2212.56 747.615 2219.45 817.255 2224.21C868.355 2227.72 907.495 2206.09 930.445 2161.68C938.465 2146.16 945.845 2130.24 953.245 2114.33C967.215 2084.22 981.656 2053.09 1000.37 2025.13C1042.07 1962.91 1108.09 1924.05 1196.63 1909.65C1227.09 1904.69 1257.65 1900.28 1288.2 1895.87C1311.42 1892.51 1334.64 1889.16 1357.82 1885.56C1441.25 1872.62 1466.73 1833.85 1480.79 1775.49C1486.82 1750.39 1491.53 1724.4 1496.08 1699.26C1501.59 1668.84 1507.29 1637.38 1515.4 1606.94C1535.15 1532.83 1568.17 1485.85 1619.33 1459.06C1637.22 1449.67 1655.95 1441.36 1674.04 1433.33C1690.32 1426.11 1707.15 1418.63 1723.18 1410.46C1735.44 1404.21 1747.91 1398.17 1760.38 1392.14C1797.15 1374.33 1835.16 1355.92 1867.46 1331.64C1914.15 1296.56 1929.15 1243.43 1903.93 1202.46C1884.61 1171.09 1852.84 1156.44 1819.23 1143.02C1784.88 1129.33 1749.55 1116.23 1715.4 1103.58C1687.02 1093.06 1658.65 1082.54 1630.45 1071.58C1593.9 1057.36 1571.31 1032.44 1559.37 993.12C1548.5 957.35 1550.65 923.95 1554.29 887.13C1562.46 805.21 1577.02 744.22 1601.5 689.37C1626.08 634.26 1681.49 625.96 1725.3 642.1C1860.25 691.81 1949.9 792.47 1991.75 941.28C1997.38 961.32 2002.16 981.91 2006.8 1001.81C2013.84 1032.09 2021.12 1063.4 2031.42 1092.91C2071.73 1208.23 2152.46 1297.75 2271.36 1358.97C2308.75 1378.23 2348.81 1394.23 2387.53 1409.72C2413.16 1419.96 2439.64 1430.55 2465.26 1442.03C2557.95 1483.58 2612.08 1551.83 2626.13 1644.87C2642.39 1752.67 2598.47 1830.48 2502.44 1863.99C2381.42 1906.17 2254.5 1904.09 2125.17 1857.71C2048.63 1830.22 2015.19 1841.4 1969.41 1909.69L1951.6 1936.41C1909.59 1999.73 1866.13 2065.21 1807.29 2118.15C1755.73 2164.54 1704.47 2213.08 1654.89 2260.01C1638.64 2275.38 1622.41 2290.76 1606.12 2306.09C1548.17 2360.67 1479.27 2384.04 1395.47 2377.54C1352.46 2374.2 1304.62 2377.49 1244.95 2387.89C1220.01 2392.26 1203.7 2400.66 1195.08 2413.59C1186.14 2426.98 1184.72 2446.48 1190.72 2473.22C1193.61 2486.13 1197.67 2499.16 1201.59 2511.76C1204.75 2521.89 1207.89 2532.03 1210.54 2542.28C1214.16 2556.19 1217.9 2570.09 1221.64 2583.99C1232.34 2623.74 1243.39 2664.83 1251.42 2705.92C1267.23 2786.71 1262.01 2861.94 1235.94 2929.53C1217.8 2976.54 1192.86 3021.54 1168.73 3065.07L1154.75 3090.39C1135.51 3125.51 1114.62 3160.39 1094.42 3194.13C1085.44 3209.14 1076.45 3224.16 1067.58 3239.24C1066.09 3241.82 1063.25 3243.12 1060.48 3242.81Z" fill="url(#paint0_linear_32_531)"/>
<defs>
<linearGradient id="paint0_linear_32_531" x1="495.316" y1="211.811" x2="161.109" y2="3139.81" gradientUnits="userSpaceOnUse">
<stop offset="0.2714" stop-color="#F4F1DF"/>
<stop offset="0.6951" stop-color="#F4D6AB"/>
</linearGradient>
</defs>
</svg>
