<svg width="228" height="1037" viewBox="0 0 228 1037" fill="none" xmlns="http://www.w3.org/2000/svg">
<path d="M-118.545 1034.65C-137.995 1032.43 -158.014 1027.98 -178.594 1021.27C-283.714 986.96 -370.654 919.13 -437.004 819.66C-479.194 756.36 -529.374 704.3 -590.384 660.5C-611.024 645.71 -632.745 631.52 -653.765 617.81C-682.675 598.94 -712.564 579.42 -740.334 557.87C-847.264 474.86 -892.725 376.84 -879.285 258.22C-873.785 209.59 -849.225 179.1 -804.165 165.01C-736.985 144.03 -680.294 173.86 -643.494 198.13C-624.275 210.78 -605.855 225.11 -588.035 238.96C-568.095 254.47 -547.474 270.49 -525.974 283.96C-499.624 300.48 -467.474 316.88 -428.704 313.41C-378.954 308.94 -341.465 284.85 -317.285 241.8C-304.385 218.84 -292.955 194.41 -281.895 170.78C-273.765 153.41 -265.625 136.02 -256.854 118.98C-229.144 65.2201 -193.055 7.29012 -114.895 0.250122C-113.735 0.160122 -112.674 0.330053 -111.694 0.680053C-111.244 0.620053 -110.775 0.610005 -110.305 0.630005C-49.3846 4.49 3.6756 29.2801 51.8356 76.4601C122.416 145.58 159.345 233.23 188.425 309.95C229.965 419.69 238.406 524.52 214.225 630.42C196.255 709.03 174.235 792.79 135.225 872.8C77.5854 990.98 -11.1746 1046.9 -118.545 1034.65ZM-742.285 173.19C-761.715 170.97 -780.644 172.93 -799.834 178.92C-839.334 191.27 -859.984 216.99 -864.824 259.86C-877.624 373.02 -833.995 466.73 -731.415 546.35C-704.125 567.54 -674.465 586.89 -645.805 605.61C-624.665 619.41 -602.794 633.68 -581.895 648.67C-519.414 693.51 -468.065 746.8 -424.895 811.58C-360.404 908.25 -276.024 974.15 -174.084 1007.41C-45.7745 1049.29 56.6956 1000.55 122.106 866.41C160.466 787.71 182.195 704.91 199.975 627.16C223.516 524.14 215.276 422.07 174.766 315.11C146.245 239.84 110.076 153.92 41.6156 86.8702C-3.93439 42.2402 -53.9445 18.83 -111.245 15.16C-111.945 15.12 -112.674 14.9701 -113.334 14.7201C-113.424 14.7301 -113.524 14.7401 -113.604 14.7601C-184.404 21.1301 -216.805 73.03 -243.915 125.64C-252.595 142.52 -260.664 159.73 -268.714 176.95C-279.884 200.82 -291.445 225.51 -304.604 248.94C-331.274 296.42 -372.595 322.99 -427.415 327.92C-470.785 331.79 -507.004 313.08 -533.744 296.3C-555.874 282.44 -576.774 266.18 -597.004 250.46C-614.584 236.78 -632.795 222.64 -651.545 210.29C-684.375 188.64 -713.855 176.43 -742.285 173.19Z" fill="url(#paint0_linear_32_725)"/>
<defs>
<linearGradient id="paint0_linear_32_725" x1="-278.091" y1="-19.0269" x2="-394.736" y2="1002.9" gradientUnits="userSpaceOnUse">
<stop offset="0.2714" stop-color="#FFFCEB"/>
<stop offset="0.6951" stop-color="#F4D6AB"/>
</linearGradient>
</defs>
</svg>
