<svg width="320" height="348" viewBox="0 0 320 348" fill="none" xmlns="http://www.w3.org/2000/svg">
<path d="M254.596 346.85C155.956 335.59 79.2655 294.04 26.5855 223.32C-14.0145 168.82 -7.52442 109.63 44.3756 60.9499C79.9356 27.5999 124.765 8.49003 185.475 0.800025C186.675 0.650025 187.885 0.809927 188.915 1.19993C189.415 1.13993 189.915 1.11989 190.415 1.15989C250.155 5.80989 290.856 40.6699 301.576 96.9099C313.246 158.13 316.685 221.42 319.435 286.29C320.165 303.7 313.425 320.36 300.935 332.03C288.845 343.34 272.776 348.84 256.866 347.1C256.106 347.02 255.336 346.94 254.596 346.85ZM187.306 15.26C187.306 15.26 187.305 15.26 187.285 15.27C129.795 22.55 87.5356 40.4401 54.3456 71.5801C7.78555 115.25 2.07546 166.04 38.2555 214.61C88.4455 281.97 161.785 321.59 256.245 332.37C256.975 332.45 257.715 332.54 258.445 332.62C270.135 333.89 281.995 329.8 290.995 321.39C300.505 312.5 305.426 300.25 304.876 286.91C302.156 222.61 298.755 159.91 287.255 99.6499C277.745 49.6499 242.976 19.7799 189.316 15.7099C188.616 15.5999 187.936 15.5 187.306 15.26Z" fill="url(#paint0_linear_32_721)"/>
<defs>
<linearGradient id="paint0_linear_32_721" x1="184.61" y1="0.233394" x2="146.474" y2="334.336" gradientUnits="userSpaceOnUse">
<stop offset="0.2714" stop-color="#F4F1DF"/>
<stop offset="0.6951" stop-color="#F4D6AB"/>
</linearGradient>
</defs>
</svg>
