<svg width="163" height="696" viewBox="0 0 163 696" fill="none" xmlns="http://www.w3.org/2000/svg">
<path d="M-91.5445 694.01C-97.9145 693.28 -104.134 692.23 -110.204 690.89C-203.154 670.26 -275.664 613.08 -331.874 516.05C-360.544 466.58 -354.804 385.61 -300.584 343.93C-294.744 339.45 -289.574 333.95 -284.104 328.12C-278.074 321.7 -271.844 315.07 -264.454 309.67C-192.754 257.18 -163.664 182.04 -172.954 73.2003C-175.504 43.3904 -152.584 10.7802 -121.864 0.500155C-120.224 -0.0298446 -118.524 0.0102336 -117.014 0.580234C-114.755 0.280234 -112.354 1.09006 -110.694 2.90006C-105.544 8.58006 -99.8744 13.9901 -94.2044 19.4001C-81.4144 31.6301 -68.1945 44.27 -60.4045 60.05C-14.9645 151.98 39.4755 237.36 106.006 321.06C170.336 401.98 179.625 481.49 134.415 564.14C78.1854 666.97 -16.1645 702.6 -91.5445 694.01ZM-119.305 15.0602C-142.605 23.9402 -160.335 49.4903 -158.405 71.9503C-148.665 186.37 -179.614 265.63 -255.844 321.43C-262.134 326.03 -267.634 331.89 -273.474 338.09C-279.094 344.09 -284.924 350.28 -291.694 355.49C-339.854 392.5 -344.835 464.61 -319.285 508.74C-265.235 602.04 -195.814 656.97 -107.074 676.65C-34.4444 692.84 64.2756 662.02 121.626 557.15C163.706 480.2 154.856 405.95 94.5856 330.12C27.3956 245.6 -27.5745 159.37 -73.4845 66.5002C-80.1345 53.0202 -91.8645 41.8101 -104.285 29.9401C-109.395 25.0401 -114.525 20.1302 -119.305 15.0602Z" fill="url(#paint0_linear_32_677)"/>
<defs>
<linearGradient id="paint0_linear_32_677" x1="-42.1963" y1="8.63834" x2="-120.021" y2="690.463" gradientUnits="userSpaceOnUse">
<stop offset="0.2714" stop-color="#F4F1DF"/>
<stop offset="0.6951" stop-color="#F4D6AB"/>
</linearGradient>
</defs>
</svg>
