<svg width="253" height="311" viewBox="0 0 253 311" fill="none" xmlns="http://www.w3.org/2000/svg">
<path d="M80.3757 985.94C76.5956 985.51 73.7555 982.23 73.9255 978.39C74.3555 968.29 74.6956 958.17 75.0456 948.06C75.8056 925.77 76.5756 902.72 78.2556 880.04C86.2056 771.71 121.175 667.45 185.165 561.3C231.635 484.3 246.745 413.79 232.736 339.4C217.256 257.1 168.495 200.59 83.6655 166.64C44.9655 151.18 2.10565 143.97 -30.9144 139.41C-86.6144 131.72 -143.454 125.5 -198.534 119.44C-229.474 116.04 -260.434 112.64 -291.364 108.97C-372.664 99.3402 -450.074 71.9303 -518.384 47.7403C-524.964 45.4103 -531.515 43.0101 -538.045 40.6201C-580.365 25.0901 -620.285 10.4399 -666.545 15.8799C-700.635 19.8499 -730.074 36.0698 -749.464 61.5498C-768.754 86.8998 -776.464 119.74 -771.134 153.99C-764.454 197.16 -754.124 242.81 -738.654 297.66C-723.344 351.91 -716.904 407.55 -718.984 467.77C-721.124 529.9 -722.454 593.12 -723.734 654.26C-724.584 695.08 -725.454 735.89 -726.535 776.7C-727.204 802.03 -728.604 827.33 -730.014 852.64C-730.604 863.58 -731.214 874.51 -731.774 885.44C-731.964 889.46 -735.384 892.56 -739.404 892.36C-743.984 892.06 -746.544 888.72 -746.314 884.72C-745.774 873.75 -745.164 862.8 -744.564 851.84C-743.164 826.68 -741.764 801.51 -741.114 776.32C-740.014 735.53 -739.155 694.75 -738.305 653.96C-737.015 592.77 -735.675 529.5 -733.545 467.27C-731.515 408.57 -737.765 354.39 -752.675 301.62C-768.305 246.18 -778.744 199.98 -785.524 156.22C-791.444 118.02 -782.755 81.2602 -761.045 52.7202C-739.235 24.0602 -706.264 5.83017 -668.204 1.39017C-618.494 -4.42983 -575.014 11.5202 -533.004 26.9302C-526.514 29.3002 -520.034 31.69 -513.484 34C-445.904 57.93 -369.304 85.05 -289.614 94.5C-258.714 98.14 -227.794 101.56 -196.904 104.95C-141.824 110.99 -84.8143 117.25 -28.9044 124.98C4.94562 129.65 48.9457 137.07 89.1057 153.11C178.926 189.07 230.606 249.13 247.086 336.71C261.796 414.83 246.095 488.58 197.675 568.83C134.896 672.97 100.596 775.11 92.8156 881.11C91.1556 903.51 90.3757 926.41 89.6157 948.56C89.2856 958.71 88.9355 968.86 88.4955 979.01C88.3256 983.03 84.9355 986.15 80.9055 985.98C80.7255 985.97 80.5356 985.96 80.3757 985.94Z" fill="url(#paint0_linear_32_565)"/>
<defs>
<linearGradient id="paint0_linear_32_565" x1="-242.323" y1="44.7911" x2="-344.177" y2="937.133" gradientUnits="userSpaceOnUse">
<stop offset="0.2714" stop-color="#F4F1DF"/>
<stop offset="0.6951" stop-color="#F4D6AB"/>
</linearGradient>
</defs>
</svg>
