<svg width="1242" height="2726" viewBox="0 0 1242 2726" fill="none" xmlns="http://www.w3.org/2000/svg">
<path d="M633.286 2723.64C595.506 2719.33 556.816 2708.31 518.076 2690.4C390.176 2631.23 304.916 2527.85 231.836 2424.95C216.216 2402.95 195.755 2382.98 175.985 2363.66L167.965 2355.81C117.865 2306.43 51.9756 2291.46 -22.6844 2278.22C-137.684 2257.81 -244.464 2223.2 -349.064 2172.37C-443.054 2126.73 -515.345 2063.02 -570.055 1977.59C-613.895 1909.15 -669.515 1832.2 -749.424 1780.48C-792.534 1752.6 -835.414 1722.95 -876.884 1694.27L-887.114 1687.19C-927.874 1659.05 -973.534 1624.52 -999.055 1570.72C-1005.3 1557.57 -1011.68 1544.46 -1018.07 1531.36C-1034.91 1496.81 -1052.32 1461.07 -1066.9 1424.65C-1113.32 1308.79 -1142.16 1211.85 -1157.67 1119.58C-1168.55 1054.8 -1183.72 986.76 -1204.04 911.58C-1209.64 890.9 -1213.78 886.31 -1215.75 885.41C-1217.69 884.55 -1223.67 884.4 -1242.48 893.53C-1284.67 914.08 -1328.59 939.64 -1376.75 971.68C-1415.76 997.62 -1454.89 1024.93 -1492.74 1051.34C-1534.88 1080.74 -1578.44 1111.15 -1622.17 1139.91C-1646.09 1155.63 -1672.22 1167.83 -1697.5 1179.62C-1708.91 1184.95 -1720.32 1190.27 -1731.53 1195.91C-1738.72 1199.52 -1747.49 1196.63 -1751.1 1189.45C-1754.73 1182.25 -1751.82 1173.49 -1744.64 1169.87C-1733.18 1164.1 -1721.52 1158.65 -1709.84 1153.2C-1684.38 1141.33 -1660.34 1130.11 -1638.2 1115.55C-1594.8 1087.01 -1551.4 1056.73 -1509.41 1027.43C-1471.43 1000.93 -1432.17 973.53 -1392.89 947.4C-1343.63 914.63 -1298.61 888.44 -1255.23 867.31C-1234.89 857.41 -1218.34 852.23 -1203.67 858.86C-1188.92 865.58 -1181.9 881.75 -1175.9 903.96C-1155.33 980.07 -1139.96 1049.02 -1128.9 1114.75C-1113.76 1204.91 -1085.45 1299.94 -1039.83 1413.8C-1025.64 1449.25 -1008.46 1484.5 -991.864 1518.57C-985.434 1531.77 -979.004 1544.96 -972.714 1558.21C-950.274 1605.5 -909.935 1636 -870.534 1663.19L-860.284 1670.28C-819.005 1698.82 -776.304 1728.34 -733.574 1755.99C-648.984 1810.74 -591.025 1890.78 -545.495 1961.85C-493.755 2042.63 -425.334 2102.91 -336.314 2146.14C-234.154 2195.77 -129.895 2229.58 -17.5746 2249.5C61.9655 2263.6 132.385 2279.78 188.435 2335.02L196.376 2342.8C217.076 2363.02 238.466 2383.92 255.616 2408.05C326.375 2507.67 408.616 2607.61 530.326 2663.92C664.856 2726.15 798.676 2697.46 888.116 2587.19C912.536 2557.09 936.396 2525.53 959.446 2495.02C972.865 2477.28 986.266 2459.54 999.866 2441.96C1036.9 2394.09 1081.64 2356.07 1132.86 2328.97C1151.63 2319.01 1169.2 2304.44 1183.9 2291.5C1202.31 2275.32 1212.08 2255.92 1212.13 2235.37C1212.21 2214.19 1201.61 2193.06 1182.28 2175.88C1130.27 2129.64 1064.72 2104.19 1001.33 2079.58L993.776 2076.65C872.196 2029.44 757.926 1969.01 631.846 1900.66C541.936 1851.95 490.466 1791.7 469.885 1711.06C457.775 1663.61 448.686 1617.02 442.906 1572.57C425.966 1442.75 388.766 1310.98 325.846 1157.89L296.146 1085.84C254.526 985.06 211.516 880.85 172.586 776.98C135.336 677.5 155.956 594.85 233.846 531.33C245.476 521.87 255.816 510.69 266.776 498.86L276.395 488.53C324.565 437.72 326.825 393.22 283.526 348.49C232.465 295.77 179.276 248.76 125.475 208.77C99.6155 189.54 82.6755 181.82 70.4955 183.57C56.3655 185.67 41.7954 202.03 21.3954 229.59C3.69543 253.52 -8.50452 284.4 -18.3146 309.2C-51.6345 393.49 -108.615 458 -197.645 512.21C-277.125 560.62 -354.545 615.88 -429.425 669.33L-456.944 688.95C-542.014 749.56 -635.644 779.37 -743.184 780.08C-764.064 780.22 -784.984 780.13 -805.894 780.04C-910.894 779.6 -1019.44 779.14 -1123.17 808.41C-1169.47 821.46 -1201.81 802.41 -1219.23 751.7C-1236.85 700.39 -1251.12 647.94 -1265.4 594.25C-1299.16 467.47 -1353.82 366.02 -1432.49 284.11C-1500.03 213.75 -1560.61 128.02 -1617.65 22.01C-1621.46 14.92 -1618.82 6.08003 -1611.72 2.26003C-1604.59 -1.54997 -1595.78 1.12996 -1591.97 8.18996C-1536.19 111.85 -1477.14 195.5 -1411.45 263.92C-1329.28 349.47 -1272.29 455.08 -1237.23 586.76C-1223.08 639.94 -1208.94 691.84 -1191.64 742.25C-1176.46 786.45 -1153.55 786.69 -1131.07 780.37C-1023.4 749.99 -912.744 750.46 -805.764 750.9C-784.944 750.98 -764.144 751.07 -743.344 750.94C-642.034 750.26 -553.875 722.22 -473.834 665.21L-446.354 645.6C-371.035 591.86 -293.175 536.28 -212.785 487.31C-129.455 436.57 -76.2745 376.57 -45.4246 298.48C-32.6046 266.07 -20.4945 237.2 -2.02454 212.23C20.3154 182.07 39.5155 158.67 66.2355 154.72C87.2355 151.61 109.465 160.49 142.895 185.36C197.955 226.29 252.316 274.34 304.496 328.2C342.306 367.26 371.786 430.26 297.576 508.57L288.165 518.64C277.015 530.69 265.485 543.16 252.255 553.91C184.205 609.43 167.075 679.05 199.885 766.74C238.645 870.15 281.586 974.13 323.096 1074.7L352.806 1146.79C416.726 1302.28 454.546 1436.38 471.826 1568.78C477.456 1612.07 486.305 1657.5 498.156 1703.82C516.575 1776.03 563.476 1830.43 645.736 1875C770.946 1942.88 884.346 2002.86 1004.34 2049.45L1011.89 2052.38C1077.69 2077.92 1145.72 2104.34 1201.66 2154.07C1227.32 2176.89 1241.4 2205.79 1241.3 2235.44C1241.21 2264.18 1227.65 2291.86 1203.15 2313.38C1187.19 2327.42 1167.96 2343.33 1146.53 2354.71C1098.3 2380.22 1057.89 2414.59 1022.95 2459.78C1009.41 2477.29 996.066 2494.94 982.706 2512.59C959.496 2543.29 935.496 2575.05 910.766 2605.54C838.206 2695 739.326 2735.73 633.286 2723.64Z" fill="url(#paint0_linear_32_535)"/>
<defs>
<linearGradient id="paint0_linear_32_535" x1="-76.0777" y1="136.493" x2="-358.43" y2="2610.19" gradientUnits="userSpaceOnUse">
<stop offset="0.2714" stop-color="#F4F1DF"/>
<stop offset="0.6951" stop-color="#F4D6AB"/>
</linearGradient>
</defs>
</svg>
