<svg width="781" height="1841" viewBox="0 0 781 1841" fill="none" xmlns="http://www.w3.org/2000/svg">
<path d="M611.985 1839.73C592.965 1837.56 573.156 1832.35 552.995 1824.11C485.865 1796.64 431.505 1748.16 386.766 1675.92C353.245 1621.76 327.056 1576.09 304.376 1532.22C271.926 1469.5 217.896 1443.26 134.316 1449.48C24.3456 1457.73 -74.6445 1461.55 -172.395 1424.78C-271.355 1387.55 -383.374 1335.43 -463.824 1231.27C-507.084 1175.27 -546.454 1124.98 -590.384 1076.72C-628.344 1035.01 -676.374 1003.8 -722.814 973.62C-746.054 958.52 -770.084 942.9 -792.724 926.09C-841.784 889.64 -881.635 851.48 -911.135 812.68C-962.895 744.63 -986.934 661.42 -1007.12 582.01C-1027.81 500.72 -1027.7 430.38 -1006.82 366.95C-980.604 287.24 -918.725 240.18 -827.905 230.9C-742.625 222.17 -673.724 218.9 -611.104 220.61C-527.114 222.9 -454.584 192.66 -382.834 125.43L-375.564 118.62C-320.724 67.1102 -264.014 13.8301 -182.564 1.08014C-181.264 0.870144 -180.015 1.03002 -178.885 1.45002C-178.595 1.41002 -178.284 1.38996 -177.984 1.38996C-125.325 1.14996 -78.3145 21.18 -38.4445 60.97C-27.7944 71.6 -16.7745 81.8602 -5.76453 92.1202C9.80542 106.62 25.9055 121.61 40.7255 137.5C49.2054 146.59 57.8154 155.62 66.4454 164.66C98.6354 198.44 131.936 233.36 159.255 271.88C231.146 373.08 275.466 487.14 309.356 585.36C341.556 678.75 353.956 781.38 347.276 899.13C345.345 933 342.836 966.84 340.316 1000.68C335.896 1060.11 331.325 1121.58 330.255 1182C329.005 1254.96 363.735 1303.27 433.505 1325.6C509.225 1349.85 582.536 1375.55 647.076 1423.04C751.456 1499.79 793.886 1589.98 776.836 1698.78C767.596 1757.74 741.365 1800.94 700.975 1823.72C675.365 1838.14 644.896 1843.48 611.985 1839.73ZM187.235 1435.57C247.526 1442.45 289.495 1471.75 317.306 1525.51C339.826 1569.04 365.825 1614.4 399.165 1668.24C442.225 1737.78 494.345 1784.35 558.505 1810.61C609.316 1831.41 657.385 1831.54 693.796 1811.01C730.166 1790.5 753.895 1750.9 762.415 1696.51C778.775 1592.17 739.375 1508.99 638.415 1434.76C575.655 1388.57 503.556 1363.33 429.036 1339.46C352.426 1314.93 314.285 1261.87 315.665 1181.73C316.725 1120.88 321.306 1059.21 325.755 999.58C328.266 965.82 330.785 932.07 332.685 898.29C339.265 782.47 327.125 681.66 295.546 590.09C262.016 492.86 218.166 380.01 147.356 280.3C120.626 242.64 87.7156 208.1 55.8756 174.7C47.2156 165.63 38.5856 156.56 30.0455 147.43C15.5756 131.91 -0.334473 117.09 -15.7245 102.76C-26.8545 92.3901 -37.9945 82.0101 -48.7645 71.2601C-86.2845 33.8001 -128.444 15.69 -177.944 15.93C-178.804 15.94 -179.695 15.78 -180.505 15.48C-257.424 27.6 -312.414 79.26 -365.604 129.22L-372.875 136.05C-447.625 206.06 -523.444 237.56 -611.504 235.15C-673.494 233.46 -741.794 236.71 -826.434 245.37C-911.104 254.03 -968.694 297.64 -992.994 371.49C-1012.96 432.2 -1012.97 499.88 -992.994 578.4C-973.174 656.36 -949.645 737.97 -899.535 803.84C-870.855 841.55 -831.995 878.74 -784.035 914.37C-761.755 930.92 -737.924 946.4 -714.874 961.38C-667.654 992.07 -618.834 1023.79 -579.584 1066.89C-535.304 1115.56 -495.735 1166.09 -452.285 1222.34C-374.055 1323.63 -264.305 1374.61 -167.255 1411.13C-72.2545 1446.86 25.0354 1443.05 133.215 1434.93C152.675 1433.48 170.646 1433.68 187.235 1435.57Z" fill="url(#paint0_linear_32_719)"/>
<defs>
<linearGradient id="paint0_linear_32_719" x1="-2.58427" y1="19.8146" x2="-199.709" y2="1746.83" gradientUnits="userSpaceOnUse">
<stop offset="0.2714" stop-color="#F4F1DF"/>
<stop offset="0.6951" stop-color="#F4D6AB"/>
</linearGradient>
</defs>
</svg>
