<svg width="416" height="558" viewBox="0 0 416 558" fill="none" xmlns="http://www.w3.org/2000/svg">
<path d="M389.265 556.26C373.945 554.51 358.765 551.37 343.775 546.81C223.405 510.21 118.455 445.78 31.8054 355.28C10.4054 332.92 -0.154759 308.97 0.425241 284.11C1.06524 257.28 14.5453 231.14 40.4853 206.45C136.805 114.73 257.165 18.53 419.585 0.419953C420.795 0.299953 421.905 0.450119 422.945 0.840119C423.305 0.790119 423.675 0.77006 424.045 0.78006C514.515 2.96006 597.325 39.04 670.215 108C768.335 200.85 780.505 302.85 705.425 402.99C666.205 455.32 612.005 488.99 564.275 516.43C506.975 549.42 447.255 562.88 389.265 556.26ZM421.325 14.8899C421.325 14.8899 421.235 14.8999 421.205 14.9099C263.085 32.5399 145.105 126.96 50.5454 217C27.4954 238.93 15.5353 261.63 15.0053 284.46C14.5353 305.3 23.7254 325.74 42.3354 345.21C127.235 433.87 230.075 497.01 348.025 532.87C415.835 553.48 488.185 543.43 557.035 503.8C603.485 477.07 656.205 444.36 693.765 394.24C782.185 276.32 724.336 179.25 660.226 118.59C589.036 51.2401 511.805 17.5301 423.705 15.3501C422.945 15.3101 422.075 15.1799 421.325 14.8899Z" fill="url(#paint0_linear_32_669)"/>
<defs>
<linearGradient id="paint0_linear_32_669" x1="409.479" y1="-2.41166" x2="346.284" y2="551.24" gradientUnits="userSpaceOnUse">
<stop offset="0.2714" stop-color="#F4F1DF"/>
<stop offset="0.6951" stop-color="#F4D6AB"/>
</linearGradient>
</defs>
</svg>
