<svg width="539" height="1259" viewBox="0 0 539 1259" fill="none" xmlns="http://www.w3.org/2000/svg">
<path d="M-554.825 1257.36C-616.165 1250.36 -667.365 1213.65 -687.295 1156.24C-692.165 1142.21 -698.365 1128.72 -704.935 1114.44C-709.185 1105.17 -713.455 1095.9 -717.335 1086.5C-737.775 1036.86 -770.205 1004.43 -816.455 987.35C-903.895 955.02 -997.355 955.71 -1085.37 961.32C-1120.61 963.56 -1156.59 969.44 -1191.38 975.13C-1218.57 979.57 -1246.68 984.17 -1274.69 987.1C-1302.36 989.98 -1332.93 987.79 -1363.03 980.76C-1384.93 975.68 -1403.69 961.03 -1415.84 939.52C-1431.01 912.65 -1434.16 878.4 -1424.24 847.91C-1412.38 811.5 -1401.24 774.86 -1390.08 738.24C-1384.68 720.45 -1379.26 702.67 -1373.76 684.92C-1335.1 559.83 -1288.68 471.96 -1223.23 400C-1150.79 320.37 -1094.14 252.26 -1044.93 185.64C-974.645 90.4501 -881.375 43.18 -759.835 41.1C-668.655 39.57 -581.575 19.04 -500.985 -19.9C-396.435 -70.48 -300.385 -111.56 -207.325 -145.51C-37.7646 -207.37 86.4653 -266.64 195.475 -337.67L205.235 -344.06C244.255 -369.68 284.615 -396.16 335.115 -402.61C336.875 -402.84 338.615 -402.75 340.345 -402.33C342.285 -402.35 344.315 -401.96 346.255 -401.12C380.385 -386.24 405.095 -359.64 419.655 -322.05C463.655 -208.48 466.535 -85.4399 428.175 43.6801C408.925 108.52 386.335 173.39 364.505 236.11C355.675 261.46 346.855 286.81 338.225 312.22C309.935 395.46 318.175 472.55 362.685 541.35C386.235 577.74 413.735 612.82 440.335 646.75C455.975 666.7 471.615 686.66 486.625 707.02C551.625 795.04 555.355 881.57 497.735 964.22C435.805 1053.03 357.925 1122 266.285 1169.18C185.715 1210.64 105.225 1212.39 27.1255 1174.29C0.705444 1161.41 -25.1647 1146.78 -50.1747 1132.62C-67.6047 1122.76 -85.0447 1112.89 -102.755 1103.55C-161.855 1072.39 -213.325 1072.68 -260.095 1104.4C-282.765 1119.78 -303.555 1138.79 -324.625 1158.56C-373.965 1204.85 -418.865 1232.67 -470.235 1248.75C-499.205 1257.8 -527.984 1260.42 -554.825 1257.36ZM-920.745 933.56C-882.335 937.94 -843.955 946.09 -806.365 960C-752.785 979.78 -713.775 1018.61 -690.385 1075.38C-686.645 1084.42 -682.545 1093.34 -678.455 1102.26C-671.875 1116.54 -665.085 1131.32 -659.745 1146.69C-633.135 1223.37 -546.725 1242.18 -478.985 1220.91C-432.005 1206.22 -390.565 1180.43 -344.605 1137.28C-322.635 1116.68 -300.905 1096.82 -276.485 1080.26C-220.755 1042.45 -157.775 1041.6 -89.1946 1077.75C-71.2346 1087.22 -53.5347 1097.23 -35.8546 1107.24C-11.2246 1121.18 14.2355 1135.59 39.8555 1148.08C110.255 1182.42 179.975 1180.83 252.895 1143.25C340.295 1098.26 414.595 1032.41 473.785 947.54C524.165 875.27 520.685 802.26 463.145 724.32C448.285 704.18 432.815 684.45 417.345 664.72C390.345 630.28 362.445 594.68 338.175 557.17C288.575 480.51 279.285 394.93 310.575 302.83C319.245 277.35 328.095 251.94 336.945 226.51C358.665 164.1 381.145 99.5701 400.205 35.3701C436.685 -87.4099 434.065 -204.13 392.445 -311.53C381.105 -340.78 362.375 -361.6 336.745 -373.43C293.835 -367.39 258.535 -344.22 221.205 -319.71L211.365 -313.27C100.426 -240.97 -25.6246 -180.79 -197.365 -118.15C-289.495 -84.54 -384.655 -43.83 -488.335 6.32001C-572.745 47.13 -663.925 68.63 -759.385 70.23C-872.795 72.17 -956.095 114.34 -1021.53 202.94C-1071.32 270.37 -1128.58 339.22 -1201.71 419.59C-1264.13 488.22 -1308.61 572.7 -1345.96 693.5C-1351.44 711.22 -1356.83 728.96 -1362.23 746.7C-1373.43 783.52 -1384.64 820.33 -1396.55 856.91C-1403.98 879.76 -1401.72 905.27 -1390.48 925.16C-1382.39 939.47 -1370.31 949.13 -1356.46 952.34C-1329.41 958.68 -1302.21 960.65 -1277.74 958.08C-1250.57 955.24 -1222.88 950.72 -1196.11 946.33C-1160.61 940.53 -1123.91 934.53 -1087.23 932.2C-1033.09 928.77 -976.855 927.15 -920.745 933.56Z" fill="url(#paint0_linear_32_703)"/>
<defs>
<linearGradient id="paint0_linear_32_703" x1="-292.816" y1="-474.755" x2="-491.335" y2="1264.48" gradientUnits="userSpaceOnUse">
<stop offset="0.2714" stop-color="#F4F1DF"/>
<stop offset="0.6951" stop-color="#F4D6AB"/>
</linearGradient>
</defs>
</svg>
