<svg width="734" height="5411" viewBox="0 0 734 5411" fill="none" xmlns="http://www.w3.org/2000/svg">
<path d="M6.57534 6212.88C5.79534 6212.79 4.99526 6212.56 4.24526 6212.2C0.615262 6210.46 -0.904651 6206.1 0.835349 6202.47C4.63535 6194.55 8.32529 6186.56 12.0253 6178.58C20.1753 6160.97 28.5852 6142.75 38.2152 6125.45C51.5352 6101.47 66.5654 6078.05 81.0854 6055.39C110.035 6010.27 139.965 5963.59 156.915 5911.36C165.275 5885.64 173.245 5859.79 181.225 5833.95C189.705 5806.47 198.165 5778.99 207.115 5751.66C224.995 5697.01 252.605 5637.21 321.775 5607.97C403.715 5573.27 470.875 5518.19 521.375 5444.27C570.615 5372.25 620.195 5302.91 685.195 5246.23C728.805 5208.2 769.745 5170.18 818.755 5124.44C904.405 5044.57 999.455 4988.56 1101.24 4957.96C1145.45 4944.66 1190.75 4932.56 1234.57 4920.86C1262.84 4913.31 1291.12 4905.76 1319.3 4897.85C1387 4878.81 1445.65 4858.07 1477.99 4796.87C1497.82 4759.23 1507.33 4717.76 1507.89 4666.34C1509.53 4517.44 1453.83 4409.19 1337.6 4335.45C1295.23 4308.59 1242.5 4275.14 1200.49 4234.04C1080.05 4116.41 976.325 3978.96 892.215 3825.5C861.115 3768.81 829.945 3714.11 790.795 3668.05C747.435 3617.12 696.105 3566.81 624.355 3504.89C537.165 3429.65 526.975 3329.47 528.515 3241.39C528.855 3221.11 529.455 3200.81 530.065 3180.53C531.525 3131.4 533.045 3080.6 530.635 3030.99C529.655 3010.65 528.165 2990.34 526.655 2970.04C521.285 2897.31 515.735 2822.11 534.985 2747.35C545.045 2708.24 560.885 2657.78 594.315 2614.27C663.405 2524.41 765.245 2518.81 846.265 2523.96C903.785 2527.62 962.045 2533.44 1018.4 2539.07C1071.62 2544.38 1126.66 2549.89 1180.87 2553.54C1246.25 2557.93 1299.16 2520.31 1322.45 2452.89C1344.93 2387.76 1350.92 2323.46 1340.27 2261.79C1332.08 2214.43 1320.52 2166.71 1309.32 2120.56C1301.9 2089.9 1294.21 2058.2 1287.55 2026.79C1271.92 1953.15 1279.91 1886.23 1311.3 1827.87C1330.02 1793.02 1353.85 1760.43 1376.91 1728.91C1387.26 1714.75 1397.62 1700.61 1407.53 1686.23C1415.32 1674.94 1423.77 1664.02 1432.2 1653.08C1459.17 1618.16 1484.64 1585.17 1490.17 1540.62C1502.48 1441.65 1468.65 1348.96 1386.74 1257.26C1338.54 1203.33 1283.77 1153.84 1230.82 1105.98C1164.77 1046.3 1096.48 984.58 1039.61 913.23C1021.86 890.98 1003.87 868.85 985.905 846.71C924.585 771.21 861.175 693.13 807.575 610.47C739.265 505.07 702.335 383.29 666.635 265.52C661.185 247.54 655.735 229.58 650.195 211.69C617.215 105.39 579.015 -6.35986 507.235 -101.6C418.705 -219.02 386.615 -339.64 409.125 -470.36C415.665 -508.3 425.455 -547.15 452.705 -574.25C498.435 -619.78 547.485 -663.38 594.895 -705.55C614.045 -722.59 633.215 -739.63 652.215 -756.84C655.185 -759.53 659.815 -759.32 662.505 -756.33C665.215 -753.34 664.995 -748.73 662.005 -746.03C642.965 -728.8 623.775 -711.72 604.575 -694.66C557.305 -652.62 508.425 -609.16 462.985 -563.92C438.635 -539.7 429.625 -503.45 423.505 -467.89C401.695 -341.36 432.895 -224.42 518.895 -110.38C592.075 -13.2899 630.755 99.8201 664.105 207.35C669.665 225.27 675.125 243.26 680.585 261.27C715.995 378.07 752.615 498.85 819.805 602.53C872.965 684.54 936.125 762.3 997.215 837.5C1015.22 859.68 1033.23 881.84 1051 904.13C1107.16 974.55 1174.99 1035.86 1240.59 1095.14C1293.85 1143.26 1348.89 1193.02 1397.61 1247.52C1482.49 1342.55 1517.51 1439.01 1504.63 1542.39C1498.62 1590.9 1470.74 1627.03 1443.74 1661.97C1435.47 1672.7 1427.19 1683.41 1419.53 1694.49C1409.53 1708.98 1399.09 1723.24 1388.67 1737.49C1365.91 1768.61 1342.38 1800.78 1324.13 1834.75C1294.43 1889.99 1286.92 1953.57 1301.82 2023.75C1308.42 2054.95 1316.09 2086.55 1323.51 2117.11C1334.75 2163.48 1346.38 2211.45 1354.66 2259.29C1365.73 2323.42 1359.54 2390.15 1336.25 2457.63C1311.08 2530.54 1251.17 2572.85 1179.9 2568.07C1125.46 2564.39 1070.31 2558.88 1016.97 2553.55C960.745 2547.93 902.625 2542.12 845.365 2538.47C763.145 2533.25 670.395 2539.21 605.895 2623.13C574.085 2664.54 558.845 2713.19 549.125 2750.95C530.475 2823.4 535.955 2897.38 541.235 2968.94C542.725 2989.36 544.245 3009.79 545.245 3030.26C547.675 3080.44 546.145 3131.52 544.665 3180.93C544.075 3201.16 543.465 3221.39 543.115 3241.61C541.555 3330.58 551.485 3422.71 633.905 3493.83C706.245 3556.25 758.065 3607.06 801.915 3658.58C841.975 3705.68 873.535 3761.09 905.005 3818.47C988.435 3970.66 1091.29 4106.96 1210.7 4223.59C1251.62 4263.63 1303.64 4296.62 1345.42 4323.12C1466.27 4399.79 1524.18 4512.11 1522.47 4666.48C1521.89 4720.29 1511.84 4763.88 1490.89 4803.65C1455.91 4869.88 1391.63 4892.62 1323.25 4911.86C1295.01 4919.79 1266.66 4927.35 1238.32 4934.92C1194.62 4946.59 1149.42 4958.66 1105.44 4971.9C1004.41 5002.27 913.875 5055.65 828.685 5135.07C779.585 5180.91 738.545 5219.01 694.755 5257.19C631.065 5312.75 582.085 5381.26 533.415 5452.47C481.315 5528.73 412.015 5585.56 327.455 5621.37C263.845 5648.26 238.685 5702.05 220.965 5756.17C212.055 5783.42 203.605 5810.82 195.155 5838.22C187.175 5864.13 179.175 5890.05 170.805 5915.84C153.265 5969.86 122.815 6017.33 93.3754 6063.24C78.9654 6085.7 64.0652 6108.93 50.9752 6132.51C41.6052 6149.34 33.3053 6167.31 25.2653 6184.68C21.5453 6192.73 17.8353 6200.79 13.9853 6208.77C12.5953 6211.66 9.56534 6213.22 6.57534 6212.88Z" fill="url(#paint0_linear_32_537)"/>
<defs>
<linearGradient id="paint0_linear_32_537" x1="1284.15" y1="-687.198" x2="490.298" y2="6267.75" gradientUnits="userSpaceOnUse">
<stop offset="0.2714" stop-color="#F4F1DF"/>
<stop offset="0.6951" stop-color="#F4D6AB"/>
</linearGradient>
</defs>
</svg>
