<svg width="978" height="855" viewBox="0 0 978 855" fill="none" xmlns="http://www.w3.org/2000/svg">
<path d="M429.895 852.64C399.065 849.12 369.285 838.85 339.695 821.8C224.495 755.4 128.805 667.29 55.2054 559.93C-24.8346 443.15 -16.9244 343.15 80.1256 245.21C123.836 201.11 168.646 165.67 213.306 139.91C254.836 115.96 298.796 94.9201 341.316 74.5801C378.936 56.5801 417.825 37.9501 454.755 17.4501C522.815 -20.3699 585.255 -51.8898 660.385 -54.5998C661.345 -54.6198 662.305 -54.4799 663.195 -54.1399C664.325 -54.2999 665.555 -54.1698 666.715 -53.7198C678.975 -49.0298 691.406 -44.6698 703.836 -40.3198C731.016 -30.7898 759.125 -20.9398 785.155 -7.58981C880.365 41.2002 941.455 128.98 966.715 253.29C995.145 393.41 967.385 511.9 884.165 605.48C798.315 702.04 689.315 777.9 560.195 830.96C513.665 850.05 470.875 857.31 429.895 852.64ZM661.576 -40.0998C661.356 -40.0698 661.115 -40.0499 660.895 -40.0399C589.005 -37.4599 528.216 -6.7098 461.816 30.1702C424.516 50.8902 385.416 69.6101 347.586 87.7101C305.316 107.94 261.626 128.85 220.576 152.53C177.046 177.64 133.265 212.28 90.4654 255.47C-2.04458 348.82 -9.20457 440.18 67.2254 551.69C139.565 657.24 233.675 743.87 346.965 809.16C411.675 846.46 477.655 849.09 554.645 817.46C681.695 765.26 788.896 690.67 873.255 595.78C953.266 505.82 979.885 391.56 952.415 256.18C927.745 134.74 870.845 52.7001 778.495 5.37015C753.336 -7.53985 725.715 -17.2198 698.985 -26.5798C686.455 -30.9798 673.926 -35.3798 661.576 -40.0998Z" fill="url(#paint0_linear_32_699)"/>
<defs>
<linearGradient id="paint0_linear_32_699" x1="541.223" y1="-68.3291" x2="436.032" y2="853.254" gradientUnits="userSpaceOnUse">
<stop offset="0.2714" stop-color="#F4F1DF"/>
<stop offset="0.6951" stop-color="#F4D6AB"/>
</linearGradient>
</defs>
</svg>
