<svg width="222" height="170" viewBox="0 0 222 170" fill="none" xmlns="http://www.w3.org/2000/svg">
<path d="M114.135 168.49C88.9753 165.63 64.6754 154.12 40.7954 133.92C20.8454 117.03 -4.88453 89.88 1.83547 49.1C7.69547 13.4 38.8255 6.28996 63.8655 0.569961C65.2655 0.269961 66.7355 0.359941 68.1055 0.799941C68.7955 0.639941 69.5354 0.57001 70.2854 0.62001C122.685 3.96001 167.685 27.7299 204.645 71.0399C221.695 91.0099 222.425 107.49 220.035 117.8C216.285 133.94 202.375 147.64 179.805 157.4C157.135 167.19 135.325 170.9 114.135 168.49ZM67.2954 14.7399C67.1754 14.7599 67.0855 14.7799 67.0855 14.7799C42.0855 20.4899 20.4654 25.4199 16.2154 51.4599C11.9554 77.2899 22.4353 99.2799 50.2053 122.79C89.5453 156.1 130.065 163.03 173.995 144.02C192.145 136.17 203.155 125.97 205.815 114.51C208.195 104.27 204.055 92.8299 193.535 80.4999C159.245 40.3099 117.665 18.4298 69.3255 15.1598C68.6755 15.1198 67.9454 14.9699 67.2954 14.7399Z" fill="url(#paint0_linear_32_704)"/>
<defs>
<linearGradient id="paint0_linear_32_704" x1="119.69" y1="5.90469" x2="101.313" y2="166.905" gradientUnits="userSpaceOnUse">
<stop offset="0.2714" stop-color="#F4F1DF"/>
<stop offset="0.6951" stop-color="#F4D6AB"/>
</linearGradient>
</defs>
</svg>
