<svg width="673" height="1505" viewBox="0 0 673 1505" fill="none" xmlns="http://www.w3.org/2000/svg">
<path d="M51.9054 1503.67C28.7854 1501.03 4.73547 1490.41 -20.0145 1471.83C-30.6345 1463.87 -41.7045 1456.47 -52.7545 1449.08C-67.9745 1438.9 -83.7245 1428.37 -98.1545 1416.42C-154.135 1370.04 -220.305 1356.33 -312.625 1371.96L-352.224 1378.75C-406.245 1388.06 -462.115 1397.68 -517.434 1404.6C-585.664 1413.11 -653.535 1408.84 -719.175 1391.91C-786.675 1374.51 -836.865 1331.41 -872.584 1260.17C-895.684 1214.16 -923.495 1176.66 -953.025 1151.74C-1018.02 1096.95 -1096.49 1113.51 -1164.94 1133.34C-1179.13 1137.45 -1193.31 1141.63 -1207.49 1145.83C-1271.94 1164.87 -1338.56 1184.55 -1405.66 1196.14C-1444.21 1202.85 -1484.54 1200.67 -1523.54 1198.56C-1540.89 1197.62 -1558.24 1196.68 -1575.46 1196.5C-1579.5 1196.45 -1582.73 1193.16 -1582.68 1189.14C-1582.64 1185.12 -1579.34 1181.89 -1575.32 1181.92C-1557.83 1182.1 -1540.01 1183.07 -1522.76 1184C-1484.57 1186.07 -1445.09 1188.2 -1408.16 1181.78C-1341.88 1170.33 -1275.66 1150.77 -1211.63 1131.85C-1197.42 1127.65 -1183.22 1123.46 -1169.01 1119.35C-1096.93 1098.49 -1014.1 1081.18 -943.635 1140.6C-912.595 1166.79 -883.534 1205.87 -859.584 1253.64C-825.834 1320.9 -778.735 1361.51 -715.555 1377.8C-651.695 1394.3 -585.674 1398.43 -519.255 1390.13C-464.255 1383.26 -408.574 1373.66 -354.714 1364.38L-315.074 1357.59C-218.135 1341.19 -148.385 1355.89 -88.8645 1405.19C-75.0245 1416.66 -59.5846 1426.99 -44.6646 1436.96C-33.3945 1444.5 -22.1145 1452.05 -11.2845 1460.17C28.0854 1489.71 64.8054 1497.08 97.9655 1482.1C166.345 1451.15 243.985 1410.76 301.165 1345.83C394.625 1239.58 483.856 1130.26 566.326 1027.96C609.576 974.36 631.766 929.31 638.296 881.88C649.646 799.15 611.556 730.93 572.796 675.12C564.776 663.57 556.686 652.06 548.596 640.56C519.946 599.82 490.315 557.7 464.735 513.99C432.416 458.84 422.016 394.82 435.455 333.73C448.005 276.76 468.236 216.04 499.076 142.64C534.056 59.3801 551.345 -18.3799 551.896 -95.1199C552.565 -187.51 548.346 -286.23 538.576 -405.79C530.736 -501.94 543.536 -591.45 577.696 -679.45C596.575 -728.06 614.966 -776.85 633.366 -825.65L658.416 -891.97C659.835 -895.72 664.006 -897.65 667.816 -896.21C671.576 -894.78 673.476 -890.58 672.056 -886.81L647.016 -820.52C628.596 -771.67 610.186 -722.84 591.296 -674.18C557.946 -588.29 545.466 -500.89 553.116 -406.99C562.916 -286.99 567.156 -187.85 566.486 -95.0199C565.916 -16.3599 548.276 63.2301 512.526 148.27C482.036 220.84 462.065 280.77 449.695 336.85C437.045 394.34 446.856 454.63 477.306 506.61C502.596 549.8 532.046 591.67 560.526 632.17C568.626 643.7 576.736 655.23 584.766 666.81C625.136 724.93 664.766 796.17 652.736 883.87C645.826 934.08 622.686 981.34 577.696 1037.11C495.105 1139.54 405.756 1249 312.106 1355.46C253.106 1422.47 173.776 1463.8 103.975 1495.38C87.2455 1502.96 69.8654 1505.72 51.9054 1503.67Z" fill="url(#paint0_linear_32_547)"/>
<defs>
<linearGradient id="paint0_linear_32_547" x1="-232.669" y1="-999.232" x2="-511.006" y2="1439.28" gradientUnits="userSpaceOnUse">
<stop offset="0.2714" stop-color="#F4F1DF"/>
<stop offset="0.6951" stop-color="#F4D6AB"/>
</linearGradient>
</defs>
</svg>
