<svg width="24" height="24" viewBox="0 0 24 24" fill="none" xmlns="http://www.w3.org/2000/svg">
<path d="M12 7.50024C12.8284 7.50024 13.5 6.82867 13.5 6.00024C13.5 5.17182 12.8284 4.50024 12 4.50024C11.1716 4.50024 10.5 5.17182 10.5 6.00024C10.5 6.82867 11.1716 7.50024 12 7.50024Z" fill="#808080"/>
<path d="M12 13.5002C12.8284 13.5002 13.5 12.8287 13.5 12.0002C13.5 11.1718 12.8284 10.5002 12 10.5002C11.1716 10.5002 10.5 11.1718 10.5 12.0002C10.5 12.8287 11.1716 13.5002 12 13.5002Z" fill="#808080"/>
<path d="M12 19.5002C12.8284 19.5002 13.5 18.8287 13.5 18.0002C13.5 17.1718 12.8284 16.5002 12 16.5002C11.1716 16.5002 10.5 17.1718 10.5 18.0002C10.5 18.8287 11.1716 19.5002 12 19.5002Z" fill="#808080"/>
</svg>
