<svg width="25" height="24" viewBox="0 0 25 24" fill="none" xmlns="http://www.w3.org/2000/svg">
<path fill-rule="evenodd" clip-rule="evenodd" d="M15.031 8.11726H20.119V6.65997H15.031V8.11726ZM17.539 11.0432C16.404 11.0432 15.542 11.7466 15.459 13.0458H19.531C19.255 11.5038 18.57 11.0432 17.539 11.0432ZM17.698 17.0697C18.746 17.0697 19.515 16.4076 19.672 15.8499H21.876C21.246 17.867 19.945 19 17.609 19C14.628 19 12.955 16.8796 12.955 14.0663C12.955 7.44077 22.515 7.20323 22.035 14.6849H15.459C15.523 16.2042 16.15 17.0697 17.698 17.0697ZM7.78005 16.7784C8.98305 16.7784 9.82505 16.3157 9.82505 15.067C9.82505 13.7719 9.08105 13.2101 7.83205 13.2101H4.81805V16.7784H7.78005ZM7.62105 11.2622C8.62205 11.2622 9.31305 10.7964 9.31305 9.71399C9.31305 8.57377 8.50905 8.22158 7.41005 8.22158H4.81805V11.2622H7.62105ZM7.97405 6C10.345 6 11.993 6.7839 11.993 9.22237C11.993 10.4297 11.508 11.3293 10.283 11.9356C11.851 12.4014 12.593 13.6242 12.593 15.2313C12.593 17.7823 10.57 19 8.15005 19H2.05005V6H7.97405Z" fill="white"/>
</svg>
