<svg width="20" height="20" viewBox="0 0 20 20" fill="none" xmlns="http://www.w3.org/2000/svg">
<path d="M18.4726 4.85922L10.1172 0.825562C10.0431 0.789835 9.95687 0.789835 9.88283 0.825562L1.52736 4.85922C1.4342 4.90419 1.375 4.99853 1.375 5.10198V14.898C1.375 15.0015 1.4342 15.0958 1.52736 15.1408L9.88279 19.1744C9.91981 19.1923 9.95992 19.2012 10 19.2012C10.0401 19.2012 10.0802 19.1923 10.1172 19.1744L18.4726 15.1408C18.5658 15.0958 18.625 15.0015 18.625 14.898V5.10201C18.625 4.9985 18.5658 4.90422 18.4726 4.85922ZM10 1.36768L17.7354 5.10198L15.4931 6.18449C15.4789 6.17367 15.4639 6.16368 15.4474 6.15573L7.76457 2.44685L10 1.36768ZM7.15578 2.75164L14.8799 6.48051L13.2979 7.24425L5.57698 3.51689L7.15578 2.75164ZM15.0606 6.99189V9.81502L13.5829 10.5284V7.70528L15.0606 6.99189ZM18.0859 14.7289L10.2696 18.5022V9.30482L12.134 8.40475C12.2681 8.34002 12.3243 8.17889 12.2595 8.04479C12.1948 7.91076 12.0337 7.85447 11.8996 7.91924L10 8.83631L9.25254 8.47545C9.11844 8.41064 8.95731 8.46693 8.89258 8.60099C8.82785 8.73506 8.88406 8.89622 9.01813 8.96096L9.73043 9.30482V18.5022L1.91413 14.7288V5.53145L7.86618 8.40486C7.90395 8.42312 7.94389 8.43174 7.98317 8.43174C8.08338 8.43174 8.17963 8.3756 8.2261 8.27931C8.29084 8.14525 8.23462 7.98408 8.10056 7.91935L2.26461 5.10198L4.94249 3.8092L13.0401 7.7184C13.0413 7.72005 13.0426 7.72152 13.0438 7.72314V10.9579C13.0438 11.0507 13.0915 11.1369 13.1701 11.1863C13.2137 11.2136 13.2635 11.2275 13.3134 11.2275C13.3534 11.2275 13.3935 11.2186 13.4306 11.2007L15.4474 10.227C15.5406 10.1821 15.5998 10.0877 15.5998 9.98427V6.73167L18.0859 5.53149V14.7289Z" fill="#A4907C"/>
<path d="M4.63097 14.0036L3.29835 13.3603C3.15257 13.2899 2.97749 13.351 2.90714 13.4967C2.83679 13.6424 2.89788 13.8176 3.04358 13.888L4.3762 14.5313C4.41726 14.5511 4.46065 14.5605 4.50335 14.5605C4.61226 14.5605 4.71686 14.4995 4.76737 14.3948C4.83776 14.2491 4.77667 14.074 4.63097 14.0036Z" fill="#A4907C"/>
<path d="M5.8575 13.2032L3.30028 11.9687C3.15454 11.8983 2.97942 11.9594 2.90907 12.1051C2.83875 12.2508 2.89985 12.426 3.04555 12.4964L5.60278 13.7309C5.64383 13.7507 5.68723 13.7601 5.72993 13.7601C5.83883 13.7601 5.94344 13.6991 5.99395 13.5944C6.0643 13.4487 6.00321 13.2735 5.8575 13.2032Z" fill="#A4907C"/>
</svg>
