<svg width="19" height="19" viewBox="0 0 19 19" fill="none" xmlns="http://www.w3.org/2000/svg">
<path d="M1.79451 13.2075C0.984173 9.96616 0.579006 8.34643 1.42995 7.25655C2.27995 6.16666 3.95162 6.16666 7.29212 6.16666H11.6649C15.0063 6.16666 16.6761 6.16666 17.5271 7.25655C18.378 8.34549 17.9728 9.9671 17.1625 13.2075C16.6468 15.2692 16.39 16.2996 15.6212 16.9003C14.8524 17.5 13.7899 17.5 11.6649 17.5H7.29212C5.16712 17.5 4.10462 17.5 3.33584 16.9003C2.56706 16.2996 2.30923 15.2692 1.79451 13.2075Z" stroke="#609966" stroke-width="1.5"/>
<path d="M16.5612 6.63851L15.8906 4.17823C15.6319 3.22906 15.5025 2.75495 15.2371 2.39701C14.9725 2.04139 14.6131 1.76744 14.2001 1.60651C13.7845 1.44406 13.2934 1.44406 12.3112 1.44406M2.39453 6.63851L3.06509 4.17823C3.32386 3.22906 3.45325 2.75495 3.71864 2.39701C3.98325 2.04139 4.34263 1.76744 4.75564 1.60651C5.1712 1.44406 5.66231 1.44406 6.64453 1.44406" stroke="#609966" stroke-width="1.5"/>
<path d="M6.64453 1.44444C6.64453 1.19396 6.74404 0.953739 6.92115 0.776621C7.09827 0.599504 7.33849 0.5 7.58898 0.5H11.3668C11.6172 0.5 11.8575 0.599504 12.0346 0.776621C12.2117 0.953739 12.3112 1.19396 12.3112 1.44444C12.3112 1.69493 12.2117 1.93515 12.0346 2.11227C11.8575 2.28938 11.6172 2.38889 11.3668 2.38889H7.58898C7.33849 2.38889 7.09827 2.28938 6.92115 2.11227C6.74404 1.93515 6.64453 1.69493 6.64453 1.44444Z" stroke="#609966" stroke-width="1.5"/>
</svg>
