<svg width="14" height="17" viewBox="0 0 14 17" fill="none" xmlns="http://www.w3.org/2000/svg">
<path d="M3.47591 3.8206C3.39832 2.65455 3.74151 1.66147 4.632 0.879314C5.29211 0.299447 6.07935 0.00347969 6.97342 3.15241e-05C8.02983 -0.00399134 8.92032 0.377031 9.62878 1.13103C10.339 1.88675 10.5945 2.7942 10.524 3.82003C10.755 3.82003 10.9675 3.816 11.1794 3.82117C11.485 3.82807 11.7965 3.80853 12.0955 3.85681C12.8768 3.98324 13.4653 4.60621 13.513 5.36538C13.587 6.53143 13.6366 7.69921 13.6945 8.86642C13.7768 10.529 13.8586 12.191 13.9392 13.8536C13.9613 14.3134 13.9881 14.7731 13.9995 15.2335C14.0233 16.2311 13.2528 16.996 12.2131 16.9972C8.73709 17.0006 5.26167 17.0012 1.78565 16.9972C0.741177 16.996 -0.0412848 16.2196 0.00168797 15.2145C0.0768903 13.4571 0.169401 11.7008 0.25475 9.94397C0.320999 8.5762 0.385458 7.20842 0.453499 5.84065C0.464839 5.61135 0.47021 5.37802 0.518555 5.15504C0.689849 4.37173 1.38577 3.83037 2.21478 3.82117C2.62482 3.81658 3.03485 3.8206 3.47591 3.8206ZM6.99013 15.8656C8.71918 15.8656 10.4476 15.8662 12.1767 15.865C12.5999 15.865 12.835 15.6271 12.8213 15.2202C12.8147 15.0317 12.8082 14.8427 12.7986 14.6542C12.7055 12.7496 12.6118 10.8457 12.5181 8.94113C12.4626 7.80898 12.4113 6.67683 12.3504 5.54526C12.3277 5.12401 12.0961 4.92804 11.6646 4.93034C10.7759 4.93493 9.88661 4.93838 8.99791 4.94068C6.76631 4.94643 4.53472 4.95102 2.30371 4.95677C1.90204 4.95792 1.67703 5.15504 1.65136 5.54526C1.62152 6.01076 1.606 6.47684 1.58332 6.94234C1.44963 9.68363 1.31474 12.4255 1.18165 15.1668C1.15837 15.6461 1.3792 15.8656 1.87697 15.8662C3.58156 15.8656 5.28614 15.8656 6.99013 15.8656ZM9.34468 3.81198C9.43003 2.80741 9.11668 1.98273 8.2065 1.45861C7.36375 0.973564 6.49296 1.00057 5.67827 1.52987C4.84567 2.07066 4.57053 2.86661 4.65826 3.81198H9.34468Z" fill="#E3B252"/>
<path d="M6.99334 9C5.57211 8.99898 4.35648 8.04892 4.02392 6.68091C3.97046 6.4597 3.99925 6.26245 4.18583 6.11362C4.34826 5.98365 4.53433 5.96989 4.72245 6.04838C4.9039 6.12382 4.97843 6.27825 5.02726 6.46021C5.24263 7.26348 5.75664 7.77827 6.57545 7.96635C7.61529 8.20488 8.67517 7.56165 8.95171 6.53921C8.96815 6.47856 8.98152 6.4174 9.00105 6.35776C9.0874 6.09578 9.33927 5.95613 9.61426 6.01576C9.86664 6.0703 10.0399 6.31852 9.99206 6.5861C9.96276 6.74972 9.91238 6.91129 9.85276 7.06674C9.39992 8.24209 8.27476 9.00102 6.99334 9Z" fill="#E3B252"/>
</svg>
