<svg width="20" height="20" viewBox="0 0 20 20" fill="none" xmlns="http://www.w3.org/2000/svg">
<g clip-path="url(#clip0_3991_1689)">
<path d="M17.2812 19.375H13.0313C11.875 19.375 10.9375 18.4375 10.9375 17.2812V11.5625C10.9375 11.2188 11.2188 10.9375 11.5625 10.9375H17.2812C18.4375 10.9375 19.375 11.875 19.375 13.0313V17.2812C19.375 18.4375 18.4375 19.375 17.2812 19.375ZM12.1875 12.1875V17.2812C12.1875 17.75 12.5625 18.125 13.0313 18.125H17.2812C17.75 18.125 18.125 17.75 18.125 17.2812V13.0313C18.125 12.5625 17.75 12.1875 17.2812 12.1875H12.1875Z" fill="#609966"/>
<path d="M6.96875 19.375H2.71875C1.5625 19.375 0.625 18.4375 0.625 17.2812V13.0313C0.625 11.875 1.5625 10.9375 2.71875 10.9375H8.4375C8.78125 10.9375 9.0625 11.2188 9.0625 11.5625V17.2812C9.0625 18.4375 8.125 19.375 6.96875 19.375ZM2.71875 12.1875C2.25 12.1875 1.875 12.5625 1.875 13.0313V17.2812C1.875 17.75 2.25 18.125 2.71875 18.125H6.96875C7.4375 18.125 7.8125 17.75 7.8125 17.2812V12.1875H2.71875Z" fill="#609966"/>
<path d="M17.2812 9.0625H11.5625C11.2188 9.0625 10.9375 8.78125 10.9375 8.4375V2.71875C10.9375 1.5625 11.875 0.625 13.0313 0.625H17.2812C18.4375 0.625 19.375 1.5625 19.375 2.71875V6.96875C19.375 8.125 18.4375 9.0625 17.2812 9.0625ZM12.1875 7.8125H17.2812C17.75 7.8125 18.125 7.4375 18.125 6.96875V2.71875C18.125 2.25 17.75 1.875 17.2812 1.875H13.0313C12.5625 1.875 12.1875 2.25 12.1875 2.71875V7.8125Z" fill="#609966"/>
<path d="M8.4375 9.0625H2.71875C1.5625 9.0625 0.625 8.125 0.625 6.96875V2.71875C0.625 1.5625 1.5625 0.625 2.71875 0.625H6.96875C8.125 0.625 9.0625 1.5625 9.0625 2.71875V8.4375C9.0625 8.78125 8.78125 9.0625 8.4375 9.0625ZM2.71875 1.875C2.25 1.875 1.875 2.25 1.875 2.71875V6.96875C1.875 7.4375 2.25 7.8125 2.71875 7.8125H7.8125V2.71875C7.8125 2.25 7.4375 1.875 6.96875 1.875H2.71875Z" fill="#609966"/>
</g>
<defs>
<clipPath id="clip0_3991_1689">
<rect width="20" height="20" fill="white"/>
</clipPath>
</defs>
</svg>
