<svg width="167" height="31" viewBox="0 0 167 31" fill="none" xmlns="http://www.w3.org/2000/svg">
<g clip-path="url(#clip0_36_9)">
<path d="M39.0919 9.90313C38.6849 9.90313 38.3117 10.047 37.9709 10.3347C37.63 10.6224 37.3376 11.0283 37.0937 11.5522C36.8498 12.0762 36.6618 12.7077 36.5295 13.4452C36.3973 14.1842 36.3312 14.9989 36.3312 15.8893C36.3312 16.7903 36.4399 17.5944 36.6588 18.3016C36.8777 19.0088 37.1789 19.6085 37.5653 20.1007C37.9518 20.5928 38.4043 20.9699 38.9215 21.2319C39.4401 21.4939 39.9984 21.6241 40.5979 21.6241C41.1767 21.6241 41.7086 21.5348 42.1905 21.3576C42.6724 21.1789 43.1 20.9805 43.4717 20.7609C43.8419 20.5413 44.1475 20.3309 44.387 20.1325C44.625 19.9341 44.7911 19.813 44.8822 19.7705C45.0247 19.7085 45.1393 19.7206 45.2245 19.8099C45.3112 19.8993 45.3083 20.0325 45.2172 20.2112C45.1569 20.3263 45.0541 20.4989 44.9116 20.7291C44.769 20.9593 44.578 21.2137 44.34 21.4908C44.1005 21.768 43.814 22.0542 43.479 22.348C43.1441 22.6417 42.7547 22.9083 42.3125 23.149C41.8702 23.3898 41.3721 23.5867 40.8182 23.7381C40.2643 23.8895 39.6473 23.9668 38.9655 23.9668C37.9077 23.9668 36.9585 23.8093 36.1152 23.4958C35.2719 23.1808 34.5505 22.7205 33.951 22.1132C33.3516 21.506 32.8917 20.7594 32.5714 19.8735C32.2511 18.9892 32.0909 17.9806 32.0909 16.8479C32.0909 15.853 32.2129 14.9671 32.4568 14.1917C32.7007 13.4164 33.0239 12.741 33.425 12.164C33.8261 11.5886 34.286 11.101 34.8046 10.7027C35.3233 10.3044 35.8537 9.98187 36.3973 9.73655C36.9409 9.48971 37.4772 9.31254 38.0061 9.20199C38.535 9.09144 39.0125 9.03693 39.4386 9.03693C40.1292 9.03693 40.7654 9.10204 41.3442 9.23379C41.9231 9.36554 42.4212 9.54877 42.8385 9.78349C43.2557 10.0197 43.5804 10.2969 43.814 10.6164C44.0476 10.9359 44.1652 11.2797 44.1652 11.6461C44.1652 11.9702 44.1123 12.2428 44.005 12.4639C43.8978 12.6835 43.7611 12.8652 43.5936 13.006C43.4261 13.1468 43.2381 13.2498 43.0295 13.3119C42.8208 13.3755 42.6107 13.4058 42.3962 13.4058C42.0906 13.4058 41.8041 13.3482 41.5352 13.2332C41.2664 13.1181 41.0445 12.9242 40.8726 12.6516C40.7404 12.4533 40.6331 12.1958 40.5523 11.8824C40.4715 11.5674 40.3775 11.2645 40.2702 10.9707C40.163 10.677 40.0234 10.4256 39.8515 10.2166C39.681 10.0076 39.4269 9.90313 39.0919 9.90313Z" fill="#486642"/>
<path d="M51.6701 21.0274C51.6701 21.4575 51.7583 21.8028 51.9375 22.0648C52.1153 22.3267 52.318 22.5342 52.5472 22.6856C52.7764 22.8371 52.9998 22.9446 53.2187 23.0082C53.4376 23.0703 53.5875 23.1081 53.6683 23.1187C53.7491 23.1399 53.8078 23.1733 53.8431 23.2202C53.8784 23.2672 53.8916 23.3171 53.8813 23.3701C53.871 23.4231 53.8431 23.4701 53.7976 23.511C53.752 23.5534 53.6888 23.573 53.6066 23.573H45.6183C45.5375 23.573 45.4728 23.5518 45.4273 23.511C45.3817 23.4686 45.3538 23.4216 45.3435 23.3701C45.3333 23.3171 45.3465 23.2687 45.3817 23.2202C45.417 23.1733 45.4758 23.1384 45.5566 23.1187C45.6374 23.1081 45.7873 23.0718 46.0062 23.0082C46.2251 22.9446 46.4484 22.8386 46.6776 22.6856C46.9068 22.5342 47.1096 22.3267 47.2873 22.0648C47.4651 21.8028 47.5548 21.4575 47.5548 21.0274V3.41267C47.5548 3.27638 47.4945 3.1931 47.3726 3.16129C47.352 3.16129 47.2785 3.14615 47.1522 3.11435C47.0244 3.08255 46.8804 3.0462 46.7173 3.0038C46.5542 2.9614 46.4043 2.92506 46.2677 2.89326C46.1311 2.86146 46.0473 2.84026 46.0165 2.82965C45.8842 2.79785 45.8152 2.72819 45.8108 2.61765C45.8049 2.5071 45.8798 2.43138 46.0311 2.3905C46.4278 2.29661 46.8569 2.16789 47.3197 2.00586C47.7825 1.84382 48.2468 1.66059 48.714 1.45615C49.1812 1.25172 49.6337 1.03214 50.0701 0.7959C50.5065 0.559663 50.8987 0.321912 51.244 0.0811326C51.3351 0.0190447 51.4291 -0.00821332 51.5261 0.00238705C51.6231 0.0129874 51.6716 0.0917329 51.6716 0.238624V21.0274H51.6701Z" fill="#486642"/>
<path d="M59.0471 15.2457C58.884 15.2457 58.8032 15.335 58.8032 15.5122C58.8032 16.5813 58.8943 17.4975 59.078 18.2623C59.2602 19.027 59.5275 19.6524 59.8787 20.14C60.2298 20.6277 60.6662 20.9866 61.1893 21.2167C61.7123 21.4469 62.3191 21.562 63.0111 21.562C63.5401 21.562 64.0102 21.5045 64.4216 21.3894C64.833 21.2743 65.1915 21.141 65.4956 20.9881C65.8012 20.8366 66.0495 20.6928 66.242 20.5565C66.4345 20.4202 66.577 20.3308 66.6695 20.29C66.8121 20.2279 66.9237 20.24 67.0045 20.3293C67.0853 20.4187 67.0853 20.5519 67.0045 20.7306C66.9737 20.7927 66.9061 20.9169 66.7988 21.1001C66.6916 21.2834 66.5373 21.4954 66.3346 21.7362C66.1318 21.9769 65.8776 22.2283 65.572 22.4903C65.2679 22.7523 64.9035 22.9931 64.4818 23.2126C64.0602 23.4322 63.5768 23.6139 63.0332 23.7548C62.4895 23.8956 61.8827 23.9668 61.2113 23.9668C60.1946 23.9668 59.2748 23.8017 58.4521 23.4716C57.6293 23.1415 56.9255 22.6629 56.3408 22.0345C55.756 21.406 55.3035 20.6413 54.9847 19.7403C54.6644 18.8392 54.5042 17.8231 54.5042 16.6919C54.5042 15.4562 54.7026 14.3613 55.0993 13.4073C55.4959 12.4548 56.0146 11.6552 56.6537 11.0116C57.2943 10.368 58.0201 9.87738 58.8341 9.54271C59.6466 9.20804 60.4752 9.03995 61.3186 9.03995C62.112 9.03995 62.8098 9.15201 63.4152 9.37764C64.019 9.60328 64.5435 9.89555 64.9858 10.2575C65.428 10.6194 65.7939 11.0222 66.0833 11.4674C66.3728 11.9126 66.6064 12.3548 66.7841 12.7955C66.9619 13.2362 67.0868 13.6496 67.1573 14.0373C67.2279 14.4249 67.2646 14.7339 67.2646 14.964C67.2646 15.0685 67.2308 15.1427 67.1661 15.1836C67.1 15.226 67.0104 15.2472 66.8987 15.2472H59.0471V15.2457ZM58.8796 14.2084C58.859 14.3447 58.9208 14.4128 59.0633 14.4128C59.0941 14.4128 59.1955 14.4098 59.3674 14.4052C59.5408 14.4007 59.7509 14.3916 60.0006 14.381C60.249 14.3704 60.5163 14.3598 60.8014 14.3492C61.0864 14.3386 61.3582 14.328 61.6168 14.3174C61.8754 14.3068 62.0987 14.2992 62.2883 14.2932C62.4763 14.2886 62.5953 14.2796 62.6468 14.269C62.8098 14.2584 62.9803 14.1857 63.158 14.0494C63.3358 13.9131 63.4255 13.6784 63.4255 13.3422C63.4255 13.0378 63.3843 12.688 63.3035 12.2897C63.2227 11.8914 63.0919 11.5144 62.9142 11.1585C62.7364 10.8026 62.5101 10.5013 62.2354 10.2544C61.9606 10.0091 61.6256 9.88495 61.2289 9.88495C60.9145 9.88495 60.6398 9.97127 60.4062 10.1439C60.1726 10.3165 59.9713 10.5422 59.8038 10.8193C59.6363 11.0964 59.4967 11.4038 59.385 11.7385C59.2734 12.0732 59.1823 12.4018 59.1103 12.7198C59.0383 13.0393 58.9854 13.3331 58.9501 13.5996C58.9134 13.8707 58.8899 14.0721 58.8796 14.2084Z" fill="#486642"/>
<path d="M81.8087 22.1269C81.9512 22.095 82.0628 22.1238 82.1436 22.2132C82.2245 22.3025 82.2303 22.4206 82.1583 22.566C82.0966 22.6811 81.9982 22.8174 81.8615 22.9749C81.7249 23.1324 81.5413 23.2793 81.312 23.414C81.0828 23.5503 80.8037 23.6654 80.4731 23.7593C80.1425 23.8532 79.7547 23.9001 79.3065 23.9001C78.6865 23.9001 78.1649 23.7714 77.7433 23.5155C77.3216 23.2596 77.0292 22.9628 76.8661 22.6281C76.825 22.5448 76.7677 22.5085 76.6913 22.5176C76.6149 22.5282 76.5517 22.56 76.5003 22.6114C76.4694 22.6432 76.3754 22.7296 76.2182 22.8704C76.061 23.0112 75.8377 23.1642 75.5467 23.3262C75.2573 23.4882 74.9091 23.6351 74.5021 23.7654C74.0951 23.8956 73.6279 23.9622 73.099 23.9622C72.1939 23.9622 71.4343 23.8305 70.8202 23.57C70.2046 23.308 69.7065 22.9703 69.326 22.5569C68.9454 22.1435 68.6707 21.6771 68.5032 21.1592C68.3357 20.6413 68.252 20.1249 68.252 19.6115C68.252 18.7847 68.4782 18.0609 68.9307 17.443C69.3833 16.8252 69.9695 16.3648 70.6909 16.0604C71.0773 15.9029 71.4813 15.7909 71.903 15.7227C72.3247 15.6546 72.7434 15.5834 73.1607 15.5107C73.578 15.438 73.9864 15.3456 74.3875 15.2351C74.7886 15.1246 75.1677 14.9443 75.5232 14.693C75.8994 14.431 76.1609 14.0963 76.3078 13.6874C76.4547 13.2786 76.5282 12.844 76.5282 12.3836C76.5282 12.0489 76.4841 11.7264 76.3989 11.4175C76.3122 11.1085 76.1903 10.839 76.0331 10.6088C75.8759 10.3786 75.6922 10.1954 75.4836 10.0591C75.2749 9.92281 75.0487 9.85466 74.8048 9.85466C74.3684 9.85466 74.0481 9.96975 73.8439 10.1999C73.6411 10.4301 73.481 10.7087 73.3634 11.0328C73.2459 11.3569 73.1372 11.6961 73.0358 12.0459C72.9344 12.3972 72.7713 12.6986 72.548 12.95C72.3644 13.1499 72.1293 13.2983 71.8384 13.3982C71.5489 13.4982 71.2712 13.5481 71.0068 13.5481C70.732 13.5481 70.4881 13.5012 70.2751 13.4073C70.0621 13.3134 69.8784 13.1847 69.7256 13.0227C69.5728 12.8606 69.4582 12.6713 69.3833 12.4563C69.3069 12.2413 69.2687 12.0141 69.2687 11.7733C69.2687 11.4493 69.3451 11.1237 69.4979 10.7996C69.6507 10.4755 69.9225 10.1818 70.3133 9.91978C70.7041 9.6578 71.2301 9.44579 71.8913 9.28376C72.5524 9.12172 73.3899 9.03995 74.4066 9.03995C75.535 9.03995 76.4973 9.15807 77.2951 9.39279C78.0929 9.62902 78.7438 9.97127 79.2463 10.4225C79.7488 10.8738 80.1146 11.4311 80.3438 12.0959C80.573 12.7607 80.6862 13.5178 80.6862 14.3659C80.6862 15.382 80.6553 16.336 80.5951 17.2265C80.5333 18.1169 80.4907 18.9059 80.4658 19.5918C80.4408 20.2778 80.4525 20.8442 80.504 21.2894C80.5554 21.7346 80.6964 22.0102 80.9315 22.1147C81.0329 22.1677 81.1607 22.1905 81.312 22.1859C81.4737 22.1768 81.6368 22.1587 81.8087 22.1269ZM76.5194 15.1034C76.5194 15.0413 76.4944 14.9989 76.443 14.9777C76.3916 14.9565 76.346 14.9731 76.3063 15.0246C76.2255 15.1185 76.1506 15.2078 76.086 15.2911C76.0198 15.3744 75.9302 15.4744 75.8185 15.5895C75.6246 15.7984 75.4277 15.9953 75.2235 16.1785C75.0208 16.3618 74.8165 16.548 74.6138 16.7358C74.411 16.9039 74.2097 17.0705 74.0114 17.2386C73.813 17.4067 73.6279 17.5899 73.4545 17.7883C73.1901 18.1033 72.9947 18.4455 72.8668 18.818C72.739 19.1906 72.6758 19.5858 72.6758 20.0037C72.6758 20.2869 72.717 20.5716 72.7978 20.8609C72.8786 21.1486 73.0035 21.406 73.171 21.6301C73.3385 21.8558 73.5515 22.039 73.8116 22.1799C74.0702 22.3207 74.3831 22.3919 74.7489 22.3919C75.1148 22.3919 75.4116 22.3131 75.6408 22.1556C75.87 21.9981 76.0478 21.8104 76.1741 21.5893C76.3005 21.3697 76.3901 21.1471 76.4415 20.9214C76.4929 20.6958 76.5179 20.5201 76.5179 20.3944V15.1034H76.5194Z" fill="#486642"/>
<path d="M99.9964 23.1172C100.077 23.1384 100.136 23.1717 100.171 23.2187C100.207 23.2656 100.22 23.3156 100.209 23.3686C100.199 23.4216 100.171 23.4686 100.126 23.5094C100.08 23.5518 100.017 23.5715 99.9347 23.5715H98.1657H98.0291H94.187H94.0504H92.2829C92.2021 23.5715 92.1374 23.5503 92.0919 23.5094C92.0463 23.467 92.0184 23.4201 92.0081 23.3686C91.9978 23.3156 92.0111 23.2672 92.0463 23.2187C92.0816 23.1717 92.1404 23.1369 92.2212 23.1172C92.302 23.1066 92.4416 23.0733 92.6399 23.0158C92.8383 22.9582 93.041 22.8583 93.2496 22.7174C93.4583 22.5766 93.6434 22.3767 93.8065 22.1208C93.9696 21.8649 94.0504 21.5257 94.0504 21.1077V15.3411V15.2154V14.3356C94.0401 13.8949 94.0078 13.4421 93.9519 12.9757C93.8961 12.5093 93.7786 12.0853 93.6008 11.7037C93.423 11.3221 93.1644 11.0071 92.8236 10.7602C92.4827 10.5149 92.0287 10.3907 91.4586 10.3907C90.8695 10.3907 90.4111 10.5119 90.0864 10.7527C89.7617 10.9934 89.5192 11.2918 89.362 11.6476C89.2048 12.0035 89.1079 12.3836 89.0726 12.7864C89.0373 13.1892 89.0197 13.5481 89.0197 13.8631V21.1077C89.0197 21.5272 89.1005 21.8649 89.2636 22.1208C89.4267 22.3782 89.6118 22.5766 89.8204 22.7174C90.0291 22.8583 90.2318 22.9582 90.4302 23.0158C90.6285 23.0733 90.7681 23.1081 90.8489 23.1172C90.9297 23.1384 90.9885 23.1717 91.0237 23.2187C91.059 23.2656 91.0722 23.3156 91.0619 23.3686C91.0517 23.4216 91.0237 23.4686 90.9782 23.5094C90.9326 23.5518 90.8695 23.5715 90.7872 23.5715H83.1339C83.0531 23.5715 82.9885 23.5503 82.9429 23.5094C82.8974 23.467 82.8694 23.4201 82.8592 23.3686C82.8489 23.3156 82.8621 23.2672 82.8974 23.2187C82.9326 23.1717 82.9914 23.1369 83.0722 23.1172C83.153 23.1066 83.2926 23.0733 83.4909 23.0158C83.6893 22.9582 83.892 22.8583 84.1007 22.7174C84.3093 22.5766 84.4944 22.3767 84.6575 22.1208C84.8206 21.8649 84.9014 21.5257 84.9014 21.1077V12.37C84.9014 12.2337 84.8397 12.1504 84.7178 12.1186C84.6972 12.1186 84.6237 12.1035 84.4974 12.0717C84.3695 12.0399 84.2256 12.0035 84.0625 11.9611C83.8994 11.9187 83.7495 11.8824 83.6129 11.8506C83.4762 11.8188 83.3925 11.7976 83.3616 11.7885C83.2294 11.7567 83.1604 11.687 83.1559 11.5765C83.1501 11.4659 83.225 11.3902 83.3763 11.3493C83.773 11.2554 84.202 11.1267 84.6649 10.9647C85.1277 10.8026 85.592 10.6194 86.0592 10.415C86.5264 10.2105 86.9789 9.99096 87.4167 9.75472C87.8531 9.51848 88.2454 9.28073 88.5907 9.03995C88.6818 8.97635 88.7758 8.95061 88.8728 8.96121C88.9697 8.97181 89.0182 9.05055 89.0182 9.19744V10.5482C89.2313 10.3499 89.4752 10.1575 89.7499 9.9743C90.0247 9.79106 90.3317 9.63206 90.6726 9.49577C91.0135 9.35948 91.394 9.25045 91.8157 9.16564C92.2373 9.08235 92.7016 9.03995 93.21 9.03995C94.043 9.03995 94.7424 9.13384 95.3066 9.32313C95.8708 9.51243 96.338 9.76381 96.7097 10.0773C97.08 10.3923 97.365 10.7527 97.5633 11.1615C97.7617 11.5704 97.9042 11.9944 97.9909 12.4336C98.0776 12.8743 98.1275 13.3104 98.1437 13.745C98.1584 14.1796 98.1672 14.5855 98.1672 14.9625V15.0413V21.1062C98.1672 21.5257 98.248 21.8634 98.4111 22.1193C98.5742 22.3767 98.7593 22.5751 98.9679 22.7159C99.1766 22.8568 99.3793 22.9567 99.5777 23.0143C99.776 23.0733 99.9156 23.1066 99.9964 23.1172Z" fill="#486642"/>
<path d="M105.104 15.2457C104.94 15.2457 104.86 15.335 104.86 15.5122C104.86 16.5813 104.951 17.4975 105.134 18.2623C105.317 19.027 105.584 19.6524 105.935 20.14C106.286 20.6277 106.723 20.9866 107.246 21.2167C107.769 21.4469 108.376 21.562 109.068 21.562C109.596 21.562 110.067 21.5045 110.478 21.3894C110.889 21.2743 111.248 21.141 111.552 20.9881C111.858 20.8366 112.106 20.6928 112.298 20.5565C112.491 20.4202 112.633 20.3308 112.726 20.29C112.868 20.2279 112.98 20.24 113.061 20.3293C113.142 20.4187 113.142 20.5519 113.061 20.7306C113.03 20.7927 112.962 20.9169 112.855 21.1001C112.748 21.2834 112.594 21.4954 112.391 21.7362C112.188 21.9769 111.934 22.2283 111.628 22.4903C111.323 22.7523 110.96 22.9931 110.538 23.2126C110.117 23.4322 109.633 23.6139 109.09 23.7548C108.546 23.8956 107.939 23.9668 107.268 23.9668C106.251 23.9668 105.331 23.8017 104.508 23.4716C103.686 23.1415 102.982 22.6629 102.397 22.0345C101.812 21.406 101.36 20.6413 101.041 19.7403C100.721 18.8392 100.561 17.8231 100.561 16.6919C100.561 15.4562 100.759 14.3613 101.156 13.4073C101.552 12.4548 102.071 11.6552 102.71 11.0116C103.351 10.368 104.077 9.87738 104.89 9.54271C105.703 9.20804 106.532 9.03995 107.375 9.03995C108.168 9.03995 108.866 9.15201 109.472 9.37764C110.075 9.60328 110.6 9.89555 111.042 10.2575C111.484 10.6194 111.85 11.0222 112.14 11.4674C112.429 11.9126 112.663 12.3548 112.841 12.7955C113.018 13.2362 113.143 13.6496 113.214 14.0373C113.284 14.4249 113.321 14.7339 113.321 14.964C113.321 15.0685 113.287 15.1427 113.223 15.1836C113.156 15.226 113.067 15.2472 112.955 15.2472H105.104V15.2457ZM104.936 14.2084C104.915 14.3447 104.977 14.4128 105.12 14.4128C105.151 14.4128 105.252 14.4098 105.425 14.4052C105.599 14.4007 105.809 14.3916 106.059 14.381C106.307 14.3704 106.574 14.3598 106.859 14.3492C107.144 14.3386 107.416 14.328 107.675 14.3174C107.933 14.3068 108.157 14.2992 108.346 14.2932C108.534 14.2886 108.653 14.2796 108.705 14.269C108.868 14.2584 109.038 14.1857 109.216 14.0494C109.394 13.9131 109.483 13.6784 109.483 13.3422C109.483 13.0378 109.442 12.688 109.361 12.2897C109.281 11.8914 109.15 11.5144 108.972 11.1585C108.794 10.8026 108.568 10.5013 108.293 10.2544C108.018 10.0091 107.683 9.88495 107.287 9.88495C106.972 9.88495 106.698 9.97127 106.464 10.1439C106.23 10.3165 106.029 10.5422 105.862 10.8193C105.694 11.0964 105.555 11.4038 105.443 11.7385C105.331 12.0732 105.24 12.4018 105.168 12.7198C105.096 13.0393 105.043 13.3331 105.008 13.5996C104.97 13.8707 104.946 14.0721 104.936 14.2084Z" fill="#486642"/>
<path d="M123.855 9.03844C124.283 9.03844 124.643 9.09295 124.938 9.2035C125.234 9.31405 125.472 9.46094 125.655 9.64417C125.837 9.82741 125.97 10.0424 126.052 10.2878C126.133 10.5346 126.174 10.7936 126.174 11.0661C126.174 11.5689 126.018 11.9611 125.71 12.2443C125.4 12.5275 124.985 12.6683 124.467 12.6683C124.07 12.6683 123.76 12.5956 123.537 12.4487C123.313 12.3018 123.122 12.1428 122.965 11.9702C122.808 11.7976 122.662 11.6386 122.53 11.4917C122.398 11.3448 122.235 11.2721 122.042 11.2721C121.869 11.2721 121.684 11.3327 121.486 11.4523C121.287 11.5734 121.105 11.8006 120.936 12.1353C120.769 12.4699 120.629 12.9318 120.517 13.5178C120.406 14.1039 120.35 14.8641 120.35 15.7969V21.2334C120.35 21.6529 120.419 21.983 120.556 22.2238C120.692 22.4646 120.851 22.6478 121.029 22.7735C121.206 22.8992 121.381 22.9855 121.555 23.0324C121.728 23.0794 121.854 23.1081 121.935 23.1187C122.016 23.1399 122.075 23.1733 122.11 23.2202C122.145 23.2672 122.158 23.3171 122.148 23.3701C122.138 23.4231 122.11 23.4701 122.064 23.511C122.019 23.5534 121.956 23.573 121.873 23.573H120.348H120.212H116.37H116.233H114.708C114.627 23.573 114.562 23.5518 114.517 23.511C114.471 23.4686 114.443 23.4216 114.433 23.3701C114.423 23.3171 114.436 23.2687 114.471 23.2202C114.507 23.1733 114.565 23.1384 114.646 23.1187C114.727 23.1081 114.855 23.0794 115.027 23.0324C115.2 22.9855 115.375 22.8992 115.553 22.7735C115.731 22.6478 115.888 22.4646 116.026 22.2238C116.162 21.983 116.232 21.6529 116.232 21.2334V12.37C116.232 12.2337 116.171 12.1504 116.049 12.1186C116.029 12.1186 115.955 12.1035 115.829 12.0717C115.701 12.0399 115.557 12.0035 115.394 11.9611C115.231 11.9187 115.081 11.8824 114.944 11.8506C114.808 11.8188 114.724 11.7976 114.693 11.7885C114.561 11.7567 114.492 11.687 114.488 11.5765C114.482 11.4659 114.557 11.3902 114.708 11.3493C115.105 11.2554 115.534 11.1267 115.996 10.9647C116.459 10.8026 116.924 10.6194 117.391 10.415C117.858 10.2105 118.31 9.99096 118.747 9.75472C119.183 9.51848 119.576 9.28073 119.921 9.03995C120.012 8.97635 120.106 8.95061 120.203 8.96121C120.3 8.97181 120.348 9.05055 120.348 9.19744V11.4447C120.704 10.6376 121.187 10.0364 121.797 9.63812C122.407 9.23682 123.093 9.03844 123.855 9.03844Z" fill="#486642"/>
<path d="M132.286 21.1062C132.286 21.5257 132.367 21.8633 132.53 22.1193C132.693 22.3767 132.878 22.5751 133.087 22.7159C133.295 22.8568 133.498 22.9567 133.696 23.0142C133.895 23.0718 134.034 23.1066 134.115 23.1157C134.196 23.1369 134.255 23.1702 134.29 23.2172C134.325 23.2641 134.338 23.3141 134.328 23.3671C134.318 23.4201 134.29 23.467 134.244 23.5079C134.199 23.5503 134.136 23.57 134.053 23.57H126.4C126.319 23.57 126.255 23.5488 126.209 23.5079C126.164 23.4655 126.136 23.4186 126.125 23.3671C126.115 23.3141 126.128 23.2656 126.164 23.2172C126.199 23.1702 126.258 23.1354 126.338 23.1157C126.419 23.1051 126.559 23.0718 126.757 23.0142C126.956 22.9567 127.158 22.8568 127.367 22.7159C127.576 22.5751 127.761 22.3752 127.924 22.1193C128.087 21.8633 128.168 21.5241 128.168 21.1062V12.37C128.168 12.2337 128.106 12.1504 127.984 12.1186C127.963 12.1186 127.89 12.1034 127.764 12.0716C127.636 12.0398 127.492 12.0035 127.329 11.9611C127.166 11.9187 127.016 11.8824 126.879 11.8506C126.742 11.8188 126.659 11.7975 126.628 11.7885C126.496 11.7567 126.427 11.687 126.422 11.5765C126.416 11.4659 126.491 11.3902 126.643 11.3493C127.039 11.2554 127.468 11.1267 127.931 10.9647C128.394 10.8026 128.858 10.6194 129.325 10.415C129.793 10.2105 130.245 9.99095 130.683 9.75471C131.119 9.51847 131.512 9.28072 131.857 9.03994C131.948 8.97634 132.042 8.9506 132.139 8.9612C132.236 8.9718 132.284 9.05054 132.284 9.19743V21.1062H132.286ZM132.408 3.41266C132.286 3.10828 132.115 2.84479 131.897 2.61915C131.678 2.39351 131.419 2.21634 131.119 2.08459C130.82 1.95436 130.486 1.88773 130.12 1.88773C129.765 1.88773 129.428 1.95587 129.114 2.09216C128.798 2.22845 128.526 2.41169 128.298 2.64187C128.069 2.87205 127.888 3.1416 127.758 3.45052C127.625 3.75945 127.559 4.08654 127.559 4.43333C127.559 4.78011 127.62 5.10418 127.742 5.40705C127.864 5.71143 128.034 5.97341 128.253 6.19299C128.472 6.41257 128.73 6.58823 129.03 6.71998C129.33 6.85172 129.657 6.91684 130.013 6.91684C130.379 6.91684 130.717 6.8487 131.027 6.7124C131.337 6.57611 131.609 6.39591 131.842 6.17027C132.076 5.94464 132.259 5.67811 132.392 5.36919C132.524 5.06026 132.59 4.73317 132.59 4.38638C132.59 4.0396 132.53 3.71705 132.408 3.41266Z" fill="#486642"/>
<path d="M151.877 23.1172C151.958 23.1384 152.016 23.1717 152.052 23.2187C152.087 23.2656 152.1 23.3156 152.09 23.3686C152.08 23.4216 152.052 23.4686 152.006 23.5094C151.961 23.5518 151.897 23.5715 151.815 23.5715H150.046H149.91H146.067H145.931H144.162C144.081 23.5715 144.016 23.5503 143.971 23.5094C143.925 23.467 143.897 23.4201 143.887 23.3686C143.877 23.3156 143.89 23.2672 143.925 23.2187C143.961 23.1717 144.019 23.1369 144.1 23.1172C144.181 23.1066 144.321 23.0733 144.519 23.0158C144.717 22.9582 144.92 22.8583 145.129 22.7174C145.337 22.5766 145.522 22.3767 145.685 22.1208C145.849 21.8649 145.929 21.5257 145.929 21.1077V15.3411V15.2154V14.3356C145.919 13.8949 145.887 13.4421 145.831 12.9757C145.775 12.5093 145.658 12.0853 145.48 11.7037C145.302 11.3221 145.043 11.0071 144.703 10.7602C144.362 10.5149 143.908 10.3907 143.338 10.3907C142.748 10.3907 142.29 10.5119 141.965 10.7527C141.641 10.9934 141.398 11.2918 141.241 11.6476C141.084 12.0035 140.987 12.3836 140.952 12.7864C140.916 13.1892 140.899 13.5481 140.899 13.8631V21.1077C140.899 21.5272 140.979 21.8649 141.143 22.1208C141.306 22.3782 141.491 22.5766 141.699 22.7174C141.908 22.8583 142.111 22.9582 142.309 23.0158C142.507 23.0733 142.647 23.1081 142.728 23.1172C142.809 23.1384 142.867 23.1717 142.903 23.2187C142.938 23.2656 142.951 23.3156 142.941 23.3686C142.931 23.4216 142.903 23.4686 142.857 23.5094C142.812 23.5518 142.748 23.5715 142.666 23.5715H135.013C134.932 23.5715 134.867 23.5503 134.822 23.5094C134.776 23.467 134.748 23.4201 134.738 23.3686C134.728 23.3156 134.741 23.2672 134.776 23.2187C134.812 23.1717 134.87 23.1369 134.951 23.1172C135.032 23.1066 135.172 23.0733 135.37 23.0158C135.568 22.9582 135.771 22.8583 135.98 22.7174C136.188 22.5766 136.373 22.3767 136.536 22.1208C136.7 21.8649 136.78 21.5257 136.78 21.1077V12.37C136.78 12.2337 136.719 12.1504 136.597 12.1186C136.576 12.1186 136.503 12.1035 136.376 12.0717C136.249 12.0399 136.105 12.0035 135.941 11.9611C135.778 11.9187 135.628 11.8824 135.492 11.8506C135.355 11.8188 135.271 11.7976 135.241 11.7885C135.108 11.7567 135.039 11.687 135.035 11.5765C135.029 11.4659 135.104 11.3902 135.255 11.3493C135.652 11.2554 136.081 11.1267 136.544 10.9647C137.007 10.8026 137.471 10.6194 137.938 10.415C138.405 10.2105 138.858 9.99096 139.296 9.75472C139.732 9.51848 140.124 9.28073 140.47 9.03995C140.561 8.97635 140.655 8.95061 140.752 8.96121C140.849 8.97181 140.897 9.05055 140.897 9.19744V10.5482C141.11 10.3499 141.354 10.1575 141.629 9.9743C141.904 9.79106 142.211 9.63206 142.552 9.49577C142.892 9.35948 143.273 9.25045 143.695 9.16564C144.116 9.08235 144.581 9.03995 145.089 9.03995C145.922 9.03995 146.621 9.13384 147.186 9.32313C147.75 9.51243 148.217 9.76381 148.589 10.0773C148.959 10.3923 149.244 10.7527 149.442 11.1615C149.641 11.5704 149.783 11.9944 149.87 12.4336C149.957 12.8743 150.007 13.3104 150.023 13.745C150.037 14.1796 150.046 14.5855 150.046 14.9625V15.0413V21.1062C150.046 21.5257 150.127 21.8634 150.29 22.1193C150.453 22.3767 150.638 22.5751 150.847 22.7159C151.056 22.8568 151.258 22.9567 151.457 23.0143C151.655 23.0733 151.795 23.1066 151.877 23.1172Z" fill="#486642"/>
<path d="M159.834 9.03845C160.88 9.03845 161.844 9.22926 162.723 9.61239C163.601 9.99551 164.357 10.518 164.987 11.1843C165.617 11.8491 166.109 12.632 166.466 13.533C166.822 14.434 167 15.3972 167 16.4239C167 17.4612 166.806 18.4349 166.421 19.3465C166.034 20.2582 165.506 21.0562 164.836 21.7422C164.164 22.4282 163.374 22.9704 162.464 23.3686C161.555 23.7669 160.576 23.9653 159.529 23.9653C158.481 23.9653 157.519 23.7745 156.64 23.3913C155.762 23.0097 155.006 22.4858 154.376 21.8195C153.746 21.1547 153.254 20.3733 152.896 19.4783C152.541 18.5833 152.363 17.6157 152.363 16.5799C152.363 15.5531 152.556 14.5824 152.942 13.6648C153.328 12.7486 153.857 11.9475 154.527 11.26C155.199 10.574 155.988 10.0319 156.899 9.63359C157.81 9.23683 158.788 9.03845 159.834 9.03845ZM159.683 23.1339C160.171 23.1339 160.595 22.9613 160.955 22.616C161.315 22.2707 161.616 21.7967 161.854 21.194C162.094 20.5913 162.273 19.8872 162.395 19.08C162.517 18.2729 162.577 17.4143 162.577 16.5026C162.577 15.591 162.517 14.7324 162.395 13.9252C162.273 13.1181 162.092 12.4139 161.854 11.8112C161.615 11.2085 161.315 10.7345 160.955 10.3892C160.594 10.044 160.171 9.87134 159.683 9.87134C159.195 9.87134 158.771 10.044 158.411 10.3892C158.049 10.7345 157.748 11.2085 157.504 11.8112C157.26 12.4139 157.079 13.1181 156.963 13.9252C156.846 14.7324 156.789 15.591 156.789 16.5026C156.789 17.4143 156.847 18.2729 156.963 19.08C157.079 19.8872 157.26 20.5913 157.504 21.194C157.748 21.7967 158.051 22.2707 158.411 22.616C158.771 22.9598 159.195 23.1339 159.683 23.1339Z" fill="#486642"/>
<path d="M25.6218 25.7613C25.5557 25.5281 25.5058 25.3645 25.4779 25.2782C25.4632 25.2328 25.4558 25.2086 25.4558 25.2086C25.1252 24.1985 24.6654 23.243 24.0733 22.3465C22.7465 20.3339 20.9923 18.8514 18.8134 17.9079C17.4132 17.3022 15.9513 16.9948 14.4365 16.9918C9.96707 16.9812 5.49763 16.9872 1.02966 16.9872C0.740223 16.9872 0.450782 16.9903 0.161341 16.9872C0.0438019 16.9857 -0.00909084 17.0387 0.00119386 17.1568C0.0114786 17.2901 0.0291095 17.4218 0.0335172 17.5551C0.0555558 18.3183 0.168688 19.0694 0.347935 19.8084C0.788708 21.6241 1.57916 23.2293 2.71048 24.6286C4.08569 26.1126 6.12794 27.3483 8.07174 27.7829C10.0053 28.216 11.9961 28.263 13.9722 28.3448C13.9899 28.3448 14.0075 28.3463 14.0266 28.3463C15.8661 28.422 18.2859 28.6007 20.6235 29.0156C22.8744 29.4154 25.0503 30.0363 26.5563 30.9994C26.3594 28.6204 25.8775 26.6714 25.6218 25.7613Z" fill="#486642"/>
<path d="M11.5322 29.0171C11.5382 29.0156 11.5428 29.0156 11.5489 29.0141C11.5398 29.0156 11.5307 29.0156 11.52 29.0171C11.5246 29.0171 11.5291 29.0171 11.5322 29.0171Z" fill="#486642"/>
<path d="M12.4696 28.9217C12.4772 28.9202 12.4847 28.9187 12.4923 28.9172C12.4817 28.9187 12.4711 28.9187 12.4589 28.9202C12.4635 28.9217 12.4665 28.9217 12.4696 28.9217Z" fill="#486642"/>
<path d="M11.5024 29.0186C11.5084 29.0171 11.5159 29.0171 11.5219 29.0171C11.5189 29.0171 11.5159 29.0171 11.5114 29.0171L11.5024 29.0186Z" fill="#486642"/>
<path d="M25.6218 6.1491C25.5557 6.38231 25.5058 6.54586 25.4779 6.63218C25.4632 6.67761 25.4558 6.70184 25.4558 6.70184C25.1252 7.7119 24.6654 8.66745 24.0733 9.56393C22.7465 11.5765 20.9923 13.059 18.8134 14.0025C17.4132 14.6082 15.9513 14.9156 14.4365 14.9186C9.96707 14.9292 5.49763 14.9232 1.02966 14.9232C0.740223 14.9232 0.450782 14.9201 0.161341 14.9232C0.0438019 14.9247 -0.00909084 14.8717 0.00119386 14.7536C0.0114786 14.6203 0.0291095 14.4886 0.0335172 14.3553C0.0555558 13.5921 0.168688 12.841 0.347935 12.102C0.788708 10.2863 1.57916 8.68108 2.71048 7.28183C4.08569 5.79778 6.12794 4.56208 8.07174 4.12746C10.0053 3.69436 11.9961 3.64742 13.9722 3.56564C13.9899 3.56564 14.0075 3.56413 14.0266 3.56413C15.8661 3.48841 18.2859 3.30972 20.6235 2.89479C22.8744 2.49501 25.0503 1.87413 26.5563 0.911011C26.3594 3.29155 25.8775 5.2405 25.6218 6.1491Z" fill="#486642"/>
<path d="M11.5322 2.89481C11.5382 2.89632 11.5428 2.89632 11.5489 2.89783C11.5398 2.89632 11.5307 2.89632 11.52 2.89481C11.5246 2.89481 11.5291 2.89481 11.5322 2.89481Z" fill="#486642"/>
<path d="M12.4696 2.98868C12.4772 2.99019 12.4847 2.99171 12.4923 2.99322C12.4817 2.99171 12.4711 2.99171 12.4589 2.99019C12.4635 2.99019 12.4665 2.98868 12.4696 2.98868Z" fill="#486642"/>
<path d="M11.5024 2.89175C11.5084 2.89327 11.5159 2.89327 11.5219 2.89327C11.5189 2.89327 11.5159 2.89327 11.5114 2.89327L11.5024 2.89175Z" fill="#486642"/>
</g>
<defs>
<clipPath id="clip0_36_9">
<rect width="167" height="31" fill="white"/>
</clipPath>
</defs>
</svg>
