<svg width="35" height="34" viewBox="0 0 35 34" fill="none" xmlns="http://www.w3.org/2000/svg">
<path d="M17.4576 34C7.84109 34.0047 -0.00609751 26.3948 3.5552e-06 17.073C0.00610462 7.61348 7.75933 0.0166478 17.4259 2.71655e-05C27.107 -0.0165935 34.9383 7.59568 34.9444 17.0267C34.9481 26.4067 27.1302 33.9964 17.4576 34ZM32.3198 18.3956C31.9915 18.6366 31.6425 18.8526 31.3412 19.1221C30.7835 19.6207 30.3552 19.6635 29.761 19.2112C29.5914 19.0829 29.4291 18.9393 29.29 18.7814C28.4236 17.7984 27.7501 16.6967 27.2461 15.5024C26.7971 14.4375 26.8068 13.3571 27.2571 12.2898C27.4499 11.8339 27.6769 11.3911 27.866 10.9329C27.988 10.6373 28.1186 10.3333 28.1601 10.0223C28.3297 8.75794 28.121 7.5375 27.6293 6.361C27.5927 6.27196 27.5426 6.17698 27.4706 6.11525C25.5708 4.4603 23.3793 3.34316 20.8961 2.77568C20.7961 2.75312 20.6082 2.81367 20.5594 2.89321C20.081 3.67795 19.3672 4.14926 18.5009 4.44962C17.3002 4.86632 16.5302 5.70092 16.3435 6.9166C16.1788 7.98626 16.1849 9.08085 16.0946 10.1624C16.0641 10.5292 16.0177 10.9044 15.9018 11.251C15.6114 12.1236 14.8122 12.4822 13.9312 12.1592C13.6469 12.0548 13.3784 11.9123 13.1051 11.7817C12.6841 11.5799 12.2766 11.3496 11.8446 11.1739C11.1393 10.8878 10.5146 11.0599 10.1217 11.6072C9.72387 12.1616 9.76536 12.8466 10.2864 13.369C10.916 14.0006 11.2565 14.7236 11.3138 15.6116C11.3809 16.6444 11.9349 17.2582 12.9831 17.447C13.5993 17.5574 14.2435 17.5633 14.8732 17.5467C15.5943 17.5277 16.313 17.4173 17.0354 17.3722C17.8944 17.3176 18.6119 17.6405 19.2562 18.1795C19.9834 18.7885 20.4203 19.5744 20.7619 20.4185C21.1585 21.3968 21.7954 22.0509 22.9498 22.0723C23.0498 22.0735 23.1499 22.1043 23.2487 22.1245C24.0235 22.28 24.7764 22.4902 25.4402 22.9294C26.4005 23.5634 26.6055 24.4265 26.0113 25.3976C25.8563 25.6505 25.672 25.8939 25.4622 26.1052C24.8545 26.719 24.22 27.3078 23.6099 27.9204C22.8082 28.7241 22.1261 29.6098 21.71 30.6675C21.6637 30.7839 21.6283 30.905 21.577 31.0546C27.6232 29.4649 31.9513 24.0715 32.3198 18.3956ZM3.23967 12.2293C1.70586 17.1538 2.34037 21.6603 5.43605 25.7371C8.04974 29.1776 11.625 31.0629 15.9897 31.5698C16.1739 30.2449 15.8798 28.6636 14.3973 27.8765C13.9739 27.6521 13.5505 27.4289 13.1356 27.1926C12.7537 26.9742 12.3656 26.7605 12.0093 26.5064C11.3809 26.0612 11.1113 25.4534 11.1198 24.6829C11.132 23.6216 11.0649 22.5602 11.0515 21.4989C11.0454 21.0216 10.8147 20.7201 10.3962 20.5076C9.6653 20.136 8.93318 19.7679 8.21813 19.3702C6.04005 18.1569 4.47696 16.4391 3.72287 14.0801C3.54106 13.5067 3.41782 12.9167 3.23967 12.2293Z" fill="#486642"/>
</svg>
