<svg width="37" height="36" viewBox="0 0 37 36" fill="none" xmlns="http://www.w3.org/2000/svg">
<path d="M18.4845 36C8.30233 36.005 -0.00645618 27.9475 3.76433e-06 18.0773C0.00646371 8.06134 8.21576 0.0176271 18.4509 2.87635e-05C28.7015 -0.0175696 36.9935 8.04248 37 18.0283C37.0039 27.9601 28.7261 35.9962 18.4845 36ZM34.2209 19.4776C33.8734 19.7328 33.5039 19.9616 33.1848 20.2469C32.5943 20.7749 32.1408 20.8202 31.5116 20.3412C31.332 20.2055 31.1602 20.0534 31.0129 19.8862C30.0956 18.8454 29.3824 17.6788 28.8488 16.4143C28.3734 15.2867 28.3837 14.1428 28.8605 13.0128C29.0646 12.5301 29.3049 12.0612 29.5052 11.576C29.6344 11.263 29.7726 10.9412 29.8165 10.6118C29.9961 9.27311 29.7752 7.98089 29.2545 6.73517C29.2158 6.6409 29.1628 6.54034 29.0866 6.47497C27.0749 4.72268 24.7545 3.53981 22.1253 2.93896C22.0194 2.91507 21.8204 2.97918 21.7687 3.0634C21.2623 3.8943 20.5065 4.39333 19.5891 4.71136C18.3178 5.15258 17.5026 6.03627 17.3049 7.32346C17.1305 8.45604 17.137 9.61502 17.0413 10.7602C17.009 11.1486 16.9599 11.5458 16.8372 11.9129C16.5297 12.8368 15.6835 13.2164 14.7506 12.8745C14.4496 12.7639 14.1654 12.613 13.876 12.4748C13.4302 12.2611 12.9987 12.0172 12.5413 11.8312C11.7946 11.5282 11.1331 11.7105 10.7171 12.29C10.2959 12.877 10.3398 13.6023 10.8915 14.1554C11.5581 14.8241 11.9186 15.5897 11.9793 16.5299C12.0504 17.6235 12.637 18.2734 13.7468 18.4733C14.3992 18.5902 15.0814 18.5965 15.7481 18.5789C16.5116 18.5588 17.2726 18.4419 18.0375 18.3941C18.947 18.3363 19.7067 18.6782 20.3889 19.2489C21.1589 19.8937 21.6214 20.7259 21.9832 21.6196C22.4031 22.6554 23.0775 23.348 24.2997 23.3707C24.4057 23.3719 24.5116 23.4046 24.6163 23.426C25.4367 23.5906 26.2339 23.8131 26.9367 24.2782C27.9535 24.9495 28.1705 25.8633 27.5413 26.8916C27.3773 27.1593 27.1822 27.417 26.9599 27.6408C26.3165 28.2907 25.6447 28.9141 24.9987 29.5628C24.1499 30.4138 23.4276 31.3515 22.9871 32.4715C22.938 32.5947 22.9005 32.7229 22.8463 32.8813C29.2481 31.1982 33.8307 25.4875 34.2209 19.4776ZM3.43024 12.9487C1.8062 18.1628 2.47804 22.9345 5.75582 27.2511C8.52326 30.894 12.3088 32.8901 16.9302 33.4269C17.1253 32.024 16.814 30.3497 15.2442 29.5163C14.7959 29.2787 14.3475 29.0424 13.9083 28.7922C13.5039 28.5609 13.093 28.3347 12.7158 28.0656C12.0504 27.5943 11.7649 26.9507 11.7739 26.1349C11.7868 25.0111 11.7158 23.8873 11.7016 22.7635C11.6951 22.2582 11.4509 21.9389 11.0078 21.7139C10.2339 21.3204 9.45866 20.9308 8.70155 20.5097C6.39535 19.225 4.74031 17.4061 3.94186 14.9084C3.74936 14.3012 3.61887 13.6765 3.43024 12.9487Z" fill="#486642"/>
</svg>
