<svg width="40" height="40" viewBox="0 0 40 40" fill="none" xmlns="http://www.w3.org/2000/svg">
<g clip-path="url(#clip0_192_43142)">
<path d="M20 40.0001C14.6578 40.0001 9.63541 37.9197 5.85783 34.1423C2.0804 30.3647 0 25.3422 0 20C0 14.6578 2.0804 9.63541 5.85783 5.85783C9.63541 2.0804 14.6578 0 20 0C25.3422 0 30.3647 2.0804 34.1423 5.85783C37.9197 9.63541 40.0001 14.6578 40.0001 20C40.0001 25.3422 37.9197 30.3647 34.1423 34.1423C30.3647 37.9197 25.3422 40.0001 20 40.0001ZM20 1.17188C14.9708 1.17188 10.2427 3.13032 6.6865 6.6865C3.13032 10.2427 1.17188 14.9708 1.17188 20C1.17188 25.0293 3.13032 29.7574 6.6865 33.3136C10.2427 36.8698 14.9708 38.8282 20 38.8282C25.0293 38.8282 29.7574 36.8698 33.3136 33.3136C36.8698 29.7574 38.8282 25.0293 38.8282 20C38.8282 14.9708 36.8698 10.2427 33.3136 6.6865C29.7574 3.13032 25.0293 1.17188 20 1.17188Z" fill="#9DC08B"/>
<path d="M29.4441 11.7404C29.4441 11.7404 23.6504 14.889 23.6504 20.9449C23.6504 26.7589 29.4441 30.1493 29.4441 30.1493L25.8358 31.7071L19.9999 29.385L13.8198 31.7072L10.5557 30.1494C10.5557 30.1494 16.3494 26.759 16.3494 20.9449C16.3494 14.8891 10.5557 11.7405 10.5557 11.7405L14.3549 10.3301L20.0223 10.8002L25.787 10.3301L29.4441 11.7404Z" fill="#FFB38A"/>
<path d="M16.8751 29.3926L12.4434 31.0578L13.82 31.7148L18.3928 29.9965L16.8751 29.3926Z" fill="#FFB38A"/>
<path d="M23.6506 20.9489C23.6506 14.893 29.4444 11.7444 29.4444 11.7444L25.7874 10.334L23.2078 10.5444L26.3194 11.7444C26.3194 11.7444 20.5256 14.893 20.5256 20.9489C20.5256 26.7629 26.3194 30.1534 26.3194 30.1534L24.2099 31.0641L25.836 31.7112L29.4444 30.1535C29.4445 30.1534 23.6506 26.763 23.6506 20.9489Z" fill="#FFA370"/>
<path d="M19.9774 13.1088C19.6539 13.1088 19.3915 12.8465 19.3915 12.5229V10.8028C19.3915 10.7827 19.3925 10.7625 19.3946 10.7425C19.3964 10.7242 19.5789 8.78508 18.7562 6.9882C18.6215 6.69399 18.7508 6.34625 19.045 6.21148C19.3392 6.07687 19.687 6.20609 19.8217 6.50031C20.7292 8.48219 20.5893 10.5354 20.5635 10.8301V12.5229C20.5634 12.8466 20.301 13.1088 19.9774 13.1088Z" fill="#FFA678"/>
<path d="M19.9772 13.4285C21.7497 13.4285 22.7171 14.1805 22.7171 14.1805C24.8463 11.1304 29.4439 11.7448 29.4439 11.7448C29.4439 11.7448 28.2741 9.94826 25.3523 9.55044C21.9907 9.09271 20.0222 10.8046 20.0222 10.8046H19.9772C19.9772 10.8046 18.0086 9.09271 14.647 9.55044C11.7253 9.94826 10.5554 11.7448 10.5554 11.7448C10.5554 11.7448 15.153 11.1305 17.2822 14.1805C17.2822 14.1805 18.2496 13.4285 20.0221 13.4285H19.9772Z" fill="#9DC08B"/>
<path d="M20.0226 28.4708C18.2501 28.4708 17.2827 27.7188 17.2827 27.7188C15.1534 30.7688 10.5559 30.1545 10.5559 30.1545C10.5559 30.1545 11.7258 31.951 14.6475 32.3488C18.0091 32.8066 19.9776 31.0947 19.9776 31.0947H20.0226C20.0226 31.0947 21.9912 32.8066 25.3528 32.3488C28.2745 31.951 29.4444 30.1545 29.4444 30.1545C29.4444 30.1545 24.8468 30.7688 22.7176 27.7188C22.7176 27.7188 21.7502 28.4708 19.9777 28.4708H20.0226Z" fill="#9DC08B"/>
<path d="M19.0549 19.5285C18.7426 19.4436 18.4206 19.6277 18.3356 19.9398L17.832 21.7884C17.747 22.1007 17.9312 22.4227 18.2434 22.5078C18.2949 22.5219 18.3467 22.5286 18.3977 22.5286C18.6555 22.5286 18.8917 22.3572 18.9627 22.0965L19.4663 20.2479C19.5513 19.9356 19.3671 19.6135 19.0549 19.5285Z" fill="white"/>
<path d="M22.1155 21.7885L21.6119 19.9399C21.5268 19.6277 21.2046 19.4434 20.8925 19.5286C20.5803 19.6137 20.3961 19.9357 20.4812 20.248L20.9848 22.0966C21.0558 22.3573 21.2921 22.5287 21.5498 22.5287C21.6007 22.5287 21.6526 22.522 21.7042 22.5079C22.0164 22.4228 22.2006 22.1008 22.1155 21.7885Z" fill="white"/>
<path d="M34.7735 26.0482C34.7202 25.7291 34.4184 25.5137 34.0991 25.5666L33.4499 25.6749C34.3042 23.8598 34.7392 21.8616 34.7118 19.839C34.6834 17.7513 34.1853 15.7592 33.2313 13.9181C33.0825 13.6307 32.7288 13.5185 32.4416 13.6674C32.1542 13.8162 32.042 14.1699 32.1909 14.4572C33.0602 16.135 33.5142 17.9511 33.54 19.8549C33.5642 21.6302 33.1977 23.3844 32.4759 24.9887L32.312 24.4748C32.2138 24.1664 31.8841 23.9962 31.5759 24.0944C31.2675 24.1927 31.0973 24.5223 31.1956 24.8306L31.7704 26.6338C31.8488 26.88 32.0771 27.0419 32.3282 27.0419C32.3602 27.0419 32.3926 27.0392 32.425 27.0338L34.2919 26.7225C34.6111 26.6693 34.8267 26.3674 34.7735 26.0482Z" fill="#FFB38A"/>
<path d="M8.22865 14.0409C8.14013 13.7634 7.8613 13.5928 7.57404 13.6409L5.70716 13.9522C5.38802 14.0055 5.17239 14.3074 5.22559 14.6266C5.2788 14.9458 5.58067 15.1611 5.89997 15.1082L6.54919 14.9999C5.69481 16.8151 5.25981 18.8132 5.28724 20.8358C5.31567 22.9235 5.81372 24.9156 6.76771 26.7567C6.87193 26.9579 7.07654 27.0732 7.28849 27.0732C7.37927 27.0732 7.47138 27.052 7.55755 27.0074C7.8449 26.8586 7.95716 26.5049 7.80826 26.2177C6.93896 24.5398 6.48497 22.7237 6.45911 20.8199C6.43497 19.0446 6.80146 17.2904 7.52326 15.6861L7.68708 16.2001C7.76654 16.4492 7.99693 16.6082 8.24521 16.6082C8.30412 16.6082 8.36412 16.5992 8.42334 16.5804C8.7317 16.4821 8.90193 16.1525 8.80365 15.8442L8.22865 14.0409Z" fill="#FFB38A"/>
</g>
<defs>
<clipPath id="clip0_192_43142">
<rect width="40.0001" height="40.0001" fill="white"/>
</clipPath>
</defs>
</svg>
