<svg width="21" height="11" viewBox="0 0 21 11" fill="none" xmlns="http://www.w3.org/2000/svg">
<g clip-path="url(#clip0_4437_11859)">
<path d="M20.2606 6.88843C20.2087 6.70564 20.1688 6.57678 20.1471 6.50923C20.1358 6.47347 20.1294 6.45445 20.1294 6.45445C19.8686 5.66142 19.5038 4.9121 19.036 4.20733C17.9873 2.62723 16.5999 1.46351 14.8765 0.723552C13.7698 0.248414 12.6134 0.00715444 11.416 0.00459993C7.88211 -0.00334743 4.34817 0.00147775 0.814231 0.00119392C0.585349 0.00119392 0.356745 0.00346459 0.127863 0.00119392C0.0352 0.000342415 -0.00641495 0.0414984 0.000798303 0.13488C0.00912129 0.239047 0.0232704 0.343214 0.0263221 0.447381C0.043523 1.04656 0.132856 1.6358 0.274624 2.21567C0.622803 3.64052 1.24814 4.90017 2.14313 5.99861C3.23123 7.16319 4.84561 8.13305 6.38286 8.47422C7.91152 8.81368 9.48595 8.85172 11.0493 8.91501C11.0634 8.91558 11.0779 8.91615 11.092 8.91671C12.5463 8.97632 14.46 9.11625 16.3089 9.44266C18.0891 9.75686 19.8092 10.2439 21 10.9998C20.8446 9.13158 20.4631 7.60171 20.2606 6.88843Z" fill="#88AF80"/>
</g>
<defs>
<clipPath id="clip0_4437_11859">
<rect width="21" height="11" fill="white"/>
</clipPath>
</defs>
</svg>
