<svg width="26" height="26" viewBox="0 0 26 26" fill="none" xmlns="http://www.w3.org/2000/svg">
<g clip-path="url(#clip0_4541_18682)">
<mask id="path-1-inside-1_4541_18682" fill="white">
<path d="M19.5 2.16602C19.7653 2.16605 20.0214 2.26347 20.2197 2.43979C20.418 2.61611 20.5447 2.85908 20.5758 3.1226L20.5833 3.24935V7.58268C20.5833 7.84803 20.4859 8.10413 20.3096 8.30242C20.1332 8.50071 19.8903 8.62739 19.6268 8.65843L19.5 8.66602H16.25V9.74935H19.5C19.6542 9.74941 19.8066 9.78239 19.9471 9.8461C20.0875 9.9098 20.2128 10.0028 20.3144 10.1187C20.416 10.2347 20.4917 10.3711 20.5364 10.5187C20.5811 10.6663 20.5938 10.8217 20.5736 10.9746L20.5519 11.0959L19.4686 15.4293C19.4148 15.6432 19.297 15.8357 19.1309 15.9809C18.9648 16.1261 18.7583 16.2171 18.5391 16.2418L18.4167 16.2493H16.25V22.7493C16.25 23.0147 16.1525 23.2708 15.9762 23.4691C15.7999 23.6674 15.5569 23.7941 15.2934 23.8251L15.1667 23.8327H10.8333C10.568 23.8326 10.3119 23.7352 10.1136 23.5589C9.91531 23.3826 9.78863 23.1396 9.75758 22.8761L9.75 22.7493V16.2493H7.58333C7.31799 16.2493 7.06188 16.1519 6.8636 15.9756C6.66531 15.7993 6.53863 15.5563 6.50758 15.2928L6.5 15.166V10.8327C6.50004 10.5673 6.59745 10.3112 6.77377 10.1129C6.9501 9.91466 7.19306 9.78798 7.45658 9.75693L7.58333 9.74935H9.75V8.66602C9.74994 6.98427 10.4017 5.36796 11.5683 4.15667C12.735 2.94538 14.3257 2.23341 16.0063 2.17035L16.25 2.16602H19.5Z"/>
</mask>
<path d="M19.5 2.16602L19.5003 0.166016H19.5V2.16602ZM20.5758 3.1226L22.5722 3.00315L22.5687 2.94573L22.562 2.8886L20.5758 3.1226ZM20.5833 3.24935H22.5833V3.18957L22.5798 3.12991L20.5833 3.24935ZM20.5833 7.58268L22.5833 7.58295V7.58268H20.5833ZM19.6268 8.65843L19.7462 10.6549L19.8036 10.6514L19.8608 10.6447L19.6268 8.65843ZM19.5 8.66602V10.666H19.5598L19.6194 10.6624L19.5 8.66602ZM16.25 8.66602V6.66602H14.25V8.66602H16.25ZM16.25 9.74935H14.25V11.7493H16.25V9.74935ZM19.5 9.74935L19.5008 7.74935H19.5V9.74935ZM20.5736 10.9746L22.5424 11.3262L22.5504 11.2815L22.5563 11.2366L20.5736 10.9746ZM20.5519 11.0959L22.4922 11.581L22.5088 11.5147L22.5208 11.4475L20.5519 11.0959ZM19.4686 15.4293L21.4083 15.9167L21.4089 15.9143L19.4686 15.4293ZM18.5391 16.2418L18.6627 18.2379L18.7129 18.2348L18.7628 18.2292L18.5391 16.2418ZM18.4167 16.2493V18.2493H18.4786L18.5403 18.2455L18.4167 16.2493ZM16.25 16.2493V14.2493H14.25V16.2493H16.25ZM16.25 22.7493L18.25 22.7496V22.7493H16.25ZM15.2934 23.8251L15.4129 25.8215L15.4703 25.8181L15.5274 25.8114L15.2934 23.8251ZM15.1667 23.8327V25.8327H15.2264L15.2861 25.8291L15.1667 23.8327ZM10.8333 23.8327L10.8331 25.8327H10.8333V23.8327ZM9.75758 22.8761L7.76115 22.9955L7.76459 23.053L7.77132 23.1101L9.75758 22.8761ZM9.75 22.7493H7.75V22.8091L7.75357 22.8688L9.75 22.7493ZM9.75 16.2493H11.75V14.2493H9.75V16.2493ZM7.58333 16.2493L7.58307 18.2493H7.58333V16.2493ZM6.50758 15.2928L4.51115 15.4122L4.51459 15.4696L4.52132 15.5268L6.50758 15.2928ZM6.5 15.166H4.5V15.2258L4.50357 15.2855L6.5 15.166ZM6.5 10.8327L4.5 10.8324V10.8327H6.5ZM7.45658 9.75693L7.33714 7.7605L7.27972 7.76394L7.22258 7.77067L7.45658 9.75693ZM7.58333 9.74935V7.74935H7.52356L7.46389 7.75292L7.58333 9.74935ZM9.75 9.74935V11.7493H11.75V9.74935H9.75ZM9.75 8.66602H11.75V8.66594L9.75 8.66602ZM16.0063 2.17035L15.9707 0.170665L15.951 0.171016L15.9312 0.171756L16.0063 2.17035ZM16.25 2.16602V0.166016H16.2322L16.2145 0.166332L16.25 2.16602ZM19.4997 4.16602C19.2752 4.16599 19.0585 4.08355 18.8907 3.93436L21.5487 0.945221C20.9844 0.443382 20.2555 0.166115 19.5003 0.166016L19.4997 4.16602ZM18.8907 3.93436C18.7229 3.78517 18.6158 3.57958 18.5895 3.3566L22.562 2.8886C22.4737 2.13857 22.1131 1.44706 21.5487 0.945221L18.8907 3.93436ZM18.5793 3.24204L18.5869 3.36879L22.5798 3.12991L22.5722 3.00315L18.5793 3.24204ZM18.5833 3.24935V7.58268H22.5833V3.24935H18.5833ZM18.5833 7.58242C18.5834 7.35789 18.6658 7.14119 18.815 6.97341L21.8041 9.63143C22.306 9.06707 22.5832 8.33816 22.5833 7.58295L18.5833 7.58242ZM18.815 6.97341C18.9642 6.80563 19.1698 6.69844 19.3928 6.67217L19.8608 10.6447C20.6108 10.5563 21.3023 10.1958 21.8041 9.63143L18.815 6.97341ZM19.5073 6.662L19.3806 6.66959L19.6194 10.6624L19.7462 10.6549L19.5073 6.662ZM19.5 6.66602H16.25V10.666H19.5V6.66602ZM14.25 8.66602V9.74935H18.25V8.66602H14.25ZM16.25 11.7493H19.5V7.74935H16.25V11.7493ZM19.4992 11.7493C19.3687 11.7493 19.2398 11.7214 19.1209 11.6675L20.7732 8.0247C20.3735 7.84339 19.9397 7.74952 19.5008 7.74935L19.4992 11.7493ZM19.1209 11.6675C19.0021 11.6136 18.8961 11.5349 18.8101 11.4368L21.8186 8.8007C21.5294 8.47057 21.173 8.20601 20.7732 8.0247L19.1209 11.6675ZM18.8101 11.4368C18.7241 11.3386 18.6601 11.2233 18.6223 11.0984L22.4506 9.93898C22.3233 9.5189 22.1079 9.13082 21.8186 8.8007L18.8101 11.4368ZM18.6223 11.0984C18.5844 10.9735 18.5737 10.842 18.5908 10.7126L22.5563 11.2366C22.6138 10.8015 22.5778 10.3591 22.4506 9.93898L18.6223 11.0984ZM18.6047 10.623L18.5831 10.7444L22.5208 11.4475L22.5424 11.3262L18.6047 10.623ZM18.6116 10.6109L17.5283 14.9442L21.4089 15.9143L22.4922 11.581L18.6116 10.6109ZM17.5289 14.9418C17.5744 14.7608 17.6741 14.5979 17.8146 14.4751L20.4472 17.4867C20.9199 17.0734 21.2552 16.5257 21.4083 15.9167L17.5289 14.9418ZM17.8146 14.4751C17.9552 14.3522 18.1299 14.2752 18.3154 14.2543L18.7628 18.2292C19.3867 18.159 19.9744 17.8999 20.4472 17.4867L17.8146 14.4751ZM18.4154 14.2456L18.293 14.2532L18.5403 18.2455L18.6627 18.2379L18.4154 14.2456ZM18.4167 14.2493H16.25V18.2493H18.4167V14.2493ZM14.25 16.2493V22.7493H18.25V16.2493H14.25ZM14.25 22.7491C14.25 22.5246 14.3325 22.3079 14.4817 22.1401L17.4708 24.7981C17.9726 24.2337 18.2499 23.5048 18.25 22.7496L14.25 22.7491ZM14.4817 22.1401C14.6309 21.9723 14.8364 21.8651 15.0594 21.8388L15.5274 25.8114C16.2774 25.723 16.969 25.3624 17.4708 24.7981L14.4817 22.1401ZM15.174 21.8287L15.0472 21.8363L15.2861 25.8291L15.4129 25.8215L15.174 21.8287ZM15.1667 21.8327H10.8333V25.8327H15.1667V21.8327ZM10.8336 21.8327C11.0581 21.8327 11.2748 21.9151 11.4426 22.0643L8.78459 25.0535C9.34894 25.5553 10.0779 25.8326 10.8331 25.8327L10.8336 21.8327ZM11.4426 22.0643C11.6104 22.2135 11.7176 22.4191 11.7438 22.6421L7.77132 23.1101C7.85968 23.8601 8.22023 24.5516 8.78459 25.0535L11.4426 22.0643ZM11.754 22.7567L11.7464 22.6299L7.75357 22.8688L7.76115 22.9955L11.754 22.7567ZM11.75 22.7493V16.2493H7.75V22.7493H11.75ZM9.75 14.2493H7.58333V18.2493H9.75V14.2493ZM7.5836 14.2493C7.80812 14.2494 8.02482 14.3318 8.19261 14.481L5.53459 17.4701C6.09895 17.972 6.82786 18.2493 7.58307 18.2493L7.5836 14.2493ZM8.19261 14.481C8.36039 14.6302 8.46758 14.8358 8.49385 15.0588L4.52132 15.5268C4.60968 16.2768 4.97023 16.9683 5.53459 17.4701L8.19261 14.481ZM8.50401 15.1733L8.49643 15.0466L4.50357 15.2855L4.51115 15.4122L8.50401 15.1733ZM8.5 15.166V10.8327H4.5V15.166H8.5ZM8.5 10.8329C8.49997 11.0575 8.41754 11.2742 8.26834 11.442L5.27921 8.78394C4.77736 9.3483 4.5001 10.0772 4.5 10.8324L8.5 10.8329ZM8.26834 11.442C8.11915 11.6097 7.91356 11.7169 7.69058 11.7432L7.22258 7.77067C6.47256 7.85903 5.78105 8.21958 5.27921 8.78394L8.26834 11.442ZM7.57603 11.7534L7.70278 11.7458L7.46389 7.75292L7.33714 7.7605L7.57603 11.7534ZM7.58333 11.7493H9.75V7.74935H7.58333V11.7493ZM11.75 9.74935V8.66602H7.75V9.74935H11.75ZM11.75 8.66594C11.75 7.50166 12.2012 6.38267 13.0088 5.54409L10.1278 2.76925C8.60222 4.35324 7.74992 6.46688 7.75 8.66609L11.75 8.66594ZM13.0088 5.54409C13.8165 4.7055 14.9178 4.2126 16.0813 4.16894L15.9312 0.171756C13.7336 0.254226 11.6534 1.18526 10.1278 2.76925L13.0088 5.54409ZM16.0418 4.17003L16.2856 4.1657L16.2145 0.166332L15.9707 0.170665L16.0418 4.17003ZM16.25 4.16602H19.5V0.166016H16.25V4.16602Z" fill="#FFFCEB" mask="url(#path-1-inside-1_4541_18682)"/>
</g>
<defs>
<clipPath id="clip0_4541_18682">
<rect width="26" height="26" fill="white"/>
</clipPath>
</defs>
</svg>
