<svg width="85" height="85" viewBox="0 0 85 85" fill="none" xmlns="http://www.w3.org/2000/svg">
<g clip-path="url(#clip0_28_452)">
<path d="M0.0273438 84.7994C0.0273438 56.5544 0.0273438 28.3105 0.0273438 0.0654297C23.8004 0.0654297 47.5745 0.0654297 71.3475 0.0654297C71.3464 0.231018 71.3443 0.395537 71.3443 0.561125C71.3443 28.4718 71.3443 56.3824 71.3443 84.2931C71.3443 84.4533 71.3443 84.6146 71.3443 84.7984C47.5414 84.7994 23.7843 84.7994 0.0273438 84.7994ZM59.2271 55.0663C59.2474 55.0823 59.2677 55.0983 59.288 55.1143C59.3115 55.0737 59.3307 55.0278 59.3606 54.9915C63.698 49.5922 66.0157 43.4398 66.2272 36.5087C66.3116 33.7417 66.1332 30.9919 65.5052 28.287C64.0985 22.2296 61.1272 17.0676 56.5313 12.8798C51.4366 8.23693 45.4159 5.69435 38.5461 5.19865C35.6709 4.9914 32.8255 5.26168 30.0293 5.98279C27.5664 6.61737 25.2807 7.63867 23.3454 9.30844C20.515 11.7495 18.9257 14.8711 18.5263 18.5856C18.2614 21.046 18.5786 23.4315 19.5794 25.707C21.0554 29.0636 23.5665 31.416 26.7845 33.0655C28.7156 34.0548 30.7866 34.6573 32.8779 35.1808C35.799 35.9125 38.7416 36.5589 41.6542 37.3216C45.6178 38.359 49.3998 39.845 52.8443 42.113C56.7225 44.6663 58.7561 48.2857 59.1139 52.8816C59.1715 53.6091 59.1908 54.3377 59.2271 55.0663ZM13.3226 15.0186C10.5147 17.9564 8.40846 21.3312 7.01784 25.1376C4.70548 31.462 4.47798 37.8814 6.38341 44.3362C8.30272 50.8379 12.0452 56.1089 17.4582 60.1813C20.4402 62.4248 23.7352 64.0486 27.3357 65.0678C28.5116 62.5369 29.2892 59.9559 29.3949 57.2071C29.4868 54.8152 29.0179 52.5215 28.0865 50.3176C27.0334 47.8263 25.5627 45.5882 23.8089 43.5552C21.8063 41.2327 19.7204 38.9807 17.6344 36.7309C16.2887 35.279 15.0465 33.7578 14.1173 32.0025C11.5667 27.1855 11.3446 22.1484 12.7288 16.9671C12.9029 16.3101 13.124 15.667 13.3226 15.0186ZM52.1041 79.7346C53.5834 79.6822 55.037 79.7025 56.4736 79.5604C57.9497 79.4141 58.8629 78.4793 59.305 77.0862C59.634 76.0511 59.6554 74.9934 59.4086 73.9411C58.944 71.9626 57.6111 70.8815 55.5786 70.8356C54.5051 70.8121 53.4317 70.8238 52.3573 70.8206C52.2782 70.8206 52.1992 70.8345 52.1041 70.8441C52.1041 73.7852 52.1041 76.7081 52.1041 79.7346ZM36.2722 70.8238C36.2722 73.8097 36.2722 76.738 36.2722 79.6555C36.771 79.6555 37.2366 79.6555 37.7354 79.6555C37.7354 78.5338 37.7354 77.442 37.7354 76.3096C38.215 76.3096 38.6604 76.3235 39.1047 76.3042C39.3279 76.2946 39.439 76.3801 39.5383 76.5692C40.036 77.5189 40.5444 78.4633 41.0528 79.4066C41.1063 79.5049 41.1864 79.6619 41.2601 79.6651C41.7909 79.6876 42.3238 79.6769 42.9059 79.6769C42.2256 78.428 41.5815 77.2454 40.9311 76.0511C41.0294 76.0073 41.0817 75.9816 41.1362 75.9602C42.3142 75.4848 42.8622 74.5447 42.7286 73.2318C42.608 72.0524 41.7727 71.1123 40.6267 70.9221C40.1642 70.8452 39.6889 70.8334 39.2179 70.827C38.2406 70.8142 37.2634 70.8238 36.2722 70.8238ZM28.4176 79.6854C27.733 78.4302 27.0868 77.2465 26.4385 76.0585C26.4951 76.0297 26.5261 76.0115 26.5581 75.9987C27.8622 75.4539 28.3749 74.5736 28.2168 73.1474C28.0855 71.9616 27.2246 71.0204 25.9365 70.9103C24.5779 70.7939 23.2044 70.8516 21.8373 70.8356C21.8191 70.8356 21.8009 70.8612 21.7892 70.8698C21.7892 73.8044 21.7892 76.7348 21.7892 79.6587C22.2859 79.6587 22.7515 79.6587 23.2492 79.6587C23.2492 78.5391 23.2492 77.4463 23.2492 76.3107C23.5376 76.3107 23.8014 76.3491 24.0492 76.3032C24.7178 76.1782 25.0596 76.4752 25.3266 77.0713C25.6919 77.8864 26.1512 78.6609 26.5848 79.4451C26.6425 79.5487 26.7792 79.6705 26.8839 79.6758C27.3645 79.6993 27.8473 79.6854 28.4176 79.6854ZM60.7779 79.663C62.8489 79.663 64.8953 79.663 66.9577 79.663C66.9577 79.2218 66.9577 78.803 66.9577 78.3426C65.377 78.3426 63.8155 78.3426 62.2444 78.3426C62.2444 77.4559 62.2444 76.6119 62.2444 75.7295C63.6959 75.7295 65.1281 75.7295 66.57 75.7295C66.57 75.2872 66.57 74.8823 66.57 74.44C65.1111 74.44 63.6788 74.44 62.2518 74.44C62.2518 73.6516 62.2518 72.9027 62.2518 72.1207C63.8422 72.1207 65.4058 72.1207 66.9898 72.1207C66.9898 71.6795 66.9898 71.2736 66.9898 70.842C64.9124 70.842 62.8542 70.842 60.7779 70.842C60.7779 73.7884 60.7779 76.7209 60.7779 79.663ZM51.2646 79.6705C51.2497 79.5861 51.2475 79.5391 51.2337 79.4964C50.2713 76.6739 49.3101 73.8514 48.336 71.0332C48.3029 70.9392 48.1448 70.8345 48.0401 70.8281C47.6524 70.8035 47.2605 70.8398 46.8727 70.811C46.5694 70.7886 46.4477 70.9039 46.3537 71.187C45.4554 73.8941 44.5412 76.5959 43.6322 79.2998C43.5927 79.4184 43.5564 79.538 43.5094 79.6854C43.9922 79.6854 44.429 79.6758 44.8648 79.6897C45.0592 79.6961 45.1318 79.6139 45.1788 79.4408C45.2931 79.0199 45.4383 78.6075 45.5441 78.1845C45.5975 77.9697 45.6968 77.9078 45.9104 77.9099C46.9016 77.9206 47.8938 77.9217 48.885 77.9088C49.1189 77.9056 49.2097 77.9868 49.2673 78.208C49.3934 78.6973 49.5536 79.1769 49.7021 79.6705C50.2222 79.6705 50.7263 79.6705 51.2646 79.6705ZM17.3386 79.6854C17.3204 79.5829 17.3172 79.5241 17.299 79.4707C16.3399 76.66 15.3829 73.8493 14.4099 71.0439C14.3747 70.9435 14.2017 70.8366 14.0863 70.8292C13.7103 70.8014 13.3312 70.8366 12.9542 70.8131C12.6636 70.795 12.5227 70.8815 12.4255 71.1774C11.7227 73.3151 10.9985 75.4464 10.2808 77.5798C10.049 78.2689 9.81617 78.9568 9.57052 79.6865C10.0779 79.6865 10.5361 79.6983 10.9921 79.6758C11.0776 79.6716 11.1993 79.5444 11.2324 79.4493C11.3809 79.0145 11.4962 78.5691 11.6426 78.1332C11.6714 78.0467 11.7857 77.927 11.8615 77.9259C12.9809 77.912 14.1013 77.9163 15.2409 77.9163C15.3936 78.428 15.5496 78.9205 15.6852 79.4194C15.7407 79.6245 15.8379 79.7004 16.0537 79.6918C16.466 79.6737 16.8782 79.6854 17.3386 79.6854ZM5.77781 72.1111C7.22291 72.1111 8.6413 72.1111 10.0479 72.1111C10.0479 71.656 10.0479 71.249 10.0479 70.842C8.11474 70.842 6.20931 70.842 4.30068 70.842C4.30068 73.7969 4.30068 76.7284 4.30068 79.6651C4.79412 79.6651 5.26087 79.6651 5.765 79.6651C5.765 78.3885 5.765 77.1322 5.765 75.8374C7.03707 75.8374 8.27068 75.8374 9.51605 75.8374C9.51605 75.4047 9.51605 75.0116 9.51605 74.5832C8.25786 74.5832 7.02425 74.5832 5.77781 74.5832C5.77781 73.7595 5.77781 72.9722 5.77781 72.1111ZM32.7123 72.156C33.5657 72.156 34.3828 72.156 35.1924 72.156C35.1924 71.6827 35.1924 71.264 35.1924 70.8388C33.0466 70.8388 30.9265 70.8388 28.7882 70.8388C28.7882 71.2789 28.7882 71.6988 28.7882 72.1699C29.5936 72.1699 30.3882 72.1699 31.2138 72.1699C31.2138 74.6954 31.2138 77.1696 31.2138 79.6598C31.7244 79.6598 32.1996 79.6598 32.7123 79.6598C32.7123 77.16 32.7123 74.6847 32.7123 72.156ZM19.8923 79.6662C19.8923 76.7006 19.8923 73.7798 19.8923 70.8388C19.4053 70.8388 18.9407 70.8388 18.4568 70.8388C18.4568 73.7862 18.4568 76.7166 18.4568 79.6662C18.9396 79.6662 19.4042 79.6662 19.8923 79.6662Z" fill="#8E6854"/>
<path d="M80.9793 0.0654297C81.2292 0.130597 81.4813 0.186149 81.728 0.261999C83.7339 0.881618 85.0177 2.89859 84.7176 4.95188C84.4046 7.09384 82.5825 8.66105 80.4218 8.64716C78.3134 8.63327 76.5244 7.06926 76.22 4.97431C75.8889 2.69668 77.4259 0.553647 79.687 0.137006C79.7649 0.12205 79.8408 0.0900008 79.9177 0.066498C80.2712 0.0654297 80.6258 0.0654297 80.9793 0.0654297ZM76.7017 4.35469C76.6964 6.42294 78.3818 8.12155 80.4506 8.13223C82.5067 8.14291 84.2188 6.44537 84.2327 4.38247C84.2455 2.30354 82.5366 0.584628 80.4613 0.588901C78.3903 0.593174 76.706 2.28003 76.7017 4.35469Z" fill="#8E6854"/>
<path d="M48.4407 25.05C48.4492 29.5091 44.8359 33.1499 40.3885 33.1627C35.9155 33.1766 32.2434 29.5134 32.2509 25.0478C32.2595 20.6058 35.8738 17.012 40.3009 16.965C44.6416 16.9202 48.4556 20.4744 48.4407 25.05Z" fill="#8E6854"/>
<path d="M53.5984 78.3928C53.5984 76.2679 53.5984 74.2445 53.5984 72.1634C54.5244 72.203 55.4472 72.0417 56.3337 72.344C57.1166 72.6111 57.5844 73.2104 57.7969 73.9935C58.0394 74.8855 58.0372 75.7914 57.8023 76.6845C57.578 77.5328 57.0429 78.115 56.1564 78.2282C55.3222 78.3361 54.4742 78.3404 53.5984 78.3928Z" fill="#8E6854"/>
<path d="M37.7269 75.0351C37.7269 74.1367 37.7226 73.2083 37.7365 72.2789C37.7376 72.2137 37.8786 72.0973 37.9544 72.0962C38.6027 72.0941 39.2532 72.0791 39.8983 72.1336C40.6929 72.2009 41.1992 72.7692 41.2216 73.5341C41.2462 74.3514 40.8136 74.9315 39.9762 75.018C39.2478 75.0949 38.5034 75.0351 37.7269 75.0351Z" fill="#8E6854"/>
<path d="M23.261 75.1419C23.261 74.0843 23.261 73.1111 23.261 72.0449C24.0962 72.0962 24.9208 72.0866 25.7229 72.2137C26.3872 72.3184 26.7557 72.9551 26.7247 73.6837C26.6948 74.3867 26.2922 74.9133 25.583 75.0052C24.83 75.1035 24.062 75.0992 23.261 75.1419Z" fill="#8E6854"/>
<path d="M47.4527 72.1699C47.8906 73.642 48.3285 75.1131 48.775 76.6151C47.849 76.6151 46.9699 76.6151 46.029 76.6151C46.4797 75.1141 46.9229 73.6388 47.3651 72.1635C47.394 72.1656 47.4239 72.1677 47.4527 72.1699Z" fill="#8E6854"/>
<path d="M13.5138 72.1506C13.9539 73.6217 14.3928 75.0928 14.8446 76.6012C13.9293 76.6012 13.0439 76.6012 12.0986 76.6012C12.5472 75.1077 12.9915 73.6313 13.4359 72.1538C13.4615 72.1538 13.4882 72.1517 13.5138 72.1506Z" fill="#8E6854"/>
<path d="M78.5772 1.77366C79.5 1.77366 80.3951 1.74909 81.2891 1.78221C81.9481 1.80678 82.3902 2.19564 82.5526 2.78535C82.7267 3.41993 82.5344 3.89532 81.9011 4.36538C82.3678 4.5705 82.4479 4.97218 82.4714 5.41873C82.4938 5.84178 82.3593 6.29368 82.7192 6.69964C82.3101 6.69964 81.9534 6.69964 81.5208 6.69964C81.4931 6.36205 81.4525 6.0063 81.4365 5.64949C81.4023 4.89633 81.3094 4.79805 80.5585 4.7895C80.2413 4.78629 79.9241 4.78843 79.5737 4.78843C79.5737 5.43262 79.5737 6.05331 79.5737 6.69857C79.2288 6.69857 78.918 6.69857 78.5772 6.69857C78.5772 5.0726 78.5772 3.44022 78.5772 1.77366ZM79.578 2.6219C79.578 3.07807 79.578 3.49684 79.578 3.93912C80.0512 3.93912 80.5083 3.96476 80.9612 3.93165C81.3991 3.90067 81.5732 3.67739 81.5657 3.26288C81.5582 2.87188 81.3414 2.64327 80.9184 2.62617C80.4848 2.60801 80.049 2.6219 79.578 2.6219Z" fill="#8E6854"/>
</g>
<defs>
<clipPath id="clip0_28_452">
<rect width="84.734" height="84.734" fill="white" transform="translate(0.0273438 0.0654297)"/>
</clipPath>
</defs>
</svg>
