<svg width="28" height="28" viewBox="0 0 28 28" fill="none" xmlns="http://www.w3.org/2000/svg">
<path d="M1.75 8.75C1.75 7.82174 2.11875 6.9315 2.77513 6.27513C3.4315 5.61875 4.32174 5.25 5.25 5.25H22.75C23.6783 5.25 24.5685 5.61875 25.2249 6.27513C25.8813 6.9315 26.25 7.82174 26.25 8.75V19.25C26.25 20.1783 25.8813 21.0685 25.2249 21.7249C24.5685 22.3813 23.6783 22.75 22.75 22.75H5.25C4.32174 22.75 3.4315 22.3813 2.77513 21.7249C2.11875 21.0685 1.75 20.1783 1.75 19.25V8.75ZM22.75 21C23.2141 21 23.6592 20.8156 23.9874 20.4874C24.3156 20.1592 24.5 19.7141 24.5 19.25V14H11.7372L13.7445 16.0055C13.9088 16.1698 14.0011 16.3926 14.0011 16.625C14.0011 16.8574 13.9088 17.0802 13.7445 17.2445C13.5802 17.4088 13.3574 17.5011 13.125 17.5011C12.8926 17.5011 12.6698 17.4088 12.5055 17.2445L10.5 15.2372V21H22.75ZM13.8512 12.25H24.5V8.75C24.5 8.28587 24.3156 7.84075 23.9874 7.51256C23.6592 7.18437 23.2141 7 22.75 7H10.5V8.89875C10.9674 8.73303 11.4723 8.70312 11.956 8.81249C12.4397 8.92186 12.8826 9.16603 13.2333 9.51671C13.584 9.8674 13.8281 10.3103 13.9375 10.794C14.0469 11.2777 14.017 11.7826 13.8512 12.25ZM11.375 12.25C11.5481 12.25 11.7172 12.1987 11.8611 12.1025C12.005 12.0064 12.1172 11.8697 12.1834 11.7098C12.2496 11.55 12.2669 11.374 12.2332 11.2043C12.1994 11.0346 12.1161 10.8787 11.9937 10.7563C11.8713 10.6339 11.7154 10.5506 11.5457 10.5168C11.376 10.4831 11.2 10.5004 11.0402 10.5666C10.8803 10.6328 10.7436 10.745 10.6475 10.8889C10.5513 11.0328 10.5 11.2019 10.5 11.375V12.25H11.375ZM8.75 8.89875V7H5.25C4.78587 7 4.34075 7.18437 4.01256 7.51256C3.68437 7.84075 3.5 8.28587 3.5 8.75V12.25H5.39875C5.23303 11.7826 5.20312 11.2777 5.31249 10.794C5.42186 10.3103 5.66603 9.8674 6.01671 9.51671C6.3674 9.16603 6.81026 8.92186 7.294 8.81249C7.77774 8.70312 8.28256 8.73303 8.75 8.89875ZM7.875 12.25H8.75V11.375C8.75 11.2019 8.69868 11.0328 8.60254 10.8889C8.50639 10.745 8.36973 10.6328 8.20985 10.5666C8.04996 10.5004 7.87403 10.4831 7.7043 10.5168C7.53456 10.5506 7.37865 10.6339 7.25628 10.7563C7.13391 10.8787 7.05057 11.0346 7.01681 11.2043C6.98305 11.374 7.00038 11.55 7.06661 11.7098C7.13283 11.8697 7.24498 12.0064 7.38888 12.1025C7.53277 12.1987 7.70194 12.25 7.875 12.25ZM7.51275 14H3.5V19.25C3.5 19.7141 3.68437 20.1592 4.01256 20.4874C4.34075 20.8156 4.78587 21 5.25 21H8.75V15.2372L6.7445 17.2445C6.66315 17.3259 6.56657 17.3904 6.46027 17.4344C6.35398 17.4784 6.24005 17.5011 6.125 17.5011C6.00995 17.5011 5.89602 17.4784 5.78973 17.4344C5.68343 17.3904 5.58685 17.3259 5.5055 17.2445C5.42415 17.1631 5.35961 17.0666 5.31558 16.9603C5.27156 16.854 5.24889 16.7401 5.24889 16.625C5.24889 16.5099 5.27156 16.396 5.31558 16.2897C5.35961 16.1834 5.42415 16.0869 5.5055 16.0055L7.51275 14Z" fill="#6636F3"/>
</svg>
