<svg width="20" height="20" viewBox="0 0 20 20" fill="none" xmlns="http://www.w3.org/2000/svg">
<g clip-path="url(#clip0_3991_3258)">
<mask id="path-1-inside-1_3991_3258" fill="white">
<path d="M19.3545 15.0554L16.3666 12.0831L16.9563 11.657C17.5334 11.24 17.7731 10.5064 17.5527 9.83146L17.15 8.59891C17.1074 8.46863 17.1074 8.33089 17.15 8.20066L17.5527 6.96806C17.7731 6.29319 17.5334 5.55951 16.9563 5.14254L15.9021 4.38069C15.7907 4.30018 15.7093 4.18878 15.6668 4.0585L15.2641 2.8259C15.0437 2.15109 14.4163 1.69763 13.7029 1.69763H12.3998C12.2622 1.69763 12.1305 1.65508 12.0191 1.57457L10.9649 0.812771C10.3878 0.395743 9.61226 0.395743 9.03507 0.812771L7.98088 1.57462C7.86948 1.65513 7.7378 1.69768 7.60012 1.69768H6.29708C5.5837 1.69768 4.95628 2.15109 4.73581 2.82595L4.33314 4.0586C4.2906 4.18878 4.20921 4.30018 4.09781 4.38074L3.04367 5.14254C2.46653 5.55961 2.22689 6.29324 2.4473 6.96806L2.84998 8.20066C2.89251 8.33089 2.89251 8.46863 2.84998 8.59886L2.4473 9.83151C2.22689 10.5064 2.46653 11.2401 3.04367 11.657L3.63332 12.0831L0.645494 15.0554C0.526937 15.1733 0.476205 15.3428 0.51054 15.506C0.544875 15.6693 0.659705 15.8043 0.815877 15.8651L3.21559 16.799L4.15451 19.1858C4.21557 19.3412 4.35132 19.4553 4.51549 19.4895C4.54933 19.4966 4.58342 19.5 4.61726 19.5C4.74764 19.5 4.87445 19.4489 4.96861 19.3552L8.64159 15.7024L9.03507 15.9867C9.32367 16.1953 9.6618 16.2995 9.99998 16.2995C10.3381 16.2995 10.6763 16.1953 10.9649 15.9867L11.3584 15.7023L15.0315 19.3552C15.1256 19.4489 15.2524 19.5 15.3827 19.5C15.4166 19.5 15.4507 19.4966 15.4845 19.4895C15.6487 19.4554 15.7844 19.3412 15.8455 19.1858L16.7844 16.799L19.1841 15.8651C19.3403 15.8043 19.4551 15.6693 19.4895 15.506C19.5238 15.3428 19.473 15.1733 19.3545 15.0554ZM4.80314 18.122L4.06184 16.2375C4.01135 16.1091 3.90924 16.0076 3.78015 15.9573L1.88547 15.22L4.34402 12.7742L4.73586 13.9736C4.95633 14.6485 5.5837 15.1019 6.29713 15.1019H7.60017C7.67112 15.1019 7.74044 15.1134 7.80622 15.1353L4.80314 18.122ZM9.61916 15.1871L8.56502 14.4252C8.28269 14.2213 7.94908 14.1134 7.60017 14.1134H6.29713C6.0156 14.1134 5.768 13.9345 5.68104 13.6682L5.27836 12.4356C5.17536 12.1202 4.98167 11.8493 4.71842 11.6477C4.70938 11.64 4.70004 11.6329 4.6906 11.6259C4.68767 11.6238 4.68498 11.6213 4.682 11.6192L3.62786 10.8574C3.40013 10.6928 3.30553 10.4033 3.39253 10.137L3.79521 8.90439C3.90303 8.57429 3.90303 8.22537 3.79521 7.89528L3.39253 6.66273C3.30553 6.39639 3.40013 6.10687 3.62786 5.94224L4.682 5.18044C4.96438 4.97638 5.17059 4.69408 5.27836 4.36408L5.68104 3.13148C5.768 2.86514 6.01565 2.68623 6.29713 2.68623H7.60017C7.94913 2.68623 8.28279 2.57839 8.56507 2.37438L9.61916 1.61263C9.84694 1.44805 10.1531 1.448 10.3808 1.61263L11.4349 2.37448C11.7173 2.57849 12.0509 2.68633 12.3998 2.68633H13.7029C13.9844 2.68633 14.232 2.86529 14.319 3.13158L14.7216 4.36413C14.8294 4.69422 15.0356 4.97653 15.318 5.18054L16.3722 5.94239C16.5999 6.10697 16.6945 6.39649 16.6075 6.66283L16.2048 7.89547C16.097 8.22552 16.097 8.57444 16.2048 8.90454L16.6075 10.1371C16.6945 10.4035 16.5999 10.6929 16.3721 10.8576L15.3181 11.6193C15.3144 11.622 15.311 11.625 15.3074 11.6277C15.299 11.6339 15.2907 11.6403 15.2826 11.6471C15.0188 11.8487 14.8248 12.1199 14.7216 12.4357L14.319 13.6683C14.232 13.9347 13.9844 14.1136 13.7029 14.1136H12.3998C12.051 14.1136 11.7173 14.2214 11.4349 14.4254L10.3808 15.1872C10.1529 15.3517 9.84689 15.3516 9.61916 15.1871ZM16.2199 15.9573C16.0908 16.0076 15.9887 16.1091 15.9382 16.2375L15.1969 18.122L12.1937 15.1354C12.2595 15.1134 12.3288 15.1019 12.3998 15.1019H13.7029C14.4162 15.1019 15.0436 14.6485 15.2641 13.9737L15.6559 12.7742L18.1146 15.22L16.2199 15.9573Z"/>
</mask>
<path d="M19.3545 15.0554L16.3666 12.0831L16.9563 11.657C17.5334 11.24 17.7731 10.5064 17.5527 9.83146L17.15 8.59891C17.1074 8.46863 17.1074 8.33089 17.15 8.20066L17.5527 6.96806C17.7731 6.29319 17.5334 5.55951 16.9563 5.14254L15.9021 4.38069C15.7907 4.30018 15.7093 4.18878 15.6668 4.0585L15.2641 2.8259C15.0437 2.15109 14.4163 1.69763 13.7029 1.69763H12.3998C12.2622 1.69763 12.1305 1.65508 12.0191 1.57457L10.9649 0.812771C10.3878 0.395743 9.61226 0.395743 9.03507 0.812771L7.98088 1.57462C7.86948 1.65513 7.7378 1.69768 7.60012 1.69768H6.29708C5.5837 1.69768 4.95628 2.15109 4.73581 2.82595L4.33314 4.0586C4.2906 4.18878 4.20921 4.30018 4.09781 4.38074L3.04367 5.14254C2.46653 5.55961 2.22689 6.29324 2.4473 6.96806L2.84998 8.20066C2.89251 8.33089 2.89251 8.46863 2.84998 8.59886L2.4473 9.83151C2.22689 10.5064 2.46653 11.2401 3.04367 11.657L3.63332 12.0831L0.645494 15.0554C0.526937 15.1733 0.476205 15.3428 0.51054 15.506C0.544875 15.6693 0.659705 15.8043 0.815877 15.8651L3.21559 16.799L4.15451 19.1858C4.21557 19.3412 4.35132 19.4553 4.51549 19.4895C4.54933 19.4966 4.58342 19.5 4.61726 19.5C4.74764 19.5 4.87445 19.4489 4.96861 19.3552L8.64159 15.7024L9.03507 15.9867C9.32367 16.1953 9.6618 16.2995 9.99998 16.2995C10.3381 16.2995 10.6763 16.1953 10.9649 15.9867L11.3584 15.7023L15.0315 19.3552C15.1256 19.4489 15.2524 19.5 15.3827 19.5C15.4166 19.5 15.4507 19.4966 15.4845 19.4895C15.6487 19.4554 15.7844 19.3412 15.8455 19.1858L16.7844 16.799L19.1841 15.8651C19.3403 15.8043 19.4551 15.6693 19.4895 15.506C19.5238 15.3428 19.473 15.1733 19.3545 15.0554ZM4.80314 18.122L4.06184 16.2375C4.01135 16.1091 3.90924 16.0076 3.78015 15.9573L1.88547 15.22L4.34402 12.7742L4.73586 13.9736C4.95633 14.6485 5.5837 15.1019 6.29713 15.1019H7.60017C7.67112 15.1019 7.74044 15.1134 7.80622 15.1353L4.80314 18.122ZM9.61916 15.1871L8.56502 14.4252C8.28269 14.2213 7.94908 14.1134 7.60017 14.1134H6.29713C6.0156 14.1134 5.768 13.9345 5.68104 13.6682L5.27836 12.4356C5.17536 12.1202 4.98167 11.8493 4.71842 11.6477C4.70938 11.64 4.70004 11.6329 4.6906 11.6259C4.68767 11.6238 4.68498 11.6213 4.682 11.6192L3.62786 10.8574C3.40013 10.6928 3.30553 10.4033 3.39253 10.137L3.79521 8.90439C3.90303 8.57429 3.90303 8.22537 3.79521 7.89528L3.39253 6.66273C3.30553 6.39639 3.40013 6.10687 3.62786 5.94224L4.682 5.18044C4.96438 4.97638 5.17059 4.69408 5.27836 4.36408L5.68104 3.13148C5.768 2.86514 6.01565 2.68623 6.29713 2.68623H7.60017C7.94913 2.68623 8.28279 2.57839 8.56507 2.37438L9.61916 1.61263C9.84694 1.44805 10.1531 1.448 10.3808 1.61263L11.4349 2.37448C11.7173 2.57849 12.0509 2.68633 12.3998 2.68633H13.7029C13.9844 2.68633 14.232 2.86529 14.319 3.13158L14.7216 4.36413C14.8294 4.69422 15.0356 4.97653 15.318 5.18054L16.3722 5.94239C16.5999 6.10697 16.6945 6.39649 16.6075 6.66283L16.2048 7.89547C16.097 8.22552 16.097 8.57444 16.2048 8.90454L16.6075 10.1371C16.6945 10.4035 16.5999 10.6929 16.3721 10.8576L15.3181 11.6193C15.3144 11.622 15.311 11.625 15.3074 11.6277C15.299 11.6339 15.2907 11.6403 15.2826 11.6471C15.0188 11.8487 14.8248 12.1199 14.7216 12.4357L14.319 13.6683C14.232 13.9347 13.9844 14.1136 13.7029 14.1136H12.3998C12.051 14.1136 11.7173 14.2214 11.4349 14.4254L10.3808 15.1872C10.1529 15.3517 9.84689 15.3516 9.61916 15.1871ZM16.2199 15.9573C16.0908 16.0076 15.9887 16.1091 15.9382 16.2375L15.1969 18.122L12.1937 15.1354C12.2595 15.1134 12.3288 15.1019 12.3998 15.1019H13.7029C14.4162 15.1019 15.0436 14.6485 15.2641 13.9737L15.6559 12.7742L18.1146 15.22L16.2199 15.9573Z" stroke="#609966" mask="url(#path-1-inside-1_3991_3258)"/>
<mask id="path-2-inside-2_3991_3258" fill="white">
<path d="M11.6105 11.6382C11.6915 11.6382 11.7721 11.613 11.8402 11.5636C11.9605 11.4763 12.0207 11.3282 11.9956 11.1816L11.6853 9.37234L12.9998 8.09102C13.1063 7.98723 13.1446 7.83199 13.0986 7.69059C13.0527 7.54918 12.9304 7.44613 12.7833 7.42473L10.9667 7.16074L10.1543 5.51461C10.0885 5.38129 9.9527 5.29688 9.80398 5.29688C9.65527 5.29688 9.51949 5.38129 9.45371 5.51461L8.64133 7.16074L6.82473 7.42473C6.67758 7.44609 6.55535 7.54918 6.50937 7.69059C6.4634 7.83199 6.50176 7.98723 6.60824 8.09102L7.92273 9.37234L7.61242 11.1816C7.58727 11.3282 7.6475 11.4763 7.76781 11.5636C7.88809 11.6511 8.04758 11.6625 8.17918 11.5934L9.80398 10.7392L11.4288 11.5934C11.486 11.6234 11.5484 11.6382 11.6105 11.6382ZM9.98574 9.95211C9.92883 9.92219 9.86641 9.90727 9.80398 9.90727C9.74156 9.90727 9.6791 9.92223 9.62223 9.95211L8.51621 10.5336L8.72746 9.30199C8.74922 9.17527 8.70719 9.04598 8.61512 8.95621L7.72035 8.08402L8.95691 7.9043C9.08414 7.88582 9.19414 7.8059 9.25102 7.69062L9.80398 6.57016L10.357 7.69066C10.4139 7.80594 10.5238 7.88586 10.6511 7.90434L11.8877 8.08406L10.9929 8.95625C10.9008 9.04598 10.8588 9.17527 10.8805 9.30203L11.0918 10.5336L9.98574 9.95211Z"/>
</mask>
<path d="M11.8402 11.5636L12.4278 12.3728L12.428 12.3727L11.8402 11.5636ZM11.9956 11.1816L12.9813 11.0127L12.9812 11.0126L11.9956 11.1816ZM11.6853 9.37234L10.9873 8.65626L10.6108 9.02323L10.6997 9.54139L11.6853 9.37234ZM12.9998 8.09102L12.3018 7.3749L12.3018 7.37493L12.9998 8.09102ZM13.0986 7.69059L14.0497 7.38162L14.0496 7.38138L13.0986 7.69059ZM12.7833 7.42473L12.9273 6.43515L12.9271 6.43512L12.7833 7.42473ZM10.9667 7.16074L10.0699 7.60329L10.3026 8.07474L10.8229 8.15035L10.9667 7.16074ZM10.1543 5.51461L11.051 5.07206L11.051 5.07192L10.1543 5.51461ZM9.45371 5.51461L10.3505 5.95716L10.3505 5.95709L9.45371 5.51461ZM8.64133 7.16074L8.78513 8.15035L9.30541 8.07474L9.53807 7.60329L8.64133 7.16074ZM6.82473 7.42473L6.96843 8.41435L6.96853 8.41433L6.82473 7.42473ZM6.60824 8.09102L7.30626 7.37493L7.30623 7.3749L6.60824 8.09102ZM7.92273 9.37234L8.90834 9.54139L8.99721 9.02323L8.62075 8.65626L7.92273 9.37234ZM7.61242 11.1816L8.59801 11.3508L8.59803 11.3506L7.61242 11.1816ZM7.76781 11.5636L8.35576 10.7547L8.35547 10.7545L7.76781 11.5636ZM8.17918 11.5934L8.64428 12.4787L8.64452 12.4785L8.17918 11.5934ZM9.80398 10.7392L10.2693 9.85404L9.80397 9.60941L9.33864 9.85405L9.80398 10.7392ZM11.4288 11.5934L10.9635 12.4785L10.9636 12.4785L11.4288 11.5934ZM9.98574 9.95211L10.4511 9.067L10.4511 9.06698L9.98574 9.95211ZM9.62223 9.95211L9.15711 9.06686L9.15687 9.06698L9.62223 9.95211ZM8.51621 10.5336L7.5306 10.3645L7.18805 12.3617L8.98156 11.4187L8.51621 10.5336ZM8.72746 9.30199L7.74188 9.13277L7.74185 9.13294L8.72746 9.30199ZM8.61512 8.95621L9.31321 8.2402L9.31313 8.24013L8.61512 8.95621ZM7.72035 8.08402L7.57652 7.09442L5.57146 7.38584L7.02234 8.80011L7.72035 8.08402ZM8.95691 7.9043L8.8132 6.91468L8.81308 6.91469L8.95691 7.9043ZM9.25102 7.69062L8.35427 7.24807L8.35423 7.24816L9.25102 7.69062ZM9.80398 6.57016L10.7007 6.12761L9.804 4.31052L8.90724 6.1276L9.80398 6.57016ZM10.357 7.69066L9.46021 8.13321L9.46029 8.13338L10.357 7.69066ZM10.6511 7.90434L10.7949 6.91473L10.7948 6.91472L10.6511 7.90434ZM11.8877 8.08406L12.5857 8.80016L14.0366 7.38588L12.0315 7.09446L11.8877 8.08406ZM10.9929 8.95625L10.2949 8.24015L10.2948 8.24024L10.9929 8.95625ZM10.8805 9.30203L9.89487 9.47091L9.8949 9.47109L10.8805 9.30203ZM11.0918 10.5336L10.6264 11.4187L12.4199 12.3618L12.0774 10.3646L11.0918 10.5336ZM11.6105 12.6382C11.8986 12.6382 12.1857 12.5486 12.4278 12.3728L11.2526 10.7545C11.3586 10.6775 11.4844 10.6382 11.6105 10.6382V12.6382ZM12.428 12.3727C12.8561 12.0616 13.0707 11.5345 12.9813 11.0127L11.01 11.3505C10.9708 11.1219 11.0648 10.8909 11.2524 10.7546L12.428 12.3727ZM12.9812 11.0126L12.6709 9.2033L10.6997 9.54139L11.01 11.3506L12.9812 11.0126ZM12.3833 10.0884L13.6978 8.8071L12.3018 7.37493L10.9873 8.65626L12.3833 10.0884ZM13.6978 8.80713C14.077 8.43751 14.2132 7.88483 14.0497 7.38162L12.1476 7.99955C12.076 7.77915 12.1356 7.53694 12.3018 7.3749L13.6978 8.80713ZM14.0496 7.38138C13.886 6.87817 13.451 6.51135 12.9273 6.43515L12.6393 8.41431C12.4099 8.38091 12.2193 8.22019 12.1476 7.99979L14.0496 7.38138ZM12.9271 6.43512L11.1105 6.17114L10.8229 8.15035L12.6395 8.41433L12.9271 6.43512ZM11.8634 6.71819L11.051 5.07206L9.25755 5.95716L10.0699 7.60329L11.8634 6.71819ZM11.051 5.07192C10.8167 4.59739 10.3334 4.29688 9.80398 4.29688V6.29688C9.57204 6.29688 9.36026 6.16519 9.25762 5.9573L11.051 5.07192ZM9.80398 4.29688C9.27466 4.29688 8.79118 4.59737 8.55693 5.07213L10.3505 5.95709C10.2478 6.16521 10.0359 6.29688 9.80398 6.29688V4.29688ZM8.55697 5.07206L7.74458 6.71819L9.53807 7.60329L10.3505 5.95716L8.55697 5.07206ZM8.49752 6.17114L6.68092 6.43512L6.96853 8.41433L8.78513 8.15035L8.49752 6.17114ZM6.68102 6.43511C6.15693 6.51121 5.72195 6.8783 5.55838 7.38138L7.46037 7.99979C7.38875 8.22006 7.19822 8.38098 6.96843 8.41435L6.68102 6.43511ZM5.55838 7.38138C5.39459 7.88513 5.53134 8.4378 5.91026 8.80713L7.30623 7.3749C7.47218 7.53665 7.53221 7.77885 7.46037 7.99979L5.55838 7.38138ZM5.91023 8.8071L7.22472 10.0884L8.62075 8.65626L7.30626 7.37493L5.91023 8.8071ZM6.93713 9.2033L6.62681 11.0126L8.59803 11.3506L8.90834 9.54139L6.93713 9.2033ZM6.62683 11.0124C6.53727 11.5342 6.75176 12.0616 7.18016 12.3727L8.35547 10.7545C8.54324 10.8909 8.63726 11.1221 8.59801 11.3508L6.62683 11.0124ZM7.17986 12.3725C7.60834 12.684 8.17609 12.7246 8.64428 12.4787L7.71408 10.7081C7.91907 10.6004 8.16783 10.6181 8.35576 10.7547L7.17986 12.3725ZM8.64452 12.4785L10.2693 11.6243L9.33864 9.85405L7.71383 10.7083L8.64452 12.4785ZM9.33866 11.6243L10.9635 12.4785L11.8941 10.7082L10.2693 9.85404L9.33866 11.6243ZM10.9636 12.4785C11.1666 12.5853 11.389 12.6382 11.6105 12.6382V10.6382C11.7077 10.6382 11.8053 10.6615 11.8941 10.7082L10.9636 12.4785ZM10.4511 9.06698C10.2483 8.96035 10.0258 8.90727 9.80398 8.90727V10.9073C9.70699 10.9073 9.60938 10.884 9.5204 10.8372L10.4511 9.06698ZM9.80398 8.90727C9.5819 8.90727 9.35953 8.96051 9.15711 9.06686L10.0873 10.8374C9.99867 10.8839 9.90122 10.9073 9.80398 10.9073V8.90727ZM9.15687 9.06698L8.05086 9.64847L8.98156 11.4187L10.0876 10.8372L9.15687 9.06698ZM9.50182 10.7026L9.71307 9.47105L7.74185 9.13294L7.5306 10.3645L9.50182 10.7026ZM9.71304 9.47122C9.79054 9.01984 9.64078 8.55957 9.31321 8.2402L7.91703 9.67222C7.7736 9.53238 7.7079 9.33071 7.74188 9.13277L9.71304 9.47122ZM9.31313 8.24013L8.41837 7.36794L7.02234 8.80011L7.9171 9.67229L9.31313 8.24013ZM7.86418 9.07363L9.10075 8.8939L8.81308 6.91469L7.57652 7.09442L7.86418 9.07363ZM9.10063 8.89392C9.55361 8.82813 9.94525 8.54361 10.1478 8.13309L8.35423 7.24816C8.44303 7.06819 8.61467 6.94351 8.8132 6.91468L9.10063 8.89392ZM10.1478 8.13318L10.7007 7.01271L8.90724 6.1276L8.35427 7.24807L10.1478 8.13318ZM8.90724 7.0127L9.46021 8.13321L11.2537 7.24812L10.7007 6.12761L8.90724 7.0127ZM9.46029 8.13338C9.66279 8.54352 10.0542 8.82815 10.5073 8.89395L10.7948 6.91472C10.9935 6.94357 11.1649 7.06835 11.2536 7.24795L9.46029 8.13338ZM10.5072 8.89394L11.7438 9.07367L12.0315 7.09446L10.7949 6.91473L10.5072 8.89394ZM11.1897 7.36796L10.2949 8.24015L11.6908 9.67235L12.5857 8.80016L11.1897 7.36796ZM10.2948 8.24024C9.96713 8.55966 9.81759 9.01985 9.89487 9.47091L11.8661 9.13315C11.9 9.33069 11.8345 9.53229 11.6909 9.67227L10.2948 8.24024ZM9.8949 9.47109L10.1062 10.7027L12.0774 10.3646L11.8661 9.13297L9.8949 9.47109ZM11.5571 9.64852L10.4511 9.067L9.52037 10.8372L10.6264 11.4187L11.5571 9.64852Z" fill="#609966" mask="url(#path-2-inside-2_3991_3258)"/>
</g>
<defs>
<clipPath id="clip0_3991_3258">
<rect width="20" height="20" fill="white"/>
</clipPath>
</defs>
</svg>
