<svg width="40" height="40" viewBox="0 0 40 40" fill="none" xmlns="http://www.w3.org/2000/svg">
<path d="M5.07074 31.7532C8.55 36.1665 13.944 39 20 39C30.4934 39 39 30.4934 39 20C39 9.50657 30.4934 1 20 1C9.50657 1 1 9.50657 1 20C1 23.3477 1.86697 26.4925 3.38689 29.2241" stroke="#63A8CF" stroke-width="1.5" stroke-miterlimit="10" stroke-linecap="round" stroke-linejoin="round"/>
<path d="M7.69531 22.2743C7.69531 22.2743 8.87071 20.5105 11.5413 19.6007C14.0727 18.7385 17.3603 19.318 18.176 22.011C18.9235 24.4783 16.8737 26.9979 14.2789 26.6867C10.773 26.2665 10.7624 22.6964 7.69531 22.2743Z" stroke="#63A8CF" stroke-width="1.5" stroke-miterlimit="10" stroke-linecap="round" stroke-linejoin="round"/>
<path d="M13.6016 22.3008C16.3548 22.7477 19.3096 25.4751 20.0909 28.3145" stroke="#63A8CF" stroke-width="1.5" stroke-miterlimit="10" stroke-linecap="round" stroke-linejoin="round"/>
<path d="M28.7148 13.1367C29.3231 12.0019 30.2322 11.0779 31.2741 10.3331" stroke="black" stroke-width="0.74173" stroke-miterlimit="10" stroke-linecap="round" stroke-linejoin="round"/>
<path d="M31.2764 10.3313C28.7548 9.37732 25.8626 9.02561 23.2371 9.75044C21.2553 10.2976 19.5051 11.5899 18.5054 13.4003C17.7207 14.8215 17.3733 16.6463 18.0888 18.1667C18.9283 19.951 20.9455 21.0372 22.8898 20.8649C25.0328 20.6749 26.5864 19.0538 27.3161 17.1217C27.3978 16.9055 27.4714 16.6866 27.5406 16.4662" stroke="#63A8CF" stroke-width="1.5" stroke-miterlimit="10" stroke-linecap="round" stroke-linejoin="round"/>
<path d="M23.0464 14.5355C23.0464 14.5355 20.2031 15.9366 20.2031 21.2783V32.1543" stroke="#63A8CF" stroke-width="1.5" stroke-miterlimit="10" stroke-linecap="round" stroke-linejoin="round"/>
</svg>
