<svg width="20" height="20" viewBox="0 0 20 20" fill="none" xmlns="http://www.w3.org/2000/svg">
<path d="M2.92825 15.5673C4.57631 17.6578 7.13137 19 10 19C14.9705 19 19 14.9706 19 10C19 5.02943 14.9705 1 10 1C5.02943 1 1 5.02943 1 10C1 11.5858 1.41067 13.0754 2.13063 14.3693" stroke="#A4907C" stroke-width="0.74173" stroke-miterlimit="10" stroke-linecap="round" stroke-linejoin="round"/>
<path d="M4.16992 11.0772C4.16992 11.0772 4.72669 10.2417 5.99172 9.81076C7.19077 9.40233 8.74808 9.67686 9.13448 10.9525C9.48854 12.1212 8.51756 13.3147 7.28845 13.1673C5.62778 12.9682 5.62274 11.2772 4.16992 11.0772Z" stroke="#A4907C" stroke-width="0.74173" stroke-miterlimit="10" stroke-linecap="round" stroke-linejoin="round"/>
<path d="M6.9707 11.0897C8.27485 11.3014 9.67451 12.5933 10.0446 13.9383" stroke="#A4907C" stroke-width="0.74173" stroke-miterlimit="10" stroke-linecap="round" stroke-linejoin="round"/>
<path d="M14.1289 6.74872C14.4171 6.21118 14.8476 5.7735 15.3412 5.4207" stroke="#A4907C" stroke-width="0.74173" stroke-miterlimit="10" stroke-linecap="round" stroke-linejoin="round"/>
<path d="M15.3425 5.41976C14.148 4.96788 12.778 4.80128 11.5343 5.14462C10.5956 5.40379 9.76654 6.01593 9.293 6.87349C8.9213 7.54669 8.75673 8.41106 9.09565 9.13127C9.49332 9.97644 10.4488 10.491 11.3698 10.4094C12.3849 10.3194 13.1208 9.55147 13.4665 8.63626C13.5052 8.53387 13.5401 8.43014 13.5728 8.32577" stroke="#A4907C" stroke-width="0.74173" stroke-miterlimit="10" stroke-linecap="round" stroke-linejoin="round"/>
<path d="M11.4445 7.41257C11.4445 7.41257 10.0977 8.07621 10.0977 10.6065V15.7583" stroke="#A4907C" stroke-width="0.74173" stroke-miterlimit="10" stroke-linecap="round" stroke-linejoin="round"/>
</svg>
