<svg width="83" height="168" viewBox="0 0 83 168" fill="none" xmlns="http://www.w3.org/2000/svg">
<path d="M14.6875 131.315C14.6875 131.315 12.7112 132.835 14.8171 132.545C16.923 132.255 17.0417 132.015 18.9964 134.445C20.9403 136.875 26.3183 143.415 26.4587 152.845C26.5991 162.275 25.4328 164.875 26.1347 167.475C26.1347 167.475 25.908 166.315 24.4285 163.865C22.949 161.415 22.0418 161.975 18.2297 154.875C14.4283 147.775 8.89908 138.665 14.6983 131.305L14.6875 131.315Z" fill="#4D7640"/>
<path d="M13.5428 134.565C12.7221 136.055 13.5428 138.245 13.7912 139.825C14.0936 141.735 13.6724 143.655 14.4284 145.505C15.2815 147.595 16.4586 149.625 17.517 151.635C18.5105 153.515 19.6012 155.355 20.3896 157.315C20.5084 157.615 21.0267 158.885 21.1887 159.835C20.4328 158.775 19.4932 157.265 18.2189 154.905C14.612 148.175 9.4499 139.625 13.8884 132.475C13.964 132.575 14.18 132.625 14.5796 132.595C15.1195 134.005 15.4651 135.535 15.9403 136.915C16.6638 139.045 17.247 141.065 18.1865 143.135C18.6617 144.185 19.1368 145.365 19.4176 146.465C19.666 147.475 20.2924 148.405 20.2708 149.455C17.8193 145.875 16.5774 141.925 15.6811 137.855C15.5947 137.475 14.3744 133.085 13.5428 134.595V134.565Z" fill="#79986F"/>
<path d="M25.1411 160.033C25.1735 159.303 25.3139 158.013 24.7523 157.373C24.1908 156.733 23.4024 157.593 22.9597 156.363C22.1821 154.203 23.2513 152.923 23.586 150.943C23.9424 148.843 23.4457 146.693 22.4737 144.753C21.653 143.123 21.1994 141.443 20.2383 139.853C19.0935 137.953 18.4024 135.923 17.7544 133.863C18.0568 133.953 18.3484 133.993 18.6292 134.033C18.7372 134.163 18.8451 134.303 18.9747 134.453C20.9186 136.883 26.2966 143.423 26.437 152.853C26.5774 162.163 25.4327 164.813 26.0915 167.383C26.0159 167.113 25.7459 166.253 24.9143 164.743C24.8927 163.163 25.0655 161.633 25.1411 160.033Z" fill="#5B814E"/>
<path d="M23.1757 162.225C23.0137 162.055 22.8517 161.875 22.6789 161.685C22.4954 161.125 22.3118 160.605 22.247 160.275C22.0094 159.055 21.923 157.785 21.545 156.585C21.2102 155.515 20.8107 154.445 20.4975 153.365C20.3679 152.905 19.396 151.445 19.7091 151.035C21.4154 152.215 21.6638 155.525 22.409 157.275C23.1001 158.895 23.2513 160.545 23.1757 162.215V162.225Z" fill="#4F7842"/>
<path d="M26.3291 123.313C26.3291 123.313 23.91 123.733 25.044 122.113C26.1779 120.503 27.8949 119.183 26.7718 114.363C25.6595 109.543 18.9748 100.983 13.154 98.0335C7.33314 95.0835 5.60527 93.0835 6.11283 93.7435C6.6312 94.4135 8.78023 96.9935 10.1409 98.6935C11.5017 100.393 15.8646 111.303 18.7588 114.833C21.6638 118.363 23.9208 121.623 24.1368 122.563C24.3528 123.503 24.072 123.593 26.3075 123.293L26.3291 123.313Z" fill="#7D9B73"/>
<path d="M13.1647 98.0447C18.9855 101.005 25.6703 109.565 26.7826 114.375C27.8949 119.195 26.1886 120.505 25.0547 122.125C24.9683 122.245 24.9143 122.345 24.8711 122.435C24.3744 121.705 25.0547 119.755 25.1519 119.265C25.4867 117.575 25.1519 115.645 24.7739 113.995C24.3528 112.195 22.5601 110.815 21.6529 109.205C20.5514 107.245 19.5147 105.585 17.7868 104.005C16.9553 103.245 14.8386 100.685 13.4455 101.585C12.1604 102.415 11.264 99.7647 10.7889 99.0947C10.3245 98.4447 9.76292 97.9047 9.12576 97.4447C7.89464 95.9347 6.52313 94.2747 6.12356 93.7547C5.616 93.0847 7.3439 95.0847 13.1647 98.0447Z" fill="#688B5C"/>
<path d="M13.1863 104.633C13.6831 104.563 14.2878 104.823 14.6334 105.193C15.2382 105.833 15.4974 106.703 15.9077 107.443C17.0848 109.543 18.8668 111.383 20.1195 113.473C21.1886 115.253 25.1195 119.473 24.9467 122.283C24.7308 122.633 24.7091 122.873 24.7847 123.033C24.7307 123.183 24.6551 123.323 24.558 123.452C24.234 123.372 24.2664 123.113 24.1476 122.593C23.9316 121.653 21.6638 118.393 18.7696 114.863C17.1065 112.843 14.9682 108.393 13.1863 104.643V104.633Z" fill="#7AA46F"/>
<path d="M36.9341 37.583C34.893 35.733 34.6663 30.433 34.6663 30.433C34.6663 30.433 34.8498 28.303 34.0723 29.463C33.2947 30.623 34.7311 35.003 34.7311 35.003L36.9341 37.573V37.583Z" fill="#8DAB83"/>
<path d="M42.8521 57.7654C42.8521 57.7654 36.0593 31.2254 29.3422 30.5854C29.3422 30.5854 28.9966 30.5454 29.2666 30.2054C29.5366 29.8754 29.1694 29.7754 28.9426 29.4454C28.7266 29.1154 27.5603 28.0954 27.5927 27.7454C27.6359 27.3954 28.0571 26.9154 28.0463 26.8254C28.0463 26.7354 28.5538 27.0054 28.2514 27.6854C27.9491 28.3654 28.5646 28.0854 29.0398 28.7754C29.5041 29.4654 29.407 29.3654 30.0009 29.8654C30.5949 30.3654 34.1263 32.0054 35.271 35.1054C35.271 35.1054 35.4654 36.0254 36.4049 36.3654C37.3444 36.7154 43.9104 57.4354 43.9104 57.4354L42.8521 57.7554V57.7654Z" fill="#96B68C"/>
<path d="M35.433 22.043C36.3833 26.523 36.8909 31.443 34.7958 30.843C34.7958 30.843 32.1932 30.043 30.7785 26.673C30.8865 26.693 31.0053 26.733 31.1565 26.793C32.8736 27.513 33.6619 28.673 33.8887 27.123C34.1155 25.573 34.2559 25.603 34.4394 24.333C34.5582 23.503 34.9578 22.233 35.433 22.053V22.043Z" fill="#739368"/>
<path d="M34.7959 30.8449C34.7959 30.8449 36.1026 31.5149 37.4957 29.7249C38.8888 27.9349 40.9082 25.5149 40.3683 20.2449C39.8283 14.9749 36.5885 8.75493 36.0702 9.04493C35.5518 9.33493 36.2429 9.50493 36.0702 11.8649C35.9082 14.2249 34.8606 20.5649 35.1306 23.5749C35.4006 26.5849 34.2667 30.3449 34.7742 30.8549L34.7959 30.8449Z" fill="#4A733C"/>
<path d="M34.7958 30.845C34.7958 30.845 31.502 29.835 30.3033 25.295C29.1046 20.755 28.3163 14.905 29.5258 11.105C30.7353 7.315 31.556 5.875 31.556 5.875C31.556 5.875 30.9405 6.825 31.7072 8.735C32.474 10.645 32.6684 13.175 33.6403 15.495C34.6122 17.815 38.2516 31.845 34.7958 30.845Z" fill="#537B46"/>
<path d="M40.3683 20.2455C40.9082 25.5155 38.8888 27.9355 37.4957 29.7255C36.1026 31.5155 34.7959 30.8455 34.7959 30.8455C34.2775 30.3355 35.4222 26.5655 35.1522 23.5655C35.1198 23.2655 35.109 22.9255 35.109 22.5555C36.2321 22.7155 37.582 23.0955 38.0464 21.8855C38.5432 20.5955 39.148 19.8955 39.3099 18.4155C39.3747 17.8555 39.5475 17.3555 39.7959 17.1055C40.0659 18.1555 40.2711 19.2155 40.3791 20.2455H40.3683Z" fill="#688B5C"/>
<path d="M31.7073 8.73531C32.474 10.6453 32.6684 13.1753 33.6404 15.4953C33.7159 15.6853 33.8131 15.9453 33.9211 16.2753C33.662 16.7553 33.23 16.5553 32.7872 15.7853C31.9881 14.3853 31.4157 12.0253 31.2213 13.0053C31.0593 13.8553 30.2386 14.4453 28.9211 15.2453C28.9535 13.7253 29.137 12.3153 29.515 11.1053C30.5733 7.79532 31.3293 6.27531 31.5021 5.94531C31.3833 6.19531 31.0485 7.12531 31.6965 8.73531H31.7073Z" fill="#577E4A"/>
<path d="M27.9384 28.074C27.9384 28.074 28.2192 29.394 26.1673 29.814C24.1155 30.234 19.4934 30.454 17.042 26.554C14.6013 22.644 15.5733 19.114 16.3616 17.924C17.15 16.734 15.7568 18.584 16.0808 20.544C16.4048 22.504 18.2191 25.474 20.9945 26.594C23.7807 27.714 26.1674 28.584 27.0313 28.084C27.8952 27.594 28.1112 27.264 27.9276 28.084L27.9384 28.074Z" fill="#8AAE80"/>
<path d="M27.0313 28.074C27.8952 27.584 28.1112 27.254 27.9276 28.074C27.9276 28.074 28.2084 29.394 26.1566 29.814C25.1198 30.024 23.4135 30.184 21.6748 29.784C22.474 29.914 24.0939 28.724 23.9103 28.244C23.8455 28.064 23.4783 27.724 22.9492 27.334C24.8498 28.034 26.3725 28.434 27.0205 28.064L27.0313 28.074Z" fill="#8EB185"/>
<path d="M26.1673 29.815C25.8541 29.875 25.4869 29.935 25.0766 29.975C25.4977 29.565 26.2861 28.975 26.2105 28.555C26.1889 28.425 26.1349 28.315 26.0593 28.205C26.4805 28.245 26.8152 28.205 27.042 28.075C27.906 27.585 28.122 27.255 27.9384 28.075C27.9384 28.075 28.2191 29.395 26.1673 29.815Z" fill="#86A27D"/>
<path d="M29.3423 30.5851C29.3423 30.5851 28.8131 30.6351 29.4395 31.4851C30.0658 32.3351 30.487 33.2051 29.3207 35.4251C28.1544 37.6451 24.1802 39.7251 19.7741 40.3451C15.368 40.9651 8.94244 41.3551 4.37434 39.8051C-0.19375 38.2551 4.89272 39.7351 7.68973 39.0051C10.4867 38.2751 16.4371 35.2551 19.8713 33.9351C23.2947 32.6251 27.9924 31.1851 28.3488 31.0351C28.7051 30.8851 29.0075 30.4251 29.0075 30.4251C29.0075 30.4251 29.4395 29.9851 29.3423 30.5851Z" fill="#80A775"/>
<path d="M19.6985 39.4949C17.3874 40.4249 13.3809 40.4749 14.7632 40.3049C16.1347 40.1349 20.4436 38.9549 21.2751 38.6049C22.0959 38.2549 17.7222 39.5849 17.7222 39.5849C17.7222 39.5849 23.0678 36.8449 24.029 36.4549C25.0009 36.0649 28.3379 33.5749 28.7806 32.8749C29.2234 32.1749 25.0765 34.7349 24.0074 35.1049C22.9382 35.4749 21.5019 36.0649 22.9706 35.3849C24.4285 34.7149 28.1975 32.4849 28.4027 32.3249C28.6079 32.1749 25.1089 33.5749 23.5106 34.3049C21.9123 35.0249 21.016 35.0149 21.2859 34.7849C21.5559 34.5549 27.3443 32.2849 27.8195 31.8649C28.0571 31.6549 27.5171 31.5749 26.988 31.5049C27.7439 31.2649 28.2515 31.0949 28.3595 31.0449C28.7158 30.8949 29.0182 30.4349 29.0182 30.4349C29.0182 30.4349 29.4502 29.9949 29.353 30.5949C29.353 30.5949 28.8238 30.6449 29.4502 31.4949C30.0766 32.3449 30.4977 33.2149 29.3314 35.4349C28.5323 36.9549 26.4048 38.4149 23.7374 39.3749C23.6294 39.1249 23.6402 38.8849 23.7374 38.8449C24.0613 38.6949 25.3357 37.7549 26.4048 36.7449C27.4631 35.7349 27.0743 35.0849 25.6272 36.5349C24.1801 37.9849 22.0203 38.5649 19.7093 39.4949H19.6985Z" fill="#6C8E60"/>
<path d="M29.1263 31.9946C29.0075 31.5646 27.7656 31.9346 28.1219 31.7646C28.3703 31.6546 27.744 31.5246 27.528 31.3246C27.9708 31.1846 28.2732 31.0846 28.3488 31.0546C28.7051 30.9046 29.0075 30.4446 29.0075 30.4446C29.0075 30.4446 29.4395 30.0046 29.3423 30.6046C29.3423 30.6046 28.8131 30.6546 29.4395 31.5046C30.0658 32.3546 30.487 33.2246 29.3207 35.4446C28.7483 36.5346 27.4956 37.5846 25.8541 38.4546C25.9405 38.0746 26.2321 37.5746 26.6101 37.2346C27.582 36.3446 28.4027 34.5346 28.7159 33.9346C29.0399 33.3346 29.2343 32.4346 29.1155 32.0146L29.1263 31.9946Z" fill="#66895A"/>
<path d="M19.8712 33.9444C20.4868 33.7044 21.1456 33.4644 21.8043 33.2344C21.34 34.2144 20.476 35.4644 20.0764 35.9744C19.3745 36.8844 17.1174 38.3344 11.9014 39.0444C10.2383 39.2744 8.84519 39.2044 7.70047 39.0044C10.4975 38.2744 16.4479 35.2544 19.8712 33.9444Z" fill="#B2C8B2"/>
<path d="M4.3743 39.8042C3.19718 39.4042 2.65722 39.2042 2.56003 39.1142C2.73282 39.1042 2.90562 39.0842 3.07841 39.0742C3.71556 39.1242 4.82787 39.2342 5.9294 39.2142C6.11299 39.2542 6.28577 39.3142 6.46936 39.3742C7.99206 39.9442 9.48236 40.7942 10.4867 40.8342C8.31604 40.7242 6.19938 40.4142 4.3743 39.7942V39.8042Z" fill="#88A37F"/>
<path d="M28.4998 27.234C28.4998 27.234 28.4782 26.694 30.1845 26.284C31.8908 25.874 33.3379 21.794 32.15 17.534C30.9729 13.264 28.5538 7.684 22.2686 2.924C22.2686 2.924 20.2708 1.234 19.7416 0.274C19.2125 -0.686 19.5148 1.104 20.2708 2.144C21.0267 3.174 21.8475 4.224 22.6358 6.654C23.4242 9.074 23.4782 11.514 24.1909 15.494C24.8929 19.474 25.2924 22.664 28.057 26.574C28.057 26.574 28.0571 27.754 28.5106 27.244L28.4998 27.234Z" fill="#597F4C"/>
<path d="M20.2599 2.14312C19.504 1.11312 19.2016 -0.67688 19.7308 0.27312C20.2599 1.23312 22.2578 2.92312 22.2578 2.92312C26.0915 5.83312 28.489 9.04312 30.0441 12.0831C29.2665 12.5231 25.7352 9.20312 24.666 9.18312C23.3161 9.15312 24.666 12.4631 24.6876 15.4531C24.6876 16.5231 24.7632 17.8631 24.8496 19.1531C24.5904 17.9831 24.3961 16.7831 24.1693 15.4931C23.4673 11.5131 23.4025 9.08312 22.6142 6.65312C21.8258 4.23312 21.0051 3.18312 20.2491 2.14312H20.2599Z" fill="#517944"/>
<path d="M30.0333 12.0538C31.0268 13.9938 31.6856 15.8638 32.1499 17.5338C33.327 21.8038 31.8907 25.8838 30.1844 26.2838C28.4782 26.6938 28.4998 27.2338 28.4998 27.2338C28.0354 27.7338 28.0462 26.5638 28.0462 26.5638C27.4954 25.7838 27.0419 25.0438 26.6639 24.3138C26.6423 23.6838 26.7179 23.0638 26.9663 22.5738C27.5926 21.3538 29.5365 22.2738 29.5689 20.5738C29.6013 18.8638 28.3162 15.6638 28.165 14.3538C28.0354 13.2538 28.2946 10.0138 30.0333 12.0638V12.0538Z" fill="#75956A"/>
<path d="M28.8777 25.4938C28.6293 24.3838 30.26 24.7538 30.53 24.0738C30.8 23.3938 30.908 22.3138 31.3939 22.4238C31.5991 22.4638 31.9663 22.8838 32.2471 23.4038C31.8151 24.9838 31.0375 26.0938 30.1844 26.3038C28.4781 26.7138 28.4997 27.2538 28.4997 27.2538C28.0354 27.7538 28.0462 26.5838 28.0462 26.5838C28.0246 26.5538 28.003 26.5238 27.9922 26.4938C28.4457 26.3538 29.0289 26.1638 28.8885 25.5038L28.8777 25.4938Z" fill="#96B68C"/>
<path d="M19.7416 0.27312C20.2708 1.23312 22.2687 2.92312 22.2687 2.92312C24.3529 4.50312 26.016 6.18312 27.3443 7.86312L28.8778 10.4731C28.8778 10.4731 26.9015 8.30312 25.7784 7.27312C24.6553 6.24312 24.3313 6.38312 22.9922 4.96312C22.0311 3.94312 22.0743 4.48312 22.0743 5.13312C21.4695 3.72312 20.8539 2.92312 20.2708 2.14312C19.5148 1.11312 19.2125 -0.67688 19.7416 0.27312Z" fill="#415C2F"/>
<path d="M30.1845 26.2936C28.4782 26.7036 28.4998 27.2436 28.4998 27.2436C28.2838 27.4836 28.1758 27.3436 28.111 27.1336C28.3054 26.9036 28.5646 26.6636 28.651 26.4936C28.8238 26.1336 29.5257 26.0236 29.9469 25.7636C30.2385 25.5836 30.9512 25.4436 31.3076 25.4536C30.9728 25.9036 30.5841 26.1936 30.1953 26.2936H30.1845Z" fill="#C8D9C3"/>
<path d="M38.8455 25.4028C39.5691 23.5228 40.0766 22.1628 40.4546 21.6328C40.541 25.9528 38.7591 28.0928 37.4956 29.7228C36.1025 31.5128 34.7958 30.8428 34.7958 30.8428C34.3314 30.3828 35.1954 27.3428 35.1846 24.5628C35.3034 24.7628 35.4545 25.1128 35.6597 25.6728C36.6425 28.3228 35.7569 29.6528 36.9016 28.7128C38.0464 27.7628 38.0464 27.5028 38.8347 25.4128L38.8455 25.4028Z" fill="#6F9C62"/>
<path d="M40.3033 54.8241C39.9254 54.7641 41.2213 55.0341 41.1673 50.9141C41.1133 46.8041 44.5583 38.0441 45.325 34.4541C46.0918 30.8641 47.2797 28.7641 46.1242 26.6741C44.9687 24.5841 46.8153 26.0841 48.1112 27.8941C49.4179 29.7041 52.2474 34.1241 52.3229 39.0741C52.3877 44.0241 49.9687 48.9941 46.2862 51.8541C44.4611 53.2741 43.4028 53.8541 42.1068 54.1241C40.8109 54.3941 41.0593 54.9541 40.3033 54.8241Z" fill="#6A8C5E"/>
<path d="M48.1328 34.6749C48.1328 34.7249 48.1113 34.8149 48.1005 34.9149C48.0573 33.8849 48.2516 34.0649 48.1328 34.6749Z" fill="#597F4C"/>
<path d="M40.3033 54.8258C40.0442 54.7858 40.6058 54.9058 40.9405 53.5258C42.1717 52.5358 42.9384 51.8358 43.4028 50.7858C44.0183 49.3858 45.6274 46.5258 46.1242 45.4458C46.6209 44.3758 46.4374 45.1658 46.3402 46.1758C46.243 47.1858 47.2689 46.6458 47.4525 45.2758C47.6253 43.9858 47.9276 36.5658 48.1004 34.9258C48.122 35.4158 48.1976 36.1958 48.3812 37.3358C48.9536 40.8558 47.8953 45.5158 48.4244 44.8958C48.9536 44.2758 49.6339 42.3058 49.8715 40.9158C50.1091 39.5258 50.7354 34.7158 50.5303 37.4358C50.3251 40.1558 49.6015 44.9458 50.0119 44.6458C50.4223 44.3458 51.1351 41.2958 51.945 41.8758C51.9882 41.9058 52.0314 41.9658 52.0746 42.0458C51.3726 45.9458 49.2344 49.5758 46.2862 51.8558C44.4611 53.2758 43.4028 53.8558 42.1068 54.1258C40.8109 54.3958 41.0593 54.9558 40.3033 54.8258Z" fill="#597F4C"/>
<path d="M46.1134 26.6839C44.9579 24.5939 46.8045 26.0939 48.1004 27.9039C49.202 29.4339 51.405 32.8339 52.0962 36.8439C51.6318 36.3339 51.1999 35.7939 51.1999 35.7939C50.7139 35.1739 50.6491 33.9539 50.5951 35.6239C50.5303 37.2939 49.4936 36.3939 49.4396 35.4039C49.3856 34.4139 48.986 32.0139 48.986 32.0139C48.986 32.0139 48.716 35.9739 47.9385 37.4039C47.1501 38.8339 48.1437 34.6839 47.9061 33.0839C47.6685 31.4839 47.0853 32.0639 46.5994 33.5439C46.1242 35.0139 46.2106 39.8239 43.6188 45.3339C42.1932 48.3739 42.3984 45.7139 42.9492 42.4639C43.8995 39.3239 44.9471 36.2639 45.3251 34.4739C46.0918 30.8839 47.2797 28.7839 46.1242 26.6939L46.1134 26.6839Z" fill="#96B68C"/>
<path d="M46.6425 61.2841C46.6425 61.2841 47.6145 60.9441 45.5626 57.6241C43.5107 54.3041 41.6533 51.0241 35.2061 48.4241C28.7589 45.8141 26.2211 45.5141 23.2945 45.2241C20.3679 44.9341 16.8689 42.6941 17.4737 43.7641C18.0784 44.8341 24.6228 49.0741 27.1498 51.3141C29.666 53.5441 43.7375 64.6741 46.6533 61.2841H46.6425Z" fill="#5B814E"/>
<path d="M17.4629 43.7641C16.8582 42.6941 20.3571 44.9341 23.2837 45.2241C26.2103 45.5141 28.7482 45.8141 35.1953 48.4241C40.8326 50.7041 42.96 53.4941 44.7743 56.3841C43.878 55.6641 43.1004 54.8141 42.3121 54.0041C41.2861 52.9541 40.1846 51.8541 38.9211 51.0341C37.3876 50.0441 35.6057 50.0541 33.813 49.6741C32.0204 49.2941 30.0441 48.0141 28.1758 48.0841C26.8475 48.1341 26.2535 49.3841 25.314 49.8441C22.3226 47.5741 17.9597 44.6341 17.4629 43.7741V43.7641Z" fill="#517944"/>
<path d="M37.096 58.624C37.8196 58.564 39.0507 58.664 38.9103 57.904C38.7375 56.964 37.8952 56.274 37.7224 55.314C37.5388 54.284 38.3919 53.694 39.4934 54.034C40.6058 54.384 41.5453 55.384 42.2905 56.154C42.9816 56.864 43.5648 57.824 44.6231 58.144C45.5842 58.434 46.0486 59.184 46.6858 59.834C47.1285 61.114 46.6426 61.284 46.6426 61.284C45.2279 62.934 41.1782 61.144 37.096 58.624Z" fill="#86A27D"/>
<path d="M27.0094 51.1945C26.9446 51.0145 26.923 50.8245 26.9662 50.6545C27.193 49.6045 29.0289 50.0345 29.7309 50.1945C32.3011 50.7845 34.7633 51.4245 34.6553 54.1645C34.6229 55.1545 34.7201 56.1745 34.9037 57.1945C31.3939 54.8245 28.2189 52.2545 27.1498 51.3045C27.1066 51.2645 27.0634 51.2245 27.0202 51.1945H27.0094Z" fill="#648858"/>
<path d="M40.4546 55.1439C42.4201 56.6939 44.3207 58.4939 46.0918 60.2239C46.3186 60.4539 46.5886 60.7439 46.8262 61.0539C46.7938 61.1439 46.7506 61.2039 46.7074 61.2339C45.7355 60.6339 44.4071 60.2839 43.6836 59.4639C42.8196 58.4739 41.8909 57.5939 40.9514 56.6539C39.9902 55.6739 38.8887 54.5639 37.7116 53.7739C37.1824 53.4139 34.8498 52.0139 35.001 51.2539C36.9881 52.0639 38.7915 53.8439 40.4438 55.1339L40.4546 55.1439Z" fill="#81A876"/>
<path d="M44.9904 61.9147C44.688 61.9147 44.3748 61.8847 44.0292 61.8147C43.7592 61.5047 43.4677 61.1947 43.1329 60.9347C42.2473 60.2447 41.0162 59.6847 40.3466 58.8047C42.1177 59.5547 43.3165 61.0047 44.9904 61.9047V61.9147Z" fill="#81A876"/>
<path d="M46.3618 65.554C46.3618 65.554 46.3402 64.734 49.6664 61.754C52.9818 58.774 59.5153 53.984 71.5349 52.194C83.5437 50.404 82.9066 49.134 81.7078 51.894C80.5091 54.654 64.807 71.864 50.5951 67.544C50.5951 67.544 49.9796 67.244 49.2668 66.384C48.5541 65.524 46.621 66.454 46.3726 65.554H46.3618Z" fill="#5E8352"/>
<path d="M51.1135 65.7953C53.0358 65.2453 54.9688 64.8453 56.7723 63.9753C58.5542 63.1153 59.6341 61.4453 61.3944 60.6553C63.1763 59.8553 65.1634 59.8253 66.8913 58.8853C68.6839 57.8953 70.347 57.2353 72.4313 56.9953C74.4183 56.7753 76.4054 56.8053 77.8957 55.3853C78.3817 54.9253 78.7165 53.9853 79.3644 53.7053C79.7748 53.5353 80.1528 53.5653 80.4443 53.7153C76.265 58.9153 62.8631 71.2753 50.5735 67.5353C50.5735 67.5353 50.0984 67.3053 49.5044 66.6753C49.8716 66.2953 50.3791 65.9953 51.1027 65.7853L51.1135 65.7953Z" fill="#648858"/>
<path d="M46.3834 65.603C46.9774 64.883 47.7658 64.253 48.3597 63.743C49.8716 62.423 50.9839 61.013 52.6794 59.853C56.3188 57.353 61.4592 56.863 65.7789 55.903C70.0771 54.943 73.846 52.663 78.3169 52.543C76.0706 54.373 72.5285 54.363 70.0014 55.873C67.4528 57.403 64.6018 57.863 61.8156 58.913C59.1914 59.903 55.2172 60.973 53.4354 63.133C52.8846 63.803 52.755 64.663 52.2151 65.343C51.8263 65.823 51.2863 66.173 50.9083 66.673C50.6707 67.003 50.5627 67.283 50.5627 67.533C50.4439 67.473 49.8932 67.153 49.256 66.383C48.5649 65.543 46.6966 66.413 46.3834 65.603Z" fill="#809E77"/>
<path d="M57.6579 65.2839C59.0726 64.9839 60.3901 64.4039 61.7184 63.8839C64.6342 62.7639 67.3557 61.5339 70.1203 60.0939C72.8525 58.6639 75.1311 56.9039 77.4422 54.9639C78.6733 53.9339 79.5049 53.0239 80.4228 51.7439C80.628 51.4539 80.9628 50.8639 81.3731 50.3739C82.7986 50.1139 82.3235 50.4439 81.6971 51.8939C81.1031 53.2639 76.9562 58.1639 71.1894 62.2539C71.1462 62.2339 71.0922 62.2139 71.0598 62.1839C71.4702 61.1739 72.9173 60.6139 73.4464 59.5539C71.5134 60.1939 69.6667 61.6639 67.8632 62.5939C66.2757 63.4139 64.6559 64.1539 63.0468 64.9439C60.9625 65.9739 55.4872 67.6739 53.3382 66.6439C54.2885 65.7839 56.416 65.5539 57.6471 65.2839H57.6579Z" fill="#517944"/>
<path d="M53.7701 58.5928C57.5822 56.0828 63.2626 53.4228 71.5349 52.1928C75.8438 51.5528 78.522 50.9728 80.1311 50.6328C80.0987 50.7828 80.0339 50.9428 79.9259 51.1028C79.4399 51.8128 77.4313 51.7528 76.6321 51.9328C75.617 52.1628 74.6343 51.6828 73.63 52.0428C71.0057 52.9628 68.6623 54.7128 65.8221 55.1628C63.0574 55.6028 60.8436 56.0128 58.349 57.2628C57.3446 57.7628 55.0444 58.9328 53.7701 58.6028V58.5928Z" fill="#5E8352"/>
<path d="M43.6943 68.7353C43.6943 68.7353 42.582 68.6853 42.3768 67.2253C42.1608 65.7753 39.8498 60.6554 29.3097 60.7554C18.7804 60.8554 11.7393 61.7153 5.34609 64.8053C5.34609 64.8053 2.76508 66.2953 1.03719 66.7253C-0.690693 67.1553 1.37197 67.1653 3.90981 66.0953C6.44764 65.0253 7.18197 64.1254 9.7306 64.0754C12.2792 64.0254 17.4197 65.4553 23.5753 67.2753C29.7309 69.0953 36.0808 69.5653 39.299 69.4553C42.5064 69.3553 41.1133 69.2053 43.6943 68.7253V68.7353Z" fill="#518251"/>
<path d="M27.7006 60.7754C27.9274 60.8154 28.1434 60.8654 28.3702 60.9054C29.4069 61.1154 33.4782 62.3154 32.8303 63.8754C32.5279 64.6154 29.3961 66.1954 29.9685 67.0354C30.7352 68.1654 34.0614 68.3554 35.3357 68.6254C36.4481 68.8554 37.5172 69.0554 38.4459 69.4854C35.0442 69.4854 29.2233 68.9554 23.5861 67.2854C17.4413 65.4654 12.2901 64.0354 9.74143 64.0854C8.88828 64.1054 8.22952 64.2154 7.64636 64.3954C7.55997 64.2354 7.46277 64.0754 7.36557 63.9154C12.8948 61.6754 19.1044 60.9254 27.7006 60.7754Z" fill="#4C753E"/>
<path d="M41.4481 69.3066C41.1134 69.1066 40.9514 68.7366 41.0918 68.0766C41.2429 67.3666 40.9838 66.3866 41.3402 65.7266C41.4265 65.5566 41.5345 65.4866 41.6641 65.4766C42.1285 66.2066 42.3229 66.8466 42.3877 67.2266C42.4741 67.8266 42.7116 68.1866 42.9708 68.4066C42.9708 68.5766 43.0032 68.7266 43.0356 68.8766C42.0853 69.0866 41.9449 69.2166 41.4589 69.3166L41.4481 69.3066Z" fill="#8AAE80"/>
<path d="M15.465 63.2453C17.884 62.8553 19.9683 63.6553 22.1606 64.3153C24.2016 64.9353 25.9727 65.7553 27.7222 66.8553C28.5861 67.3953 29.3097 68.0753 30.1844 68.5953C30.1844 68.5953 30.2924 68.6753 30.422 68.7853C28.2297 68.4453 25.8863 67.9453 23.5753 67.2653C19.5795 66.0853 16.0158 65.0653 13.3051 64.5153C13.2079 64.4153 13.1108 64.3053 13.0892 64.1653C13.0352 63.7853 15.1734 63.2853 15.465 63.2353V63.2453Z" fill="#4A733C"/>
<path d="M40.5949 97.4238C40.5949 97.4238 41.6533 97.0838 42.4848 98.3238C43.3164 99.5738 47.7008 103.414 57.4526 99.5938C67.2043 95.7838 73.3815 92.5138 77.9604 87.4438C77.9604 87.4438 79.7099 85.1738 81.1246 84.1738C82.5501 83.1738 80.6171 83.8938 78.7272 85.7638C76.8265 87.6338 76.5349 88.7138 74.1915 89.6538C71.848 90.6038 66.4376 91.1138 59.9256 91.6338C53.4137 92.1538 47.3013 93.9738 44.3531 95.2038C41.4157 96.4338 42.7764 96.0738 40.5841 97.4138L40.5949 97.4238Z" fill="#518251"/>
<path d="M58.9213 99.0145C58.6945 99.0545 58.4677 99.0945 58.2409 99.1345C57.1826 99.3045 52.8737 99.6645 52.7981 98.0145C52.7657 97.2345 54.9795 94.6945 54.0832 94.1245C52.8845 93.3645 49.6987 94.3745 48.4028 94.5745C47.2688 94.7545 46.1889 94.9545 45.1414 94.8945C48.3056 93.6945 53.9428 92.1245 59.9148 91.6445C66.4268 91.1245 71.8372 90.6145 74.1807 89.6645C74.969 89.3445 75.5306 89.0145 75.9949 88.6445C76.1461 88.7545 76.3081 88.8745 76.4593 88.9845C72.2908 92.9745 66.8371 95.8445 58.9105 99.0245L58.9213 99.0145Z" fill="#4C753E"/>
<path d="M42.4308 96.1035C42.8304 96.1735 43.1436 96.4435 43.2948 97.1035C43.4676 97.8035 44.1263 98.6035 44.0939 99.3335C44.0939 99.5135 44.0076 99.6235 43.8996 99.6735C43.1544 99.1735 42.69 98.6635 42.4632 98.3335C42.1177 97.8235 41.7397 97.5735 41.4157 97.4635C41.3401 97.3135 41.2537 97.1835 41.1565 97.0635C41.9557 96.5335 42.0205 96.3635 42.4308 96.1135V96.1035Z" fill="#8AAE80"/>
<path d="M69.2239 92.4337C67.1504 93.6437 64.8609 93.6537 62.5391 93.8237C60.3792 93.9837 58.3706 93.8637 56.2539 93.4837C55.2172 93.2937 54.2452 92.9337 53.1977 92.7737C53.1869 92.7737 53.0681 92.7337 52.8953 92.6737C55.0876 92.2137 57.4742 91.8337 59.9257 91.6337C64.1482 91.2937 67.9063 90.9637 70.671 90.5137C70.8113 90.5737 70.9409 90.6337 71.0273 90.7537C71.2433 91.0837 69.4722 92.2937 69.2239 92.4337Z" fill="#4A733C"/>
<path d="M43.0897 88.7242C43.0897 88.7242 44.5476 88.2342 45.9839 88.2342C47.4202 88.2342 51.0271 88.7642 57.5283 80.9142C64.0403 73.0642 68.7919 68.2742 68.2952 68.1942C67.7984 68.1142 60.6061 74.0542 57.7335 75.2642C54.8501 76.4642 49.3748 79.1742 44.6448 87.6342C44.6448 87.6342 44.8067 87.8742 43.5 88.1542C43.5 88.1542 43.0573 88.1542 43.0897 88.7342V88.7242Z" fill="#648858"/>
<path d="M44.6446 87.6356C47.0529 83.3356 49.6447 80.5256 51.999 78.6356C52.8197 78.1456 53.4461 78.0156 53.6621 78.5656C54.1588 79.8156 52.2474 81.6156 51.405 82.4356C50.0011 83.8056 49.2559 84.4056 49.3747 86.3156C49.4071 86.7856 49.3315 87.2956 49.1911 87.7856C47.6576 88.3356 46.6101 88.2356 45.9729 88.2356C45.0334 88.2356 44.0939 88.4356 43.5539 88.5856C43.5107 88.4456 43.4783 88.2956 43.4459 88.1556C43.4783 88.1556 43.4999 88.1556 43.4999 88.1556C44.8066 87.8856 44.6446 87.6356 44.6446 87.6356Z" fill="#6E8F62"/>
<path d="M48.9968 84.3239C50.5411 83.0239 51.8478 81.5039 53.3705 80.1839C54.7636 78.9739 56.1891 77.7939 57.5498 76.5539C57.971 76.1639 60.2281 74.0839 60.8544 74.3239C59.1913 75.4839 58.079 77.3239 56.3619 78.4639C54.9148 79.4339 53.5109 80.8439 52.3014 82.0439C51.1351 83.1939 50.2063 84.5339 48.9752 85.6139C48.3489 86.1739 47.1069 87.6239 46.027 88.2539C46.0054 88.2539 45.9946 88.2539 45.973 88.2539C45.4222 88.2539 44.8715 88.3239 44.4071 88.4139C45.4978 86.9139 47.6037 85.5139 48.9968 84.3439V84.3239Z" fill="#426E34"/>
<path d="M57.7334 75.2737C60.6168 74.0737 67.7983 68.1337 68.2951 68.2037C68.7919 68.2837 64.0294 73.0737 57.5282 80.9237C54.7204 84.3137 52.4526 86.1437 50.6707 87.1237C50.8651 86.8537 51.0487 86.5437 51.2107 86.2137C52.1934 84.1837 53.6513 82.7137 55.3792 81.1537C56.9451 79.7337 58.673 78.1637 59.7313 76.3837C60.8868 74.4437 57.0531 76.7537 56.7075 76.9937C56.0163 77.4737 53.7809 78.2837 53.4029 77.6037C55.1092 76.4337 56.6103 75.7437 57.7334 75.2737Z" fill="#537B46"/>
<path d="M32.2795 91.4135C32.2795 91.4135 33.6727 94.1035 32.6143 97.1435C31.556 100.183 31.4048 101.273 31.6208 102.063C31.8476 102.853 31.4264 103.743 30.6057 103.503C29.7849 103.263 25.1736 100.873 22.787 96.1635C20.4112 91.4435 16.7286 86.1135 15.4327 85.2435C14.1368 84.3835 17.0094 85.2935 20.3464 86.0335C23.6833 86.7835 29.3529 87.2635 32.2795 91.4235V91.4135Z" fill="#8AA581"/>
<path d="M20.3464 86.0335C23.3486 86.7035 28.2514 87.1635 31.3292 90.2835C30.5949 90.0035 29.8281 89.5935 29.6553 89.4935C28.4998 88.9035 27.2579 88.6335 26.016 88.2335C24.8605 87.8535 23.2946 87.6035 22.0743 87.5135C20.8216 87.4135 20.6811 88.3435 21.4047 88.9835C22.4954 89.9235 23.8345 90.6835 24.6877 91.8335C24.8281 92.0235 25.7676 94.1235 24.8065 93.6235C23.8022 93.0935 23.1542 92.0335 22.4198 91.2635C22.3334 91.1635 20.7568 89.8035 20.692 90.1435C20.6164 90.5635 21.4911 91.1535 21.6963 91.5035C22.0743 92.1535 22.355 92.8735 22.6682 93.5535C23.2406 94.7735 23.5322 95.8935 23.327 97.1535C23.1326 96.8335 22.949 96.5135 22.7762 96.1635C20.4004 91.4435 16.7178 86.1135 15.4219 85.2435C14.126 84.3835 16.9986 85.2935 20.3356 86.0335H20.3464Z" fill="#829F79"/>
<path d="M31.4588 98.3434C31.7828 97.8634 32.2579 96.2534 32.9275 95.9434C32.8627 96.3334 32.7655 96.7334 32.6251 97.1434C31.5668 100.183 31.4156 101.273 31.6316 102.063C31.8583 102.853 31.4372 103.743 30.6165 103.503C30.3465 103.423 29.6661 103.113 28.7914 102.563C28.8562 102.253 29.3097 102.043 29.7849 101.743C31.934 100.383 27.9166 99.0134 28.3594 97.8434C28.3594 97.8334 30.6056 99.6134 31.4696 98.3434H31.4588Z" fill="#628656"/>
<path d="M23.7265 97.7345C24.5149 97.3845 25.4652 97.0245 25.7352 96.6045C27.0311 94.5645 26.2536 88.3745 30.5085 91.5045C31.5344 92.2545 32.7223 93.7245 30.8756 94.4745C29.245 95.1345 27.9166 94.7945 27.2147 96.6145C26.6747 98.0345 27.1283 99.5945 26.6855 101.004C25.6812 100.144 24.6336 99.0545 23.7373 97.7345H23.7265Z" fill="#90B286"/>
<path d="M24.9036 123.133C24.9036 123.133 27.6898 124.643 31.1887 125.623C34.6877 126.593 39.8281 129.093 42.0096 130.553L42.0312 130.023C42.0312 130.023 42.5604 129.983 40.3573 128.903C38.1651 127.823 37.1067 126.903 34.4933 125.923C31.8799 124.943 27.2794 123.553 25.4759 122.723L24.9036 123.143V123.133Z" fill="#517944"/>
<path d="M35.9621 126.614C35.9621 126.614 35.6597 126.314 38.0139 125.454C40.3682 124.604 43.1652 123.804 45.1955 119.794C47.2257 115.784 54.526 108.664 48.4028 94.9336C48.4028 94.9336 48.6728 95.6536 47.3121 100.084C45.9514 104.514 43.9319 107.744 42.4524 111.294C40.9621 114.844 36.9772 121.994 36.4696 124.304C35.9621 126.614 34.569 126.234 35.9621 126.614Z" fill="#517944"/>
<path d="M45.2603 119.684C43.2301 123.694 40.433 124.494 38.0788 125.344C36.8693 125.784 36.3617 126.074 36.1565 126.254C35.9081 126.274 35.6706 126.284 35.433 126.274C35.3574 126.114 36.1673 125.844 36.5345 124.184C37.0421 121.874 41.0378 114.724 42.5173 111.174C42.7765 110.544 43.0573 109.924 43.3488 109.304C43.5108 109.104 43.6188 108.964 43.6728 108.894C44.3964 107.854 44.742 106.814 45.9839 106.144C47.5822 105.284 47.8198 105.934 48.3597 107.174C48.8457 108.284 49.526 109.234 50.1416 110.194C48.8889 114.564 46.3402 117.544 45.2711 119.664L45.2603 119.684Z" fill="#688B5C"/>
<path d="M44.6663 114.664C44.6663 115.774 44.7311 115.734 45.7571 115.574C45.1631 117.184 44.2884 118.604 43.5648 120.164C42.9601 121.474 42.6037 122.864 41.4698 123.934C41.4266 123.974 41.3834 124.014 41.351 124.054C40.217 124.714 39.0723 125.084 38.014 125.474C35.6597 126.324 35.9621 126.634 35.9621 126.634C34.569 126.254 35.9621 126.634 36.4697 124.324C36.5777 123.824 36.8585 123.094 37.2257 122.234C37.5388 121.974 37.8196 121.664 38.0464 121.354C38.8131 120.334 39.1695 118.984 40.2926 118.184C41.3402 117.434 42.0745 116.564 42.7765 115.554C43.1328 115.034 43.8564 113.014 44.6339 112.844C44.9579 113.264 44.6771 114.194 44.6663 114.674V114.664Z" fill="#8AA581"/>
<path d="M41.3186 120.812C41.9773 120.552 41.7614 122.002 41.6102 122.212C41.081 122.922 40.1307 123.272 39.6339 124.022C39.3963 124.382 39.2343 124.732 39.0615 125.092C38.7052 125.222 38.3596 125.342 38.014 125.472C35.6598 126.322 35.9622 126.632 35.9622 126.632C34.5691 126.252 35.9622 126.632 36.4697 124.322C36.5453 124.002 36.6857 123.582 36.8693 123.092C37.0529 123.012 37.2257 122.972 37.4093 123.002C38.4244 123.192 38.7376 123.182 39.4503 122.382C39.9039 121.862 40.6274 121.102 41.3186 120.822V120.812Z" fill="#91B388"/>
<path d="M37.0204 125.853C35.7677 126.403 35.9621 126.613 35.9621 126.613C34.8282 126.303 35.5409 126.493 36.1241 125.333C36.7936 125.163 37.5172 125.013 37.0204 125.853Z" fill="#476135"/>
<path d="M41.6102 129.465C41.6102 129.465 41.3942 130.125 43.8564 130.155C46.3186 130.185 50.7356 130.735 56.5348 134.335C62.334 137.935 65.6601 144.565 67.4096 145.095C69.1591 145.625 70.7034 145.385 69.5371 145.955C68.3708 146.535 65.347 148.115 59.5478 147.195C53.7485 146.265 45.9839 141.725 43.5001 136.165C41.0162 130.605 42.1177 131.235 41.7722 130.575C41.4266 129.915 41.6102 129.465 41.6102 129.465Z" fill="#6E8F62"/>
<path d="M45.9623 130.305C48.5217 130.625 52.1287 131.595 56.524 134.335C62.3232 137.935 65.6494 144.565 67.3988 145.095C68.7811 145.515 70.0339 145.455 69.9259 145.685C69.4291 146.065 68.6192 146.285 67.3988 146.295C65.8221 146.315 64.3966 146.065 63.1439 145.165C62.1072 144.415 61.6428 142.825 60.4765 142.345C57.7011 141.225 55.2604 140.585 53.0358 138.595C51.8263 137.515 50.7787 136.305 49.7744 135.065C49.0293 134.145 48.1437 133.725 47.2042 133.025C46.3942 132.425 45.5519 131.285 45.9623 130.295V130.305Z" fill="#96B68C"/>
<path d="M41.6102 129.465C41.6102 129.465 41.3942 130.125 43.8564 130.155C44.2884 130.155 44.7744 130.185 45.3143 130.235C45.4007 131.045 45.3143 131.845 45.4007 132.705C45.5411 134.005 46.3511 134.855 47.377 135.685C48.5109 136.595 48.9969 137.435 49.5908 138.695C50.1956 139.995 51.5779 140.815 52.8522 141.545C53.6946 142.035 55.6816 142.825 55.8004 143.865C55.8544 144.415 55.2497 144.765 55.2713 145.325C55.2821 145.605 55.3901 145.865 55.5412 146.105C50.606 144.245 45.4547 140.525 43.5108 136.175C41.027 130.615 42.1286 131.245 41.783 130.585C41.4374 129.925 41.621 129.475 41.621 129.475L41.6102 129.465Z" fill="#5D8250"/>
<path d="M47.5822 131.995C47.8306 131.995 48.0897 131.945 48.3165 131.925C49.2453 131.845 50.0336 131.855 50.93 132.125C52.5282 132.615 53.8781 133.485 55.2928 134.275C56.038 134.685 56.6644 135.345 57.3663 135.815C58.1331 136.345 59.0078 136.635 59.8933 136.945C60.4549 137.465 60.9841 138.005 61.4808 138.545C59.2454 137.205 56.9127 135.975 54.6665 134.635C52.485 133.335 49.9688 132.855 47.5714 131.985L47.5822 131.995Z" fill="#87AC7D"/>
<path d="M61.8696 140.054C62.3664 140.134 62.658 140.114 62.7875 140.014C63.2843 140.604 63.7595 141.184 64.1807 141.724C62.2692 141.374 60.1741 140.174 58.6082 139.234C57.3987 138.504 56.2324 137.874 55.1093 137.034C54.5585 136.624 53.6838 135.704 52.8522 135.164C55.0877 136.104 57.1503 137.424 59.0942 138.744C59.915 139.294 60.8329 139.874 61.8696 140.044V140.054Z" fill="#87AC7D"/>
<path d="M52.863 135.174C52.5175 135.024 52.1611 134.884 51.8047 134.754C52.1287 134.764 52.4959 134.934 52.863 135.174Z" fill="#87AC7D"/>
<path d="M46.8587 131.715C47.0963 131.815 47.3446 131.905 47.593 131.995C47.3122 131.995 47.0423 131.945 46.8587 131.715Z" fill="#87AC7D"/>
<path d="M29.7633 124.794C29.7633 124.794 29.4825 125.854 30.3572 125.934C31.2428 126.014 31.9987 125.244 34.5041 129.244C37.0096 133.244 36.2212 137.164 38.9319 141.944C41.6425 146.724 45.001 150.374 45.8758 150.924C46.7505 151.474 43.5323 149.344 40.8433 148.004C38.1543 146.674 31.7396 144.834 30.6488 138.124C29.5581 131.414 29.0181 129.784 29.9468 127.134C29.9468 127.134 29.0181 124.554 29.7741 124.784L29.7633 124.794Z" fill="#577E4A"/>
<path d="M33.8022 140.063C33.975 140.303 35.9837 142.953 36.1457 141.683C36.3293 140.293 35.6705 138.483 35.4869 137.083C35.3141 135.823 35.6057 135.413 36.4049 134.413C36.4049 134.413 36.4157 134.393 36.4265 134.383C36.9556 136.743 37.366 139.203 38.9211 141.943C41.4805 146.463 44.6231 149.973 45.6923 150.803C44.9039 150.293 42.7333 148.953 40.8326 148.003C38.1436 146.673 31.7288 144.833 30.6381 138.123C30.5949 137.863 30.5517 137.623 30.5193 137.373C30.6272 137.313 30.7353 137.253 30.8648 137.203C32.2795 136.633 33.2299 139.233 33.8022 140.043V140.063Z" fill="#6F9164"/>
<path d="M31.3075 140.493C31.3615 140.393 31.4695 140.353 31.6531 140.423C34.8065 141.563 36.0808 145.103 39.2018 146.443C38.3918 144.363 38.4026 142.133 37.5927 140.063C37.3335 139.403 37.3011 138.793 37.5171 138.703C37.8519 139.753 38.2947 140.833 38.9426 141.953C41.502 146.473 44.6446 149.983 45.7137 150.813C44.9254 150.303 42.7547 148.963 40.8541 148.013C38.5106 146.853 33.3378 145.303 31.3291 140.493H31.3075Z" fill="#8EB185"/>
<path d="M30.3573 125.934C31.2428 126.014 31.9987 125.244 34.5042 129.244C35.1953 130.354 35.6381 131.454 35.9729 132.564C35.1306 133.644 33.867 131.714 33.5431 131.054C32.9275 129.804 32.4199 127.994 30.8756 127.534C30.5625 127.444 30.2601 127.254 29.9361 127.144C29.9361 127.144 29.0074 124.564 29.7633 124.794C29.7633 124.794 29.4825 125.854 30.3573 125.934Z" fill="#4F7842"/>
<path d="M39.3749 81.6947C39.3749 81.6947 39.4289 81.6947 39.5909 81.1047C39.7637 80.5147 39.5909 78.8647 37.7334 78.9847C35.8759 79.0947 34.4612 80.3647 33.5865 80.7147C32.7117 81.0647 32.6578 81.2047 31.189 81.1947C29.7095 81.1947 27.852 81.0647 27.852 81.0647C27.852 81.0647 28.2732 81.6747 29.1264 82.0347C29.9795 82.3947 30.5303 82.5547 32.5605 81.7147C34.5908 80.8747 34.8284 80.2947 36.1351 80.3747C37.4418 80.4547 38.0142 80.8547 38.4786 81.2047C38.9429 81.5547 39.2345 82.0047 39.3641 81.7047L39.3749 81.6947Z" fill="#4A733C"/>
<path d="M34.0614 80.4746C34.9362 79.9746 36.1889 79.0746 37.744 78.9746C37.8412 78.9746 37.9276 78.9746 38.0032 78.9746C38.7268 79.2946 39.5583 79.8346 38.2732 79.9146C37.8304 79.9446 37.312 79.8846 36.9449 80.1646C36.8153 80.2546 36.7613 80.3446 36.7397 80.4346C36.5561 80.4046 36.3617 80.3846 36.1457 80.3646C35.4114 80.3246 35.0118 80.4846 34.4394 80.7846C34.2558 80.7046 34.1155 80.6046 34.0507 80.4646L34.0614 80.4746Z" fill="#4C753E"/>
<path d="M37.42 80.6055C37.474 80.3155 38.4351 80.3255 38.6187 80.3255C39.2235 80.3055 39.5367 80.5255 39.6447 80.8455C39.6447 80.9455 39.623 81.0355 39.6014 81.1055C39.4287 81.6955 39.3855 81.6955 39.3855 81.6955C39.2559 81.9955 38.9643 81.5555 38.4999 81.1955C38.2192 80.9855 37.906 80.7655 37.4308 80.5955L37.42 80.6055Z" fill="#77A26B"/>
<path d="M31.1888 81.1943C32.6683 81.1943 32.7115 81.0543 33.5863 80.7143C33.7699 80.6443 33.9642 80.5343 34.191 80.4043C34.3098 80.5043 34.407 80.6243 34.4934 80.7743C34.0398 81.0143 33.4891 81.3343 32.5603 81.7243C32.2795 81.8443 32.0204 81.9343 31.7936 82.0143C31.2968 81.8343 30.6273 81.5243 30.5409 81.1943C30.7569 81.1943 30.9836 81.1943 31.1888 81.1943Z" fill="#7B9971"/>
<path d="M39.3854 81.8543C39.3854 81.8543 40.1306 84.1143 40.0982 84.5943C40.0658 85.0743 40.1521 84.8443 39.6122 86.4043C39.0722 87.9643 38.1759 90.5343 38.1867 91.1643C38.1975 91.7843 40.5409 96.6343 40.5409 96.6343L40.4761 97.4043C40.4761 97.4043 38.0031 92.6443 37.6575 91.3343C37.6575 91.3343 39.6014 85.2943 39.6122 84.8743C39.6122 84.4543 39.2666 82.7443 38.813 82.0643C38.3595 81.3843 39.2558 81.4743 39.3746 81.8543H39.3854Z" fill="#4D7640"/>
<path d="M43.1436 59.3334C43.1436 59.3334 43.9104 61.3634 44.7095 61.5934C45.5087 61.8134 45.9946 61.6634 45.9946 61.6634C45.9946 61.6634 44.4611 61.7734 44.4935 62.2634C44.5583 62.7634 44.04 68.1034 44.1804 69.1034C44.3963 70.1034 44.5907 74.9934 44.8823 77.1834C45.4331 79.2934 43.8024 95.6633 36.6748 106.423C36.664 106.423 35.2277 109.403 32.8627 114.133C30.4005 118.873 32.1715 117.243 29.2125 120.273C26.3831 123.683 11.3506 134.833 5.77813 137.283C5.46495 137.093 5.14097 136.903 4.82779 136.723C5.01138 137.283 25.3788 124.243 29.7957 117.963C29.8497 117.983 33.5755 110.863 35.055 106.813C35.0766 106.793 31.9016 102.843 30.3141 103.113C30.3141 103.113 30.5733 102.213 30.9404 102.333C31.3076 102.463 30.9296 102.573 32.7655 103.693C34.5906 104.803 35.8757 106.713 36.3617 105.793C37.3768 105.293 47.5281 81.4734 42.8412 69.1634C42.8412 69.1634 42.4849 68.9634 42.0421 68.7734C41.5993 68.5834 43.392 68.2234 43.4136 68.3134C43.4676 68.4234 44.4503 62.8234 43.8672 62.1834C43.3272 61.5534 42.6036 60.5034 42.7332 59.4434C42.8628 58.3734 43.1436 59.3334 43.1436 59.3334Z" fill="#648858"/>
<path d="M42.744 59.5137C42.8736 58.4437 43.1544 59.4037 43.1544 59.4037C43.1544 59.4037 43.3596 59.9437 43.6727 60.5037C43.5431 60.8337 43.4459 61.1837 43.3811 61.5337C43.1435 61.1737 42.9276 60.7737 42.8196 60.3337C42.8088 60.2737 42.7872 60.2137 42.7764 60.1537C42.7764 60.1037 42.7656 60.0537 42.7548 60.0037C42.7332 59.8437 42.7332 59.6737 42.7548 59.5137H42.744Z" fill="#4D7640"/>
<path d="M19.7524 127.064C24.0613 123.774 27.9383 120.184 29.7633 118.034C29.7633 118.034 30.9297 115.924 32.1824 113.334C31.448 115.774 30.4221 118.304 28.9642 119.974C28.6294 120.354 28.3162 120.864 28.0031 121.454C26.286 123.054 23.4242 125.524 20.1952 127.964C20.044 127.694 19.8928 127.394 19.7416 127.064H19.7524Z" fill="#4D7640"/>
<path d="M43.6621 72.224C43.4677 71.144 43.1977 70.114 42.8413 69.154C42.8413 69.154 42.4849 68.954 42.0422 68.764C42.0206 68.754 42.0206 68.744 42.0098 68.724C42.1718 68.534 43.4029 68.304 43.4245 68.374C43.4245 68.394 43.5001 68.084 43.5865 67.584C43.6081 67.654 43.6297 67.724 43.6513 67.794C43.9968 68.954 43.8025 70.604 43.6621 72.214V72.224Z" fill="#4D7640"/>
<path d="M44.0508 76.5334C44.4827 77.9934 44.5691 81.8434 44.202 85.7134C43.7268 88.4734 42.9924 91.6534 41.9665 94.8934C41.7181 95.6734 41.4589 96.4434 41.1674 97.2234C40.5626 98.1134 39.8283 99.1034 39.0399 100.103C39.1587 99.7834 39.2883 99.4434 39.4179 99.1034C41.1458 94.8134 42.8845 88.8834 43.608 83.0334C43.608 82.9834 43.6188 82.9434 43.6296 82.8934C43.6512 82.7634 43.662 82.6234 43.6836 82.4934C43.9428 80.4634 44.0832 78.4534 44.0616 76.5234L44.0508 76.5334Z" fill="#4D7640"/>
<path d="M34.4718 106.114C34.6013 105.904 34.7418 105.694 34.8929 105.464C34.3098 104.964 33.5862 104.294 32.7439 103.784C30.908 102.664 31.286 102.544 30.9188 102.424C30.6272 102.324 30.4004 102.874 30.3248 103.104C31.4804 102.954 33.5106 104.984 34.461 106.114H34.4718Z" fill="#4D7640"/>
</svg>
