<svg width="161" height="198" viewBox="0 0 161 198" fill="none" xmlns="http://www.w3.org/2000/svg">
<path d="M71.9246 118.085C72.9734 119.537 80.2908 123.524 83.7252 114.729C87.3975 106.03 85.6301 98.4575 84.0383 92.2402C82.5792 86.078 83.4943 81.3307 81.9098 83.1051C80.3388 84.8858 77.8372 91.8597 74.3617 97.1068C70.9644 102.383 67.3366 111.667 71.9213 118.075L71.9246 118.085Z" fill="#8FAA4B"/>
<path d="M82.9209 95.5552C83.8985 102.911 79.7616 111.317 79.224 107.874C78.7272 104.451 75.5674 109.268 75.2419 111.14C74.9634 112.788 69.653 114.842 70.237 106.527C69.3478 110.5 69.501 114.698 71.9347 118.081C72.9836 119.533 80.301 123.52 83.7354 114.725C87.4077 106.026 85.6402 98.4535 84.0485 92.2362C83.579 90.2962 83.3401 88.4975 83.1968 87.0066C82.8078 89.6434 82.5978 92.7627 82.9312 95.5521L82.9209 95.5552Z" fill="#739432"/>
<path d="M82.3063 82.7762C82.1998 82.8289 82.0688 82.9415 81.9131 83.1139C80.3421 84.8946 77.8405 91.8685 74.365 97.1155C74.2989 97.2193 74.2361 97.3325 74.1701 97.4362C74.8048 99.8522 76.0674 101.43 76.3345 102.853C76.8794 105.663 79.0308 99.7389 78.8527 96.2205C78.7565 93.5916 81.1101 86.7143 82.3096 82.7857L82.3063 82.7762Z" fill="#96B24F"/>
<path d="M83.0068 110.373C82.163 113.66 79.0172 119.04 75.9409 118.968C75.2888 118.952 74.5761 119.154 73.8961 119.482C76.5797 120.742 81.175 121.17 83.7251 114.728C84.7827 112.155 85.3644 109.681 85.6274 107.302C84.578 107.678 83.4138 108.833 83.0068 110.373Z" fill="#668724"/>
<path d="M80.2193 89.3429C79.2123 94.0545 78.1194 98.8127 76.5311 103.582C75.7589 105.997 75.6696 108.418 75.7069 110.813C75.7715 113.22 76.0445 115.607 76.4065 117.989C76.5759 118.999 76.6454 119.787 76.7292 120.225C76.9168 120.242 77.1184 120.235 77.3097 120.23C77.2913 119.753 77.2383 119.012 77.1354 117.866C76.722 115.5 76.418 113.122 76.2951 110.742C76.2063 108.363 76.2373 105.97 76.9409 103.586C78.4098 98.7997 79.39 94.0436 80.2946 89.3309C80.3779 88.9175 80.289 88.9229 80.2057 89.3364L80.2193 89.3429Z" fill="#698237"/>
<path d="M78.0329 118.818C78.8461 118.187 79.5914 117.524 80.2552 116.822C80.919 116.121 81.5182 115.396 81.9811 114.638C82.2381 114.268 82.4099 113.88 82.6158 113.494L82.8445 112.911L82.9572 112.615L83.0255 112.321L83.1723 111.731L83.22 111.15L83.2438 110.859C83.2449 110.764 83.2324 110.663 83.2232 110.571L83.1717 109.998C83.1596 109.865 83.1254 109.865 83.1306 110.01L83.1582 110.58C83.1571 110.675 83.1799 110.773 83.1685 110.871L83.1344 111.165L83.0629 111.743L82.9025 112.326L82.8206 112.613L82.6943 112.903L82.4521 113.479C82.2292 113.85 82.0574 114.238 81.7869 114.602C81.307 115.343 80.691 116.052 80.007 116.728C79.3366 117.411 78.5744 118.058 77.7648 118.667C77.2067 119.085 76.9684 119.314 77.0294 119.359C77.0904 119.403 77.4678 119.249 78.0329 118.818Z" fill="#6C8240"/>
<path d="M76.3196 117.218C75.2617 116.556 74.2486 115.859 73.3316 115.114C72.4249 114.365 71.5873 113.553 71.0548 112.64C71.0045 112.561 70.9633 112.573 71.0136 112.652C71.5083 113.587 72.2876 114.426 73.1598 115.207C74.0319 115.987 75.0139 116.724 76.0545 117.402C76.7835 117.867 77.0592 117.649 76.3299 117.215L76.3196 117.218Z" fill="#6C8240"/>
<path d="M77.2529 114.775C78.2342 113.485 79.1407 112.175 79.8903 110.838C80.6535 109.508 81.2908 108.142 81.5969 106.769C81.6222 106.646 81.5881 106.646 81.5525 106.772C81.1986 108.138 80.5103 109.488 79.6961 110.801C78.8954 112.122 77.9482 113.412 76.9364 114.68C76.5865 115.11 76.4881 115.349 76.5663 115.378C76.6445 115.408 76.9166 115.211 77.2529 114.775Z" fill="#6C8240"/>
<path d="M75.8204 114.308C74.7779 113.495 73.7765 112.669 72.8679 111.784C72.4188 111.34 71.9903 110.89 71.6304 110.409C71.2705 109.927 70.9517 109.434 70.8624 108.883C70.8499 108.782 70.8055 108.784 70.8213 108.895C70.89 109.453 71.1948 109.971 71.5239 110.461C71.8665 110.958 72.2643 111.417 72.6961 111.877C73.5565 112.787 74.5235 113.644 75.5282 114.479C75.8767 114.764 76.1249 114.858 76.1902 114.818C76.2897 114.778 76.1759 114.58 75.8204 114.308Z" fill="#6C8240"/>
<path d="M76.5457 109.734C76.9275 108.906 77.3673 108.082 77.8923 107.274C78.4308 106.473 79.0274 105.676 79.8755 104.982C80.0756 104.807 80.3099 104.632 80.5203 104.454C80.734 104.285 80.9546 104.104 81.1514 103.919C81.5688 103.554 81.9385 103.181 82.2947 102.802C83.0036 102.034 83.5866 101.23 84.0742 100.413C84.1612 100.271 84.1237 100.261 84.0264 100.406C83.5253 101.217 82.9151 102.008 82.1893 102.76C81.8196 103.132 81.4363 103.499 81.0258 103.852C80.829 104.036 80.6051 104.208 80.3914 104.377C80.1674 104.549 79.9537 104.717 79.7298 104.889C78.8405 105.595 78.1995 106.395 77.6268 107.196C77.0676 108.003 76.597 108.836 76.1947 109.671C75.9183 110.247 75.8977 110.547 75.9899 110.551C76.082 110.555 76.2832 110.285 76.5391 109.715L76.5457 109.734Z" fill="#6C8240"/>
<path d="M75.7503 108.227C74.9957 107.622 74.3064 106.976 73.7133 106.281C73.1544 105.586 72.6472 104.844 72.6262 104C72.6236 103.927 72.5791 103.93 72.585 104.012C72.5649 104.869 73.0137 105.638 73.5279 106.368C74.0729 107.088 74.7276 107.765 75.458 108.398C75.9721 108.833 76.2886 108.634 75.7639 108.234L75.7503 108.227Z" fill="#6C8240"/>
<path d="M76.9157 104.592C77.3474 103.875 77.8236 103.156 78.3643 102.459C78.9051 101.762 79.4936 101.073 80.2011 100.431C80.8815 99.777 81.8504 99.2679 82.5513 98.6075C83.2691 97.9631 83.8275 97.2191 83.8942 96.4639C83.8957 96.3375 83.8512 96.3402 83.8531 96.4762C83.7694 97.2154 83.1839 97.9465 82.4562 98.5623C81.7487 99.2036 80.7559 99.7093 80.0414 100.363C79.2998 101.004 78.6771 101.694 78.1124 102.387C77.5511 103.09 77.0408 103.809 76.5885 104.532C76.2753 105.035 76.2416 105.297 76.3268 105.314C76.4223 105.327 76.6367 105.095 76.9293 104.599L76.9157 104.592Z" fill="#6C8240"/>
<path d="M76.8497 102.605C76.3462 102.135 75.8876 101.631 75.5008 101.105C75.1347 100.573 74.8237 100.004 74.8548 99.3751C74.8588 99.3214 74.8144 99.3241 74.8104 99.3779C74.7348 100.01 74.9908 100.616 75.3088 101.173C75.6405 101.736 76.2644 102.422 76.7436 102.92C77.0881 103.259 77.1978 102.921 76.8497 102.605Z" fill="#6C8240"/>
<path d="M77.9663 99.3537C77.7199 98.8073 77.4664 98.2735 77.2438 97.7305C77.0315 97.1845 76.7748 96.6412 76.7645 96.0561C76.7685 96.0023 76.7241 96.005 76.7201 96.0588C76.6893 96.3621 76.7543 96.6473 76.809 96.9356C76.874 97.2209 76.9493 97.5031 77.0349 97.7822C77.2061 98.3405 77.4114 98.8991 77.6134 99.4482C77.6737 99.8505 77.6642 100.084 77.7563 99.7944C77.8037 99.8328 77.8463 99.694 77.8874 99.6818C77.9285 99.6696 77.9799 99.6543 78.0012 99.5849C78.0118 99.5502 78.0122 99.5186 78.006 99.4679C77.9927 99.4298 77.9795 99.3918 77.963 99.3442L77.9663 99.3537Z" fill="#6C8240"/>
<path d="M78.4233 98.2196C79.1906 97.7181 80.2924 96.9383 80.9342 96.3691C81.5554 95.8059 82.1704 95.1922 82.3591 94.5267C82.3837 94.4669 82.3392 94.4696 82.3146 94.5295C82.0749 95.1786 81.4262 95.7604 80.7745 96.3011C80.0989 96.8384 79.3521 97.3338 78.5646 97.8099C78.0281 98.1272 77.8762 98.5716 78.4163 98.2322L78.4233 98.2196Z" fill="#6C8240"/>
<path d="M79.2444 95.4225C79.6993 94.7723 80.1644 94.1191 80.6226 93.4785C81.0741 92.8188 81.5154 92.1622 81.8851 91.4954C81.9233 91.4421 81.8755 91.4353 81.8374 91.4886C81.4199 92.1486 80.9276 92.7889 80.4283 93.4418C79.9257 94.0852 79.4062 94.7125 78.8999 95.378C78.8063 95.5004 78.7781 95.5823 78.7774 95.6456C78.7766 95.7088 78.8104 95.7408 78.8548 95.738C78.9026 95.7448 78.9609 95.717 79.0333 95.6639C79.092 95.6044 79.168 95.5293 79.2444 95.4225Z" fill="#6C8240"/>
<path d="M79.7255 92.2015C79.9913 91.9543 80.4891 91.4279 80.7175 91.1708C80.8317 91.0423 80.9355 90.9168 81.0225 90.7754L81.158 90.5775L81.2458 90.3728C81.2458 90.3728 81.2153 90.3503 81.2013 90.3755L81.0761 90.5703L80.9135 90.7553C80.7993 90.8839 80.5842 91.179 80.4531 91.2916C80.184 91.5293 79.9758 91.8118 79.6898 92.0336C79.4934 92.1866 79.5356 92.3736 79.7152 92.2046L79.7255 92.2015Z" fill="#6C8240"/>
<path d="M79.0251 94.5944C78.6597 93.9995 78.2568 93.3946 78.1587 92.72C78.1487 92.6915 78.1043 92.6942 78.1176 92.7323C78.1232 93.4344 78.6138 94.4228 78.9139 95.0582C79.0241 95.2775 79.1661 94.8045 79.0387 94.6009L79.0251 94.5944Z" fill="#6C8240"/>
<path d="M80.3892 104.567C81.5979 103.997 83.136 103.298 83.9856 102.477C84.0201 102.446 83.9929 102.433 83.9481 102.468C83.0376 103.243 81.7881 103.793 80.5698 104.303C80.2603 104.49 79.9703 104.765 80.4028 104.574L80.3892 104.567Z" fill="#6C8240"/>
<path d="M80.2321 110.222C81.1386 109.5 82.3902 108.466 83.0859 107.66C83.1171 107.619 83.0797 107.609 83.0485 107.65C82.2745 108.427 81.3104 109.113 80.3565 109.796C79.9673 110.374 79.9218 110.472 80.2321 110.222Z" fill="#6C8240"/>
<path d="M79.131 117.767C79.4658 117.163 79.7837 116.543 80.0469 115.929C80.1905 115.624 80.2965 115.308 80.4059 115.003C80.5017 114.691 80.5942 114.369 80.5362 114.071C80.5196 114.023 80.4855 114.023 80.4951 114.083C80.519 114.381 80.4026 114.699 80.2829 115.008C80.153 115.32 80.0061 115.615 79.8387 115.917C79.5142 116.518 79.1556 117.119 78.7833 117.713C78.526 118.115 78.8836 118.198 79.1241 117.779L79.131 117.767Z" fill="#6C8240"/>
<path d="M74.1822 115.995C73.3978 115.892 72.6106 115.749 71.986 115.42C71.9588 115.407 71.9243 115.438 71.9481 115.442C72.521 115.817 73.638 116.094 74.4286 116.247C74.708 116.301 74.4381 116.013 74.1788 115.986L74.1822 115.995Z" fill="#6C8240"/>
<path d="M92.2959 15.9257C72.9349 31.68 57.631 70.323 70.1537 109.62C82.6731 148.907 126.401 175.068 126.401 175.068C126.401 175.068 135.789 176.327 130.487 173.505C125.185 170.682 95.3233 148.292 83.3896 130.847C71.4628 113.39 65.6187 92.0519 68.4527 69.8319C71.3002 47.6184 84.2787 22.3044 92.2889 15.9383L92.2959 15.9257Z" fill="#5B7A38"/>
<path d="M70.1536 109.621C72.1676 115.943 74.9949 121.929 78.3186 127.515C78.1481 126.011 78.1009 124.177 78.1315 122.109C69.8243 106.483 66.0765 88.4709 68.4629 69.8296C71.2201 48.3363 83.4538 23.9479 91.5024 16.6144C72.5192 32.7708 57.8124 70.879 70.1536 109.621Z" fill="#6C8240"/>
<path d="M91.4921 16.6166C91.7543 16.3915 92.0234 16.1538 92.2888 15.9382C92.0304 16.1412 91.7612 16.3789 91.4921 16.6166Z" fill="#6C8240"/>
<path d="M110.823 158.824C112.016 161.179 113.662 164.092 116.51 168.276C122.419 172.683 126.401 175.068 126.401 175.068C126.401 175.068 135.789 176.328 130.487 173.505C127.968 172.165 119.882 166.39 110.827 158.834L110.823 158.824Z" fill="#6E7A38"/>
<path d="M67.5897 78.3552C67.0537 75.374 66.3637 72.4072 65.3253 69.4495C64.7924 67.9801 64.164 66.497 63.32 65.0466L62.6255 63.9613L61.7805 62.8999L60.1121 60.9702C57.9866 58.4098 56.136 55.694 54.5865 52.9305C53.0609 50.1705 51.7578 47.3652 50.9467 44.5394C50.7748 44.0444 50.4913 44.0448 50.6188 44.5425C51.2658 47.3856 52.3941 50.243 53.7618 53.071C55.167 55.909 56.8527 58.7054 58.9045 61.4453L60.4833 63.4437L61.1623 64.3865L61.7349 65.382C62.4331 66.7392 62.9462 68.1516 63.384 69.5759C64.2186 72.4366 64.7521 75.345 65.1523 78.2616C65.4162 80.2629 66.1489 81.2947 66.7904 81.3453C67.4216 81.399 67.9623 80.4081 67.6 78.3521L67.5897 78.3552Z" fill="#6C8240"/>
<path d="M104.851 155.476C102.426 153.457 99.8864 151.535 97.0783 149.818C95.6741 148.976 94.184 148.18 92.5521 147.531L91.2868 147.089L89.9109 146.753L87.3078 146.215C83.9289 145.435 80.6454 144.375 77.5792 143.124C74.527 141.848 71.6202 140.402 69.089 138.667C68.6347 138.371 68.3972 138.536 68.8375 138.857C71.2615 140.709 74.0677 142.289 77.0329 143.707C80.0392 145.112 83.239 146.323 86.6911 147.281L89.2758 147.929L90.4398 148.276L91.5616 148.73C93.0157 149.389 94.3726 150.193 95.6707 151.057C98.2529 152.809 100.628 154.78 102.903 156.823C104.458 158.23 105.727 158.619 106.26 158.292C106.793 157.965 106.543 156.885 104.878 155.489L104.851 155.476Z" fill="#6C8240"/>
<path d="M70.0932 104.48C69.4433 101.596 69.1598 98.6236 69.7462 95.7389C70.0633 94.3 70.6055 92.8885 71.563 91.595C72.5135 90.3141 73.913 89.1831 75.6769 88.4478C75.9824 88.3149 75.8685 88.1177 75.5359 88.2377C73.6398 88.8863 72.0016 89.9833 70.8186 91.2809C69.6254 92.5816 68.8402 94.0444 68.3039 95.5381C67.2721 98.5449 67.1748 101.662 67.5801 104.724C67.7319 105.782 68.5464 106.233 69.193 106.135C69.8363 106.027 70.3345 105.469 70.1034 104.477L70.0932 104.48Z" fill="#5B7A38"/>
<path d="M74.5209 89.7888C75.2414 90.3936 77.7529 89.3937 79.9607 85.9842C82.1925 82.5781 76.4413 86.7275 75.4143 86.9387C74.3873 87.15 72.7821 88.3422 74.5209 89.7888Z" fill="#A8C773"/>
<path d="M79.5752 86.5399C78.1267 87.759 76.4778 88.0084 76.2056 87.3226C76.1362 87.1227 76.0326 86.9224 75.929 86.7222C75.7058 86.8307 75.5273 86.9048 75.4109 86.9289C74.3839 87.1402 72.7787 88.3324 74.5175 89.779C75.2009 90.3423 77.4715 89.4982 79.5719 86.5304L79.5752 86.5399Z" fill="#8DB556"/>
<path d="M68.3292 82.0536C70.8713 79.574 73.8103 77.3229 77.034 75.5647C80.2614 73.7844 83.8131 72.6114 87.2392 72.253C87.5436 72.2149 87.5653 72.1139 87.2679 72.1394C83.8498 72.3904 80.2177 73.4298 76.8577 75.155C73.5085 76.8455 70.4093 79.0603 67.72 81.5733C66.805 82.4339 66.5558 83.0229 66.739 83.1259C66.9222 83.2289 67.4759 82.8959 68.3361 82.0411L68.3292 82.0536Z" fill="#567837"/>
<path d="M80.5747 74.1638C80.4479 72.7204 84.8662 68.9469 89.1561 69.8019C93.4152 70.6661 98.7655 70.4912 96.5709 71.2602C94.3866 72.0261 80.9605 78.9334 80.5645 74.1668L80.5747 74.1638Z" fill="#8FAA4B"/>
<path d="M96.5709 71.26C98.7552 70.4941 93.4049 70.6691 89.1561 69.8018C88.9006 69.7518 88.638 69.7145 88.3821 69.6961C86.952 70.8047 86.2832 72.2434 87.2679 72.1392C88.2322 72.0412 91.7689 72.1646 94.673 72.0667C95.538 71.6831 96.2176 71.3862 96.5811 71.257L96.5709 71.26Z" fill="#A0C269"/>
<path d="M86.81 75.1326C85.9442 74.9912 85.1833 74.6295 84.5631 73.9213C83.0967 72.2466 84.1644 71.1724 85.5878 70.0448C82.7261 70.9179 80.4876 73.1285 80.578 74.173C80.7582 76.3252 83.5715 76.0968 86.8133 75.1421L86.81 75.1326Z" fill="#7D962A"/>
<path d="M69.0966 104.126C67.6537 101.604 65.9092 99.1611 63.6566 96.9536C62.5285 95.8609 61.2495 94.8237 59.7322 94.0149C58.2285 93.2127 56.3771 92.6505 54.5863 92.753C54.272 92.7626 54.3139 92.9812 54.6142 92.9968C56.3282 93.0327 57.9329 93.6683 59.2039 94.5189C60.4884 95.3759 61.535 96.4299 62.441 97.5362C64.2459 99.7613 65.5736 102.213 66.6964 104.662C67.0795 105.504 67.8822 105.79 68.5255 105.683C69.1585 105.578 69.5888 104.988 69.0933 104.116L69.0966 104.126Z" fill="#5B7A38"/>
<path d="M58.7308 93.1887C58.7773 92.1139 55.2159 91.168 48.9522 92.6654C42.6206 94.1304 53.2195 94.5986 54.4562 95.1547C55.693 95.7109 58.636 95.7905 58.7308 93.1887Z" fill="#7A9439"/>
<path d="M54.4562 95.1538C54.592 95.2183 54.7451 95.2673 54.9188 95.3101C55.3374 94.8494 55.457 94.2465 55.1334 93.576C54.49 92.213 51.565 92.3486 48.2534 92.841C43.5286 94.1637 53.2705 94.6139 54.4562 95.1538Z" fill="#81A841"/>
<path d="M72.1606 54.18C74.5432 50.7184 77.2108 47.4242 80.2989 44.3933C81.8394 42.8842 83.5459 41.4937 85.327 40.1546C87.1859 38.8763 89.126 37.6684 91.3433 36.7036C91.7245 36.5271 91.6268 36.4091 91.2321 36.5791C88.9472 37.4801 86.9087 38.6332 84.9513 39.8568C83.0686 41.1317 81.2431 42.4735 79.5938 43.931C76.2851 46.849 73.3862 50.065 70.8298 53.4838C69.9726 54.6739 69.9327 55.4736 70.2859 55.6415C70.6392 55.8095 71.3614 55.3738 72.1606 54.18Z" fill="#6C8240"/>
<path d="M82.1169 39.534C81.2163 40.9261 82.3925 44.6725 87.7092 42.9634C93.0427 41.2703 96.8533 34.5054 101.879 32.5152C106.926 30.5505 108.659 28.9104 102.238 30.1817C95.8193 31.4625 84.7895 35.5029 82.1271 39.5309L82.1169 39.534Z" fill="#99B054"/>
<path d="M88.4287 38.8945C89.559 36.5307 98.7884 34.3288 97.1712 33.5919C95.5404 32.8484 86.6706 38.8297 86.2985 37.6275C86.055 36.8282 89.2941 34.9183 92.0863 33.2571C87.6535 35.0287 83.5975 37.2973 82.1202 39.5439C81.2196 40.936 82.3958 44.6824 87.7125 42.9733C89.6629 42.3506 91.3958 41.0363 93.0627 39.5316C90.0791 40.9031 87.595 40.7079 88.432 38.904L88.4287 38.8945Z" fill="#8EA348"/>
<path d="M87.6474 42.9812C87.5089 42.2556 86.993 41.6844 86.1044 41.7389C83.5205 41.9095 83.65 40.747 84.9512 39.8554C85.922 39.1882 85.3042 37.9646 83.9456 37.6128C83.1665 38.2439 82.5409 38.8924 82.1169 39.5333C81.2266 40.9224 82.3826 44.6433 87.6474 42.9812Z" fill="#819434"/>
<path d="M99.9674 30.7C99.8976 30.8258 100.163 30.8727 100.915 30.8801C102.301 30.8874 103.345 31.2804 104.289 31.4826C107.287 30.0543 107.471 29.1485 102.227 30.1847C101.526 30.32 100.759 30.4959 99.9674 30.7Z" fill="#97B360"/>
<path d="M98.9359 32.4977C93.0351 34.8113 87.6771 37.7407 83.2129 41.3494C83.0543 41.4806 82.7235 41.7367 82.2895 42.055C82.3836 42.195 82.4981 42.329 82.623 42.4599C83.1359 42.1076 83.5251 41.8236 83.7009 41.6767C88.0153 38.0287 93.1871 34.9552 98.9866 32.5456C99.244 32.4375 99.1966 32.399 98.9359 32.4977Z" fill="#819434"/>
<path d="M85.5694 40.1644C86.2377 39.9655 86.9265 39.7604 87.6319 39.6029L88.1624 39.4974C88.3405 39.4549 88.5219 39.4219 88.7066 39.3984C88.8913 39.3749 89.0727 39.3419 89.2607 39.328L89.8313 39.3051C89.8996 39.3058 89.893 39.2868 89.8213 39.2766L89.2338 39.2834C89.0425 39.2879 88.8578 39.3114 88.6596 39.3284C88.4716 39.3423 88.2766 39.3689 88.0952 39.4019L87.5342 39.4849C86.8086 39.6169 86.093 39.7774 85.3975 39.9635C84.9213 40.0948 85.0998 40.3148 85.5489 40.1705L85.5694 40.1644Z" fill="#819434"/>
<path d="M88.5745 37.8106C88.9732 37.2928 89.3822 36.7718 89.7945 36.2604C90.0023 36.0095 90.217 35.7459 90.4384 35.5014C90.6598 35.257 90.8779 35.0029 91.1569 34.7938C91.2017 34.7595 91.1815 34.734 91.1265 34.7714C90.8236 34.9771 90.5886 35.2151 90.3433 35.4562C90.0981 35.6973 89.8664 35.9449 89.6417 36.1798C89.1784 36.6749 88.7389 37.1734 88.3028 37.6815C88.005 38.0327 88.2937 38.1779 88.5675 37.8232L88.5745 37.8106Z" fill="#819434"/>
<path d="M92.2211 35.7996C92.8226 35.4735 93.4577 35.1793 94.1436 34.9331C94.8328 34.6964 95.5661 34.4885 96.3889 34.5061C96.4572 34.5068 96.4609 34.4847 96.379 34.4776C95.536 34.4345 94.7689 34.6103 94.046 34.8151C93.3263 35.0294 92.6503 35.3042 92.0082 35.6109C91.572 35.8248 91.8088 36.0169 92.2075 35.7932L92.2211 35.7996Z" fill="#819434"/>
<path d="M68.7749 67.9521C69.9784 66.6484 71.3552 65.4191 72.9652 64.404C74.5785 63.3984 76.4356 62.5723 78.5601 62.2549C79.1138 62.2161 79.6099 62.1419 80.2044 62.1225C80.775 62.0996 81.3422 62.0673 81.9202 62.0002C83.0588 61.8818 84.1776 61.7062 85.2399 61.4005C86.2885 61.0882 87.2501 60.6234 88.0083 60.03C88.7767 59.4335 89.3076 58.7082 89.8315 57.9955C90.0187 57.7507 89.8693 57.6796 89.6685 57.918C89.1038 58.6113 88.5358 59.2951 87.7611 59.8409C86.9967 60.3837 86.0597 60.7887 85.0254 61.0442C84.0046 61.3061 82.9001 61.4248 81.7894 61.493C81.246 61.5287 80.6721 61.542 80.0948 61.5458C79.5485 61.5404 78.9195 61.5912 78.3386 61.6171C75.9861 61.8658 73.9343 62.6868 72.1437 63.6717C70.3732 64.682 68.8532 65.8909 67.5198 67.2123C66.6111 68.1236 66.5825 68.8254 66.9324 68.9838C67.2857 69.1518 67.962 68.8454 68.7852 67.949L68.7749 67.9521Z" fill="#637D45"/>
<path d="M78.3902 59.8048C77.6149 61.2961 78.007 63.7319 82.8516 63.2768C87.6793 62.8058 91.8518 58.1285 96.1281 52.4435C100.519 46.8607 100.658 46.0841 98.0491 48.1425C95.457 50.2168 90.0228 54.7235 86.1311 55.4726C82.2258 56.2152 79.5077 57.6653 78.3902 59.8048Z" fill="#94B856"/>
<path d="M88.2282 59.0285C85.9504 61.3874 81.1539 61.5235 81.0082 59.34C80.9178 58.0014 81.7644 57.1401 83.113 56.2868C80.8222 57.1055 79.1968 58.2722 78.4038 59.8108C77.6285 61.3022 78.0206 63.738 82.8652 63.2829C87.1425 62.8602 90.8874 59.1401 94.6549 54.3418C92.4097 55.6511 89.3443 57.8979 88.2282 59.0285Z" fill="#98B54D"/>
<path d="M98.049 48.1415C96.6358 49.266 94.3778 51.0938 91.9965 52.6642C96.3016 51.3088 98.0565 49.5678 99.5148 47.7891C100.138 46.7105 99.5518 46.9482 98.049 48.1415Z" fill="#ABCC76"/>
<path d="M85.5358 59.1143C85.6908 59.0052 87.2306 57.8534 87.1289 57.7891C87.1289 57.7891 85.1804 59.1361 84.9741 59.2606C84.1762 59.7397 83.3141 60.1645 82.4318 60.5637C81.5187 60.9722 80.6558 61.4602 79.605 61.668C79.0847 61.7704 78.65 61.8579 78.2839 61.9143C78.3606 62.0701 78.4683 62.2166 78.5964 62.357C79.0616 62.292 79.4277 62.2355 79.4894 62.2172C79.4585 62.2263 79.4585 62.2263 79.4894 62.2172C81.6124 62.0262 82.3823 61.0092 83.7023 60.2695C84.3382 59.9121 84.9506 59.5197 85.5358 59.1143Z" fill="#658F4F"/>
<path d="M80.8967 61.3062C81.3632 60.2324 81.973 59.179 82.9765 58.3445C83.0213 58.3101 82.9908 58.2877 82.946 58.322C81.8713 59.1147 81.1389 60.1416 80.604 61.2147C80.4289 61.5925 80.7524 61.6748 80.8967 61.3062Z" fill="#658F4F"/>
<path d="M84.2681 60.0703C86.2784 59.2931 87.9203 58.174 89.4873 57.0351C89.5597 56.9821 89.5325 56.9692 89.4569 57.0127C87.8289 58.1067 86.0922 59.149 84.1066 59.8663C83.7706 59.9768 83.6226 60.0734 83.6527 60.1274C83.6726 60.1846 83.9046 60.1995 84.2545 60.0638L84.2681 60.0703Z" fill="#658F4F"/>
<path d="M69.8841 99.7946C69.8214 97.2293 69.4793 94.6105 68.7137 91.9813C67.9754 89.365 66.7285 86.7215 64.8159 84.3498C62.8794 81.9747 60.18 80.0158 57.3074 78.8648C54.4248 77.6853 51.4564 77.1406 48.617 76.9671C48.1154 76.9274 48.1444 77.0763 48.6526 77.1351C51.4877 77.3939 54.4208 78.0331 57.1969 79.2654C59.9631 80.4691 62.4374 82.4004 64.1836 84.6851C65.906 86.9664 67.0005 89.4977 67.6136 92.0147C68.2506 94.5352 68.505 97.0645 68.4903 99.5374C68.4776 101.232 68.7369 102.143 69.0909 102.247C69.4449 102.352 69.9148 101.582 69.8771 99.8072L69.8841 99.7946Z" fill="#5B7A38"/>
<path d="M64.6212 80.7839C65.8257 84.4485 60.8816 88.7987 51.2126 83.2007C41.4297 77.4055 29.0347 72.157 25.8202 74.3011C22.619 76.4833 24.5836 68.6819 35.3039 67.8009C46.0308 66.9389 61.2166 70.3586 64.6212 80.7839Z" fill="#96BF43"/>
<path d="M25.8202 74.3011C26.3262 73.9614 27.0657 73.8042 27.9774 73.8164C34.7651 72.4886 43.6239 76.6682 46.1586 73.3505C48.2314 70.6954 44.418 69.0893 40.3935 67.7245C38.6288 67.6407 36.914 67.6681 35.3039 67.8009C24.5836 68.6819 22.619 76.4833 25.8202 74.3011Z" fill="#8DB357"/>
<path d="M46.9996 68.5205C53.4911 71.8608 59.9797 75.454 61.0463 77.7415C62.7563 81.392 54.227 75.5808 56.7245 77.5787C59.205 79.5608 60.8259 83.8366 57.0101 83.6282C53.1877 83.4008 45.5172 77.4493 38.6117 75.955C37.1639 75.6403 35.8684 75.4377 34.6949 75.325C39.6954 77.0504 45.8494 80.0395 51.2125 83.201C60.8816 88.799 65.8153 84.4518 64.6212 80.7843C62.3512 73.8551 54.9119 70.0722 47.0029 68.53L46.9996 68.5205Z" fill="#81A83E"/>
<path d="M27.0586 70.5503C30.4179 69.7707 35.1712 70.4247 37.3769 69.8835C39.1235 69.458 38.1445 68.468 35.6149 67.7821C35.5157 67.7906 35.403 67.7927 35.3039 67.8012C31.5197 68.1086 28.8254 69.268 27.0689 70.5472L27.0586 70.5503Z" fill="#A1BA63"/>
<path d="M62.188 81.8117C60.1106 79.8147 57.7612 78.0143 55.2689 76.4559C52.7561 74.9037 50.0729 73.6123 47.3446 72.6809L46.3171 72.3355C45.9734 72.2278 45.6261 72.1421 45.2857 72.0439L44.7683 71.8934L44.2506 71.7744L43.2151 71.5365C41.8385 71.2636 40.4648 71.0319 39.1271 70.9364C36.4283 70.7106 33.8212 70.8146 31.3611 71.2109C30.9268 71.2667 30.9499 71.3334 31.3876 71.2871C33.8642 70.9383 36.4812 70.8629 39.1727 71.133C40.5169 71.2474 41.8766 71.5043 43.2327 71.7833L44.2509 72.0369L44.7617 72.1684L45.2688 72.3221C45.6092 72.4203 45.9496 72.5185 46.283 72.6293L47.3002 72.9777C49.9906 73.9309 52.6224 75.2376 55.0703 76.7987C57.5045 78.3533 59.796 80.15 61.8088 82.1243C62.3593 82.6641 63.1253 83.4655 63.8576 84.2348C63.9475 84.1345 64.0374 84.0342 64.1138 83.9274C63.4568 83.1462 62.7418 82.3611 62.1946 81.8308L62.188 81.8117Z" fill="#719626"/>
<path d="M61.3313 80.5861C61.0473 79.1476 60.5724 77.6818 59.7655 76.2729C59.3637 75.5732 58.8558 74.8946 58.2481 74.2877C57.9407 73.9906 57.6058 73.7122 57.2364 73.465C56.8703 73.2274 56.4869 73.0054 56.0892 72.8402C55.9533 72.7756 55.9394 72.8008 56.0786 72.8749C56.4693 73.0527 56.8424 73.2777 57.1982 73.5184C57.5471 73.7717 57.8717 74.0532 58.1688 74.3534C58.756 74.9664 59.2264 75.6351 59.6043 76.3314C60.3601 77.724 60.7807 79.1639 61.0343 80.58C61.1107 81.0615 61.2102 81.3155 61.2921 81.3226C61.3637 81.3328 61.4177 81.0961 61.3276 80.6082L61.3313 80.5861Z" fill="#719626"/>
<path d="M61.23 81.9607C59.8578 82.1907 58.4523 82.3571 57.0033 82.4314C55.5581 82.4835 54.0659 82.4656 52.5472 82.0775C52.4109 82.0445 52.4106 82.0762 52.5468 82.1091C54.0787 82.5353 55.5875 82.6008 57.0562 82.5837C58.5217 82.557 59.9508 82.4256 61.3534 82.2181C62.3114 82.0694 62.1677 81.7865 61.23 81.9607Z" fill="#719626"/>
<path d="M55.3387 76.3304C54.4529 75.2495 53.5157 74.1841 52.5267 73.1655C52.0306 72.6514 51.5172 72.153 50.9763 71.6733C50.4354 71.1936 49.8533 70.7262 49.2118 70.3815C49.0998 70.3203 49.0859 70.3454 49.1979 70.4066C49.8291 70.7544 50.3939 71.2375 50.9143 71.7233C51.4449 72.2061 51.941 72.7201 52.4166 73.2403C53.378 74.2776 54.2638 75.3584 55.129 76.4453C55.7045 77.1878 55.9516 77.0827 55.3522 76.3368L55.3387 76.3304Z" fill="#719626"/>
<path d="M55.6002 77.3449L53.1419 77.2891L50.6637 77.1761C49.8375 77.149 49.0051 77.0712 48.169 77.0155L45.6611 76.8169C45.5109 76.8091 45.5208 76.8376 45.671 76.8454L48.1885 77.1043C49.0209 77.1821 49.8632 77.2884 50.696 77.3346L53.194 77.5046C54.0268 77.5508 54.853 77.5779 55.6791 77.605C56.7991 77.6287 56.7238 77.3465 55.6002 77.3449Z" fill="#719626"/>
<path d="M46.7644 72.3497C46.2521 71.7564 45.702 71.1849 45.1104 70.6573C44.5085 70.1327 43.8552 69.6234 43.1278 69.3253C43.0632 69.3025 43.0562 69.3151 43.1344 69.3443C43.8549 69.655 44.4806 70.183 45.0517 70.7168C45.6157 71.2631 46.1453 71.8407 46.6337 72.4306C46.9569 72.8386 47.125 72.7675 46.778 72.3561L46.7644 72.3497Z" fill="#719626"/>
<path d="M40.009 70.8636C39.2283 70.4448 38.4369 70.0607 37.6346 69.7428C36.8253 69.4376 35.9917 69.1605 35.2129 69.1718C35.1446 69.1712 35.1513 69.1902 35.2196 69.1909C35.9947 69.2017 36.8246 69.5008 37.6199 69.8312C38.4186 70.1712 39.1927 70.5709 39.9561 71.0054C40.4684 71.3045 40.5521 71.1536 40.0192 70.8605L40.009 70.8636Z" fill="#719626"/>
<path d="M47.9127 73.1743C45.9196 73.3476 43.953 73.597 41.8707 73.5132C41.7785 73.5092 41.7884 73.5377 41.8773 73.5323C43.9762 73.6637 45.9795 73.4873 47.9858 73.3522C48.1532 73.3443 48.2832 73.3266 48.3552 73.3052C48.4271 73.2838 48.4786 73.2685 48.4822 73.2464C48.4756 73.2273 48.4385 73.1858 48.3328 73.1753C48.2237 73.1553 48.0871 73.1539 47.923 73.1713L47.9127 73.1743Z" fill="#719626"/>
<path d="M36.5729 70.9007C36.0298 71.1989 35.4802 71.4781 34.9103 71.7318C34.6048 71.8648 34.296 71.9883 33.9839 72.1022C33.6685 72.2066 33.3293 72.3076 32.9772 72.339C32.9122 72.3478 32.9188 72.3668 32.9838 72.358C33.3528 72.3427 33.6954 72.2512 34.0277 72.1627C34.3567 72.0648 34.6823 71.9573 34.9911 71.8338C35.6223 71.5934 36.2197 71.321 36.8071 71.02C36.8655 70.9921 36.9103 70.9578 36.9448 70.9265C36.7979 70.9282 36.6819 70.9207 36.5729 70.9007Z" fill="#719626"/>
<path d="M77.5176 122.038C76.5775 117.958 76.0442 113.842 76.3911 109.81C76.5917 107.807 77.0244 105.819 77.9201 103.956C78.3544 103.018 78.9554 102.135 79.6819 101.32C80.4085 100.505 81.3084 99.7641 82.3871 99.2118C82.7583 99.0067 82.6103 98.8092 82.2017 99.0044C81.0311 99.521 80.0324 100.239 79.2001 101.043C78.3678 101.848 77.6541 102.732 77.1104 103.682C75.9925 105.559 75.3341 107.583 74.9315 109.625C74.1704 113.738 74.3167 117.949 74.9991 122.168C75.2522 123.616 76.1255 124.301 76.7717 124.235C77.4282 124.165 77.8772 123.433 77.5381 122.032L77.5176 122.038Z" fill="#5B7A38"/>
<path d="M82.5258 95.1677C80.5487 96.3342 77.4369 100.832 84.3781 102.789C91.2579 104.732 91.1508 99.4904 98.3369 94.9979C105.445 90.476 102.713 92.5395 98.5723 92.3437C94.3944 92.1381 86.9101 92.5703 82.5291 95.1773L82.5258 95.1677Z" fill="#86AA4B"/>
<path d="M82.5258 95.1677C80.5487 96.3342 77.4369 100.832 84.3781 102.789C88.9295 104.07 90.409 102.222 92.9776 99.5243C91.6793 100.163 90.4874 100.749 89.7638 101.017C86.9685 102.049 86.8934 100.558 88.9994 99.1751C91.1055 97.7917 86.4624 98.2393 85.1175 99.0705C83.7726 99.9016 81.7558 98.2752 84.6766 96.1345C87.5837 93.9874 94.5849 94.5814 99.6579 94.1633C105.062 90.7474 102.436 92.5273 98.5723 92.3437C94.3944 92.1381 86.9101 92.5703 82.5291 95.1773L82.5258 95.1677Z" fill="#85AA3C"/>
<path d="M92.4453 97.4046C92.9975 97.4923 93.8917 97.5517 94.9363 97.5873C95.7576 96.8491 96.6953 96.0867 97.8173 95.3324C96.2237 95.2187 94.8104 95.1668 93.4229 95.5484C90.7337 96.2651 90.151 97.0373 92.4453 97.4046Z" fill="#96B35D"/>
<path d="M97.6031 93.7668C94.6844 94.2472 91.8112 94.9241 88.9413 95.6105C86.0263 96.3629 83.4694 97.7545 81.326 99.4221C81.102 99.5938 80.7639 99.8941 80.3978 100.245C80.468 100.381 80.5517 100.524 80.6527 100.652C81.1146 100.283 81.542 99.946 81.7799 99.7491C83.8139 98.0931 86.2585 96.6719 89.0545 95.8709C91.8979 95.1084 94.7273 94.3709 97.6229 93.8239C97.8796 93.779 97.8597 93.7219 97.6031 93.7668Z" fill="#75A33A"/>
<path d="M83.0744 98.8403C84.1334 98.525 85.2158 98.2447 86.3144 98.0437C86.8688 97.9416 87.4196 97.8617 87.9869 97.8293C88.5439 97.8 89.1347 97.8027 89.6587 97.9723C89.7472 97.9985 89.7645 97.9828 89.6727 97.9471C89.1421 97.7585 88.548 97.7463 87.9741 97.7596C87.4001 97.7729 86.8325 97.8369 86.2611 97.923C85.1288 98.0921 84.0228 98.3373 82.947 98.6367C82.2035 98.8475 82.3375 99.0702 83.0572 98.856L83.0744 98.8403Z" fill="#75A33A"/>
<path d="M88.5562 95.8414C89.0118 95.4222 89.4946 95.0158 90.0112 94.6414C90.5278 94.267 91.0852 93.912 91.7332 93.6875C91.7949 93.6691 91.7747 93.6436 91.7233 93.6589C91.0448 93.861 90.4569 94.1936 89.8996 94.5486C89.3422 94.9036 88.8187 95.2906 88.3256 95.7C87.9944 95.9877 88.2522 96.142 88.5492 95.854L88.5562 95.8414Z" fill="#75A33A"/>
<path d="M93.7286 94.7952C94.2537 94.8699 94.7858 94.9321 95.3079 94.9657C95.5741 94.981 95.8403 94.9963 96.1102 94.9894C96.2468 94.9908 96.3801 94.9826 96.5101 94.9649C96.6265 94.9408 96.8009 94.9203 96.8534 94.8102C96.8607 94.766 96.8401 94.7721 96.8159 94.8003C96.7671 94.8884 96.6132 94.9027 96.4935 94.9173C96.3603 94.9255 96.234 94.9211 96.1076 94.9167C95.8414 94.9014 95.5925 94.8705 95.3299 94.8331C94.8184 94.7648 94.297 94.668 93.7859 94.5681C93.4451 94.5014 93.357 94.7378 93.7286 94.7952Z" fill="#75A33A"/>
<path d="M71.3198 53.0322C71.3049 50.4736 70.4979 47.8882 69.5502 45.3553C68.4763 42.8179 67.2033 40.3607 66.2619 37.8784C65.3103 35.3992 64.6079 32.9192 64.3421 30.4878C64.2058 29.2784 64.2365 28.0928 64.4306 26.9531C64.6383 25.8198 65.0469 24.7423 65.8087 23.8327C66.0719 23.5127 65.9261 23.4195 65.639 23.7361C64.8159 24.6325 64.3423 25.7188 64.0799 26.8579C63.8208 28.0065 63.7354 29.1979 63.8204 30.4226C63.9698 32.8781 64.5693 35.3887 65.4215 37.9081C66.2769 40.437 67.4673 42.9502 68.402 45.4135C69.2377 47.8853 69.9191 50.403 69.8474 52.7773C69.8116 54.4056 69.8573 55.1904 70.2138 55.3678C70.5634 55.5578 71.3472 54.8097 71.3231 53.0417L71.3198 53.0322Z" fill="#65803A"/>
<path d="M62.4031 24.4798C62.0254 25.2541 61.7329 26.0449 61.5119 26.846C61.4965 26.9977 61.5024 27.08 61.4983 27.1337C61.6588 26.8443 62.0592 25.5801 62.4031 24.4798Z" fill="black"/>
<path d="M69.4491 37.224C68.7923 38.2073 63.1943 39.7271 61.6335 34.3829C60.0963 29.0738 61.5954 24.93 64.1021 21.6626C66.6493 18.4461 70.23 14.7434 69.4798 17.0256C68.7464 19.3238 68.6339 24.6515 69.6649 27.3592C70.696 30.067 72.03 33.4513 69.4355 37.2175L69.4491 37.224Z" fill="#AFC760"/>
<path d="M64.1124 21.6584C61.9768 24.4266 60.5749 27.8378 61.1446 32.0589C62.7861 33.3559 64.34 33.0613 63.8102 30.4249C62.4838 23.6979 65.3645 24.4474 66.1689 26.6659C66.9733 28.8843 67.998 30.9532 67.4952 27.1533C67.2406 25.2438 68.062 23.0034 68.9551 20.4791C69.0357 19.1105 69.2276 17.8664 69.4934 17.031C70.2436 14.7488 66.6629 18.4515 64.1157 21.6679L64.1124 21.6584Z" fill="#BDD977"/>
<path d="M65.2115 34.7878C65.0948 35.7259 64.0106 36.4584 62.7291 36.5248C64.9454 39.2158 68.9035 38.0373 69.4491 37.2236C72.0402 33.4478 70.7095 30.073 69.6785 27.3653C69.6752 27.3558 69.6719 27.3463 69.6686 27.3367C68.9844 29.5152 68.7049 31.8464 68.5332 33.4101C68.2582 35.95 65.4334 33.0095 65.2148 34.7973L65.2115 34.7878Z" fill="#98B84D"/>
<path d="M64.8368 27.8618C64.5144 28.567 64.4576 29.3507 64.4588 30.1382C64.46 30.9257 64.5122 31.7295 64.6122 32.54C64.7986 34.1547 65.0929 36.4725 65.4838 38.1209C65.7735 38.1712 66.0669 38.1993 66.3401 38.202C66.3276 38.1007 66.3118 37.9899 66.2791 37.8631C65.8266 36.2331 65.2557 34.1972 64.9669 32.5815C64.8225 31.7736 64.7156 30.9756 64.6769 30.1783C64.6313 29.3936 64.6404 28.603 64.915 27.891C64.9609 27.7618 64.8929 27.7295 64.8368 27.8618Z" fill="#8CA846"/>
<path d="M66.1549 36.7874C66.8367 36.3008 67.4542 35.7598 67.9462 35.1511C68.4517 34.5489 68.8317 33.8791 68.9701 33.1341C68.9811 33.0678 68.9436 33.0579 68.9326 33.1242C68.7535 33.8498 68.3295 34.4908 67.7901 35.061C67.2644 35.6378 66.6131 36.1468 65.9214 36.6049C65.6805 36.7606 65.621 36.8834 65.6717 36.9313C65.736 36.9857 65.9174 36.9527 66.1549 36.7874Z" fill="#8CA846"/>
<path d="M65.2416 36.018C64.523 35.5492 63.8425 35.027 63.2788 34.4491C62.9884 34.1679 62.7563 33.8589 62.555 33.5406C62.3674 33.2289 62.2311 32.9018 62.187 32.5788C62.1672 32.5217 62.1433 32.5183 62.1495 32.5689C62.1801 32.8855 62.2855 33.2217 62.4661 33.5461C62.6468 33.8704 62.872 34.1921 63.1452 34.4889C63.6847 35.0951 64.3545 35.6519 65.0727 36.1524C65.3235 36.3193 65.4973 36.3621 65.5387 36.3182C65.5802 36.2744 65.4825 36.1564 65.2453 35.9959L65.2416 36.018Z" fill="#8CA846"/>
<path d="M65.7467 34.2722C66.5122 33.6347 67.1826 32.9518 67.7072 32.1759C68.2351 31.4095 68.6 30.5655 68.6278 29.6329C68.6355 29.557 68.598 29.5472 68.5903 29.623C68.5218 30.5363 68.1025 31.3544 67.5408 32.0889C66.9791 32.8233 66.2782 33.4837 65.5028 34.0927C65.2341 34.2988 65.1573 34.4372 65.2216 34.4916C65.2826 34.5365 65.4915 34.4848 65.7569 34.2692L65.7467 34.2722Z" fill="#8CA846"/>
<path d="M64.7855 32.6142C64.1139 31.9213 63.4594 31.2128 63.1337 30.4379C63.1204 30.3999 63.0863 30.3995 63.0995 30.4376C63.3364 31.2179 63.9115 31.9921 64.5454 32.7067C64.7646 32.946 65.0253 32.8474 64.7855 32.6142Z" fill="#8CA846"/>
<path d="M64.6774 31.0299C65.3019 30.4763 66.0997 29.703 66.3948 28.9849C66.4055 28.9502 66.3783 28.9373 66.3574 28.9751C65.991 29.6514 65.3088 30.1696 64.6439 30.6722C64.4064 30.8375 64.4498 31.2237 64.6671 31.033L64.6774 31.0299Z" fill="#8CA846"/>
<path d="M96.3886 148.614C97.1568 145.665 97.0396 142.486 96.7275 139.333C96.2862 136.134 95.5746 132.974 95.2584 129.875C94.932 126.779 94.885 123.736 95.3345 120.882C95.5524 119.451 95.954 118.092 96.5285 116.839C97.1166 115.593 97.9254 114.459 99.0859 113.62C99.4821 113.323 99.3403 113.177 98.917 113.46C97.6918 114.277 96.8217 115.397 96.1587 116.624C95.5126 117.867 95.0428 119.225 94.7532 120.645C94.1672 123.498 94.0706 126.552 94.2806 129.673C94.4804 132.796 95.0719 136.002 95.3814 139.082C95.5716 142.145 95.5808 145.21 94.7641 147.922C94.2304 149.782 94.0355 150.691 94.3873 150.986C94.7322 151.293 95.8667 150.64 96.3853 148.605L96.3886 148.614Z" fill="#65803A"/>
<path d="M94.9727 113.436C94.3045 114.223 93.7075 115.052 93.2127 115.914C93.1562 116.078 93.1242 116.182 93.1099 116.238C93.3831 115.947 94.2351 114.611 94.9624 113.439L94.9727 113.436Z" fill="black"/>
<path d="M99.127 129.943C98.0711 130.887 91.1761 131.155 91.0362 124.61C90.9095 118.104 93.9173 113.731 97.8051 110.651C101.726 107.635 106.986 104.325 105.425 106.755C103.87 109.203 102.096 115.298 102.44 118.673C102.787 122.057 103.271 126.293 99.127 129.943Z" fill="#AFC760"/>
<path d="M97.8051 110.651C94.493 113.265 91.8361 116.819 91.1879 121.812C92.6752 123.743 94.546 123.806 94.7601 120.633C95.3139 112.558 98.393 114.173 98.6276 116.939C98.8724 119.703 99.4088 122.358 100 117.854C100.306 115.599 101.935 113.234 103.742 110.564C104.258 109.013 104.858 107.637 105.422 106.744C106.983 104.315 101.723 107.625 97.8018 110.641L97.8051 110.651Z" fill="#BDD977"/>
<path d="M95.009 126.022C94.5905 127.071 93.1156 127.626 91.6193 127.367C93.329 131.05 98.247 130.741 99.1304 129.952C103.274 126.303 102.79 122.066 102.443 118.682C102.44 118.673 102.433 118.654 102.43 118.644C100.969 120.97 99.9346 123.578 99.2452 125.317C98.1469 128.165 95.8174 124.038 94.9988 126.025L95.009 126.022Z" fill="#98B84D"/>
<path d="M96.7273 117.966C96.1384 118.687 95.8345 119.576 95.5816 120.481C95.3287 121.386 95.1437 122.324 95.0098 123.278C94.7317 125.188 94.3553 127.926 94.288 129.921C94.6074 130.057 94.9273 130.162 95.2508 130.244C95.2658 130.124 95.2878 129.991 95.2794 129.836C95.2681 127.844 95.2318 125.354 95.4112 123.421C95.494 122.451 95.6177 121.5 95.8195 120.579C96.0111 119.66 96.2742 118.752 96.8018 118.017C96.8921 117.885 96.8176 117.834 96.724 117.956L96.7273 117.966Z" fill="#8CA846"/>
<path d="M95.4852 128.567C96.4185 128.184 97.2913 127.725 98.0491 127.163C98.8102 126.611 99.4601 125.934 99.8451 125.116C99.8767 125.043 99.8462 125.021 99.8044 125.097C99.3752 125.886 98.685 126.512 97.8868 127.023C97.1022 127.54 96.2026 127.955 95.2663 128.296C94.9439 128.413 94.8265 128.532 94.8871 128.609C94.9341 128.679 95.1694 128.703 95.4885 128.577L95.4852 128.567Z" fill="#8CA846"/>
<path d="M94.6648 127.445C93.9799 126.714 93.3604 125.943 92.895 125.125C92.6537 124.724 92.4742 124.305 92.3423 123.893C92.2207 123.477 92.1707 123.072 92.2092 122.693C92.2099 122.63 92.1795 122.607 92.1685 122.673C92.1061 123.049 92.1252 123.464 92.2262 123.885C92.3376 124.304 92.4863 124.732 92.7137 125.158C93.1412 125.997 93.7431 126.816 94.4173 127.582C94.6567 127.846 94.847 127.937 94.902 127.899C94.9571 127.862 94.9009 127.7 94.6681 127.454L94.6648 127.445Z" fill="#8CA846"/>
<path d="M95.7859 125.577C96.861 125.047 97.8516 124.437 98.6799 123.686C99.525 122.951 100.208 122.076 100.521 121.016C100.556 120.921 100.518 120.912 100.48 120.997C100.123 122.027 99.3895 122.855 98.5175 123.545C97.6489 124.245 96.6348 124.82 95.5535 125.3C95.1793 125.464 95.0479 125.608 95.1052 125.675C95.1624 125.742 95.4118 125.741 95.7929 125.564L95.7859 125.577Z" fill="#8CA846"/>
<path d="M95.1925 123.414C94.6299 122.447 94.1018 121.449 93.9695 120.48C93.9562 120.441 93.9188 120.432 93.9217 120.473C93.9516 121.441 94.3769 122.47 94.8812 123.464C95.0549 123.801 95.3901 123.754 95.1958 123.423L95.1925 123.414Z" fill="#8CA846"/>
<path d="M95.5519 121.573C96.4349 121.111 97.6039 120.426 98.1623 119.682C98.1866 119.654 98.1425 119.625 98.1183 119.653C97.4787 120.327 96.5483 120.751 95.6319 121.15C95.3128 121.277 95.2427 121.728 95.5519 121.573Z" fill="#8CA846"/>
<path d="M56.553 54.4769C55.8676 54.9856 50.9368 56.6953 47.6052 52.0991C44.3007 47.5157 43.8279 42.5934 43.7088 38.1016C43.6473 33.6451 41.2193 26.1957 45.1164 30.3295C49.0168 34.4728 50.2309 35.813 54.1256 38.9601C58.017 42.0976 60.5624 51.5184 56.553 54.4769Z" fill="#8DA834"/>
<path d="M45.1164 30.33C44.7789 29.9789 44.4918 29.7072 44.2446 29.5182C44.2525 34.4738 46.6299 42.4635 50.1349 47.4283C52.9043 51.3201 54.5664 53.4933 55.6057 54.8856C56.0684 54.7478 56.4084 54.5836 56.5497 54.4679C60.5591 51.5094 58.0137 42.0887 54.1223 38.9511C50.2276 35.804 49.0135 34.4638 45.1131 30.3205L45.1164 30.33Z" fill="#81A33E"/>
<path d="M43.6984 38.1044C43.7684 40.6255 43.9292 43.2773 44.6602 45.9378C44.7416 45.0942 47.6145 48.0098 50.0047 46.2687C52.8905 44.191 45.0068 36.2862 44.9827 33.9299C44.9778 32.5764 47.3426 33.6369 48.9395 34.3484C47.8727 33.269 46.7222 32.0464 45.1093 30.3418C41.2123 26.208 43.6299 33.6604 43.7017 38.1139L43.6984 38.1044Z" fill="#9BBA4A"/>
<path d="M54.8606 42.4491C56.4035 45.4876 57.3288 54.4244 51.797 53.75C50.3272 53.5679 49.1055 53.1859 48.0898 52.711C51.3927 56.5385 55.9053 54.9638 56.5529 54.4768C60.4382 51.6183 58.1639 42.6841 54.4975 39.2799C54.188 40.0548 54.2462 41.235 54.8606 42.4491Z" fill="#6F9621"/>
<path d="M54.0921 53.4662C52.8549 52.0594 51.7722 50.575 51.0557 49.0341C50.8654 48.6496 50.7196 48.2624 50.5738 47.8751C50.5077 47.6847 50.4621 47.4882 50.4063 47.2947C50.3402 47.1043 50.3152 46.9017 50.2832 46.7116C50.1454 45.9228 50.0759 45.1347 49.9246 44.3394L49.6718 43.1542C49.591 42.758 49.4657 42.3647 49.3644 41.9747C49.1719 41.1917 48.9008 40.411 48.6638 39.6307C48.3928 38.8501 48.125 38.079 47.7889 37.3072L47.5531 36.7261C47.4734 36.5293 47.3765 36.3481 47.2865 36.1543L47.0095 35.5855L46.6677 35.0255C46.5068 34.7582 46.4451 34.7766 46.5957 35.0469L46.9137 35.6035L47.1701 36.1784C47.2601 36.3722 47.3467 36.5565 47.4264 36.7533L47.6487 37.3279C47.9609 38.0963 48.1875 38.8797 48.4553 39.6508C48.6683 40.4277 48.9156 41.2049 49.0875 41.9941C49.1786 42.3871 49.28 42.7771 49.3472 43.1668L49.5625 44.3422C49.7003 45.131 49.7356 45.9188 49.8529 46.7137C49.8779 46.9163 49.9029 47.119 49.962 47.322C50.0109 47.528 50.0564 47.7245 50.1156 47.9275C50.2544 48.3273 50.3932 48.7272 50.5765 49.1243C51.2754 50.7124 52.3474 52.2315 53.5773 53.6825C54.4333 54.6776 55.0844 55.0825 55.1979 55.0172C55.3319 54.9458 54.9654 54.4457 54.1057 53.4727L54.0921 53.4662Z" fill="#739426"/>
<path d="M51.443 49.4959C51.5787 48.6781 51.8408 47.8648 52.3001 47.1293C52.5365 46.7648 52.824 46.4166 53.1963 46.1167C53.5821 45.8232 54.0257 45.5651 54.5669 45.425C54.6594 45.3974 54.6392 45.3719 54.557 45.3964C54.0022 45.5301 53.5315 45.7753 53.1217 46.0653C52.7289 46.3714 52.4142 46.7067 52.1436 47.0709C51.6264 47.8026 51.3096 48.6217 51.1327 49.4517C51.0747 49.7421 51.1412 49.9009 51.2333 49.9049C51.3152 49.9121 51.4088 49.7897 51.4565 49.5023L51.443 49.4959Z" fill="#739426"/>
<path d="M49.8427 44.9203C49.3906 44.1411 48.8838 43.3676 48.2845 42.6217C47.9848 42.2487 47.6543 41.885 47.2757 41.546C47.0932 41.3798 46.8765 41.2132 46.6459 41.0718C46.4153 40.9303 46.1538 40.7981 45.8608 40.7383C45.762 40.7152 45.7481 40.7403 45.8469 40.7634C46.1296 40.8263 46.3808 40.9616 46.5908 41.1092C46.8111 41.2536 47.0039 41.4168 47.1795 41.5957C47.5375 41.9407 47.8339 42.3042 48.1097 42.6737C48.6543 43.4254 49.1167 44.2016 49.5243 44.9836C49.8016 45.5208 50.1233 45.4671 49.8222 44.9265L49.8427 44.9203Z" fill="#739426"/>
<path d="M52.528 51.9666C51.8295 51.5233 51.1311 51.08 50.4187 50.6619C50.0625 50.4528 49.7133 50.2311 49.3435 50.0156L48.2441 49.3976C48.1762 49.3653 48.1589 49.3809 48.2199 49.4258L49.2745 50.0782C49.6237 50.2998 49.9557 50.5371 50.3049 50.7588C50.993 51.2052 51.6537 51.6702 52.3246 52.1322C52.7854 52.4467 52.9991 52.278 52.5313 51.9761L52.528 51.9666Z" fill="#739426"/>
<path d="M53.3286 52.443C53.3061 51.7249 53.3725 51.0013 53.599 50.3141C53.8152 49.63 54.1985 48.9697 54.8634 48.4671C54.9151 48.4202 54.8847 48.3977 54.8329 48.4446C54.1305 48.9374 53.686 49.5845 53.4151 50.2744C53.1441 50.9643 53.0231 51.6936 53.0147 52.4209C53.0118 52.6739 53.1161 52.8109 53.1947 52.8085C53.2732 52.8061 53.3463 52.6898 53.3389 52.4399L53.3286 52.443Z" fill="#739426"/>
<path d="M50.341 47.923C49.7846 47.3009 49.2077 46.6848 48.5897 46.081C48.2823 45.7839 47.9646 45.4898 47.6264 45.2019C47.2882 44.9139 46.9294 44.6321 46.4914 44.4159C46.4201 44.3741 46.3959 44.4023 46.4671 44.4441C46.8846 44.6664 47.2126 44.9574 47.5302 45.2515C47.8479 45.5456 48.145 45.8458 48.4318 46.149C49.0087 46.7651 49.5445 47.3934 50.0597 48.0278C50.4134 48.4582 50.7082 48.3599 50.3307 47.9261L50.341 47.923Z" fill="#739426"/>
<path d="M50.3491 45.4324C50.8161 44.327 51.4295 43.2515 52.5218 42.4115L52.7149 42.249L52.8742 42.0545C52.933 41.995 52.9749 41.9195 53.0097 41.8566C53.0413 41.7842 53.1 41.7247 53.1213 41.6553C53.2509 41.3751 53.3192 41.0817 53.3533 40.7879C53.3976 40.197 53.2988 39.5856 53.0835 38.9985C53.0472 38.8937 53.0028 38.8965 53.0424 39.0107C53.2441 39.5914 53.3191 40.1994 53.2475 40.7774C53.1657 41.3585 52.9304 41.9222 52.3793 42.3279C51.8044 42.7302 51.341 43.2253 50.9731 43.734C50.5983 44.2553 50.2984 44.7963 50.0495 45.3536C49.888 45.7378 49.906 45.953 49.9809 45.9727C50.0661 45.9894 50.2012 45.8231 50.3525 45.4419L50.3491 45.4324Z" fill="#739426"/>
<path d="M77.8049 139.821C77.8943 140.96 76.1274 147.6 67.7508 147.52C59.4152 147.429 52.8833 144.037 47.1647 140.603C41.549 137.139 30.3134 133.825 38.568 132.932C46.8329 132.036 49.4722 131.797 56.4893 130.117C63.4859 128.443 77.2871 133.168 77.8049 139.821Z" fill="#8DA834"/>
<path d="M38.5681 132.932C37.8569 133.007 37.3024 133.109 36.864 133.219C43.0688 137.138 54.9342 140.927 63.9211 141.097C70.9857 141.221 75.0028 141.159 77.5848 141.147C77.7694 140.535 77.8399 140.052 77.8152 139.818C77.3008 133.175 63.5065 128.437 56.4997 130.114C49.4826 131.794 46.8433 132.033 38.5784 132.929L38.5681 132.932Z" fill="#81A33E"/>
<path d="M47.1681 140.612C50.3665 142.538 53.8142 144.463 57.7128 145.791C56.7345 145.032 62.6381 144.262 62.3622 140.331C62.0444 135.594 45.9303 137.766 42.9665 135.928C41.2711 134.868 44.4669 133.16 46.6214 132.014C44.4323 132.309 41.9806 132.566 38.5816 132.937C30.3303 133.839 41.5659 137.154 47.1783 140.609L47.1681 140.612Z" fill="#9BBA4A"/>
<path d="M61.4323 132.102C66.4474 132.856 78.3512 138.944 73.1253 144.345C71.7291 145.78 70.2832 146.777 68.885 147.488C76.2882 146.985 77.8983 140.907 77.8049 139.821C77.3085 133.394 64.3532 128.753 57.1877 129.973C57.9112 130.913 59.4311 131.794 61.4323 132.102Z" fill="#6F9621"/>
<path d="M74.5941 141.648C71.8527 141.855 69.148 141.841 66.6566 141.396C66.0225 141.301 65.4335 141.14 64.8375 140.992C64.5449 140.901 64.2625 140.806 63.9801 140.712C63.6874 140.62 63.419 140.5 63.1506 140.381C62.0563 139.908 61.0109 139.348 59.8994 138.891L58.2132 138.216C57.6557 137.983 57.0634 137.813 56.4921 137.605C55.3596 137.186 54.1681 136.858 53.011 136.499C51.8228 136.18 50.6485 135.836 49.4184 135.593L48.5088 135.392C48.2022 135.325 47.8919 135.281 47.5783 135.227L46.6512 135.073L45.6822 134.994C45.225 134.951 45.2 135.043 45.6469 135.088L46.602 135.193L47.5152 135.372C47.8185 135.429 48.1321 135.483 48.4284 135.552L49.324 135.779C50.5299 136.05 51.68 136.422 52.8543 136.766C53.9974 137.15 55.1647 137.506 56.2729 137.954C56.8373 138.174 57.4123 138.36 57.9492 138.6L59.5906 139.308C60.6779 139.794 61.7061 140.37 62.7897 140.877C63.0615 141.006 63.3365 141.145 63.6291 141.236C63.9251 141.337 64.2038 141.454 64.5101 141.552C65.1229 141.716 65.7185 141.896 66.3696 142.006C68.9047 142.512 71.66 142.574 74.4488 142.405C76.3662 142.276 77.3848 141.909 77.4005 141.726C77.4233 141.53 76.491 141.524 74.6143 141.673L74.5941 141.648Z" fill="#739426"/>
<path d="M67.5246 141.347C66.6117 140.547 65.8026 139.622 65.2481 138.548C64.9811 138.008 64.7761 137.417 64.6809 136.784C64.6166 136.141 64.6518 135.459 64.8988 134.765C64.9344 134.639 64.89 134.642 64.8511 134.759C64.5732 135.461 64.5105 136.163 64.5473 136.824C64.6149 137.476 64.7854 138.098 65.0282 138.666C65.5376 139.806 66.2948 140.778 67.2037 141.632C67.518 141.916 67.7769 141.976 67.8496 141.891C67.9223 141.806 67.8426 141.609 67.5213 141.338L67.5246 141.347Z" fill="#739426"/>
<path d="M60.542 139.436C59.2014 139.299 57.8395 139.232 56.4386 139.282C55.7347 139.313 55.0272 139.366 54.2947 139.51C53.9319 139.576 53.5687 139.674 53.2052 139.803C52.8417 139.933 52.4742 140.116 52.157 140.378C52.0535 140.472 52.0737 140.497 52.1908 140.41C52.501 140.16 52.8546 140.002 53.2111 139.886C53.571 139.778 53.9271 139.693 54.2829 139.64C54.9945 139.533 55.6881 139.505 56.3678 139.502C57.7407 139.503 59.0677 139.633 60.3771 139.811C61.2635 139.946 61.4559 139.553 60.5453 139.446L60.542 139.436Z" fill="#739426"/>
<path d="M71.4738 142.137C70.3763 142.537 69.2653 142.931 68.1674 143.363C67.6185 143.579 67.0663 143.785 66.5174 144.001L64.8735 144.69C64.774 144.731 64.7873 144.769 64.8868 144.729L66.5434 144.109C67.099 143.912 67.6508 143.737 68.2097 143.55C69.3171 143.178 70.4208 142.829 71.5315 142.466C72.2857 142.221 72.2489 141.854 71.4943 142.131L71.4738 142.137Z" fill="#739426"/>
<path d="M72.7122 141.652C71.7963 141.105 70.9499 140.465 70.2588 139.683C69.5709 138.911 69.0626 137.97 68.949 136.859C68.9398 136.767 68.8851 136.773 68.8976 136.874C68.9529 138.013 69.4094 139.001 70.0521 139.839C70.6947 140.677 71.5063 141.381 72.4181 141.981C72.7368 142.18 72.9759 142.183 73.0486 142.098C73.1179 142.004 73.0173 141.845 72.7019 141.655L72.7122 141.652Z" fill="#739426"/>
<path d="M64.6977 141.276C63.4739 141.378 62.2464 141.502 61.0079 141.692C60.3921 141.781 59.7624 141.895 59.1393 142.028C58.5195 142.171 57.8791 142.319 57.2678 142.617C57.1613 142.67 57.1713 142.698 57.281 142.655C57.892 142.389 58.5184 142.265 59.1378 142.155C59.7606 142.053 60.3661 141.967 60.9815 141.91C62.2057 141.777 63.4188 141.71 64.6114 141.649C65.4383 141.613 65.5385 141.215 64.708 141.273L64.6977 141.276Z" fill="#739426"/>
<path d="M61.5786 139.284C60.5697 137.914 59.7026 136.397 59.5188 134.561L59.4578 134.222L59.3454 133.899C59.3058 133.784 59.2624 133.692 59.2055 133.594C59.1486 133.495 59.1122 133.39 59.038 133.307C58.7964 132.938 58.4788 132.644 58.1369 132.378C57.4359 131.862 56.5931 131.493 55.6942 131.257C55.5341 131.22 55.5132 131.258 55.6663 131.307C56.5513 131.569 57.3664 131.956 58.0399 132.491C58.6928 133.032 59.2107 133.739 59.289 134.651C59.3398 135.581 59.5925 136.472 59.9282 137.276C60.2775 138.085 60.7197 138.836 61.2169 139.549C61.5665 140.034 61.8552 140.179 61.9447 140.11C62.031 140.032 61.9318 139.746 61.5786 139.284Z" fill="#739426"/>
<path d="M76.4327 28.3586C76.6826 30.0909 81.3234 36.6608 88.6176 30.1928C96.0737 23.8971 98.1169 16.3874 99.6639 10.16C101.305 4.04099 104.39 0.149936 102.131 1.09539C99.8767 2.05036 94.2942 7.27348 88.6693 10.5449C83.1016 13.8834 75.4139 20.7207 76.4396 28.346L76.4327 28.3586Z" fill="#8FAA4B"/>
<path d="M97.0803 12.6827C94.4385 19.6774 86.7007 25.5212 87.8658 22.2121C89.0543 18.938 83.9207 21.9582 82.7315 23.4992C81.6981 24.8679 75.9508 24.5203 80.4462 17.3099C77.7455 20.509 75.8847 24.3299 76.4327 28.3579C76.6826 30.0902 81.3235 36.6601 88.6176 30.1921C96.0737 23.8964 98.1169 16.3867 99.6639 10.1593C100.174 8.23204 100.816 6.51799 101.409 5.12287C99.7954 7.3365 98.125 10.0397 97.077 12.6732L97.0803 12.6827Z" fill="#739432"/>
<path d="M102.642 0.964317C102.519 0.96943 102.351 1.00888 102.135 1.10479C99.88 2.05976 94.2976 7.28288 88.6726 10.5543C88.5695 10.6166 88.449 10.6945 88.3356 10.7597C87.7579 13.1797 88.125 15.1187 87.6856 16.4995C86.8344 19.2425 91.5813 14.8144 93.1143 11.5848C94.2791 9.18966 99.6871 3.98696 102.639 0.954795L102.642 0.964317Z" fill="#96B24F"/>
<path d="M90.0557 26.0036C87.7273 28.6087 82.3283 32.1385 79.6113 30.8151C79.0374 30.5343 78.2942 30.4195 77.5392 30.4342C79.3475 32.6689 83.2557 34.9401 88.6311 30.1988C90.8146 28.3197 92.5108 26.3441 93.8864 24.3273C92.7639 24.2309 91.1762 24.7876 90.066 26.0005L90.0557 26.0036Z" fill="#668724"/>
<path d="M97.6214 6.01011C94.4663 9.82772 91.2054 13.6348 87.5093 17.2668C85.6574 19.1207 84.424 21.2527 83.3131 23.4112C82.2225 25.5952 81.3121 27.8411 80.5071 30.1291C80.1782 31.1094 79.8658 31.8431 79.7208 32.275C79.8872 32.362 80.0638 32.446 80.2371 32.5204C80.4504 32.0892 80.7658 31.3966 81.2118 30.3289C81.9826 28.0406 82.8316 25.7815 83.8676 23.6033C84.9204 21.441 86.0959 19.3053 87.8692 17.4538C91.4771 13.764 94.6293 9.90523 97.703 6.04886C97.9732 5.71631 97.8916 5.67756 97.6112 6.01318L97.6214 6.01011Z" fill="#698237"/>
<path d="M81.5601 31.5266C82.5908 31.2932 83.5777 30.9993 84.5107 30.648C85.4437 30.2967 86.3227 29.8879 87.1069 29.4023C87.516 29.1755 87.8504 28.8973 88.2257 28.6385L88.7121 28.2101L88.9537 27.9911L89.1578 27.7622L89.5628 27.295L89.8862 26.789L90.0496 26.5408C90.0984 26.4527 90.1234 26.3613 90.1722 26.2732L90.4072 25.7411C90.4563 25.6214 90.4156 25.602 90.3594 25.7343L90.1109 26.26C90.0621 26.348 90.0371 26.4395 89.985 26.518L89.8113 26.7693L89.471 27.2593L89.0491 27.7106L88.8348 27.9425L88.5899 28.1519L88.0968 28.5613C87.7182 28.8106 87.3805 29.0793 86.9545 29.2901C86.1637 29.7567 85.2748 30.1369 84.3454 30.4661C83.4161 30.7953 82.4328 31.0671 81.4092 31.2879C80.7108 31.4328 80.3851 31.5403 80.4218 31.6134C80.445 31.68 80.8683 31.6905 81.5737 31.533L81.5601 31.5266Z" fill="#6C8240"/>
<path d="M80.7924 29.3823C80.1519 28.3545 79.5867 27.3148 79.1206 26.2666C78.6648 25.2153 78.3082 24.1555 78.2622 23.1083C78.253 23.0165 78.2155 23.0067 78.2144 23.1015C78.2127 24.1419 78.5077 25.2201 78.919 26.2741C79.3337 27.3376 79.8578 28.3895 80.4572 29.4296C80.8862 30.1422 81.2353 30.0697 80.7891 29.3727L80.7924 29.3823Z" fill="#6C8240"/>
<path d="M82.7973 27.5766C84.295 26.8261 85.7284 26.0211 87.0502 25.1234C88.3752 24.2352 89.5986 23.2827 90.5197 22.1785C90.5994 22.0813 90.5722 22.0684 90.479 22.1592C89.5138 23.2344 88.2497 24.1675 86.8875 25.0143C85.5389 25.8675 84.0717 26.6405 82.5539 27.3655C82.0387 27.6134 81.8251 27.7821 81.8926 27.846C81.9466 27.9035 82.2888 27.8436 82.7973 27.5766Z" fill="#6C8240"/>
<path d="M81.7364 26.5795C81.1895 25.4293 80.6871 24.2764 80.3043 23.1088C80.1027 22.5281 79.9454 21.9447 79.8495 21.3745C79.7536 20.8043 79.7091 20.2188 79.8861 19.6829C79.9213 19.5884 79.8838 19.5785 79.835 19.6666C79.6342 20.1991 79.6549 20.7812 79.7199 21.3606C79.785 21.9399 79.9319 22.5264 80.0891 23.1099C80.4275 24.2801 80.8785 25.4484 81.3843 26.6108C81.5573 27.011 81.7464 27.1963 81.8113 27.1874C81.9241 27.1854 81.9061 26.9702 81.7228 26.573L81.7364 26.5795Z" fill="#6C8240"/>
<path d="M84.5773 22.7718C85.3149 22.1845 86.1068 21.6231 86.9664 21.1255C87.8259 20.628 88.7533 20.1628 89.8391 19.892C90.1064 19.8125 90.3939 19.7584 90.6645 19.6883C90.9384 19.6277 91.2193 19.5546 91.4833 19.4655C92.0282 19.3033 92.5426 19.1186 93.0467 18.937C94.0451 18.5452 94.9556 18.064 95.778 17.525C95.926 17.4284 95.8955 17.406 95.7475 17.5025C94.9082 18.0256 93.9808 18.4908 92.9758 18.8635C92.4614 19.0482 91.9437 19.2234 91.4025 19.3635C91.1352 19.4431 90.8613 19.5037 90.5771 19.5673C90.2929 19.6309 90.019 19.6914 89.7348 19.755C88.6013 20.019 87.6364 20.4744 86.7394 20.962C85.8457 21.4592 85.0402 22.0142 84.2651 22.5916C83.7449 22.9881 83.5881 23.2554 83.6594 23.2972C83.7442 23.3455 84.05 23.1809 84.5534 22.7684L84.5773 22.7718Z" fill="#6C8240"/>
<path d="M84.576 21.1018C84.1896 20.2504 83.8785 19.3872 83.6801 18.5218C83.5089 17.6695 83.4199 16.7926 83.7907 16.0309C83.8223 15.9585 83.7848 15.9486 83.7499 16.0115C83.3212 16.7695 83.3554 17.6521 83.4719 18.5103C83.6156 19.3814 83.872 20.2504 84.2308 21.1205C84.4835 21.7175 84.8529 21.6706 84.5829 21.0892L84.576 21.1018Z" fill="#6C8240"/>
<path d="M87.3607 18.3087C88.0935 17.8384 88.8568 17.3905 89.6811 16.9875C90.4951 16.5876 91.3635 16.2135 92.2957 15.9254C93.2214 15.6183 94.3219 15.5533 95.2714 15.2495C96.2275 14.9648 97.0863 14.5306 97.4967 13.8831C97.5595 13.7699 97.5221 13.7601 97.456 13.8638C97.0253 14.4857 96.1496 14.904 95.2075 15.1635C94.2719 15.4421 93.1443 15.4942 92.1779 15.782C91.2049 16.0507 90.3196 16.4088 89.4715 16.8084C88.6336 17.2049 87.8328 17.6429 87.0864 18.1068C86.5738 18.4275 86.4005 18.6471 86.4751 18.6984C86.5496 18.7498 86.8584 18.6263 87.3574 18.2992L87.3607 18.3087Z" fill="#6C8240"/>
<path d="M88.259 16.5175C88.0376 15.8797 87.8535 15.2517 87.7686 14.6152C87.6973 13.9852 87.6943 13.3558 88.0115 12.7992C88.0394 12.7489 87.9883 12.7326 87.9707 12.7798C87.6025 13.3201 87.5405 13.9583 87.5571 14.5942C87.5873 15.2364 87.8198 16.1021 88.0105 16.7491C88.1625 17.187 88.4181 16.9429 88.2557 16.508L88.259 16.5175Z" fill="#6C8240"/>
<path d="M90.8148 14.0461C90.8591 13.4552 90.8829 12.8704 90.9442 12.2954C91.0157 11.7174 91.0498 11.1295 91.3086 10.6008C91.3365 10.5505 91.2888 10.5437 91.2678 10.5814C91.0942 10.8327 91.0123 11.1197 90.9272 11.3971C90.8556 11.681 90.7841 11.9649 90.7261 12.2553C90.6068 12.8265 90.525 13.4076 90.4432 13.9887C90.3055 14.3763 90.1836 14.5807 90.4013 14.3583C90.4212 14.4154 90.5284 14.2995 90.5761 14.3063C90.6136 14.3161 90.6716 14.3199 90.72 14.2634C90.7443 14.2352 90.7685 14.207 90.7759 14.1628C90.7865 14.1281 90.7938 14.0839 90.7979 14.0302L90.8148 14.0461Z" fill="#6C8240"/>
<path d="M91.7635 13.2162C92.6939 13.0863 94.0562 12.8277 94.9025 12.5862C95.7353 12.3383 96.5721 12.0366 97.0629 11.5228C97.1044 11.4789 97.0636 11.4596 97.0222 11.5034C96.4975 11.9853 95.6339 12.2424 94.7912 12.4618C93.9317 12.6652 93.0148 12.8016 92.0881 12.9095C91.4521 12.9728 91.1033 13.3078 91.7532 13.2193L91.7635 13.2162Z" fill="#6C8240"/>
<path d="M93.8375 11.0536C94.5626 10.6592 95.2775 10.2677 96.0026 9.87324C96.7244 9.46924 97.4327 9.05878 98.0833 8.61296C98.1384 8.57555 98.1079 8.55311 98.0528 8.59052C97.3582 9.00744 96.6161 9.38595 95.8605 9.758C95.0946 10.1331 94.3393 10.4735 93.5562 10.8643C93.4222 10.9357 93.3429 11.0013 93.3183 11.0612C93.2904 11.1115 93.3069 11.1591 93.3374 11.1815C93.3781 11.2009 93.4497 11.2111 93.532 11.1866C93.6142 11.1621 93.7273 11.1284 93.8375 11.0536Z" fill="#6C8240"/>
<path d="M95.8185 8.36463C96.1783 8.25749 96.8782 7.98609 97.2042 7.84699C97.3621 7.77897 97.5302 7.7079 97.6712 7.6239L97.8879 7.49637L98.0637 7.34947C98.0637 7.34947 98.0505 7.31139 98.023 7.33009L97.8166 7.45455L97.5798 7.55659C97.4219 7.62461 97.0852 7.79838 96.9104 7.85042C96.5609 7.9545 96.2345 8.12522 95.875 8.20073C95.6217 8.25516 95.5718 8.43809 95.8185 8.36463Z" fill="#6C8240"/>
<path d="M94.0452 10.2145C94.0088 9.5216 93.9349 8.81881 94.1643 8.17276C94.175 8.13808 94.1375 8.12823 94.1236 8.15339C93.7987 8.78584 93.7588 9.87966 93.7236 10.5624C93.7174 10.8059 94.0768 10.4362 94.0522 10.202L94.0452 10.2145Z" fill="#6C8240"/>
<path d="M90.4934 19.719C91.8494 19.7039 93.5638 19.7081 94.7123 19.3242C94.7637 19.3088 94.7435 19.2833 94.6819 19.3017C93.4896 19.6252 92.1101 19.6053 90.7684 19.5636C90.399 19.6105 90.0084 19.7268 90.4865 19.7316L90.4934 19.719Z" fill="#6C8240"/>
<path d="M87.6457 24.7155C88.81 24.4424 90.4131 24.0281 91.429 23.5891C91.4804 23.5738 91.4466 23.5418 91.3952 23.5571C90.3356 23.9356 89.1309 24.1578 87.957 24.3708C87.3313 24.7251 87.2418 24.7938 87.6424 24.706L87.6457 24.7155Z" fill="#6C8240"/>
<path d="M83.0581 31.0394C83.6536 30.631 84.2219 30.2097 84.7598 29.7659C85.0355 29.5472 85.2841 29.3157 85.5294 29.0746C85.7643 28.8365 85.996 28.589 86.0951 28.2864C86.1127 28.2391 86.0753 28.2293 86.0474 28.2796C85.9281 28.5567 85.6692 28.7913 85.4174 29.0134C85.1552 29.2385 84.8762 29.4476 84.5836 29.6503C84.0119 30.0621 83.3962 30.445 82.7805 30.8279C82.3575 31.0799 82.6384 31.3009 83.0548 31.0299L83.0581 31.0394Z" fill="#6C8240"/>
<path d="M79.4523 27.4167C78.8012 27.0118 78.1645 26.5501 77.7576 25.999C77.7477 25.9704 77.6962 25.9858 77.7164 26.0112C78.0514 26.5838 78.921 27.2913 79.5577 27.7529C79.7847 27.9165 79.6796 27.5486 79.4626 27.4136L79.4523 27.4167Z" fill="#6C8240"/>
<path d="M71.5984 126.553C73.4402 126.173 80.0978 121.302 72.4945 115.152C65.0604 108.836 56.8096 107.616 49.9721 106.742C43.2349 105.765 38.7828 103.267 40.0029 105.278C41.2299 107.276 47.3474 111.957 51.3653 116.863C55.449 121.698 63.4889 128.191 71.6017 126.563L71.5984 126.553Z" fill="#8FAA4B"/>
<path d="M52.8911 108.908C60.657 110.724 67.6265 117.336 63.9641 116.556C60.3362 115.746 64.045 120.219 65.8065 121.176C67.3679 122.014 67.5047 127.341 59.3553 123.832C63.0388 126.044 67.316 127.418 71.5984 126.552C73.4401 126.172 80.0978 121.301 72.4945 115.151C65.0604 108.835 56.8096 107.615 49.9721 106.741C47.8512 106.449 45.9609 106.003 44.3981 105.586C46.9208 106.873 49.9726 108.18 52.9047 108.914L52.8911 108.908Z" fill="#739432"/>
<path d="M39.7964 104.813C39.8122 104.924 39.8787 105.083 39.9892 105.271C41.2162 107.269 47.3337 111.949 51.3517 116.856C51.4292 116.948 51.5203 117.047 51.6011 117.149C54.2647 117.47 56.3095 116.956 57.8363 117.236C60.8627 117.785 55.6834 113.781 52.0728 112.66C49.3915 111.799 43.3165 107.274 39.7964 104.813Z" fill="#96B24F"/>
<path d="M67.8436 114.205C70.8474 116.126 75.1209 120.789 73.9466 123.418C73.6977 123.975 73.642 124.664 73.7261 125.364C75.9709 123.498 78.0638 119.692 72.4945 115.153C70.2857 113.3 67.9998 111.911 65.7069 110.829C65.7052 111.869 66.4471 113.287 67.8539 114.202L67.8436 114.205Z" fill="#668724"/>
<path d="M45.6634 109.003C50.0498 111.573 54.435 114.238 58.665 117.338C60.8228 118.88 63.2298 119.834 65.6519 120.667C68.1014 121.482 70.601 122.114 73.1254 122.654C74.2123 122.877 75.026 123.097 75.4997 123.187C75.5801 123.026 75.6572 122.856 75.724 122.689C75.2375 122.529 74.4682 122.307 73.2799 121.988C70.7448 121.483 68.2482 120.892 65.8082 120.137C63.3821 119.358 60.9846 118.464 58.8397 116.992C54.554 113.993 50.1129 111.428 45.6983 108.94C45.3149 108.718 45.2867 108.8 45.67 109.022L45.6634 109.003Z" fill="#698237"/>
<path d="M74.5451 121.549C74.2109 120.619 73.801 119.733 73.3324 118.906C72.8637 118.079 72.3536 117.296 71.7569 116.623C71.4741 116.266 71.1462 115.975 70.8322 115.659L70.328 115.252L70.0742 115.044L69.7996 114.874L69.2638 114.54L68.6998 114.288L68.4178 114.161C68.326 114.126 68.2169 114.106 68.1251 114.07L67.5328 113.9C67.3933 113.857 67.3859 113.901 67.5255 113.944L68.1108 114.127C68.2129 114.159 68.3116 114.183 68.4034 114.218L68.6785 114.357L69.2389 114.631L69.7676 114.978L70.032 115.151L70.2755 115.363L70.7624 115.785C71.0559 116.107 71.3838 116.398 71.6493 116.771C72.2255 117.45 72.7048 118.242 73.1528 119.075C73.5873 119.902 73.9733 120.785 74.2973 121.718C74.5155 122.346 74.6624 122.638 74.7311 122.607C74.7997 122.576 74.7802 122.194 74.5451 121.549Z" fill="#6C8240"/>
<path d="M72.3047 122.446C71.2587 123.125 70.1928 123.747 69.1009 124.261C68.0192 124.772 66.8975 125.201 65.786 125.332C65.6902 125.35 65.6795 125.385 65.7787 125.376C66.9033 125.283 68.0243 124.918 69.1328 124.451C70.238 123.975 71.3204 123.401 72.3866 122.747C73.1228 122.286 73.0034 121.975 72.2944 122.449L72.3047 122.446Z" fill="#6C8240"/>
<path d="M70.1895 120.767C69.245 119.451 68.2553 118.202 67.1789 117.062C66.1128 115.92 64.9671 114.874 63.6951 114.118C63.5798 114.048 63.5691 114.082 63.6742 114.156C64.9253 114.95 66.0295 116.039 67.0611 117.213C68.1029 118.384 69.0581 119.665 69.9751 120.999C70.2807 121.454 70.4904 121.633 70.5491 121.574C70.6079 121.514 70.5021 121.209 70.1862 120.757L70.1895 120.767Z" fill="#6C8240"/>
<path d="M69.2075 121.823C68.0223 122.428 66.8136 122.998 65.5994 123.455C64.9888 123.689 64.3855 123.879 63.769 124.031C63.1595 124.171 62.5437 124.259 61.9474 124.143C61.8486 124.12 61.8277 124.157 61.9401 124.187C62.5327 124.326 63.1551 124.256 63.7745 124.145C64.3906 124.025 65.0108 123.85 65.621 123.648C66.8518 123.239 68.0634 122.71 69.2722 122.14C69.6911 121.942 69.8673 121.764 69.8545 121.694C69.842 121.593 69.6129 121.619 69.2075 121.823Z" fill="#6C8240"/>
<path d="M64.8622 119.537C64.166 118.904 63.4906 118.233 62.8777 117.481C62.2648 116.728 61.6765 115.916 61.2916 114.938C61.1953 114.694 61.0958 114.44 60.9996 114.195C60.9136 113.948 60.8038 113.697 60.687 113.459C60.4706 112.966 60.2231 112.515 59.9756 112.063C59.4633 111.176 58.868 110.376 58.2135 109.668C58.1023 109.543 58.078 109.572 58.1926 109.705C58.8298 110.43 59.4078 111.245 59.9029 112.148C60.1402 112.603 60.3807 113.067 60.5834 113.552C60.7002 113.791 60.7862 114.038 60.8754 114.295C60.9647 114.552 61.0507 114.8 61.1605 115.051C61.5414 116.082 62.126 116.917 62.7283 117.704C63.3375 118.478 64.0125 119.181 64.7051 119.836C65.1884 120.28 65.4807 120.403 65.5225 120.328C65.5644 120.252 65.3558 119.978 64.8791 119.553L64.8622 119.537Z" fill="#6C8240"/>
<path d="M63.0572 119.696C62.1745 120.127 61.2687 120.491 60.3607 120.751C59.453 120.979 58.5255 121.15 57.6681 120.87C57.5932 120.85 57.5859 120.894 57.6608 120.914C58.5109 121.238 59.4615 121.134 60.3721 120.947C61.2967 120.735 62.2087 120.421 63.1116 120.016C63.7365 119.725 63.655 119.392 63.0572 119.696Z" fill="#6C8240"/>
<path d="M59.8223 117.371C59.2524 116.743 58.7 116.067 58.1925 115.357C57.6817 114.637 57.202 113.876 56.819 113.034C56.4084 112.211 56.2357 111.191 55.8287 110.346C55.4423 109.495 54.8944 108.734 54.1604 108.416C54.0311 108.371 54.0205 108.405 54.153 108.461C54.8595 108.796 55.3869 109.564 55.7527 110.421C56.1358 111.263 56.2912 112.299 56.6912 113.157C57.0739 114.03 57.5396 114.816 58.0365 115.561C58.5437 116.302 59.0787 116.994 59.6483 117.654C60.0427 118.104 60.2939 118.239 60.3357 118.164C60.3776 118.088 60.2167 117.821 59.8256 117.381L59.8223 117.371Z" fill="#6C8240"/>
<path d="M57.7981 116.704C57.1427 116.973 56.4674 117.184 55.7999 117.32C55.136 117.434 54.4454 117.503 53.8266 117.256C53.7756 117.24 53.7547 117.278 53.809 117.304C54.4237 117.604 55.1137 117.598 55.794 117.532C56.4781 117.444 57.4001 117.159 58.0757 116.916C58.5387 116.746 58.2442 116.519 57.8014 116.714L57.7981 116.704Z" fill="#6C8240"/>
<path d="M54.923 114.564C54.2911 114.574 53.6555 114.605 53.0305 114.602C52.4023 114.59 51.7634 114.612 51.1714 114.41C51.1204 114.394 51.1097 114.428 51.1538 114.457C51.4391 114.593 51.7527 114.647 52.0663 114.7C52.3766 114.745 52.6835 114.779 53.0008 114.811C53.632 114.864 54.2636 114.886 54.8881 114.921C55.3174 115.014 55.5553 115.111 55.2876 114.928C55.346 114.9 55.2138 114.814 55.2314 114.766C55.2388 114.722 55.2325 114.672 55.1852 114.633C55.1547 114.611 55.1172 114.601 55.0662 114.584C55.0287 114.575 54.981 114.568 54.9263 114.574L54.923 114.564Z" fill="#6C8240"/>
<path d="M53.9521 113.761C53.7262 112.914 53.3339 111.686 52.9978 110.915C52.6478 110.168 52.2534 109.424 51.657 109.013C51.6096 108.975 51.5887 109.013 51.636 109.051C52.1979 109.493 52.5545 110.259 52.8531 111.021C53.1448 111.795 53.3777 112.629 53.5694 113.476C53.6892 114.049 54.0855 114.341 53.9385 113.754L53.9521 113.761Z" fill="#6C8240"/>
<path d="M51.4378 112.043C50.9464 111.412 50.4653 110.778 49.9739 110.147C49.4723 109.519 48.974 108.9 48.4374 108.335C48.397 108.284 48.3728 108.312 48.4165 108.373C48.9321 108.976 49.3992 109.635 49.8664 110.294C50.3368 110.963 50.7731 111.631 51.2604 112.316C51.3478 112.437 51.4257 112.498 51.487 112.511C51.5517 112.534 51.5928 112.522 51.6104 112.474C51.6313 112.437 51.632 112.373 51.5953 112.3C51.5689 112.224 51.5017 112.129 51.4344 112.033L51.4378 112.043Z" fill="#6C8240"/>
<path d="M48.3685 110.455C48.215 110.143 47.8705 109.511 47.6928 109.227C47.5987 109.087 47.515 108.944 47.414 108.817L47.2591 108.632L47.0832 108.484C47.0832 108.484 47.042 108.497 47.0622 108.522L47.2139 108.698L47.3446 108.911C47.4284 109.054 47.6436 109.347 47.7203 109.503C47.8636 109.817 48.0755 110.101 48.1912 110.434C48.2705 110.662 48.475 110.696 48.3751 110.474L48.3685 110.455Z" fill="#6C8240"/>
<path d="M50.5239 111.927C49.7851 112.02 49.0357 112.149 48.327 112.003C48.2929 112.003 48.2822 112.037 48.3197 112.047C49.0273 112.288 50.2096 112.23 50.9476 112.2C51.2039 112.186 50.7838 111.891 50.5239 111.927Z" fill="#6C8240"/>
<path d="M61.0525 114.348C60.9234 113.094 60.7606 111.515 60.2464 110.491C60.2299 110.444 60.2057 110.472 60.2222 110.519C60.671 111.583 60.7758 112.865 60.8435 114.105C60.9251 114.438 61.0815 114.791 61.0525 114.348Z" fill="#6C8240"/>
<path d="M66.6794 116.538C66.2816 115.49 65.7006 114.046 65.1302 113.154C65.117 113.116 65.0792 113.138 65.106 113.183C65.604 114.127 65.957 115.209 66.2964 116.284C66.7375 116.836 66.8186 116.906 66.6794 116.538Z" fill="#6C8240"/>
<path d="M73.8878 120.21C73.4052 119.702 72.8952 119.213 72.3712 118.75C72.1108 118.523 71.8434 118.308 71.5691 118.106C71.2878 117.917 71.0033 117.718 70.6728 117.648C70.6115 117.635 70.6111 117.667 70.6654 117.693C70.9786 117.778 71.246 117.992 71.5133 118.207C71.7737 118.434 72.0238 118.664 72.2702 118.916C72.7597 119.411 73.2386 119.941 73.6969 120.477C74.0068 120.847 74.2253 120.561 73.8878 120.21Z" fill="#6C8240"/>
<path d="M70.3077 123.849C69.9281 124.488 69.4872 125.113 68.9324 125.54C68.9049 125.559 68.9181 125.597 68.9457 125.578C69.5269 125.227 70.2098 124.351 70.661 123.723C70.8207 123.497 70.4333 123.623 70.3044 123.84L70.3077 123.849Z" fill="#6C8240"/>
</svg>
