<svg width="40" height="40" viewBox="0 0 40 40" fill="none" xmlns="http://www.w3.org/2000/svg">
<g clip-path="url(#clip0_192_43139)">
<path d="M34.1423 5.82658C30.3648 2.04915 25.3422 -0.03125 20 -0.03125C14.6578 -0.03125 9.63534 2.04915 5.85783 5.82658C2.0804 9.60416 0 14.6266 0 19.9688C0 25.311 2.0804 30.3334 5.85783 34.111C9.63534 37.8885 14.6578 39.9688 20 39.9688C25.3422 39.9688 30.3648 37.8885 34.1423 34.111C37.9197 30.3334 40.0001 25.311 40.0001 19.9688C40.0001 14.6266 37.9197 9.60416 34.1423 5.82658ZM33.3136 33.2823C29.7574 36.8385 25.0293 38.797 20 38.797C15.1667 38.797 10.6121 36.9872 7.10791 33.6896L16.0318 24.7657C16.2607 24.5369 16.2607 24.1658 16.0318 23.9371C15.8029 23.7083 15.432 23.7083 15.2032 23.9371L6.27923 32.861C2.98165 29.3569 1.17188 24.8022 1.17188 19.9688C1.17188 14.9396 3.13032 10.2114 6.6865 6.65525C10.2427 3.09907 14.9708 1.14063 20 1.14063C24.8334 1.14063 29.388 2.9504 32.8922 6.24798L23.147 15.9932C22.9182 16.222 22.9182 16.593 23.147 16.8218C23.2615 16.9361 23.4115 16.9934 23.5614 16.9934C23.7113 16.9934 23.8613 16.9362 23.9758 16.8218L33.7209 7.07658C37.0184 10.5807 38.8282 15.1354 38.8282 19.9688C38.8282 24.998 36.8698 29.7262 33.3136 33.2823Z" fill="#FF7479"/>
<path d="M20.0417 25.2271C19.4888 25.2271 18.9998 24.8759 18.8237 24.3512C18.8194 24.3384 18.8153 24.3255 18.8116 24.3124L17.5151 19.9181L16.7314 24.2601C16.6357 24.7903 16.1737 25.1621 15.6534 25.1621C15.5887 25.1621 15.5232 25.1564 15.4573 25.1446C14.8613 25.037 14.4652 24.4666 14.5728 23.8705L16.0377 15.7544C16.0385 15.7502 16.0393 15.7459 16.0401 15.7416C16.1505 15.1688 16.6341 14.7416 17.2161 14.7027C17.2449 14.7007 17.2737 14.6998 17.3023 14.6998C17.8504 14.6998 18.3435 15.0501 18.52 15.5757C18.5243 15.5886 18.5284 15.6015 18.5322 15.6145L20.0269 20.6805L21.4679 15.6255C21.4715 15.6128 21.4753 15.6002 21.4793 15.5877C21.6517 15.0562 22.1478 14.6992 22.7013 14.6992C22.7253 14.6992 22.7495 14.6999 22.7738 14.7013C23.3559 14.734 23.844 15.1559 23.9607 15.7273C23.9616 15.7317 23.9625 15.7363 23.9634 15.7407L25.5149 23.8593C25.6285 24.4542 25.2384 25.0287 24.6435 25.1424C24.574 25.1556 24.5047 25.1621 24.4365 25.1621C23.9206 25.1621 23.4609 24.7964 23.3605 24.271L22.5272 19.9104L21.2756 24.3007C21.272 24.3133 21.2682 24.3259 21.2641 24.3384C21.0927 24.867 20.6042 25.224 20.0485 25.2269C20.0462 25.2271 20.044 25.2271 20.0417 25.2271Z" fill="#FFB38A"/>
<path d="M25.515 23.8593L23.9635 15.7407C23.9626 15.7362 23.9617 15.7317 23.9608 15.7273C23.8442 15.1559 23.356 14.734 22.7739 14.7013C22.7496 14.6999 22.7254 14.6992 22.7014 14.6992C22.1939 14.6992 21.7355 14.9998 21.5298 15.4594C21.5678 15.5441 21.5978 15.6334 21.6171 15.7273C21.618 15.7318 21.6188 15.7363 21.6197 15.7408L22.461 20.143L22.5272 19.9105L23.3605 24.271C23.4609 24.7964 23.9206 25.1621 24.4365 25.1621C24.5048 25.1621 24.574 25.1557 24.6435 25.1424C25.2385 25.0287 25.6286 24.4542 25.515 23.8593Z" fill="#FFA370"/>
<path d="M8.76823 25.2271C5.86573 25.2271 3.50439 22.8657 3.50439 19.9631C3.50439 17.0606 5.86573 14.6992 8.76823 14.6992C9.823 14.6992 10.841 15.0103 11.7121 15.5989C12.2139 15.938 12.3459 16.6198 12.0068 17.1216C11.795 17.4352 11.4491 17.6044 11.0971 17.6044C10.8859 17.6044 10.6724 17.5434 10.4842 17.4163C9.97707 17.0737 9.3837 16.8926 8.76823 16.8926C7.07518 16.8926 5.69776 18.27 5.69776 19.9631C5.69776 21.6561 7.07518 23.0335 8.76823 23.0335C10.1441 23.0335 10.8582 22.1144 11.1327 21.0597H9.87238C9.26667 21.0597 8.77566 20.5687 8.77566 19.963C8.77566 19.3573 9.26667 18.8663 9.87238 18.8663H12.3656C12.9713 18.8663 13.4623 19.3573 13.4623 19.963C13.4622 23.0624 11.532 25.2271 8.76823 25.2271Z" fill="#FFB38A"/>
<path d="M9.36825 15.5988C9.84395 15.9202 9.98653 16.5493 9.71145 17.0414C9.98364 17.1291 10.2438 17.2539 10.4841 17.4163C10.6723 17.5435 10.8858 17.6044 11.0971 17.6044C11.4491 17.6044 11.7949 17.4352 12.0068 17.1216C12.3458 16.6197 12.2139 15.938 11.712 15.5989C10.8408 15.0103 9.82294 14.6992 8.76817 14.6992C8.36684 14.6992 7.97637 14.7459 7.60059 14.8313C8.22887 14.9747 8.82692 15.2331 9.36825 15.5988Z" fill="#FFA370"/>
<path d="M12.3655 18.8691H10.0218C10.6275 18.8691 11.1185 19.3602 11.1185 19.9659C11.1185 20.3463 11.089 20.7125 11.0329 21.0626H11.1327C11.0729 21.2923 10.9922 21.5156 10.8884 21.7244C10.4084 23.462 9.20559 24.6977 7.58105 25.0931C7.96285 25.1815 8.35988 25.2298 8.76824 25.2298C11.5321 25.2298 13.4622 23.0652 13.4622 19.9659C13.4622 19.3602 12.9712 18.8691 12.3655 18.8691Z" fill="#FFA370"/>
<path d="M31.8086 14.6992C28.9061 14.6992 26.5447 17.0606 26.5447 19.9631C26.5447 22.8657 28.9061 25.2271 31.8086 25.2271C34.7111 25.2271 37.0724 22.8657 37.0724 19.9631C37.0724 17.0606 34.7111 14.6992 31.8086 14.6992ZM31.8086 23.0336C30.1155 23.0336 28.738 21.6562 28.738 19.9631C28.738 18.2701 30.1155 16.8927 31.8086 16.8927C33.5016 16.8927 34.8791 18.2701 34.8791 19.9631C34.8791 21.6562 33.5016 23.0336 31.8086 23.0336Z" fill="#FFB38A"/>
<path d="M31.8091 14.6992C31.2653 14.6992 30.7404 14.7821 30.2466 14.9359C31.4731 15.318 32.5081 16.1377 33.1692 17.2113C34.1817 17.7138 34.8796 18.7582 34.8796 19.9631C34.8796 21.1679 34.1817 22.2124 33.1692 22.7149C32.5081 23.7884 31.4731 24.6081 30.2466 24.9902C30.7404 25.144 31.2653 25.2269 31.8091 25.2269C34.7116 25.2269 37.0729 22.8656 37.0729 19.963C37.0729 17.0604 34.7116 14.6992 31.8091 14.6992Z" fill="#FFA370"/>
</g>
<defs>
<clipPath id="clip0_192_43139">
<rect width="40.0001" height="40.0001" fill="white"/>
</clipPath>
</defs>
</svg>
