<svg width="108" height="104" viewBox="0 0 108 104" fill="none" xmlns="http://www.w3.org/2000/svg">
<path d="M59.3946 67.3058C59.3946 67.3058 60.7661 68.3558 61.1765 64.5458C61.5869 60.7358 63.8439 55.6558 65.2586 54.7558C66.6733 53.8458 70.1507 50.0858 72.8505 47.9158C75.5611 45.7558 78.4985 42.6158 80.0104 42.6858C81.5115 42.7558 82.0407 41.9458 83.423 41.5758C84.8161 41.1958 80.2156 41.3558 78.0018 42.0958C75.7879 42.8358 59.319 51.5658 59.3946 67.3158V67.3058Z" fill="#94AE63"/>
<path d="M78.0018 42.0858C77.4726 42.2658 76.1227 42.8958 74.3733 43.9858C73.9953 44.6658 73.6065 45.3258 72.8182 45.7058C72.127 46.0458 71.4143 46.2958 70.8527 46.8158C70.4423 47.1958 70.1399 47.6758 69.7296 48.0658C68.7144 49.0158 67.4509 49.6758 66.7814 50.9158C66.2846 51.8358 66.1334 53.0458 66.0902 54.1158C67.7641 52.6858 70.5827 49.7358 72.8506 47.9158C75.5612 45.7558 78.4986 42.6158 80.0105 42.6858C81.5116 42.7558 82.0407 41.9458 83.4231 41.5758C84.8162 41.1958 80.2157 41.3558 78.0018 42.0958V42.0858Z" fill="#9EB274"/>
<path d="M71.4682 6.7954C71.4682 6.7954 67.6345 6.39541 67.3753 11.1654C67.1269 15.9354 68.6172 18.5454 66.209 22.8854C63.8007 27.2154 59.1355 32.7154 58.0663 35.3454C56.9972 37.9754 55.8741 40.5354 55.8741 40.5354C55.8741 40.5354 56.1441 36.5154 57.278 34.5054C58.4011 32.4954 61.6193 27.4454 62.5588 23.3554C63.4876 19.2654 65.5394 17.2454 65.9822 14.0054C66.425 10.7654 67.3537 5.5754 71.4682 6.7954Z" fill="#90AF63"/>
<path d="M67.3861 19.2754C67.1701 19.2954 66.9001 19.5354 66.7165 19.6454C66.4465 19.8154 66.1766 19.9754 65.9066 20.1454C65.3126 20.5054 64.7403 20.8354 64.2219 21.2854C64.0167 21.4654 63.7791 21.5654 63.5847 21.7754C63.3148 22.0754 63.0124 22.3754 62.7532 22.6954C62.7424 22.7154 62.7208 22.7354 62.71 22.7554C62.656 22.9554 62.6128 23.1554 62.5588 23.3654C61.8353 26.5454 59.7294 30.3054 58.2931 32.7654C58.2931 33.2254 58.2931 33.6954 58.3471 34.1254C58.5631 34.1054 58.7899 33.7854 58.9518 33.6454C58.9626 33.6354 58.9843 33.6254 58.9951 33.6054C60.7877 30.7054 64.2543 26.4154 66.209 22.8854C66.9217 21.6054 67.2889 20.4854 67.4617 19.4054C67.4401 19.3654 67.4077 19.3154 67.3753 19.2854L67.3861 19.2754Z" fill="#95B26A"/>
<path d="M59.319 77.7755C59.319 77.7755 50.5392 76.1655 46.6839 74.4255C42.8285 72.6855 39.6644 71.5955 36.2302 66.4755C32.796 61.3455 28.6383 55.5656 26.9536 54.4956C25.2797 53.4256 25.6253 51.7056 26.9968 53.3556C28.3683 55.0056 28.0335 54.5456 30.8413 56.6356C33.6384 58.7255 36.6082 62.8255 40.9711 67.5555C45.334 72.2955 47.9366 73.5755 51.144 74.7255C54.3514 75.8855 60.7661 77.3856 59.3298 77.7656L59.319 77.7755Z" fill="#6F894B"/>
<path d="M58.7359 76.3555C58.3579 76.4055 61.1009 74.5255 56.468 72.2255C51.8351 69.9155 46.1763 67.6955 42.0726 60.0755C37.9689 52.4555 34.8371 41.8855 34.0055 39.0555C33.1848 36.2155 36.5866 41.9655 37.6773 44.9455C38.768 47.9155 39.4592 48.8855 41.9862 52.8855C44.5132 56.8855 48.455 62.5455 52.4075 66.4955C56.3492 70.4455 63.2716 75.7055 58.7359 76.3655V76.3555Z" fill="#5E7E43"/>
<path d="M53.3255 67.3862C52.9259 67.3462 52.4615 67.3562 52.2347 67.6462C51.9431 68.0262 52.2347 68.6362 52.3751 69.0262C52.5263 69.4562 52.6019 69.8962 52.6775 70.3362C53.9842 71.0262 55.2585 71.6262 56.468 72.2262C61.0901 74.5262 58.3471 76.4162 58.7359 76.3562C62.9368 75.7462 57.3212 71.1962 53.3363 67.3862H53.3255Z" fill="#466434"/>
<path d="M41.9862 52.8759C39.4592 48.8759 38.768 47.9059 37.6773 44.9359C36.5866 41.9559 33.1848 36.2159 34.0055 39.0459C34.0811 39.3159 34.1783 39.6559 34.2971 40.0559L34.3079 40.0759C34.9991 41.0759 35.5498 42.1059 35.9494 43.2259C36.295 44.1759 36.6514 45.2159 37.1373 46.1159C37.3857 46.5759 37.6989 46.9659 37.8285 47.4659C37.9149 47.7859 37.9365 48.0759 38.0661 48.3859C38.336 49.0859 38.8004 49.7159 39.038 50.4159C39.2324 50.9959 39.3836 51.4459 39.7291 51.9659C39.9127 52.2359 40.0099 52.5559 40.2043 52.8059C40.3663 53.0159 40.6363 53.1659 40.8091 53.3859C41.2518 53.9459 41.5434 54.6159 41.9862 55.1759C42.1482 55.3859 42.3858 55.5159 42.5478 55.7159C42.7745 55.9959 42.8825 56.3459 43.0985 56.6359C44.1245 58.0759 44.9668 59.6259 45.9063 61.1359C46.8135 62.6059 47.9798 63.8959 48.9409 65.3359C49.3513 65.9559 49.7401 66.3959 50.496 66.6759C50.8956 66.8259 51.2628 66.9059 51.6623 67.1159C52.1051 67.3459 52.6991 67.7859 53.2282 67.5959C53.2174 67.4559 53.185 67.3259 53.1527 67.1959C52.9043 66.9559 52.6559 66.7159 52.4183 66.4759C48.4658 62.5259 44.524 56.8659 41.997 52.8659L41.9862 52.8759Z" fill="#6F8E61"/>
<path d="M57.2672 44.8574C57.2672 44.8574 57.1592 44.1074 57.3104 43.1774C57.4724 42.2474 57.9044 41.1374 58.9951 40.4074C61.1766 38.9474 63.4012 38.1174 61.5221 39.3174C59.6323 40.5274 56.8029 43.6174 57.4076 46.3574C58.0124 49.1074 57.2672 44.8574 57.2672 44.8574Z" fill="#466434"/>
<path d="M58.5199 76.786C58.5199 76.786 59.0383 74.216 61.4681 73.306C63.898 72.386 63.5416 72.536 67.3213 68.546C71.1119 64.556 72.073 64.796 72.9262 62.386C73.7793 59.986 79.5893 54.046 82.3971 50.966C85.1942 47.886 89.0603 42.626 88.7039 38.446C88.3367 34.266 88.7039 26.906 90.1618 24.876C91.6197 22.856 89.9566 26.816 89.827 28.926C89.6974 31.036 92.2137 41.406 88.0128 48.846C83.8118 56.276 77.883 62.126 74.6109 64.176C71.3387 66.226 66.2198 73.676 62.8288 74.266C59.4379 74.856 58.2284 80.586 58.5307 76.786H58.5199Z" fill="#90AA60"/>
<path d="M87.9912 48.8558C89.1683 46.7758 89.8163 44.4658 90.1402 42.1758C89.5571 43.1058 89.1791 44.1358 88.9523 45.1958C88.7687 46.0758 88.7147 47.0058 88.2072 47.7858C87.1056 49.4558 84.9242 50.1258 83.8011 51.7958C83.3043 52.5358 82.9911 53.3758 82.462 54.1058C81.7708 55.0358 80.8313 55.7558 79.9133 56.4558C78.855 57.2658 77.8183 58.1058 76.9867 59.1358C76.3388 59.9558 75.9176 60.8958 75.356 61.7758C74.8161 62.6158 74.0385 63.1158 73.1206 63.5258C72.7966 63.6758 72.4618 63.8058 72.127 63.9458C71.3171 64.9958 70.0536 65.6858 67.3322 68.5458C63.5524 72.5358 63.9088 72.3858 61.4789 73.3058C60.3558 73.7258 59.6431 74.5058 59.1895 75.2158C59.1139 75.4258 59.0491 75.6358 59.0059 75.8458C58.8979 76.3758 59.0059 76.8258 59.2759 77.1958C59.9671 76.1658 61.1118 74.5658 62.8181 74.2758C66.209 73.6858 71.3279 66.2358 74.6001 64.1858C77.8723 62.1358 83.8011 56.2858 88.002 48.8558H87.9912Z" fill="#7D9E51"/>
<path d="M55.6364 39.8862C55.6364 39.8862 53.509 30.4862 47.5586 29.0962C41.6082 27.7062 43.6277 28.7162 38.66 28.2562C33.6923 27.7962 30.0853 26.4262 28.1523 26.4162C26.2192 26.4162 23.5626 25.7962 23.1954 25.4862C22.839 25.1862 25.7009 25.8462 27.4719 25.5162C29.243 25.1862 48.7897 19.1662 56.252 39.3662C56.252 39.3662 56.738 40.9062 55.6364 39.8762V39.8862Z" fill="#8EAE5A"/>
<path d="M52.3319 32.5555C52.5479 32.6955 52.7639 32.8555 52.9799 33.0055C49.3945 27.9155 44.7292 25.6955 40.3663 24.8555C40.2907 24.8755 40.2151 24.8955 40.1395 24.9155C39.3944 25.1355 38.6384 25.3655 37.8933 25.6155C37.3101 25.8055 36.5757 26.0055 36.1222 26.4155C35.5714 26.9055 35.9926 27.5655 36.403 27.9255C36.4246 27.9455 36.4462 27.9655 36.4678 27.9855C37.1589 28.0955 37.8933 28.1855 38.6492 28.2555C43.6169 28.7155 41.5974 27.6955 47.5478 29.0955C49.5565 29.5655 51.1224 30.9455 52.3319 32.5655V32.5555Z" fill="#76A355"/>
<path d="M51.8136 29.0155C51.8136 29.0155 40.8307 24.2355 36.3382 18.3555C31.8565 12.4855 30.269 8.72552 25.8089 5.95552C21.3488 3.19552 18.9406 0.985514 17.4827 0.375514C16.014 -0.234486 22.8175 2.10552 27.1804 4.42552C31.5325 6.74552 34.0596 10.1955 38.0337 15.1555C41.997 20.1155 55.5393 30.8455 51.8136 29.0055V29.0155Z" fill="#5F814B"/>
<path d="M33.8219 14.8951C34.7939 15.4551 36.2842 16.1651 37.0617 15.1951C37.2345 14.9751 37.3749 14.7351 37.4937 14.4751C34.5887 10.8251 32.418 8.03508 29.567 5.92508C28.3791 5.32508 27.1156 4.84508 25.7873 4.56508C25.1501 4.43508 24.5022 4.34508 23.8758 4.17508C23.379 4.04508 22.8931 3.86508 22.4071 3.70508C23.3898 4.39508 24.513 5.15508 25.8197 5.96508C29.3294 8.13508 31.0573 10.9351 33.8219 14.8951Z" fill="#5A7547"/>
<path d="M48.4982 26.3955C47.861 25.9155 47.2778 25.3955 46.6191 24.9355C46.2519 24.6755 45.9603 24.3555 45.5931 24.1055C45.28 23.8955 44.956 23.7455 44.7292 23.4555C44.5132 23.1755 44.254 22.9055 44.038 22.6355C43.8329 22.3855 43.5413 22.2855 43.2605 22.1055C42.4614 21.5855 42.0078 20.8355 41.079 20.4555C40.6039 20.2555 40.1179 20.0055 39.6211 19.8555C39.6103 20.8855 40.0963 21.7655 40.8631 22.5055C41.025 22.6655 41.1654 22.8355 41.295 23.0055C46.1547 26.5655 51.8027 29.0355 51.8027 29.0355C52.9907 29.6255 52.4183 28.9255 50.9604 27.5455C50.82 27.4755 50.6796 27.4155 50.5392 27.3555C49.8589 27.0755 49.0597 26.8355 48.4873 26.4155L48.4982 26.3955Z" fill="#526D3D"/>
<path d="M59.9886 66.7163C59.9886 66.7163 60.0318 61.5563 58.0555 60.7663C56.0684 59.9763 56.3276 61.0463 53.887 57.9663C51.4571 54.8863 50.604 49.4563 47.9474 48.1163C45.2907 46.7763 44.6104 43.8163 44.0812 39.5663C43.5521 35.3163 41.2842 30.8563 39.4051 29.5863C37.5261 28.3163 41.457 29.6763 44.1244 35.2463C46.781 40.8163 50.0208 47.4963 52.2239 50.4263C54.4161 53.3463 58.779 59.5963 59.3514 60.9763C59.913 62.3563 61.3817 68.7063 59.9994 66.7163H59.9886Z" fill="#679141"/>
<path d="M39.3944 29.5861C41.2843 30.8561 43.5413 35.3061 44.0705 39.5661C44.3296 41.6361 44.632 43.4061 45.1612 44.8261C45.9279 45.2661 46.8027 45.5961 47.5802 45.5661C48.4874 45.5261 48.4982 44.9261 48.1418 44.2861C47.8394 43.7461 47.699 43.2261 47.5046 42.6461C47.2887 41.9661 46.9215 41.3461 46.7163 40.6661C45.8199 38.8561 44.9236 36.9961 44.0921 35.2561C41.4354 29.6861 37.4937 28.3261 39.3728 29.5961L39.3944 29.5861Z" fill="#65884C"/>
<path d="M46.7919 3.17466C46.7919 3.17466 47.7962 1.29466 46.3167 2.24466C44.848 3.19466 43.3469 8.72465 44.2865 14.0847C45.226 19.4547 46.6407 24.5347 49.8373 26.1947C49.8373 26.1947 53.8114 32.0447 54.3406 32.0847C54.8697 32.1247 54.0274 31.1447 52.3427 28.5347C50.658 25.9247 50.6904 26.3147 50.5176 24.4247C50.3341 22.5247 48.2174 22.4047 46.8783 17.2347C45.5392 12.0547 44.2541 6.64466 46.8027 3.18466L46.7919 3.17466Z" fill="#98B170"/>
<path d="M50.5176 24.4141C50.334 22.5141 48.2174 22.3941 46.8783 17.2241C46.6191 16.2341 46.3599 15.2241 46.1331 14.2241C46.0359 14.1941 45.9495 14.1741 45.8523 14.1641C45.7227 14.3741 45.8955 14.9841 45.9279 15.2341C45.9819 15.8141 46.1979 16.3641 46.2735 16.9441C46.3815 17.8541 46.5111 18.6541 46.1547 19.5041C45.9711 19.9641 45.9387 20.3941 45.9603 20.8441C46.8566 23.3241 48.077 25.2841 49.8481 26.1941C49.8481 26.1941 52.5155 30.1141 53.7682 31.5541C53.6386 31.0541 53.4766 30.5441 53.347 30.0441C53.0554 29.6141 52.7315 29.1141 52.3535 28.5341C50.6688 25.9241 50.7012 26.3141 50.5284 24.4241L50.5176 24.4141Z" fill="#68833A"/>
<path d="M58.3363 54.4761C58.3363 54.4761 58.7467 51.0361 60.2154 50.1161C61.6841 49.1861 67.6129 48.1461 72.2566 38.9061C76.8895 29.6661 76.911 23.3161 78.0882 21.9061C79.2653 20.4861 77.7318 20.9861 75.6691 25.6261C73.6065 30.2761 73.5417 33.0061 68.8764 37.9661C64.2003 42.9261 57.8503 48.0161 58.3471 54.4761H58.3363Z" fill="#7D9E67"/>
<path d="M75.6584 25.6263C75.0428 27.0063 74.6108 28.2063 74.1789 29.3563C74.1573 30.2063 74.2112 31.0663 74.2004 31.9363C74.2004 32.4963 74.2004 33.2663 74.4704 33.8663C76.9435 27.3863 77.1379 23.0463 78.0774 21.8963C79.2545 20.4763 77.721 20.9763 75.6584 25.6163V25.6263Z" fill="#93A67A"/>
<path d="M73.4337 36.4073C73.2609 36.0373 72.9153 35.7573 72.289 35.6573C71.2522 35.4873 70.7555 35.8573 70.5827 36.7773C70.4423 37.5373 70.0643 38.2173 69.9671 38.9773C69.8375 39.9873 69.5784 40.6073 68.5092 40.9873C67.3753 41.3873 66.3062 41.5373 65.7446 42.6873C65.3558 43.4773 65.2262 44.4973 66.2306 44.8973C67.1053 45.2473 67.9477 45.0573 68.3904 44.2573C68.9088 43.3273 69.2328 42.4173 69.9455 41.5873L69.5783 43.2473C70.4855 42.0473 71.3926 40.6173 72.2458 38.9073C72.6777 38.0473 73.0665 37.2173 73.4229 36.4073H73.4337Z" fill="#A3B47F"/>
<path d="M58.3255 89.2667C60.5717 72.9667 61.5761 57.6867 57.494 42.2167C56.3816 37.9367 54.9237 33.7767 53.1742 29.7367C53.1203 29.6867 53.0662 29.6667 53.023 29.6067C48.4118 23.9467 45.6256 17.2767 40.6363 11.8567C39.7291 10.8667 38.822 9.87672 37.9257 8.88672C38.9192 10.1267 39.8803 11.3967 40.7875 12.6967C49.6105 23.7667 56.1764 36.3867 57.386 50.2467C58.0555 57.8967 59.8914 65.9967 58.8763 73.6767C57.8719 81.2267 55.7121 88.5567 53.9734 95.9767C59.0058 92.4667 57.548 94.6867 58.3363 89.2567L58.3255 89.2667Z" fill="#5B754B"/>
<path d="M58.8763 63.2381C59.4055 63.8081 59.8698 64.2581 60.2694 64.5881C60.237 57.0881 59.4703 49.6781 57.5048 42.2281C56.3925 37.9481 54.9346 33.7881 53.1851 29.7481C53.1311 29.6981 53.0771 29.6781 53.0339 29.6181C48.4226 23.9581 45.6364 17.2881 40.6471 11.8681C40.3339 11.5181 40.0208 11.1781 39.6968 10.8281C39.6968 10.9581 39.6968 11.0981 39.6968 11.2381C40.064 11.7281 40.4527 12.2081 40.7983 12.7081C49.6213 23.7781 56.1873 36.3981 57.3968 50.2581C57.764 54.4981 58.4875 58.8681 58.8871 63.2381H58.8763Z" fill="#718F49"/>
<path d="M55.4097 37.496C53.833 38.016 55.5285 35.616 54.3081 34.656C53.0878 33.696 48.3361 30.376 49.9452 18.596C51.5543 6.82599 60.6797 -0.794012 60.0318 0.0659885C59.697 0.495989 57.3319 3.61598 56.0252 5.79598C54.7077 7.96598 52.3103 16.356 52.6127 18.016C52.9258 19.676 53.5846 19.646 53.6926 23.056C53.8006 26.466 54.3729 29.336 54.6213 32.366C54.8805 35.396 56.36 37.186 55.4205 37.496H55.4097Z" fill="#8FAD72"/>
<path d="M53.6711 23.0555C53.6495 22.4855 53.6171 22.0055 53.5739 21.6055C53.4011 22.5755 53.2715 23.5555 53.1959 24.5655C53.1527 25.0655 53.1203 27.5855 52.0188 27.0155C51.5652 26.7755 51.2952 26.1055 51.0684 25.6855C50.9388 25.4455 50.5933 24.4755 50.2261 24.4655C49.8373 24.4455 49.7401 25.1155 49.7509 25.8755C50.4529 31.8655 53.3687 33.9255 54.2974 34.6555C55.5285 35.6255 53.833 38.0155 55.3989 37.4955C56.3277 37.1955 54.8482 35.4055 54.5998 32.3655C54.3514 29.3355 53.779 26.4655 53.6711 23.0555Z" fill="#748E51"/>
<rect width="107.993" height="15" transform="translate(0 89)" fill="#486642"/>
</svg>
