<svg width="40" height="40" viewBox="0 0 40 40" fill="none" xmlns="http://www.w3.org/2000/svg">
<g clip-path="url(#clip0_192_43145)">
<path d="M33.3141 33.3136C29.7579 36.8698 25.0298 38.8282 20.0005 38.8282C15.1672 38.8282 10.6125 37.0184 7.1084 33.7209L16.6082 24.2211C16.8407 23.9886 16.8369 23.6094 16.5971 23.3816C16.3634 23.1597 15.9882 23.1837 15.7603 23.4117L6.27972 32.8922C2.983 29.389 1.1733 24.8357 1.17237 20.0037C1.17143 15.0024 3.15057 10.2229 6.68707 6.6865C10.2432 3.13032 14.9714 1.17188 20.0005 1.17188C24.8339 1.17188 29.3885 2.98165 32.8927 6.27923L23.5315 15.6404C23.2962 15.8758 23.2815 16.2757 23.5244 16.5033C23.637 16.6089 23.781 16.6616 23.925 16.6616C24.0749 16.6616 24.2249 16.6044 24.3394 16.49L33.7214 7.10783C37.0189 10.612 38.8287 15.1667 38.8287 20C38.8287 25.0293 36.8703 29.7574 33.3141 33.3136ZM34.1428 5.85783C30.3652 2.0804 25.3427 0 20.0005 0C14.6583 0 9.6359 2.0804 5.85831 5.85783C2.08088 9.63541 0.000488281 14.6578 0.000488281 20C0.000488281 25.3422 2.08088 30.3647 5.85831 34.1423C9.6359 37.9197 14.6583 40.0001 20.0005 40.0001C25.3427 40.0001 30.3652 37.9197 34.1428 34.1423C37.9202 30.3647 40.0006 25.3422 40.0006 20C40.0006 14.6578 37.9202 9.63541 34.1428 5.85783Z" fill="#FF7479"/>
<path d="M19.153 21.5473L15.3711 22.2276L12.3405 10.1615C11.9565 8.63231 12.9747 7.05934 14.5288 6.77254C16.0774 6.49403 17.592 7.63208 17.7663 9.1856L19.153 21.5473Z" fill="#AFD9FF"/>
<path d="M20.8479 21.5493L24.6298 22.2295L27.6603 10.1634C28.0444 8.63427 27.0262 7.06129 25.4721 6.7745C23.9235 6.49598 22.4088 7.63403 22.2346 9.18755L20.8479 21.5493Z" fill="#AFD9FF"/>
<path d="M25.4723 6.77445C24.7362 6.64203 24.008 6.83023 23.4274 7.23062C24.3329 7.87015 24.8206 9.02859 24.5356 10.1634L21.6401 21.6917L24.6301 22.2296L27.6606 10.1634C28.0447 8.63422 27.0265 7.06125 25.4723 6.77445Z" fill="#92CCFF"/>
<path d="M16.3943 13.8021C16.3368 13.4836 16.0321 13.2722 15.7135 13.3297C15.395 13.3873 15.1836 13.6922 15.2411 14.0106L16.6851 21.9959C16.7364 22.2791 16.983 22.4777 17.2611 22.4777C17.2957 22.4777 17.3308 22.4745 17.366 22.4682C17.6844 22.4106 17.8959 22.1058 17.8383 21.7873L16.3943 13.8021Z" fill="white"/>
<path d="M24.2873 13.3297C23.9686 13.2722 23.664 13.4836 23.6064 13.8021L22.1625 21.7873C22.1049 22.1058 22.3164 22.4106 22.6348 22.4682C22.6701 22.4746 22.7051 22.4777 22.7398 22.4777C23.0178 22.4777 23.2645 22.2791 23.3157 21.9959L24.7596 14.0106C24.8171 13.6922 24.6057 13.3874 24.2873 13.3297Z" fill="white"/>
<path d="M19.9647 30.0554C23.5001 30.0554 26.366 27.1971 26.366 23.6713C26.366 20.1454 23.5001 17.2871 19.9647 17.2871C16.4294 17.2871 13.5635 20.1454 13.5635 23.6713C13.5635 27.1971 16.4294 30.0554 19.9647 30.0554Z" fill="#91C9FF"/>
<path d="M22.5293 25.5742C21.562 25.5742 20.6784 25.9291 20 26.5142C19.3216 25.9291 18.438 25.5742 17.4707 25.5742C15.3337 25.5742 13.6013 27.302 13.6013 29.4333C13.6013 31.5645 15.3337 33.2924 17.4707 33.2924C18.438 33.2924 19.3216 32.9375 20 32.3524C20.6784 32.9375 21.562 33.2924 22.5293 33.2924C24.6663 33.2924 26.3987 31.5646 26.3987 29.4333C26.3987 27.302 24.6663 25.5742 22.5293 25.5742Z" fill="#AFD9FF"/>
<path d="M22.53 25.5801C21.9738 25.5801 21.4455 25.6979 20.9678 25.9089C22.3261 26.5079 23.2743 27.8627 23.2743 29.4391C23.2743 31.0156 22.3261 32.3704 20.9678 32.9694C21.4455 33.1803 21.9738 33.2982 22.53 33.2982C24.667 33.2982 26.3993 31.5705 26.3993 29.4391C26.3993 27.3078 24.667 25.5801 22.53 25.5801Z" fill="#92CCFF"/>
<path d="M20.0015 33.217C19.6779 33.217 19.4155 32.9546 19.4155 32.631V27.0957C19.4155 26.7721 19.6779 26.5098 20.0015 26.5098C20.3251 26.5098 20.5874 26.7721 20.5874 27.0957V32.631C20.5874 32.9547 20.3251 33.217 20.0015 33.217Z" fill="#FF7479"/>
<path d="M20.7946 27.2463L21.619 25.8222C22.7446 23.8779 17.2657 23.8918 18.3832 25.8222L19.2076 27.2463C19.5608 27.8563 20.4415 27.8563 20.7946 27.2463Z" fill="#FFA6C1"/>
</g>
<defs>
<clipPath id="clip0_192_43145">
<rect width="40.0001" height="40.0001" fill="white"/>
</clipPath>
</defs>
</svg>
