<svg width="42" height="40" viewBox="0 0 42 40" fill="none" xmlns="http://www.w3.org/2000/svg">
<path d="M0 13.1957V11.2017C0.0949153 10.6451 0.166102 10.0846 0.290019 9.5347C2.29379 0.605758 12.8689 -3.00853 19.803 2.86669C20.2183 3.21771 20.6032 3.6061 21.0567 4.02652C21.1213 3.93042 21.1661 3.841 21.232 3.77293C23.4058 1.52268 26.0437 0.284102 29.1429 0.0478653C34.8405 -0.385902 40.1122 3.40589 41.5755 9.01284C41.7627 9.73089 41.8603 10.4716 42 11.2017V13.1957C41.9763 13.2878 41.938 13.3785 41.9288 13.4733C41.7601 15.1617 41.2486 16.7366 40.4379 18.2194C39.6785 19.6074 38.6015 20.7232 37.5047 21.827C37.3689 21.9645 37.2621 22.1967 37.2542 22.3902C37.1765 24.4056 35.5431 26.1994 33.5486 26.4103C33.2876 26.4383 33.1755 26.509 33.1465 26.796C32.9672 28.5391 31.6516 30.0419 29.9669 30.449C29.6927 30.5157 29.4105 30.5451 29.1601 30.5878C28.8213 33.0089 27.4714 34.3689 25.1104 34.7146C25.0827 35.9385 24.5567 36.9101 23.7341 37.7416C23.3663 38.1126 23.0064 38.493 22.6281 38.8521C20.4411 40.9235 16.8606 40.0759 15.8034 37.2384C15.7573 37.1143 15.7045 36.9929 15.6571 36.8781C12.836 37.3199 11.0827 36.0426 10.3603 33.0289C9.18041 32.9835 8.16403 32.5391 7.34802 31.6595C6.52279 30.7693 6.1484 29.7029 6.19454 28.4683C4.47815 28.1573 3.31017 27.1991 2.771 25.5387C2.23051 23.8771 2.63653 22.4103 3.80584 21.141C3.72279 21.0502 3.65951 20.9782 3.59228 20.9114C2.06177 19.3806 1.0032 17.5641 0.44162 15.4646C0.243879 14.7212 0.145009 13.9525 0 13.1957ZM26.0292 17.2464C26.4787 17.7109 26.9441 18.1967 27.416 18.6758C28.9228 20.204 30.4243 21.7376 31.9416 23.2538C32.7972 24.108 34.1893 23.7463 34.4951 22.5998C34.6678 21.9498 34.4437 21.4213 33.977 20.9515C31.3985 18.3555 28.8305 15.7476 26.2599 13.145C26.1742 13.0582 26.0819 12.9768 25.9844 12.8847C25.8776 12.9421 25.7827 12.9915 25.6891 13.0435C23.5337 14.2474 20.8537 14.0646 18.9633 12.4603C17.8362 11.5047 16.8356 10.3956 15.7441 9.32249C16.8778 8.18001 17.9785 7.0709 19.1122 5.92842C16.5416 3.27777 13.5017 2.16198 9.9516 2.99615C6.15895 3.88905 3.74388 6.37687 2.91733 10.2207C2.15537 13.7656 3.25217 16.8153 5.81883 19.3232C8.78493 17.7149 12.3324 19.9945 12.1597 23.3512C13.1352 23.494 13.9631 23.9451 14.638 24.6765C15.3104 25.4053 15.6847 26.2768 15.777 27.2591C17.8164 27.4246 19.1531 28.471 19.8241 30.3329C20.3699 30.3329 20.9024 30.2888 21.4245 30.3422C22.3802 30.441 23.1765 30.8974 23.8923 31.5421C24.7492 32.3135 26.0529 31.9385 26.364 30.8467C26.5486 30.1994 26.3403 29.6642 25.8723 29.193C24.0188 27.3312 22.1772 25.4573 20.3303 23.5874C20.2262 23.482 20.1273 23.3712 20.0719 23.3125C20.71 22.6612 21.3309 22.0285 21.9979 21.3492C22.0665 21.4359 22.1495 21.5667 22.255 21.6735C24.0992 23.5447 25.9448 25.4146 27.793 27.2831C28.3388 27.8357 28.9716 27.9798 29.5832 27.7089C30.5864 27.2645 30.8013 25.9778 29.9932 25.1543C28.1345 23.2591 26.2652 21.3732 24.3959 19.4873C24.2904 19.3806 24.148 19.3125 24.0544 19.2471C24.7478 18.5464 25.3621 17.9231 26.0292 17.2464ZM36.2075 19.2951C36.5279 18.9268 36.8733 18.5744 37.1685 18.1834C39.5573 15.0255 40.1439 11.6074 38.2983 8.01718C36.6109 4.73256 33.8729 2.87737 30.1686 2.70519C27.6678 2.58908 25.5032 3.55271 23.6761 5.22238C22.2879 6.49165 21.004 7.87704 19.6738 9.21171C19.6461 9.23974 19.6316 9.27978 19.5684 9.38922C19.7331 9.53069 19.9217 9.6695 20.0851 9.83366C21.7686 11.5314 23.7235 11.5314 25.407 9.81498C25.6337 9.58408 25.8117 9.30513 26.049 9.00216C29.5068 12.5057 32.8367 15.8797 36.2075 19.2951ZM20.6876 33.0235C20.5215 33.1076 20.1484 33.2251 19.8676 33.4573C19.426 33.823 19.0345 34.2554 18.6429 34.6799C18.0814 35.2871 18.0879 36.1987 18.6377 36.786C19.2085 37.3959 20.1181 37.4627 20.7416 36.8981C21.2096 36.475 21.6578 36.0239 22.0718 35.5474C22.4883 35.0669 22.5318 34.4837 22.2734 33.9138C22.0124 33.3359 21.5326 33.0489 20.6876 33.0235ZM9.45066 23.2671C9.38738 22.4303 9.12109 21.9258 8.52655 21.6535C7.93333 21.3826 7.36912 21.4813 6.89058 21.9151C6.47401 22.2928 6.08117 22.6999 5.69887 23.1123C5.07137 23.789 5.07401 24.6845 5.68437 25.3025C6.29341 25.9191 7.18456 25.9218 7.84896 25.2918C8.23785 24.9234 8.63597 24.5577 8.96949 24.1413C9.2081 23.8464 9.3452 23.466 9.45066 23.2671ZM11.548 25.9485C11.2132 26.11 10.8322 26.2141 10.554 26.445C10.0913 26.828 9.67608 27.2765 9.27401 27.7276C8.73088 28.3362 8.75725 29.2131 9.30169 29.7977C9.85009 30.3862 10.7201 30.4837 11.3371 29.9525C11.8552 29.5067 12.339 29.0089 12.7793 28.4843C13.1761 28.0105 13.1787 27.4366 12.9072 26.8854C12.6409 26.3449 12.1966 26.0632 11.548 25.9485ZM13.0838 32.4883C13.1049 33.3679 13.3936 33.8564 13.9881 34.1233C14.5814 34.3903 15.1469 34.2955 15.6254 33.8591C16.0407 33.48 16.4309 33.0703 16.8185 32.6605C17.4328 32.0092 17.4328 31.0696 16.8316 30.4623C16.2331 29.859 15.2932 29.8617 14.6565 30.481C14.2729 30.8547 13.8708 31.2177 13.5399 31.6368C13.3053 31.9331 13.1734 32.3148 13.0838 32.4883Z" fill="#C64F5B"/>
</svg>
