<svg width="17" height="16" viewBox="0 0 17 16" fill="none" xmlns="http://www.w3.org/2000/svg">
<path d="M0 5.27828V4.48068C0.0384181 4.25806 0.0672316 4.03383 0.117389 3.81388C0.928437 0.242303 5.20885 -1.20341 8.0155 1.14668C8.18358 1.28708 8.33939 1.44244 8.52294 1.61061C8.54909 1.57217 8.56723 1.5364 8.59391 1.50917C9.47379 0.60907 10.5415 0.113641 11.796 0.0191461C14.1021 -0.154361 16.2359 1.36236 16.8282 3.60514C16.904 3.89236 16.9434 4.18865 17 4.48068V5.27828C16.9904 5.31512 16.9749 5.35142 16.9712 5.38932C16.9029 6.06467 16.6959 6.69463 16.3677 7.28776C16.0604 7.84298 15.6244 8.28929 15.1805 8.7308C15.1255 8.78579 15.0823 8.87868 15.0791 8.95609C15.0476 9.76223 14.3865 10.4798 13.5792 10.5641C13.4735 10.5753 13.4282 10.6036 13.4164 10.7184C13.3439 11.4156 12.8114 12.0168 12.1294 12.1796C12.0185 12.2063 11.9043 12.218 11.8029 12.2351C11.6658 13.2035 11.1194 13.7476 10.1637 13.8858C10.1525 14.3754 9.93961 14.764 9.60665 15.0966C9.45778 15.2451 9.31212 15.3972 9.15898 15.5408C8.27376 16.3694 6.82454 16.0304 6.39661 14.8954C6.37793 14.8457 6.35659 14.7971 6.33738 14.7512C5.19551 14.9279 4.48584 14.417 4.19344 13.2116C3.71588 13.1934 3.30449 13.0156 2.9742 12.6638C2.64018 12.3077 2.48864 11.8812 2.50731 11.3873C1.81259 11.2629 1.33983 10.8796 1.12159 10.2155C0.902825 9.55082 1.06717 8.9641 1.54046 8.45639C1.50684 8.42009 1.48123 8.39126 1.45402 8.36457C0.834526 7.75222 0.406058 7.02563 0.178751 6.18585C0.0987131 5.88849 0.0586943 5.58098 0 5.27828ZM10.5356 6.89857C10.7176 7.08435 10.9059 7.27868 11.097 7.47034C11.7068 8.08162 12.3146 8.69503 12.9288 9.30151C13.275 9.64318 13.8385 9.4985 13.9623 9.03991C14.0322 8.77992 13.9415 8.56851 13.7526 8.38058C12.7089 7.34221 11.6695 6.29903 10.629 5.25799C10.5943 5.22329 10.557 5.19072 10.5175 5.15389C10.4743 5.17684 10.4358 5.1966 10.398 5.21742C9.52555 5.69897 8.44077 5.62583 7.67561 4.98412C7.2194 4.60187 6.81441 4.15822 6.3726 3.72899C6.83148 3.272 7.27702 2.82836 7.73591 2.37137C6.69542 1.31111 5.46497 0.864793 4.02803 1.19846C2.49291 1.55562 1.51538 2.55075 1.18082 4.08829C0.87241 5.50624 1.31635 6.72613 2.35524 7.72927C3.55581 7.08595 4.99168 7.9978 4.92178 9.34048C5.31664 9.3976 5.65173 9.57805 5.92492 9.87061C6.19705 10.1621 6.34859 10.5107 6.38594 10.9036C7.21139 10.9698 7.75245 11.3884 8.02404 12.1331C8.24495 12.1331 8.46051 12.1155 8.67181 12.1369C9.05866 12.1764 9.38095 12.359 9.67068 12.6168C10.0175 12.9254 10.5452 12.7754 10.6712 12.3387C10.7459 12.0798 10.6616 11.8657 10.4721 11.6772C9.72191 10.9325 8.97649 10.1829 8.22894 9.43497C8.18679 9.3928 8.14677 9.34849 8.12436 9.325C8.38261 9.06447 8.63393 8.81142 8.90392 8.53968C8.93167 8.57438 8.96529 8.6267 9.00797 8.66941C9.75446 9.41789 10.5015 10.1658 11.2496 10.9133C11.4705 11.1343 11.7266 11.1919 11.9742 11.0836C12.3802 10.9058 12.4672 10.3911 12.1401 10.0617C11.3878 9.30364 10.6311 8.54929 9.87451 7.79493C9.83183 7.75222 9.7742 7.725 9.73631 7.69884C10.017 7.41855 10.2656 7.16924 10.5356 6.89857ZM14.6554 7.71805C14.7851 7.57071 14.9249 7.42977 15.0444 7.27334C16.0113 6.01021 16.2487 4.64298 15.5017 3.20687C14.8187 1.89302 13.7105 1.15095 12.2111 1.08208C11.1989 1.03563 10.3227 1.42108 9.58318 2.08895C9.02131 2.59666 8.5016 3.15082 7.96321 3.68468C7.95201 3.69589 7.94614 3.71191 7.92053 3.75569C7.98723 3.81228 8.06353 3.8678 8.12969 3.93347C8.81108 4.61255 9.60238 4.61255 10.2838 3.92599C10.3755 3.83363 10.4476 3.72205 10.5436 3.60087C11.9432 5.00227 13.2911 6.35189 14.6554 7.71805ZM8.37354 13.2094C8.30631 13.2431 8.1553 13.29 8.04165 13.3829C7.8629 13.5292 7.70443 13.7022 7.54595 13.8719C7.31864 14.1149 7.32131 14.4795 7.54382 14.7144C7.77486 14.9584 8.14303 14.9851 8.39542 14.7592C8.58484 14.59 8.76626 14.4096 8.9338 14.219C9.10242 14.0268 9.12003 13.7935 9.01544 13.5655C8.90979 13.3343 8.71557 13.2196 8.37354 13.2094ZM3.82527 9.30685C3.79965 8.97211 3.69187 8.77031 3.45122 8.6614C3.21111 8.55302 2.98274 8.59253 2.78905 8.76604C2.62043 8.91712 2.46142 9.07995 2.30669 9.24492C2.0527 9.51559 2.05377 9.87381 2.30082 10.121C2.54733 10.3676 2.90804 10.3687 3.17696 10.1167C3.33437 9.96938 3.49551 9.8231 3.63051 9.65653C3.72709 9.53854 3.78258 9.38639 3.82527 9.30685ZM4.6742 10.3794C4.53867 10.444 4.38446 10.4856 4.27188 10.578C4.08459 10.7312 3.91651 10.9106 3.75377 11.091C3.53393 11.3345 3.5446 11.6852 3.76497 11.9191C3.98694 12.1545 4.33911 12.1935 4.58883 11.981C4.79852 11.8027 4.99435 11.6035 5.17257 11.3937C5.33318 11.2042 5.33424 10.9746 5.22433 10.7542C5.11654 10.5379 4.93672 10.4253 4.6742 10.3794ZM5.29583 12.9953C5.30436 13.3472 5.42122 13.5426 5.66186 13.6493C5.90198 13.7561 6.13088 13.7182 6.32458 13.5436C6.49265 13.392 6.6506 13.2281 6.80747 13.0642C7.05612 12.8037 7.05612 12.4278 6.81281 12.1849C6.57056 11.9436 6.19011 11.9447 5.93239 12.1924C5.77712 12.3419 5.61438 12.4871 5.48045 12.6547C5.38547 12.7732 5.33211 12.9259 5.29583 12.9953Z" fill="#C64F5B"/>
</svg>
