<svg width="34" height="30" viewBox="0 0 34 30" fill="none" xmlns="http://www.w3.org/2000/svg">
<path d="M0 10.2379V9.57134C0.0951299 9.39667 0.187968 9.222 0.286536 9.04848C1.84758 6.2928 3.42124 3.54286 4.96051 0.773388C5.26997 0.216046 5.65163 -0.00114462 6.28316 4.53393e-06C13.4339 0.0160928 20.5847 0.010347 27.7344 0.010347C27.8341 0.010347 27.9338 0.0114961 28.0335 0.0114961C28.4232 0.0126453 28.7017 0.189616 28.8943 0.529767C30.5424 3.44173 32.1963 6.35025 33.8387 9.26452C33.9373 9.43919 34.0084 9.66328 33.9992 9.85978C33.9109 11.749 33.0479 13.1717 31.3883 14.0829C31.1648 14.2059 31.0811 14.3277 31.0823 14.5874C31.0914 19.2932 31.0891 23.999 31.0891 28.7048C31.0891 29.4828 30.7843 29.7908 30.006 29.7908C21.3389 29.7919 12.6718 29.7919 4.00463 29.7908C3.22066 29.7908 2.92152 29.4897 2.92152 28.7083C2.92152 24.0243 2.91808 19.3415 2.9284 14.6575C2.92954 14.3553 2.85161 14.1875 2.57195 14.0462C1.75245 13.6313 1.13468 12.9935 0.662471 12.2041C0.295705 11.5939 0.142122 10.9193 0 10.2379ZM4.6052 28.0889H7.53933V27.6258C7.53933 24.8517 7.5336 22.0765 7.54162 19.3024C7.54621 17.4235 8.74966 16.233 10.6236 16.2307C11.3205 16.2296 12.0208 16.1951 12.7153 16.2434C13.1692 16.2744 13.6529 16.3479 14.0575 16.5398C15.1635 17.0662 15.6735 18.0096 15.677 19.2231C15.6838 22.0535 15.6792 24.8827 15.6792 27.7131V28.0843H29.4043V14.6587C28.5504 14.6713 27.7424 14.5288 26.9848 14.1542C26.2157 13.7738 25.6003 13.213 25.0902 12.5109C24.0759 13.8876 22.7544 14.6426 21.0638 14.6472C19.3641 14.6518 18.0357 13.8876 17.026 12.5339C14.9572 15.4562 10.7875 15.2459 8.917 12.5235C7.84994 13.9772 6.41497 14.6954 4.60635 14.6587C4.6052 19.1542 4.6052 23.621 4.6052 28.0889ZM2.45619 8.63593H31.5568C31.5235 8.56468 31.5075 8.52446 31.4869 8.48769C30.2421 6.2905 28.994 4.09446 27.7573 1.89267C27.6427 1.68927 27.4925 1.69731 27.3149 1.69731C20.4415 1.69731 13.5692 1.69961 6.69577 1.69271C6.45279 1.69271 6.32442 1.76856 6.20522 1.98C5.01094 4.1048 3.80749 6.22385 2.60633 8.34404C2.55934 8.42908 2.51693 8.51757 2.45619 8.63593ZM13.999 28.0923C14.0059 28.0142 14.0162 27.9498 14.0162 27.8855C14.0173 24.9689 14.0196 22.0535 14.0139 19.1369C14.0128 18.4026 13.5165 17.9119 12.7784 17.9016C12.0712 17.8924 11.3629 17.8993 10.6546 17.8993C9.65167 17.8993 9.22072 18.3302 9.22072 19.3346C9.21958 22.1293 9.22072 24.923 9.22072 27.7177V28.0923H13.999ZM8.01383 10.3597H1.75016C2.05733 11.911 3.3433 12.9752 4.88028 12.974C6.41726 12.9729 7.71355 11.9018 8.01383 10.3597ZM9.84423 10.347C10.0608 11.934 11.5967 13.0947 13.2586 12.9602C14.9102 12.8269 16.046 11.3675 16.0563 10.347H9.84423ZM17.9555 10.3493C18.0048 11.464 19.2334 12.9683 21.0409 12.9752C22.8518 12.982 24.0965 11.4778 24.1515 10.3493H17.9555ZM32.2685 10.3631H26.0255C26.1539 11.7214 27.488 12.8982 28.9596 12.9706C30.5688 13.0498 31.9533 11.9719 32.2685 10.3631Z" fill="#486642"/>
<path d="M21.8226 24.376C21.1143 24.376 20.406 24.3806 19.6977 24.3748C18.2008 24.3633 17.2633 23.4199 17.2564 21.9133C17.2506 20.8365 17.2506 19.7609 17.2564 18.6842C17.2655 17.1845 18.218 16.2342 19.7103 16.2307C21.1384 16.2273 22.5653 16.2284 23.9934 16.2307C25.4891 16.233 26.4439 17.1834 26.4519 18.6796C26.4576 19.7563 26.4565 20.832 26.4519 21.9087C26.445 23.4302 25.5052 24.3668 23.9808 24.3748C23.261 24.3794 22.5412 24.376 21.8226 24.376ZM21.8352 22.7028C22.5653 22.7028 23.2943 22.7062 24.0244 22.7016C24.5516 22.6982 24.782 22.4764 24.7842 21.9604C24.7888 20.8515 24.7888 19.7437 24.7842 18.6348C24.782 18.1395 24.5447 17.9027 24.0461 17.9016C22.5871 17.897 21.1269 17.897 19.6679 17.9016C19.1567 17.9027 18.9275 18.1429 18.9263 18.6646C18.9229 19.7621 18.9217 20.8595 18.9263 21.957C18.9286 22.4787 19.1532 22.6982 19.6805 22.7016C20.398 22.7062 21.1166 22.7028 21.8352 22.7028Z" fill="#486642"/>
</svg>
