<svg width="20" height="20" viewBox="0 0 20 20" fill="none" xmlns="http://www.w3.org/2000/svg">
<path d="M18.5682 11.8763H11.2183C11.1022 11.2504 10.8601 10.8296 10.4965 10.6253C10.2512 10.4875 10.005 10.4807 9.82899 10.5044C9.74647 10.2039 9.52603 9.70008 8.94979 9.43187C8.44046 9.1948 8.04192 9.31533 7.79631 9.49187C7.50439 9.10512 6.9297 8.65216 6.11824 8.77233C5.60178 8.84883 5.23645 9.17016 5.14098 9.6319C5.02918 10.1728 5.2966 10.7695 5.81643 11.1812C5.68484 11.3515 5.57977 11.5928 5.62312 11.8763H1.4317C1.19447 11.8763 1.00083 12.0676 1.00004 12.3028C0.997519 13.0416 1.1195 14.9057 2.30324 16.256C3.11682 17.184 4.26578 17.6742 5.72002 17.7152C5.8237 18.4404 6.45289 19 7.21154 19H12.7885C13.5471 19 14.1763 18.4404 14.28 17.7152C15.7342 17.6742 16.8832 17.184 17.6968 16.256C18.8805 14.9057 19.0025 13.0416 19 12.3028C18.9992 12.0676 18.8055 11.8763 18.5683 11.8763H18.5682ZM6.275 11.3272C6.33403 11.2856 6.3681 11.2174 6.36576 11.1456C6.36342 11.0738 6.32497 11.0079 6.26339 10.9701C5.67891 10.6121 5.49106 10.0701 5.56383 9.71801C5.62301 9.43176 5.84251 9.24641 6.18191 9.19619C7.11013 9.05837 7.54551 9.8914 7.56328 9.92623C7.59752 9.99473 7.66533 10.0409 7.7422 10.0458C7.819 10.0508 7.8921 10.0154 7.93483 9.95176C7.96304 9.91173 8.22592 9.56826 8.76658 9.8199C9.37477 10.1029 9.44387 10.7567 9.44642 10.7835C9.45236 10.852 9.4902 10.9139 9.54966 10.9493C9.60905 10.9847 9.68118 10.9899 9.74485 10.9628C9.75625 10.9582 10.0273 10.8512 10.2884 11.0008C10.5173 11.132 10.6846 11.4328 10.7785 11.8763H9.32336C9.06817 11.7454 7.78152 11.0706 6.98157 10.368C6.89229 10.2895 6.75588 10.2978 6.67692 10.3865C6.59793 10.4752 6.60627 10.6106 6.69556 10.689C7.21309 11.1435 7.90433 11.5765 8.42575 11.8763H6.06543C5.97525 11.558 6.24202 11.3513 6.275 11.3272ZM12.7884 18.5714H7.2115C6.69261 18.5714 6.25835 18.2045 6.15817 17.7183H13.8418C13.7416 18.2045 13.3074 18.5714 12.7885 18.5714H12.7884ZM17.3711 15.9746C16.606 16.8473 15.4985 17.2897 14.0794 17.2897H5.92053C4.50136 17.2897 3.39388 16.8473 2.62882 15.9746C2.00212 15.2598 1.70135 14.3624 1.55829 13.6169H14.8296C14.9488 13.6169 15.0455 13.5209 15.0455 13.4026C15.0455 13.2843 14.9488 13.1883 14.8296 13.1883H1.48991C1.43958 12.7975 1.43109 12.4806 1.43167 12.3048L18.5682 12.3043C18.5688 12.4802 18.5603 12.7973 18.5099 13.1883H16.4843C16.3651 13.1883 16.2684 13.2843 16.2684 13.4026C16.2684 13.5209 16.3651 13.6169 16.4843 13.6169H18.4416C18.2985 14.3625 17.9978 15.2598 17.3711 15.9746Z" fill="#A4907C"/>
<path d="M13.9016 10.474C14.0202 10.4723 14.4625 10.4073 15.1044 10.07C15.8804 9.64178 16.3293 8.99421 16.4027 8.19725C16.4027 8.19693 16.4027 8.19661 16.4028 8.19629C16.4029 8.19518 16.403 8.19411 16.4031 8.19304C16.5518 6.54733 15.6014 5.44815 15.5609 5.40215C15.56 5.40122 15.5591 5.4004 15.5582 5.39951C15.5548 5.39576 15.5512 5.39215 15.5475 5.38865C15.4995 5.34233 15.4337 5.31783 15.3672 5.32804C15.2997 5.3384 15.2431 5.37708 15.2115 5.4359C15.2114 5.43604 15.2114 5.43622 15.2113 5.43636C15.2091 5.44043 15.2067 5.44436 15.2048 5.44865C15.1893 5.47597 14.9754 5.83429 14.0951 6.49608C13.975 6.58636 13.8646 6.679 13.763 6.77361C12.4776 6.34783 11.0088 7.00847 10.9448 7.03775C10.871 7.07115 10.8206 7.14768 10.8194 7.22822C10.8189 7.25725 10.81 7.94797 11.185 8.69446C11.5327 9.38661 12.2862 10.2572 13.9016 10.4741L13.9016 10.474ZM12.3055 7.099L12.4411 7.80839C12.103 7.62782 11.766 7.42925 11.5212 7.28075C11.7283 7.21472 12.0017 7.14218 12.3056 7.09904L12.3055 7.099ZM11.579 8.51839C11.4145 8.19593 11.3326 7.88122 11.2917 7.64425C11.7138 7.90068 12.4093 8.30546 12.9404 8.527C12.9544 8.98182 13.1202 9.45711 13.4357 9.94725C12.5714 9.72135 11.9481 9.24236 11.5789 8.51839H11.579ZM14.9055 9.68946C14.7182 9.79385 14.5321 9.8701 14.3716 9.92503C14.5351 9.62046 14.6769 9.31746 14.8003 9.02111C14.9947 8.96989 15.4118 8.84368 15.8785 8.60211C15.7246 9.04964 15.3991 9.41432 14.9055 9.68946ZM15.9809 8.05107C15.6195 8.27446 15.2596 8.42204 14.997 8.51221C15.3368 7.56268 15.4902 6.7209 15.5589 6.1789C15.7812 6.5954 16.0285 7.25054 15.9809 8.05107ZM14.3557 6.83775C14.6903 6.58618 14.9366 6.37379 15.1177 6.2004C15.0058 7.01025 14.7053 8.449 13.9072 9.87503C13.4992 9.30164 13.3224 8.76411 13.3825 8.27429C13.4459 7.75889 13.7733 7.27557 14.3557 6.83775ZM13.4348 7.12686C13.1977 7.42593 13.045 7.743 12.9784 8.07575C12.9613 8.06807 12.9444 8.0605 12.9271 8.0525L12.7378 7.06186C12.9677 7.05582 13.2043 7.0734 13.4348 7.12686H13.4348Z" fill="#A4907C"/>
<path d="M2.63261 11.0953C3.5172 11.0953 4.2369 10.3808 4.2369 9.50251C4.2369 8.62426 3.51724 7.90973 2.63261 7.90973C1.74798 7.90973 1.02832 8.62426 1.02832 9.50251C1.02832 10.3808 1.74802 11.0953 2.63261 11.0953ZM2.63261 8.3383C3.27921 8.3383 3.80523 8.86055 3.80523 9.50251C3.80523 10.1445 3.27921 10.6667 2.63261 10.6667C1.98601 10.6667 1.45999 10.1444 1.45999 9.50251C1.45999 8.86058 1.98604 8.3383 2.63261 8.3383Z" fill="#A4907C"/>
<path d="M2.63285 10.1453C2.98988 10.1453 3.28035 9.85694 3.28035 9.50248C3.28035 9.14801 2.98988 8.85962 2.63285 8.85962C2.27583 8.85962 1.98535 9.14801 1.98535 9.50248C1.98535 9.85694 2.27583 10.1453 2.63285 10.1453ZM2.63285 9.28819C2.75185 9.28819 2.84868 9.3843 2.84868 9.50248C2.84868 9.62065 2.75188 9.71676 2.63285 9.71676C2.51382 9.71676 2.41702 9.62065 2.41702 9.50248C2.41702 9.3843 2.51386 9.28819 2.63285 9.28819Z" fill="#A4907C"/>
<path d="M8.73148 8.30158C9.08851 8.30158 9.37895 8.01319 9.37895 7.65873C9.37895 7.30426 9.08851 7.01587 8.73148 7.01587C8.37446 7.01587 8.08398 7.30426 8.08398 7.65873C8.08398 8.01319 8.37446 8.30158 8.73148 8.30158ZM8.73148 7.44444C8.85048 7.44444 8.94728 7.54055 8.94728 7.65873C8.94728 7.7769 8.85048 7.87301 8.73148 7.87301C8.61249 7.87301 8.51565 7.7769 8.51565 7.65873C8.51565 7.54055 8.61245 7.44444 8.73148 7.44444Z" fill="#A4907C"/>
<path d="M17.8272 6.20312C17.4702 6.20312 17.1797 6.49152 17.1797 6.84598C17.1797 7.20044 17.4702 7.48884 17.8272 7.48884C18.1842 7.48884 18.4747 7.20044 18.4747 6.84598C18.4747 6.49152 18.1842 6.20312 17.8272 6.20312ZM17.8272 7.06027C17.7082 7.06027 17.6114 6.96416 17.6114 6.84598C17.6114 6.7278 17.7082 6.6317 17.8272 6.6317C17.9462 6.6317 18.043 6.7278 18.043 6.84598C18.043 6.96416 17.9462 7.06027 17.8272 7.06027Z" fill="#A4907C"/>
<path d="M17.3963 5.11763C18.2809 5.11763 19.0006 4.40314 19.0006 3.52485C19.0006 2.64657 18.2809 1.93207 17.3963 1.93207C16.5117 1.93207 15.792 2.64657 15.792 3.52485C15.792 4.40314 16.5117 5.11763 17.3963 5.11763ZM17.3963 2.36067C18.0429 2.36067 18.5689 2.88292 18.5689 3.52489C18.5689 4.16685 18.0428 4.6891 17.3963 4.6891C16.7497 4.6891 16.2237 4.16685 16.2237 3.52489C16.2237 2.88292 16.7497 2.36067 17.3963 2.36067Z" fill="#A4907C"/>
<path d="M17.3955 4.16767C17.7526 4.16767 18.043 3.87928 18.043 3.52481C18.043 3.17035 17.7526 2.88196 17.3955 2.88196C17.0385 2.88196 16.748 3.17035 16.748 3.52481C16.748 3.87928 17.0385 4.16767 17.3955 4.16767ZM17.3955 3.31053C17.5145 3.31053 17.6114 3.40664 17.6114 3.52481C17.6114 3.64299 17.5146 3.7391 17.3955 3.7391C17.2765 3.7391 17.1797 3.64299 17.1797 3.52481C17.1797 3.40664 17.2766 3.31053 17.3955 3.31053Z" fill="#A4907C"/>
<path d="M5.28644 4.62732C4.56638 4.9196 4.33454 5.3485 4.2668 5.65682C4.16633 6.11421 4.36616 6.5781 4.60876 6.83496C4.91132 7.15531 5.35356 7.0671 5.65972 6.95224C5.6967 7.35717 5.74048 7.97642 6.34546 7.97799C6.55259 7.97799 6.75468 7.89481 6.90098 7.7491C7.32318 7.32449 6.91763 6.85989 6.66068 6.54592C6.96004 6.41496 7.338 6.17017 7.32782 5.73117C7.31966 5.37918 7.13487 4.90914 6.74043 4.65268C6.47456 4.47982 6.00653 4.335 5.28644 4.62732ZM6.50395 5.01118C6.76583 5.18146 6.89091 5.50889 6.89627 5.74103C6.90076 5.93453 6.68781 6.09871 6.2452 6.24289C6.2442 6.24321 6.24315 6.24357 6.24215 6.24392C6.24193 6.24392 6.24161 6.2441 6.24139 6.24417C6.19045 6.26171 6.15027 6.29632 6.12524 6.33939C6.08329 6.4086 6.08718 6.50528 6.13682 6.57185C6.20161 6.66542 6.27715 6.75724 6.35024 6.84607C6.65727 7.2191 6.70536 7.33696 6.59532 7.44653C6.52866 7.51289 6.43755 7.54978 6.3419 7.54939C6.1861 7.54774 6.13725 7.43021 6.09304 6.95049C6.08236 6.83449 6.07131 6.71453 6.05088 6.60117C6.03894 6.53485 5.99588 6.47814 5.93527 6.44778C5.87465 6.41742 5.80282 6.41732 5.74199 6.44717C5.32467 6.65196 5.05697 6.68296 4.92362 6.54178C4.76365 6.37239 4.62185 6.05178 4.68854 5.7481C4.75498 5.44571 5.01107 5.20207 5.44979 5.024C5.88847 4.84589 6.24315 4.84157 6.50395 5.01118Z" fill="#A4907C"/>
<path d="M12.471 3.64014C12.4635 3.65018 12.4561 3.66007 12.4486 3.67025C12.213 3.98578 11.8569 4.46268 12.288 4.85328C12.4431 4.99389 12.6529 5.0676 12.8619 5.0555C13.4446 5.02207 13.471 4.42907 13.4885 4.03668C13.4891 4.024 13.4896 4.01168 13.4902 3.99918C13.6271 4.04336 13.79 4.08125 13.9542 4.08125C14.1631 4.08125 14.3737 4.02007 14.5344 3.83296C14.7645 3.56507 14.9421 3.09232 14.8201 2.64014C14.7378 2.33532 14.4858 1.91779 13.7527 1.6595C13.0196 1.40122 12.5589 1.56765 12.3015 1.75282C11.9197 2.02747 11.7574 2.50557 11.7659 2.85761C11.7766 3.29682 12.1659 3.52343 12.471 3.64014ZM12.5547 2.09986C12.8072 1.91825 13.1617 1.906 13.6084 2.06336C14.055 2.22075 14.3224 2.45211 14.4031 2.75107C14.4841 3.05129 14.3577 3.37818 14.206 3.55482C14.0794 3.70214 13.8103 3.68364 13.3833 3.49829C13.2551 3.43882 13.0931 3.53214 13.0821 3.67243C13.0677 3.78496 13.0623 3.90325 13.0572 4.01775C13.0358 4.499 12.9926 4.61871 12.8371 4.62764C12.7428 4.63278 12.6488 4.59993 12.5791 4.53675C12.464 4.43246 12.5064 4.3125 12.7954 3.9255C12.8653 3.83193 12.9375 3.73518 12.9984 3.63718C13.0747 3.51825 13.0083 3.35339 12.8713 3.318C12.4227 3.19471 12.2023 3.04071 12.1975 2.84722C12.1919 2.61507 12.3013 2.28222 12.5548 2.09986H12.5547Z" fill="#A4907C"/>
<path d="M4.41929 3.53378C5.09366 3.53868 5.75041 3.14578 6.05481 2.54436C6.28078 2.11032 6.32298 1.61486 6.17366 1.14929C6.13747 1.0365 6.0161 0.974287 5.9025 1.01014L2.80266 1.99029C2.74813 2.00754 2.70273 2.04557 2.67644 2.09607C2.65018 2.14657 2.64514 2.20536 2.66252 2.2595C2.91184 3.03668 3.63844 3.53378 4.41929 3.53378ZM5.01424 1.74079C5.00924 1.82207 4.98765 1.90225 4.94884 1.97679C4.87556 2.11754 4.75146 2.22153 4.59941 2.26961C4.35807 2.34596 4.10367 2.26103 3.95334 2.07621L5.01424 1.74079ZM3.52545 2.2115C3.70924 2.5305 4.05302 2.72625 4.41875 2.72625C4.52196 2.72625 4.62692 2.71068 4.73038 2.67796C4.99229 2.59514 5.20608 2.416 5.3323 2.17357C5.42479 1.99589 5.46195 1.79982 5.44249 1.60536L5.81232 1.48843C5.8589 1.78093 5.81088 2.07954 5.67138 2.34753C5.49832 2.67989 5.20529 2.92543 4.84625 3.03896C4.1749 3.25121 3.45945 2.93657 3.15508 2.32861L3.52549 2.2115H3.52545Z" fill="#A4907C"/>
<path d="M17.6786 8.90319C17.6062 8.8764 17.5248 8.89012 17.4653 8.93922C17.1705 9.18261 17.0271 9.56626 17.0913 9.94036C17.1554 10.3145 17.4185 10.6294 17.7778 10.7623C17.8023 10.7713 17.8278 10.7758 17.8531 10.7758C17.9028 10.7758 17.9517 10.7588 17.9911 10.7263C18.286 10.4828 18.4294 10.0992 18.3652 9.72511C18.3011 9.35101 18.038 9.03608 17.6787 8.90319H17.6786ZM17.8086 10.3017C17.6556 10.2055 17.5476 10.0484 17.5168 9.86847C17.486 9.68854 17.5354 9.50483 17.6479 9.36383C17.8009 9.45997 17.9088 9.61711 17.9397 9.79704C17.9705 9.97697 17.921 10.1607 17.8086 10.3017Z" fill="#A4907C"/>
<path d="M8.73119 5.30688C8.80367 5.32181 8.87677 5.32909 8.94932 5.32909C9.25271 5.32909 9.54736 5.20188 9.75294 4.97356C10.0077 4.69067 10.0919 4.29013 9.97266 3.92824C9.94863 3.85527 9.88708 3.80063 9.81136 3.78506C9.43577 3.70767 9.04436 3.83545 8.78957 4.11838C8.53481 4.40127 8.45064 4.80184 8.56989 5.1637C8.59392 5.23666 8.65547 5.29131 8.73119 5.30688ZM9.11138 4.40402C9.23393 4.26795 9.40948 4.19192 9.5906 4.19134C9.6102 4.37009 9.55369 4.55184 9.43117 4.68788C9.30861 4.82395 9.13307 4.89999 8.95195 4.90056C8.93234 4.72181 8.98886 4.54009 9.11138 4.40402Z" fill="#A4907C"/>
<path d="M2.63909 6.62681C2.64204 6.62692 2.64499 6.62699 2.6479 6.62699C2.72186 6.62699 2.79097 6.58931 2.83057 6.52681C3.03475 6.20453 3.05101 5.7957 2.87305 5.45985C2.69506 5.12399 2.34649 4.90574 1.96332 4.89021C1.8859 4.88696 1.81299 4.92524 1.7718 4.99024C1.56766 5.31253 1.5514 5.72138 1.72935 6.0572C1.90731 6.39306 2.25591 6.61131 2.63909 6.62681ZM2.07814 5.33753C2.25372 5.38174 2.40545 5.49781 2.49103 5.65935C2.57661 5.82088 2.58704 6.01078 2.52427 6.17945C2.34872 6.13528 2.19699 6.01917 2.11138 5.85767C2.02576 5.69613 2.01537 5.50624 2.0781 5.33756L2.07814 5.33753Z" fill="#A4907C"/>
<path d="M18.0266 17.3142C17.9423 17.2305 17.8056 17.2305 17.7214 17.3142C17.6372 17.3978 17.6371 17.5335 17.7214 17.6172L17.9764 17.8704C18.0186 17.9122 18.0738 17.9332 18.1291 17.9332C18.1843 17.9332 18.2395 17.9122 18.2817 17.8704C18.366 17.7867 18.366 17.6511 18.2817 17.5674L18.0267 17.3142H18.0266Z" fill="#A4907C"/>
<path d="M18.5433 16.5138H18.1826C18.0635 16.5138 17.9668 16.6098 17.9668 16.7281C17.9668 16.8464 18.0635 16.9424 18.1826 16.9424H18.5433C18.6625 16.9424 18.7591 16.8464 18.7591 16.7281C18.7591 16.6098 18.6625 16.5138 18.5433 16.5138Z" fill="#A4907C"/>
<path d="M17.1113 17.5757C16.9922 17.5757 16.8955 17.6717 16.8955 17.79V18.1481C16.8955 18.2665 16.9922 18.3624 17.1113 18.3624C17.2305 18.3624 17.3272 18.2665 17.3272 18.1481V17.79C17.3272 17.6717 17.2305 17.5757 17.1113 17.5757Z" fill="#A4907C"/>
<path d="M15.6572 13.617C15.7764 13.617 15.8731 13.5211 15.8731 13.4028C15.8731 13.2844 15.7764 13.1885 15.6572 13.1885C15.538 13.1885 15.4414 13.2844 15.4414 13.4028C15.4414 13.5211 15.538 13.617 15.6572 13.617Z" fill="#A4907C"/>
</svg>
