<svg width="38" height="38" viewBox="0 0 38 38" fill="none" xmlns="http://www.w3.org/2000/svg">
<g clip-path="url(#clip0_4486_6581)">
<path d="M4.97804 9.37865C4.97804 8.21154 5.44168 7.09223 6.26695 6.26695C7.09223 5.44168 8.21154 4.97804 9.37865 4.97804H11.3789C12.5409 4.97738 13.6554 4.51718 14.4794 3.69786L15.8796 2.29767C16.2885 1.88641 16.7747 1.56005 17.3102 1.33735C17.8458 1.11465 18.42 1 19 1C19.58 1 20.1542 1.11465 20.6898 1.33735C21.2253 1.56005 21.7115 1.88641 22.1204 2.29767L23.5206 3.69786C24.3447 4.51798 25.4609 4.97804 26.6211 4.97804H28.6213C29.7885 4.97804 30.9078 5.44168 31.733 6.26695C32.5583 7.09223 33.022 8.21154 33.022 9.37865V11.3789C33.022 12.5391 33.482 13.6553 34.3021 14.4794L35.7023 15.8796C36.1136 16.2885 36.44 16.7747 36.6627 17.3102C36.8854 17.8458 37 18.42 37 19C37 19.58 36.8854 20.1542 36.6627 20.6898C36.44 21.2253 36.1136 21.7115 35.7023 22.1204L34.3021 23.5206C33.4828 24.3446 33.0226 25.4591 33.022 26.6211V28.6213C33.022 29.7885 32.5583 30.9078 31.733 31.733C30.9078 32.5583 29.7885 33.022 28.6213 33.022H26.6211C25.4591 33.0226 24.3446 33.4828 23.5206 34.3021L22.1204 35.7023C21.7115 36.1136 21.2253 36.44 20.6898 36.6627C20.1542 36.8854 19.58 37 19 37C18.42 37 17.8458 36.8854 17.3102 36.6627C16.7747 36.44 16.2885 36.1136 15.8796 35.7023L14.4794 34.3021C13.6554 33.4828 12.5409 33.0226 11.3789 33.022H9.37865C8.21154 33.022 7.09223 32.5583 6.26695 31.733C5.44168 30.9078 4.97804 29.7885 4.97804 28.6213V26.6211C4.97738 25.4591 4.51718 24.3446 3.69786 23.5206L2.29767 22.1204C1.88641 21.7115 1.56005 21.2253 1.33735 20.6898C1.11465 20.1542 1 19.58 1 19C1 18.42 1.11465 17.8458 1.33735 17.3102C1.56005 16.7747 1.88641 16.2885 2.29767 15.8796L3.69786 14.4794C4.51718 13.6554 4.97738 12.5409 4.97804 11.3789V9.37865Z" stroke="#486642" stroke-width="2" stroke-linecap="round" stroke-linejoin="round"/>
<path d="M13 19L17 23L25 15" stroke="#486642" stroke-width="2" stroke-linecap="round" stroke-linejoin="round"/>
</g>
<defs>
<clipPath id="clip0_4486_6581">
<rect width="38" height="38" fill="white"/>
</clipPath>
</defs>
</svg>
