<svg width="151" height="25" viewBox="0 0 151 25" fill="none" xmlns="http://www.w3.org/2000/svg">
<path fill-rule="evenodd" clip-rule="evenodd" d="M23.8423 0.929688H10.7281C4.82795 0.929688 0 5.75763 0 11.6578H13.1142C19.0143 11.6578 23.8423 6.82982 23.8423 0.929688ZM23.8423 24.7719H10.7281C4.82795 24.7719 0 19.944 0 14.0439H13.1142C19.0143 14.0439 23.8423 18.8718 23.8423 24.7719ZM44.1081 14.7385C43.4059 17.9862 40.8541 20.049 37.3744 20.049C33.3429 20.049 30.4651 17.2276 30.4651 12.9892C30.4651 8.75088 33.3492 5.9295 37.3744 5.9295C40.8603 5.9295 43.4059 7.99224 44.1081 11.24H41.2679C40.6597 9.49071 39.3368 8.39978 37.3744 8.39978C34.8477 8.39978 33.1548 10.2305 33.1548 12.9892C33.1548 15.7479 34.8477 17.5787 37.3744 17.5787C39.3431 17.5787 40.666 16.4877 41.2679 14.7385H44.1081ZM52.2462 19.7982H50.7916C48.6913 19.7982 47.8135 18.9204 47.8135 16.82V6.18029H50.3402V16.6069C50.3402 17.2088 50.5534 17.4219 51.1553 17.4219H52.2462V19.7982ZM64.8358 16.8389C64.1963 18.5881 62.5035 20.049 60.052 20.049V20.0427C57.193 20.0427 54.9359 17.9988 54.9359 14.889C54.9359 11.7792 57.2056 9.71642 60.052 9.71642C62.8985 9.71642 65.0553 11.6789 65.0553 14.7949C65.0553 15.2024 65.0177 15.7291 65.0177 15.7291H57.5253C57.7573 17.1085 58.7291 17.9862 60.052 17.9862C60.9862 17.9862 61.7637 17.5599 62.19 16.8389H64.8358ZM60.052 11.7792C58.8106 11.7792 57.8576 12.5566 57.5629 13.8231H62.4659C62.19 12.6757 61.4126 11.7792 60.052 11.7792ZM74.6104 18.6069C73.8329 19.4847 72.7044 20.049 71.2247 20.049V20.0552C69.9206 20.0552 68.0334 19.6289 68.0334 17.353C68.0334 15.2463 69.7074 14.6444 71.1683 14.2369L74.6104 13.3027V13.146C74.6104 12.193 73.8079 11.7854 72.974 11.7854C72.021 11.7854 71.2059 12.287 71.068 13.1648H68.4598C68.6917 10.776 70.5789 9.72269 72.974 9.72269C74.8612 9.72269 77.0807 10.3873 77.0807 13.2463V17.0019C77.0807 17.3467 77.2186 17.4658 77.5697 17.4658H78.1716V19.7982H76.0524C75.3502 19.7982 74.9427 19.5035 74.7859 18.9392L74.6856 18.6069H74.6104ZM70.5664 17.1084C70.5664 17.8859 71.2498 18.0615 71.8893 18.0615H71.8956C73.4129 18.0615 74.6166 17.1461 74.6166 15.5536V15.2589L71.6761 16.0551C70.9363 16.2495 70.5664 16.563 70.5664 17.1084ZM84.1717 19.7919H81.6199V9.97348H84.1717V11.1585H84.247C84.9304 10.3998 85.9774 9.71642 87.4383 9.71642C89.5198 9.71642 91.2503 11.077 91.2503 13.8795V19.7919H88.7236V14.3059C88.7236 12.5942 87.5762 12.0488 86.6044 12.0488C85.3379 12.0488 84.1717 12.9453 84.1717 14.8513V19.7919ZM104.699 16.8326C104.059 18.5818 102.367 20.0427 99.9151 20.0427V20.0364C97.0561 20.0364 94.799 17.9925 94.799 14.8827C94.799 11.7729 97.0686 9.71015 99.9151 9.71015C102.762 9.71015 104.918 11.6726 104.918 14.7886C104.918 15.1962 104.881 15.7228 104.881 15.7228H97.3884C97.6203 17.1022 98.5921 17.9799 99.9151 17.9799C100.849 17.9799 101.627 17.5536 102.053 16.8326H104.699ZM99.9151 11.7729C98.6737 11.7729 97.7207 12.5503 97.426 13.8168H102.329C102.053 12.6695 101.276 11.7729 99.9151 11.7729ZM111.088 19.7919H108.542V9.96721H111.094V11.1522H111.169C111.828 10.4563 112.649 9.96721 114.009 9.96721H116.536V12.3434H113.928C112.097 12.3434 111.088 13.2337 111.088 15.0645V19.7919ZM123.207 7.32138C123.207 8.13645 122.549 8.6443 121.652 8.6443C120.762 8.6443 120.097 8.13645 120.097 7.32138C120.097 6.50631 120.762 5.97965 121.652 5.97965C122.543 5.97965 123.207 6.50631 123.207 7.32138ZM122.938 19.7919H120.386V9.96721H122.938V19.7919ZM129.966 19.7919H127.414V9.97348H129.966V11.1585H130.041C130.725 10.3998 131.772 9.71642 133.232 9.71642C135.314 9.71642 137.044 11.077 137.044 13.8795V19.7919H134.518V14.3059C134.518 12.5942 133.37 12.0488 132.399 12.0488C131.132 12.0488 129.966 12.9453 129.966 14.8513V19.7919ZM151.001 14.889C151.001 18.0176 148.781 20.0427 145.785 20.0427C142.806 20.0427 140.587 18.0364 140.587 14.889C140.587 11.7416 142.788 9.71642 145.785 9.71642C148.781 9.71642 151.001 11.7604 151.001 14.889ZM143.139 14.889C143.139 16.6382 144.286 17.7292 145.785 17.7292C147.302 17.7292 148.449 16.657 148.449 14.889C148.449 13.1209 147.283 12.03 145.785 12.03C144.286 12.03 143.139 13.1397 143.139 14.889Z" fill="#486642"/>
</svg>
