<svg width="38" height="38" viewBox="0 0 38 38" fill="none" xmlns="http://www.w3.org/2000/svg">
<path d="M35.9697 9.63503C35.0996 8.68903 33.7465 8.33031 32.5223 8.72156C31.6747 8.99227 30.9819 9.56537 30.5711 10.3354C30.2999 10.8438 29.965 11.2192 29.5758 11.4503L29.223 11.6601C28.3078 12.2044 27.0707 12.1569 26.2164 11.5429L26.2143 11.5458C25.5174 11.0499 24.7628 10.6424 23.9645 10.3379C23.617 10.0947 23.4118 9.71887 23.4118 9.31803V9.18372C23.4118 8.85962 23.5569 8.52677 23.8201 8.24647C24.7828 7.22289 25.2425 5.83058 25.0827 4.42659C24.8337 2.24218 23.0673 0.480731 20.8816 0.238391C19.5247 0.0878142 18.1675 0.520357 17.1576 1.42465C16.1474 2.32936 15.5676 3.62574 15.5676 4.98134C15.5676 6.1993 16.0277 7.35928 16.8623 8.24647C17.1251 8.52594 17.2703 8.85879 17.2703 9.1833V9.29801C17.2703 9.70594 17.0751 10.0909 16.7551 10.3241C16.3643 10.4713 15.9856 10.6453 15.6173 10.8388L15.6156 10.8355C14.6621 11.3514 13.4262 11.2655 12.6112 10.6261L12.2887 10.3733C11.9321 10.0939 11.6476 9.67883 11.4437 9.13951C11.1346 8.32364 10.5206 7.66711 9.71475 7.29004C8.54976 6.74571 7.16162 6.92883 6.17808 7.75637C5.38974 8.41957 4.9476 9.38226 4.96512 10.3975C4.98264 11.4128 5.45106 12.3542 6.24982 12.9798C6.72616 13.3531 7.2951 13.5888 7.8949 13.6622C8.47176 13.7327 8.95644 13.9192 9.3356 14.2166L9.59087 14.4168C10.3917 15.0441 10.7892 16.2725 10.5148 17.2744L10.5185 17.2756C10.4217 17.6535 10.3417 18.0369 10.2883 18.4269C10.1189 18.7939 9.80609 19.0567 9.43445 19.1385L9.30348 19.1672C8.98689 19.2365 8.63068 19.1668 8.30075 18.9704C7.09405 18.2504 5.63542 18.1007 4.299 18.5587C2.21929 19.2715 0.878702 21.3754 1.11228 23.5615C1.25744 24.9188 1.97195 26.1513 3.07186 26.9434C4.17262 27.7351 5.56284 28.022 6.88716 27.7313C8.07634 27.4698 9.10994 26.7711 9.79775 25.7647C10.0142 25.4476 10.3079 25.2345 10.6261 25.1644L10.7367 25.1398C11.13 25.0531 11.5454 25.159 11.8416 25.4168C12.3154 26.1405 12.8714 26.7887 13.4896 27.358C14.2366 28.0508 14.5186 29.2354 14.1736 30.2486L14.0414 30.6369C13.8954 31.0653 13.5976 31.4707 13.1563 31.8411C12.4877 32.4021 12.0702 33.1984 11.9805 34.0835C11.8508 35.3623 12.4819 36.6128 13.5876 37.2681C14.1244 37.5868 14.7234 37.7486 15.324 37.7486C15.7144 37.7486 16.1053 37.6798 16.4807 37.5413C17.4334 37.1897 18.1675 36.4368 18.4945 35.4766C18.6897 34.9039 18.7247 34.2887 18.5958 33.6985C18.472 33.1308 18.4882 32.6115 18.6438 32.1552L18.7481 31.8494C19.1014 30.8129 19.9982 30.0705 20.98 30.0025C21.9306 29.947 22.8629 29.7635 23.7501 29.4573C24.0245 29.3626 24.3031 29.2496 24.6172 29.1053C24.9926 29.0636 25.3705 29.1983 25.6437 29.4711L25.7247 29.552C25.9536 29.7814 26.0863 30.1189 26.0984 30.5026C26.1359 31.7206 26.6306 32.8655 27.492 33.7269C28.3883 34.6232 29.6067 35.125 30.8689 35.125C30.9565 35.125 31.0441 35.1225 31.1316 35.1179C32.4847 35.0428 33.7507 34.3892 34.6037 33.3235C35.9772 31.6071 35.981 29.1124 34.6124 27.3914C33.7327 26.286 32.4226 25.6266 31.0186 25.5832C30.6344 25.5715 30.2962 25.4385 30.0688 25.2111L29.9725 25.114C29.7047 24.8466 29.5842 24.4729 29.6342 24.0754C30.3929 22.4165 30.6933 20.6046 30.5031 18.8248C30.4939 18.7389 30.4801 18.6542 30.4689 18.5687L30.4722 18.5683C30.3241 17.5092 30.8672 16.3213 31.7352 15.8049L32.013 15.6393C32.4218 15.3961 32.9173 15.2731 33.4875 15.2731C33.5029 15.2731 33.5183 15.2735 33.5334 15.2731C34.1315 15.2731 34.7184 15.1117 35.2318 14.8059C36.104 14.2871 36.6884 13.4132 36.8356 12.4088C36.9824 11.4048 36.6667 10.3933 35.9697 9.63503ZM10.8776 12.7754L10.6228 12.5757C9.93999 12.0409 9.10785 11.7102 8.1485 11.5925C7.92243 11.565 7.71638 11.4795 7.5366 11.3385C7.23462 11.102 7.05776 10.7458 7.05109 10.3616C7.04441 9.97164 7.21126 9.61334 7.52117 9.35265C7.87988 9.05108 8.40753 8.98184 8.83214 9.17997C9.2309 9.36641 9.41193 9.66298 9.49326 9.87821C9.83404 10.7783 10.3417 11.497 11.0024 12.0151L11.3248 12.2678C11.7653 12.6132 12.265 12.8676 12.7934 13.0328C12.6545 13.1863 12.5186 13.3431 12.3884 13.5054C12.2474 13.6814 12.1131 13.862 11.9847 14.0468C11.6952 13.56 11.3235 13.1246 10.8776 12.7754ZM16.6696 31.4824C16.3897 32.3037 16.3522 33.1984 16.5583 34.1423C16.6066 34.365 16.5941 34.5873 16.5203 34.8042C16.3968 35.1671 16.119 35.452 15.7582 35.5847C15.3933 35.7202 14.9999 35.6802 14.6512 35.4737C14.2479 35.2347 14.0085 34.76 14.0556 34.2933C14.0998 33.8553 14.3196 33.5871 14.4973 33.4382C15.2344 32.8196 15.7453 32.103 16.0156 31.3089L16.1478 30.9205C16.3347 30.3716 16.4164 29.7998 16.4035 29.2346C16.7964 29.3998 17.2006 29.5403 17.6144 29.655C17.254 30.1001 16.9654 30.6131 16.7735 31.1758L16.6696 31.4824ZM30.9535 27.6683C31.7556 27.6934 32.4756 28.0562 32.9803 28.6903C33.7486 29.6563 33.7465 31.0569 32.9753 32.0205C32.4852 32.6324 31.7894 32.9932 31.0165 33.0357C30.252 33.0824 29.5066 32.7925 28.9664 32.2528C28.4826 31.7685 28.204 31.1245 28.1831 30.4388C28.1547 29.5224 27.8056 28.6836 27.1996 28.0779L27.1186 27.997C26.4821 27.3605 25.6296 27.0131 24.7507 27.0131C24.5376 27.0131 24.3232 27.0335 24.11 27.0752L23.9816 27.1002L23.8639 27.1561C23.5628 27.2988 23.3108 27.4039 23.0706 27.4865C22.3603 27.7317 21.6128 27.8781 20.8466 27.9219C20.749 27.9278 20.6501 27.9307 20.5588 27.9324L20.4415 27.9361C20.4044 27.9374 20.3648 27.9395 20.3268 27.939C20.0244 27.9382 19.7187 27.9211 19.418 27.8877C17.0413 27.6245 14.8402 26.2418 13.5305 24.1876L13.4712 24.0945L13.3937 24.0161C12.5966 23.2074 11.4074 22.8566 10.2874 23.1047L10.1769 23.1294C9.33977 23.3137 8.59356 23.8326 8.07676 24.5892C7.68968 25.1553 7.10865 25.5486 6.44002 25.6954C5.69465 25.8593 4.91132 25.6975 4.29149 25.2512C3.66291 24.799 3.27082 24.1204 3.1874 23.3408C3.05643 22.1137 3.8089 20.9324 4.97638 20.5324C5.74303 20.2688 6.54472 20.3506 7.2342 20.7623C8.02253 21.2319 8.91723 21.3896 9.75396 21.2048L9.88451 21.176C10.9815 20.9354 11.8783 20.1445 12.2841 19.0621L12.3279 18.9362L12.3546 18.7243C12.5519 17.2761 13.1271 15.9225 14.0181 14.8101C14.9595 13.6347 16.1937 12.7463 17.5877 12.2411L17.6899 12.2044L17.7821 12.1473C18.7539 11.545 19.3579 10.4534 19.3579 9.29926V9.18455C19.3579 8.32739 19.0121 7.48733 18.3835 6.81913C17.9139 6.31985 17.6553 5.66749 17.6553 4.98259C17.6553 4.21928 17.9819 3.48934 18.5512 2.97963C19.1281 2.46284 19.873 2.22592 20.6543 2.31268C21.881 2.44865 22.8729 3.4372 23.0122 4.66392C23.1044 5.46936 22.852 6.23476 22.3027 6.81913C21.6741 7.48733 21.3283 8.32739 21.3283 9.18497V9.31928C21.3283 10.4784 21.934 11.5425 22.9492 12.1644L23.134 12.2541C23.831 12.5106 24.4888 12.863 25.0982 13.3077C26.9964 14.665 28.1802 16.7038 28.4304 19.0479C28.5852 20.4932 28.3287 21.9698 27.6888 23.3171L27.6333 23.433L27.6079 23.559C27.3839 24.676 27.7168 25.8093 28.4972 26.5889L28.594 26.686C29.1988 27.2904 30.0371 27.6396 30.9535 27.6683ZM34.7718 12.1072C34.7159 12.4876 34.4952 12.818 34.1653 13.014C33.9713 13.1292 33.7586 13.188 33.5338 13.188C33.5183 13.188 33.5017 13.188 33.4858 13.188C32.5365 13.188 31.6822 13.4099 30.9464 13.8474L30.6682 14.013C30.1781 14.3046 29.7485 14.7033 29.3969 15.1709C29.1929 14.7797 28.9627 14.4034 28.7099 14.0422C29.2609 13.9404 29.7973 13.7456 30.2891 13.4533L30.642 13.2439C31.3631 12.8151 31.9584 12.1665 32.4113 11.3172C32.5202 11.1137 32.7371 10.8426 33.1563 10.7087C33.603 10.5656 34.1169 10.7016 34.4343 11.0469C34.7084 11.3448 34.8285 11.7214 34.7718 12.1072Z" fill="#88AF80"/>
<path d="M34.0793 23.0179C32.8142 23.0179 31.7852 21.9885 31.7852 20.7238C31.7852 19.4591 32.8146 18.4297 34.0793 18.4297C35.3444 18.4297 36.3734 19.4587 36.3734 20.7238C36.3734 21.9889 35.3444 23.0179 34.0793 23.0179Z" fill="#88AF80"/>
<path d="M10.1411 31.4834C9.22095 31.4834 8.47266 30.7351 8.47266 29.8149C8.47266 28.8952 9.22095 28.1465 10.1411 28.1465C11.0612 28.1465 11.8095 28.8948 11.8095 29.8149C11.8095 30.7351 11.0612 31.4834 10.1411 31.4834Z" fill="#88AF80"/>
<path d="M22.3597 14.5215H21.0228C18.5919 14.5215 16.6211 16.3534 16.6211 18.6129V20.9646C16.6211 23.2241 18.5919 25.056 21.0228 25.056H22.3597C22.7947 25.056 23.1476 24.7282 23.1476 24.3236V23.7008C23.1476 23.2962 22.7947 22.9684 22.3597 22.9684H21.4979C20.0301 22.9684 18.8405 21.8626 18.8405 20.4982V19.0784C18.8405 17.714 20.0301 16.6083 21.4979 16.6083H22.3597C22.7947 16.6083 23.1476 16.2804 23.1476 15.8758V15.2531C23.1476 14.8493 22.7947 14.5215 22.3597 14.5215Z" fill="#88AF80"/>
</svg>
