<svg width="26" height="26" viewBox="0 0 26 26" fill="none" xmlns="http://www.w3.org/2000/svg">
<path d="M12.9891 25.5C5.83407 25.5035 -0.00453678 19.908 2.64521e-06 13.0537C0.00454207 6.09815 5.77324 0.512241 12.9655 0.50002C20.1687 0.487799 25.9955 6.08506 26 13.0197C26.0027 19.9167 20.1859 25.4974 12.9891 25.5ZM24.0471 14.0261C23.8029 14.2034 23.5433 14.3622 23.319 14.5604C22.9041 14.927 22.5854 14.9584 22.1433 14.6259C22.0171 14.5316 21.8964 14.4259 21.7929 14.3098C21.1483 13.5871 20.6471 12.777 20.2722 11.8988C19.9381 11.1158 19.9453 10.3214 20.2803 9.53664C20.4238 9.20143 20.5926 8.87583 20.7334 8.53888C20.8242 8.32152 20.9213 8.09804 20.9522 7.86934C21.0784 6.93966 20.9231 6.04228 20.5572 5.17721C20.53 5.11173 20.4928 5.0419 20.4392 4.99651C19.0256 3.77964 17.3951 2.9582 15.5475 2.54094C15.4731 2.52436 15.3333 2.56888 15.297 2.62736C14.9411 3.20437 14.4099 3.55093 13.7653 3.77178C12.872 4.07818 12.2991 4.69185 12.1602 5.58574C12.0376 6.37225 12.0422 7.1771 11.975 7.97234C11.9523 8.24208 11.9178 8.51793 11.8316 8.77282C11.6155 9.41443 11.0208 9.67806 10.3653 9.44062C10.1538 9.3638 9.95405 9.25905 9.75068 9.16302C9.43746 9.01463 9.13423 8.84528 8.81284 8.71608C8.28808 8.5057 7.82324 8.63228 7.5309 9.0347C7.23493 9.44236 7.2658 9.94605 7.65347 10.3301C8.12194 10.7945 8.37524 11.3262 8.41791 11.9791C8.46784 12.7386 8.88002 13.1899 9.65989 13.3287C10.1184 13.4099 10.5977 13.4142 11.0662 13.402C11.6028 13.388 12.1375 13.3068 12.675 13.2737C13.3141 13.2335 13.848 13.471 14.3273 13.8673C14.8684 14.3151 15.1935 14.893 15.4477 15.5136C15.7427 16.2329 16.2166 16.7139 17.0755 16.7296C17.1499 16.7305 17.2244 16.7532 17.2979 16.768C17.8744 16.8824 18.4346 17.0369 18.9285 17.3599C19.643 17.826 19.7955 18.4607 19.3534 19.1747C19.2381 19.3606 19.101 19.5396 18.9448 19.695C18.4927 20.1463 18.0206 20.5793 17.5667 21.0297C16.9702 21.6207 16.4627 22.2719 16.1531 23.0497C16.1186 23.1352 16.0923 23.2243 16.0541 23.3342C20.5527 22.1654 23.773 18.1996 24.0471 14.0261ZM2.41044 9.49212C1.26923 13.1131 1.74133 16.4267 4.04463 19.4244C5.98932 21.9541 8.64942 23.3404 11.8969 23.7131C12.034 22.7389 11.8152 21.5762 10.7121 20.9974C10.3971 20.8324 10.0821 20.6683 9.77338 20.4946C9.48921 20.334 9.20051 20.1768 8.9354 19.99C8.46784 19.6627 8.2672 19.2157 8.27355 18.6492C8.28263 17.8688 8.2327 17.0884 8.22271 16.308C8.21817 15.9571 8.04658 15.7354 7.73518 15.5791C7.19136 15.3059 6.64663 15.0353 6.11461 14.7428C4.49403 13.8507 3.33103 12.5875 2.76996 10.853C2.63468 10.4314 2.54299 9.99755 2.41044 9.49212Z" fill="#486642"/>
</svg>
