<svg width="20" height="19" viewBox="0 0 20 19" fill="none" xmlns="http://www.w3.org/2000/svg">
<path d="M1.83747 13.2075C1.02714 9.96613 0.621974 8.3464 1.47292 7.25652C2.32292 6.16663 3.99459 6.16663 7.33509 6.16663H11.7079C15.0493 6.16663 16.7191 6.16663 17.57 7.25652C18.421 8.34546 18.0158 9.96707 17.2055 13.2075C16.6898 15.2692 16.4329 16.2996 15.6641 16.9002C14.8954 17.5 13.8329 17.5 11.7079 17.5H7.33509C5.21009 17.5 4.14759 17.5 3.37881 16.9002C2.61003 16.2996 2.3522 15.2692 1.83747 13.2075Z" stroke="#808080" stroke-width="2"/>
<path d="M16.6044 6.63854L15.9338 4.17826C15.675 3.22909 15.5456 2.75498 15.2802 2.39704C15.0156 2.04142 14.6563 1.76747 14.2432 1.60654C13.8277 1.44409 13.3366 1.44409 12.3544 1.44409M2.43768 6.63854L3.10824 4.17826C3.36702 3.22909 3.49641 2.75498 3.76179 2.39704C4.02641 2.04142 4.38578 1.76747 4.79879 1.60654C5.21435 1.44409 5.70546 1.44409 6.68768 1.44409" stroke="#808080" stroke-width="2"/>
<path d="M6.68768 1.44444C6.68768 1.19396 6.78719 0.953739 6.9643 0.776621C7.14142 0.599504 7.38165 0.5 7.63213 0.5H11.4099C11.6604 0.5 11.9006 0.599504 12.0777 0.776621C12.2548 0.953739 12.3543 1.19396 12.3543 1.44444C12.3543 1.69493 12.2548 1.93515 12.0777 2.11227C11.9006 2.28938 11.6604 2.38889 11.4099 2.38889H7.63213C7.38165 2.38889 7.14142 2.28938 6.9643 2.11227C6.78719 1.93515 6.68768 1.69493 6.68768 1.44444Z" stroke="#808080" stroke-width="2"/>
</svg>
