<svg width="20" height="20" viewBox="0 0 20 20" fill="none" xmlns="http://www.w3.org/2000/svg">
<path d="M19.1852 9.20156L18.0914 6.46719C18.0108 6.26378 17.8708 6.08939 17.6897 5.96675C17.5085 5.84411 17.2946 5.77892 17.0758 5.77969H14.2188V5C14.2188 4.87568 14.1694 4.75645 14.0815 4.66854C13.9935 4.58064 13.8743 4.53125 13.75 4.53125H1.875C1.58492 4.53125 1.30672 4.64648 1.1016 4.8516C0.896484 5.05672 0.78125 5.33492 0.78125 5.625V14.375C0.78125 14.6651 0.896484 14.9433 1.1016 15.1484C1.30672 15.3535 1.58492 15.4688 1.875 15.4688H3.32812C3.43571 15.9986 3.72315 16.4749 4.14175 16.8171C4.56035 17.1592 5.08436 17.3461 5.625 17.3461C6.16564 17.3461 6.68965 17.1592 7.10825 16.8171C7.52685 16.4749 7.81429 15.9986 7.92188 15.4688H12.0781C12.1857 15.9986 12.4732 16.4749 12.8918 16.8171C13.3104 17.1592 13.8344 17.3461 14.375 17.3461C14.9156 17.3461 15.4396 17.1592 15.8582 16.8171C16.2768 16.4749 16.5643 15.9986 16.6719 15.4688H18.125C18.4151 15.4688 18.6933 15.3535 18.8984 15.1484C19.1035 14.9433 19.2188 14.6651 19.2188 14.375V9.375C19.2186 9.31558 19.2072 9.25672 19.1852 9.20156ZM14.2188 6.71875H17.0766C17.1079 6.71872 17.1384 6.72809 17.1643 6.74564C17.1903 6.76319 17.2103 6.78812 17.2219 6.81719L18.0578 8.90625H14.2188V6.71875ZM1.71875 5.625C1.71875 5.58356 1.73521 5.54382 1.76451 5.51451C1.79382 5.48521 1.83356 5.46875 1.875 5.46875H13.2812V10.7812H1.71875V5.625ZM5.625 16.4062C5.34687 16.4062 5.07499 16.3238 4.84373 16.1693C4.61247 16.0147 4.43223 15.7951 4.32579 15.5381C4.21936 15.2812 4.19151 14.9984 4.24577 14.7257C4.30003 14.4529 4.43396 14.2023 4.63063 14.0056C4.8273 13.809 5.07787 13.675 5.35065 13.6208C5.62344 13.5665 5.90619 13.5944 6.16315 13.7008C6.42011 13.8072 6.63973 13.9875 6.79425 14.2187C6.94877 14.45 7.03125 14.7219 7.03125 15C7.03125 15.373 6.88309 15.7306 6.61937 15.9944C6.35565 16.2581 5.99796 16.4062 5.625 16.4062ZM12.0781 14.5312H7.92188C7.81429 14.0014 7.52685 13.5251 7.10825 13.1829C6.68965 12.8408 6.16564 12.6539 5.625 12.6539C5.08436 12.6539 4.56035 12.8408 4.14175 13.1829C3.72315 13.5251 3.43571 14.0014 3.32812 14.5312H1.875C1.83356 14.5312 1.79382 14.5148 1.76451 14.4855C1.73521 14.4562 1.71875 14.4164 1.71875 14.375V11.7188H13.2812V12.9281C12.975 13.0902 12.7083 13.3179 12.5003 13.5951C12.2923 13.8722 12.1482 14.1919 12.0781 14.5312ZM14.375 16.4062C14.0969 16.4062 13.825 16.3238 13.5937 16.1693C13.3625 16.0147 13.1822 15.7951 13.0758 15.5381C12.9694 15.2812 12.9415 14.9984 12.9958 14.7257C13.05 14.4529 13.184 14.2023 13.3806 14.0056C13.5773 13.809 13.8279 13.675 14.1007 13.6208C14.3734 13.5665 14.6562 13.5944 14.9131 13.7008C15.1701 13.8072 15.3897 13.9875 15.5443 14.2187C15.6988 14.45 15.7812 14.7219 15.7812 15C15.7812 15.373 15.6331 15.7306 15.3694 15.9944C15.1056 16.2581 14.748 16.4062 14.375 16.4062ZM18.2812 14.375C18.2812 14.4164 18.2648 14.4562 18.2355 14.4855C18.2062 14.5148 18.1664 14.5312 18.125 14.5312H16.6719C16.5631 14.0022 16.2753 13.5268 15.8569 13.1853C15.4385 12.8437 14.9151 12.6569 14.375 12.6562C14.3227 12.6562 14.2703 12.6563 14.2188 12.6617V9.84375H18.2812V14.375Z" fill="#609966"/>
</svg>
