<svg width="26" height="25" viewBox="0 0 26 25" fill="none" xmlns="http://www.w3.org/2000/svg">
<path d="M12.9891 25C5.83407 25.0035 -0.00453678 19.408 2.64521e-06 12.5537C0.00454207 5.59815 5.77324 0.0122411 12.9655 1.99746e-05C20.1687 -0.0122011 25.9955 5.58506 26 12.5197C26.0027 19.4167 20.1859 24.9974 12.9891 25ZM24.0471 13.5261C23.8029 13.7034 23.5433 13.8622 23.319 14.0604C22.9041 14.427 22.5854 14.4584 22.1433 14.1259C22.0171 14.0316 21.8964 13.9259 21.7929 13.8098C21.1483 13.0871 20.6471 12.277 20.2722 11.3988C19.9381 10.6158 19.9453 9.82141 20.2803 9.03664C20.4238 8.70143 20.5926 8.37583 20.7334 8.03888C20.8242 7.82152 20.9213 7.59804 20.9522 7.36934C21.0784 6.43966 20.9231 5.54228 20.5572 4.67721C20.53 4.61173 20.4928 4.5419 20.4392 4.49651C19.0256 3.27964 17.3951 2.4582 15.5475 2.04094C15.4731 2.02436 15.3333 2.06888 15.297 2.12736C14.9411 2.70437 14.4099 3.05093 13.7653 3.27178C12.872 3.57818 12.2991 4.19185 12.1602 5.08574C12.0376 5.87225 12.0422 6.6771 11.975 7.47234C11.9523 7.74208 11.9178 8.01793 11.8316 8.27282C11.6155 8.91443 11.0208 9.17806 10.3653 8.94062C10.1538 8.8638 9.95405 8.75905 9.75068 8.66302C9.43746 8.51463 9.13423 8.34528 8.81284 8.21608C8.28808 8.0057 7.82324 8.13228 7.5309 8.5347C7.23493 8.94236 7.2658 9.44605 7.65347 9.83014C8.12194 10.2945 8.37524 10.8262 8.41791 11.4791C8.46784 12.2386 8.88002 12.6899 9.65989 12.8287C10.1184 12.9099 10.5977 12.9142 11.0662 12.902C11.6028 12.888 12.1375 12.8068 12.675 12.7737C13.3141 12.7335 13.848 12.971 14.3273 13.3673C14.8684 13.8151 15.1935 14.393 15.4477 15.0136C15.7427 15.7329 16.2166 16.2139 17.0755 16.2296C17.1499 16.2305 17.2244 16.2532 17.2979 16.268C17.8744 16.3824 18.4346 16.5369 18.9285 16.8599C19.643 17.326 19.7955 17.9607 19.3534 18.6747C19.2381 18.8606 19.101 19.0396 18.9448 19.195C18.4927 19.6463 18.0206 20.0793 17.5667 20.5297C16.9702 21.1207 16.4627 21.7719 16.1531 22.5497C16.1186 22.6352 16.0923 22.7243 16.0541 22.8342C20.5527 21.6654 23.773 17.6996 24.0471 13.5261ZM2.41044 8.99212C1.26923 12.6131 1.74133 15.9267 4.04463 18.9244C5.98932 21.4541 8.64942 22.8404 11.8969 23.2131C12.034 22.2389 11.8152 21.0762 10.7121 20.4974C10.3971 20.3324 10.0821 20.1683 9.77338 19.9946C9.48921 19.834 9.20051 19.6768 8.9354 19.49C8.46784 19.1627 8.2672 18.7157 8.27355 18.1492C8.28263 17.3688 8.2327 16.5884 8.22271 15.808C8.21817 15.4571 8.04658 15.2354 7.73518 15.0791C7.19136 14.8059 6.64663 14.5353 6.11461 14.2428C4.49403 13.3507 3.33103 12.0875 2.76996 10.353C2.63468 9.9314 2.54299 9.49755 2.41044 8.99212Z" fill="#486642"/>
</svg>
