<svg width="40" height="40" viewBox="0 0 40 40" fill="none" xmlns="http://www.w3.org/2000/svg">
<g clip-path="url(#clip0_192_43148)">
<path d="M31.675 14.9989C31.3767 14.8737 31.0332 15.014 30.908 15.3125L27.1652 24.2308C27.04 24.5291 27.1803 24.8726 27.4788 24.9978C27.5528 25.0289 27.6297 25.0436 27.7053 25.0436C27.9342 25.0436 28.1517 24.9086 28.2458 24.6842L31.9886 15.7659C32.1138 15.4676 31.9734 15.1242 31.675 14.9989Z" fill="#FFB38A"/>
<path d="M29.4062 16.7409C29.4062 15.7551 28.6794 14.9531 27.786 14.9531C26.8926 14.9531 26.1658 15.7552 26.1658 16.7409C26.1658 17.7267 26.8926 18.5288 27.786 18.5288C28.6794 18.5288 29.4062 17.7268 29.4062 16.7409ZM27.3376 16.7409C27.3376 16.407 27.5429 16.125 27.7859 16.125C28.029 16.125 28.2343 16.407 28.2343 16.7409C28.2343 17.0748 28.029 17.3569 27.7859 17.3569C27.5429 17.3569 27.3376 17.0748 27.3376 16.7409Z" fill="#FFB38A"/>
<path d="M31.368 21.4629C30.4746 21.4629 29.7478 22.2649 29.7478 23.2507C29.7478 24.2365 30.4747 25.0385 31.368 25.0385C32.2614 25.0385 32.9882 24.2365 32.9882 23.2507C32.9882 22.2649 32.2614 21.4629 31.368 21.4629ZM31.368 23.8666C31.125 23.8666 30.9197 23.5846 30.9197 23.2507C30.9197 22.9168 31.125 22.6348 31.368 22.6348C31.611 22.6348 31.8163 22.9168 31.8163 23.2507C31.8163 23.5846 31.611 23.8666 31.368 23.8666Z" fill="#FFB38A"/>
<path d="M9.63068 14.6621H7.59888C7.27528 14.6621 7.01294 14.9245 7.01294 15.248C7.01294 15.5716 7.27528 15.834 7.59888 15.834H9.04466V24.7538C9.04466 25.0774 9.30701 25.3397 9.6306 25.3397C9.9542 25.3397 10.2165 25.0774 10.2165 24.7538V15.248C10.2166 14.9244 9.95427 14.6621 9.63068 14.6621Z" fill="#FFB38A"/>
<path d="M14.803 14.4648C12.9643 14.4648 11.4683 15.9608 11.4683 17.7996V22.1956C11.4683 24.0345 12.9642 25.5304 14.803 25.5304C16.6419 25.5304 18.1378 24.0345 18.1378 22.1956V17.7996C18.1378 15.9608 16.6418 14.4648 14.803 14.4648ZM16.9659 22.1956C16.9659 23.3882 15.9957 24.3585 14.803 24.3585C13.6104 24.3585 12.6401 23.3882 12.6401 22.1956V17.7995C12.6401 16.6069 13.6104 15.6366 14.803 15.6366C15.9957 15.6366 16.9659 16.6069 16.9659 17.7995V22.1956Z" fill="#FFB38A"/>
<path d="M22.128 14.4648C20.2892 14.4648 18.7932 15.9608 18.7932 17.7996V22.1956C18.7932 24.0345 20.2892 25.5304 22.128 25.5304C23.9668 25.5304 25.4628 24.0345 25.4628 22.1956V17.7996C25.4628 15.9608 23.9668 14.4648 22.128 14.4648ZM24.2909 22.1956C24.2909 23.3882 23.3206 24.3585 22.128 24.3585C20.9353 24.3585 19.9651 23.3882 19.9651 22.1956V17.7995C19.9651 16.6069 20.9353 15.6366 22.128 15.6366C23.3206 15.6366 24.2909 16.6069 24.2909 17.7995V22.1956Z" fill="#FFB38A"/>
<path d="M20.0005 39.9981C14.6583 39.9981 9.6359 37.9177 5.85831 34.1403C2.08088 30.3627 0.000488281 25.3403 0.000488281 19.9981C0.000488281 14.6559 2.08088 9.63346 5.85831 5.85587C9.6359 2.07844 14.6583 -0.00195312 20.0005 -0.00195312C25.3427 -0.00195312 30.3652 2.07844 34.1428 5.85587C37.9202 9.63346 40.0006 14.6559 40.0006 19.9981C40.0006 25.3403 37.9202 30.3627 34.1428 34.1403C30.3652 37.9177 25.3427 39.9981 20.0005 39.9981ZM20.0005 1.16992C14.9713 1.16992 10.2432 3.12837 6.68699 6.68455C3.13081 10.2407 1.17237 14.9689 1.17237 19.9981C1.17237 25.0273 3.13081 29.7555 6.68699 33.3116C10.2432 36.8678 14.9713 38.8263 20.0005 38.8263C25.0298 38.8263 29.7579 36.8678 33.3141 33.3116C36.8703 29.7555 38.8287 25.0273 38.8287 19.9981C38.8287 14.9689 36.8703 10.2407 33.3141 6.68455C29.7579 3.12837 25.0298 1.16992 20.0005 1.16992Z" fill="#9DC08B"/>
<path d="M26.0856 10.6675C25.6815 8.63753 24.681 6.18784 22.2928 4.95721C20.1543 3.85526 17.1603 4.22073 15.9947 6.39401C14.9423 8.35628 15.7291 10.4693 17.7518 11.1237C20.8693 12.1325 23.1725 8.35464 26.0856 10.6675Z" fill="#9DC08B"/>
<path d="M22.2928 4.95641C21.0544 4.31828 19.5297 4.17344 18.2388 4.58555C18.5599 4.68086 18.8721 4.80406 19.1678 4.95641C21.3395 6.07555 22.3635 8.20267 22.8353 10.1056C23.8821 9.79001 24.9364 9.75431 26.0856 10.6667C25.6815 8.63673 24.681 6.18704 22.2928 4.95641Z" fill="#EDF1D6"/>
<path d="M13.9136 11.3237C13.7996 11.3237 13.6845 11.2906 13.5833 11.2214C13.3162 11.0387 13.2478 10.6741 13.4305 10.407C14.3638 9.04233 15.5812 7.98732 16.9511 7.35615C18.2987 6.73513 19.6948 6.56224 20.988 6.85623C21.3035 6.92795 21.5012 7.24193 21.4295 7.55748C21.3577 7.87303 21.0437 8.07099 20.7282 7.99896C18.5379 7.50123 15.9938 8.73475 14.3976 11.0687C14.2843 11.2345 14.1005 11.3237 13.9136 11.3237Z" fill="#609966"/>
<path d="M13.9143 29.2974C14.3184 31.3274 15.3189 33.7771 17.7071 35.0077C19.8456 36.1097 22.8396 35.7442 24.0052 33.5709C25.0576 31.6087 24.2708 29.4957 22.2482 28.8412C19.1306 27.8325 16.8274 31.6103 13.9143 29.2974Z" fill="#9DC08B"/>
<path d="M22.2486 28.8412C21.2602 28.5213 20.3537 28.6829 19.4836 28.9787C21.2362 29.7559 21.8681 31.7296 20.8806 33.5709C20.39 34.4857 19.5748 35.079 18.6365 35.3785C20.6391 35.9731 23.0011 35.4438 24.0056 33.5709C25.0581 31.6086 24.2713 29.4956 22.2486 28.8412Z" fill="#EDF1D6"/>
<path d="M20.2677 33.2573C19.8421 33.2573 19.422 33.211 19.0123 33.1179C18.6968 33.0462 18.4991 32.7322 18.5709 32.4167C18.6426 32.1011 18.9567 31.9035 19.2721 31.9752C21.4621 32.4727 24.0063 31.2393 25.6027 28.9055C25.7855 28.6385 26.1501 28.5701 26.4171 28.7527C26.6842 28.9353 26.7527 29.3 26.5699 29.5671C25.6365 30.9318 24.4191 31.9867 23.0493 32.618C22.1284 33.0421 21.1852 33.2573 20.2677 33.2573Z" fill="#609966"/>
</g>
<defs>
<clipPath id="clip0_192_43148">
<rect width="40.0001" height="40.0001" fill="white"/>
</clipPath>
</defs>
</svg>
