<svg width="20" height="14" viewBox="0 0 20 14" fill="none" xmlns="http://www.w3.org/2000/svg">
<path d="M20 12.82C19.8918 13.0934 19.7532 13.3484 19.4642 13.464C19.3252 13.5197 19.1685 13.558 19.0195 13.5583C13.0065 13.5629 6.99385 13.5626 0.980834 13.5619C0.522331 13.5619 0.191486 13.3236 0.0397156 12.8952C0.0304959 12.869 0.0134749 12.8452 0 12.8204C0 11.0236 0 9.22682 0 7.42968C0.0602826 7.30983 0.104963 7.17862 0.18333 7.07259C0.378007 6.80948 0.644669 6.68359 0.977288 6.68359C6.99243 6.68537 13.0076 6.68466 19.0227 6.68537C19.4855 6.68537 19.8099 6.92011 19.9606 7.35415C19.9699 7.38075 19.9865 7.4045 19.9996 7.42968V12.8204L20 12.82ZM19.3724 8.88214C18.9213 8.91264 18.5231 9.02895 18.1302 9.18284C17.027 9.61546 15.9125 9.62681 14.8118 9.19135C13.7476 8.77044 12.7037 8.77008 11.6395 9.19313C10.5576 9.62326 9.45444 9.62574 8.37219 9.19738C7.34065 8.78888 6.31691 8.74774 5.28359 9.15802C4.10737 9.62468 2.93683 9.62504 1.76557 9.14242C1.40955 8.99561 1.03934 8.90732 0.627648 8.88533C0.627648 8.96122 0.627648 9.02434 0.627648 9.08746C0.627648 10.2222 0.627648 11.3569 0.627648 12.4917C0.627648 12.842 0.717363 12.9321 1.067 12.9321C7.02399 12.9321 12.9806 12.9321 18.9376 12.9321C19.278 12.9321 19.3716 12.8399 19.3716 12.5037C19.372 11.363 19.3716 10.2222 19.3716 9.08178C19.3716 9.02363 19.3716 8.96583 19.3716 8.88214H19.3724ZM19.3724 8.25201C19.3724 8.08322 19.3724 7.93641 19.3724 7.7896C19.3724 7.39032 19.295 7.31231 18.8982 7.31231C12.9657 7.31231 7.03285 7.31231 1.10034 7.31231C1.03544 7.31231 0.969841 7.30911 0.905658 7.31692C0.768426 7.33323 0.656726 7.41124 0.645379 7.54457C0.625875 7.77613 0.64006 8.01052 0.64006 8.19385C1.08899 8.313 1.52728 8.38108 1.92656 8.5442C3.0081 8.98533 4.06659 8.97824 5.14849 8.54527C6.22471 8.11478 7.32398 8.11797 8.39914 8.54846C9.45657 8.97185 10.4959 8.98746 11.5537 8.56406C12.6796 8.11336 13.8132 8.12435 14.9384 8.57576C15.8831 8.95483 16.8352 8.99526 17.7919 8.64172C18.2979 8.45484 18.8014 8.27258 19.3731 8.25165L19.3724 8.25201Z" fill="#609966"/>
<path d="M12.1907 2.61832C12.1921 2.77257 12.0729 2.91831 11.9049 2.92505C11.0347 2.95909 10.6332 3.52079 10.385 4.25907C10.3606 4.33177 10.3411 4.40623 10.324 4.48106C10.2755 4.69488 10.1751 4.79984 10.0099 4.80516C9.84248 4.81048 9.73326 4.70942 9.68326 4.49737C9.60277 4.15517 9.47688 3.83319 9.26944 3.54561C8.99711 3.16831 8.63647 2.95307 8.16627 2.93073C7.94074 2.92009 7.81308 2.80307 7.81521 2.61584C7.81769 2.43747 7.94358 2.32081 8.15811 2.31052C8.79888 2.27932 9.201 1.9123 9.4627 1.36657C9.56128 1.1609 9.62014 0.935368 9.68575 0.715513C9.73858 0.539275 9.84425 0.436794 10.0024 0.437504C10.1584 0.438213 10.2801 0.543885 10.3159 0.719769C10.3957 1.11409 10.5499 1.47472 10.8031 1.78925C11.0708 2.12152 11.4215 2.28925 11.8467 2.31123C12.0559 2.32187 12.1892 2.44563 12.191 2.61867L12.1907 2.61832ZM10.7357 2.62116C10.4932 2.3435 10.2364 2.04989 10.0013 1.7811C9.76199 2.05414 9.5049 2.3474 9.26554 2.62009C9.51128 2.90094 9.76766 3.19384 9.99992 3.45909C10.2425 3.18249 10.4971 2.89278 10.7357 2.6208V2.62116Z" fill="#609966"/>
<path d="M4.38933 6.05836C4.20848 6.03496 4.12444 5.94489 4.06274 5.78674C3.96558 5.5378 3.84892 5.29135 3.70317 5.06831C3.58616 4.88959 3.37907 4.82328 3.16276 4.80732C2.93298 4.7903 2.81206 4.67682 2.81525 4.48924C2.81808 4.31406 2.939 4.20059 3.15886 4.1818C3.54396 4.14882 3.78154 3.92506 3.93118 3.59067C3.9865 3.46727 4.03225 3.33819 4.06593 3.20735C4.10813 3.04387 4.20139 2.946 4.36912 2.9343C4.52089 2.92366 4.6294 3.03394 4.68791 3.2116C4.745 3.38394 4.80741 3.55699 4.88897 3.71868C5.03294 4.00414 5.27513 4.15378 5.59463 4.18215C5.80846 4.2013 5.93505 4.32116 5.93576 4.49385C5.93647 4.67115 5.80987 4.78923 5.59959 4.80803C5.16237 4.84633 4.85138 5.16121 4.70493 5.68745C4.67266 5.80376 4.59288 5.91049 4.52018 6.01049C4.49536 6.04489 4.42479 6.04666 4.38862 6.05872L4.38933 6.05836ZM4.71521 4.4942C4.59465 4.35981 4.48366 4.23641 4.37125 4.11123C4.25387 4.24811 4.14785 4.37151 4.0404 4.49704C4.15352 4.62683 4.26061 4.74987 4.37444 4.88037C4.48969 4.74987 4.59749 4.62753 4.71521 4.4942Z" fill="#609966"/>
<path d="M15.5642 2.92383C15.7918 2.94688 15.8858 3.04227 15.9369 3.199C15.9915 3.36637 16.0486 3.53446 16.1244 3.69296C16.2688 3.99438 16.5166 4.15537 16.8507 4.18196C16.8858 4.1848 16.9227 4.18657 16.9553 4.19863C17.1007 4.25324 17.1996 4.34969 17.1879 4.51529C17.1762 4.6777 17.0737 4.79046 16.9191 4.79827C16.3227 4.82841 16.0971 5.23159 15.9517 5.72485C15.94 5.76456 15.9354 5.80676 15.9195 5.84435C15.8645 5.97697 15.7652 6.05605 15.6202 6.05179C15.4688 6.04754 15.3716 5.96562 15.3227 5.81846C15.2652 5.64577 15.2124 5.46882 15.1308 5.30748C14.9766 5.00216 14.7312 4.82096 14.3755 4.80465C14.1901 4.79614 14.0826 4.6855 14.0706 4.52096C14.0585 4.35466 14.1567 4.20324 14.3266 4.19402C14.9386 4.15998 15.1628 3.73977 15.3124 3.23694C15.3241 3.19758 15.322 3.14581 15.3468 3.11992C15.4237 3.04049 15.5106 2.97135 15.5642 2.92383ZM15.9624 4.49685C15.8503 4.36849 15.74 4.24225 15.6237 4.10927C15.5085 4.24296 15.3989 4.36955 15.2883 4.49792C15.4049 4.63018 15.5124 4.75181 15.6252 4.87982C15.7376 4.75181 15.8418 4.63373 15.962 4.49685H15.9624Z" fill="#609966"/>
<path d="M8.4385 11.9965C8.43957 12.1632 8.28921 12.3121 8.12149 12.31C7.9612 12.3082 7.81794 12.166 7.81404 12.0054C7.81014 11.8331 7.95057 11.687 8.12149 11.6856C8.29382 11.6841 8.43744 11.8253 8.4385 11.9962V11.9965Z" fill="#609966"/>
<path d="M12.1908 12.008C12.1859 12.1693 12.0213 12.319 11.8596 12.3094C11.6954 12.2998 11.5621 12.1569 11.5642 11.9938C11.5667 11.8186 11.7082 11.681 11.8823 11.6857C12.0511 11.6899 12.1961 11.8413 12.1908 12.008Z" fill="#609966"/>
<path d="M3.75904 11.6857C3.92677 11.6903 4.07215 11.8442 4.06506 12.0098C4.05868 12.164 3.90478 12.3105 3.75017 12.3098C3.57926 12.3091 3.43812 12.1637 3.44096 11.9917C3.44415 11.8155 3.58422 11.6807 3.75904 11.6857Z" fill="#609966"/>
<path d="M16.5612 12.0066C16.5566 12.1722 16.4013 12.3169 16.2364 12.3098C16.075 12.3027 15.941 12.1591 15.9424 11.9949C15.9442 11.819 16.0846 11.6807 16.2569 11.6857C16.43 11.6906 16.5661 11.8343 16.5612 12.0069V12.0066Z" fill="#609966"/>
<path d="M5.9436 10.4395C6.1202 10.443 6.25246 10.5841 6.24537 10.7614C6.23863 10.9288 6.10105 11.0575 5.93226 11.0547C5.76524 11.0519 5.63084 10.9164 5.63013 10.7501C5.62907 10.5738 5.76843 10.4363 5.9436 10.4398V10.4395Z" fill="#609966"/>
<path d="M14.0672 10.4379C14.242 10.4404 14.3775 10.5843 14.3701 10.7592C14.363 10.9255 14.224 11.0563 14.0573 11.0531C13.8818 11.0496 13.7477 10.9067 13.7552 10.7311C13.7623 10.5616 13.897 10.4351 14.0672 10.4375V10.4379Z" fill="#609966"/>
<path d="M1.87561 10.7467C1.87632 10.9105 1.73909 11.0502 1.57207 11.0552C1.40008 11.0605 1.24902 10.9165 1.24902 10.7474C1.24902 10.5836 1.38626 10.4446 1.55363 10.4396C1.72774 10.4343 1.87525 10.5751 1.87596 10.7467H1.87561Z" fill="#609966"/>
<path d="M9.99228 11.0554C9.81746 11.0508 9.68165 10.9072 9.68874 10.7341C9.69548 10.5689 9.83236 10.4395 10.0001 10.4395C10.1728 10.4395 10.3167 10.5817 10.315 10.7508C10.3132 10.9189 10.1643 11.0597 9.99228 11.055V11.0554Z" fill="#609966"/>
<path d="M18.7511 10.7437C18.7536 10.9047 18.6135 11.0483 18.4479 11.0537C18.2742 11.0593 18.1249 10.9178 18.1245 10.7473C18.1242 10.582 18.2586 10.4441 18.4263 10.4377C18.599 10.4313 18.7483 10.5721 18.7511 10.7437Z" fill="#609966"/>
</svg>
