<svg width="20" height="20" viewBox="0 0 20 20" fill="none" xmlns="http://www.w3.org/2000/svg">
<path d="M0.000732422 5.56627C0.105689 5.41628 0.251068 5.38224 0.429069 5.38295C1.68181 5.38898 2.93491 5.38118 4.18765 5.38791C5.00001 5.39217 5.75279 5.19076 6.4499 4.77695C6.87611 4.52413 7.3204 4.29577 7.71895 4.00465C8.454 3.46779 8.90929 2.7228 9.18161 1.86043C9.27593 1.56221 9.37876 1.26648 9.47981 0.9704C9.60214 0.612262 9.96453 0.419718 10.3305 0.528223C10.5964 0.606943 10.8591 0.6963 11.1194 0.79204C11.4247 0.904446 11.6272 1.25549 11.5332 1.56576C11.1854 2.71535 10.8091 3.85253 10.0003 4.78652C9.47201 5.39642 8.86177 5.89924 8.15438 6.28539C7.79164 6.48325 7.42997 6.68359 7.06829 6.88323C7.05021 6.89316 7.03461 6.90805 6.98106 6.94847H7.19452C8.06928 6.94847 8.94368 6.94847 9.81844 6.94847C9.87163 6.94847 9.92517 6.94599 9.978 6.9506C10.1337 6.96408 10.245 7.07435 10.2556 7.22187C10.2656 7.36157 10.1613 7.49738 10.0124 7.52681C9.94964 7.53923 9.88297 7.53639 9.81809 7.53639C6.69208 7.53674 3.56572 7.53568 0.439707 7.53923C0.254614 7.53923 0.103207 7.50235 0.00108701 7.33888V7.12613C0.105335 6.97436 0.252487 6.94457 0.429424 6.94528C1.67579 6.95096 2.92215 6.94493 4.16851 6.94954C4.93334 6.95237 5.68187 6.846 6.38146 6.53786C6.92539 6.29851 7.44699 6.00561 7.96751 5.71733C8.73909 5.29005 9.3706 4.70319 9.87943 3.98266C10.4102 3.23128 10.6606 2.36076 10.9442 1.50406C10.9783 1.40194 10.9379 1.3491 10.8425 1.3179C10.635 1.25053 10.428 1.18103 10.2216 1.1094C10.1081 1.06969 10.0454 1.10656 10.0089 1.22003C9.90921 1.52888 9.80142 1.8349 9.70072 2.14375C9.41989 3.00576 8.96709 3.76459 8.24799 4.3213C7.77959 4.68405 7.25799 4.98119 6.74668 5.28402C5.9471 5.75775 5.07801 5.98079 4.1444 5.97193C2.89803 5.96023 1.65167 5.96661 0.405312 5.97193C0.230857 5.97264 0.0950516 5.92867 0.00108701 5.77867V5.56592L0.000732422 5.56627Z" fill="#609966"/>
<path d="M19.9992 12.4475C19.867 12.673 19.8095 12.7046 19.556 12.6582C18.6213 12.4869 17.6877 12.3114 16.753 12.1401C16.6495 12.1209 16.5428 12.1178 16.4233 12.1061C16.4162 12.1614 16.4052 12.2057 16.4052 12.2504C16.4038 12.6521 16.4002 13.0539 16.408 13.4553C16.4094 13.5297 16.4414 13.6184 16.4892 13.6751C16.841 14.0889 17.2005 14.496 17.5569 14.9063C17.6948 15.0651 17.6994 15.2509 17.5721 15.3626C17.4431 15.4761 17.2658 15.4509 17.1193 15.2977C17.0867 15.2637 17.0566 15.2272 17.0254 15.1917C16.7534 14.8804 16.4818 14.5687 16.2098 14.2577C16.1871 14.2315 16.1619 14.2074 16.1183 14.1616C15.9605 14.362 15.8091 14.5542 15.6577 14.746C15.6138 14.8017 15.5712 14.8588 15.5237 14.9112C15.4053 15.0421 15.2368 15.0626 15.112 14.9651C14.984 14.8651 14.9571 14.6999 15.0656 14.5559C15.2783 14.273 15.5067 14.0013 15.7155 13.7155C15.773 13.6372 15.8088 13.5251 15.8113 13.4276C15.8215 13.0092 15.8155 12.5908 15.8155 12.1341C15.5092 12.2021 15.2241 12.2628 14.9404 12.3291C14.2624 12.4879 13.5845 12.6468 12.9079 12.8106C12.1286 12.9993 11.3627 12.9255 10.5964 12.7245C9.93439 12.5507 9.266 12.4018 8.60116 12.2401C7.86646 12.0617 7.15162 12.1621 6.4343 12.3585C5.7691 12.5404 5.09823 12.7071 4.42239 12.844C3.83981 12.962 3.25687 12.8851 2.68812 12.722C1.89953 12.4961 1.11164 12.2685 0.32624 12.0316C0.209582 11.9965 0.10888 11.9089 0.000732422 11.8454C0.000732422 11.7745 0.000732422 11.7036 0.000732422 11.6327C0.156395 11.4309 0.225538 11.4068 0.470556 11.4774C1.25915 11.7039 2.0481 11.9291 2.83598 12.1592C3.54905 12.3674 4.25644 12.3411 4.96774 12.1429C5.59322 11.9685 6.22155 11.8022 6.85341 11.6529C7.58244 11.4809 8.30508 11.5465 9.02595 11.7369C9.73937 11.9256 10.4588 12.0915 11.1776 12.2585C11.8087 12.405 12.4317 12.3344 13.0533 12.1787C13.8323 11.9837 14.6135 11.7972 15.396 11.6171C15.9861 11.4813 16.5803 11.4944 17.1736 11.6068C17.9856 11.7607 18.7972 11.9174 19.6099 12.0688C19.7734 12.0993 19.9138 12.1546 20 12.3064V12.4482L19.9992 12.4475Z" fill="#609966"/>
<path d="M0.000488281 19.147C0.0809788 18.957 0.230258 18.9062 0.427407 18.9062C6.81204 18.9091 13.1967 18.9091 19.5817 18.9062C19.7636 18.9062 19.9036 18.9541 19.999 19.1116V19.2889C19.9146 19.4757 19.7575 19.5013 19.5731 19.5009C13.1914 19.4984 6.80956 19.4981 0.427761 19.502C0.239123 19.502 0.0944529 19.458 0.000842865 19.2889V19.147H0.000488281Z" fill="#609966"/>
<path d="M19.9992 17.6228C19.9091 17.7767 19.774 17.8238 19.5985 17.8235C15.8119 17.8203 12.0253 17.8214 8.23873 17.8207C7.94514 17.8207 7.84656 17.7203 7.84621 17.4256C7.8455 17.0062 7.85188 16.5867 7.84089 16.1675C7.83876 16.0881 7.79089 15.9849 7.72955 15.9356C7.28384 15.5764 6.82891 15.2286 6.37717 14.8765C6.0279 14.6045 5.62793 14.4871 5.18931 14.4843C5.08329 14.4836 4.97585 14.4878 4.87125 14.4737C4.72197 14.4534 4.61418 14.3169 4.62198 14.1765C4.63014 14.0311 4.74325 13.9098 4.89501 13.8996C5.55914 13.8542 6.17683 13.99 6.71686 14.3967C7.07995 14.6705 7.43454 14.9548 7.79337 15.2339C7.85826 15.2843 7.92457 15.3325 8.00825 15.3952C8.15718 15.0031 8.30078 14.6244 8.44439 14.2456C8.52807 14.0247 8.6075 13.8024 8.69437 13.5829C8.7738 13.3819 8.92627 13.3046 9.09682 13.3709C9.25603 13.4326 9.31702 13.5897 9.24327 13.7875C9.00605 14.4233 8.75855 15.0555 8.52665 15.6934C8.47382 15.8392 8.44829 16.0012 8.44297 16.1569C8.43092 16.5048 8.43907 16.8533 8.43907 17.2334H8.68551C12.3065 17.2334 15.9279 17.2342 19.5489 17.231C19.7294 17.231 19.8854 17.2586 19.9999 17.4093V17.6221L19.9992 17.6228Z" fill="#609966"/>
<path d="M19.9988 7.30083C19.9165 7.47777 19.7772 7.53663 19.5843 7.53663C16.8852 7.53309 14.1857 7.53415 11.4867 7.53379C11.4335 7.53379 11.3796 7.53486 11.3278 7.52564C11.1828 7.50046 11.0916 7.41572 11.0835 7.26501C11.076 7.12424 11.125 7.01006 11.2704 6.95758C12.5355 6.50228 13.7815 5.97855 15.1279 5.80338C15.7236 5.72573 16.326 5.67928 16.9267 5.66367C17.8181 5.64063 18.7102 5.66084 19.602 5.65516C19.7867 5.6541 19.9247 5.7041 19.9984 5.8821V6.02394C19.9094 6.18563 19.7718 6.24095 19.5896 6.23989C18.846 6.23421 18.1021 6.24662 17.3582 6.23563C16.2721 6.21967 15.2016 6.3335 14.1492 6.59944C13.8046 6.68632 13.467 6.80121 13.1262 6.90333C13.1294 6.91751 13.1326 6.9317 13.1358 6.94553C13.1989 6.94553 13.2621 6.94553 13.3252 6.94553C15.4087 6.94553 17.4926 6.9473 19.5761 6.94233C19.7648 6.94198 19.9101 6.98347 19.9984 7.15864V7.30047L19.9988 7.30083Z" fill="#609966"/>
<path d="M0.000488281 9.0775C0.106863 8.93141 0.249406 8.89418 0.428471 8.89453C5.37385 8.89879 10.3192 8.89773 15.2642 8.89808C15.3114 8.89808 15.3589 8.89631 15.4061 8.90021C15.5646 8.91297 15.688 9.03708 15.6919 9.18495C15.6954 9.32465 15.5848 9.45408 15.4341 9.47748C15.3703 9.48741 15.3047 9.48564 15.2398 9.48564C10.3121 9.48564 5.38448 9.48564 0.457192 9.48812C0.269617 9.48812 0.1058 9.46614 0.000842865 9.29061V9.07786L0.000488281 9.0775Z" fill="#609966"/>
<path d="M0.000709167 17.4462C0.095383 17.2775 0.242181 17.2321 0.429401 17.2324C2.50159 17.2367 4.57377 17.2349 6.64596 17.2356C6.71049 17.2356 6.77715 17.2363 6.8385 17.253C6.98317 17.292 7.05444 17.3994 7.04699 17.5434C7.03955 17.687 6.96047 17.787 6.8112 17.8125C6.7534 17.8225 6.69347 17.8214 6.63461 17.8214C4.56845 17.8218 2.50194 17.82 0.435783 17.8249C0.249627 17.8253 0.103538 17.781 0 17.6235V17.4462H0.000709167Z" fill="#609966"/>
<path d="M19.9993 9.25319C19.9178 9.43191 19.7767 9.48793 19.5848 9.48651C18.6934 9.48049 17.8016 9.48545 16.9102 9.48155C16.8187 9.4812 16.7162 9.4702 16.6382 9.42801C16.517 9.36205 16.4847 9.23688 16.5219 9.10462C16.5627 8.96136 16.6659 8.89612 16.8134 8.89647C17.3095 8.89683 17.8052 8.89647 18.3012 8.89647C18.7264 8.89647 19.1515 8.90463 19.5763 8.89293C19.7681 8.88761 19.9078 8.94222 19.999 9.11171V9.25355L19.9993 9.25319Z" fill="#609966"/>
<path d="M12.1 15.9622C11.9489 15.964 11.8167 15.8381 11.811 15.6874C11.805 15.5296 11.9372 15.3913 12.0954 15.3906C12.251 15.3899 12.3758 15.5098 12.3819 15.6654C12.3883 15.83 12.2641 15.9605 12.1 15.9622Z" fill="#609966"/>
<path d="M2.21957 15.4264C2.05149 15.4221 1.93625 15.2987 1.94264 15.1296C1.94866 14.9718 2.06993 14.8576 2.22985 14.8594C2.39012 14.8612 2.51812 14.9973 2.50997 15.1573C2.50217 15.3108 2.37345 15.4299 2.21957 15.4264Z" fill="#609966"/>
</svg>
