<svg width="25" height="24" viewBox="0 0 25 24" fill="none" xmlns="http://www.w3.org/2000/svg">
<path fill-rule="evenodd" clip-rule="evenodd" d="M13.9469 18.37C17.876 17.5518 18.3929 13.9691 16.8676 12.3118C16.1369 11.5035 15.0424 11.0551 12.4409 10.4272C11.2541 10.1512 9.0073 9.63394 9.83934 8.40814C10.113 7.95868 10.7981 7.6896 11.7102 7.64476C14.8539 7.43249 14.1962 10.8478 16.366 9.84322C17.3693 9.34991 17.2781 7.73445 16.1825 6.79168C13.7827 4.84237 6.91857 4.86529 6.91857 9.12568C6.91857 13.2715 12.8797 12.3506 14.4029 14.0169C15.1914 14.9846 14.3482 16.5462 11.847 16.4406C9.00526 16.2333 9.75927 13.5685 8.01411 13.5685C6.69054 13.5685 6.23449 14.6458 6.91857 16.037C8.10228 18.4537 11.4315 18.9012 13.9925 18.37H13.9469H13.9469ZM15.1792 21.8251C13.8283 21.3836 13.8952 21.4116 12.6689 21.4664C7.83777 21.6916 4.10422 18.665 2.90328 14.5561C2.40364 12.7144 2.96814 11.0899 2.40162 9.30506C0.657467 4.63408 5.75817 0.502251 9.88495 2.5283C10.2508 2.70868 10.4788 2.75253 11.8936 2.75253C13.1716 2.75253 13.6732 2.79738 14.3117 2.97776C17.1869 3.6953 19.5148 5.53499 20.7461 8.09322C21.5224 9.66383 21.796 11.2803 21.6136 13.119C21.5224 14.1076 21.5224 14.1973 21.7504 14.7803C23.1743 18.8942 19.2786 22.8895 15.2238 21.8261H15.1792V21.8251H15.1792Z" fill="white"/>
</svg>
