<svg width="16" height="16" viewBox="0 0 16 16" fill="none" xmlns="http://www.w3.org/2000/svg">
<path d="M7.99967 4.75331L8.64634 6.27998L8.95967 7.01998L9.75968 7.08665L11.4063 7.22665L10.153 8.31331L9.54634 8.83998L9.72634 9.62665L10.0997 11.2333L8.68634 10.38L7.99967 9.95331L7.31301 10.3666L5.89967 11.22L6.27301 9.61331L6.45301 8.82665L5.84634 8.29998L4.59301 7.21331L6.23967 7.07331L7.03967 7.00665L7.35301 6.26665L7.99967 4.75331ZM7.99967 1.33331L6.12634 5.75331L1.33301 6.15998L4.97301 9.31331L3.87967 14L7.99967 11.5133L12.1197 14L11.0263 9.31331L14.6663 6.15998L9.87301 5.75331L7.99967 1.33331Z" fill="#FFD700"/>
</svg>
