<svg width="16" height="16" viewBox="0 0 16 16" fill="none" xmlns="http://www.w3.org/2000/svg">
<path d="M7.9987 4.75398L8.64536 6.28065L8.9587 7.02065L9.7587 7.08732L11.4054 7.22732L10.152 8.31398L9.54536 8.84065L9.72536 9.62732L10.0987 11.234L8.68536 10.3807L7.9987 9.95399L7.31203 10.3673L5.8987 11.2207L6.27203 9.61399L6.45203 8.82732L5.84537 8.30065L4.59203 7.21398L6.2387 7.07398L7.0387 7.00732L7.35203 6.26732L7.9987 4.75398ZM7.9987 1.33398L6.12536 5.75398L1.33203 6.16065L4.97203 9.31398L3.8787 14.0007L7.9987 11.514L12.1187 14.0007L11.0254 9.31398L14.6654 6.16065L9.87203 5.75398L7.9987 1.33398Z" fill="#E3B252"/>
</svg>
