<svg width="20" height="20" viewBox="0 0 20 20" fill="none" xmlns="http://www.w3.org/2000/svg">
<path d="M10.0003 5.94169L10.8087 7.85002L11.2003 8.77502L12.2003 8.85835L14.2587 9.03335L12.692 10.3917L11.9337 11.05L12.1587 12.0334L12.6253 14.0417L10.8587 12.975L10.0003 12.4417L9.14199 12.9584L7.37533 14.025L7.84199 12.0167L8.06699 11.0334L7.30866 10.375L5.74199 9.01669L7.80033 8.84169L8.80033 8.75835L9.19199 7.83335L10.0003 5.94169ZM10.0003 1.66669L7.65866 7.19169L1.66699 7.70002L6.21699 11.6417L4.85033 17.5L10.0003 14.3917L15.1503 17.5L13.7837 11.6417L18.3337 7.70002L12.342 7.19169L10.0003 1.66669Z" fill="#609966"/>
</svg>
