<svg width="16" height="16" viewBox="0 0 16 16" fill="none" xmlns="http://www.w3.org/2000/svg">
<path d="M7.99992 4.75398L8.64659 6.28065L8.95992 7.02065L9.75992 7.08732L11.4066 7.22732L10.1533 8.31398L9.54659 8.84065L9.72659 9.62732L10.0999 11.234L8.68659 10.3807L7.99992 9.95399L7.31325 10.3673L5.89992 11.2207L6.27325 9.61399L6.45325 8.82732L5.84659 8.30065L4.59325 7.21398L6.23992 7.07398L7.03992 7.00732L7.35325 6.26732L7.99992 4.75398ZM7.99992 1.33398L6.12659 5.75398L1.33325 6.16065L4.97325 9.31398L3.87992 14.0007L7.99992 11.514L12.1199 14.0007L11.0266 9.31398L14.6666 6.16065L9.87325 5.75398L7.99992 1.33398Z" fill="#FFD700"/>
</svg>
