<svg width="74" height="74" viewBox="0 0 74 74" fill="none" xmlns="http://www.w3.org/2000/svg">
<g opacity="0.5" clip-path="url(#clip0_198_59519)">
<path d="M54.0593 49.9234C54.0593 51.9542 54.0593 53.9795 54.0593 55.9973C54.4906 55.9973 54.9304 55.9987 55.3702 55.997C56.1947 55.9937 57.0193 55.9811 57.8437 55.9875C58.2257 55.9904 58.4205 56.1569 58.4364 56.5357C58.4744 57.4422 58.4803 58.35 58.5003 59.2572C58.5053 59.4864 58.3734 59.5967 58.168 59.6304C58.0501 59.6497 57.9281 59.6463 57.8078 59.6479C56.7795 59.6612 55.7512 59.6704 54.723 59.6876C54.494 59.6914 54.2655 59.7216 54.0044 59.7422C54.0044 61.4838 54.0044 63.2032 54.0044 64.9529C54.0895 64.9568 54.1875 64.9643 54.2856 64.9655C56.0181 64.9858 57.7508 65.0082 59.4832 65.0215C59.7142 65.0233 59.805 65.0838 59.8021 65.3368C59.7908 66.3282 59.804 67.32 59.8064 68.3116C59.8067 68.4319 59.8058 68.5536 59.7888 68.6721C59.7602 68.8698 59.6583 68.9865 59.4366 68.9813C59.1124 68.9736 58.7879 68.9831 58.4636 68.9826C55.9151 68.9782 53.3664 68.9746 50.8179 68.9665C50.6057 68.9658 50.3937 68.9337 50.1816 68.9165C49.9391 68.8968 49.8296 68.7835 49.8275 68.5227C49.8066 65.8172 49.7697 63.1117 49.7505 60.4062C49.7333 57.9966 49.7287 55.587 49.7261 53.1773C49.7238 51.0831 49.7298 48.9888 49.7368 46.8944C49.7387 46.3449 49.8729 46.1854 50.4123 46.1617C51.5043 46.1138 52.5972 46.0709 53.69 46.0622C55.4971 46.0478 57.3043 46.0569 59.1114 46.0667C59.6552 46.0697 59.7764 46.1617 59.8063 46.71C59.8521 47.5502 59.8634 48.3939 59.8462 49.2353C59.8362 49.7236 59.7145 49.7963 59.2225 49.8072C57.5185 49.8449 55.8148 49.8839 54.0593 49.9234Z" fill="#609966"/>
<path d="M40.7712 49.7614C40.7712 51.7889 40.7712 53.8211 40.7712 55.8475C41.1041 55.8475 41.4352 55.8499 41.7665 55.847C42.702 55.8386 43.6376 55.821 44.573 55.8219C44.9288 55.8222 45.1229 55.9803 45.1387 56.3338C45.1805 57.2678 45.1936 58.2032 45.2034 59.1381C45.2062 59.4032 44.9904 59.4688 44.775 59.475C44.4048 59.4856 44.0336 59.4681 43.6632 59.4772C42.7465 59.4998 41.8301 59.5305 40.9136 59.5593C40.8594 59.561 40.8056 59.5743 40.7374 59.5843C40.7302 59.6615 40.718 59.7332 40.7175 59.805C40.6942 62.2049 40.6754 64.7561 40.6464 67.156C40.6407 67.6184 40.5852 68.0799 40.5722 68.5422C40.5656 68.7755 40.454 68.8553 40.2444 68.8518C39.2068 68.8347 38.169 68.8288 37.1319 68.7951C36.6628 68.78 36.5788 68.6752 36.5587 68.1813C36.532 67.5241 36.5107 66.8662 36.5084 66.2085C36.4857 59.7583 36.4671 53.1571 36.4487 46.7069C36.4473 46.1851 36.5876 46.0175 37.1145 45.9953C38.2435 45.9476 39.3733 45.9046 40.5033 45.8949C42.264 45.8799 44.0248 45.8881 45.7855 45.8994C46.3782 45.9031 46.4825 45.978 46.5174 46.5638C46.5666 47.3944 46.5739 48.2292 46.5561 49.0613C46.5454 49.5585 46.4227 49.6317 45.9112 49.6406C44.2345 49.6692 42.5578 49.6989 40.8812 49.7293C40.8554 49.7299 40.8299 49.7439 40.7712 49.7614Z" fill="#609966"/>
<path d="M18.4295 65.2885C18.5526 65.2885 18.6616 65.2871 18.7704 65.2888C20.2431 65.312 21.7157 65.3342 23.1882 65.3608C23.3353 65.3634 23.482 65.4074 23.629 65.4069C23.8299 65.4063 23.9142 65.5087 23.9314 65.6909C23.947 65.8567 23.9724 66.0228 23.971 66.1885C23.9649 66.9018 23.952 67.6151 23.9383 68.3283C23.9317 68.6719 23.8603 68.7385 23.5012 68.7465C22.4641 68.7691 21.4269 68.7989 20.3896 68.8105C18.5737 68.8306 16.7577 68.8405 14.9417 68.8518C14.4167 68.8551 14.3007 68.7466 14.2986 68.2185C14.2927 66.6159 14.2946 65.0132 14.2952 63.4107C14.2969 58.4255 14.2975 53.4405 14.3037 48.4554C14.3046 47.8074 14.3397 47.1593 14.3514 46.511C14.3556 46.276 14.4679 46.1457 14.6919 46.1136C14.985 46.0717 15.2787 46.0211 15.5736 46.0082C16.3508 45.9745 17.1289 45.9555 17.9067 45.9384C18.3593 45.9284 18.4395 45.9935 18.4743 46.4527C18.5122 46.951 18.5408 47.4517 18.5377 47.9512C18.5057 53.1861 18.4661 58.421 18.4296 63.6559C18.4263 64.19 18.4295 64.724 18.4295 65.2885Z" fill="#609966"/>
<path d="M27.7189 57.4373C27.756 54.6432 27.7919 51.8492 27.831 49.0551C27.843 48.2021 27.8578 47.3487 27.8838 46.496C27.9004 45.9503 27.9682 45.891 28.5135 45.8893C29.5699 45.8859 30.6263 45.8858 31.6827 45.8893C32.0934 45.8906 32.1215 45.9179 32.1647 46.3171C32.1869 46.5217 32.2067 46.7283 32.2047 46.9336C32.158 51.753 32.1102 56.5724 32.058 61.3917C32.0368 63.3512 32.0063 65.3108 31.9772 67.2702C31.9716 67.6545 31.9464 68.0385 31.9431 68.4228C31.9408 68.6931 31.8416 68.8535 31.5549 68.8518C30.3611 68.8441 29.1672 68.8379 27.9734 68.829C27.7381 68.8272 27.654 68.6862 27.6515 68.4635C27.643 67.676 27.614 66.8885 27.6206 66.1011C27.6445 63.2131 27.6796 60.325 27.7104 57.437C27.7133 57.4373 27.7161 57.4373 27.7189 57.4373Z" fill="#609966"/>
<path d="M24.6017 21.1826C24.1919 20.7834 23.7513 20.4238 23.3954 19.994C22.4328 18.8312 22.0871 17.4368 22.1429 15.9699C22.2475 13.2175 23.4962 10.9845 25.4849 9.14703C26.3953 8.30586 27.4776 7.75649 28.691 7.44648C31.2274 6.7984 34.4064 8.55734 34.7933 11.5156C35.0977 13.843 33.9685 17.0303 31.2274 18.0554C30.2195 18.4323 29.2453 18.3291 28.3134 17.8137C27.8966 17.5832 27.7712 17.1477 27.6507 16.7307C27.5961 16.5415 27.7473 16.4346 27.9236 16.4227C30.3761 16.257 31.547 14.6265 32.3154 12.5584C32.6067 11.7748 32.6367 10.966 32.3358 10.165C32.0793 9.48205 31.4949 9.16741 30.7857 9.3553C30.1246 9.53047 29.5696 9.90322 29.0845 10.3699C27.4771 11.9161 26.3959 13.7583 26.0188 15.9757C25.8279 17.0983 25.9103 18.2109 26.2603 19.2976C26.4449 19.8707 26.7704 20.3614 27.2839 20.6764C27.8017 20.9943 28.3589 21.2478 28.8953 21.5364C28.9557 21.5689 29.0431 21.6701 29.03 21.699C28.9831 21.8013 28.9057 21.894 28.8233 21.9732C28.7928 22.0024 28.7163 21.9882 28.6611 21.9865C25.6158 21.884 23.2585 23.2306 21.3327 25.475C19.2422 27.9114 18.0436 30.7404 17.7252 33.9253C17.584 35.3383 17.6944 36.7418 18.3738 38.0411C19.1187 39.4656 20.645 40.2396 22.2435 40.0274C24.2487 39.7612 25.9304 38.8694 27.367 37.4658C28.9688 35.9005 30.1689 34.0463 31.263 32.1138C31.3001 32.048 31.3201 31.95 31.302 31.8788C30.6743 29.3969 31.2487 27.0891 32.3201 24.8561C33.0982 23.2343 34.2186 21.8993 35.7174 20.8953C36.628 20.2853 37.6049 19.8434 38.7125 19.7215C40.623 19.5114 42.3484 20.8841 42.5095 22.7973C42.6739 24.7476 42.0256 26.4548 40.7762 27.9179C40.1281 28.6768 39.2821 29.1766 38.2474 29.297C37.3855 29.3973 36.5833 28.9919 36.2018 28.2166C36.0642 27.9371 36.1435 27.7479 36.4457 27.7176C37.1324 27.6488 37.6976 27.321 38.2047 26.8927C39.463 25.8297 40.272 24.4851 40.6352 22.8776C40.7259 22.4767 40.7493 22.0704 40.6058 21.672C40.4396 21.2102 40.1375 21.0694 39.6894 21.2705C39.0325 21.5653 38.5125 22.037 38.0649 22.5909C36.6215 24.3769 35.7306 26.4236 35.2181 28.6478C34.9758 29.6991 34.7856 30.7563 34.9472 31.8397C35.0016 32.2047 35.0743 32.5722 35.1897 32.9216C35.6807 34.4072 37.2917 35.2208 38.853 34.7234C40.3459 34.2481 41.5556 33.3264 42.5743 32.147C42.8904 31.7811 43.1429 31.3839 43.3404 30.9344C43.9012 29.6589 44.7427 28.6064 45.9621 27.8942C46.175 27.7699 46.0602 27.6162 46.0407 27.484C45.8457 26.1634 46.0893 24.9395 46.8313 23.8249C47.2828 23.1468 47.8502 22.603 48.6404 22.3302C49.8732 21.9044 51.1246 22.2673 51.9299 23.2917C52.6289 24.1807 52.9168 25.2258 53.0737 26.3205C53.2183 27.3283 53.1991 28.3333 53.0272 29.336C53.0165 29.3987 53.0141 29.4629 53.0002 29.6022C53.2388 29.472 53.445 29.3823 53.6261 29.2565C54.2089 28.852 54.7096 28.3632 55.127 27.7851C56.3712 26.0617 57.1656 24.1556 57.4356 22.0462C57.6201 20.6036 57.4212 19.1935 56.6808 17.938C55.9187 16.6457 54.6968 15.9659 53.2108 15.8166C51.9924 15.6942 50.8405 16.0289 49.7174 16.461C48.4476 16.9497 47.1949 17.486 45.9119 17.9367C45.1307 18.211 44.3166 18.4287 43.4991 18.5556C41.7022 18.8344 39.9737 17.6306 39.6459 15.8832C39.4595 14.8891 39.6884 13.9751 40.5221 13.3123C40.7072 13.1651 40.9677 13.1057 41.2017 13.0323C41.253 13.0163 41.3695 13.0969 41.404 13.1611C41.4822 13.3063 41.5428 13.465 41.5841 13.625C41.7513 14.2727 42.1758 14.6743 42.7789 14.9182C43.6044 15.2519 44.4629 15.2435 45.3256 15.1614C46.9072 15.011 48.3938 14.4857 49.8891 13.9936C50.9302 13.6509 51.984 13.3851 53.0959 13.398C55.4552 13.4253 57.1478 14.5265 58.252 16.5729C58.8677 17.714 59.1011 18.965 59.1313 20.2421C59.2074 23.4487 58.3009 26.3535 56.2925 28.8718C55.3718 30.0262 54.1911 30.8488 52.7465 31.2424C52.5728 31.2896 52.512 31.3865 52.4596 31.5336C51.9541 32.9555 51.3038 34.3027 50.3509 35.4841C49.6752 36.3218 48.8971 37.039 47.8897 37.4726C45.5808 38.4663 43.0965 37.056 42.772 34.5592C42.7315 34.2479 42.7203 33.933 42.6954 33.6196C42.6707 33.59 42.646 33.5604 42.6212 33.5308C42.5893 33.6043 42.5721 33.6903 42.523 33.7499C41.8813 34.5269 41.1556 35.193 40.2579 35.6856C37.4855 37.2072 34.0215 36.412 32.212 33.8077C32.1858 33.7701 32.1588 33.7332 32.1027 33.655C32.0459 33.7775 31.9991 33.8704 31.9589 33.9662C30.8217 36.6744 29.0535 38.8793 26.6615 40.5804C25.1888 41.6278 23.5561 42.3139 21.7456 42.384C17.8052 42.5365 14.3982 40.1775 13.7032 36.2823C12.9538 32.0825 13.999 28.3325 16.7117 25.0486C17.8253 23.7005 19.1505 22.6166 20.7836 21.9477C21.954 21.4683 23.1884 21.2843 24.4404 21.1924C24.5024 21.1879 24.5642 21.1847 24.6017 21.1826ZM47.2937 29.9711C47.2321 30.0697 47.1941 30.1584 47.1322 30.225C46.3863 31.0279 45.88 31.9648 45.5682 33.0103C45.4062 33.5537 45.2757 34.1041 45.335 34.6777C45.4478 35.7713 46.3332 36.4274 47.4117 36.2239C48.0179 36.1095 48.5015 35.7784 48.9378 35.3636C49.9428 34.4083 50.552 33.2084 51.052 31.9415C51.1052 31.8068 51.1487 31.6685 51.2083 31.4989C49.6895 31.5651 48.4078 31.0899 47.2937 29.9711ZM49.0597 28.825C49.0689 28.8773 49.0662 28.8995 49.076 28.9121C49.7057 29.7166 50.5499 30.0241 51.5455 29.9563C51.6172 29.9514 51.7241 29.8306 51.7403 29.7489C51.8332 29.2778 51.9325 28.8047 51.976 28.3273C52.0759 27.2335 52.0756 26.1401 51.678 25.0937C51.5651 24.7966 51.3947 24.5116 51.2038 24.2562C50.9935 23.9749 50.6797 23.9145 50.3538 24.0499C50.1763 24.1236 49.9922 24.2114 49.851 24.3374C48.9796 25.1154 48.5268 26.0987 48.4576 27.2627C48.4473 27.4351 48.5174 27.5094 48.6754 27.5899C49.0264 27.7689 49.3612 27.9836 49.6852 28.2087C49.7618 28.2619 49.8215 28.4297 49.7949 28.5154C49.7689 28.5992 49.6299 28.665 49.5272 28.7038C49.3765 28.7608 49.2143 28.7867 49.0597 28.825Z" fill="#609966"/>
<path d="M48.9391 43.1981C47.1938 43.2548 45.3181 42.8218 43.4683 42.2095C41.9043 41.6918 40.3288 41.2026 38.6895 40.9744C36.9248 40.7287 35.1639 40.657 33.4375 41.2212C33.1223 41.3243 32.8144 41.4606 32.5199 41.6136C31.8462 41.9634 31.3561 42.484 31.0825 43.2052C31.0376 43.3236 30.9055 43.4639 30.794 43.4836C30.7121 43.498 30.5703 43.3497 30.5034 43.2437C29.9306 42.3348 30.0452 40.7603 30.8021 39.8444C31.1267 39.4516 31.531 39.101 31.9578 38.8204C33.4838 37.8178 35.1597 37.546 36.9566 37.8466C38.6119 38.1235 40.1445 38.7308 41.6347 39.4679C43.0055 40.1461 44.3865 40.7975 45.873 41.1881C47.5367 41.6253 49.1911 41.643 50.811 41.0057C52.2793 40.4282 53.2074 39.3406 53.666 37.8446C53.7797 37.4735 53.8656 37.0931 53.9487 36.7137C53.9948 36.503 54.069 36.4198 54.3091 36.4724C55.4597 36.7244 56.2476 37.9096 56.054 39.1315C55.8101 40.6722 54.9066 41.7097 53.536 42.3666C52.1534 43.029 50.6753 43.2335 48.9391 43.1981Z" fill="#609966"/>
<path d="M60.2002 43.9559C61.0727 43.0796 61.6587 42.1036 62.1031 41.0323C62.6918 39.6139 62.8655 38.1489 62.7182 36.6241C62.5786 35.1782 62.4651 33.7283 62.3976 32.2775C62.317 30.5454 62.9256 29.007 63.8697 27.5876C64.6622 26.3959 65.6892 25.4729 67.018 24.9106C67.217 24.8263 67.2624 24.7199 67.2082 24.504C66.8369 23.0242 66.2519 21.6257 65.6171 20.2451C64.6174 18.0706 63.7315 15.8561 63.2648 13.4959C62.9447 11.8776 62.7734 10.2544 63.1278 8.61685C63.1434 8.54458 63.1631 8.47304 63.181 8.40121C63.394 7.54847 63.5838 7.409 64.4616 7.4606C65.3026 7.51003 65.4309 7.66063 65.2215 8.46856C64.5386 11.1021 64.7768 13.697 65.4902 16.2834C66.0063 18.1542 66.7532 19.9365 67.4815 21.7289C67.8179 22.5567 68.0688 23.4192 68.3636 24.2641C68.3909 24.3423 68.4411 24.4455 68.5068 24.4721C69.4408 24.8494 70.0961 25.5416 70.6361 26.3568C71.5745 27.7736 72.0834 29.348 72.3074 31.0222C72.4906 32.3906 72.4929 33.7581 72.2336 35.1168C71.9292 36.7117 71.164 38.0833 70.1447 39.3267C68.3987 41.4564 66.2446 42.9689 63.5637 43.6872C62.6269 43.9383 61.6701 44.0279 60.7045 44.0383C60.5609 44.04 60.417 43.993 60.2002 43.9559ZM66.9563 35.6825C68.9033 34.0692 69.5917 27.8308 68.1617 24.948C68.1027 24.9593 68.0397 24.9668 67.9794 24.9841C67.9205 25.0012 67.8644 25.0284 67.8372 25.0391C68.6083 28.6896 68.6054 32.2476 66.9563 35.6825Z" fill="#609966"/>
<path d="M12.2001 23.638C11.9136 23.9859 11.6316 24.2829 11.4012 24.6156C10.0593 26.5535 9.46048 28.6788 9.72439 31.0489C9.88309 32.4734 9.97357 33.9075 10.0385 35.34C10.1155 37.0418 9.50745 38.549 8.60399 39.9592C7.98684 40.9225 7.1685 41.6749 6.21734 42.2898C5.97077 42.4492 5.69327 42.5637 5.42228 42.6812C5.22846 42.7653 5.17108 42.8651 5.22644 43.0858C5.59774 44.5657 6.18453 45.9633 6.81642 47.3453C7.7686 49.428 8.63058 51.5422 9.10696 53.7952C9.3859 55.1146 9.58622 56.4421 9.47146 57.7916C9.4216 58.3778 9.29297 58.9614 9.15219 59.5345C9.04018 59.9904 8.81457 60.1319 8.34094 60.1349C8.10131 60.1363 7.85951 60.1186 7.62233 60.0845C7.16402 60.0187 7.05273 59.8503 7.14697 59.4007C7.23817 58.9659 7.33312 58.532 7.42418 58.0974C7.71295 56.7196 7.66468 55.3359 7.48878 53.9513C7.14422 51.2389 6.12831 48.7344 5.11096 46.2274C4.72289 45.271 4.41793 44.2811 4.07033 43.308C4.04518 43.2378 3.99546 43.1473 3.93447 43.123C2.96062 42.733 2.29433 42.0026 1.7428 41.1487C0.74062 39.5972 0.2443 37.8765 0.0707181 36.053C-0.0680319 34.5945 -0.0203366 33.1477 0.38782 31.7289C0.863616 30.0743 1.82634 28.7132 2.98461 27.4782C4.68025 25.6703 6.71019 24.4011 9.1402 23.8567C9.98267 23.6679 10.8627 23.6432 11.7272 23.5588C11.873 23.5442 12.0263 23.6068 12.2001 23.638ZM4.63906 42.5546C4.11759 40.745 4.07568 38.9342 4.14101 37.1151C4.20662 35.2871 4.73648 33.5721 5.46954 31.909C3.51403 33.7146 2.82288 40.1315 4.28713 42.6551C4.39726 42.6238 4.50971 42.5916 4.63906 42.5546Z" fill="#609966"/>
<path d="M67.8301 58.2638C69.6651 58.3769 71.5937 59.1054 72.9967 60.9082C73.6552 61.7543 74.0506 62.7011 73.9954 63.8098C73.9441 64.8399 73.136 65.4988 72.1214 65.2766C71.308 65.0986 70.6541 64.6328 70.066 64.0671C69.5922 63.6114 69.1488 63.122 68.6541 62.691C68.0345 62.1512 67.3998 61.6219 66.7283 61.1498C65.9576 60.6081 65.096 60.239 64.1402 60.1719C63.8308 60.1503 63.5157 60.2198 63.2027 60.2355C63.1115 60.2402 63.0182 60.2032 62.926 60.1851C62.9622 60.0952 62.9727 59.9737 63.0385 59.9205C63.3833 59.6424 63.7179 59.3384 64.1009 59.1234C65.1361 58.5424 66.2588 58.2556 67.8301 58.2638Z" fill="#609966"/>
<path d="M71.6052 49.6067C71.4896 50.9305 70.9936 52.2482 69.9761 53.3023C68.3607 54.9755 66.351 55.8216 64.027 55.9077C63.902 55.9123 63.7734 55.8178 63.6465 55.7694C63.7219 55.6453 63.7708 55.4866 63.878 55.4036C64.1334 55.206 64.4288 55.0608 64.6861 54.8652C65.9028 53.9406 66.5836 52.661 67.0167 51.2366C67.2397 50.503 67.3692 49.7409 67.5899 49.0065C67.7243 48.5592 67.8992 48.1064 68.1478 47.7142C68.8883 46.5463 70.302 46.5414 71.092 47.6796C71.464 48.2153 71.5849 48.8284 71.6052 49.6067Z" fill="#609966"/>
<path d="M12.7913 10.9923C12.8387 9.2013 13.3977 7.54439 14.6645 6.16065C15.2649 5.50491 15.9683 5.02955 16.8965 5.01582C17.8201 5.00209 18.6011 5.71983 18.7123 6.63717C18.809 7.43527 18.6393 8.18553 18.3414 8.91339C17.8682 10.0695 17.3519 11.2087 16.9084 12.3758C16.4826 13.4959 16.2032 14.6605 16.2129 15.87C16.2188 16.604 16.3331 17.3266 16.6148 18.0134C16.6394 18.0731 16.6748 18.1336 16.6783 18.1953C16.6832 18.2796 16.6624 18.3654 16.6526 18.4507C16.5751 18.4399 16.477 18.4555 16.4235 18.4139C16.0817 18.1479 15.7228 17.896 15.4187 17.5906C13.6213 15.7857 12.8894 13.5468 12.7913 10.9923Z" fill="#609966"/>
<path d="M7.89633 15.9054C9.38095 15.879 10.618 16.4948 11.7474 17.3902C12.3391 17.8594 12.8585 18.3966 13.2699 19.0318C13.318 19.1062 13.3161 19.213 13.3374 19.3048C13.248 19.2941 13.1477 19.3063 13.0711 19.2693C11.9616 18.7333 10.8166 18.8045 9.68404 19.1292C8.89547 19.3554 8.13481 19.6805 7.36417 19.9678C6.65741 20.2313 5.94443 20.4418 5.17452 20.3801C3.7743 20.2678 3.05092 18.8702 3.7847 17.6716C4.15572 17.0656 4.69612 16.6527 5.35099 16.3968C6.16774 16.0779 7.0131 15.8877 7.89633 15.9054Z" fill="#609966"/>
</g>
<defs>
<clipPath id="clip0_198_59519">
<rect width="74" height="74" fill="white"/>
</clipPath>
</defs>
</svg>
