<svg width="38" height="38" viewBox="0 0 38 38" fill="none" xmlns="http://www.w3.org/2000/svg">
<path d="M22.3799 19.6876V5.47706C22.3799 4.98384 21.9802 4.58398 21.4868 4.58398C20.9935 4.58398 20.5938 4.98384 20.5938 5.47706V19.6876C20.5938 20.1808 20.9935 20.5807 21.4868 20.5807C21.9802 20.5807 22.3799 20.1808 22.3799 19.6876Z" fill="#E3B252"/>
<path d="M19.5701 20.5977H5.47511C4.98177 20.5977 4.58203 20.9975 4.58203 21.4907C4.58203 21.984 4.98177 22.3838 5.47511 22.3838H19.5701C20.0635 22.3838 20.4632 21.984 20.4632 21.4907C20.4632 20.9975 20.0635 20.5977 19.5701 20.5977Z" fill="#E3B252"/>
<path d="M32.9751 31.7883L23.3723 22.1854C23.0234 21.8366 22.458 21.8366 22.1092 22.1854C21.7605 22.5342 21.7605 23.0997 22.1092 23.4483L31.7121 33.0512C31.8865 33.2255 32.1152 33.3128 32.3437 33.3128C32.5722 33.3128 32.8008 33.2256 32.9753 33.0512C33.3239 32.7025 33.3239 32.1369 32.9751 31.7883Z" fill="#E3B252"/>
<path d="M21.4897 25.5809C23.747 25.5809 25.577 23.7509 25.577 21.4936C25.577 19.2362 23.747 17.4062 21.4897 17.4062C19.2323 17.4062 17.4023 19.2362 17.4023 21.4936C17.4023 23.7509 19.2323 25.5809 21.4897 25.5809Z" fill="#E3B252"/>
<path d="M4.08732 25.5809C6.34468 25.5809 8.17464 23.7509 8.17464 21.4936C8.17464 19.2362 6.34468 17.4062 4.08732 17.4062C1.82995 17.4062 0 19.2362 0 21.4936C0 23.7509 1.82995 25.5809 4.08732 25.5809Z" fill="#E3B252"/>
<path d="M21.4897 8.17463C23.747 8.17463 25.577 6.34468 25.577 4.08732C25.577 1.82995 23.747 0 21.4897 0C19.2323 0 17.4023 1.82995 17.4023 4.08732C17.4023 6.34468 19.2323 8.17463 21.4897 8.17463Z" fill="#E3B252"/>
<path d="M21.489 0C20.7443 0 20.0467 0.200168 19.4453 0.54823C20.6667 1.25507 21.489 2.5748 21.489 4.08732C21.489 5.59983 20.6667 6.91968 19.4453 7.62641C20.0467 7.97435 20.7442 8.17463 21.489 8.17463C23.7464 8.17463 25.5763 6.34466 25.5763 4.08732C25.5763 1.82997 23.7464 0 21.489 0Z" fill="#E3B252"/>
<path d="M21.489 17.4062C20.7443 17.4062 20.0467 17.6064 19.4453 17.9545C20.6667 18.6613 21.489 19.9811 21.489 21.4936C21.489 23.0062 20.6667 24.3259 19.4453 25.0327C20.0467 25.3806 20.7442 25.5809 21.489 25.5809C23.7464 25.5809 25.5763 23.7509 25.5763 21.4936C25.5763 19.2362 23.7464 17.4062 21.489 17.4062Z" fill="#E3B252"/>
<path d="M4.08669 17.4062C3.34198 17.4062 2.64431 17.6064 2.04297 17.9545C3.26434 18.6613 4.08669 19.9811 4.08669 21.4936C4.08669 23.0062 3.26434 24.3259 2.04297 25.0327C2.64431 25.3806 3.34186 25.5809 4.08669 25.5809C6.34403 25.5809 8.17401 23.7509 8.17401 21.4936C8.17401 19.2362 6.34403 17.4062 4.08669 17.4062Z" fill="#E3B252"/>
<path d="M33.6967 38.0008C35.9541 38.0008 37.784 36.1709 37.784 33.9135C37.784 31.6561 35.9541 29.8262 33.6967 29.8262C31.4393 29.8262 29.6094 31.6561 29.6094 33.9135C29.6094 36.1709 31.4393 38.0008 33.6967 38.0008Z" fill="#E3B252"/>
<path d="M33.6961 29.8203C32.9514 29.8203 32.2537 30.0205 31.6523 30.3685C32.8737 31.0754 33.6961 32.3951 33.6961 33.9076C33.6961 35.4201 32.8737 36.74 31.6523 37.4467C32.2537 37.7947 32.9512 37.995 33.6961 37.995C35.9534 37.995 37.7834 36.165 37.7834 33.9076C37.7834 31.6503 35.9534 29.8203 33.6961 29.8203Z" fill="#E3B252"/>
</svg>
