<svg width="25" height="24" viewBox="0 0 25 24" fill="none" xmlns="http://www.w3.org/2000/svg">
<path fill-rule="evenodd" clip-rule="evenodd" d="M8.34005 20.0019C15.887 20.0019 20.015 13.8456 20.015 8.50741C20.015 8.33216 20.015 8.1579 20.003 7.98462C20.806 7.41358 21.499 6.70471 22.05 5.89345C21.302 6.22032 20.507 6.43495 19.694 6.52946C20.55 6.02439 21.191 5.23085 21.498 4.29455C20.692 4.76516 19.811 5.09695 18.892 5.27516C17.338 3.64869 14.739 3.56993 13.086 5.09991C12.021 6.08642 11.568 7.55733 11.899 8.9603C8.60005 8.79687 5.52605 7.26295 3.44205 4.73957C2.35305 6.58558 2.91005 8.94652 4.71305 10.1319C4.06005 10.1132 3.42105 9.93992 2.85005 9.62684V9.67803C2.85105 11.6009 4.22805 13.2569 6.14205 13.6379C5.53805 13.8003 4.90405 13.8239 4.29005 13.7068C4.82705 15.3529 6.36805 16.4802 8.12305 16.5127C6.67005 17.6371 4.87505 18.2475 3.02705 18.2455C2.70105 18.2445 2.37505 18.2258 2.05005 18.1874C3.92705 19.3728 6.11005 20.002 8.34005 19.999" fill="white"/>
</svg>
