<svg width="25" height="24" viewBox="0 0 25 24" fill="none" xmlns="http://www.w3.org/2000/svg">
<path d="M12.957 5.9C14.117 5.9 15.057 6.84 15.057 8C15.057 9.16 14.117 10.1 12.957 10.1C11.797 10.1 10.857 9.16 10.857 8C10.857 6.84 11.797 5.9 12.957 5.9ZM12.957 14.9C15.927 14.9 19.057 16.36 19.057 17V18.1H6.85703V17C6.85703 16.36 9.98703 14.9 12.957 14.9ZM12.957 4C10.747 4 8.95703 5.79 8.95703 8C8.95703 10.21 10.747 12 12.957 12C15.167 12 16.957 10.21 16.957 8C16.957 5.79 15.167 4 12.957 4ZM12.957 13C10.287 13 4.95703 14.34 4.95703 17V20H20.957V17C20.957 14.34 15.627 13 12.957 13Z" fill="#609966"/>
</svg>
