<svg width="20" height="20" viewBox="0 0 20 20" fill="none" xmlns="http://www.w3.org/2000/svg">
<g clip-path="url(#clip0_1895_9270)">
<path d="M19.6875 11.2341C19.6875 9.87344 19.0278 8.57406 17.9228 7.75844C17.6975 7.59156 17.4181 7.5 17.1366 7.5C16.7841 7.5 16.4538 7.64094 16.2113 7.88063C16.1659 7.84281 16.1247 7.80125 16.0778 7.76531C15.9044 7.63281 15.6962 7.55406 15.4825 7.52156L15.6203 6.00625C15.6234 5.97 15.625 5.93344 15.625 5.89688C15.625 5.23 15.0825 4.6875 14.4156 4.6875H14.3344C13.6675 4.6875 13.125 5.23 13.125 5.89688C13.125 5.93344 13.1266 5.97 13.13 6.00656L13.2684 7.52844C13.0703 7.56594 12.8787 7.6425 12.7169 7.76312C12.6609 7.805 12.6112 7.85313 12.5575 7.89719C12.5297 7.86844 12.5003 7.84156 12.47 7.81563C12.4878 7.71156 12.5 7.60625 12.5 7.5C12.5 7.10313 12.3762 6.72344 12.1469 6.40625C12.3762 6.08906 12.5 5.70969 12.5 5.3125C12.5 4.2425 11.5947 3.37531 10.5159 3.44094C10.3153 2.86594 9.8475 2.4325 9.2725 2.26531C8.89188 1.79062 8.31812 1.52719 7.70344 1.56594C7.44469 0.824375 6.74406 0.3125 5.9375 0.3125C5.26094 0.3125 4.645 0.674375 4.31313 1.25094C3.48563 1.27875 2.77031 1.86281 2.56531 2.65844C1.59781 3.01938 0.9375 3.95594 0.9375 5C0.9375 5.83719 1.34938 6.6025 2.03094 7.065C1.92813 7.29969 1.875 7.55344 1.875 7.8125C1.875 8.375 2.125 8.89781 2.55406 9.25187C2.51813 9.39688 2.5 9.54281 2.5 9.6875C2.5 10.645 3.22187 11.4375 4.15 11.5491L4.84125 13.485C4.48719 13.7459 4.18563 14.0725 3.95344 14.4475L2.31625 14.0837C2.25406 14.0694 2.19 14.0625 2.12563 14.0625C1.64281 14.0625 1.25 14.4553 1.25 14.9381V15.0619C1.25 15.1494 1.26688 15.2325 1.29094 15.3125H1.25C0.733125 15.3125 0.3125 15.7331 0.3125 16.25C0.3125 16.7669 0.733125 17.1875 1.25 17.1875H1.29094C1.26688 17.2675 1.25 17.3506 1.25 17.4381V17.5619C1.25 18.0447 1.64281 18.4375 2.12563 18.4375C2.19 18.4375 2.25406 18.4306 2.31562 18.4166L3.95344 18.0525C4.56 19.0319 5.64094 19.6875 6.875 19.6875H6.94844C7.12219 19.6875 7.29812 19.6741 7.47094 19.6475L18.1869 17.9991C19.0563 17.865 19.6875 17.1297 19.6875 16.25C19.6875 15.5466 19.2803 14.9412 18.6741 14.6559C19.3216 13.8825 19.6875 12.9012 19.6875 11.8909V11.2341ZM15.6978 8.26188C16.6306 8.975 17.1875 10.1109 17.1875 11.3013V12.4491C17.1875 13.0897 17.0278 13.7169 16.7269 14.2766L14.2209 13.8909C14.1178 13.4375 14.0625 12.9744 14.0625 12.5094V11.2406C14.0625 10.9256 14.0941 10.6109 14.1419 10.2991C14.2184 10.3056 14.2947 10.3125 14.375 10.3125C15.2659 10.3125 15.9375 9.90938 15.9375 9.375C15.9375 9.08 15.7334 8.81812 15.38 8.64625L15.4259 8.14062C15.5234 8.16031 15.6172 8.19969 15.6978 8.26188ZM14.3344 5.3125H14.4159C14.7381 5.3125 15.0003 5.57469 15.0003 5.89688C15.0003 5.91469 14.9997 5.9325 14.9978 5.95L14.7141 9.07094L14.9525 9.1475C15.2262 9.235 15.3125 9.35031 15.3125 9.375C15.3125 9.45281 14.98 9.6875 14.375 9.6875C13.77 9.6875 13.4375 9.45281 13.4375 9.375C13.4375 9.35031 13.5238 9.235 13.7975 9.14719L14.0359 9.07062L13.7522 5.95C13.7506 5.93219 13.75 5.91438 13.75 5.89688C13.75 5.57469 14.0122 5.3125 14.3344 5.3125ZM13.325 8.15094L13.37 8.64625C13.0166 8.81812 12.8125 9.08 12.8125 9.375C12.8125 9.71937 13.0934 10.0072 13.53 10.1697C13.4741 10.5244 13.4375 10.8825 13.4375 11.2406V12.5094C13.4375 12.9387 13.4788 13.3675 13.5588 13.7891L11.7166 13.5056C11.6163 13.1622 11.5625 12.8081 11.5625 12.4487V11.3009C11.5625 10.1125 12.1337 8.97688 13.0906 8.26375C13.1603 8.21187 13.2406 8.17375 13.325 8.15094ZM9.94781 13.2334C9.77812 12.8041 9.6875 12.3544 9.6875 11.8909V11.2338C9.6875 10.0706 10.2525 8.95938 11.1984 8.26062C11.3172 8.17312 11.4647 8.125 11.6134 8.125C11.8022 8.125 11.9759 8.20094 12.1031 8.32812C11.3663 9.13562 10.9375 10.1963 10.9375 11.3013V12.4491C10.9375 12.7713 10.9759 13.09 11.0456 13.4025L9.94781 13.2334ZM9.97719 3.84406L10.0341 4.16563L10.3528 4.09469C10.4497 4.07312 10.5387 4.0625 10.625 4.0625C11.3144 4.0625 11.875 4.62313 11.875 5.3125C11.875 5.64094 11.7475 5.95156 11.5163 6.18719L11.3013 6.40625L11.5163 6.62531C11.7475 6.86094 11.875 7.17156 11.875 7.5C11.875 7.50938 11.8731 7.51875 11.8731 7.52844C11.7884 7.51156 11.7022 7.5 11.6134 7.5C11.3319 7.5 11.0525 7.59156 10.8272 7.75813C10.2584 8.17781 9.81063 8.72688 9.50688 9.34531C9.38844 8.97656 9.26406 8.62344 9.13594 8.28813C9.425 6.76125 10.4972 5.8775 10.5081 5.86844L10.3125 5.625L10.1172 5.38094C10.0737 5.41563 9.22844 6.10594 8.75375 7.35125C8.10344 5.85813 7.48969 4.89219 7.45031 4.83094L6.92438 5.16906C6.93281 5.18188 7.40938 5.93156 7.96406 7.125C7.02938 6.77312 5.96719 6.87031 5.90625 6.87656L5.96844 7.49844C6.43844 7.45125 7.76969 7.47406 8.39156 8.10875C8.61063 8.64719 8.82656 9.2375 9.01719 9.87C8.06719 9.38281 6.93375 9.375 6.875 9.375V10C6.88969 10 8.28094 10.0094 9.10437 10.6641C9.07875 10.8522 9.0625 11.0422 9.0625 11.2341V11.8912C9.0625 12.3134 9.1275 12.7263 9.24813 13.1263L7.47094 12.8528C7.37719 12.8384 7.2825 12.8287 7.1875 12.8219C6.49813 12.8219 5.9375 12.2569 5.9375 11.5628C5.9375 11.4172 5.96656 11.2678 6.02344 11.1181L6.11469 10.8791L5.89813 10.7422C5.53156 10.5103 5.3125 10.1163 5.3125 9.6875C5.3125 9.44156 5.38469 9.20312 5.52125 8.9975L5.71594 8.705L5.40281 8.54594C4.76875 8.22344 4.375 7.58344 4.375 6.875C4.375 6.04344 4.93375 5.30281 5.73406 5.07375L5.92812 5.01813L5.95719 4.81844C6.04625 4.20937 6.57531 3.75 7.1875 3.75C7.19906 3.75 7.21031 3.7525 7.22156 3.75406C7.24344 3.75719 7.26562 3.76 7.28781 3.76156L7.51188 3.77969L7.6 3.57281C7.79719 3.11094 8.24844 2.8125 8.75 2.8125C9.35563 2.8125 9.87156 3.24625 9.97719 3.84406ZM4.59531 10.9375H4.375C3.68563 10.9375 3.125 10.3769 3.125 9.6875C3.125 9.54156 3.15406 9.39219 3.21094 9.24312L3.3025 9.00406L3.08594 8.86719C2.71906 8.63531 2.5 8.24125 2.5 7.8125C2.5 7.56656 2.57219 7.32812 2.70875 7.1225L2.90344 6.83L2.59031 6.67094C1.95625 6.34844 1.5625 5.70844 1.5625 5C1.5625 4.16844 2.12125 3.42781 2.92125 3.19875L3.11531 3.14312L3.14438 2.94344C3.23375 2.33437 3.76281 1.875 4.375 1.875C4.38688 1.875 4.39844 1.8775 4.41 1.87906C4.43125 1.88188 4.4525 1.88469 4.47437 1.88656L4.69938 1.90531L4.78781 1.6975C4.98469 1.23594 5.43594 0.9375 5.9375 0.9375C6.54313 0.9375 7.05906 1.37125 7.16469 1.96906L7.22156 2.29062L7.54031 2.21969C7.63719 2.19813 7.72625 2.1875 7.8125 2.1875C7.95625 2.1875 8.09281 2.21906 8.22344 2.26469C7.76406 2.39906 7.36844 2.70406 7.12563 3.12594C6.29812 3.15375 5.58281 3.73781 5.37781 4.53344C4.41031 4.89437 3.75 5.83094 3.75 6.875C3.75 7.71219 4.16187 8.4775 4.84344 8.94C4.74062 9.17469 4.6875 9.42844 4.6875 9.6875C4.6875 10.25 4.9375 10.7728 5.36656 11.1272C5.33063 11.2722 5.3125 11.4178 5.3125 11.5625C5.3125 12.1116 5.54875 12.605 5.92281 12.9494C5.73719 13.0031 5.55875 13.0728 5.3875 13.1556L4.59531 10.9375ZM1.875 15.0619V14.9381C1.875 14.7812 2.02688 14.6603 2.18031 14.6934L3.6675 15.0241C3.63125 15.1184 3.59875 15.2144 3.57094 15.3125H2.12563C1.9875 15.3125 1.875 15.2 1.875 15.0619ZM0.9375 16.25C0.9375 16.0778 1.07781 15.9375 1.25 15.9375H2.12563H3.45312C3.44406 16.0406 3.4375 16.1444 3.4375 16.25C3.4375 16.3556 3.44406 16.4594 3.45344 16.5625H2.12563H1.25C1.07781 16.5625 0.9375 16.4222 0.9375 16.25ZM2.17969 17.8066C2.03156 17.8384 1.875 17.7184 1.875 17.5619V17.4381C1.875 17.3 1.9875 17.1875 2.12563 17.1875H3.57062C3.59844 17.2856 3.63125 17.3816 3.66719 17.4759L2.17969 17.8066ZM19.0625 16.25C19.0625 16.8191 18.6544 17.2947 18.0922 17.3813L7.37656 19.0297C7.23469 19.0516 7.09063 19.0625 6.94844 19.0625H6.875C5.32438 19.0625 4.0625 17.8006 4.0625 16.25C4.0625 14.6994 5.32438 13.4375 6.875 13.4375H6.94844C7.09063 13.4375 7.23469 13.4484 7.37625 13.47L18.0919 15.1184C18.6544 15.2053 19.0625 15.6809 19.0625 16.25ZM19.0625 11.8909C19.0625 12.8522 18.6734 13.7822 17.9966 14.4716L17.3756 14.3759C17.6609 13.7766 17.8125 13.1194 17.8125 12.4487V11.3009C17.8125 10.1903 17.3894 9.12438 16.6625 8.31563C16.7887 8.19656 16.9563 8.125 17.1366 8.125C17.2856 8.125 17.4328 8.17313 17.5516 8.26125C18.4975 8.95938 19.0625 10.0709 19.0625 11.2341V11.8909Z" fill="#A4907C"/>
<path d="M6.5625 14.6875H7.1875V17.8125H6.5625V14.6875Z" fill="#A4907C"/>
<path d="M9.0625 14.6875H9.6875V17.8125H9.0625V14.6875Z" fill="#A4907C"/>
<path d="M11.5625 14.6875H12.1875V17.8125H11.5625V14.6875Z" fill="#A4907C"/>
<path d="M14.0625 15.3125H14.6875V17.1875H14.0625V15.3125Z" fill="#A4907C"/>
<path d="M16.5625 15.625H17.1875V16.875H16.5625V15.625Z" fill="#A4907C"/>
</g>
<defs>
<clipPath id="clip0_1895_9270">
<rect width="20" height="20" fill="white"/>
</clipPath>
</defs>
</svg>
