<svg width="16" height="16" viewBox="0 0 16 16" fill="none" xmlns="http://www.w3.org/2000/svg">
<path d="M7.9933 16C3.5902 16.0022 -0.00279186 12.4211 1.62782e-06 8.03436C0.00279512 3.58282 3.55276 0.00783428 7.97877 1.27838e-05C12.4115 -0.00780871 15.9972 3.57444 16 8.01258C16.0017 12.4267 12.4221 15.9983 7.9933 16ZM14.7982 8.65673C14.6479 8.77014 14.4882 8.87182 14.3502 8.99864C14.0948 9.23329 13.8987 9.2534 13.6266 9.04054C13.549 8.98021 13.4747 8.91261 13.411 8.8383C13.0143 8.37572 12.7059 7.85726 12.4752 7.29523C12.2696 6.7941 12.274 6.2857 12.4802 5.78345C12.5685 5.56892 12.6724 5.36053 12.759 5.14488C12.8149 5.00577 12.8746 4.86275 12.8936 4.71637C12.9713 4.12138 12.8758 3.54706 12.6506 2.99341C12.6338 2.95151 12.6109 2.90682 12.578 2.87776C11.7081 2.09897 10.7047 1.57325 9.56771 1.3062C9.52189 1.29559 9.43585 1.32408 9.41351 1.36151C9.1945 1.7308 8.86766 1.95259 8.47098 2.09394C7.92122 2.29004 7.56869 2.68279 7.4832 3.25487C7.40778 3.75824 7.41057 4.27334 7.36923 4.7823C7.35526 4.95493 7.33403 5.13147 7.28096 5.29461C7.14799 5.70523 6.78204 5.87396 6.37866 5.722C6.24848 5.67283 6.12557 5.60579 6.00042 5.54434C5.80767 5.44936 5.62106 5.34098 5.42328 5.25829C5.10036 5.12365 4.8143 5.20466 4.6344 5.46221C4.45227 5.72311 4.47126 6.04547 4.70983 6.29129C4.99812 6.58851 5.15399 6.92874 5.18025 7.34663C5.21098 7.83268 5.46463 8.12152 5.94455 8.21035C6.22669 8.26231 6.52168 8.2651 6.80997 8.25728C7.14016 8.24834 7.46924 8.19638 7.79999 8.17515C8.19331 8.14945 8.52182 8.30141 8.81682 8.55505C9.1498 8.84165 9.34981 9.2115 9.50625 9.60872C9.68783 10.0691 9.97947 10.3769 10.508 10.387C10.5538 10.3875 10.5996 10.402 10.6449 10.4115C10.9997 10.4847 11.3444 10.5836 11.6483 10.7903C12.088 11.0887 12.1819 11.4948 11.9098 11.9518C11.8388 12.0708 11.7545 12.1853 11.6584 12.2848C11.3801 12.5736 11.0896 12.8507 10.8103 13.139C10.4432 13.5172 10.1309 13.934 9.94036 14.4318C9.91913 14.4865 9.90293 14.5435 9.87946 14.6139C12.6478 13.8658 14.6295 11.3278 14.7982 8.65673ZM1.48335 5.75496C0.781062 8.07235 1.07158 10.1931 2.489 12.1116C3.68573 13.7306 5.32272 14.6178 7.32118 14.8564C7.40554 14.2329 7.2709 13.4887 6.59208 13.1183C6.39821 13.0127 6.20434 12.9077 6.01439 12.7965C5.83951 12.6937 5.66185 12.5932 5.49871 12.4736C5.21098 12.2641 5.08751 11.9781 5.09142 11.6155C5.097 11.116 5.06628 10.6166 5.06013 10.1171C5.05734 9.89253 4.95174 9.75062 4.76011 9.65062C4.42545 9.47575 4.09023 9.30256 3.76283 9.11541C2.76556 8.54444 2.04987 7.73603 1.70459 6.62594C1.62134 6.3561 1.56491 6.07843 1.48335 5.75496Z" fill="#63A8D0"/>
</svg>
