<svg width="20" height="20" viewBox="0 0 20 20" fill="none" xmlns="http://www.w3.org/2000/svg">
<path d="M14.1169 5.00351L14.1343 5.13714L13.934 5.1786L13.9074 5.46328H14.1473L14.4664 5.43255L14.6311 5.23672L14.456 5.16861L14.3601 5.05829L14.2161 4.82508L14.1473 4.49524L13.8767 4.5504L13.8008 4.66664V4.79768L13.9311 4.8869L14.1169 5.00351Z" fill="#609966"/>
<path d="M13.8857 5.11306L13.9001 4.93463L13.7413 4.86615L13.5192 4.91761L13.3545 5.18192V5.35332H13.5466L13.8857 5.11306Z" fill="#609966"/>
<path d="M9.31373 5.87087L9.26487 5.99673H9.02832V6.11889H9.08459C9.08459 6.11889 9.08792 6.14481 9.09273 6.17886L9.23785 6.16665L9.32854 6.11038L9.35223 5.99673L9.46958 5.98674L9.51586 5.89123L9.40813 5.86902L9.31373 5.87087Z" fill="#609966"/>
<path d="M8.70457 6.09246L8.69531 6.21203L8.86671 6.19759L8.88448 6.07765L8.78157 5.99658L8.70457 6.09246Z" fill="#609966"/>
<path d="M18.9981 9.90688C18.9955 9.64367 18.9822 9.38232 18.9574 9.12504C18.8741 8.26732 18.669 7.44514 18.3617 6.67441C18.3388 6.61703 18.3177 6.55891 18.2933 6.50227C17.8838 5.53497 17.3089 4.6543 16.6052 3.89431C16.5589 3.8447 16.5119 3.79584 16.4649 3.74771C16.332 3.60963 16.1954 3.47488 16.054 3.34569C14.4541 1.88901 12.3292 0.999817 9.99998 0.999817C7.65114 0.999817 5.51109 1.90492 3.9067 3.38382C3.53282 3.72846 3.18928 4.10457 2.87759 4.50733C1.70187 6.02806 1 7.93304 1 9.99979C1 14.9629 5.03762 19.0001 10.0003 19.0001C13.4912 19.0001 16.5219 17.0011 18.0138 14.0885C18.3329 13.4658 18.5813 12.8021 18.7486 12.1065C18.7912 11.9299 18.8278 11.7526 18.8596 11.5731C18.9503 11.0619 19 10.5362 19 9.99979C19.0003 9.9687 18.9985 9.93797 18.9981 9.90688ZM17.3041 6.30977L17.3563 6.25128C17.4248 6.38418 17.4888 6.5193 17.5499 6.65627L17.4648 6.65294L17.3041 6.67515V6.30977ZM16.0037 4.73944L16.0051 4.33742C16.1466 4.48734 16.2828 4.64171 16.4131 4.80163L16.2509 5.04299L15.6842 5.03781L15.6487 4.91972L16.0037 4.73944ZM5.14683 3.74031V3.72513H5.32711L5.34266 3.66331H5.6377V3.79213L5.55292 3.90541H5.14646L5.14683 3.74031ZM5.43483 4.14196C5.43483 4.14196 5.61512 4.11123 5.63066 4.11123C5.64621 4.11123 5.63066 4.29115 5.63066 4.29115L5.2242 4.31669L5.14683 4.22414L5.43483 4.14196ZM17.8775 7.71463H17.219L16.8177 7.41589L16.3953 7.45698V7.71463H16.2617L16.1173 7.61172L15.3858 7.42626V6.95242L14.4589 7.0246L14.1716 7.17897H13.8036L13.6234 7.16083L13.1765 7.40886V7.87566L12.2633 8.53459L12.3392 8.81594H12.5243L12.4758 9.08395L12.3455 9.13171L12.3384 9.8321L13.1277 10.7309H13.4712L13.4919 10.6761H14.1094L14.2875 10.5114H14.6377L14.8298 10.7039L15.3518 10.7579L15.2825 11.452L15.8619 12.4749L15.5568 13.0579L15.5776 13.3326L15.8178 13.5721V14.2325L16.1332 14.6567V15.2054H16.4057C14.8894 17.067 12.5817 18.2594 9.99961 18.2594C5.44557 18.2598 1.74037 14.5542 1.74037 9.99979C1.74037 8.85332 1.97581 7.76053 2.39968 6.76732V6.50967L2.69508 6.15096C2.79763 5.95736 2.90757 5.76856 3.02492 5.58458L3.03825 5.7345L2.69508 6.15096C2.58884 6.3516 2.49 6.55669 2.40005 6.76732V7.23746L2.74321 7.40256V8.05594L3.0723 8.61752L3.33995 8.65861L3.37438 8.46611L3.05861 7.97894L2.99679 7.50548H3.18188L3.25999 7.99264L3.71643 8.65861L3.59871 8.87369L3.88894 9.31754L4.60969 9.49597V9.37936L4.89806 9.42045L4.87067 9.62627L5.09722 9.66774L5.44705 9.76324L5.94125 10.3263L6.57242 10.3741L6.63424 10.889L6.20223 11.1911L6.18187 11.6508L6.12005 11.9322L6.74493 12.7144L6.79268 12.9824C6.79268 12.9824 7.01923 13.0438 7.047 13.0438C7.07439 13.0438 7.55489 13.4077 7.55489 13.4077V14.8215L7.72629 14.8696L7.60968 15.5219L7.89806 15.9065L7.84475 16.5528L8.22567 17.2225L8.71469 17.6497L9.2063 17.6586L9.25442 17.5005L8.89312 17.1962L8.91385 17.0452L8.97863 16.8601L8.99233 16.6713L8.748 16.6639L8.62473 16.5092L8.8276 16.3141L8.85499 16.1667L8.62843 16.1019L8.64176 15.965L8.96456 15.9161L9.45543 15.6803L9.62016 15.3782L10.1351 14.7193L10.0181 14.204L10.1762 13.9297L10.6497 13.9441L10.9684 13.6917L11.0713 12.6973L11.4248 12.2483L11.4866 11.9599L11.1642 11.8566L10.9514 11.5076L10.2239 11.5002L9.64719 11.2803L9.61979 10.869L9.4273 10.5325L8.9057 10.5247L8.60437 10.0516L8.33673 9.92094L8.32303 10.0653L7.83587 10.0942L7.65743 9.84579L7.14917 9.74251L6.73049 10.2263L6.07156 10.1146L6.0238 9.37196L5.54293 9.28977L5.7358 8.92551L5.68064 8.71636L5.04873 9.13874L4.65115 9.09024L4.50937 8.77966L4.59599 8.45945L4.81514 8.05557L5.31971 7.80014L6.29404 7.79977L6.29145 8.09703L6.64164 8.25992L6.61388 7.75202L6.86635 7.49807L7.37572 7.16342L7.41052 6.92798L7.91842 6.39936L8.45852 6.10025L8.41076 6.06101L8.77651 5.71673L8.91052 5.75227L8.97197 5.82927L9.11079 5.67527L9.14485 5.6601L8.9927 5.63862L8.83833 5.58717V5.43909L8.92014 5.37209H9.10042L9.18297 5.40837L9.25442 5.55274L9.34178 5.53941V5.52683L9.36696 5.53534L9.62016 5.49647L9.65607 5.37283L9.80045 5.40911V5.54312L9.66644 5.63529H9.66681L9.68643 5.78226L10.1451 5.92367C10.1451 5.92367 10.1455 5.92552 10.1462 5.92922L10.2517 5.92034L10.2587 5.72155L9.89521 5.55607L9.87448 5.46057L10.1762 5.35765L10.1895 5.06891L9.87411 4.87678L9.85338 4.38999L9.421 4.60247H9.2633L9.30477 4.23192L8.71617 4.0931L8.47259 4.27708V4.83828L8.03466 4.9771L7.85919 5.34285L7.66891 5.37357V4.90566L7.25726 4.84865L7.05144 4.71464L6.96852 4.41146L7.70482 3.98056L8.06501 3.87098L8.10129 4.11309L8.30193 4.10272L8.31748 3.98093L8.52737 3.95094L8.53108 3.90837L8.44075 3.87098L8.42002 3.74216L8.67804 3.72032L8.83389 3.55818L8.8424 3.54633L8.84425 3.54707L8.89164 3.49821L9.43396 3.42972L9.67384 3.63332L9.04489 3.96834L9.84524 4.15714L9.94889 3.88949H10.2987L10.4224 3.65628L10.1751 3.59445V3.29942L9.39953 2.95588L8.86424 3.0177L8.56217 3.17577L8.5829 3.56003L8.26713 3.5119L8.21864 3.29942L8.52108 3.02474L7.97209 2.99734L7.81439 3.0451L7.74591 3.23019L7.95173 3.26499L7.91064 3.47081L7.56082 3.49154L7.50603 3.62851L6.9985 3.64258C6.9985 3.64258 6.98444 3.35457 6.96408 3.35457C6.94372 3.35457 7.36203 3.34754 7.36203 3.34754L7.66447 3.05213L7.49937 2.96958L7.27985 3.18281L6.91558 3.16208L6.69606 2.86H6.22926L5.74209 3.2239H6.18853L6.22926 3.35457L6.11339 3.4623L6.60759 3.47599L6.6831 3.65442L6.12671 3.63369L6.09969 3.49636L5.74986 3.42084L5.5644 3.31793L5.14794 3.32126C6.51134 2.32805 8.18791 1.74019 9.99998 1.74019C12.0886 1.74019 13.9969 2.52091 15.4528 3.80361L15.3547 3.97908L14.9738 4.12826L14.8131 4.30262L14.8502 4.50585L15.0467 4.53325L15.1652 4.8294L15.5043 4.6928L15.5602 5.0889H15.458L15.1796 5.04781L14.8709 5.09963L14.5721 5.52165L14.145 5.58865L14.0831 5.95439L14.2634 5.99697L14.2112 6.23203L13.787 6.14689L13.3979 6.23203L13.3154 6.44859L13.3827 6.90318L13.6111 7.01017L13.9943 7.00794L14.253 6.98462L14.3319 6.7788L14.7361 6.2535L15.0023 6.30792L15.2644 6.071L15.3133 6.2561L15.9581 6.69106L15.8793 6.79694L15.5887 6.78139L15.7005 6.93983L15.8793 6.97907L16.0888 6.89171L16.0844 6.63924L16.1773 6.5926L16.1025 6.51338L15.6723 6.27349L15.5591 5.95476H15.9167L16.0311 6.06804L16.3391 6.33347L16.352 6.65442L16.6711 6.99425L16.7899 6.52855L17.0109 6.40787L17.0524 6.78879L17.2682 7.02571L17.6987 7.01831C17.782 7.23265 17.8568 7.45069 17.9223 7.67317L17.8775 7.71463ZM5.90904 5.0889L6.12523 4.98599L6.32069 5.03263L6.25332 5.29509L6.04231 5.3621L5.90904 5.0889ZM7.05625 5.70674V5.87665H6.56242L6.37733 5.8252L6.4236 5.70674L6.66089 5.60864H6.98518V5.70674H7.05625ZM7.28355 5.94366V6.10839L7.1599 6.18798L7.00591 6.21649C7.00591 6.21649 7.00591 5.96957 7.00591 5.94366H7.28355ZM7.14436 5.87665V5.68083L7.31427 5.83556L7.14436 5.87665ZM7.22173 6.27275V6.43305L7.10364 6.5515H6.84117L6.88226 6.37159L7.00628 6.36086L7.03182 6.29904L7.22173 6.27275ZM6.56798 5.94366H6.8408L6.49098 6.43267L6.3466 6.35531L6.3777 6.14948L6.56798 5.94366ZM7.6852 6.21649V6.37641H7.42274L7.35092 6.27275V6.12394H7.37165L7.6852 6.21649ZM7.44273 5.9966L7.51751 5.91812L7.64374 5.9966L7.54268 6.07989L7.44273 5.9966ZM18.0116 8.13146L18.0375 8.10111C18.0482 8.14775 18.0597 8.19439 18.07 8.24178L18.0116 8.13146Z" fill="#609966"/>
<path d="M2.40039 6.50971V6.76736C2.49035 6.5571 2.58956 6.35201 2.6958 6.151L2.40039 6.50971Z" fill="#609966"/>
</svg>
