<svg width="25" height="24" viewBox="0 0 25 24" fill="none" xmlns="http://www.w3.org/2000/svg">
<path fill-rule="evenodd" clip-rule="evenodd" d="M10.0384 14.5859V8.97425C12.0306 9.91168 13.5736 10.8172 15.3985 11.7935C13.8933 12.6282 12.0306 13.5647 10.0384 14.5859ZM21.141 6.18289C20.7974 5.73013 20.2117 5.37809 19.5881 5.26141C17.7553 4.91336 6.32099 4.91237 4.48919 5.26141C3.98915 5.35515 3.54389 5.58153 3.16138 5.93357C1.54969 7.42947 2.05471 15.4515 2.44319 16.751C2.60655 17.3134 2.81773 17.7193 3.08369 17.9856C3.42634 18.3376 3.89551 18.58 4.43441 18.6887C5.94351 19.0008 13.7181 19.1753 19.5562 18.7355C20.0941 18.6418 20.5702 18.3915 20.9458 18.0245C22.4359 16.5346 22.3343 8.06175 21.141 6.18288" fill="white"/>
</svg>
