<svg width="66" height="88" viewBox="0 0 66 88" fill="none" xmlns="http://www.w3.org/2000/svg">
<path d="M32.9542 65.9084C51.1074 65.9084 65.908 51.0989 65.908 32.9542C65.908 14.801 51.1074 -3.8147e-05 32.9542 -3.8147e-05C14.8094 -3.8147e-05 0 14.801 0 32.9542C0 51.0989 14.809 65.9084 32.9542 65.9084Z" fill="#FCE2C3"/>
<path d="M6.44661 30.5138L6.39158 31.2235L2.16528 32.6096L2.23533 31.7062L5.17608 30.7692L2.4148 29.3951L2.48501 28.4913L6.44673 30.5138" fill="#8E6854"/>
<path d="M5.74285 28.0202L5.06445 27.8765L5.40811 26.2515L6.08667 26.3952L5.74285 28.0202Z" fill="#8E6854"/>
<path d="M3.52515 24.0097L3.81485 23.1892L6.9356 24.2911L7.60807 22.3866L8.35947 22.652L7.3973 25.377L3.52515 24.0097Z" fill="#8E6854"/>
<path d="M8.60225 18.8664L7.13583 18.7019L8.0547 19.8566L8.60225 18.8664ZM9.07143 21.135L8.63287 21.9283L5.88159 18.4181L6.22589 17.7953L10.6615 18.2604L10.2228 19.0537L9.44494 18.9641L8.58239 20.5239L9.07143 21.135Z" fill="#8E6854"/>
<path d="M11.1424 14.8598L10.3639 15.8264L11.0842 16.4064L11.8625 15.4398C11.9415 15.3417 11.9735 15.2309 11.9586 15.1072C11.9441 14.9831 11.886 14.8806 11.7849 14.799C11.684 14.7177 11.5712 14.6829 11.4471 14.6949C11.3228 14.7069 11.2213 14.7618 11.1424 14.8598ZM9.83433 13.9624L9.13217 14.8342L9.77177 15.3493L10.4739 14.4776C10.5401 14.3955 10.5712 14.3047 10.5678 14.2054C10.5645 14.1065 10.5254 14.0189 10.4508 13.9436C10.4472 13.9352 10.4327 13.9208 10.4073 13.9004C10.3159 13.8268 10.2158 13.7959 10.1073 13.8076C9.99896 13.8192 9.90798 13.8708 9.83433 13.9624ZM12.4871 15.9349L11.1593 17.5836L7.96094 15.0079L9.21642 13.4493C9.44801 13.1619 9.72662 12.9902 10.0521 12.935C10.3717 12.8746 10.6578 12.9462 10.9107 13.1495C11.1727 13.3609 11.3058 13.6322 11.3096 13.9633C11.7213 13.8208 12.0898 13.8808 12.4151 14.143C12.6803 14.3563 12.8186 14.6345 12.8294 14.9763C12.8403 15.3185 12.7262 15.6379 12.4871 15.9349Z" fill="#8E6854"/>
<path d="M11.3601 11.0534L13.6302 9.01931L14.166 9.61769L12.5438 11.071L13.1001 11.6918L14.4776 10.4574L15.0093 11.051L13.632 12.2854L14.2166 12.9378L15.8613 11.4641L16.3932 12.0577L14.1005 14.1118L11.3601 11.0534Z" fill="#8E6854"/>
<path d="M15.0408 7.95947L15.769 7.48397L17.5782 10.2549L19.2696 9.15103L19.7051 9.81826L17.2856 11.3981L15.0408 7.95947Z" fill="#8E6854"/>
<path d="M23.164 8.19556L22.3607 8.52856L20.7869 4.73574L21.5906 4.40234L23.164 8.19556Z" fill="#8E6854"/>
<path d="M25.1372 7.48715L24.3319 7.70129L23.276 3.73317L24.0229 3.53463L26.6706 5.53711L25.9981 3.0091L26.8035 2.79456L27.8593 6.7631L27.1185 6.96002L24.4648 4.95914L25.1372 7.48715Z" fill="#8E6854"/>
<path d="M29.7402 3.20441L28.4378 3.32489L28.3638 2.52518L31.8288 2.20497L31.9028 3.00468L30.6004 3.12476L30.9042 6.41406L30.044 6.49371L29.7402 3.20441Z" fill="#8E6854"/>
<path d="M33.3545 2.2038L36.3972 2.38712L36.3488 3.18843L34.175 3.05755L34.1246 3.88968L35.9709 4.00055L35.9229 4.79625L34.0769 4.68498L34.0241 5.55954L36.2287 5.69243L36.1807 6.48773L33.1079 6.30282L33.3545 2.2038Z" fill="#8E6854"/>
<path d="M39.8746 3.84081L38.8608 3.60906L38.6102 4.70656L39.6241 4.9383C39.7822 4.97393 39.9247 4.95152 40.0515 4.87026C40.1784 4.78901 40.2597 4.66934 40.2961 4.51083C40.3317 4.35313 40.3105 4.21064 40.2313 4.08456C40.1516 3.95808 40.0327 3.87683 39.8746 3.84081ZM38.1912 2.63244L40.0535 3.05791C40.4646 3.15197 40.774 3.3557 40.9813 3.6691C41.1963 3.9845 41.2603 4.33192 41.1735 4.71176C41.115 4.96873 40.9957 5.18567 40.8156 5.36298C40.6359 5.54029 40.4206 5.65876 40.17 5.718L40.7112 7.42029L39.7682 7.20496L39.2807 5.67717L38.4325 5.48346L38.1251 6.82951L37.277 6.63578L38.1912 2.63244Z" fill="#8E6854"/>
<path d="M42.4043 8.04751L41.6366 7.72291L43.2364 3.9409L43.9481 4.24189L44.8118 7.44753L45.8305 5.0384L46.5982 5.36301L44.9987 9.14502L44.2927 8.84643L43.4233 5.63838L42.4043 8.04751Z" fill="#8E6854"/>
<path d="M48.8045 9.71256L49.077 8.26244L47.8578 9.09297L48.8045 9.71256ZM46.5074 10.0128L45.7489 9.51684L49.4525 7.03205L50.048 7.4219L49.2567 11.8111L48.4983 11.3148L48.6451 10.5459L47.153 9.57007L46.5074 10.0128Z" fill="#8E6854"/>
<path d="M52.5068 10.3049L51.5297 9.43556L52.0633 8.83558L54.6637 11.1483L54.1298 11.7482L53.1524 10.8789L50.957 13.3477L50.3118 12.7733L52.5068 10.3049Z" fill="#8E6854"/>
<path d="M53.1191 15.5803L52.5403 14.9311L55.6058 12.1986L56.1846 12.8482L53.1191 15.5803Z" fill="#8E6854"/>
<path d="M56.097 15.9806C55.7908 16.1859 55.5999 16.4549 55.5255 16.7883C55.4506 17.1213 55.5143 17.4379 55.7152 17.7377C55.9137 18.0343 56.1815 18.2112 56.5177 18.2693C56.8599 18.3277 57.1825 18.2556 57.4855 18.0523C57.7853 17.8514 57.9734 17.5816 58.0491 17.2426C58.1235 16.9096 58.0615 16.595 57.863 16.2984C57.662 15.9986 57.3931 15.8197 57.0568 15.762C56.7202 15.7044 56.4004 15.7773 56.097 15.9806ZM54.6713 16.5846C54.7834 16.0162 55.0888 15.5651 55.5875 15.2309C56.0862 14.8967 56.6194 14.7854 57.1881 14.8979C57.7605 15.0168 58.2168 15.329 58.5554 15.8345C58.896 16.3432 59.0105 16.8816 58.8984 17.4499C58.7859 18.0183 58.4806 18.4694 57.9818 18.8036C57.4835 19.1378 56.95 19.2491 56.3816 19.1366C55.8189 19.0253 55.3658 18.7139 55.0228 18.2016C54.6793 17.6897 54.5625 17.1505 54.6713 16.5846Z" fill="#8E6854"/>
<path d="M57.0776 21.6482L56.7518 20.8813L60.5314 19.2759L60.8336 19.9867L59.225 22.891L61.6325 21.8683L61.9588 22.6352L58.1787 24.241L57.8794 23.5354L59.4856 20.6255L57.0776 21.6482Z" fill="#8E6854"/>
<path d="M60.5159 27.2997L61.7206 26.448L60.2669 26.1958L60.5159 27.2997ZM58.6571 25.9165L58.4578 25.0323L62.8462 25.8264L63.0031 26.5205L59.3796 29.1209L59.1802 28.2367L59.821 27.7869L59.4288 26.0477L58.6571 25.9165Z" fill="#8E6854"/>
<path d="M63.5417 29.7293L63.5942 30.5979L60.2905 30.7968L60.4121 32.8129L59.6164 32.8605L59.4431 29.9763L63.5417 29.7293Z" fill="#8E6854"/>
<path d="M13.1464 56.9186L12.5845 56.4423L13.9821 52.0579L14.6975 52.6643L13.7021 55.6983L16.5269 54.2145L17.2421 54.8209L13.1463 56.9186" fill="#8E6854"/>
<path d="M15.5511 57.4429L15.9504 56.8466L17.3782 57.8028L16.9787 58.3987L15.5511 57.4429Z" fill="#8E6854"/>
<path d="M19.3977 56.1662L20.1974 56.5792L18.6248 59.6208L20.4807 60.5806L20.1025 61.313L17.4464 59.9398L19.3977 56.1662Z" fill="#8E6854"/>
<path d="M24.0125 61.1054L23.9117 59.5824L22.9038 60.7291L24.0125 61.1054ZM21.7879 61.9984L20.9001 61.6969L23.9709 58.2531L24.6681 58.4897L25.0064 63.0914L24.1182 62.79L24.067 61.9815L22.3211 61.3883L21.7879 61.9984Z" fill="#8E6854"/>
<path d="M28.6075 60.2848L27.4656 60.091L27.3235 60.9288L28.4654 61.1225C28.5727 61.1409 28.6703 61.1233 28.758 61.0701C28.846 61.0172 28.9053 60.9376 28.9357 60.8323C28.9413 60.8247 28.9469 60.8043 28.9525 60.7711C28.9729 60.6514 28.9501 60.5453 28.8853 60.4533C28.82 60.3616 28.7272 60.3052 28.6075 60.2848ZM28.4578 61.9195L27.1918 61.7045L27.0317 62.6479L28.2977 62.8624C28.4258 62.8844 28.5418 62.8573 28.6463 62.7811C28.7508 62.7056 28.8144 62.6014 28.8368 62.469C28.8592 62.3364 28.8336 62.2172 28.76 62.1111C28.6867 62.0051 28.5859 61.941 28.4578 61.9195ZM28.166 63.6765L26.0062 63.3099L26.7171 59.1216L28.7588 59.4678C29.135 59.5319 29.4308 59.6968 29.6449 59.9629C29.8607 60.2211 29.9407 60.5153 29.8847 60.8463C29.8263 61.1897 29.6486 61.4471 29.3516 61.6175C29.6878 61.9174 29.8199 62.2804 29.7478 62.7063C29.6886 63.0537 29.5077 63.3191 29.2043 63.5015C28.9005 63.6841 28.5547 63.7427 28.166 63.6765Z" fill="#8E6854"/>
<path d="M30.8249 59.7525L33.9773 59.8225L33.9589 60.6531L31.7059 60.603L31.6871 61.4652L33.5999 61.5076L33.5815 62.3316L31.6687 62.2893L31.6487 63.1955L33.9329 63.2463L33.9145 64.0704L30.7305 63.9999L30.8249 59.7524" fill="#8E6854"/>
<path d="M34.6154 59.7805L35.5095 59.6792L35.8958 63.0814L37.9719 62.8456L38.0652 63.665L35.0945 64.002L34.6154 59.7805Z" fill="#8E6854"/>
<path d="M38.95 63.0502C38.922 62.9189 38.9424 62.8001 39.0117 62.6928C39.0809 62.5855 39.1814 62.5178 39.3126 62.4899C39.4479 62.4606 39.5692 62.4811 39.6761 62.5504C39.7833 62.6195 39.851 62.7195 39.8794 62.8509C39.9082 62.9866 39.8882 63.1079 39.819 63.2147C39.7497 63.322 39.6473 63.3901 39.512 63.4189C39.3807 63.4474 39.2614 63.4264 39.1541 63.3573C39.0469 63.288 38.9788 63.1855 38.95 63.0502Z" fill="#8E6854"/>
<path d="M41.4116 58.3556C41.8303 58.2183 42.2426 58.1971 42.6488 58.2916C43.0551 58.386 43.4013 58.581 43.6875 58.8755L42.9618 59.4507C42.7905 59.2906 42.5924 59.1853 42.3686 59.1349C42.1445 59.0849 41.9151 59.0981 41.6798 59.1749C41.3248 59.291 41.0714 59.5087 40.9197 59.8277C40.768 60.1467 40.7508 60.4854 40.8685 60.8444C40.987 61.2074 41.2019 61.4724 41.5129 61.6401C41.8239 61.8079 42.1565 61.8335 42.5115 61.7174C42.7469 61.6401 42.9398 61.5152 43.0911 61.3423C43.242 61.1694 43.3393 60.9673 43.3829 60.7367L44.3083 60.7715C44.2514 61.179 44.0873 61.5404 43.8156 61.8566C43.5438 62.1732 43.1984 62.3998 42.7797 62.5366C42.1737 62.7352 41.6037 62.7008 41.0706 62.4339C40.5359 62.1628 40.1724 61.7322 39.9791 61.1422C39.7858 60.5518 39.8246 59.9895 40.096 59.4547C40.3746 58.9176 40.8132 58.5513 41.4116 58.3556Z" fill="#8E6854"/>
<path d="M45.4141 59.1361C45.5934 59.4735 45.8508 59.6976 46.1858 59.8093C46.5208 59.9206 46.8534 59.8886 47.1829 59.7132C47.5091 59.5395 47.7192 59.2826 47.8137 58.9424C47.9101 58.5965 47.8693 58.2567 47.692 57.9233C47.5163 57.5939 47.2581 57.3726 46.9175 57.2593C46.5821 57.1476 46.2519 57.1784 45.9256 57.3521C45.5958 57.5275 45.3841 57.7856 45.2896 58.1258C45.1948 58.4661 45.2364 58.8031 45.4141 59.1361ZM45.8868 60.6671C45.3137 60.4921 44.881 60.1307 44.5892 59.5828C44.2974 59.0344 44.239 58.4737 44.4139 57.9005C44.596 57.3233 44.965 56.8866 45.5206 56.5909C46.0797 56.2931 46.6457 56.2318 47.2193 56.4067C47.7924 56.5817 48.2251 56.9431 48.5169 57.491C48.8087 58.0394 48.8671 58.6001 48.6926 59.1733C48.5193 59.7409 48.1511 60.1743 47.5883 60.4741C47.0252 60.7739 46.4584 60.8384 45.8868 60.6671Z" fill="#8E6854"/>
<path d="M51.354 58.0554L50.6639 58.6133L47.9918 55.3108L48.6815 54.7525L51.4528 55.846L50.9665 52.9037L51.6566 52.3457L54.3287 55.6483L53.639 56.2066L52.0156 54.2005L52.4307 56.5849L51.9712 56.9571L49.7385 56.0589L51.354 58.0554Z" fill="#8E6854"/>
<path d="M33.4787 56.7105C33.4787 56.7105 33.716 55.3861 33.8005 54.7949C34.3492 51.3615 34.6875 47.8649 35.5612 44.5015C36.5975 40.6507 37.7054 36.5509 39.5161 32.971C39.8491 32.4234 40.3823 31.3676 41.1728 31.4108C43.2433 31.2511 45.3335 30.5771 47.0333 29.3303C48.3009 28.3949 49.3008 27.3406 50.0084 25.9209C50.5536 24.4848 50.7861 23.0731 50.7781 21.5321C50.8013 20.1428 51.0175 18.8928 51.5558 17.6092C51.6735 17.2554 51.8104 16.9107 51.7844 16.5305C50.9935 16.4492 49.978 17.1233 49.2507 17.3926C47.5292 17.965 45.6408 18.2164 43.8689 18.561C42.4272 18.8051 41.1124 19.2186 39.9192 20.0952C37.9656 21.4801 36.9865 23.1899 36.2561 25.457C35.9455 26.737 35.6857 28.216 35.7754 29.5268L35.845 29.6781C36.1756 29.5672 36.7476 28.5586 36.9329 28.2604C38.0996 26.452 39.2504 24.815 41.0155 23.4809C41.3069 23.3048 42.9747 22.391 43.1825 22.8437C43.1549 23.4341 42.199 24.2594 41.8172 24.7321C38.3778 28.7867 36.3613 34.2246 34.5642 39.1545C33.5756 41.8827 32.96 44.7753 31.7976 47.4202C31.7428 47.5171 31.6603 47.7088 31.5567 47.758C31.2373 47.4402 31.0527 46.6725 30.9219 46.2466C30.3939 44.3731 29.9324 42.4314 29.3957 40.5574C28.082 35.6055 26.5259 29.8122 23.5035 25.5847C21.1861 22.5243 18.0725 19.0497 14.3493 17.7165C14.3021 17.7173 14.2068 17.7189 14.1592 17.7197C14.0217 18.017 14.3488 18.2396 14.5332 18.4453C19.0072 23.019 22.6071 29.2618 24.5484 35.3157C26.5616 41.6629 28.4585 48.4396 29.5816 55.011C29.6764 55.5426 29.7957 56.1898 29.9278 56.7105C29.9278 56.7105 31.1342 56.7858 31.6973 56.7858C32.2597 56.7858 33.4789 56.7105 33.4789 56.7105" fill="#8E6854"/>
<path d="M37.7253 52.5038C38.9541 52.5038 39.9083 53.458 39.9083 54.6476C39.9083 55.8636 38.9541 56.8046 37.7125 56.8046C36.4837 56.8046 35.5031 55.8636 35.5031 54.6476C35.5031 53.458 36.4837 52.5038 37.7125 52.5038H37.7253ZM37.6993 52.9353C36.7579 52.9353 36.0522 53.7062 36.0522 54.6476C36.0522 55.6018 36.7579 56.3599 37.7253 56.3599C38.6667 56.3731 39.3595 55.6018 39.3595 54.6476C39.3595 53.7062 38.6667 52.9353 37.7125 52.9353H37.6993ZM37.3722 55.7587H36.8755V53.6281C37.0717 53.5889 37.3462 53.5497 37.6993 53.5497C38.1043 53.5497 38.2872 53.6149 38.4441 53.7194C38.5618 53.8111 38.6535 53.9812 38.6535 54.1769C38.6535 54.4254 38.4705 54.6084 38.2088 54.6868V54.7128C38.4181 54.7785 38.5358 54.9482 38.6014 55.236C38.6667 55.563 38.7059 55.6935 38.7579 55.7587H38.222C38.1567 55.6802 38.1175 55.4973 38.0523 55.2488C38.0131 55.0138 37.8822 54.9094 37.6076 54.9094H37.3722V55.7587ZM37.3855 54.5563H37.6208C37.8954 54.5563 38.1175 54.4647 38.1175 54.2425C38.1175 54.0464 37.9738 53.9155 37.66 53.9155C37.5291 53.9155 37.4379 53.9287 37.3855 53.9415V54.5563Z" fill="#8E6854"/>
<path d="M6.33805 45.2913C7.06744 45.2913 7.6589 44.7001 7.6589 43.9704C7.6589 43.2412 7.06744 42.6496 6.33805 42.6496C5.60871 42.6496 5.01721 43.2412 5.01721 43.9704C5.01721 44.7001 5.60871 45.2913 6.33805 45.2913Z" fill="#8E6854"/>
<path d="M59.7393 45.2913C60.4686 45.2913 61.0601 44.7001 61.0601 43.9704C61.0601 43.2412 60.4686 42.6496 59.7393 42.6496C59.0096 42.6496 58.4185 43.2412 58.4185 43.9704C58.4185 44.7001 59.0096 45.2913 59.7393 45.2913Z" fill="#8E6854"/>
<path d="M1.53324 70.7487C0.687543 70.7487 0.00146484 71.4343 0.00146484 72.2804V86.2725C0.00146484 87.1182 0.687543 87.8043 1.53324 87.8043H64.3773C65.2235 87.8043 65.9091 87.1182 65.9091 86.2725V72.2804C65.9091 71.4343 65.2235 70.7487 64.3773 70.7487H1.53324Z" fill="#FCE2C3"/>
<path d="M10.7312 85.4144H8.68508L3.77075 73.5268H6.37645L9.71686 81.8041L13.0396 73.5268H15.6453L10.731 85.4144" fill="#8E6854"/>
<path d="M16.4357 73.5268H25.1977V75.8511H18.9369V78.2642H24.2535V80.5709H18.9369V83.107H25.2853V85.4144H16.4357V73.5268Z" fill="#8E6854"/>
<path d="M26.0579 79.4794C26.0579 77.7183 26.6582 76.2509 27.8594 75.0766C29.0602 73.9027 30.5527 73.3155 32.3367 73.3155C33.5606 73.3155 34.6742 73.6149 35.6768 74.2137C36.691 74.8241 37.4487 75.6462 37.9502 76.6793L35.5367 77.5774C35.2337 77.0019 34.7962 76.5503 34.2255 76.2214C33.6539 75.8927 33.0243 75.7283 32.3367 75.7283C31.2872 75.7283 30.4126 76.0864 29.7134 76.8021C29.0137 77.5186 28.6639 78.4048 28.6639 79.4619C28.6639 80.5185 28.9961 81.4106 29.6606 82.1383C30.337 82.8551 31.1763 83.213 32.179 83.213C32.9367 83.213 33.6187 83.0049 34.2255 82.5878C34.8315 82.1711 35.2453 81.6164 35.4671 80.9231H31.882V78.775H38.3001C38.3001 78.8338 38.3089 78.9423 38.3265 79.1009C38.3441 79.2593 38.3525 79.3621 38.3525 79.409C38.3293 81.2049 37.7405 82.6847 36.5862 83.8471C35.4086 85.033 33.9513 85.6254 32.2142 85.6254C30.4655 85.6254 29.0017 85.0391 27.8242 83.8647C26.6466 82.6786 26.0579 81.2174 26.0579 79.4795" fill="#8E6854"/>
<path d="M45.7424 81.0468L44.1157 77.1015L42.4895 81.0468H45.7424ZM40.6879 85.4144H38.0823L43.0839 73.5268H45.13L50.132 85.4144H47.5263L46.6689 83.3187H41.5449L40.6879 85.4144Z" fill="#8E6854"/>
<path d="M53.3072 85.4144H50.9113V73.5268H53.1323L59.0088 81.0997V73.5268H61.4044V85.4144H59.2009L53.3072 77.8416V85.4144Z" fill="#8E6854"/>
</svg>
