<svg width="91" height="91" viewBox="0 0 91 91" fill="none" xmlns="http://www.w3.org/2000/svg">
<path fill-rule="evenodd" clip-rule="evenodd" d="M90.7268 45.3634C90.7268 57.3945 85.9474 68.9329 77.4402 77.4402C68.9329 85.9474 57.3945 90.7268 45.3634 90.7268C33.3323 90.7268 21.7939 85.9474 13.2866 77.4402C4.77934 68.9329 0 57.3945 0 45.3634C0 33.3323 4.77934 21.7939 13.2866 13.2866C21.7939 4.77934 33.3323 0 45.3634 0C57.3945 0 68.9329 4.77934 77.4402 13.2866C85.9474 21.7939 90.7268 33.3323 90.7268 45.3634Z" fill="#8E6854"/>
<path fill-rule="evenodd" clip-rule="evenodd" d="M85.8276 45.3633C85.8276 56.0951 81.5644 66.3873 73.9759 73.9758C66.3874 81.5643 56.0952 85.8275 45.3634 85.8275C34.6317 85.8275 24.3395 81.5643 16.751 73.9758C9.16247 66.3873 4.89929 56.0951 4.89929 45.3633C4.89929 34.6316 9.16247 24.3393 16.751 16.7508C24.3395 9.16234 34.6317 4.89917 45.3634 4.89917C56.0952 4.89917 66.3874 9.16234 73.9759 16.7508C81.5644 24.3393 85.8276 34.6316 85.8276 45.3633Z" fill="#FCE2C4"/>
<path fill-rule="evenodd" clip-rule="evenodd" d="M85.8276 45.3633C85.8276 67.6996 67.6996 85.8275 45.3634 85.8275C23.0272 85.8275 4.89929 67.6996 4.89929 45.3633H85.8276Z" fill="#8E6854"/>
<path fill-rule="evenodd" clip-rule="evenodd" d="M51.8957 85.4419L80.5654 47.9944L48.9925 85.4645" fill="url(#paint0_linear_27_179)"/>
<path fill-rule="evenodd" clip-rule="evenodd" d="M31.9591 82.6285L79.3747 46.8645L29.9535 81.357" fill="url(#paint1_linear_27_179)"/>
<path fill-rule="evenodd" clip-rule="evenodd" d="M16.6741 73.6525L77.6041 47.2276L14.9913 71.977" fill="url(#paint2_linear_27_179)"/>
<path fill-rule="evenodd" clip-rule="evenodd" d="M8.51654 60.2283L77.3408 46.7028L7.20898 58.2459" fill="url(#paint3_linear_27_179)"/>
<path fill-rule="evenodd" clip-rule="evenodd" d="M85.8276 45.3633C85.8276 56.0951 81.5644 66.3873 73.9759 73.9758C66.3874 81.5643 56.0952 85.8275 45.3634 85.8275C34.6316 85.8275 24.3394 81.5643 16.7509 73.9758C9.16241 66.3873 4.89923 56.0951 4.89923 45.3633C4.89923 34.6316 9.16241 24.3393 16.7509 16.7508C24.3394 9.16234 34.6316 4.89917 45.3634 4.89917C56.0952 4.89917 66.3874 9.16234 73.9759 16.7508C81.5644 24.3393 85.8276 34.6316 85.8276 45.3633Z" stroke="#FCE2C4" stroke-width="3" stroke-linejoin="round"/>
<path fill-rule="evenodd" clip-rule="evenodd" d="M21.9559 23.4075H26.0386V36.4467C26.0386 36.4467 26.0501 37.6886 27.2861 37.6886C28.5224 37.6886 28.7038 36.458 28.7038 36.458V23.4187H32.6844V36.4692C32.6844 36.4692 32.6982 40.827 27.3654 40.827C22.065 40.827 21.9617 36.475 21.9617 36.475L21.9559 23.4075ZM40.5772 28.8081H44.266C44.266 28.8081 44.5868 23.4075 39.1657 23.4075C37.6907 23.4075 36.2236 24.0458 35.4495 24.8879C34.6098 25.8016 34.1939 26.7121 34.1939 28.2775C34.1939 29.5049 34.3236 31.364 37.4978 33.1474C39.4415 34.2397 40.5771 35.0517 40.5771 36.2067C40.5771 37.3618 39.9356 37.7677 39.0374 37.7677C37.8338 37.7677 37.6821 36.4837 37.6821 36.3317C37.6821 36.16 37.6582 34.8957 37.6582 34.8957H33.841C33.841 34.8957 33.1353 40.827 38.9413 40.827C44.5912 40.827 44.266 36.4877 44.266 35.5825C44.266 32.679 42.8532 31.7235 40.6092 30.4627C38.7678 29.4281 37.8505 28.8081 37.8505 27.778C37.8505 26.7478 38.5473 26.4668 39.1017 26.4668C40.6041 26.4668 40.5874 27.8723 40.5874 28.02C40.5874 28.1505 40.6092 28.8393 40.5772 28.8081ZM45.966 23.4075H51.5795C53.1191 23.4075 56.423 23.9373 56.423 27.216V37.0517C56.423 39.4935 54.2334 40.827 51.8999 40.827H45.9659L45.966 23.4075ZM49.9791 26.6047H51.2841C52.0081 26.6047 52.41 26.94 52.41 29.0151V35.2402C52.41 36.7859 52.3548 37.6298 51.3585 37.6298H49.9791V26.6047ZM61.6035 40.827H57.725L61.3994 23.4075H66.0718L69.837 40.7798H65.7316L65.2553 37.5933H62.2386L61.6035 40.827ZM62.6696 34.5012H64.8017L63.8037 26.6412L62.6696 34.5012Z" fill="#8E6854"/>
<path fill-rule="evenodd" clip-rule="evenodd" d="M46.2534 63.3492H43.3402L46.0999 50.2845H49.6092L52.437 63.3138H49.3536L48.9959 60.9241H46.7301L46.2534 63.3492ZM47.054 58.6049H48.6553L47.9059 52.7099L47.054 58.6049Z" fill="#FCE2C4"/>
<path fill-rule="evenodd" clip-rule="evenodd" d="M18.8757 50.2845H20.4182C22.2212 50.2845 23.6726 51.716 23.6726 53.4939V60.1398C23.6726 61.9179 22.2212 63.3492 20.4182 63.3492H18.8759C17.0728 63.3492 15.6213 61.9179 15.6213 60.1398V53.4939C15.6213 51.716 17.073 50.2845 18.8757 50.2845ZM19.6469 52.4674C20.2157 52.4674 20.6735 52.9399 20.6735 53.5271V60.1066C20.6735 60.6938 20.2157 61.1665 19.6471 61.1665C19.0784 61.1665 18.6206 60.6938 18.6206 60.1068V53.5269C18.6206 52.9399 19.0784 52.4672 19.6471 52.4672L19.6469 52.4674Z" fill="#FCE2C4"/>
<path fill-rule="evenodd" clip-rule="evenodd" d="M28.0992 58.1957V63.3492H25.052V50.2845H29.7673C31.5956 50.2845 33.1033 51.0693 33.1033 53.8298C33.1033 56.5873 31.7239 56.505 31.7239 56.8334C31.7239 57.3019 33.0712 56.46 33.0712 60.1651C33.0712 63.144 33.5203 62.8569 33.5203 63.0948C33.5203 63.3329 33.5041 63.341 33.5041 63.341H30.0559V59.6234C30.0559 58.4249 29.3554 58.1956 28.0992 58.1956V58.1957ZM28.0511 55.7008V52.6356C28.7128 52.6356 30.0559 52.3769 30.0559 54.1417C30.0559 55.8826 29.1059 55.7008 28.0511 55.7008ZM39.4543 58.4813H38.3959V56.3144H42.4695V63.1295H40.3204V61.9988C40.3204 61.9988 39.743 63.3492 37.626 63.3492C35.509 63.3492 34.3221 61.9046 34.3221 60.1774V53.1424C34.3221 51.478 36.1504 50.2845 38.3638 50.2845C40.5772 50.2845 42.3492 51.5094 42.3492 53.0797C42.3492 54.65 42.3413 54.8697 42.3413 54.8697H39.3903V53.4251C39.3903 52.8597 38.7487 52.4515 38.3959 52.4515C38.043 52.4515 37.289 52.7028 37.289 53.5351V59.8003C37.289 60.5541 37.5939 61.0881 38.3317 61.0881C39.0695 61.0881 39.4865 60.4599 39.4865 59.8947C39.4865 59.3293 39.4865 58.3872 39.4543 58.4813Z" fill="#FCE2C4"/>
<path fill-rule="evenodd" clip-rule="evenodd" d="M56.0703 56.7198V63.3169H53.2474V50.2844H56.3909L58.6042 57.4959V50.3167H61.395V63.349H58.1551L56.0703 56.7196V56.7198Z" fill="#FCE2C4"/>
<path fill-rule="evenodd" clip-rule="evenodd" d="M62.8704 50.2845H65.8216V63.3492H62.8704V50.2845Z" fill="#FCE2C4"/>
<path fill-rule="evenodd" clip-rule="evenodd" d="M72.4294 54.9325H75.3804V53.0171C75.3804 51.8864 74.2898 50.2847 71.1142 50.2847C67.9386 50.2847 67.3612 52.5146 67.3612 53.5195V60.0204C67.3612 61.2452 67.9065 63.3494 71.2104 63.3494C74.5143 63.3494 75.5408 61.2766 75.5408 60.5229V58.2302H72.4615V60.1458C72.4615 60.6365 71.9841 61.0881 71.435 61.0881C70.9034 61.0881 70.4085 60.774 70.4085 60.1458V53.5193C70.4085 52.9227 70.7001 52.6242 71.435 52.6242C72.0707 52.6242 72.4454 53.1896 72.4454 53.6135C72.4454 54.0376 72.4615 54.9641 72.4294 54.9327V54.9325Z" fill="#FCE2C4"/>
<defs>
<linearGradient id="paint0_linear_27_179" x1="61.8757" y1="71.9804" x2="80.5654" y2="47.9944" gradientUnits="userSpaceOnUse">
<stop stop-color="white" stop-opacity="0.337"/>
<stop offset="1" stop-color="white" stop-opacity="0.103"/>
</linearGradient>
<linearGradient id="paint1_linear_27_179" x1="53.5754" y1="66.1073" x2="79.3747" y2="46.8643" gradientUnits="userSpaceOnUse">
<stop stop-color="white" stop-opacity="0.337"/>
<stop offset="1" stop-color="white" stop-opacity="0.103"/>
</linearGradient>
<linearGradient id="paint2_linear_27_179" x1="50.1591" y1="58.6066" x2="77.6038" y2="47.2278" gradientUnits="userSpaceOnUse">
<stop stop-color="white" stop-opacity="0.337"/>
<stop offset="1" stop-color="white" stop-opacity="0.103"/>
</linearGradient>
<linearGradient id="paint3_linear_27_179" x1="49.9588" y1="50.6807" x2="77.341" y2="46.7028" gradientUnits="userSpaceOnUse">
<stop stop-color="white" stop-opacity="0.337"/>
<stop offset="1" stop-color="white" stop-opacity="0.103"/>
</linearGradient>
</defs>
</svg>
