<svg width="116" height="115" viewBox="0 0 116 115" fill="none" xmlns="http://www.w3.org/2000/svg">
<g clip-path="url(#clip0_28_655)">
<path fill-rule="evenodd" clip-rule="evenodd" d="M56.9318 95.7229C69.6233 95.7229 82.2159 93.4919 92.1116 88.0602C105.685 80.6088 113.273 68.7931 114.016 56.6065C114.281 52.2771 112.927 48.3544 110.986 44.4571C102.716 27.8434 82.2177 18.4593 57.5457 18.3428C44.974 18.2836 33.6181 21.3418 23.798 26.6593C10.1052 34.0723 2.54755 45.2743 2.54755 57.5811C2.54755 78.7134 26.8292 95.7229 56.9318 95.7229Z" fill="#8E6854"/>
<path fill-rule="evenodd" clip-rule="evenodd" d="M57.4229 92.1848C69.3152 92.1848 80.5006 89.9875 89.4213 85.7565C103.367 79.1394 111.836 68.3055 111.925 56.6958C112.066 38.0394 89.5042 22.4259 59.0183 22.4259C48.5385 22.4259 38.7656 24.2763 30.383 27.1185C14.3033 32.571 4.67639 45.9146 4.67639 58.1575C4.67639 76.8156 26.9364 92.1848 57.4229 92.1848Z" fill="#FCE2C4"/>
<path fill-rule="evenodd" clip-rule="evenodd" d="M20.538 56.0732L21.2949 53.6198H4.35576L3.66025 56.0732H20.538ZM32.137 28.7571H47.7876L46.9282 31.1342H34.3463L31.401 41.0059H43.6753L43.1848 42.8948H30.7257L27.2893 53.2541H41.2204L40.668 55.9963H23.7295L32.137 28.7571ZM65.6463 43.3214C65.6463 43.3214 66.6905 36.8618 69.3295 33.7539C71.9685 30.646 73.8101 29.7932 73.8101 29.7932C75.3442 28.4523 81.85 26.4415 85.8395 28.879C89.829 31.3164 91.0019 34.2663 90.3803 40.0916C89.8284 45.2713 86.3306 50.0243 86.3306 50.0243C86.3306 49.9633 82.7094 55.7525 75.4062 55.8135C75.4062 55.8135 69.8212 56.3011 67.243 52.4008C64.6653 48.5011 65.6463 43.3214 65.6463 43.3214Z" fill="#8E6854"/>
<path fill-rule="evenodd" clip-rule="evenodd" d="M80.745 30.159C80.745 30.159 87.0052 29.6714 87.3729 35.9475C87.7407 42.2243 84.4884 47.6478 84.4884 47.6478C84.4884 47.6478 81.6038 53.437 75.16 53.6198C69.4552 53.7814 68.8384 49.6592 68.8384 49.6592C68.8384 49.6592 68.041 46.7341 69.1459 42.1634C69.1459 42.1634 70.2229 37.6382 72.0305 35.0948C74.2392 31.9869 76.2644 30.2199 80.745 30.159Z" fill="#FCE2C4"/>
<path fill-rule="evenodd" clip-rule="evenodd" d="M51.224 57.0928H66.8126L65.9538 59.5007H53.5871L50.5184 68.7931H62.8547L62.1485 71.1708H49.7204L46.6683 81.4685H60.8599L59.9391 84.3327H42.8159L51.224 57.0928ZM112.106 59.332L112.679 56.5449H107.278L106.521 59.332H112.106ZM85.7924 56.5449L84.8573 59.2581H93.3012L85.7155 84.2711L88.6615 84.2114L96.088 59.2705H103.268L104.148 56.5449H85.7924ZM61.4732 84.3327L69.8206 57.0934H79.6406C79.6406 57.0934 84.6725 57.2159 84.9181 62.7003C85.1308 67.448 78.4123 69.8902 78.4123 69.8902C78.4123 69.8902 81.1127 70.134 80.6216 76.106C80.1305 82.0781 80.3761 84.1504 80.3761 84.1504H77.1852L77.8682 74.7657C77.8682 74.7657 78.811 71.3228 75.6195 71.2015C72.4286 71.079 68.1012 71.2015 68.1012 71.2015L64.2064 84.3333H61.4732V84.3327Z" fill="#8E6854"/>
<path fill-rule="evenodd" clip-rule="evenodd" d="M68.839 68.7629L71.692 59.5007H79.1489C79.1489 59.5007 83.9353 59.7747 81.8333 64.778C80.9917 66.7776 77.7984 68.7629 75.7244 68.7629H68.839Z" fill="#FCE2C4"/>
<path fill-rule="evenodd" clip-rule="evenodd" d="M43.8595 64.7112C43.8595 64.7112 45.3327 58.7391 38.52 58.922C38.52 58.922 36.3107 58.6782 34.3183 59.9635C32.5381 61.1109 31.0327 62.5779 29.8049 64.7715C29.8049 64.7715 28.2095 66.3563 26.921 71.2312C26.921 71.2312 26.3685 73.9124 26.4299 76.5937C26.4841 78.9726 26.7982 82.3219 32.5667 82.3829C38.3359 82.4444 39.6864 77.9956 39.6864 77.9956H43.1234C43.1234 77.9956 41.2824 84.8203 32.5673 84.8203C32.5673 84.8203 25.1282 84.8481 23.975 79.3963C22.6859 73.3029 25.08 67.8191 25.08 67.8191C25.08 67.8191 27.9645 60.9943 32.1376 58.8605C32.1376 58.8605 35.3905 57.0325 38.7048 57.0325C42.0191 57.0325 47.5427 58.1296 46.8674 64.7112H43.8595ZM64.4812 35.9482C64.4812 35.9482 65.9538 29.9767 59.1417 30.1596C59.1417 30.1596 56.9318 29.9158 54.94 31.2005C53.1598 32.3479 51.6538 33.8155 50.4266 36.0097C50.4266 36.0097 48.8312 37.5938 47.5421 42.4688C47.5421 42.4688 46.9902 45.15 47.0516 47.8313C47.1058 50.2101 47.4193 53.5595 53.1884 53.6204C58.957 53.6814 60.3081 49.2325 60.3081 49.2325H63.7445C63.7445 49.2325 61.9029 56.0579 53.1884 56.0579C53.1884 56.0579 45.7493 56.0857 44.5961 50.6344C43.307 44.5405 45.7005 39.0561 45.7005 39.0561C45.7005 39.0561 48.585 32.2313 52.7587 30.0986C52.7587 30.0986 56.0116 28.2707 59.3259 28.2707C62.6402 28.2707 68.1632 29.3678 67.4879 35.9488L64.4812 35.9482ZM105.61 88.6632V85.5955H105.922C106.364 85.5955 106.878 85.5748 107.281 85.7642C107.824 86.0044 108.086 86.5642 108.086 87.1234C108.086 87.5744 107.915 88.0235 107.552 88.3129C107.169 88.6437 106.697 88.6632 106.224 88.6632H105.61ZM106.396 89.1129C107.653 89.1336 108.569 88.4543 108.569 87.1447C108.569 86.5045 108.347 85.9044 107.804 85.5257C107.291 85.1558 106.686 85.1452 106.073 85.1452H105.127V92.6806H105.61V89.1129H105.852L108.328 92.6806H108.881L106.396 89.1129Z" fill="#8E6854"/>
<path d="M106.584 94.2778C107.302 94.2777 108.013 94.1372 108.676 93.8643C109.34 93.5914 109.943 93.1914 110.45 92.6872C110.958 92.1829 111.361 91.5844 111.636 90.9256C111.91 90.2668 112.052 89.5608 112.052 88.8478C112.052 85.85 109.604 83.4178 106.584 83.4178C105.148 83.4389 103.777 84.0203 102.769 85.0363C101.761 86.0523 101.195 87.4214 101.195 88.8478C101.195 90.2742 101.761 91.6433 102.769 92.6594C103.777 93.6754 105.148 94.2567 106.584 94.2778Z" stroke="#8E6854" stroke-miterlimit="2.613"/>
</g>
<defs>
<clipPath id="clip0_28_655">
<rect width="114.88" height="114.065" fill="white" transform="translate(0.858521)"/>
</clipPath>
</defs>
</svg>
