<svg width="131" height="80" viewBox="0 0 131 80" fill="none" xmlns="http://www.w3.org/2000/svg">
<path d="M109.898 27.8876C110.365 26.8957 110.79 25.9837 111.221 25.0757C114.984 17.1532 118.756 9.23567 122.496 1.30263C122.802 0.65384 123.145 0.403615 123.875 0.422361C125.968 0.476156 128.064 0.454149 130.158 0.432957C130.675 0.428067 130.842 0.600861 130.841 1.12006C130.828 9.83882 130.829 18.5568 130.84 27.2755C130.841 27.7743 130.714 27.9895 130.175 27.9806C128.586 27.9545 126.997 27.9561 125.408 27.9789C124.888 27.9863 124.707 27.7947 124.72 27.2821C124.747 26.2355 124.712 25.1881 124.735 24.1416C124.746 23.6892 124.579 23.5507 124.136 23.5556C122.53 23.5759 120.922 23.5751 119.316 23.5556C118.915 23.5507 118.692 23.6811 118.531 24.0519C118.028 25.2102 117.485 26.3521 116.977 27.5078C116.834 27.8322 116.633 27.9757 116.276 27.974C114.307 27.9651 112.34 27.9708 110.371 27.9675C110.252 27.9667 110.132 27.9284 109.898 27.8876ZM121.305 17.9789C122.321 17.9789 123.203 17.9561 124.082 17.9879C124.575 18.0058 124.742 17.842 124.738 17.3423C124.716 15.2337 124.729 13.1244 124.727 11.015C124.727 10.9172 124.709 10.8185 124.699 10.7207C124.667 10.7142 124.637 10.7077 124.605 10.7012C123.523 13.086 122.442 15.4709 121.305 17.9789Z" fill="#8E6854"/>
<path d="M67.3708 0.467957C69.0653 0.523381 70.7606 0.553539 72.4527 0.650531C73.0021 0.682319 73.5547 0.848592 74.082 1.02546C76.8141 1.94404 78.2861 3.89123 78.4679 6.73092C78.6366 9.36114 78.1052 11.8748 76.6968 14.1407C75.0797 16.7424 72.6019 18.0212 69.6774 18.5608C68.0008 18.8705 66.3079 18.9316 64.6118 18.776C64.1211 18.7311 63.9068 18.9129 63.7804 19.3799C63.0656 22.0265 62.3141 24.6632 61.6017 27.3113C61.4713 27.7955 61.257 27.9854 60.7443 27.9756C59.1378 27.9471 57.5305 27.9675 55.9232 27.9634C55.2524 27.9618 55.2124 27.9145 55.3779 27.2959C57.7261 18.551 60.0792 9.8078 62.4217 1.06132C62.5293 0.657867 62.7298 0.516045 63.143 0.522566C64.5515 0.542942 65.9599 0.529901 67.3683 0.529901C67.37 0.51034 67.37 0.489148 67.3708 0.467957ZM69.2976 6.08295C68.7972 6.12615 68.3309 6.18402 67.8639 6.20032C67.5297 6.21254 67.4026 6.37637 67.3211 6.67958C66.7945 8.64715 66.2484 10.6098 65.7162 12.5758C65.5581 13.1602 65.6314 13.271 66.2598 13.2938C70.1901 13.4324 71.9735 10.9367 71.9213 7.43596C71.9099 6.67876 71.5586 6.36333 70.7729 6.23944C70.2757 6.16119 69.7712 6.13185 69.2976 6.08295Z" fill="#8E6854"/>
<path d="M27.8661 39.9067C28.3535 39.9825 28.7749 40.042 29.1947 40.1145C31.0816 40.443 32.5829 41.4145 33.7427 42.9126C34.2945 43.625 34.7999 44.3748 35.2995 45.1263C36.016 46.203 36.8318 47.1836 37.8963 47.931C39.2396 48.874 39.8077 50.1993 39.8052 51.7911C39.8044 52.2353 39.9478 52.4106 40.3766 52.528C41.3147 52.7847 42.2512 53.0683 43.1494 53.4376C43.7053 53.6658 44.2106 54.0415 44.6972 54.4059C45.0754 54.6895 45.1798 55.1044 44.9426 55.6252C43.504 54.1198 41.5926 53.8084 39.6732 53.3699C39.5476 53.7489 39.3879 54.0798 39.348 54.4246C39.3308 54.5705 39.5322 54.8069 39.6935 54.8982C40.6195 55.4206 41.5918 55.8656 42.4876 56.4329C42.9424 56.7206 43.3141 57.1771 43.6385 57.6205C43.7958 57.8357 43.7558 58.1943 43.7208 58.5219C42.5609 57.0304 40.8966 56.4435 39.2933 55.754C38.9396 55.6024 38.7603 55.6619 38.5663 56.0058C37.9371 57.1184 37.1049 58.0622 36.0641 58.8146C33.8895 60.3876 31.6692 60.5074 29.4009 59.0737C28.5532 58.5382 27.7838 57.8666 27.0348 57.195C26.6378 56.8397 26.3436 56.7981 25.9801 57.1665C25.6002 57.552 25.1943 57.9155 24.8439 58.3255C23.3686 60.0502 20.3618 61.1913 17.5588 59.2253C16.399 58.4119 15.4673 57.3931 14.7843 56.1615C14.5528 55.745 14.3287 55.6586 13.935 55.8966C13.7663 55.9985 13.5707 56.0539 13.3922 56.1411C12.1468 56.75 10.8638 57.3067 10.0431 58.5717C9.77899 58.1633 9.82627 57.7933 10.0765 57.5219C10.5231 57.0361 10.982 56.5316 11.5273 56.1737C12.2315 55.7124 13.0205 55.375 13.7842 55.0082C14.3483 54.7368 13.9008 54.3969 13.8625 54.0953C13.8299 53.8386 13.7272 53.5818 13.3645 53.7147C12.3676 54.0815 11.3545 54.4124 10.3821 54.8354C9.95668 55.0204 9.61516 55.397 9.20845 55.7067C9.01609 55.2959 9.06173 54.9275 9.36168 54.6496C9.70238 54.3341 10.0626 54.0032 10.4767 53.8125C11.2429 53.4588 12.04 53.1531 12.8518 52.9224C13.3734 52.7741 13.5862 52.5736 13.5552 52.0063C13.4672 50.4063 14.0719 49.0859 15.1649 47.9041C16.5962 46.3571 17.915 44.7066 19.3071 43.1221C19.8296 42.5271 20.3985 41.968 20.9878 41.4382C21.9642 40.5603 23.1453 40.1536 24.4437 40.0607C24.5333 40.0542 24.6238 40.0493 24.7126 40.0354C24.7452 40.0305 24.7738 40.002 24.874 39.945C24.7705 39.8243 24.6874 39.7021 24.5806 39.6051C19.2533 34.7302 13.9163 29.8683 8.60693 24.9763C6.57089 23.1008 4.64408 21.1121 3.30737 18.6522C1.84432 15.96 0.877657 13.0967 0.686931 10.0206C0.54185 7.67814 1.20287 5.60624 2.94222 3.93454C4.71417 2.23187 6.67685 0.917166 9.206 0.699544C10.625 0.577284 11.9723 0.90494 13.2569 1.47223C17.3175 3.26537 20.4295 6.12707 22.7182 9.91468C24.2766 12.4944 25.3867 15.2721 26.3933 18.0979C26.4536 18.2675 26.5139 18.437 26.5799 18.6049C26.5914 18.6343 26.6272 18.653 26.69 18.7133C27.0486 17.7572 27.3901 16.8142 27.7553 15.8793C28.9681 12.7764 30.3757 9.7753 32.437 7.12634C34.3997 4.60534 36.7512 2.54322 39.7327 1.33285C43.2896 -0.110632 48.1221 1.28232 50.4606 4.29969C51.5593 5.71709 52.0214 7.34722 52.0548 9.09472C52.1437 13.7561 50.4891 17.8102 47.6143 21.4079C45.8041 23.6746 43.6238 25.5762 41.4899 27.5234C38.9437 29.8479 36.417 32.1937 33.8666 34.5134C31.9838 36.2258 30.0766 37.9114 28.1807 39.6092C28.0911 39.6907 28.0055 39.7754 27.8661 39.9067ZM26.3819 21.5449C26.3053 21.5318 26.2295 21.518 26.1529 21.5049C26.1757 21.0501 26.205 20.5953 26.2189 20.1405C26.2262 19.9147 26.2613 19.6678 26.1887 19.4648C25.2946 16.9454 24.3018 14.4685 22.9765 12.1374C20.7563 8.23238 17.7137 5.19789 13.6261 3.25967C10.8907 1.96208 8.18391 1.89362 5.5757 3.54983C4.69869 4.10652 3.8934 4.79444 3.12153 5.49458C1.5998 6.8753 0.951012 8.66192 1.18575 10.6678C1.33735 11.9605 1.67316 13.2589 2.12063 14.4839C3.1362 17.2641 4.90734 19.5724 7.01103 21.6166C10.7383 25.2387 14.4615 28.8674 18.2638 32.4097C20.7848 34.7587 23.4428 36.961 26.0314 39.2375C26.2857 39.4608 26.4536 39.4739 26.7128 39.2383C27.5678 38.4615 28.4579 37.7239 29.3137 36.948C32.4289 34.123 35.5677 31.3216 38.6364 28.4468C41.4142 25.8443 44.143 23.1872 46.8376 20.4983C49.1752 18.1656 50.5364 15.2786 51.3074 12.0966C52.0084 9.20639 51.3433 6.73755 49.0195 4.79443C48.5908 4.43581 48.1547 4.08125 47.6934 3.76745C45.0428 1.96208 42.2504 1.67436 39.3382 3.0722C36.1187 4.61757 33.5781 6.94947 31.573 9.88208C29.7237 12.5881 28.5059 15.5973 27.3983 18.6579C27.0527 19.6172 26.721 20.5823 26.3819 21.5449ZM38.7896 53.268C38.4644 53.2126 38.2044 53.1417 37.942 53.1287C37.0055 53.0814 36.0681 53.048 35.1308 53.0211C34.8235 53.0121 34.5594 53.0219 34.5505 52.5866C34.5415 52.1563 34.7567 52.065 35.1202 52.078C36.2189 52.1188 37.3193 52.1343 38.4172 52.1921C39.2436 52.2353 39.352 52.1196 39.167 51.2931C38.9787 50.4528 38.3984 49.9091 37.7366 49.46C36.4838 48.6107 35.5489 47.49 34.7436 46.2267C34.1821 45.3456 33.5854 44.4808 32.9334 43.6649C32.1077 42.6331 31.0188 41.9753 29.7057 41.7251C27.8213 41.3656 25.9344 41.5262 24.0459 41.6998C22.719 41.8221 21.6512 42.4472 20.7074 43.3307C20.339 43.6755 19.9649 44.0236 19.6494 44.4156C18.0438 46.4117 16.5025 48.4567 14.6172 50.2172C14.2398 50.5702 14.0418 51.2157 13.9578 51.7569C13.8348 52.5459 13.9815 52.5606 14.7884 52.4831C16.2392 52.3438 17.6982 52.2851 19.1539 52.1938C19.5386 52.1693 19.6551 52.3853 19.6519 52.7325C19.6478 53.1181 19.422 53.1515 19.1107 53.1384C18.5882 53.1164 18.0617 53.0969 17.5409 53.1344C16.5065 53.2093 15.4755 53.3243 14.4241 53.4245C14.7126 54.4572 14.8617 54.5167 15.7078 54.317C16.9173 54.0326 18.1424 53.8174 19.3585 53.5582C19.8027 53.4636 19.8956 53.6772 19.8915 54.0546C19.8874 54.4205 19.6625 54.4792 19.3658 54.5314C18.2834 54.7213 17.2042 54.9291 16.1259 55.1419C15.9466 55.1769 15.7795 55.269 15.4869 55.3791C16.1504 56.0572 16.6826 56.7011 17.3135 57.2284C19.18 58.7877 21.3097 59.0615 23.3384 57.852C24.2953 57.2814 25.0558 56.3816 25.9002 55.626C25.9483 55.5836 25.9996 55.4801 25.9801 55.4369C25.6451 54.6911 26.0192 53.647 25.0142 53.1759C24.8129 53.0814 24.6491 52.8809 24.5015 52.7016C24.248 52.3943 24.0744 52.0454 24.3719 51.6746C24.6572 51.3184 25.0444 51.3486 25.4079 51.5156C25.6997 51.6501 25.9898 51.818 26.2287 52.0299C26.4976 52.2679 26.6835 52.2761 26.963 52.0405C27.2768 51.7757 27.6249 51.5197 28.0031 51.3754C28.2207 51.2923 28.6225 51.3486 28.7643 51.5034C28.911 51.664 28.9412 52.0642 28.8442 52.2802C28.7032 52.594 28.4513 52.9192 28.1595 53.0912C27.5882 53.4278 27.5279 53.9527 27.3518 54.5077C27.0796 55.3611 27.3901 55.8787 27.9965 56.3938C29.5101 57.6808 31.1476 58.6035 33.2276 58.4893C34.8398 58.4005 36.8278 56.8975 37.6265 55.2291C37.4537 55.1745 37.2891 55.1044 37.1179 55.071C36.1806 54.8884 35.2449 54.6887 34.3011 54.5485C33.8952 54.4882 33.7957 54.3064 33.8063 53.9413C33.8186 53.5134 34.0843 53.5427 34.3655 53.5941C35.4291 53.7864 36.496 53.9649 37.5532 54.1899C38.3063 54.3504 38.3006 54.3798 38.6364 53.6658C38.678 53.568 38.7114 53.4661 38.7896 53.268Z" fill="#8E6854"/>
<path d="M103.819 6.45793C102 6.45793 100.278 6.45793 98.4966 6.45793C98.5178 6.24845 98.5129 6.10908 98.5487 5.98193C99.0223 4.298 99.5113 2.61897 99.9727 0.931778C100.072 0.566629 100.257 0.437848 100.62 0.438664C106.288 0.444369 111.955 0.444369 117.623 0.440294C118.044 0.440294 118.215 0.558478 118.085 1.02144C117.629 2.65401 117.193 4.29148 116.77 5.93302C116.673 6.31121 116.492 6.45793 116.095 6.45304C114.579 6.43429 113.062 6.47341 111.547 6.43184C110.955 6.41554 110.709 6.59567 110.549 7.18171C108.734 13.8261 106.889 20.4624 105.05 27.1003C104.808 27.974 104.804 27.9732 103.883 27.9732C102.15 27.9732 100.417 27.9626 98.684 27.9797C98.2081 27.9846 98.0964 27.8534 98.2252 27.3758C100.037 20.6564 101.831 13.9313 103.63 7.2086C103.685 6.99994 103.735 6.7921 103.819 6.45793Z" fill="#8E6854"/>
<path d="M92.3925 0.44043C93.1514 0.581436 93.9281 0.662128 94.6666 0.875675C96.6798 1.456 97.7997 3.35266 97.4182 5.41722C97.0188 7.57796 95.8223 9.15593 93.9583 10.2848C91.6198 11.7014 89.0777 12.6118 86.4703 13.3617C85.4131 13.6657 84.3356 13.8972 83.2768 14.1955C83.0682 14.2542 82.7968 14.4302 82.7348 14.6136C81.9735 16.8534 81.6084 19.1266 82.2873 21.4634C83.0421 24.061 84.5174 24.9201 87.2226 24.233C89.1828 23.735 90.6744 22.4782 91.901 20.901C92.1447 20.588 92.3901 20.2742 92.6142 19.9474C92.8123 19.6589 93.0095 19.7257 93.2549 19.8798C93.5075 20.0387 93.554 20.2042 93.3869 20.4552C91.584 23.1759 89.5284 25.6439 86.564 27.1819C85.3373 27.8185 84.0161 28.0728 82.6337 27.9831C80.7713 27.8617 79.4631 26.891 78.5829 25.2999C77.824 23.9282 77.5265 22.4203 77.4768 20.8766C77.3611 17.3335 78.2601 14.0145 79.8552 10.8765C81.6679 7.30899 84.0886 4.25086 87.4818 2.04937C88.9635 1.09004 90.5896 0.534162 92.3925 0.44043ZM83.6216 12.5474C83.8303 12.5205 83.9729 12.5205 84.1033 12.4822C85.2452 12.1513 86.3871 11.8179 87.5266 11.4764C88.9293 11.0567 90.1878 10.3639 91.2832 9.39638C92.7071 8.13873 93.801 6.67487 94.1115 4.7342C94.4253 2.77152 92.6265 1.06151 90.7534 1.58071C89.6205 1.89451 88.8372 2.71365 88.1395 3.59637C86.0888 6.18991 84.8051 9.18772 83.6509 12.2491C83.6273 12.3111 83.6363 12.386 83.6216 12.5474Z" fill="#8E6854"/>
<path d="M87.7002 47.6775C88.2927 48.5203 88.8592 49.328 89.4281 50.1349C89.7704 50.6207 90.085 51.1277 90.7069 51.3306C90.8194 51.3673 90.9449 51.6151 90.9229 51.7398C90.9025 51.8555 90.6955 52.0145 90.5643 52.021C89.9701 52.0512 89.3694 52.0756 88.7809 52.012C88.5617 51.9884 88.3106 51.7569 88.1753 51.5531C87.586 50.6672 87.0179 49.7665 86.4751 48.8512C86.1572 48.3165 85.6943 48.1519 85.1156 48.1405C84.783 48.1339 84.6657 48.2701 84.6722 48.5896C84.6844 49.1846 84.6689 49.7804 84.6779 50.3754C84.6877 51.0119 84.8474 51.2035 85.4864 51.3078C85.7399 51.3494 86.0097 51.3901 85.9184 51.6982C85.8744 51.8458 85.6038 52.0177 85.4318 52.0226C84.2777 52.0512 83.1219 52.0381 81.967 52.0357C81.7282 52.0349 81.4356 52.0365 81.4983 51.6942C81.5252 51.5491 81.7347 51.3559 81.8863 51.329C82.4495 51.2279 82.6842 50.9255 82.681 50.3615C82.6687 48.5211 82.6704 46.6807 82.6793 44.8411C82.6818 44.2991 82.4479 43.9812 81.9042 43.929C81.6344 43.9029 81.4029 43.8198 81.4967 43.5182C81.5415 43.3756 81.7787 43.2004 81.9303 43.1995C83.5865 43.1906 85.246 43.1694 86.8989 43.2525C87.4075 43.2786 87.9553 43.5329 88.3913 43.8222C89.7297 44.7123 89.6188 46.6269 88.2218 47.4167C88.0343 47.5226 87.8371 47.609 87.7002 47.6775ZM84.6763 45.5649C84.6754 45.5649 84.6746 45.5649 84.6746 45.5649C84.6746 45.7621 84.6746 45.9602 84.6746 46.1574C84.6746 47.4583 84.7154 47.49 86.0089 47.2056C86.8688 47.0165 87.2054 46.5927 87.2193 45.6855C87.2339 44.7245 86.9234 44.2771 86.0602 44.0692C85.7473 43.9934 85.422 43.9698 85.1017 43.929C84.8067 43.8915 84.6681 44.0219 84.6746 44.3251C84.6828 44.7376 84.6763 45.1516 84.6763 45.5649Z" fill="#8E6854"/>
<path d="M123.58 52.0372C122.859 52.0372 122.136 52.0559 121.416 52.0233C121.254 52.016 121.004 51.8603 120.961 51.7209C120.868 51.4218 121.106 51.3525 121.373 51.3118C122.071 51.2034 122.214 51.0241 122.217 50.3044C122.221 48.5185 122.221 46.7336 122.217 44.9477C122.214 44.2028 122.078 44.0756 121.335 43.9036C121.182 43.8686 121.071 43.655 120.94 43.523C121.055 43.4154 121.165 43.2206 121.287 43.2133C123.104 43.1008 124.928 42.9508 126.731 43.3249C128.552 43.7023 129.708 44.8328 130.118 46.6382C130.511 48.3702 130.11 49.9066 128.684 51.0575C127.774 51.7919 126.655 51.9581 125.529 52.025C124.882 52.0641 124.231 52.0323 123.581 52.0323C123.58 52.0347 123.58 52.0356 123.58 52.0372ZM124.213 47.45C124.216 47.45 124.219 47.45 124.222 47.45C124.222 48.4403 124.229 49.4306 124.218 50.4209C124.213 50.8578 124.425 51.077 124.832 51.1732C125.826 51.4071 127.022 50.9409 127.456 50.0175C127.741 49.411 127.958 48.7305 128.017 48.067C128.193 46.119 127.394 43.8686 124.741 43.99C124.342 44.008 124.201 44.1425 124.208 44.5337C124.225 45.5052 124.213 46.4784 124.213 47.45Z" fill="#8E6854"/>
<path d="M96.1533 43.0927C98.7713 43.0903 100.489 44.396 100.981 46.7589C101.519 49.3369 99.7094 51.8351 97.0906 52.1399C95.9617 52.2712 94.8589 52.2174 93.8124 51.7275C91.888 50.8285 90.8969 48.7558 91.3485 46.5918C91.7625 44.6071 93.5353 43.1522 95.6121 43.0935C95.7922 43.0886 95.9731 43.0927 96.1533 43.0927ZM98.9416 47.6978C98.803 46.9504 98.7427 46.2429 98.5333 45.5836C98.1877 44.4963 97.3775 43.9795 96.1785 43.9469C95.0472 43.9168 94.1343 44.4661 93.7773 45.5249C93.2908 46.9667 93.263 48.4404 93.8491 49.8643C94.2639 50.8717 95.1067 51.3224 96.1769 51.3151C97.2487 51.3078 98.0915 50.8473 98.464 49.8195C98.7118 49.1372 98.7916 48.3939 98.9416 47.6978Z" fill="#8E6854"/>
<path d="M115.865 52.0381C114.746 52.0381 113.627 52.0422 112.508 52.0348C112.273 52.0332 111.971 52.1106 111.934 51.721C111.898 51.3469 112.159 51.3323 112.421 51.3037C112.916 51.2499 113.148 50.9728 113.146 50.4724C113.142 48.5602 113.137 46.6481 113.15 44.7359C113.153 44.1907 112.829 44.0203 112.375 43.9526C112.133 43.9168 111.847 43.8654 111.953 43.5508C112.004 43.4 112.27 43.2272 112.441 43.2256C114.534 43.2036 116.627 43.2158 118.72 43.2069C119.07 43.2052 119.266 43.3128 119.277 43.6878C119.291 44.2102 119.339 44.7319 119.334 45.2535C119.334 45.3701 119.181 45.5738 119.086 45.5812C118.941 45.5934 118.672 45.4948 118.65 45.3986C118.338 44.0089 117.266 44.0252 116.192 44.0358C114.975 44.048 115.142 43.8923 115.129 45.1035C115.124 45.5543 115.154 46.0074 115.121 46.4557C115.089 46.9016 115.284 47.0401 115.692 46.9994C115.96 46.9725 116.281 47.0483 116.485 46.9252C116.712 46.7875 116.821 46.4647 117.007 46.2446C117.117 46.1158 117.287 45.9398 117.412 45.952C117.531 45.9634 117.712 46.1925 117.718 46.3318C117.749 47.0523 117.748 47.7753 117.718 48.495C117.712 48.6328 117.523 48.7632 117.418 48.8977C117.284 48.7893 117.077 48.7069 117.028 48.5684C116.809 47.9611 115.905 47.5561 115.312 47.8568C115.217 47.9049 115.141 48.0842 115.138 48.2049C115.125 48.9083 115.129 49.6117 115.14 50.3151C115.148 50.8448 115.408 51.1717 115.958 51.1929C116.425 51.2116 116.897 51.2279 117.363 51.1888C118.363 51.1032 118.807 50.4284 119.061 49.544C119.114 49.3614 119.293 49.1821 119.462 49.0843C119.52 49.0509 119.843 49.2718 119.844 49.3769C119.849 50.1692 119.823 50.963 119.748 51.7512C119.738 51.8629 119.406 52.021 119.219 52.0251C118.103 52.0511 116.984 52.0381 115.865 52.0381Z" fill="#8E6854"/>
<path d="M65.9069 52.0381C65.3478 52.0381 64.7862 52.0633 64.2295 52.0234C64.0518 52.0103 63.7869 51.8596 63.7356 51.7112C63.6296 51.4072 63.8864 51.3387 64.1472 51.3094C64.677 51.2491 64.9256 50.9662 64.9199 50.4047C64.9003 48.5463 64.9011 46.688 64.9199 44.8304C64.9256 44.2664 64.6721 43.9877 64.1431 43.9306C63.8774 43.9021 63.6378 43.8263 63.7323 43.5214C63.7755 43.3812 64.0152 43.2093 64.1676 43.2076C65.8059 43.1897 67.4482 43.1367 69.0824 43.2305C70.1208 43.29 71.0712 43.7211 71.4543 44.8231C71.9343 46.2054 71.2049 47.5234 69.7117 47.8877C68.9675 48.0695 68.1793 48.0899 67.4091 48.1331C67.0366 48.1535 66.8923 48.2684 66.9062 48.6425C66.9266 49.2187 66.9054 49.7966 66.9152 50.3745C66.9258 51.0127 67.0912 51.2091 67.7196 51.311C67.9625 51.3501 68.2013 51.3526 68.1891 51.6917C68.1753 52.0764 67.89 52.0356 67.6414 52.0372C67.0619 52.0413 66.484 52.0381 65.9069 52.0381ZM66.9103 45.573C66.9095 45.573 66.9086 45.573 66.9086 45.573C66.9086 45.7172 66.9086 45.8615 66.9086 46.0049C66.9086 47.428 67.1466 47.5992 68.5217 47.1656C69.1647 46.9626 69.4182 46.6122 69.4541 45.8778C69.5022 44.8973 69.2943 44.3927 68.6496 44.1719C68.2307 44.0284 67.7734 43.9917 67.3309 43.9265C67.0374 43.8833 66.9005 44.0292 66.9078 44.3308C66.9176 44.7448 66.9103 45.1589 66.9103 45.573Z" fill="#8E6854"/>
<path d="M75.6258 43.0634C76.2778 43.1034 77.1443 43.1237 78.0025 43.2166C79.816 43.4131 80.8365 44.7832 80.3499 46.3514C80.0084 47.4525 79.089 47.8283 78.0783 48.0084C77.4972 48.1119 76.8957 48.125 76.3031 48.1348C75.9396 48.1405 75.7749 48.2456 75.7888 48.6311C75.81 49.2253 75.8075 49.8211 75.7921 50.4161C75.7782 50.9753 76.0602 51.2548 76.5876 51.3094C76.8631 51.338 77.1483 51.3877 77.044 51.7276C77 51.8702 76.7106 52.0202 76.5297 52.0243C75.3943 52.0511 74.2573 52.0511 73.1211 52.0243C72.9442 52.0202 72.6647 51.8669 72.619 51.7227C72.5065 51.3738 72.8048 51.3412 73.0706 51.3021C73.5759 51.2279 73.8057 50.9386 73.8017 50.4096C73.787 48.5521 73.7846 46.6954 73.8033 44.8378C73.809 44.2787 73.5661 43.991 73.0339 43.9298C72.7755 43.9005 72.5791 43.8557 72.5913 43.5247C72.6043 43.162 72.8635 43.202 73.0901 43.1889C73.8636 43.1482 74.6379 43.1123 75.6258 43.0634ZM75.7953 45.6015C75.7945 45.6015 75.7937 45.6015 75.7929 45.6015C75.7929 45.7458 75.7929 45.8892 75.7929 46.0335C75.7929 47.4289 76.0154 47.5887 77.379 47.1746C77.3961 47.1697 77.4124 47.1616 77.4295 47.1567C78.0449 46.9545 78.3017 46.609 78.3343 45.9056C78.3652 45.2225 78.3644 44.5134 77.6031 44.2094C77.163 44.0342 76.6642 43.9844 76.1857 43.9445C76.0667 43.9347 75.8304 44.1678 75.8141 44.3088C75.7635 44.7343 75.7953 45.1695 75.7953 45.6015Z" fill="#8E6854"/>
<path d="M55.7593 72.0879C55.1814 72.2525 55.2368 73.0423 54.6027 72.7766C54.6557 71.9794 55.4365 71.1326 56.1921 71.0462C56.9436 70.9606 57.2973 71.3209 57.4033 72.3756C57.5777 72.171 57.6869 71.9876 57.8434 71.8694C58.2127 71.5915 58.5737 71.2532 58.9959 71.1041C59.8265 70.8115 60.4712 71.3038 60.5234 72.1742C60.5307 72.2924 60.5413 72.4098 60.5552 72.594C60.8437 72.2753 61.0572 71.9803 61.3286 71.7578C61.6302 71.51 61.9603 71.2581 62.3214 71.131C63.3859 70.756 64.0901 71.3877 63.8529 72.484C63.6964 73.2061 63.4869 73.9169 63.3076 74.6341C63.2652 74.8012 63.2473 74.9748 63.2114 75.1835C63.7282 75.177 63.8122 74.2869 64.4194 74.6961C64.2857 75.5494 63.2987 76.3588 62.464 76.292C61.7981 76.239 61.4224 75.7361 61.5707 75.027C61.7182 74.3211 61.9277 73.6291 62.0842 72.9257C62.1258 72.7383 62.0728 72.5296 62.063 72.3307C61.856 72.4106 61.5577 72.4302 61.4574 72.581C60.9333 73.37 60.4557 74.1899 59.9716 75.0042C59.8998 75.1256 59.8762 75.2756 59.8338 75.4133C59.5738 76.2651 59.2347 76.4509 58.3398 76.2651C57.9698 76.1884 58.0627 75.9545 58.1205 75.7279C58.3561 74.802 58.6104 73.8802 58.8231 72.9486C58.8671 72.7554 58.7661 72.5296 58.7318 72.3185C58.5256 72.4008 58.2192 72.4245 58.1295 72.5761C57.5997 73.4694 57.0528 74.3635 56.642 75.3139C56.2084 76.3164 55.9394 76.5039 54.7388 76.1501C55.0706 74.833 55.4023 73.5093 55.7593 72.0879Z" fill="#8E6854"/>
<path d="M7.9557 68.5701C8.25401 68.3981 8.53032 68.2384 8.80744 68.0794C8.8213 68.3949 8.87754 68.716 8.84086 69.0257C8.77892 69.5433 8.68274 70.0609 8.54744 70.5646C8.50424 70.726 8.29069 70.8409 8.15539 70.977C8.03313 70.836 7.86278 70.7137 7.80084 70.5499C7.7071 70.3005 7.71036 70.0169 7.63375 69.7585C7.32402 68.7119 6.24732 68.359 5.41432 69.0583C5.08993 69.3306 4.79569 69.6786 4.59274 70.0495C3.89504 71.3242 3.54864 72.6976 3.64644 74.1582C3.71736 75.217 4.50389 75.8112 5.34341 75.4737C5.87891 75.2585 6.37366 74.4484 6.27096 73.8933C6.24243 73.7401 6.07127 73.6186 5.99302 73.4687C5.90662 73.3024 5.76154 73.0888 5.80718 72.9511C5.85853 72.7962 6.09001 72.6088 6.25221 72.5998C6.97191 72.5607 7.69569 72.5729 8.41703 72.5859C8.56374 72.5884 8.81641 72.6511 8.83352 72.7286C8.87346 72.9046 8.86613 73.2095 8.75854 73.282C7.97118 73.8061 8.06084 74.7018 7.78698 75.4395C7.7014 75.6693 7.6419 75.909 7.57751 76.1192C7.47888 76.1323 7.42754 76.1543 7.41205 76.1396C6.99311 75.7337 6.58313 75.8429 6.10631 76.072C5.72568 76.2554 5.28147 76.354 4.85682 76.3915C2.92185 76.5602 1.62101 75.3205 1.66176 73.2559C1.69518 71.5557 2.28528 70.0315 3.56575 68.8578C4.41179 68.0819 5.42247 67.6344 6.58883 67.9172C7.09499 68.0379 7.54817 68.368 7.9557 68.5701Z" fill="#8E6854"/>
<path d="M60.847 52.0356C60.2871 52.0364 59.7263 52.0609 59.1696 52.0201C59.0196 52.0087 58.8852 51.7976 58.7433 51.6778C58.868 51.5596 58.9756 51.373 59.1207 51.3363C59.7222 51.1831 59.8078 51.0576 59.6073 50.4731C59.3196 49.6344 59.3196 49.6344 58.4279 49.6344C58.013 49.6344 57.5974 49.6328 57.1825 49.6344C56.5402 49.6369 56.0251 50.2629 56.2166 50.8856C56.2721 51.0657 56.581 51.1603 56.7578 51.3119C56.8988 51.4325 57.0154 51.5808 57.1425 51.7178C56.9877 51.8245 56.8377 52.0161 56.678 52.0234C55.9574 52.0568 55.2337 52.0536 54.5131 52.025C54.3615 52.0193 54.2165 51.8531 54.0681 51.7618C54.1749 51.6085 54.2507 51.3689 54.3941 51.3167C54.9541 51.1154 55.1994 50.6639 55.391 50.1724C56.2101 48.072 57.0162 45.9658 57.8264 43.8613C57.872 43.7431 57.8875 43.6005 57.9658 43.5117C58.1174 43.3397 58.2999 43.0797 58.4744 43.0756C58.6472 43.0715 58.9072 43.3046 58.9887 43.4937C59.3864 44.4221 59.7353 45.3708 60.1045 46.3106C60.6253 47.6375 61.1478 48.9628 61.6694 50.2889C61.8667 50.7902 62.1006 51.2401 62.7168 51.3469C62.8187 51.3648 62.9629 51.6232 62.9401 51.7422C62.9181 51.8588 62.7111 52.0153 62.579 52.0226C62.0036 52.0527 61.4249 52.0348 60.847 52.0356ZM56.8556 48.7933C57.5933 48.7933 58.2258 48.7933 58.9577 48.7933C58.6023 47.8959 58.2771 47.0743 57.9519 46.2527C57.9038 46.2552 57.8549 46.2568 57.8068 46.2593C57.4955 47.0874 57.1857 47.9138 56.8556 48.7933Z" fill="#8E6854"/>
<path d="M107.029 49.284C107.646 47.8079 108.281 46.3383 108.869 44.8508C109.085 44.3031 108.933 44.1213 108.351 43.986C108.1 43.9274 107.773 43.9453 107.82 43.5329C107.868 43.1147 108.2 43.2191 108.448 43.215C109.187 43.2028 109.927 43.193 110.665 43.2248C110.833 43.2321 110.993 43.4098 111.157 43.5092C111.028 43.6657 110.925 43.9184 110.767 43.9608C110.264 44.0969 110.031 44.4629 109.848 44.881C108.969 46.8966 108.099 48.9156 107.226 50.9337C107.118 51.1814 107.047 51.4545 106.896 51.6721C106.749 51.8832 106.537 52.1481 106.324 52.1791C106.172 52.2011 105.893 51.9077 105.801 51.6982C104.94 49.7339 104.107 47.7573 103.264 45.7849C103.122 45.4532 102.962 45.1296 102.832 44.7938C102.648 44.3194 102.343 44.0235 101.821 43.9257C101.672 43.898 101.559 43.6763 101.429 43.5435C101.581 43.4334 101.731 43.2305 101.885 43.2272C103.093 43.2003 104.301 43.2003 105.509 43.2264C105.666 43.2297 105.819 43.4269 105.973 43.5345C105.831 43.6804 105.712 43.9111 105.544 43.9567C104.786 44.1605 104.714 44.2297 105.006 44.9299C105.614 46.3897 106.249 47.8389 106.872 49.2921C106.924 49.2889 106.976 49.2864 107.029 49.284Z" fill="#8E6854"/>
<path d="M104.022 67.9758C104.634 68.0076 105.253 67.9905 105.856 68.081C107.028 68.257 107.619 68.8903 107.723 69.9817C107.816 70.9533 107.152 72.074 106.192 72.3552C105.563 72.5394 104.882 72.5915 104.222 72.6046C103.75 72.6136 103.536 72.766 103.454 73.2191C103.363 73.7147 103.206 74.198 103.103 74.692C103.037 75.0115 103.072 75.2935 103.464 75.4288C103.578 75.4687 103.728 75.7124 103.697 75.807C103.638 75.9798 103.461 76.2333 103.324 76.2398C102.424 76.2797 101.52 76.2708 100.618 76.2536C100.519 76.252 100.328 76.08 100.34 76.023C100.383 75.8265 100.454 75.5388 100.595 75.4801C101.049 75.291 101.182 74.9202 101.288 74.5135C101.704 72.907 102.111 71.2988 102.53 69.6932C102.636 69.2865 102.664 68.9466 102.157 68.7827C102.075 68.7558 101.981 68.4844 102.028 68.4013C102.118 68.2415 102.296 68.0402 102.452 68.0264C102.971 67.9799 103.498 68.0084 104.021 68.0084C104.021 67.9978 104.022 67.9864 104.022 67.9758ZM103.867 71.7039C104.608 71.9273 105.104 71.7561 105.463 71.197C105.914 70.4919 105.994 69.5228 105.591 69.121C105.439 68.9702 105.194 68.8724 104.978 68.8422C104.848 68.8243 104.596 68.9539 104.563 69.0656C104.308 69.9401 104.093 70.8261 103.867 71.7039Z" fill="#8E6854"/>
<path d="M43.0655 71.5263C43.0655 72.59 43.0696 73.6536 43.0631 74.7173C43.0606 75.0604 43.1593 75.2984 43.5195 75.4183C43.641 75.459 43.8072 75.6864 43.7812 75.7793C43.7314 75.9562 43.5619 76.2284 43.4331 76.2341C42.4616 76.2733 41.4867 76.2643 40.5144 76.2472C40.4182 76.2456 40.2324 76.0638 40.2478 76.0067C40.2984 75.8128 40.384 75.6008 40.5233 75.4631C40.7026 75.2862 41.0841 75.2129 41.1346 75.0278C41.2561 74.5877 41.2561 74.1076 41.252 73.6439C41.2512 73.5558 41.0124 73.4075 40.873 73.3936C40.4973 73.3586 40.1101 73.3382 39.7409 73.3969C39.5102 73.4336 39.2526 73.5803 39.0994 73.7572C38.9046 73.9829 38.7897 74.2829 38.6658 74.5624C38.515 74.9023 38.5688 75.1746 38.9266 75.3857C39.0513 75.459 39.1793 75.7101 39.1434 75.8307C39.0937 75.9978 38.8973 76.2301 38.7498 76.2407C38.1221 76.2863 37.4888 76.2692 36.8588 76.2529C36.7577 76.2504 36.5695 76.1233 36.576 76.0785C36.6078 75.8739 36.6371 75.5699 36.7724 75.4973C37.6502 75.0278 37.9958 74.1443 38.48 73.3781C39.5387 71.7016 40.5527 69.9964 41.6082 68.3182C41.7435 68.103 42.0035 67.8707 42.2382 67.83C42.9449 67.7053 43.0574 67.8341 43.059 68.5497C43.0614 69.5416 43.0598 70.5328 43.0598 71.5247C43.0614 71.5263 43.0639 71.5263 43.0655 71.5263ZM41.2789 70.3983C41.2406 70.3885 41.2031 70.3787 41.1648 70.3689C40.7369 71.0658 40.3098 71.7619 39.811 72.5745C40.2617 72.5745 40.5869 72.6161 40.8926 72.5566C41.0409 72.5272 41.2512 72.3145 41.261 72.1727C41.3025 71.5834 41.2789 70.99 41.2789 70.3983Z" fill="#8E6854"/>
<path d="M21.4214 71.6485C22.2161 71.0429 22.9855 70.7528 23.7599 71.3005C24.5203 71.8384 24.5268 72.6763 24.354 73.5093C23.9718 75.353 22.6041 76.4851 20.8664 76.411C19.6487 76.3588 18.8613 75.3946 19.1344 74.2005C19.4832 72.6739 19.894 71.1611 20.2795 69.6427C20.3749 69.2685 20.5257 68.8846 19.9339 68.7689C19.8753 68.7575 19.7946 68.5073 19.8353 68.4201C19.9079 68.2636 20.0489 68.0549 20.1907 68.0296C20.7735 67.9269 21.366 67.878 21.9553 67.8218C22.349 67.7843 22.3506 68.0207 22.2756 68.3068C22.0384 69.2123 21.8045 70.1195 21.5706 71.0258C21.5266 71.197 21.4883 71.3698 21.4214 71.6485ZM20.5004 74.8746C20.6716 75.1794 20.7572 75.5478 20.9422 75.6081C21.181 75.6856 21.5323 75.5731 21.7752 75.4353C21.9749 75.322 22.146 75.0734 22.2243 74.8485C22.4232 74.2747 22.5943 73.6862 22.7149 73.0904C22.7916 72.7146 22.7427 72.2827 22.3164 72.127C21.8885 71.9705 21.5535 72.2623 21.3945 72.6095C21.0604 73.3382 20.8004 74.1002 20.5004 74.8746Z" fill="#8E6854"/>
<path d="M77.8061 70.3517C77.9911 69.6442 78.1598 68.9465 78.3669 68.2603C78.4003 68.1502 78.6032 68.0206 78.7287 68.0198C80.733 68.0076 82.7364 68.0141 84.7407 68.0206C84.8075 68.0206 84.8743 68.0638 85.0292 68.1176C84.8409 68.83 84.6665 69.5415 84.4521 70.2417C84.422 70.3395 84.1921 70.4446 84.0723 70.4275C83.9655 70.412 83.84 70.2458 83.7985 70.1211C83.7496 69.9743 83.7862 69.7999 83.7789 69.6377C83.7585 69.1617 83.5613 68.8716 83.0396 68.8121C82.5253 68.7534 82.3558 68.9857 82.2433 69.4462C81.8464 71.0755 81.4062 72.6942 80.9889 74.3195C80.777 75.1443 80.8137 75.2103 81.5815 75.5706C81.6198 76.0564 81.4201 76.2887 80.9017 76.2772C80.0532 76.2577 79.2039 76.2862 78.3563 76.2609C78.181 76.2561 78.0107 76.1045 77.8379 76.0205C77.9691 75.8322 78.0718 75.516 78.2356 75.4801C78.7491 75.3684 78.9504 75.0392 79.0662 74.5933C79.5177 72.8475 79.9725 71.1016 80.4192 69.3541C80.5423 68.8732 80.4379 68.7623 79.9505 68.8341C79.2479 68.9384 78.9366 69.4804 78.6652 70.0371C78.4981 70.3851 78.2976 70.5571 77.8061 70.3517Z" fill="#8E6854"/>
<path d="M50.4598 74.6871C50.3041 75.6823 49.3228 76.4289 48.3635 76.2879C47.8035 76.2056 47.484 75.7752 47.6079 75.19C47.7611 74.467 47.9633 73.7547 48.1352 73.0358C48.1793 72.8524 48.189 72.6608 48.2143 72.4734C48.1621 72.4408 48.1092 72.409 48.057 72.3764C47.8956 72.5606 47.6821 72.7195 47.5826 72.9323C47.1384 73.8777 46.7178 74.8338 46.3095 75.7956C46.1391 76.1966 44.9826 76.5137 44.7063 76.1852C44.6215 76.0841 44.6541 75.8453 44.694 75.6847C44.9426 74.6871 45.21 73.6943 45.4683 72.6991C45.5213 72.4954 45.5621 72.2884 45.6134 72.0626C45.016 71.9892 45.1969 73.0268 44.5212 72.7668C44.5775 71.9623 45.1855 71.2133 45.8865 71.0641C46.6518 70.9019 47.1254 71.2907 47.1091 72.0658C47.105 72.2443 47.1083 72.4237 47.1083 72.6918C47.3055 72.4294 47.4424 72.2044 47.6209 72.0202C47.8948 71.7374 48.1564 71.3885 48.4988 71.2426C48.8215 71.1049 49.2877 71.0788 49.6056 71.21C50.0335 71.3869 50.0678 71.8629 49.9626 72.2973C49.7637 73.1214 49.5502 73.9413 49.3472 74.7645C49.3065 74.9308 49.2861 75.102 49.2519 75.2976C49.8151 75.3065 49.7923 74.3325 50.4598 74.6871Z" fill="#8E6854"/>
<path d="M126.144 72.2102C126.069 72.4204 126.028 72.6519 125.91 72.8329C125.822 72.9673 125.635 73.0374 125.492 73.1369C125.433 72.9918 125.31 72.8386 125.328 72.7049C125.367 72.4245 125.447 72.1376 125.571 71.8825C125.824 71.3617 126.225 71.0185 126.845 71.0422C127.462 71.0658 127.823 71.4676 127.951 71.9974C128.135 72.7628 128.227 73.5517 128.323 74.335C128.368 74.7018 128.33 75.0792 128.33 75.4957C129.184 74.8086 129.562 73.5306 129.247 72.5916C129.157 72.321 129.018 72.0235 129.06 71.7627C129.1 71.5108 129.313 71.1383 129.506 71.0992C129.718 71.056 130.141 71.2802 130.214 71.4815C130.355 71.867 130.397 72.3316 130.335 72.7416C130.045 74.6276 128.93 76.067 127.691 77.4282C126.858 78.3443 125.881 79.0347 124.636 79.2507C124.372 79.2963 124.006 79.2923 123.823 79.1431C123.614 78.9728 123.453 78.6133 123.46 78.3403C123.469 77.9719 123.773 77.7241 124.174 77.7599C124.416 77.7819 124.667 77.8643 124.883 77.9784C125.572 78.3427 126.008 78.2702 126.333 77.5554C126.549 77.0777 126.668 76.5219 126.686 75.9961C126.718 74.9732 126.661 73.9462 126.609 72.9225C126.597 72.678 126.457 72.4408 126.375 72.1996C126.298 72.2028 126.221 72.2069 126.144 72.2102Z" fill="#8E6854"/>
<path d="M67.5705 75.4614C67.2249 75.7434 66.9339 76.0515 66.5826 76.2536C65.8719 76.6628 65.1098 76.274 65.0226 75.4581C64.8587 73.916 65.382 72.6111 66.5239 71.5759C67.1678 70.9924 67.9071 70.9858 68.4711 71.4896C68.9023 71.0258 69.4484 71.1806 69.9651 71.2532C70.0246 71.2613 70.1053 71.5825 70.0695 71.7333C69.8404 72.6983 69.5812 73.656 69.3335 74.6161C69.2862 74.8003 69.2438 74.9854 69.1867 75.225C69.5821 75.0163 69.9048 74.846 70.314 74.63C70.2586 75.5698 69.5478 76.3139 68.7898 76.4036C68.1247 76.4818 67.7914 76.2267 67.5705 75.4614ZM66.5516 74.4792C66.6902 74.7563 66.7782 74.9324 66.8663 75.1084C67.0374 74.9951 67.3015 74.9185 67.3643 74.762C67.6618 74.0195 67.9267 73.2615 68.1492 72.4929C68.1981 72.325 68.0261 72.0935 67.956 71.8914C67.7726 72.0145 67.4979 72.0968 67.4221 72.2679C67.0977 72.9974 66.8312 73.753 66.5516 74.4792Z" fill="#8E6854"/>
<path d="M28.6177 71.5043C28.9103 71.2141 29.89 71.0446 30.1353 71.263C30.2266 71.3445 30.2372 71.5834 30.2013 71.7309C29.9715 72.6747 29.7172 73.6129 29.4727 74.5535C29.4205 74.7556 29.3765 74.9594 29.3145 75.2202C29.7074 75.0123 30.0285 74.8428 30.4287 74.6309C30.4059 75.5226 29.7286 76.2684 28.9869 76.3947C28.3104 76.5096 27.9566 76.257 27.6771 75.4672C27.3674 75.7263 27.0821 76.0336 26.7365 76.239C26.0086 76.6726 25.2311 76.2806 25.1463 75.4394C24.9922 73.9006 25.5155 72.5998 26.6582 71.5703C27.3013 70.9908 28.0365 70.9867 28.6177 71.5043ZM28.422 72.5354C28.2745 72.246 28.1849 72.07 28.0952 71.8939C27.9208 71.9982 27.6461 72.0651 27.589 72.2134C27.294 72.9934 27.0381 73.7897 26.809 74.5926C26.7683 74.7352 26.9199 74.9333 26.9826 75.1053C27.1448 75.0099 27.3894 74.9537 27.4546 74.8135C27.8059 74.0579 28.1107 73.2811 28.422 72.5354Z" fill="#8E6854"/>
<path d="M15.1594 76.4135C13.6491 76.4086 12.7117 75.3041 12.9465 73.8069C13.2293 72.0072 14.3965 70.9794 16.0918 71.0381C17.2549 71.0788 18.0577 71.8417 18.1515 72.9951C18.3047 74.8885 16.9647 76.4192 15.1594 76.4135ZM16.6143 72.9576C16.461 72.4938 16.6126 71.9746 16.0429 71.7741C15.6826 71.6478 15.2539 71.9828 15.0493 72.6503C14.8358 73.3464 14.6997 74.0701 14.5839 74.7907C14.5269 75.146 14.5848 75.556 15.02 75.6701C15.4927 75.794 15.7837 75.4761 15.928 75.089C16.1872 74.3905 16.3885 73.6691 16.6143 72.9576Z" fill="#8E6854"/>
<path d="M109.16 76.4134C107.771 76.4093 106.944 75.5804 106.937 74.1866C106.928 72.391 108.185 71.0396 109.869 71.0364C111.239 71.0331 112.104 71.7871 112.158 73.1539C112.23 75.0196 110.819 76.4908 109.16 76.4134ZM110.63 72.9322C110.591 72.92 110.552 72.9086 110.513 72.8964C110.513 72.7888 110.548 72.6641 110.507 72.5752C110.379 72.3006 110.286 71.9183 110.062 71.7993C109.709 71.6126 109.369 71.9044 109.257 72.2362C108.978 73.0635 108.725 73.9046 108.554 74.7588C108.488 75.093 108.56 75.5592 109.033 75.6749C109.489 75.7866 109.768 75.4687 109.906 75.1133C110.183 74.4002 110.392 73.6609 110.63 72.9322Z" fill="#8E6854"/>
<path d="M114.479 75.3277C115.077 75.34 115.108 74.4108 115.739 74.8004C115.576 75.7817 114.594 76.5316 113.642 76.4028C113.056 76.3238 112.733 75.8967 112.881 75.2723C113.239 73.7473 113.637 72.2305 114.021 70.7112C114.109 70.3615 114.204 70.0143 114.295 69.6655C114.396 69.2808 114.563 68.8814 114.003 68.6727C113.98 68.6646 114.077 68.0769 114.169 68.0606C114.866 67.9384 115.577 67.8919 116.41 67.8096C115.75 70.377 115.121 72.8304 114.479 75.3277Z" fill="#8E6854"/>
<path d="M32.7591 75.3376C33.3443 75.327 33.3565 74.4459 33.9711 74.7931C33.9124 75.803 32.6539 76.6784 31.7141 76.3597C31.2324 76.1958 31.0067 75.7671 31.1517 75.1746C31.534 73.6178 31.9375 72.0659 32.3344 70.5124C32.4151 70.1986 32.5137 69.8889 32.5863 69.5726C32.6645 69.2311 32.83 68.857 32.2863 68.7103C32.2236 68.6932 32.1535 68.4446 32.1958 68.3541C32.2602 68.2163 32.4061 68.046 32.5406 68.0232C33.09 67.9302 33.6475 67.883 34.2025 67.8292C34.6199 67.7884 34.6296 68.0126 34.5441 68.3386C34.0346 70.2719 33.535 72.2085 33.0362 74.1443C32.94 74.5192 32.8609 74.8982 32.7591 75.3376Z" fill="#8E6854"/>
<path d="M72.6589 75.3563C73.2156 75.287 73.2457 74.4426 73.8676 74.8037C73.7266 75.6627 72.932 76.3808 72.0908 76.411C71.2578 76.4403 70.8372 75.9602 71.0337 75.1443C71.3752 73.7253 71.7485 72.3144 72.1096 70.9003C72.2432 70.3762 72.3679 69.8505 72.5179 69.3313C72.5953 69.0631 72.5595 68.8985 72.284 68.7656C72.1691 68.7102 72.0362 68.4779 72.0696 68.3793C72.1201 68.231 72.2938 68.05 72.4413 68.0231C72.9352 67.9318 73.4422 67.9082 73.9426 67.8487C74.4472 67.7884 74.5311 67.8666 74.4031 68.3663C73.8701 70.443 73.3273 72.5174 72.7926 74.5942C72.7339 74.824 72.7094 75.0628 72.6589 75.3563Z" fill="#8E6854"/>
<path d="M11.084 75.3449C11.6455 75.2617 11.6806 74.4801 12.2723 74.7833C12.2495 75.8111 10.8346 76.7411 9.92331 76.3246C9.38456 76.0784 9.35521 75.6098 9.46525 75.1289C9.6739 74.2168 9.91516 73.3121 10.1475 72.4049C10.3928 71.4456 10.6438 70.4879 10.89 69.5285C10.9723 69.2066 11.062 68.8895 10.6218 68.7224C10.5436 68.6923 10.4629 68.4738 10.4971 68.3866C10.5534 68.2432 10.6878 68.0516 10.8158 68.0296C11.3815 67.931 11.9561 67.8715 12.5291 67.8242C13.0434 67.7819 12.9024 68.1332 12.8331 68.4038C12.3106 70.4259 11.78 72.4448 11.2568 74.467C11.1867 74.7327 11.1492 75.0066 11.084 75.3449Z" fill="#8E6854"/>
<path d="M87.802 74.7678C87.278 75.9162 85.7627 76.6653 84.5638 76.3678C83.8539 76.1917 83.4577 75.719 83.3713 74.9439C83.1814 73.2469 85.0691 71.0853 86.7832 71.0381C87.2706 71.0242 87.7491 71.0674 87.9846 71.5728C88.2194 72.0773 88.0946 72.5688 87.7727 72.9959C87.2608 73.6748 86.5216 73.9959 85.7383 74.2527C85.5109 74.3277 85.1653 74.4866 85.1433 74.6439C85.1074 74.9039 85.2126 75.3058 85.4041 75.4394C85.5924 75.5707 85.9861 75.5063 86.2444 75.4085C86.4996 75.3123 86.6805 75.0352 86.9258 74.8941C87.1744 74.7515 87.463 74.6773 87.7344 74.5738C87.7572 74.6382 87.7792 74.7034 87.802 74.7678ZM85.2647 73.3838C85.3185 73.4173 85.3731 73.4507 85.4269 73.4841C85.9673 73.3716 86.6072 72.7733 86.6593 72.2859C86.6764 72.1303 86.5778 71.9624 86.533 71.8002C86.3724 71.854 86.1369 71.8588 86.0651 71.9697C85.7709 72.4237 85.5272 72.9103 85.2647 73.3838Z" fill="#8E6854"/>
<path d="M91.6924 70.9574C92.1032 71.0699 92.5384 71.1286 92.9182 71.3071C93.3861 71.5271 93.5678 72.0797 93.3144 72.4408C93.1872 72.6218 92.919 72.8043 92.7169 72.8019C92.5221 72.7994 92.3045 72.5843 92.1464 72.4156C92.0453 72.3088 92.0771 72.0675 91.9719 71.9754C91.813 71.836 91.588 71.7048 91.3892 71.7007C91.2376 71.6975 90.9849 71.8752 90.9523 72.0137C90.9132 72.1767 91.0118 72.4359 91.1406 72.5631C91.4201 72.8402 91.7706 73.0432 92.0673 73.3056C92.5995 73.7767 92.893 74.353 92.7055 75.0841C92.5115 75.8388 91.9565 76.2781 91.2392 76.3376C90.5602 76.3939 89.8397 76.3189 89.1803 76.142C88.6106 75.9896 88.3571 75.3278 88.5796 74.82C88.6734 74.6073 88.9375 74.3407 89.1323 74.3342C89.358 74.3261 89.6229 74.5453 89.8136 74.7263C89.9278 74.8347 89.9318 75.058 89.9848 75.23C90.1291 75.6946 90.4315 75.8576 90.8961 75.7198C91.3859 75.5756 91.4935 75.1754 91.1161 74.8347C90.8219 74.5698 90.5016 74.3334 90.1894 74.0881C89.5536 73.5901 89.3026 72.9364 89.5422 72.1718C89.7843 71.4008 90.4559 71.1555 91.1846 71.0495C91.3435 71.0267 91.5082 71.0462 91.6704 71.0462C91.6785 71.0185 91.685 70.9884 91.6924 70.9574Z" fill="#8E6854"/>
<path d="M95.9674 75.3523C96.6105 75.3082 96.4157 74.1313 97.2732 74.4924C97.2161 75.2536 96.5152 76.1502 95.8264 76.3589C94.8769 76.6466 94.1262 75.9913 94.3023 74.9733C94.4368 74.1949 94.665 73.4328 94.85 72.6634C94.8956 72.4743 94.9348 72.2827 94.9877 72.0439C94.7351 72.0015 94.515 71.9648 94.2803 71.9257C94.2362 71.4905 94.3226 71.1824 94.8223 71.1897C95.1573 71.1946 95.3154 71.0218 95.3586 70.7096C95.3635 70.6746 95.3757 70.6395 95.3855 70.6053C95.7506 69.2556 95.7669 69.245 97.2764 69.4748C97.2235 69.7446 97.1754 70.0152 97.1167 70.2842C97.0604 70.5426 96.9952 70.7993 96.9268 71.087C97.2145 71.1612 97.4509 71.2215 97.6938 71.2843C97.7492 71.7741 97.5935 72.0137 97.0767 71.9966C96.9243 71.9917 96.6619 72.1352 96.6268 72.2599C96.3611 73.2119 96.1378 74.1761 95.9088 75.1387C95.8941 75.1941 95.9422 75.2659 95.9674 75.3523Z" fill="#8E6854"/>
<path d="M124.302 74.5803C123.907 76.1322 121.905 76.8919 120.698 76.1559C120.123 75.8054 119.926 75.2381 119.978 74.6227C120.093 73.2257 120.727 72.0887 121.97 71.4122C122.433 71.1603 123.036 71.0593 123.57 71.0715C124.434 71.0902 124.959 72.0544 124.547 72.8125C124.43 73.026 124.058 73.2534 123.845 73.2184C123.635 73.1841 123.474 72.8279 123.301 72.6062C123.275 72.572 123.307 72.4978 123.293 72.4473C123.234 72.2256 123.167 72.0047 123.103 71.7838C122.871 71.9289 122.548 72.0202 122.424 72.2289C121.925 73.0619 121.663 73.9788 121.732 74.961C121.767 75.4614 122.139 75.7133 122.605 75.516C122.943 75.3734 123.215 75.0849 123.538 74.899C123.774 74.7605 124.046 74.6839 124.302 74.5803Z" fill="#8E6854"/>
<path d="M52.1201 72.1139C51.6001 72.2174 51.6498 73.0781 50.935 72.7016C51.195 71.9721 51.5699 71.3608 52.3377 71.1032C53.2604 70.7943 53.923 71.3616 53.7103 72.3087C53.5253 73.1336 53.2482 73.9372 53.0142 74.7507C52.9613 74.9341 52.9156 75.1199 52.8529 75.3554C53.3794 75.3033 53.368 74.4173 54.0045 74.7287C53.9605 75.7312 52.9246 76.5805 51.9677 76.3947C51.4933 76.3025 51.2113 75.9847 51.2618 75.516C51.3213 74.9658 51.4689 74.423 51.6066 73.8851C51.7541 73.3145 51.9343 72.7521 52.1201 72.1139Z" fill="#8E6854"/>
<path d="M117.378 72.1091C116.894 72.3047 116.92 73.0196 116.321 72.7742C116.412 71.5965 117.554 70.8865 118.316 71.0495C118.767 71.1465 119.048 71.4196 119.016 71.8711C118.982 72.3496 118.877 72.8288 118.753 73.2934C118.568 73.9797 118.339 74.6538 118.088 75.468C118.51 75.133 118.798 74.8942 119.101 74.6766C119.141 74.6472 119.256 74.7214 119.334 74.7459C119.157 75.7044 118.376 76.42 117.541 76.4119C116.834 76.4053 116.434 76.0141 116.564 75.3107C116.714 74.4997 116.979 73.7107 117.191 72.9112C117.254 72.6764 117.303 72.4376 117.378 72.1091Z" fill="#8E6854"/>
<path d="M118.081 68.8497C118.075 68.2824 118.429 67.8504 118.906 67.8439C119.361 67.8382 119.776 68.3125 119.77 68.8317C119.763 69.3542 119.403 69.7821 118.953 69.8008C118.465 69.8204 118.087 69.408 118.081 68.8497Z" fill="#8E6854"/>
<path d="M54.4545 68.8252C54.4528 69.3827 54.0812 69.8082 53.6019 69.8009C53.1446 69.7943 52.7795 69.3787 52.7697 68.8554C52.7599 68.315 53.1381 67.8545 53.6019 67.8423C54.0714 67.8308 54.4553 68.2742 54.4545 68.8252Z" fill="#8E6854"/>
<path d="M26.2091 28.0328C26.8587 26.3863 27.4317 24.8687 28.0536 23.3714C29.6349 19.5659 31.4288 15.8638 33.6817 12.4055C35.1341 10.1755 36.7545 8.07832 38.9201 6.46938C40.0579 5.62416 41.309 5.04139 42.737 4.93787C43.1967 4.90445 43.685 4.94358 44.1284 5.06584C47.7497 6.05859 49.2299 8.52253 48.1091 12.289C47.2509 15.1735 45.6256 17.6448 43.8716 20.041C41.2414 23.6347 38.2485 26.9169 34.9996 29.9465C32.8136 31.985 30.5021 33.8988 28.1449 35.7384C26.5947 36.9488 26.5645 36.8999 25.0257 35.7783C23.4689 34.643 21.9692 33.4155 20.5379 32.1252C18.6893 30.4592 16.8848 28.7378 15.1471 26.9569C12.234 23.9721 9.46604 20.8537 7.12028 17.3921C5.85286 15.5215 4.66938 13.5947 4.14774 11.3549C4.03037 10.8504 3.93908 10.3173 3.96598 9.80463C4.02466 8.69777 4.52185 7.82647 5.48363 7.20294C6.5424 6.51584 7.64763 5.97545 8.89957 5.76272C10.7677 5.44484 12.4321 5.98116 13.9897 6.9682C15.8521 8.14923 17.2817 9.76714 18.5483 11.5391C21.269 15.3455 23.1567 19.5748 24.7803 23.9338C25.2694 25.2477 25.7054 26.5828 26.2091 28.0328Z" fill="#8E6854"/>
<path d="M23.46 46.7622C23.2986 47.239 23.2057 47.706 22.9872 48.1038C22.7411 48.5529 22.292 48.5325 21.9684 48.129C21.4818 47.5226 21.4834 45.9691 21.9725 45.3521C22.2911 44.9503 22.75 44.9324 22.988 45.3839C23.2081 45.802 23.3026 46.2862 23.46 46.7622Z" fill="#8E6854"/>
<path d="M30.9952 46.7556C30.8631 47.1925 30.7914 47.6481 30.5909 48.0377C30.3089 48.5855 29.744 48.5757 29.4588 48.0296C29.0227 47.195 29.0227 46.3228 29.4539 45.4866C29.7506 44.9103 30.3178 44.9144 30.6105 45.5029C30.7971 45.8803 30.8656 46.3171 30.9952 46.7556Z" fill="#8E6854"/>
<path d="M130.825 34.2157H54.602V35.1416H130.825V34.2157Z" fill="#8E6854"/>
<path d="M130.662 59.2343H54.4382V60.1602H130.662V59.2343Z" fill="#8E6854"/>
</svg>
