<svg width="89" height="89" viewBox="0 0 89 89" fill="none" xmlns="http://www.w3.org/2000/svg">
<path d="M52.0947 70.0924C52.0947 70.0626 54.3514 70.0924 54.3514 70.0924L53.2223 63.039L52.0947 70.0924Z" fill="#8E6854"/>
<path d="M15.965 29.5531C15.9399 29.5198 15.9132 29.4833 15.8975 29.4659C15.8975 29.4659 15.9195 29.4976 15.965 29.5531Z" fill="#8E6854"/>
<path d="M32.7848 32.7127C30.4092 30.7718 25.5188 31.2473 25.5188 31.2473C22.5285 31.6039 20.0153 31.4647 20.0153 31.4647C17.5224 31.2582 16.2556 29.9039 15.9647 29.5504C16.2243 29.8914 16.9265 30.9689 16.9265 30.9689C17.9962 32.4343 19.9355 38.274 19.9355 38.274C21.1835 42.689 24.1534 45.3618 24.1534 45.3618C26.3117 47.7187 33.1617 49.2419 33.1617 49.2419C36.8448 50.3117 37.0418 51.3407 37.0418 51.3407C36.6649 48.926 35.9924 47.2417 35.9924 47.2417C34.2893 43.421 32.1311 41.183 32.1311 41.183C29.7164 37.955 24.6476 35.5403 24.6476 35.5403C29.7946 36.0939 33.1617 38.7683 33.1617 38.7683C37.3593 41.8961 38.0318 45.9545 38.0318 45.9545C38.0912 44.8066 37.755 42.1729 37.755 42.1729C36.9042 35.2275 32.7848 32.7127 32.7848 32.7127Z" fill="#8E6854"/>
<path d="M60.5728 22.6942C56.4737 22.4862 54.0684 22.6347 54.0684 22.6347C48.0488 23.0304 44.9616 26.1583 44.9616 26.1583C38.1115 32.414 39.4174 45.5605 39.4174 45.5605C42.2685 30.4341 58.108 28.7513 58.108 28.7513C55.0192 30.2573 52.861 32.1982 52.861 32.1982C49.6143 34.9695 47.4951 37.722 47.4951 37.722C45.376 40.315 43.1396 45.1663 43.1396 45.1663C41.9917 47.8594 41.1393 52.9469 41.1393 52.9469C42.5547 51.1249 43.4367 50.7887 43.4367 50.7887C45.1586 49.9567 48.6337 48.7994 48.6337 48.7994C52.6139 47.5216 54.3358 46.5723 54.3358 46.5723C57.5137 45.2649 59.8893 42.6515 59.8893 42.6515C62.9187 39.3548 64.3137 34.6927 64.3137 34.6927C65.324 31.1879 66.7785 26.5852 66.7785 26.5852C67.9076 22.605 70.2238 19.0721 70.2238 19.0721C67.4635 23.2885 60.5728 22.6942 60.5728 22.6942Z" fill="#8E6854"/>
<path d="M44.2625 0C19.8166 0 0 19.8166 0 44.2625C0 68.7084 19.8166 88.525 44.2625 88.525C68.7084 88.525 88.525 68.7084 88.525 44.2625C88.525 19.8166 68.7068 0 44.2625 0ZM27.2594 75.2206H24.6461L21.5964 59.2231H24.0111L25.9519 70.7853L27.8928 59.2231H30.3075L27.2594 75.2206ZM38.0693 61.4408H33.9515V66.034H37.5157V68.1031H33.9515V73.0029H38.0693V75.2206H31.457V59.2231H38.0693V61.4408ZM47.6781 64.1933H45.2181V61.3422H42.0699V73.1234H45.179V68.7662H43.3976V66.6878H47.6797V74.0289C47.6797 74.6873 47.1464 75.2206 46.488 75.2206H40.8375C40.1791 75.2206 39.6458 74.6873 39.6458 74.0289V60.4148C39.6458 59.7564 40.1791 59.2231 40.8375 59.2231H46.488C47.1464 59.2231 47.6797 59.7564 47.6797 60.4148V64.1933H47.6781ZM55.1913 75.2206L54.6783 72.1991C54.6783 72.1991 51.7491 72.1803 51.7678 72.1991L51.2549 75.2206H48.7745L52.0071 59.2231H54.4375L57.6701 75.2206H55.1913ZM66.9271 75.2206H64.908L61.1467 65.5211V75.2206H58.9041V59.2231H60.9231L64.6844 68.9226V59.2231H66.9271V75.2206ZM77.6291 54.4265H5.90855C5.02492 51.1344 4.55418 47.675 4.55418 44.1045C4.55418 22.1735 22.333 4.39466 44.2641 4.39466C66.1951 4.39466 83.9739 22.1735 83.9739 44.1045C83.9739 47.6891 83.4985 51.1641 82.6086 54.4687L77.6291 54.4265Z" fill="#8E6854"/>
</svg>
