<svg width="71" height="85" viewBox="0 0 71 85" fill="none" xmlns="http://www.w3.org/2000/svg">
<path d="M41.9468 0.161987C24.9545 0.161987 18.9583 26.4856 13.3724 47.6609C11.3518 45.6247 5.13392 39.441 5.12758 39.4512C3.87716 38.216 2.44086 38.6177 1.56091 39.4736C0.675473 40.3628 0.546205 41.9934 1.56091 42.9828C1.61203 43.0267 9.98609 51.3526 12.8802 54.2387C13.6786 55.0135 14.834 55.4697 15.9886 54.7972C17.1849 54.063 17.3488 52.7657 17.3813 52.7657C27.3024 8.44227 36.1686 5.13708 41.9235 5.13708C46.7647 5.13708 52.3439 8.70207 52.3439 15.8337C59.5634 15.8337 64.0882 25.2926 58.2779 31.1151C63.095 33.439 65.2436 36.2968 65.2436 39.9129C65.2436 43.5328 62.2037 47.2283 57.7663 47.2186C53.3662 47.2186 51.1302 44.3992 47.7021 44.387C46.1475 44.387 45.2046 45.6395 45.2046 46.8747V55.8233H38.732V46.9081C38.7138 45.5111 37.6826 44.4123 36.398 44.4123C36.3773 44.4123 35.8442 44.428 35.8522 44.4461L27.1833 45.5111C26.1377 45.6687 25.172 46.8008 25.172 47.9697C25.172 49.3401 26.2982 50.4782 27.8342 50.4592C28.0298 50.4592 28.2926 50.4592 28.2668 50.4368C28.2512 50.4368 33.7543 49.7397 33.7543 49.7397V58.5722C33.7543 59.6895 35.0255 60.7857 36.1677 60.7857H47.6839C49.0231 60.7857 50.1869 59.6329 50.1869 58.2798V50.2137C52.5965 51.6792 55.9486 52.2465 57.6679 52.2465C64.1283 52.2465 70.29 47.1844 70.2719 39.7579C70.2465 33.0263 65.0788 29.664 65.0788 29.664C68.1119 21.6115 63.2061 13.8373 56.853 11.6752C54.5625 3.36916 47.4465 0.161987 41.9468 0.161987Z" fill="#8E6854"/>
<path d="M41.9468 0.161987C24.9545 0.161987 18.9583 26.4856 13.3724 47.6609C11.3518 45.6247 5.13392 39.441 5.12758 39.4512C3.87716 38.216 2.44086 38.6177 1.56091 39.4736C0.675472 40.3628 0.546205 41.9934 1.56091 42.9828C1.61203 43.0267 9.98609 51.3526 12.8802 54.2387C13.6786 55.0135 14.834 55.4697 15.9886 54.7972C17.1849 54.063 17.3488 52.7657 17.3813 52.7657C27.3024 8.44227 36.1686 5.13708 41.9235 5.13708C46.7647 5.13708 52.3439 8.70207 52.3439 15.8337C59.5634 15.8337 64.0882 25.2926 58.2779 31.1151C63.095 33.439 65.2436 36.2968 65.2436 39.9129C65.2436 43.5328 62.2037 47.2283 57.7663 47.2186C53.3662 47.2186 51.1302 44.3992 47.7021 44.387C46.1475 44.387 45.2046 45.6395 45.2046 46.8747V55.8233H38.732V46.9081C38.7138 45.5111 37.6826 44.4123 36.398 44.4123C36.3773 44.4123 35.8442 44.428 35.8522 44.4461L27.1833 45.5111C26.1377 45.6687 25.172 46.8008 25.172 47.9697C25.172 49.3401 26.2982 50.4782 27.8342 50.4592C28.0298 50.4592 28.2926 50.4592 28.2668 50.4368C28.2512 50.4368 33.7543 49.7397 33.7543 49.7397V58.5722C33.7543 59.6895 35.0255 60.7857 36.1678 60.7857H47.6839C49.0231 60.7857 50.1869 59.6329 50.1869 58.2798V50.2137C52.5965 51.6792 55.9486 52.2465 57.6679 52.2465C64.1283 52.2465 70.2901 47.1844 70.2719 39.7579C70.2465 33.0263 65.0788 29.664 65.0788 29.664C68.1119 21.6115 63.2061 13.8373 56.853 11.6752C54.5625 3.36916 47.4465 0.161987 41.9468 0.161987ZM34.6939 70.6354C34.6939 72.7163 37.0228 73.9718 40.8602 75.7913C43.9039 77.2103 45.6545 78.7146 45.6545 79.924C45.6545 81.8787 43.5474 82.5711 41.5716 82.5711C38.5153 82.5711 36.711 81.3565 35.7102 78.6305L35.6228 78.4003H35.3761C34.8392 78.4003 34.4112 78.4256 34.173 78.7146C33.9605 78.9942 34.0205 79.3605 34.1075 79.717C34.1007 79.7086 34.7826 82.5123 34.7826 82.5123C34.9646 83.1937 35.2109 83.3044 36.3029 83.519C36.7816 83.6014 39.2528 84.0289 41.3465 84.0289C47.1859 84.0289 49.7923 81.6641 49.7923 79.317C49.7923 77.6082 48.0954 75.9755 44.4345 74.1518L42.7714 73.3521C40.2667 72.1625 38.7493 71.4554 38.7493 70.2003C38.7493 68.9849 40.3204 68.1392 42.5614 68.1392C45.4885 68.1392 46.2688 69.7694 46.6274 71.1888L46.6903 71.4554H46.9675C47.6185 71.4554 48.0299 71.4017 48.2703 71.1402C48.4105 70.9915 48.4676 70.7862 48.4338 70.5463L48.2056 68.1248C48.1414 67.345 47.5475 67.2335 46.7225 67.0662C45.7407 66.8921 44.5672 66.6792 42.7942 66.6792C37.7215 66.6788 34.6939 68.1607 34.6939 70.6354ZM51.5125 75.537C51.5125 79.7525 55.1797 84.0289 62.2037 84.0289C65.7425 84.0289 67.7309 83.2195 69.2158 82.4333L69.6154 82.223L68.9682 81.5002L69.0037 81.5365C68.847 81.3211 68.7249 81.278 68.4866 81.278L68.1453 81.3954C67.613 81.6413 65.9892 82.3919 63.0422 82.3919C59.4101 82.3919 55.5025 80.0313 55.5025 74.8324C55.5025 69.8868 59.7442 68.1392 63.359 68.1392C65.9647 68.1392 67.3499 69.0648 67.608 70.9831L67.6371 71.2961H67.9611C68.2708 71.2961 69.0945 71.2961 69.0945 70.6806V67.7991C69.0945 67.0882 68.278 66.9914 67.9379 66.9403L67.5978 66.8917C66.7648 66.7836 65.9659 66.6788 63.852 66.6788C56.7001 66.6788 51.5125 70.4052 51.5125 75.537ZM25.058 66.8871L18.734 66.9382L14.5202 66.8689L13.8793 66.8541C13.5038 66.8541 13.2338 67.1236 13.2338 67.5131C13.2338 67.6927 13.2338 68.2596 13.9317 68.2596C16.4786 68.2596 16.5724 68.4636 16.5956 69.4378L16.6201 70.0507L16.6598 72.6479V78.2368C16.6598 79.1611 16.6264 80.6354 16.566 81.8229C16.5491 82.1664 16.5318 82.4895 14.2832 82.4895C13.6453 82.4895 13.2685 82.618 13.2685 83.2334C13.2685 83.4176 13.2685 83.892 13.8797 83.892H14.0208C14.2895 83.8789 15.0022 83.846 18.5215 83.846C22.2703 83.846 23.0222 83.8848 23.2774 83.892H23.4092C23.9013 83.892 24.3292 83.846 24.3292 83.2334C24.3292 82.547 23.7606 82.4895 22.8097 82.4895C20.5509 82.4895 20.5328 82.1664 20.5163 81.8297C20.4626 80.7389 20.4166 79.2654 20.4166 78.2355V76.2184H22.3117C25.2109 76.2184 25.5324 76.3008 25.9476 78.527C26.0667 79.012 26.4545 79.0732 26.7777 79.0732C27.4595 79.0732 27.5339 78.7019 27.5339 78.5367L27.4764 77.7003C27.4113 77.0755 27.3795 76.4477 27.3814 75.8196V72.3944C27.3814 71.8812 26.7612 71.8812 26.4305 71.8812C25.8838 71.8812 25.7567 72.2271 25.4094 73.8468C25.2493 74.461 24.0525 74.818 22.1258 74.818H20.4166V69.788C20.4166 68.4176 20.6591 68.4066 20.9611 68.4028C22.0705 68.3517 24.7572 68.2592 25.5649 68.2592C26.3333 68.2592 27.0405 68.4349 27.4916 68.7327C28.9292 69.619 29.6634 70.2231 30.1091 70.5877C30.5451 70.9357 30.7892 71.1415 31.1432 71.1415C31.3536 71.1415 31.9632 71.1415 31.9632 70.6143C31.9632 70.4854 31.9053 70.3676 31.7093 69.932C31.4774 69.4145 31.0828 68.5671 30.5831 67.263C30.4382 66.8482 29.9642 66.8482 29.0775 66.8482L25.058 66.8871ZM65.1565 5.25621H66.0496C66.4581 5.25621 66.7415 5.18947 66.9059 5.07414C67.0634 4.95628 67.1441 4.78857 67.1441 4.56848C67.1441 4.36064 67.0634 4.19293 66.9147 4.0738C66.7639 3.95847 66.4577 3.89299 65.9947 3.89299H65.1557L65.1565 5.25621ZM68.2425 7.80058H67.3439C66.7821 6.77953 66.4074 6.2067 66.2414 6.07237C66.0665 5.94395 65.8544 5.88142 65.5921 5.88142H65.1574V7.80058H64.4232V3.28299H65.9968C66.4653 3.28299 66.8193 3.31678 67.0765 3.38944C67.3292 3.44816 67.5353 3.58926 67.6929 3.80724C67.8513 4.01719 67.9333 4.25798 67.9333 4.50511C67.9333 4.81391 67.8209 5.09061 67.5923 5.3445C67.3706 5.59839 67.0529 5.73948 66.6334 5.77243V5.78511C66.9 5.85185 67.2573 6.22994 67.6853 6.9219L68.2425 7.80058ZM66.2663 8.98595C67.2341 8.98595 68.0579 8.64799 68.746 7.95857C69.4346 7.26788 69.7861 6.44412 69.792 5.47039C69.792 4.50553 69.446 3.67924 68.757 2.99742C68.065 2.31559 67.2345 1.96666 66.2663 1.96666C65.2976 1.96666 64.4637 2.30968 63.7836 2.9915C63.0959 3.67924 62.755 4.50553 62.7499 5.47039C62.7499 6.43778 63.0959 7.26788 63.7777 7.95223C64.465 8.63955 65.2917 8.98595 66.2663 8.98595ZM66.2836 1.27174C67.4314 1.27174 68.4182 1.68024 69.2449 2.4964C70.0788 3.3227 70.4907 4.31459 70.4907 5.46997C70.4907 6.6283 70.0776 7.61977 69.2551 8.44227C68.4305 9.26222 67.4398 9.67706 66.2836 9.67706C65.1172 9.67706 64.1173 9.27236 63.297 8.45283C62.4631 7.62653 62.0516 6.63422 62.0516 5.46997C62.0516 4.31459 62.4643 3.32903 63.297 2.50274C64.1173 1.68024 65.1172 1.27174 66.2836 1.27174Z" fill="#8E6854"/>
<path d="M66.2845 9.89804C65.0543 9.89804 63.9965 9.46334 63.1377 8.60452C62.2683 7.74485 61.8315 6.6917 61.8315 5.47085C61.8315 4.25886 62.2683 3.20825 63.1377 2.34985C64.0024 1.48638 65.0615 1.04535 66.2845 1.04535C67.4834 1.04535 68.5369 1.48384 69.4067 2.34182C70.2778 3.20149 70.7134 4.25168 70.7134 5.47043C70.7134 6.68495 70.2803 7.73556 69.4131 8.59438C68.5504 9.45996 67.4943 9.89804 66.2845 9.89804ZM66.2845 1.49187C65.1857 1.49187 64.2331 1.88432 63.4528 2.66372C62.6608 3.45031 62.2721 4.36659 62.2721 5.47C62.2721 6.58187 62.6608 7.50406 63.4528 8.28769C64.223 9.05864 65.1806 9.45321 66.2845 9.45321C67.387 9.45321 68.3109 9.07132 69.0984 8.28093C69.8744 7.50448 70.2689 6.56286 70.2689 5.47C70.2689 4.37757 69.8714 3.42834 69.0924 2.65527C68.3109 1.88178 67.3638 1.49187 66.2845 1.49187Z" fill="#8E6854"/>
<path d="M66.2689 9.21024C65.2466 9.21024 64.3569 8.84102 63.6214 8.11062C62.8936 7.38233 62.5239 6.49352 62.5239 5.46994C62.5328 4.43834 62.9033 3.55332 63.6278 2.83179C64.3489 2.11195 65.2368 1.74274 66.268 1.74274C67.2895 1.74274 68.1796 2.11195 68.9134 2.83771C69.6467 3.55924 70.0163 4.44848 70.0163 5.46952C70.0104 6.49605 69.637 7.38487 68.9032 8.11654C68.18 8.84483 67.2903 9.21024 66.2689 9.21024ZM66.2689 2.18757C65.3619 2.18757 64.5808 2.51327 63.9463 3.14862C63.2945 3.79411 62.9819 4.55113 62.9742 5.47247C62.9742 6.37185 63.2978 7.15506 63.9383 7.79421C64.5926 8.44604 65.3551 8.76541 66.2689 8.76541C67.183 8.76541 67.9396 8.44858 68.5915 7.79802C69.2424 7.1483 69.5626 6.38495 69.5728 5.46614C69.5728 4.55747 69.2509 3.80045 68.6016 3.152C67.954 2.51327 67.1682 2.18757 66.2689 2.18757Z" fill="#8E6854"/>
<path d="M68.6468 8.02073H67.2138L67.1501 7.90541C66.3787 6.50628 66.1451 6.27605 66.1041 6.24394C65.9769 6.15439 65.8054 6.102 65.5934 6.102H65.3779V8.02073H64.1989V3.06042H65.9951C66.5075 3.06042 66.8687 3.09591 67.1344 3.16772C67.4331 3.24503 67.684 3.41274 67.8737 3.67254C68.0592 3.92516 68.1525 4.20524 68.1525 4.50137C68.1525 4.87059 68.0182 5.20389 67.7542 5.49327C67.6038 5.66731 67.4111 5.79573 67.1805 5.88402C67.3925 6.08891 67.6202 6.39138 67.8779 6.80283L68.6468 8.02073ZM67.4753 7.57633H67.8357L67.4973 7.03982C66.9473 6.15185 66.6566 6.02216 66.584 6.00696L66.4644 5.98076C66.6812 6.21353 67.0153 6.74749 67.4753 7.57633ZM64.6437 7.57633H64.9339V5.65717H65.5942C65.8988 5.65717 66.1653 5.73659 66.3749 5.89205C66.3878 5.90054 66.4 5.91015 66.4112 5.92078V5.58156L66.6165 5.54565C66.9773 5.51904 67.2405 5.40371 67.4217 5.19587C67.6181 4.98211 67.7106 4.75906 67.7106 4.50137C67.7106 4.30452 67.6431 4.10935 67.5142 3.9353C67.3854 3.76126 67.2231 3.65227 67.0208 3.60368C66.7931 3.5344 66.4623 3.50526 65.9959 3.50526H64.6446V7.57633H64.6437Z" fill="#8E6854"/>
<path d="M66.0521 5.47633H64.9348V3.66913H65.9968C66.5092 3.66913 66.8522 3.74475 67.052 3.89936C67.2607 4.06073 67.3689 4.29434 67.3689 4.56851C67.3689 4.85788 67.2573 5.08853 67.0427 5.25286C66.8307 5.40705 66.5062 5.47633 66.0521 5.47633ZM65.3809 5.03235H66.0534C66.494 5.03235 66.693 4.95293 66.7812 4.88998C66.878 4.81437 66.9266 4.71594 66.9266 4.56851C66.9285 4.50751 66.9163 4.44689 66.8912 4.39131C66.866 4.33572 66.8284 4.28666 66.7812 4.24787C66.739 4.21872 66.5616 4.11396 65.998 4.11396H65.3809V5.03235Z" fill="#8E6854"/>
</svg>
