<svg width="88" height="89" viewBox="0 0 88 89" fill="none" xmlns="http://www.w3.org/2000/svg">
<path d="M9.28907 70.4539C8.3631 69.3112 8.5192 68.2202 8.5192 68.2202L9.28473 68.1487C9.28473 68.1487 9.21102 69.118 9.87465 69.9399C10.7356 71.0025 12.104 71.0437 13.1167 70.2304C14.1381 69.4107 14.4288 68.0119 13.5744 66.9558C12.8501 66.0602 11.768 65.9865 11.768 65.9865L11.9588 65.2448C11.9588 65.2448 13.2427 65.2925 14.2055 66.481C15.3591 67.908 15.0751 69.7881 13.6785 70.9116C12.2948 72.0219 10.4037 71.8332 9.28907 70.4539Z" fill="#8E6854"/>
<path d="M6.06353 65.6575L4.36316 62.5457L5.01812 62.19L6.30636 64.5494L7.99135 63.6365L6.9418 61.7173L7.59656 61.3616L8.64415 63.2807L10.3747 62.3439L9.01272 59.8543L9.66768 59.4988L11.4394 62.7387L6.06353 65.6575Z" fill="#8E6854"/>
<path d="M5.02585 56.3436C4.81121 55.7147 4.27549 55.4567 3.62704 55.6756C3.19993 55.8187 2.9504 56.0854 2.88752 56.4368C2.85717 56.6189 2.87235 56.8251 3.02628 57.2739L3.34282 58.2064L5.42044 57.5059L5.02585 56.3436ZM2.91137 59.2559L2.31062 57.4885C2.10465 56.8835 2.06779 56.6124 2.07429 56.3629C2.09598 55.6993 2.5493 55.1182 3.31267 54.86C4.05218 54.6107 4.81554 54.808 5.23398 55.3697L5.25133 55.3632C5.25133 55.3632 5.3012 55.2743 5.45513 55.1031L7.28756 53.1167L7.59996 54.0318L5.70663 56.0312L6.12743 57.2674L8.43487 56.4889L8.71022 57.2978L2.91137 59.2559Z" fill="#8E6854"/>
<path d="M1.38118 50.8988L1.72374 52.9634L0.98856 53.0827L0.16449 48.1122L0.899668 47.993L1.24223 50.0552L6.54675 49.1813L6.6855 50.027L1.38118 50.8988Z" fill="#8E6854"/>
<path d="M0 44.3757L0.026017 45.2301L6.14357 45.0501L6.11992 44.1935L0 44.3757Z" fill="#8E6854"/>
<path d="M0.0877075 40.2767L0.443274 36.9349L1.18496 37.0129L0.920253 39.5046L2.91982 39.7171L3.1453 37.5942L3.88698 37.6722L3.6615 39.7952L6.26597 40.0707L6.17491 40.9208L0.0877075 40.2767Z" fill="#8E6854"/>
<path d="M1.06274 33.8836L1.26004 33.0509L7.21715 34.4562L7.01986 35.2868L1.06274 33.8836Z" fill="#8E6854"/>
<path d="M2.26459 29.5277L3.53331 26.2184L4.23163 26.483L3.26644 28.9942L5.05787 29.6752L5.84075 27.6346L6.5367 27.9013L5.75383 29.9418L7.59296 30.6445L8.60782 27.9945L9.30397 28.2612L7.98104 31.7073L2.26459 29.5277Z" fill="#8E6854"/>
<path d="M10.7255 24.0455C11.4434 22.8745 11.2177 21.6838 9.92963 20.8988C8.65007 20.1202 7.48778 20.476 6.77428 21.6405L6.1952 22.5838L10.1464 24.9888L10.7255 24.0455ZM5.11096 22.9265L6.16919 21.2003C7.14502 19.6086 8.74113 19.1422 10.3916 20.1465C12.0484 21.1548 12.3693 22.7899 11.3935 24.3817L10.3353 26.1057L5.11096 22.9265Z" fill="#8E6854"/>
<path d="M15.4892 16.7694C15.4892 16.7694 16.4151 16.7911 17.0701 16.16C17.4801 15.7652 17.608 15.1972 17.2045 14.7807C16.2807 13.8309 14.3486 16.0906 13.0408 14.7417C12.3772 14.0607 12.4444 12.9483 13.273 12.148C14.0927 11.363 14.9471 11.389 14.9471 11.389L15.1618 12.1676C15.1618 12.1676 14.3898 12.1806 13.828 12.7206C13.3617 13.1716 13.314 13.7832 13.6502 14.1303C14.5328 15.0367 16.4283 12.7401 17.8096 14.1628C18.4667 14.8394 18.4841 15.9042 17.6123 16.7434C16.6777 17.6455 15.5932 17.5718 15.5932 17.5718L15.4892 16.7694Z" fill="#8E6854"/>
<path d="M17.2716 8.80006L17.9829 8.32309L20.1885 11.5933C20.7112 12.3676 21.5179 12.4825 22.2964 11.9619C23.0793 11.437 23.2875 10.6433 22.7563 9.85612L20.5614 6.59887L21.2727 6.12189L23.4782 9.39215C24.2351 10.5176 23.9314 11.8145 22.7431 12.6104C21.5546 13.4041 20.2362 13.196 19.475 12.0703L17.2716 8.80006Z" fill="#8E6854"/>
<path d="M26.5709 8.70818C26.5709 8.70818 27.4318 9.04877 28.2645 8.68433C28.7872 8.45668 29.1038 7.96867 28.8718 7.43729C28.3382 6.2273 25.7359 7.67578 24.9813 5.96043C24.5975 5.08866 25.0485 4.07163 26.1045 3.60963C27.1454 3.15433 27.9413 3.47738 27.9413 3.47738L27.8697 4.28193C27.8697 4.28193 27.1389 4.02393 26.4254 4.33613C25.829 4.59631 25.5731 5.1537 25.7683 5.59619C26.278 6.75197 28.8564 5.2558 29.6545 7.06871C30.0339 7.92964 29.6805 8.93366 28.5702 9.41951C27.3774 9.94005 26.3864 9.49539 26.3864 9.49539L26.5709 8.70818Z" fill="#8E6854"/>
<path d="M32.5107 2.2779L30.4766 2.7941L30.2945 2.0741L35.1912 0.829224L35.3755 1.55139L33.3412 2.0676L34.6685 7.25937L33.8379 7.46751L32.5107 2.2779Z" fill="#8E6854"/>
<path d="M39.4574 1.13891C39.4574 1.13891 39.3707 1.70281 39.297 2.02151L38.7981 4.01221L40.6459 3.83877L39.7893 1.97599C39.6549 1.67679 39.475 1.13674 39.475 1.13674L39.4574 1.13891ZM40.9364 4.52408L38.6399 4.73872L38.2017 6.54296L37.3191 6.62535L38.939 0.344993L39.8368 0.260437L42.6039 6.12866L41.7148 6.21322L40.9364 4.52408Z" fill="#8E6854"/>
<path d="M44.7031 6.22656L45.5597 6.26125L45.8221 0.167548L44.9633 0.130493L44.7031 6.22656Z" fill="#8E6854"/>
<path d="M49.5736 0.456177L50.4064 0.620951L52.3084 5.03636C52.4645 5.40276 52.6401 6.00135 52.6401 6.00135L52.6574 6.00352C52.6574 6.00352 52.7029 5.45697 52.768 5.12742L53.5379 1.23472L54.3814 1.39949L53.1953 7.38716L52.3712 7.22455L50.4586 2.81584C50.3025 2.44057 50.129 1.84434 50.129 1.84434L50.1139 1.84001C50.1139 1.84001 50.0662 2.38439 49.9989 2.72478L49.2312 6.60881L48.3898 6.44187L49.5736 0.456177Z" fill="#8E6854"/>
<path d="M59.5737 4.06105C59.5737 4.06105 59.2376 4.52088 59.025 4.77021L57.6565 6.30561L59.3762 7.00393L59.4803 4.9545C59.5019 4.62929 59.5908 4.06756 59.5908 4.06756L59.5737 4.06105ZM59.3178 7.74325L57.1817 6.87799L55.9563 8.27463L55.1366 7.94291L59.4824 3.11774L60.3173 3.45596L60.0528 9.93361L59.2266 9.59972L59.3178 7.74325Z" fill="#8E6854"/>
<path d="M65.5415 9.07131C66.01 9.364 66.513 9.22091 66.7992 8.76778C67.0832 8.31445 67.0009 7.83314 66.5022 7.51876L65.4308 6.84646L64.4549 8.38836L65.5415 9.07131ZM64.1276 11.4828C64.6849 11.8321 65.2356 11.6888 65.5697 11.1619C65.9014 10.6371 65.7779 10.0582 65.2337 9.71543L64.0755 8.98892L62.9609 10.7498L64.1276 11.4828ZM65.1034 5.76202L66.9141 6.90066C67.7881 7.44939 68.1113 8.32766 67.5843 9.1604C67.2656 9.66576 66.7624 9.91075 66.2353 9.86522L66.2267 9.8804C66.6691 10.3836 66.6518 11.0884 66.2874 11.6651C65.6714 12.6366 64.6024 12.6583 63.6937 12.0881L61.8375 10.9215L65.1034 5.76202Z" fill="#8E6854"/>
<path d="M71.3786 10.1225L72.0203 10.6929L68.4422 14.6918L70.4895 16.5093L69.9928 17.0643L67.3057 14.6788L71.3786 10.1225Z" fill="#8E6854"/>
<path d="M76.1271 14.7036L78.3825 17.4403L77.8056 17.911L76.0946 15.8356L74.6134 17.0479L76.0057 18.7372L75.431 19.2077L74.0389 17.5184L72.5165 18.7633L74.3229 20.9534L73.746 21.4263L71.3973 18.5744L76.1271 14.7036Z" fill="#8E6854"/>
<path d="M80.3842 26.9502C80.6921 27.6159 81.2972 27.8349 81.9673 27.5271C82.6374 27.2214 82.8412 26.6314 82.5377 25.9721L82.0172 24.8424L79.8658 25.8269L80.3842 26.9502ZM82.3361 23.7536L83.2707 25.7792C83.739 26.7919 83.3878 27.8373 82.3339 28.3208C81.2779 28.8045 80.2324 28.3988 79.7641 27.3861L79.1894 26.1371L77.1335 27.0783L76.7736 26.3019L82.3361 23.7536Z" fill="#8E6854"/>
<path d="M84.6893 32.2078C84.6893 32.2078 84.1189 32.2229 83.7894 32.2034L81.7358 32.056L82.228 33.8407L83.9216 32.6784C84.1948 32.4963 84.6958 32.2251 84.6958 32.2251L84.6893 32.2078ZM81.6012 34.2442L80.9896 32.0278L79.1333 31.9086L78.8992 31.0585L85.3855 31.5617L85.624 32.4269L80.3021 36.157L80.0658 35.3004L81.6012 34.2442Z" fill="#8E6854"/>
<path d="M86.7039 37.8031L86.7863 38.6532L81.4363 39.1737L81.7008 41.8888L80.9591 41.9627L80.61 38.393L86.7039 37.8031Z" fill="#8E6854"/>
<path d="M87.1176 44.4411L87.0439 45.3367L83.6305 46.4643C83.2813 46.5749 82.7848 46.6984 82.7848 46.6984L82.7826 46.7158C82.7826 46.7158 83.2533 46.9196 83.5785 47.0844L86.7664 48.7455L86.6948 49.6433L80.5532 49.639L80.6204 48.7954L84.4915 48.8062C84.8646 48.8106 85.3914 48.8691 85.3914 48.8691V48.8518C85.3914 48.8518 84.845 48.6263 84.5218 48.4526L81.8718 47.0148L81.9325 46.2579L84.78 45.2734C85.1182 45.1629 85.7212 45.0219 85.7212 45.0219L85.7233 45.0046C85.7233 45.0046 85.1768 44.9677 84.8082 44.9135L80.987 44.3084L81.0564 43.4562L87.1176 44.4411Z" fill="#8E6854"/>
<path d="M78.939 57.4843C78.4792 58.6422 79.0756 59.9543 80.3574 60.4618C81.6001 60.9542 82.9055 60.3924 83.3653 59.2345C83.8251 58.0785 83.2634 56.7688 82.0229 56.2764C80.7413 55.7711 79.401 56.3285 78.939 57.4843ZM84.0896 59.5207C83.439 61.1601 81.6673 61.9278 80.0322 61.2816C78.3558 60.6179 77.5534 58.8332 78.2062 57.1937C78.859 55.5564 80.6719 54.7952 82.3504 55.4589C83.9856 56.1052 84.7424 57.8834 84.0896 59.5207Z" fill="#8E6854"/>
<path d="M81.1441 65.3201L80.706 66.0553L75.4472 62.9305L75.8873 62.1953L81.1441 65.3201Z" fill="#8E6854"/>
<path d="M78.4085 69.4744L77.8706 70.1402L73.6787 66.7897L71.9633 68.9192L71.3821 68.4552L73.6331 65.6576L78.4085 69.4744Z" fill="#8E6854"/>
<path d="M30.4036 81.0983C31.0434 81.3173 31.5637 81.1026 31.7894 80.4542C32.0019 79.8383 31.9 79.3938 30.8938 79.051L30.2193 78.8191L29.534 80.8013L30.4036 81.0983ZM28.8119 76.4227L31.657 77.4007C32.4919 77.6869 32.8713 77.8822 33.1794 78.1402C33.9818 78.8126 34.2768 79.8426 33.8668 81.0268C33.5676 81.892 32.8281 82.6966 31.8761 82.8267L31.8696 82.8505C31.8696 82.8505 31.9303 83.037 32.0062 83.4469L32.6113 86.8386L30.3798 86.0731L29.8787 82.8288L28.9441 82.508L27.9943 85.2533L25.9926 84.5659L28.8119 76.4227Z" fill="#8E6854"/>
<path d="M36.5535 84.7932C36.5535 84.7932 37.4209 85.7929 38.503 85.9186C38.9346 85.9706 39.4224 85.8579 39.4831 85.3417C39.6024 84.3247 35.7335 83.9082 36.0438 81.2755C36.2302 79.6968 37.6854 78.812 39.3899 79.0115C41.2397 79.2283 42.0377 80.3062 42.0377 80.3062L40.9468 81.9132C40.9468 81.9132 40.1726 81.0566 39.1404 80.9352C38.7066 80.8853 38.2036 81.0197 38.1494 81.4991C38.0214 82.5746 41.9096 82.8372 41.5887 85.5414C41.4218 86.9662 40.1834 88.0699 38.2513 87.8423C36.2322 87.606 35.2607 86.2549 35.2607 86.2549L36.5535 84.7932Z" fill="#8E6854"/>
<path d="M47.5489 83.3365C48.2841 83.2715 48.5984 82.7466 48.5377 82.0613C48.4749 81.3781 48.0714 80.9424 47.3733 81.0052L46.3018 81.1028L46.5145 83.4319L47.5489 83.3365ZM44.0293 79.4937L47.6053 79.1706C49.2794 79.0189 50.5243 80.14 50.6804 81.8683C50.8387 83.5967 49.8195 84.9456 48.1475 85.0974L46.6771 85.2318L46.92 87.8818L44.8122 88.0726L44.0293 79.4937Z" fill="#8E6854"/>
<path d="M57.4108 83.9309C58.6338 83.5123 59.2584 82.1289 58.7814 80.7365C58.3237 79.4049 56.9945 78.737 55.7713 79.1556C54.5461 79.5721 53.9064 80.91 54.366 82.2438C54.8432 83.6337 56.1878 84.3472 57.4108 83.9309ZM55.1445 77.3295C57.6146 76.4881 60.0478 77.6939 60.8523 80.0315C61.6742 82.4257 60.5076 84.9109 58.0373 85.7523C55.5673 86.5959 53.1168 85.3426 52.2949 82.9482C51.4927 80.6128 52.6745 78.1709 55.1445 77.3295Z" fill="#8E6854"/>
<path d="M21.1664 76.9507L18.9414 77.3063L18.5836 75.0901L20.8085 74.7365L21.1664 76.9507Z" fill="#8E6854"/>
<path d="M68.6787 76.8702L66.4493 76.5599L66.7617 74.3351L68.9911 74.6473L68.6787 76.8702Z" fill="#8E6854"/>
<path d="M73.3923 36.2183C72.5834 33.1497 71.3233 30.6948 69.5755 28.6781C69.198 28.2421 68.9227 27.7413 68.5541 27.3898C65.4248 24.3906 61.3456 22.2243 56.9673 20.8016C60.8925 20.9447 64.2169 21.7189 66.3726 23.586C67.2574 24.3494 67.5046 25.4662 68.4177 26.2339C68.3202 25.4943 67.8885 24.8437 67.4636 24.2646C67.0625 23.7159 66.5441 23.1847 66.1016 22.7011C63.2346 19.5912 59.5177 17.5268 54.0376 17.2686C55.1023 16.9261 55.8266 16.5855 56.9198 16.6917C58.056 16.7871 59.5286 17.826 59.5567 17.826C59.5849 17.826 59.5329 17.5767 59.2727 17.3532C58.7914 16.9389 58.4682 16.7438 58.4682 16.7438C57.4945 16.104 56.6032 15.6942 55.9591 15.4382C54.1332 14.6922 51.958 14.2844 49.8717 14.8894C49.6701 14.9458 49.4682 15.013 49.2666 15.0867L49.3338 14.9588C49.5658 14.5554 49.837 14.215 50.1536 13.9396C50.2164 13.8854 50.4571 13.803 50.3574 13.6686C49.1712 13.4757 46.9809 12.7752 45.5864 12.9898C44.6712 13.1307 44.361 13.8074 43.8125 14.2802C43.3743 13.6188 42.7846 12.9987 41.8368 12.9204C40.6483 12.825 38.9179 13.2175 37.8162 13.4973C37.8162 13.4973 37.4541 13.5927 37.3283 13.6057L37.2286 13.6838L37.3283 13.7488C37.3587 13.7684 37.5798 13.8486 37.7013 13.9461C38.0416 14.2106 38.2955 14.6791 38.3605 14.9588C34.0819 14.0285 31.3407 15.2862 29.066 16.5983C28.8056 16.7457 28.5563 16.8693 28.1313 17.34C28.088 17.3855 28.0121 17.559 28.0121 17.6413C28.0121 17.6695 29.8206 16.5007 30.981 16.479C32.4015 16.4552 33.7025 17.2099 33.7264 17.2012C29.8792 17.2207 26.726 18.2052 24.321 19.849C22.3455 21.198 20.3568 23.115 19.2096 25.2143C19.0644 25.4809 18.6869 25.8909 18.9386 26.2335C19.7865 25.2555 20.2139 24.093 21.1854 23.2451C23.4733 21.2522 27.0601 20.5105 31.2737 20.6644C23.4449 22.9784 17.1429 27.0684 14.3715 34.3831C13.4477 36.8206 12.6431 39.6811 12.938 43.0099C13.2135 42.8517 13.1699 42.4439 13.2111 42.1945C13.3737 41.2382 13.3998 40.1971 13.5537 39.2733C14.2065 35.3243 15.9955 33.0277 18.4613 30.9197C21.5906 28.2415 25.6047 26.2441 30.1133 24.9431C25.5917 28.0377 21.3738 31.7546 18.1859 36.3543C15.0587 40.8694 12.7166 46.8677 13.5537 54.625C13.9203 54.4081 13.8334 53.9093 13.8943 53.6058C13.9767 53.185 14.033 52.7665 14.0981 52.3828C15.024 46.9395 17.5721 42.6392 20.5042 39.2061C23.9371 35.1898 28.0075 31.7656 32.5682 28.8835C29.1137 33.4832 25.8195 38.7116 23.4341 44.6407C21.4778 49.5071 19.7018 56.7177 20.5044 63.6422C20.6084 64.5357 20.5759 65.6091 21.1854 66.0884C21.7384 65.4746 21.901 64.5899 22.0723 63.846C22.2739 62.9764 22.404 61.5733 22.6167 60.7362C25.1301 50.856 29.7016 42.6 34.7501 35.3351C35.5828 34.1359 36.4351 32.9301 37.4066 31.8697C35.9904 37.8507 34.5656 44.5887 33.8631 51.5001C33.2624 57.4182 33.0434 65.3272 34.1905 70.7358C34.3423 71.4558 34.351 72.3861 35.0753 72.7744C36.1292 71.5859 36.1942 69.6407 36.5218 68.0728C38.9767 56.3036 40.8199 44.0532 43.7455 32.9585C45.9467 42.4983 47.61 52.9271 49.2668 63.1132C49.6787 65.6613 49.989 68.344 50.5614 70.7206C50.7305 71.4254 50.7868 72.3579 51.5155 72.7592C52.1271 72.3037 52.2268 71.5078 52.4003 70.788C52.9772 68.4221 53.1918 65.7938 53.3566 63.046C54.0289 51.5871 51.9556 41.0671 50.0842 31.8699C56.0196 40.2168 61.7059 49.5138 64.1933 61.2114C64.4665 62.5083 64.6031 63.9546 64.9415 65.1518C65.0325 65.4748 65.1388 66.0084 65.5553 66.1016C66.362 64.6508 66.3533 62.6709 66.44 60.8058C66.7351 54.6837 65.3992 49.323 63.7835 45.0485C62.6646 42.0861 61.3135 39.2627 59.8301 36.6255C58.3121 33.9278 56.6444 31.4296 55.0591 29.0853C59.47 32.0564 63.4171 35.5478 66.7134 39.6139C68.3615 41.6458 69.9056 43.8253 71.0072 46.4061C72.1218 49.0171 72.6683 51.2465 73.0935 54.6273C73.5336 54.4018 73.4382 53.7621 73.4707 53.3998C74.1018 45.8726 71.8313 40.7198 68.9643 36.4889C65.707 31.6854 61.3243 27.8209 56.8309 24.7393C61.3547 26.0513 65.5487 27.8859 68.6911 30.5815C70.2807 31.9434 71.7055 33.5352 72.5751 35.5389C73.3949 37.4234 73.4512 39.7481 73.7352 42.1271C73.7678 42.4025 73.7287 42.8146 74.0063 43.0097C74.4332 40.38 73.9343 38.2699 73.3923 36.2183Z" fill="#8E6854"/>
<path d="M78.9102 1.32861H77.4572V0.63916H81.1699V1.32861H79.7169V5.05437H78.9102V1.32861Z" fill="#8E6854"/>
<path d="M81.9637 0.639587H82.8246L83.6921 2.82127C83.7918 3.08361 83.9175 3.46973 83.9175 3.46973H83.9284C83.9284 3.46973 84.0476 3.08381 84.1474 2.82127L85.0148 0.639587H85.8757L86.2313 5.055H85.4332L85.2468 2.58495C85.2273 2.29443 85.2403 1.90181 85.2403 1.90181H85.2273C85.2273 1.90181 85.095 2.33129 84.9888 2.58495L84.2731 4.29597H83.5661L82.8548 2.58495C82.7486 2.33129 82.612 1.8953 82.612 1.8953H82.6011C82.6011 1.8953 82.612 2.29423 82.5924 2.58495L82.406 5.055H81.6014L81.9637 0.639587Z" fill="#8E6854"/>
</svg>
