<svg width="107" height="78" viewBox="0 0 107 78" fill="none" xmlns="http://www.w3.org/2000/svg">
<g clip-path="url(#clip0_28_427)">
<path d="M11.5651 17.4C12.5515 18.8553 13.7604 18.5909 14.9886 18.2443C15.0331 18.4111 15.0765 18.5778 15.121 18.7445C13.8206 19.247 12.5202 19.7508 11.0454 20.3212C11.4772 22.3743 12.3783 24.4381 14.1971 25.7647C16.0436 27.1128 18.1644 28.1274 20.2551 29.098C20.948 29.4195 21.3221 29.647 21.4785 30.4032C22.1269 33.5376 23.6895 36.2361 25.6984 38.7025C27.1576 40.4935 29.1461 41.3319 31.3655 41.6582C35.4314 42.2549 37.788 44.9998 39.8198 48.1545C40.0279 48.4772 39.987 48.9571 40.0772 49.4466C30.5956 43.9935 20.717 43.2409 10.3705 46.0704C11.6709 43.9376 12.934 43.4707 24.2008 40.9115C23.4501 40.0744 22.6742 39.3789 22.1089 38.5429C20.93 36.7982 19.8882 34.9643 18.7346 33.203C18.393 32.6802 17.9539 32.0514 17.415 31.8501C11.6517 29.6911 9.43946 25.2348 9.37932 19.5257C9.36729 18.3622 10.0061 16.9367 10.8216 16.071C13.1108 13.6392 16.1194 12.303 19.4287 11.9279C21.4003 11.704 22.9449 10.9419 24.2994 9.61521C25.269 8.66727 26.2037 7.68122 27.2069 6.77139C29.934 4.29912 33.1446 3.39286 36.7775 4.05976C37.4596 4.1848 38.0996 4.53254 38.7876 4.97197C33.4983 5.01127 29.1966 6.76544 26.3504 11.2872C27.6123 12.7448 28.1849 12.8377 29.6417 11.9517C31.6253 10.7454 33.5597 9.44253 35.6227 8.38622C37.687 7.32991 39.9713 7.01433 42.2906 7.32396C44.0048 7.55261 44.6628 8.54104 43.9218 10.0451C42.0609 13.8274 39.6405 17.2059 35.6768 19.0875C34.3801 19.7032 32.8656 19.8675 31.3667 20.0306C35.9006 17.9383 38.701 14.2656 41.3704 9.93913C37.8578 10.8299 34.664 11.6052 31.7901 13.3188C31.416 13.5427 31.0118 13.7249 30.663 13.9798C28.6192 15.4708 26.6331 15.7709 24.036 14.9301C19.62 13.4975 15.4602 14.8372 11.5651 17.4Z" fill="#8E6854"/>
<path d="M22.7452 62.5593C22.9137 62.4188 22.975 62.3319 23.0556 62.3045C24.7999 61.721 26.65 60.4955 28.2631 60.7492C29.8655 61.0005 31.214 62.763 32.7008 63.824C43.994 71.8815 56.6165 75.3839 70.4611 74.2764C74.1109 73.9846 77.7004 72.9629 81.3177 72.2745C81.5847 72.2233 81.8494 72.1531 82.1249 72.1388C63.9821 80.5333 39.1281 77.7871 22.7452 62.5593Z" fill="#8E6854"/>
<path d="M47.0422 0.550223C67.1338 -2.55559 90.4817 7.63001 101.637 27.4486C99.6265 27.4486 97.798 27.526 95.9851 27.395C95.5208 27.3617 94.9891 26.7436 94.6824 26.2709C87.1507 14.6645 76.7224 6.83331 63.4155 2.78789C58.0949 1.17067 52.6287 0.394217 47.0422 0.550223Z" fill="#8E6854"/>
<path d="M83.3976 47.0493C85.5184 45.2904 88.1685 44.1174 89.1164 41.0818C86.7839 39.7254 84.3106 40.0898 82.1526 40.4173C79.956 37.5032 78.0505 34.5332 75.7036 31.9597C71.4873 27.3367 66.3399 23.8903 60.5766 21.3656C57.3876 19.9687 54.0759 19.4817 50.6138 19.9342C49.9498 20.0211 49.2641 19.9461 48.3679 19.9461C52.1464 18.0871 55.8526 17.456 59.8945 18.0252C65.6253 18.8338 69.9655 22.0647 74.3009 25.4349C77.526 27.9417 80.0727 31.001 82.0816 34.5082C83.068 36.2314 84.4093 37.1484 86.4591 37.3901C88.2611 37.6033 90.0703 38.1213 91.7592 38.793C93.6058 39.5277 93.9414 40.9163 92.7998 42.5097C90.5238 45.6834 87.2915 47.047 83.3976 47.0493Z" fill="#8E6854"/>
<path d="M61.9046 47.0791C64.497 49.2501 66.9185 51.6759 69.731 53.517C72.4171 55.2771 75.4305 56.6276 78.4451 57.7899C81.1601 58.8367 83.7464 57.7137 85.9695 56.1346C88.1673 54.5733 90.1858 52.7644 92.2909 51.0578C94.7895 58.4413 98.1048 65.215 105.86 68.6186C104.954 69.576 102.754 69.9619 100.962 69.2962C97.2014 67.8993 94.4009 65.3627 92.6711 61.7984C92.149 60.723 92.1273 59.3892 91.9794 58.1626C91.8795 57.3314 91.9601 56.4787 92.1719 56.1381C90.845 57.173 89.5374 58.2341 88.1877 59.238C84.3034 62.1259 80.1063 62.5451 75.9009 60.1966C71.444 57.7077 67.3131 54.7115 63.9617 50.8185C63.0414 49.7502 62.375 48.4677 61.5919 47.2839C61.6965 47.2137 61.8012 47.1458 61.9046 47.0791Z" fill="#8E6854"/>
<path d="M14.1851 34.545C9.41784 34.8868 4.64937 35.2286 0 35.5609C1.76833 32.0978 3.91678 30.995 8.19324 31.9763C10.3116 32.4622 12.3025 33.4971 14.3499 34.283C14.2946 34.3712 14.2404 34.4581 14.1851 34.545Z" fill="#8E6854"/>
<path d="M89.7768 60.7349C90.2965 65.3698 89.6421 70.2453 94.8797 72.7545C92.6578 73.7429 91.1265 72.9129 89.8009 71.5922C86.9342 68.7376 86.8753 63.9598 89.7768 60.7349Z" fill="#8E6854"/>
<path d="M23.9109 17.6905C22.2328 17.6905 20.5547 17.6905 18.7936 17.6905C19.8245 16.3865 21.8286 15.7232 23.2192 16.2841C23.6583 16.4603 23.9338 17.0343 24.2838 17.4261C24.1599 17.5143 24.0348 17.6024 23.9109 17.6905Z" fill="#8E6854"/>
<path d="M15.921 58.5675L18.15 54.7293L15.4951 51.1662L19.8702 52.0796L22.4722 48.4796L22.9473 52.881L27.2106 54.2184L23.129 56.0262L23.1615 60.4527L20.1637 57.1682L15.921 58.5675Z" fill="#8E6854"/>
<path d="M97.4275 40.9651L98.3069 36.6243L94.6451 34.0842L99.0864 33.5709L100.395 29.3373L102.261 33.3601L106.732 33.2839L103.443 36.2837L104.898 40.4697L100.999 38.3011L97.4275 40.9651Z" fill="#8E6854"/>
<path d="M86.7249 77.4013C85.1707 77.4013 83.9064 76.1497 83.9064 74.6122C83.9064 73.0736 85.1707 71.8232 86.7249 71.8232C88.2791 71.8232 89.5422 73.0748 89.5422 74.6122C89.5434 76.1497 88.2791 77.4013 86.7249 77.4013ZM86.7249 72.2519C85.4101 72.2519 84.3419 73.3106 84.3419 74.611C84.3419 75.9115 85.4113 76.9702 86.7249 76.9702C88.0385 76.9702 89.108 75.9115 89.108 74.611C89.108 73.3106 88.0397 72.2519 86.7249 72.2519Z" fill="#8E6854"/>
<path d="M85.8576 75.7423V73.3939H86.909C87.1207 73.3939 87.2807 73.4154 87.3914 73.457C87.502 73.4999 87.5898 73.5749 87.6548 73.6809C87.721 73.7881 87.7534 73.906 87.7534 74.0346C87.7534 74.2013 87.6993 74.3419 87.5898 74.4562C87.4816 74.5693 87.3132 74.6432 87.0846 74.6729C87.1676 74.7122 87.2302 74.7515 87.2747 74.7908C87.3661 74.8742 87.4527 74.979 87.5357 75.1028L87.9483 75.7411H87.5538L87.2398 75.2529C87.1484 75.1112 87.0726 75.0028 87.0136 74.929C86.9547 74.8539 86.9006 74.8015 86.8548 74.7718C86.8079 74.7408 86.7598 74.7206 86.7117 74.7087C86.6768 74.7015 86.6179 74.6979 86.5373 74.6979H86.1728V75.7411H85.8576V75.7423ZM86.1716 74.43H86.8464C86.9896 74.43 87.1027 74.4157 87.1832 74.3859C87.2638 74.3573 87.3252 74.3097 87.3673 74.2454C87.4094 74.1811 87.4299 74.1108 87.4299 74.0346C87.4299 73.9239 87.389 73.8322 87.3084 73.7607C87.2266 73.6881 87.0978 73.6535 86.9222 73.6535H86.1716V74.43Z" fill="#8E6854"/>
</g>
<defs>
<clipPath id="clip0_28_427">
<rect width="106.732" height="77.4013" fill="white"/>
</clipPath>
</defs>
</svg>
