<svg width="112" height="83" viewBox="0 0 112 83" fill="none" xmlns="http://www.w3.org/2000/svg">
<g clip-path="url(#clip0_27_142)">
<path d="M111.292 82.4274V63.6089L109.852 64.8878C109.852 64.8878 106.071 67.9938 103.371 69.8208C102.11 70.5516 98.3299 70.917 94.5493 71.0997C105.171 63.6089 111.652 53.1948 111.652 41.5017C111.652 18.8464 86.6282 0.57605 55.8437 0.57605C25.2393 0.57605 0.215668 18.8464 0.215668 41.5017C0.215668 64.157 25.2393 82.4274 55.8437 82.4274H111.292Z" fill="#8E6854"/>
<path d="M27.5796 41.319C27.5796 25.6065 40.1814 12.8172 55.6637 12.8172C71.1459 12.8172 83.7478 25.6065 83.7478 41.319C83.7478 57.0315 71.1459 69.8208 55.6637 69.8208C40.1814 69.8208 27.5796 57.0315 27.5796 41.319Z" fill="#8E6854"/>
<path d="M55.8437 3.49933C35.1407 3.49933 18.5783 20.4908 18.5783 41.319C18.5783 62.33 35.3208 79.1387 55.8437 79.1387C76.5467 79.1387 93.1091 62.1473 93.1091 41.319C93.2892 20.4908 76.5467 3.49933 55.8437 3.49933ZM83.5678 40.4055H68.0855C68.0855 35.1071 67.3654 30.3568 66.2853 26.3373H79.4272C81.9475 30.3568 83.3877 35.1071 83.5678 40.4055ZM83.5678 42.2325C83.3877 47.1656 81.9475 51.7332 79.7872 55.7526H66.4653C67.3654 51.7332 67.9055 47.1656 68.0855 42.2325H83.5678ZM77.9869 24.3276H65.7452C63.9449 18.481 61.2445 14.4616 58.004 12.9999C66.2852 13.7307 73.3063 17.9329 77.9869 24.3276ZM56.5638 14.6443C59.4443 15.3751 61.9646 19.0292 63.7649 24.3276H56.5638V14.6443ZM54.7636 26.1546V40.2228H45.4022C45.4022 35.1071 46.1223 30.1741 47.2025 26.1546H54.7636ZM47.7426 24.3276C49.5428 19.0292 51.8832 15.3751 54.7636 14.6443V24.3276H47.7426ZM54.7636 42.2325V55.7526H47.0225C45.9423 51.7332 45.4022 47.1656 45.4022 42.2325H54.7636ZM54.7636 57.5797V68.1765C51.8832 67.4457 49.3628 63.4262 47.5625 57.7624H54.7636V57.5797ZM56.5638 57.5797H63.9449C62.1447 63.4262 59.6243 67.4457 56.5638 67.9938V57.5797ZM56.5638 55.7526V42.2325H66.1052C66.1052 47.1656 65.3851 51.7332 64.485 55.7526H56.5638ZM56.5638 40.4055V26.1546H64.305C65.3851 30.1741 66.1052 35.1071 66.1052 40.2228H56.5638V40.4055ZM53.5034 12.9999C50.2629 14.2789 47.5625 18.481 45.7623 24.3276H33.1605C37.8411 17.9329 45.2222 13.7307 53.5034 12.9999ZM31.9003 26.1546H45.2222C44.142 30.3568 43.602 35.1071 43.4219 40.2228H27.5796C27.7597 35.1071 29.3799 30.3568 31.9003 26.1546ZM45.0422 55.7526H31.5402C29.1999 51.7332 27.9397 47.1656 27.7597 42.2325H43.4219C43.602 47.1656 44.142 51.7332 45.0422 55.7526ZM32.8004 57.5797H45.5823C47.3825 63.7916 50.2629 68.1765 53.5034 69.6381C44.8622 69.09 37.4811 64.3397 32.8004 57.5797ZM58.004 69.6381C61.2445 68.1765 64.1249 63.7916 65.9252 57.5797H78.527C73.8463 64.3397 66.4653 68.9073 58.004 69.6381Z" fill="#FCE2C4"/>
<path d="M22.5389 55.3872L21.9988 54.291L27.3996 51.9158L27.9397 53.0121L22.5389 55.3872Z" fill="#8E6854"/>
<path d="M30.6401 58.1278L31.1801 59.0413L26.3194 62.1472L25.5993 61.051L27.9397 56.8488L24.5192 59.0413L23.9791 58.1278L28.8398 55.0218L29.5599 56.118L27.2196 60.3202L30.6401 58.1278Z" fill="#8E6854"/>
<path d="M29.92 66.5321L29.0198 65.6186L32.4403 62.3299L31.1802 61.051L31.9003 60.3202L35.1407 63.6089L34.4206 64.3397L33.1604 63.0607L29.92 66.5321Z" fill="#8E6854"/>
<path d="M39.4613 68.1765L36.941 66.3494L36.2209 67.263L38.3812 68.9073L38.0211 69.8208L35.6808 68.1765L34.7807 69.4554L37.301 71.2825L36.7609 72.196L33.3405 69.6381L36.7609 64.8878L40.1814 67.263L39.4613 68.1765Z" fill="#8E6854"/>
<path d="M41.8017 71.0998L42.3418 69.6381L43.782 70.1863C44.5021 70.5517 44.3221 70.9171 44.3221 71.2825C44.142 71.8306 43.782 71.8306 43.2419 71.6479L41.8017 71.0998ZM39.4614 73.6576L40.5415 74.2057L41.4417 72.0133L42.5218 72.5614C43.2419 72.9268 43.2419 73.2922 42.8819 74.023C42.7018 74.5712 42.5218 74.9366 42.5218 75.1193L43.782 75.6674V75.4847C43.602 75.302 43.602 75.1193 43.962 74.3884C44.3221 73.2922 44.142 73.1095 43.962 72.7441C44.5021 72.7441 45.0422 72.3787 45.4022 71.8306C45.5823 71.2825 45.7623 70.1863 44.5021 69.6381L41.8017 68.1765L39.4614 73.6576Z" fill="#8E6854"/>
<path d="M51.3431 71.2825L52.4232 71.4652L51.3431 77.3117L50.2629 77.129L48.8227 72.5614L48.1026 76.7636L47.0225 76.5809L48.1026 70.7344L49.3628 70.9171L50.803 75.302L51.3431 71.2825Z" fill="#8E6854"/>
<path d="M56.7438 72.9268L57.4639 75.3019H56.0237L56.7438 72.9268ZM55.8437 76.3982H58.004L58.3641 77.6771H59.6243L57.4639 71.8306H56.0237L54.2235 77.8598H55.4837L55.8437 76.3982Z" fill="#8E6854"/>
<path d="M63.9449 76.5809L62.8647 76.7636L61.7846 72.0133L60.1643 72.3787L59.9843 71.2825L64.485 70.369L64.665 71.4652L62.8647 71.8306L63.9449 76.5809Z" fill="#8E6854"/>
<path d="M69.1656 74.9366L68.0855 75.302L65.9252 69.8209L67.0053 69.4554L69.1656 74.9366Z" fill="#8E6854"/>
<path d="M71.326 70.7343C70.4258 69.2727 71.1459 68.5419 71.686 68.1765C72.2261 67.8111 73.1262 67.8111 74.0264 69.09C74.9265 70.5516 74.2064 71.2824 73.6663 71.6479C73.1262 72.0133 72.2261 72.196 71.326 70.7343ZM70.2458 71.2824C71.686 73.6576 73.4863 72.9268 74.2064 72.5614C74.9265 72.196 76.3667 70.917 74.9265 68.5419C73.4863 66.1667 71.686 66.8975 70.9659 67.263C70.4258 67.6284 68.9856 68.9073 70.2458 71.2824Z" fill="#8E6854"/>
<path d="M77.4469 62.33L78.167 61.5992L82.1275 65.8014L81.2274 66.7149L76.7267 65.2533L79.6072 68.3592L78.8871 69.09L74.9265 64.8879L75.8266 63.9743L80.1472 65.436L77.4469 62.33Z" fill="#8E6854"/>
<path d="M84.8279 62.6954L84.1078 63.7916L80.5073 58.6759L81.2274 57.5797L87.1683 59.224L86.4482 60.3202L85.188 59.9548L83.9278 61.7818L84.8279 62.6954ZM83.3877 60.8683L84.2878 59.5894L81.9475 58.8586L83.3877 60.8683Z" fill="#8E6854"/>
<path d="M83.7478 53.1948L83.2077 54.291L88.6085 56.6662L90.2287 53.0121L89.3286 52.6467L88.2484 55.2045L83.7478 53.1948Z" fill="#8E6854"/>
<path d="M23.9791 40.2228L24.5192 39.6747C24.6992 39.8574 24.6992 40.2228 24.6992 40.4055C24.6992 41.1363 24.1591 42.0498 22.5389 41.8671C20.9187 41.8671 20.5586 40.7709 20.5586 40.2228C20.5586 39.492 21.0987 38.5785 22.7189 38.7612C23.259 38.7612 23.6191 38.9439 23.9791 39.1266L23.439 39.6747L23.9791 40.2228ZM25.4193 37.4822L24.6992 38.0303C24.3392 37.6649 23.6191 37.2995 22.5389 37.2995C19.8385 37.1168 19.2984 39.3093 19.2984 40.0401C19.2984 40.7709 19.4785 42.9633 22.3589 42.9633C25.0593 43.1461 25.5993 40.9536 25.5993 40.2228C25.5993 39.8574 25.5993 39.3093 25.2393 38.7612L25.9594 38.0303L25.4193 37.4822Z" fill="#8E6854"/>
<path d="M25.2393 30.9049C26.6795 31.2703 27.2196 32.3666 26.8595 33.8282C26.6795 34.3763 26.3195 35.1071 25.7794 35.4725C25.4193 35.6552 24.8792 35.6552 24.3392 35.4725L20.5586 34.3763L20.9187 33.0974L24.6992 34.0109C25.4193 34.1936 25.9594 33.8282 26.1394 33.2801C26.3195 32.3666 25.9594 32.0012 25.4193 31.8184L21.6388 30.7222L21.9988 29.4433L25.2393 30.9049Z" fill="#8E6854"/>
<path d="M24.6992 25.9719L27.0396 26.3373L26.3195 27.6163L24.6992 25.9719ZM27.2196 28.5298L28.1197 26.52L29.3799 26.7027L29.92 25.4238L23.6191 24.693L22.899 25.9719L27.2196 30.5395L27.7597 29.4433L27.2196 28.5298Z" fill="#8E6854"/>
<path d="M30.6401 22.6832L32.4403 20.3081L33.3405 21.0389L30.8201 24.3275L26.1394 20.6735L26.8595 19.7599L30.6401 22.6832Z" fill="#8E6854"/>
<path d="M35.3208 19.0292L34.4206 19.9427L30.28 15.5578L31.1802 14.6443L35.3208 19.0292Z" fill="#8E6854"/>
<path d="M38.7412 16.2886L37.6611 17.0194L34.7807 12.9999L33.3405 14.0962L32.8004 13.3653L36.761 10.4421L37.301 11.3556L35.8608 12.4518L38.7412 16.2886Z" fill="#8E6854"/>
<path d="M43.782 13.548L42.7018 14.0961L41.8017 12.0864L38.3812 9.52853L39.8214 8.79772L41.9817 10.6248V7.70149L43.2419 7.15338L42.8818 11.5383L43.782 13.548Z" fill="#8E6854"/>
<path d="M51.7031 6.60531L52.7833 8.79775L51.3431 8.98046L51.7031 6.60531ZM50.983 10.0767L53.1433 9.89398L53.6834 10.9902L54.9436 10.8075L52.2432 5.14368L50.803 5.32638L49.3628 11.5383L50.623 11.3556L50.983 10.0767Z" fill="#8E6854"/>
<path d="M57.464 9.34585C57.464 9.71126 57.464 10.2594 58.5441 10.4421C59.0842 10.4421 59.8043 10.4421 59.8043 9.71126C59.8043 9.16314 59.4443 9.16314 58.7242 8.79774L58.1841 8.61503C57.284 8.24962 56.3838 8.06692 56.5638 6.60529C56.5638 5.87447 57.1039 4.77825 59.0842 4.96096C60.8845 5.14366 61.2445 6.42259 61.2445 7.1534L59.9843 6.9707C59.9843 6.78799 59.9843 6.05718 58.9042 5.87447C58.3641 5.87447 57.824 5.87447 57.824 6.42259C57.824 6.9707 58.1841 6.9707 58.3641 7.1534L59.8043 7.88422C60.5244 8.24962 61.2445 8.61503 61.2445 9.71126C61.0645 11.5383 59.2642 11.5383 58.7242 11.3556C56.5638 11.1729 56.3838 9.89396 56.3838 9.16314L57.464 9.34585Z" fill="#8E6854"/>
<path d="M63.9449 10.2594C63.9449 10.6248 63.7649 11.1729 64.845 11.5383C65.3851 11.721 66.1052 11.721 66.2852 11.1729C66.4653 10.8075 66.1052 10.4421 65.5651 10.0767L65.025 9.71125C64.1249 9.16314 63.4048 8.79773 63.7649 7.5188C63.9449 6.97069 64.665 5.87447 66.4653 6.42258C68.2655 6.97069 68.2655 8.24962 68.0855 8.98043L66.8253 8.79773C66.8253 8.43232 66.8253 7.88421 65.9252 7.5188C65.5651 7.3361 64.845 7.3361 64.665 7.88421C64.485 8.24962 64.845 8.61502 65.025 8.61502L66.2852 9.34584C67.0053 9.71125 67.5454 10.2594 67.3654 11.3556C66.8253 13.1826 65.025 12.8172 64.665 12.6345C62.6847 11.9037 62.6847 10.6248 62.8647 9.89395L63.9449 10.2594Z" fill="#8E6854"/>
<path d="M73.3063 14.2788C72.5862 15.7405 71.326 15.7405 70.0658 15.0097C69.5257 14.8269 68.9856 14.2788 68.8056 13.3653C68.6256 12.8172 68.8056 12.4518 69.1657 11.9037L71.146 8.43231L72.2261 9.16313L70.4258 12.6345C70.0658 13.3653 70.2458 13.9134 70.7859 14.2788C71.506 14.6442 72.0461 14.4615 72.4061 13.9134L74.3864 10.4421L75.4666 10.9902L73.3063 14.2788Z" fill="#8E6854"/>
<path d="M77.8069 12.6345L79.9672 14.6443C81.2274 15.7405 80.5073 16.8367 80.3273 17.2021C79.9672 17.7502 79.2471 17.9329 78.707 17.5675C78.8871 18.1156 79.0671 18.2983 78.347 19.2119C77.8069 19.9427 77.6269 19.9427 77.8069 20.3081L77.6269 20.4908L76.5467 19.5773C76.7268 19.3946 76.9068 19.0292 77.2668 18.6637C77.8069 18.1156 77.9869 17.7502 77.2668 17.2021L76.3667 16.2886L74.7465 18.1156L73.8463 17.3848L77.8069 12.6345ZM77.9869 16.4713C78.527 16.8367 78.8871 17.0194 79.2471 16.4713C79.4272 16.2886 79.6072 15.7405 79.0671 15.3751L77.9869 14.2789L76.9068 15.5578L77.9869 16.4713Z" fill="#8E6854"/>
<path d="M83.5678 20.8562L82.1276 22.8659L81.2274 21.587L83.5678 20.8562ZM80.3273 21.9524L81.5875 23.7795L80.8674 24.8757L81.5875 25.9719L85.188 20.6735L84.2879 19.5773L78.347 21.4043L79.0671 22.5005L80.3273 21.9524Z" fill="#8E6854"/>
<path d="M89.1486 27.9816L89.6886 29.0779L84.2878 31.453L83.7478 30.3568L86.6282 26.3373L82.8476 27.9816L82.3076 26.8854L87.7083 24.5103L88.2484 25.7892L85.368 29.8087L89.1486 27.9816Z" fill="#8E6854"/>
<path d="M89.3286 36.2033C89.6886 36.0206 90.2287 35.6552 90.0487 34.7417C89.8687 34.1936 89.3286 33.28 87.7083 33.6455C86.6282 33.8282 85.7281 34.3763 86.0881 35.4725C86.2681 36.2033 86.6282 36.5687 87.3483 36.5687L87.5283 37.8476C86.2681 37.8476 85.188 37.1168 84.8279 35.6552C84.4679 34.0109 85.368 32.7319 87.3483 32.3665C89.3286 32.0011 90.5888 32.9146 90.9488 34.3763C91.3089 36.2033 90.2287 37.1168 89.3286 37.2995V36.2033Z" fill="#8E6854"/>
<path d="M90.5888 44.2423V41.1364H89.3286V44.0596H88.2484V41.1364H86.8082V44.425H85.7281V39.8574H91.6689V44.2423H90.5888Z" fill="#8E6854"/>
</g>
<defs>
<clipPath id="clip0_27_142">
<rect width="111.436" height="81.8513" fill="white" transform="translate(0.215668 0.57605)"/>
</clipPath>
</defs>
</svg>
