<svg width="95" height="90" viewBox="0 0 95 90" fill="none" xmlns="http://www.w3.org/2000/svg">
<path d="M0.906165 48.1717C0.914688 48.667 1.0958 49.0534 1.44842 49.3322C1.80141 49.6106 2.30034 49.7441 2.94523 49.7327C3.59403 49.721 4.08834 49.5683 4.42783 49.2739C4.76768 48.9799 4.93281 48.5889 4.92393 48.1006C4.91576 47.6123 4.73572 47.2278 4.38522 46.9469C4.03472 46.6663 3.53543 46.5317 2.88877 46.5431C2.24388 46.5545 1.74992 46.7068 1.40759 46.9998C1.0649 47.2927 0.897642 47.6834 0.906165 48.1717ZM2.87669 45.8662C3.67215 45.8524 4.3039 46.042 4.77194 46.4355C5.23962 46.8297 5.47968 47.3819 5.49247 48.0935C5.5049 48.7924 5.28828 49.3492 4.8419 49.7643C4.39623 50.1798 3.76768 50.3947 2.95695 50.4092C2.14835 50.4238 1.5127 50.2324 1.05034 49.8354C0.587983 49.438 0.350411 48.8883 0.337982 48.1851C0.325553 47.4866 0.543238 46.9291 0.989972 46.5126C1.43706 46.096 2.06597 45.8808 2.87669 45.8662Z" fill="#8E6854"/>
<path d="M1.16958 43.2609L3.02647 43.4651L3.09998 42.8124C3.1497 42.3706 3.09608 42.0482 2.93912 41.8461C2.78251 41.6437 2.53677 41.524 2.2019 41.4871C1.65325 41.4267 1.33791 41.7644 1.25516 42.5002L1.16958 43.2609ZM5.90716 40.3649L5.8127 41.2041L3.67385 42.6146L3.57157 43.5254L5.52719 43.7406L5.45475 44.387L0.535347 43.8454L0.688401 42.4839C0.76262 41.8248 0.935916 41.3688 1.20829 41.1167C1.48102 40.8646 1.82193 40.7612 2.23173 40.8063C2.91674 40.882 3.35638 41.2651 3.55062 41.9562L5.90716 40.3649Z" fill="#8E6854"/>
<path d="M6.68663 35.4809C6.8269 36.2093 6.83613 36.8261 6.71397 37.3304C6.52327 38.118 6.15751 38.6791 5.61702 39.014C5.07618 39.3488 4.40502 39.4216 3.60246 39.232C2.83079 39.0498 2.27646 38.6841 1.93981 38.1343C1.60352 37.5846 1.52895 36.9234 1.71574 36.1507C1.85423 35.5804 2.13939 35.0342 2.57085 34.5129L3.33115 34.6922L3.3173 34.7497C2.75338 35.1951 2.39329 35.7412 2.23633 36.3882C2.10778 36.9181 2.1788 37.3794 2.44834 37.7718C2.71822 38.1638 3.14969 38.4301 3.74273 38.5697C4.36382 38.7164 4.88691 38.6698 5.31198 38.4309C5.73705 38.1912 6.01759 37.7906 6.15395 37.2284C6.25303 36.8201 6.27221 36.4206 6.21184 36.0303L5.03073 35.7515L4.72213 37.0257L4.15928 36.8929L4.61951 34.9926L6.68663 35.4809Z" fill="#8E6854"/>
<path d="M6.60776 31.0944L4.02395 31.0439L5.99128 32.6981L6.60776 31.0944ZM8.92239 30.4935L8.67346 31.1405L7.20897 31.1054L6.44973 33.0802L7.56976 34.0106L7.33255 34.627L3.33609 31.2321L3.64682 30.4225L8.92239 30.4935Z" fill="#8E6854"/>
<path d="M11.199 26.1621L10.8176 26.8709L5.79519 26.8627L9.71885 28.9135L9.43121 29.4486L5.04484 27.156L5.52247 26.2679L10.107 26.2768L6.5246 24.4046L6.8126 23.8691L11.199 26.1621Z" fill="#8E6854"/>
<path d="M13.1499 23.249L12.0612 24.8442L11.64 24.5647L12.0012 24.0356L8.7199 21.8566L8.35875 22.3854L7.93793 22.1059L9.02707 20.5104L9.44824 20.7902L9.08673 21.319L12.368 23.4987L12.7291 22.9692L13.1499 23.249Z" fill="#8E6854"/>
<path d="M16.2524 18.8339C16.213 18.9631 16.181 19.0785 16.1561 19.1801C16.045 19.6215 15.8355 20.0249 15.5276 20.39C15.0354 20.9741 14.4818 21.2831 13.8667 21.3165C13.2517 21.3498 12.6316 21.1101 12.0066 20.5966C11.3795 20.0821 11.0322 19.5153 10.9637 18.8967C10.8955 18.2781 11.0961 17.69 11.5663 17.1321C11.9175 16.7152 12.3863 16.3846 12.9718 16.14L13.5755 16.6357L13.5439 16.6733C12.8777 16.7866 12.3539 17.0693 11.9729 17.5213C11.6355 17.9216 11.5091 18.3491 11.5936 18.8044C11.6785 19.2593 11.9615 19.684 12.4424 20.0792C12.9168 20.4688 13.3895 20.6613 13.86 20.6567C14.3305 20.652 14.7329 20.451 15.0674 20.0544C15.4697 19.5767 15.6561 19.0189 15.6267 18.3797L15.6561 18.3445L16.2524 18.8339Z" fill="#8E6854"/>
<path d="M20.3334 13.0158L18.1171 11.6845L18.9985 14.0971L20.3334 13.0158ZM22.6413 13.649L22.1026 14.0854L20.8497 13.3251L19.2059 14.6564L19.713 16.0204L19.1995 16.4363L17.4257 11.5041L18.0997 10.9586L22.6413 13.649Z" fill="#8E6854"/>
<path d="M26.7712 11.0207L26.088 11.4465L21.7414 8.9387L24.1196 12.6731L23.604 12.9945L20.9452 8.81973L21.801 8.28635L25.768 10.5768L23.5969 7.16739L24.1125 6.84601L26.7712 11.0207Z" fill="#8E6854"/>
<path d="M27.0062 5.97471L28.6184 9.43707L29.1745 9.18388C29.9 8.85327 30.3432 8.46832 30.5045 8.02834C30.6657 7.58835 30.6177 7.09261 30.3606 6.54005C29.8248 5.38877 28.8919 5.11604 27.5623 5.72151L27.0062 5.97471ZM28.2644 10.2187L26.176 5.73181L27.2878 5.22542C27.9579 4.92037 28.5101 4.77797 28.9444 4.79822C29.3787 4.8181 29.7729 4.95056 30.1259 5.19523C30.4785 5.43991 30.7648 5.79715 30.9835 6.26732C31.2193 6.77336 31.2942 7.26768 31.2083 7.74993C31.1224 8.23217 30.9313 8.61818 30.6348 8.9076C30.3383 9.19737 29.9231 9.46371 29.3887 9.70696L28.2644 10.2187Z" fill="#8E6854"/>
<path d="M39.8539 6.28184L39.0698 6.46331L35.7868 2.6785L36.8102 6.98603L36.2179 7.12311L35.0744 2.30811L36.057 2.08048L39.0521 5.5361L38.1181 1.60357L38.7105 1.46649L39.8539 6.28184Z" fill="#8E6854"/>
<path d="M43.8105 3.81973L42.6958 1.49409L42.1017 4.00013L43.8105 3.81973ZM45.3858 5.60844L44.6961 5.68124L44.0704 4.36021L41.9667 4.58252L41.6382 6.00439L40.9816 6.07364L42.2189 0.966386L43.0811 0.875122L45.3858 5.60844Z" fill="#8E6854"/>
<path d="M49.6741 1.23001L47.9262 1.23605L47.934 5.60005L47.2835 5.60254L47.276 1.23818L45.5278 1.24422L45.5271 0.659346L49.673 0.645142L49.6741 1.23001Z" fill="#8E6854"/>
<path d="M54.6636 4.10493C54.5003 5.48917 53.7968 6.11097 52.5521 5.97106C51.3089 5.83114 50.7691 5.06907 50.9317 3.68483L51.2783 0.743774L51.9246 0.816218L51.5745 3.79066C51.5372 4.10742 51.5383 4.37304 51.5784 4.58682C51.6182 4.80096 51.724 4.98313 51.8945 5.13263C52.0656 5.28249 52.3064 5.37482 52.6178 5.40998C53.0095 5.45401 53.3242 5.37837 53.561 5.18306C53.7979 4.9881 53.9477 4.62091 54.0113 4.08185L54.3632 1.09072L55.0099 1.16352L54.6636 4.10493Z" fill="#8E6854"/>
<path d="M57.7515 2.27049L57.3034 4.08406L57.9426 4.23711C58.3751 4.34045 58.7018 4.32731 58.9237 4.19663C59.1453 4.06666 59.2966 3.83796 59.3772 3.5109C59.5093 2.97503 59.2157 2.62098 58.4958 2.44875L57.7515 2.27049ZM60.0044 7.31773L59.1826 7.12135L58.0637 4.8298L57.172 4.61637L56.7004 6.52653L56.0679 6.37561L57.2544 1.57056L58.5871 1.88945C59.232 2.04392 59.662 2.27155 59.8765 2.57269C60.0907 2.87312 60.1485 3.22361 60.0498 3.62418C59.8843 4.29286 59.4458 4.68136 58.7338 4.7886L60.0044 7.31773Z" fill="#8E6854"/>
<path d="M64.0257 6.70943L64.0846 4.14018L62.4145 6.11249L64.0257 6.70943ZM64.623 9.00418L63.9727 8.76342L64.0129 7.30745L62.0288 6.57236L61.0889 7.69523L60.4699 7.46583L63.8982 3.45801L64.7114 3.75914L64.623 9.00418Z" fill="#8E6854"/>
<path d="M68.4795 10.9194L65.7125 9.53341L67.971 5.12964L68.553 5.42083L66.5612 9.30436L68.7466 10.3992L68.4795 10.9194Z" fill="#8E6854"/>
<path d="M75.1812 15.0645C75.0491 15.0315 74.9312 15.0052 74.8275 14.9857C74.3762 14.8962 73.9603 14.708 73.5789 14.4211C72.9678 13.9616 72.6329 13.4292 72.5743 12.8234C72.5154 12.2179 72.7327 11.5947 73.2263 10.9537C73.7213 10.3113 74.2803 9.94201 74.9032 9.84613C75.5257 9.75025 76.1283 9.92142 76.7114 10.3596C77.1471 10.6874 77.5005 11.1348 77.7714 11.7016L77.2948 12.3206L77.2554 12.2911C77.1137 11.6384 76.8069 11.1345 76.3343 10.779C75.9159 10.4644 75.4788 10.3593 75.0221 10.4637C74.5658 10.5684 74.1475 10.8674 73.7675 11.3607C73.3929 11.8468 73.2174 12.322 73.2412 12.7865C73.265 13.251 73.4845 13.6388 73.8996 13.9509C74.3982 14.3259 74.9699 14.4843 75.6155 14.426L75.6517 14.4534L75.1812 15.0645Z" fill="#8E6854"/>
<path d="M80.5617 14.4279C80.2069 14.0824 79.8049 13.9336 79.3554 13.9812C78.9054 14.0288 78.453 14.2805 77.9967 14.7369C77.5382 15.1964 77.29 15.6484 77.2534 16.093C77.2155 16.538 77.3721 16.9307 77.7222 17.2713C78.072 17.6122 78.4715 17.7603 78.9218 17.7159C79.3714 17.6715 79.8252 17.4204 80.2826 16.9624C80.7378 16.5064 80.9861 16.055 81.0265 15.6083C81.0667 15.1619 80.9118 14.7685 80.5617 14.4279ZM80.7673 17.4343C80.2052 17.9975 79.6171 18.3018 79.0035 18.3477C78.3898 18.3935 77.828 18.168 77.3181 17.6712C76.8177 17.1839 76.5816 16.6378 76.61 16.033C76.638 15.4279 76.9392 14.8388 77.512 14.2649C78.0834 13.6925 78.6753 13.3864 79.2875 13.3469C79.8998 13.3075 80.4573 13.5327 80.9612 14.0234C81.4616 14.5106 81.6977 15.0575 81.6693 15.6641C81.6409 16.2706 81.3405 16.8608 80.7673 17.4343Z" fill="#8E6854"/>
<path d="M80.0671 19.9197L80.7188 19.4151L80.7472 19.451C80.733 19.7642 80.7831 20.0841 80.897 20.4112C81.0114 20.7383 81.1566 21.0131 81.3338 21.2361C81.5845 21.5515 81.8402 21.7503 82.1009 21.8324C82.3615 21.9147 82.5927 21.8778 82.7941 21.7216C83.0167 21.5493 83.1137 21.3586 83.0849 21.1498C83.0561 20.9407 82.9358 20.6534 82.7248 20.288C82.4748 19.853 82.3157 19.5128 82.2472 19.2681C82.1787 19.0234 82.1758 18.7848 82.2383 18.5518C82.3012 18.3192 82.4578 18.1058 82.7085 17.9119C83.0359 17.658 83.4123 17.5855 83.8367 17.6942C84.2618 17.8032 84.6396 18.066 84.9709 18.4826C85.3509 18.9609 85.614 19.4772 85.76 20.0316L85.1456 20.5078L85.1165 20.4719C85.1265 20.2315 85.0782 19.9584 84.9716 19.6534C84.8647 19.3483 84.7138 19.0731 84.5192 18.8281C84.3026 18.5554 84.0707 18.381 83.8235 18.3054C83.5764 18.2294 83.3615 18.262 83.1794 18.403C83.027 18.5209 82.9347 18.6449 82.9034 18.7741C82.8718 18.9041 82.8828 19.0447 82.9354 19.1963C82.9883 19.348 83.1126 19.6026 83.309 19.9602C83.6765 20.6257 83.8349 21.1104 83.7848 21.4137C83.7344 21.7169 83.5689 21.9772 83.2887 22.1946C82.9627 22.4471 82.575 22.527 82.1254 22.4346C81.6755 22.3423 81.2607 22.0571 80.8807 21.5788C80.4933 21.0919 80.2223 20.539 80.0671 19.9197Z" fill="#8E6854"/>
<path d="M85.2482 27.973L84.9144 27.4147L88.5994 25.2673L85.3938 25.5614L85.195 25.2283L87.0089 22.6086L83.3242 24.756L83.0124 24.2343L87.2887 21.7421L87.7436 22.5035L86.0323 25.0102L89.0607 24.7056L89.5245 25.4808L85.2482 27.973Z" fill="#8E6854"/>
<path d="M87.2773 32.4751L85.9947 29.5184L90.5522 27.5876L91.8345 30.5443L91.2955 30.7727L90.2724 28.4129L89.0234 28.9417L90.0472 31.3018L89.5082 31.5301L88.4847 29.17L86.7922 29.887L87.816 32.2471L87.2773 32.4751Z" fill="#8E6854"/>
<path d="M92.9772 35.9746L92.4676 34.3027L88.2862 35.5524L88.0965 34.9299L92.278 33.6806L91.7688 32.0087L92.3295 31.8411L93.5376 35.807L92.9772 35.9746Z" fill="#8E6854"/>
<path d="M89.3601 40.0658L88.9798 38.1719L89.4752 38.0736L89.6016 38.7018L93.4649 37.9354L93.3388 37.3076L93.8342 37.2092L94.2149 39.1034L93.7188 39.2014L93.5931 38.5732L89.7295 39.3396L89.8559 39.9678L89.3601 40.0658Z" fill="#8E6854"/>
<path d="M90.3499 45.3763C90.2845 45.2573 90.2245 45.1529 90.1695 45.0634C89.9315 44.6724 89.7902 44.2396 89.7448 43.7641C89.672 43.0031 89.8392 42.3944 90.2462 41.9377C90.6531 41.4807 91.2593 41.214 92.0644 41.1373C92.8719 41.0606 93.5203 41.2168 94.0111 41.6071C94.5012 41.997 94.7813 42.5549 94.8506 43.2811C94.9024 43.8237 94.8108 44.388 94.575 44.9739L93.7973 45.0478L93.7927 44.9988C94.1784 44.4494 94.3435 43.8805 94.2874 43.2918C94.2373 42.7705 94.0203 42.3791 93.6354 42.1163C93.2508 41.8539 92.7487 41.752 92.129 41.8109C91.5175 41.8695 91.0491 42.0656 90.7227 42.4004C90.3964 42.7349 90.2579 43.1607 90.3073 43.6774C90.3669 44.2989 90.6354 44.8255 91.113 45.2577L91.1173 45.3031L90.3499 45.3763Z" fill="#8E6854"/>
<path d="M90.3243 46.5556L91.1481 46.5766L91.1471 46.622C90.9351 46.856 90.7678 47.1355 90.6449 47.4608C90.5228 47.7864 90.4578 48.0915 90.45 48.3759C90.4401 48.779 90.5086 49.0943 90.6556 49.323C90.8026 49.551 91.0036 49.6685 91.2582 49.6746C91.5395 49.682 91.7366 49.5954 91.8484 49.4153C91.9603 49.2349 92.053 48.9366 92.1258 48.5197C92.2138 48.0251 92.3104 47.6607 92.4148 47.4281C92.5192 47.1952 92.6702 47.008 92.868 46.8677C93.0658 46.7268 93.3225 46.6604 93.6396 46.6682C94.0537 46.6788 94.3886 46.8603 94.6446 47.2129C94.9006 47.5655 95.0217 48.008 95.0079 48.54C94.9926 49.1508 94.8623 49.7168 94.6187 50.2388L93.841 50.2193L93.8424 50.1735C94.0043 49.9935 94.1425 49.7516 94.2565 49.448C94.3708 49.1437 94.4315 48.8354 94.4401 48.5222C94.4486 48.1742 94.3829 47.8926 94.2423 47.6778C94.1016 47.4626 93.9159 47.3521 93.6854 47.3468C93.4926 47.3418 93.3428 47.3795 93.2352 47.4601C93.1279 47.5407 93.0455 47.6565 92.9883 47.807C92.9315 47.9579 92.8633 48.2342 92.7845 48.6352C92.6389 49.383 92.4493 49.8585 92.216 50.062C91.9827 50.2651 91.6883 50.3628 91.3339 50.3535C90.9219 50.3432 90.5732 50.1604 90.2874 49.8049C90.0018 49.4491 89.8665 48.9661 89.8825 48.3553C89.8985 47.7332 90.0455 47.1337 90.3243 46.5556Z" fill="#8E6854"/>
<path d="M90.8243 53.1484C90.8176 53.0369 90.7743 53.0806 90.753 53.2159C90.7022 53.494 90.689 53.8871 90.585 54.2969C90.4916 54.9137 90.39 55.5813 90.292 56.2312C90.2629 56.4372 90.2505 56.6928 90.2604 56.7649C90.2703 56.8363 90.3119 56.7841 90.3506 56.6449C90.5619 55.7742 90.9365 54.0121 90.8243 53.1484Z" fill="#8E6854"/>
<path d="M24.3886 15.3139L24.4255 15.3338L24.1063 15.5316L24.3886 15.3139ZM90.0879 57.6535C89.8497 58.4358 89.6014 59.255 89.3468 60.0903C88.8148 61.8168 88.073 63.3104 87.4874 64.5818C86.8248 65.6965 86.1046 67.108 85.3429 68.6006C84.7552 69.5754 84.2275 70.379 83.6891 71.0835C83.2364 71.7256 82.6572 72.3566 82.0382 73.0676C80.9903 74.2885 80.4345 74.8126 80.1121 74.9387C80.0162 74.972 79.7456 75.1904 79.4778 75.4234C79.3486 75.536 79.0315 75.8854 78.8106 76.1251C78.7179 76.226 78.6003 76.3779 78.5869 76.412C78.4018 76.7728 77.9523 77.5523 76.5623 78.7185C75.3997 79.7185 74.3095 80.7302 73.0812 81.5232C72.5503 81.7931 71.9285 82.1461 71.2527 82.5484C71.1106 82.5679 70.8422 82.6599 70.53 82.8076C68.9125 83.5406 67.1959 84.0296 65.5105 84.6702C65.3145 84.7537 65.0975 84.8268 64.8716 84.8961C66.0946 84.4078 68.301 83.3236 69.3983 82.5058C71.2715 81.0626 73.247 79.7068 74.8162 78.102C75.1248 77.8169 75.5091 77.5317 75.3542 77.5953L76.0371 76.8147C75.8688 76.8833 74.5219 78.1986 73.7754 78.749C72.2708 80.0839 70.03 81.819 67.9274 83.1134C67.4114 83.4312 64.1071 84.9557 64.0158 85.0992C63.9231 85.1429 63.8294 85.1833 63.7363 85.2267C63.7274 85.2292 63.7179 85.232 63.709 85.2348C62.7243 85.5211 61.8695 85.8723 61.8542 85.9934C61.8524 86.0079 61.8617 86.0189 61.8791 86.0278C60.5556 86.5346 59.2029 86.9398 57.8286 87.3432C57.8176 87.3467 57.8066 87.3492 57.7953 87.3517C56.5154 87.5928 55.2416 87.901 53.9554 88.1081C53.9458 88.1095 53.9366 88.1109 53.9266 88.1116C53.7921 88.1248 53.6319 88.1283 53.557 88.1237C53.4863 88.1187 53.4529 88.0935 53.5179 88.0807C53.8869 88.0111 54.2626 87.9376 54.6752 87.824C55.8563 87.5346 57.0637 87.3112 58.2281 86.9802C59.3759 86.5885 60.5137 86.2132 61.5968 85.808L61.4945 85.8581C61.8979 85.6628 62.3105 85.4632 62.7001 85.2746C62.9302 85.1549 63.1234 85.0544 63.3329 84.9447L62.6206 85.205C62.612 85.2079 62.6039 85.2114 62.5957 85.215C61.5662 85.6997 60.4682 85.9991 59.3862 86.3432L57.7647 86.8456C57.7537 86.8492 57.7427 86.852 57.7317 86.8545L56.0694 87.2054C54.954 87.4596 53.8382 87.6912 52.7129 87.7569C48.993 88.2462 45.2491 88.0715 41.5584 87.5434C40.7682 87.4028 39.966 87.2608 39.1716 87.1191C39.1635 87.1177 39.1553 87.1159 39.1471 87.1138C34.7228 86.0527 30.4855 84.2235 26.6656 81.7764L24.6769 80.4234C24.6695 80.4181 24.6624 80.4131 24.6549 80.4074C24.0214 79.9163 23.4213 79.379 22.7963 78.8726C19.4561 76.0601 16.5622 72.6936 14.331 68.9557C12.2256 65.3108 10.6712 61.3513 9.7451 57.2589C8.44361 51.2678 8.36193 44.9422 9.97841 38.9915C10.8431 35.3647 12.434 31.9574 14.2174 28.6953C14.2224 28.6868 14.2274 28.6779 14.2327 28.6698C16.1592 25.6786 18.2739 22.7994 20.9063 20.5284C20.9124 20.5231 20.9181 20.5177 20.9237 20.5121C21.5658 19.8416 22.3563 19.2681 23.0963 18.6598C26.3446 16.0593 29.9575 13.8501 33.8907 12.4421C33.8975 12.4396 33.9039 12.4368 33.9103 12.4339C34.3421 12.2333 34.8048 12.0863 35.2562 11.9442C37.5012 11.1299 39.819 10.549 42.22 10.1743C42.2281 10.1733 42.2366 10.1722 42.2448 10.1715C43.5005 10.0664 44.7569 9.79401 46.0211 9.75672C46.0967 9.75423 46.1912 9.72334 46.1756 9.70843C46.1603 9.69458 46.0207 9.67433 45.9202 9.67327C44.4884 9.71801 43.0658 9.9396 41.6358 10.0614C41.6209 10.0628 41.606 10.065 41.5914 10.0685C40.1912 10.3824 38.7604 10.5806 37.3769 10.9794C36.4461 11.266 35.498 11.5689 34.6542 11.7734C33.536 12.0966 32.379 12.6282 31.1674 13.1065C31.1578 13.1101 31.1485 13.1143 31.1397 13.1189C29.7004 13.8412 28.243 14.5415 26.8808 15.3824C23.8304 17.1893 21.1187 19.5213 18.624 22.1172C18.6187 22.1225 18.6137 22.1282 18.6088 22.1339C18.2994 22.494 17.977 22.8679 17.6869 23.2042C17.5061 23.4091 17.3325 23.5728 17.1986 23.6935C17.0367 23.8388 17.2348 23.4656 17.4937 23.1339L18.3754 22.0071C18.3836 21.9964 18.3925 21.9865 18.4021 21.9769L19.4039 20.951C21.8975 18.2635 24.7217 16.1502 27.6631 14.2202C27.6691 14.2162 27.6759 14.212 27.6819 14.2084C28.7423 13.6001 29.389 13.1601 29.5196 12.929C29.6162 12.7702 29.9394 12.4886 30.4444 12.1807C30.4518 12.1761 30.4596 12.1719 30.4674 12.1676C30.9905 11.8881 31.6809 11.5575 32.4536 11.2031C33.1862 10.8668 33.9376 10.4961 34.7416 10.2755L37.6049 9.3597C37.6166 9.3558 37.6283 9.3526 37.6404 9.35011L40.5797 8.72582C44.7242 8.01595 48.9416 7.86716 53.1102 8.33094C53.1188 8.33165 53.1273 8.33307 53.1358 8.33449C54.6056 8.59656 56.0999 8.79862 57.5186 9.08555C57.5254 9.08697 57.5321 9.08875 57.5385 9.09017C58.2715 9.28016 58.9316 9.40409 59.5733 9.53442C59.7608 9.57242 59.8723 9.5781 59.9206 9.56212C62.9007 10.4013 65.7729 11.5799 68.464 13.1037C69.2235 13.6026 70.0023 14.082 70.7573 14.5699C70.5623 14.4861 70.3375 14.3807 70.1223 14.2809C69.1998 13.8523 69.3372 14.1165 69.97 14.7148C70.5535 15.3292 71.5915 15.9481 72.617 16.9439C73.8496 18.0227 75.0755 19.0792 76.1426 20.3299C77.3077 21.4822 78.2928 22.8136 79.3383 24.1555C81.8184 27.5426 83.8109 31.2866 85.2378 35.3097C86.3802 38.7163 87.1298 42.2816 87.3631 45.8378C87.4303 46.4748 87.3855 47.1524 87.4189 47.7948C87.4612 49.0327 87.4963 50.2582 87.3315 51.4695C87.2055 52.6819 87.1565 53.8985 86.8663 55.0903C86.2875 58.9585 84.8979 62.6794 83.2136 66.2025C82.4558 67.6503 81.7342 69.1194 80.7772 70.4486C80.3138 71.1201 79.9189 71.8421 79.4054 72.4777L77.866 74.3818C77.856 74.3953 77.8454 74.4088 77.8354 74.422C79.0865 73.3126 80.1927 72.0569 81.2222 70.6148C81.7758 69.8392 82.3212 69.0654 82.8866 68.3119L83.9249 66.3318C86.404 61.2447 87.8578 55.689 88.1149 50.0579C88.2666 45.5981 87.7506 41.1183 86.3507 36.8203C86.2058 36.3551 86.0524 35.8615 85.9054 35.3892C84.6696 31.9727 83.1749 28.5877 81.0638 25.6144C80.579 24.8107 80.1153 24.0735 79.5787 23.3874C79.2932 22.9964 79.2204 22.723 79.4473 22.9276C79.731 23.1914 80.079 23.5156 80.3748 23.7905C80.9086 24.2788 80.7417 23.913 79.9938 22.9517C79.5876 22.4325 79.1802 21.9126 78.7662 21.3842C78.1398 20.5746 77.3837 19.9133 76.7257 19.1804C76.0599 18.4506 75.3862 17.7525 74.6415 17.1399C73.8173 16.408 73.1664 15.8572 72.6145 15.4439C72.5638 15.4101 72.5144 15.3792 72.4647 15.348C72.388 15.2855 72.313 15.2258 72.2449 15.1754C71.5748 14.6221 70.7715 14.2326 70.0385 13.7681C69.2928 13.3231 68.5716 12.8597 67.8013 12.5497C66.7654 12.1172 65.8777 11.5518 64.8226 11.1058C63.5517 10.516 62.2963 9.93499 60.8642 9.63066C60.3588 9.49891 59.8443 9.3455 59.3219 9.20487C58.9387 9.05999 58.4462 8.90125 58.0893 8.81602C57.1245 8.53229 56.0921 8.48328 55.1014 8.32277C54.1046 8.18889 53.1266 8.02376 52.1663 8.04436C50.8663 8.05608 49.6646 7.85792 48.3389 7.86396C46.7182 7.8146 45.1177 7.76773 43.455 8.0955C42.3332 8.26453 41.1432 8.36396 39.9902 8.64344C39.0037 8.86254 37.9976 8.98861 37.0452 9.26382C36.0885 9.53264 35.1475 9.79685 34.2327 10.0536C32.851 10.4634 31.5076 11.0873 30.0761 11.663C30.064 11.6676 30.0527 11.6733 30.0409 11.679L26.488 13.5785C26.476 13.5849 26.4646 13.592 26.4536 13.5998C25.2117 14.4702 23.8573 15.2432 22.7224 16.2067C21.5232 17.2624 20.2465 18.2155 19.183 19.4126L17.5083 21.1094C17.5012 21.1168 17.4941 21.1243 17.4877 21.1321C16.9759 21.7454 16.4628 22.3608 15.9443 22.9815C15.7387 23.2255 15.4972 23.5316 15.3303 23.7603C14.9671 24.2202 14.6855 24.7152 14.4436 25.1754C14.2245 25.5767 14.4965 25.3892 14.8293 24.9126C15.1691 24.3668 15.6613 23.9116 16.0551 23.3952C16.911 22.354 17.7124 21.2731 18.7135 20.4268C19.2749 19.9066 19.7639 19.5351 19.8144 19.6087C19.8616 19.679 19.3783 20.2887 18.7892 20.8785C17.9227 21.669 17.2458 22.6246 16.5079 23.5185C16.1517 23.9691 15.7803 24.4073 15.4401 24.8675C15.434 24.8757 15.4283 24.8842 15.4227 24.8928L14.5015 26.3402C14.1446 26.8786 13.7668 27.4496 13.4021 28.0004C11.0977 31.8647 9.42088 36.0231 8.30973 40.152C8.11122 41.0636 7.90738 41.9993 7.7 42.9521C7.69822 42.961 7.69645 42.9702 7.69502 42.9794C7.13217 46.8541 6.90774 50.7522 7.51143 54.8072C7.80049 56.4546 8.07322 58.1101 8.49439 59.7209C9.39815 63.281 10.8609 66.6585 12.6304 69.8992C12.6343 69.9067 12.6389 69.9138 12.6432 69.9213C14.4241 72.7799 16.4344 75.5761 18.9259 77.8637C19.7554 78.7071 20.6155 79.504 21.5661 80.1961C22.5029 80.8996 23.3644 81.6993 24.3875 82.2828C26.7426 83.873 29.297 85.2359 31.7835 86.1539C32.3421 86.3616 33.0097 86.6106 33.6194 86.8375C35.1201 87.46 36.7878 87.7334 38.2704 88.1503C38.2807 88.1532 38.291 88.1557 38.3013 88.1574C42.1784 88.8733 46.3013 89.2302 50.4075 88.9383C54.6617 88.5761 58.9121 87.5875 62.8666 85.9426C63.0609 85.9042 63.2736 85.8559 63.4956 85.7988C63.8901 85.6915 64.3091 85.5772 64.7182 85.4664C64.921 85.4007 65.1341 85.3563 65.3287 85.2697C66.8446 84.6795 67.3929 84.5768 66.7413 84.9905C66.1859 85.3179 65.4831 85.7917 64.4537 86.1223C62.9206 86.6787 61.6809 87.1795 60.8127 87.6091C60.1319 87.9465 58.4515 88.1745 57.9458 88.5147C56.1362 89.7309 61.1603 88.0839 61.6831 87.9614C62.1997 87.8322 62.9373 87.5999 63.4086 87.4319C64.324 87.1077 64.7005 86.8904 64.8386 86.7341C64.9977 86.5353 65.2342 86.3957 66.2296 85.878C67.068 85.4504 67.7338 85.0949 68.2967 84.7728C68.8574 84.5665 69.6334 84.2043 70.524 83.5846C70.9182 83.3158 71.4721 82.9369 72.0858 82.5182C73.4732 81.6216 74.8447 80.7075 76.0865 79.6308C77.5052 78.5704 78.7424 77.325 80.0002 76.075C80.7523 75.3932 81.3908 74.5271 82.0627 73.7231C82.5517 73.1116 83.0734 72.521 83.535 71.8893L84.8443 69.9323C85.4498 69.0693 85.9995 68.173 86.4633 67.2281C86.9409 66.2916 87.4871 65.3815 87.904 64.417L87.905 64.3758C88.5386 62.7099 89.3269 61.0913 89.7463 59.3481C89.8845 58.8428 90.0272 58.3211 90.1678 57.8072C90.2034 57.6748 90.252 57.4202 90.2421 57.4273C90.2026 57.4543 90.1451 57.472 90.0879 57.6535Z" fill="#8E6854"/>
<path d="M74.1346 76.4969C74.0288 76.5967 73.9084 76.7373 73.8896 76.7778C73.836 76.8879 74.0359 76.7504 74.3896 76.4234C74.7997 76.0303 75.234 75.6634 75.5735 75.2199C75.6406 75.1418 75.6897 75.0391 75.6552 75.0551C75.6179 75.0729 75.4727 75.2188 75.309 75.3687C74.9816 75.7348 74.5366 76.1027 74.1346 76.4969Z" fill="#8E6854"/>
<path d="M17.1788 50.7369C16.0559 50.7369 15.0556 50.49 14.177 49.9961C13.2985 49.5021 12.6163 48.7951 12.1302 47.875C11.644 46.9552 11.4011 45.9077 11.4011 44.7329C11.4011 43.5479 11.6454 42.4954 12.1341 41.5753C12.6227 40.6552 13.3141 39.9442 14.2079 39.4428C15.1021 38.941 16.1263 38.6903 17.2804 38.6903C18.0027 38.6903 18.7186 38.7681 19.4281 38.9243C20.138 39.0802 20.7811 39.3089 21.3582 39.6101V42.012H21.0929C20.4327 41.5128 19.8283 41.1594 19.28 40.9513C18.7317 40.7436 18.1717 40.6395 17.6 40.6395C16.4146 40.6395 15.5116 40.9904 14.8905 41.6921C14.2694 42.3938 13.9586 43.4052 13.9586 44.7251C13.9586 46.0401 14.2665 47.0515 14.8826 47.7581C15.4984 48.4655 16.4018 48.8189 17.5922 48.8189C18.2158 48.8189 18.8045 48.7198 19.3582 48.5227C19.9118 48.3249 20.4977 47.9844 21.1163 47.501H21.3582V49.6921C20.0947 50.3888 18.7019 50.7369 17.1788 50.7369Z" fill="#8E6854"/>
<path d="M31.8996 44.7408C31.8996 43.4049 31.6123 42.3679 31.0381 41.6297C30.4635 40.8917 29.6567 40.5228 28.6169 40.5228C27.5878 40.5228 26.7834 40.8942 26.2039 41.6375C25.6243 42.3811 25.3346 43.4155 25.3346 44.7408C25.3346 45.5778 25.4631 46.3147 25.7202 46.9514C25.9777 47.5881 26.353 48.0807 26.847 48.429C27.341 48.777 27.9308 48.951 28.6169 48.951C29.6616 48.951 30.4699 48.586 31.042 47.8555C31.6137 47.1254 31.8996 46.087 31.8996 44.7408ZM28.6169 38.6669C29.7344 38.6669 30.7337 38.9269 31.6151 39.4468C32.4962 39.9663 33.1783 40.6929 33.6616 41.6257C34.145 42.559 34.3868 43.5895 34.3868 44.7174C34.3868 45.8559 34.1531 46.8917 33.6851 47.8246C33.217 48.7579 32.5466 49.4802 31.6734 49.9922C30.8001 50.504 29.7813 50.76 28.6169 50.76C27.4525 50.76 26.4351 50.5054 25.5643 49.9961C24.6936 49.4866 24.0246 48.7721 23.5569 47.852C23.0888 46.9319 22.8552 45.8846 22.8552 44.7096C22.8552 43.5714 23.0952 42.537 23.5764 41.6062C24.0569 40.6758 24.7341 39.9535 25.6073 39.4386C26.4805 38.9244 27.4837 38.6669 28.6169 38.6669Z" fill="#8E6854"/>
<path d="M45.4352 47.0407C45.4352 47.7893 45.2388 48.4391 44.8467 48.9899C44.454 49.5411 43.8926 49.9686 43.1624 50.273C42.432 50.5769 41.607 50.7289 40.6866 50.7289C39.7771 50.7289 38.9494 50.6561 38.2036 50.5105C37.4575 50.3649 36.7466 50.1337 36.0708 49.8166V47.5947H36.3517C36.9337 48.0467 37.6109 48.3976 38.383 48.6469C39.1546 48.8969 39.9277 49.0215 40.7022 49.0215C41.4771 49.0215 42.0641 48.8827 42.4646 48.6043C42.8649 48.3262 43.0648 47.9324 43.0648 47.4228C43.0648 47.1526 42.9895 46.9303 42.8386 46.7563C42.688 46.5822 42.4398 46.4224 42.0943 46.2768C41.7484 46.1313 40.9831 45.9104 39.7981 45.6138C38.8414 45.3749 38.1085 45.1099 37.5992 44.8187C37.0896 44.5276 36.7065 44.1703 36.449 43.7467C36.1919 43.323 36.0634 42.8148 36.0634 42.2225C36.0634 41.5624 36.2619 40.9604 36.6599 40.4175C37.0573 39.8741 37.607 39.4516 38.3087 39.1504C39.0104 38.8489 39.7747 38.698 40.601 38.698C42.0772 38.698 43.4909 38.9633 44.8425 39.4935V41.5751H44.5776C44.1255 41.2321 43.5666 40.9516 42.9011 40.7332C42.236 40.5148 41.4874 40.4054 40.6557 40.4054C39.9902 40.4054 39.4561 40.5407 39.0534 40.8109C38.6504 41.0812 38.449 41.4452 38.449 41.9026C38.449 42.1991 38.531 42.4484 38.6948 42.6511C38.8585 42.8539 39.1067 43.0268 39.4394 43.1696C39.7718 43.3127 40.3073 43.4597 41.0456 43.6103C41.9448 43.7974 42.5815 43.9533 42.9558 44.078C43.3301 44.2026 43.6706 44.3482 43.9771 44.5148C44.2839 44.681 44.5435 44.8809 44.7569 45.1153C44.97 45.3489 45.1362 45.6231 45.2558 45.9377C45.3755 46.252 45.4352 46.6195 45.4352 47.0407Z" fill="#8E6854"/>
<path d="M59.2517 50.5183H56.9595V41.6998L54.1445 47.7271H52.6164L49.7861 41.6998V50.5183H47.6185V38.9086H50.4175L53.4349 45.2946L56.468 38.9086H59.2517V50.5183Z" fill="#8E6854"/>
<path d="M70.7056 44.7408C70.7056 43.4049 70.4183 42.3679 69.8441 41.6297C69.2695 40.8917 68.4627 40.5228 67.4232 40.5228C66.3938 40.5228 65.5894 40.8942 65.0099 41.6375C64.4303 42.3811 64.1406 43.4155 64.1406 44.7408C64.1406 45.5778 64.2691 46.3147 64.5266 46.9514C64.7837 47.5881 65.1594 48.0807 65.653 48.429C66.147 48.777 66.7368 48.951 67.4232 48.951C68.4676 48.951 69.2762 48.586 69.848 47.8555C70.4194 47.1254 70.7056 46.087 70.7056 44.7408ZM67.4232 38.6669C68.5404 38.6669 69.5401 38.9269 70.4211 39.4468C71.3022 39.9663 71.9847 40.6929 72.4676 41.6257C72.951 42.559 73.1931 43.5895 73.1931 44.7174C73.1931 45.8559 72.9591 46.8917 72.4911 47.8246C72.0234 48.7579 71.3526 49.4802 70.4794 49.9922C69.6061 50.504 68.5873 50.76 67.4232 50.76C66.2588 50.76 65.2411 50.5054 64.3703 49.9961C63.4999 49.4866 62.8306 48.7721 62.3629 47.852C61.8948 46.9319 61.6612 45.8846 61.6612 44.7096C61.6612 43.5714 61.9012 42.537 62.3824 41.6062C62.8629 40.6758 63.5401 39.9535 64.4133 39.4386C65.2865 38.9244 66.2897 38.6669 67.4232 38.6669Z" fill="#8E6854"/>
<path d="M84.2412 47.0407C84.2412 47.7893 84.0448 48.4391 83.6527 48.9899C83.26 49.5411 82.6986 49.9686 81.9688 50.273C81.238 50.5769 80.413 50.7289 79.4929 50.7289C78.5831 50.7289 77.7554 50.6561 77.0096 50.5105C76.2635 50.3649 75.5526 50.1337 74.8772 49.8166V47.5947H75.1577C75.7401 48.0467 76.4169 48.3976 77.189 48.6469C77.9606 48.8969 78.7337 49.0215 79.5086 49.0215C80.2831 49.0215 80.8704 48.8827 81.2706 48.6043C81.6709 48.3262 81.8708 47.9324 81.8708 47.4228C81.8708 47.1526 81.7955 46.9303 81.6446 46.7563C81.494 46.5822 81.2458 46.4224 80.9003 46.2768C80.5544 46.1313 79.7891 45.9104 78.6041 45.6138C77.6478 45.3749 76.9145 45.1099 76.4052 44.8187C75.8956 44.5276 75.5125 44.1703 75.255 43.7467C74.9979 43.323 74.8694 42.8148 74.8694 42.2225C74.8694 41.5624 75.0682 40.9604 75.4659 40.4175C75.8633 39.8741 76.413 39.4516 77.1151 39.1504C77.8164 38.8489 78.5807 38.698 79.407 38.698C80.8836 38.698 82.2969 38.9633 83.6485 39.4935V41.5751H83.3836C82.9315 41.2321 82.3726 40.9516 81.7071 40.7332C81.042 40.5148 80.2934 40.4054 79.4617 40.4054C78.7962 40.4054 78.2621 40.5407 77.8594 40.8109C77.4567 41.0812 77.255 41.4452 77.255 41.9026C77.255 42.1991 77.337 42.4484 77.5011 42.6511C77.6645 42.8539 77.9127 43.0268 78.2454 43.1696C78.5782 43.3127 79.1137 43.4597 79.8516 43.6103C80.7508 43.7974 81.3875 43.9533 81.7621 44.078C82.1361 44.2026 82.4766 44.3482 82.7834 44.5148C83.0899 44.681 83.3495 44.8809 83.5633 45.1153C83.776 45.3489 83.9422 45.6231 84.0618 45.9377C84.1815 46.252 84.2412 46.6195 84.2412 47.0407Z" fill="#8E6854"/>
<path d="M24.4602 58.5192C24.4602 58.8693 24.3686 59.1737 24.185 59.4311C24.0011 59.6893 23.7383 59.8889 23.3967 60.0316C23.055 60.1737 22.669 60.2447 22.2383 60.2447C21.8125 60.2447 21.4254 60.211 21.0763 60.1428C20.7273 60.0746 20.3945 59.9663 20.0785 59.8178V58.7781H20.2099C20.4822 58.9897 20.799 59.1538 21.1605 59.2706C21.5217 59.3874 21.8835 59.4457 22.2457 59.4457C22.6083 59.4457 22.8828 59.381 23.0703 59.2507C23.2575 59.1204 23.3512 58.9364 23.3512 58.6978C23.3512 58.5714 23.316 58.4673 23.2454 58.386C23.1747 58.3047 23.0586 58.2301 22.897 58.1616C22.7351 58.0938 22.3771 57.9901 21.8224 57.8516C21.375 57.7397 21.032 57.6158 20.7937 57.4794C20.5554 57.343 20.3761 57.1761 20.2557 56.9776C20.1353 56.7798 20.0749 56.5419 20.0749 56.2646C20.0749 55.9556 20.168 55.674 20.354 55.4197C20.5401 55.1658 20.7972 54.968 21.1257 54.8271C21.4542 54.6861 21.8114 54.6154 22.1981 54.6154C22.8892 54.6154 23.5504 54.7393 24.1832 54.9876V55.9617H24.0589C23.8473 55.8011 23.5859 55.6701 23.2745 55.5675C22.9631 55.4656 22.6129 55.4144 22.2237 55.4144C21.9126 55.4144 21.6626 55.478 21.4741 55.6041C21.2859 55.7305 21.1914 55.9009 21.1914 56.1147C21.1914 56.2536 21.2294 56.37 21.3065 56.4652C21.3828 56.56 21.4989 56.641 21.6548 56.7077C21.8104 56.7749 22.0607 56.8434 22.4062 56.9137C22.8271 57.0018 23.125 57.0746 23.3001 57.1328C23.4755 57.1914 23.6346 57.2592 23.7781 57.3374C23.9215 57.4151 24.043 57.5085 24.1428 57.6179C24.2425 57.7276 24.3203 57.8558 24.3764 58.0032C24.4322 58.1502 24.4602 58.3221 24.4602 58.5192Z" fill="#8E6854"/>
<path d="M31.4907 55.586H29.6008V60.1464H28.4847V55.586H26.5912V54.7139H31.4907V55.586Z" fill="#8E6854"/>
<path d="M34.7891 58.1069H36.3836L35.5845 55.9073L34.7891 58.1069ZM36.646 58.9133H34.5153L34.0703 60.1463H32.9212L34.9862 54.7137H36.201L38.266 60.1463H37.1023L36.646 58.9133Z" fill="#8E6854"/>
<path d="M45.2676 60.1463H44.1184L41.7505 56.2426V60.1463H40.7434V54.7138H41.9437L44.2569 58.5593V54.7138H45.2676V60.1463Z" fill="#8E6854"/>
<path d="M52.0645 57.4247C52.0645 56.8143 51.8919 56.3576 51.5464 56.0551C51.2008 55.7518 50.6731 55.6005 49.9629 55.6005H49.4668V59.2635H49.9299C51.3528 59.2635 52.0645 58.6506 52.0645 57.4247ZM53.2427 57.4358C53.2427 57.9901 53.1224 58.4688 52.882 58.8711C52.6408 59.2738 52.2747 59.587 51.7836 59.8108C51.2921 60.0348 50.7197 60.1463 50.0652 60.1463H48.3727V54.7138H50.029C51.1011 54.7138 51.9054 54.9464 52.4405 55.4109C52.975 55.8754 53.2427 56.5505 53.2427 57.4358Z" fill="#8E6854"/>
<path d="M57.2268 58.1069H58.8209L58.0222 55.9073L57.2268 58.1069ZM59.0837 58.9133H56.953L56.508 60.1463H55.3585L57.4239 54.7137H58.6391L60.7037 60.1463H59.54L59.0837 58.9133Z" fill="#8E6854"/>
<path d="M66.1109 56.341C66.1109 55.8208 65.7203 55.5605 64.9397 55.5605H64.2941V57.2678H64.8815C65.3119 57.2678 65.6244 57.1922 65.8193 57.0416C66.0139 56.8911 66.1109 56.6574 66.1109 56.341ZM68.0882 60.1464H66.7057L65.0271 58.0487H64.3012V60.1464H63.1812V54.7139H65.2572C65.8967 54.7139 66.3868 54.841 66.7274 55.0953C67.0679 55.3495 67.2384 55.7089 67.2384 56.1734C67.2384 56.5576 67.1453 56.8865 66.9592 57.1602C66.7728 57.4337 66.4965 57.646 66.1293 57.797L68.0882 60.1464Z" fill="#8E6854"/>
<path d="M74.0753 57.4247C74.0753 56.8143 73.9031 56.3576 73.5572 56.0551C73.212 55.7518 72.6839 55.6005 71.9741 55.6005H71.478V59.2635H71.941C73.364 59.2635 74.0753 58.6506 74.0753 57.4247ZM75.2536 57.4358C75.2536 57.9901 75.1332 58.4688 74.8928 58.8711C74.652 59.2738 74.2859 59.587 73.7944 59.8108C73.3033 60.0348 72.7305 60.1463 72.076 60.1463H70.3835V54.7138H72.0398C73.1122 54.7138 73.9162 54.9464 74.4513 55.4109C74.9862 55.8754 75.2536 56.5505 75.2536 57.4358Z" fill="#8E6854"/>
</svg>
