<svg width="96" height="88" viewBox="0 0 96 88" fill="none" xmlns="http://www.w3.org/2000/svg">
<mask id="mask0_32_812" style="mask-type:luminance" maskUnits="userSpaceOnUse" x="0" y="-1" width="96" height="66">
<path d="M0.8078 -0.0057373H96V64.3027H0.8078V-0.0057373Z" fill="white"/>
</mask>
<g mask="url(#mask0_32_812)">
<path fill-rule="evenodd" clip-rule="evenodd" d="M48.4043 -0.00683594C49.862 2.49711 51.2297 5.09199 52.5991 7.68327C54.6493 5.57819 56.4032 3.17689 58.4255 1.0421C59.2106 3.86838 60.0867 6.60462 60.8718 9.4318C63.3253 7.76791 65.5051 5.8303 67.9208 4.12949C68.1207 7.0368 68.4205 9.84507 68.5619 12.81C69.2696 12.6641 69.9476 12.3229 70.6003 11.9952C72.5091 11.0354 74.5575 10.0369 76.6013 9.14008C76.1908 12.0114 75.8306 14.9331 75.4363 17.8206C78.204 17.3065 81.1077 16.4232 84.0006 15.8398C83.0615 18.6291 82.0522 21.3492 81.087 24.1124C83.798 24.0998 87.2069 23.9846 89.8261 23.8792C88.5403 26.4003 86.7684 28.9393 85.2819 31.4532C88.1964 31.9556 91.0281 32.5426 93.9624 33.0261C92.0284 35.2276 89.9269 37.2633 87.9614 39.4341C90.5509 40.6514 93.3339 41.6742 96.0008 42.8132C93.7355 44.6257 91.1262 46.0942 88.8356 47.8814C91.2 49.575 93.704 51.13 96.0008 52.892C93.3285 54.0058 90.6508 55.1151 87.9614 56.2126C89.8612 58.469 92.032 60.4534 93.9624 62.6791C91.0884 63.1842 88.2432 63.7172 85.398 64.2521C84.7497 63.8721 84.079 63.5138 83.4172 63.1455C85.6042 57.9251 86.9863 52.1852 86.5055 45.3181C86.0544 38.8885 84.0988 33.4556 81.6119 29.0645C76.5734 20.1706 68.5448 13.5987 57.5512 10.8301C51.4845 9.30125 44.5327 9.41199 38.7334 10.9462C33.2222 12.4048 28.406 14.961 24.6353 17.9953C20.7754 21.1007 17.4863 24.9417 14.9643 29.4724C12.2605 34.329 10.2689 40.4443 10.2455 47.7068C10.2257 53.8527 11.6447 58.7004 13.4499 63.1455C12.7854 63.5093 12.1291 63.8829 11.4691 64.2521C8.6257 63.7163 5.78141 63.1815 2.90471 62.6791C4.84592 60.484 6.96271 58.4645 8.90572 56.2711C6.27932 55.0718 3.52237 54.0031 0.807739 52.892C3.16222 51.1678 5.65446 49.5831 8.03145 47.8814C5.69858 46.1365 3.21264 44.5446 0.807739 42.8717C3.44854 41.667 6.30363 40.6775 8.90572 39.4341C6.99782 37.2642 4.70637 35.1672 2.96324 33.0261C5.84264 32.5264 8.67432 31.979 11.5276 31.4532C10.2194 29.0321 8.33668 26.3706 7.04104 23.9378C9.62242 23.9513 13.2968 24.0503 15.7216 24.1709C14.9652 21.4311 13.7578 18.639 12.8674 15.8398C15.7774 16.4637 18.5712 17.2038 21.4308 17.8791C21.0608 14.9484 20.6826 12.0249 20.2658 9.14008C23.0065 10.3025 25.5221 11.6908 28.2476 12.8685C28.5267 10.0017 28.7122 7.0422 28.9463 4.12949C31.3215 5.85191 33.5751 7.69588 35.9377 9.4318C36.8471 6.70997 37.6268 3.85848 38.4425 1.0421C40.4522 3.16789 42.234 5.52327 44.2103 7.68327C45.6554 5.16762 47.0069 2.55743 48.4043 -0.00683594Z" fill="#8E6854"/>
</g>
<path fill-rule="evenodd" clip-rule="evenodd" d="M59.2988 17.4128C59.4456 17.9909 59.1251 19.101 59.1242 19.9177C58.6992 19.7601 58.267 19.6098 57.842 19.4522C58.2985 18.7436 58.8505 18.1295 59.2988 17.4128Z" fill="#8E6854"/>
<path fill-rule="evenodd" clip-rule="evenodd" d="M35.4714 20.1509C35.2499 19.6728 35.0779 19.1461 34.8303 18.695C35.1859 18.5239 35.5641 18.2205 35.9954 18.3448C36.8795 18.5987 36.4285 20.2257 35.4714 20.1509Z" fill="#8E6854"/>
<path fill-rule="evenodd" clip-rule="evenodd" d="M30.5778 21.0828C31.4511 20.9018 33.1528 22.5234 32.9079 23.8209C32.844 24.1621 32.4731 24.5718 32.0337 24.6366C31.2098 24.76 29.3614 23.1834 29.8205 21.7239C29.9205 21.4043 30.1411 21.1738 30.5778 21.0828Z" fill="#8E6854"/>
<path fill-rule="evenodd" clip-rule="evenodd" d="M69.2607 57.3194C68.8015 57.3329 68.6052 57.0826 68.1541 57.0871C68.7484 55.4745 69.3633 53.789 69.7271 51.9018C70.9606 45.5109 68.9915 39.392 66.348 35.5897C62.8707 30.5872 56.8706 26.152 48.4629 26.152C40.1074 26.152 34.1623 30.3828 30.5779 35.5897C28.8059 38.1621 27.2996 41.5529 26.8494 45.5514C26.3758 49.7499 27.2861 53.7827 28.7717 57.0285C28.3963 57.1186 28.073 57.2617 27.6652 57.3194C25.9211 54.0555 25.2116 49.7571 25.6258 45.4929C26.0184 41.4565 27.5832 37.7974 29.3543 35.1233C32.9918 29.6301 39.3088 25.3191 47.5887 24.9283C52.1635 24.7123 56.2377 26.0259 59.3575 27.7249C62.4773 29.4239 65.1748 31.8171 67.1052 34.5408C69.0293 37.2554 70.6482 40.8092 71.183 45.0274C71.7475 49.4735 70.9345 53.9402 69.2607 57.3194Z" fill="#8E6854"/>
<path fill-rule="evenodd" clip-rule="evenodd" d="M73.6888 27.7249C73.7932 27.7077 73.8085 27.7798 73.7464 27.7825C73.2584 28.4596 72.7956 29.1619 72.1743 29.7057C71.9663 29.3113 71.6044 29.0709 71.4171 28.6567C72.1842 28.356 72.9829 28.0868 73.6888 27.7249Z" fill="#8E6854"/>
<path fill-rule="evenodd" clip-rule="evenodd" d="M57.5512 37.2788C58.773 36.4351 57.6529 34.819 56.5023 34.8325C55.1652 34.8469 54.3171 35.8859 54.4629 37.3373C55.4812 37.0897 56.6058 37.9315 57.5512 37.2788ZM39.1997 36.5216C40.4927 36.4792 40.1325 35.162 41.2382 35.0648C42.5284 34.9522 42.7202 36.6044 41.8793 37.0456C41.4138 37.2905 40.6926 37.0564 40.1316 37.2212C39.3123 37.4616 38.6559 38.5096 38.9089 39.4343C38.9747 39.6765 39.2871 40.2626 39.957 40.1915C40.3297 40.1528 41.3687 39.0489 41.7046 38.7356C43.3343 37.2148 44.819 35.2989 47.0645 34.5407C48.3719 34.0996 50.8488 34.1851 51.8419 33.3171C52.7891 32.4897 52.9575 30.9167 54.6385 30.8123C56.2204 30.7141 56.9164 32.0971 58.0167 32.5599C58.954 32.9543 60.6071 32.5635 61.3958 33.3171C62.3844 34.2616 61.4723 36.1911 60.8133 36.8709C61.0564 38.5564 59.8255 39.1471 58.8324 39.9592C57.0515 41.4151 54.4503 42.8197 54.8132 46.1925C55.7847 46.2654 56.1052 46.2699 56.6769 46.0178C57.942 45.4587 57.2973 43.684 58.5416 43.6291C59.8201 43.5724 59.6869 44.9455 58.9495 45.4929C58.6596 45.7081 58.0158 45.89 58.1923 46.3672C58.4057 46.9461 59.8075 46.4482 60.1731 46.251C60.7124 45.9575 60.8412 45.4947 61.3373 45.3768C62.9345 44.9977 63.2272 47.3639 62.0369 47.6484C61.2184 47.8447 60.7962 47.2747 59.8228 47.3576C59.2592 47.4053 58.2823 47.6304 58.2508 48.1733C58.204 48.944 59.7553 48.9639 60.056 49.3969C60.5729 50.1397 59.9219 51.3264 58.8324 50.9699C58.2832 50.7889 58.05 50.0641 57.7844 49.5131C57.0137 48.8297 56.568 48.3759 55.2787 48.348C54.4926 48.3309 53.2105 48.9918 52.6577 48.5227C51.941 47.9158 52.591 46.0989 51.8995 45.3768C50.9965 46.396 49.8863 47.2081 48.6375 47.8816C49.2731 48.3075 50.1033 48.5668 50.2104 49.3969C50.4679 51.394 47.5282 51.7676 46.0741 52.3096C46.4325 53.68 48.3611 53.563 49.22 52.8922C49.8035 52.4366 49.9691 51.7577 50.5598 51.7271C51.0064 51.7037 51.48 52.0476 51.5502 52.3096C52.0319 54.0933 49.5532 53.0894 49.22 54.1734C49.6414 54.6785 50.3806 55.1179 51.434 55.1062C51.9617 55.0999 52.4659 54.8343 52.9485 54.9315C53.9947 55.1413 54.2171 56.6323 53.1232 57.087C51.7699 57.1032 50.9686 55.9238 49.5703 55.7464C48.9616 55.6698 48.2035 55.6861 48.1135 56.0966C47.9172 56.9907 49.898 56.7242 49.5117 58.2512C49.2876 59.1354 47.7857 59.1552 47.3562 58.3683C47.169 58.0261 47.1969 57.5552 47.0645 57.2032C46.8304 56.581 46.4298 55.8787 45.8409 55.4556C44.7839 54.6956 42.9462 54.3202 41.8793 53.9411C40.9762 53.6197 38.8486 52.785 38.6172 51.7271C38.1886 49.7697 40.4828 50.0695 40.9474 48.8144C39.0449 48.3462 36.8804 47.1667 37.7429 44.6772C36.4365 44.5151 35.8341 43.2789 35.8206 41.9976C35.8071 40.6903 36.5499 39.3649 36.6364 38.2692C36.6841 37.6605 36.513 36.735 36.17 36.4054C35.5433 35.8013 34.5898 36.2316 34.597 35.0648C34.6033 34.1005 35.7783 33.508 36.4617 34.1914C36.8633 34.593 36.5607 36.3181 37.2774 36.3469C37.7339 36.3649 38.1112 35.0395 38.2679 34.2499C38.5443 32.8525 38.2264 30.9293 39.6076 30.8123C40.3009 30.7538 40.924 31.2994 40.8312 32.152C40.7529 32.8678 39.966 33.6052 39.6076 34.1914C39.188 34.8775 38.6397 35.5266 39.1997 36.5216Z" fill="#8E6854"/>
<path fill-rule="evenodd" clip-rule="evenodd" d="M57.318 36.5801C56.9183 36.1641 55.9801 36.1461 55.4533 36.463C55.3417 35.2655 57.6575 35.0233 57.318 36.5801Z" fill="#8E6854"/>
<path fill-rule="evenodd" clip-rule="evenodd" d="M32.4416 37.512C32.5199 37.8226 32.1004 37.6372 31.9176 37.6867C31.9176 38.289 31.9176 38.8905 31.9176 39.4928C31.8014 39.4928 31.6844 39.4928 31.5682 39.4928C31.5115 39.1669 31.6034 38.3872 31.5682 37.7452C31.48 37.6002 31.0658 37.7803 30.9857 37.6281C30.9542 37.3256 31.4899 37.4688 31.7429 37.4535C32.004 37.4382 32.384 37.2545 32.4416 37.512Z" fill="#8E6854"/>
<path fill-rule="evenodd" clip-rule="evenodd" d="M33.1988 37.4534C33.3609 38.0108 33.5247 38.5654 33.6652 39.1434C33.8768 38.6167 34.0578 38.0603 34.1892 37.4534C34.3648 37.4534 34.5395 37.4534 34.7141 37.4534C34.6691 38.1971 34.7889 38.777 34.7727 39.4928C34.6871 39.5243 34.471 39.4244 34.4809 39.5513C34.3459 39.1425 34.4611 38.4835 34.4224 37.9774C34.1244 38.3592 34.0217 38.9363 33.8984 39.4928C33.7426 39.4928 33.5878 39.4928 33.432 39.4928C33.351 38.8949 33.1151 38.4501 33.0241 37.8613C32.8368 38.2953 33.1385 39.2182 32.7918 39.4928C32.4272 39.4415 32.6667 39.0048 32.6748 38.7356C32.6856 38.3781 32.6667 37.9603 32.6748 37.6281C32.7432 37.6191 32.7243 37.5219 32.7333 37.4534C32.8891 37.4534 33.0439 37.4534 33.1988 37.4534Z" fill="#8E6854"/>
<path fill-rule="evenodd" clip-rule="evenodd" d="M17.7025 37.6867C18.4417 37.6084 19.424 37.7902 20.2073 37.8614C20.1434 38.3215 19.9228 38.6249 19.858 39.085C19.0467 38.7122 18.4588 38.1153 17.7025 37.6867Z" fill="#8E6854"/>
<path fill-rule="evenodd" clip-rule="evenodd" d="M18.1103 44.3278C17.5215 44.3152 17.047 44.1883 16.4789 44.1532C16.0935 42.3992 18.6398 42.5433 18.1103 44.3278Z" fill="#8E6854"/>
<path fill-rule="evenodd" clip-rule="evenodd" d="M17.7025 68.0392C17.6908 70.3271 19.3583 72.5447 21.4894 72.6996C23.1452 72.8202 24.2761 72.0378 25.3341 71.069C25.217 70.4099 24.9325 69.9174 24.6939 69.379C24.0672 70.0921 23.6549 70.7719 22.6545 70.8943C19.2979 71.3022 18.5299 64.7808 22.7707 65.7091C22.6005 65.1418 22.4538 64.5503 22.1305 64.1361C19.6968 64.3252 17.7151 65.6226 17.7025 68.0392ZM75.6695 72.6996C77.5774 72.4367 79.2152 69.731 79.1063 67.6899C78.9631 65.0086 75.774 64.7502 73.8634 63.6697C72.7541 66.1331 71.6323 68.5858 70.5428 71.069C72.3328 71.548 73.3799 73.0147 75.6695 72.6996ZM24.7515 62.9125C25.6456 65.3786 26.4964 67.8871 27.1987 70.5441C28.9428 70.1317 30.4608 69.4951 32.1508 69.0296C32.0743 68.484 31.9986 67.9384 31.7429 67.5728C30.8092 67.7277 29.8242 68.3345 28.7132 68.5056C28.579 67.824 28.3242 67.2631 28.1306 66.6409C29.0085 66.3339 30.0403 66.1808 30.7525 65.7091C30.5391 65.339 30.6067 64.6898 30.2861 64.4269C29.4668 64.7529 28.5871 65.0194 27.7227 65.3012C27.5337 64.7529 27.3158 64.2324 27.1987 63.6112C28.0883 63.2771 29.0553 63.0214 29.9953 62.7378C29.8755 62.2552 29.8674 61.661 29.5874 61.3395C27.9659 61.8545 26.3173 62.3416 24.7515 62.9125ZM66.1733 61.1649C65.4665 63.8174 64.6111 66.3213 63.8431 68.9126C65.5313 69.361 67.053 69.975 68.7952 70.3694C68.923 69.8571 69.1913 69.4834 69.2607 68.9126C68.2081 68.6641 67.1493 68.4228 66.2318 68.0392C66.4218 67.4135 66.5866 66.7625 66.8144 66.1745C67.6697 66.4267 68.4629 66.74 69.3777 66.9318C69.6217 66.5743 69.7289 66.0791 69.9017 65.6505C69.086 65.2823 67.9974 65.1859 67.2222 64.7772C67.4068 64.2423 67.5166 63.6346 67.7462 63.1457C68.7655 63.3492 69.5497 63.7895 70.6004 63.9614C70.7436 63.5211 70.9237 63.1187 71.0668 62.6793C69.4849 62.1256 67.8318 61.6421 66.1733 61.1649ZM60.988 59.9998C60.5414 62.7378 59.9634 65.3435 59.4151 67.9807C60.1507 68.0617 60.7449 68.2823 61.5129 68.33C61.9361 65.5884 62.5583 63.0457 63.0859 60.4076C62.3773 60.2807 61.6714 60.1519 60.988 59.9998ZM38.2679 60.6985C37.1326 59.0499 34.2541 60.377 32.4416 60.5823C33.0179 63.1907 33.5266 65.8666 34.0146 68.5632C34.6827 68.4354 35.3066 68.2634 35.9954 68.1554C35.9432 67.2496 35.4066 66.0341 35.4129 65.068C36.2016 64.9455 36.596 65.7514 36.9858 66.2331C37.4171 66.7661 37.7637 67.4117 38.2679 67.806C38.8478 67.5125 39.7662 67.5566 40.3064 67.2235C40.2074 66.9237 39.8976 66.7562 39.6662 66.5248C38.9171 65.7757 38.168 64.9635 37.5684 64.1361C38.7947 63.6706 38.9567 61.6997 38.2679 60.6985ZM53.415 59.0094C53.2322 61.7978 52.8882 64.4251 52.5992 67.1064C53.3591 67.1046 54.0362 67.1848 54.6962 67.282C54.8907 66.2727 54.7439 64.9212 55.0464 64.019C55.9198 64.0389 56.6608 64.191 57.4928 64.2522C57.6368 63.8129 57.7161 63.3096 57.7845 62.7954C57.1335 62.6838 55.9621 62.7072 55.1626 62.5631C55.1968 61.8978 55.2247 61.227 55.3958 60.6985C56.2638 60.8596 57.2488 60.9037 58.1338 61.0478C58.2968 60.5904 58.4012 60.0727 58.4256 59.4749C56.6905 59.3839 55.1383 59.1111 53.415 59.0094ZM40.2488 59.2426C40.2488 59.7468 40.2488 60.2519 40.2488 60.757C40.9421 60.7516 41.5444 60.6543 42.1711 60.5823C42.3466 62.7369 42.4898 64.9239 42.5789 67.165C43.1624 67.1992 44.052 67.0506 44.7344 66.9903C44.5832 64.8303 44.2266 62.5667 44.2681 60.4076C44.9136 60.4121 45.525 60.3824 46.0742 60.2906C46.0004 59.8431 46.1895 58.9526 45.8995 58.8347C44.1798 58.9022 42.0648 59.0769 40.2488 59.2426ZM48.1712 60.1744C48.1793 62.4542 48.1928 64.7393 48.055 66.8741C48.6376 67.0101 49.4722 66.8939 50.152 66.9318C50.4068 64.4422 49.9971 61.525 50.3276 59.1255C50.4167 58.4772 50.6904 57.7434 50.2691 57.0871C51.1415 57.3473 51.8582 58.2683 52.8909 58.2512C54.0164 58.2332 55.0194 57.3833 54.9879 55.9796C68.164 57.2716 78.5129 61.3891 87.3789 66.9903C85.8132 71.7164 83.5109 75.7059 80.7378 79.2246C72.2976 73.9709 62.2062 69.6707 48.5214 69.6707C34.8951 69.6707 24.6777 73.9115 16.3042 79.2246C13.4356 75.8014 11.2279 71.7173 9.60449 67.0488C18.5272 61.2783 29.646 56.9097 43.22 55.922C43.9592 55.8679 44.8164 56.0408 45.2585 56.3875C46.5208 57.3779 46.0211 59.9746 48.1712 60.1744Z" fill="#8E6854"/>
<path fill-rule="evenodd" clip-rule="evenodd" d="M35.1221 63.7282C34.9951 63.0007 34.8484 62.2921 34.7142 61.5727C36.9444 60.4293 37.4126 63.8309 35.1221 63.7282Z" fill="#8E6854"/>
<path fill-rule="evenodd" clip-rule="evenodd" d="M73.0476 70.544C73.6247 68.8882 74.4108 67.4413 75.087 65.8837C76.2628 66.2186 77.1155 66.7588 76.9516 68.1553C76.7482 69.8867 75.0563 71.8604 73.0476 70.544Z" fill="#8E6854"/>
<path fill-rule="evenodd" clip-rule="evenodd" d="M48.1711 77.1861C48.2026 77.4112 48.0676 77.4698 48.1135 77.7093C48.2774 77.9064 48.606 77.5769 48.7537 77.7678C48.769 79.0085 48.7203 79.9683 48.8122 81.0893C49.0913 81.128 49.4533 81.0289 49.5703 81.0893C49.5343 79.7522 49.4343 78.0334 49.4533 77.0106C49.0193 77.0628 48.6357 77.1645 48.1711 77.1861ZM52.6577 80.8561C54.2009 80.3861 54.11 77.0475 52.5406 76.7774C51.1189 76.5334 50.0916 78.2279 51.1424 79.1661C51.6745 79.6415 52.6694 79.3776 53.0656 79.1084C53.1637 80.1682 52.2003 80.5553 51.2594 80.215C51.2549 80.5796 51.3125 80.5202 51.3179 80.8561C51.8636 80.9119 52.3164 80.9596 52.6577 80.8561ZM42.8121 76.4289C42.7238 76.5928 42.6707 76.7927 42.695 77.0691C42.9967 77.1753 43.5207 77.0592 43.744 77.2438C43.6089 78.4296 43.3613 79.5028 43.2776 80.739C43.563 80.7255 43.7188 80.8426 44.0348 80.7975C44.2707 79.6937 44.2653 78.3485 44.5597 77.3023C44.9046 77.3446 45.217 77.4211 45.6077 77.4184C45.5888 77.1861 45.7122 77.0952 45.6663 76.8359C44.7209 76.6945 43.7017 76.6261 42.8121 76.4289ZM56.8516 76.0787C55.5146 75.3908 53.7138 77.3059 55.3372 78.1756C54.5287 78.8986 55.3066 80.0043 56.0359 80.0988C57.689 80.3104 58.8018 78.3071 57.0848 77.5931C57.5953 77.1483 57.2703 76.2939 56.8516 76.0787ZM39.3744 77.1861C39.4816 78.0334 40.8376 78.2819 40.8313 78.9914C40.8205 80.0691 39.2538 79.2507 38.909 78.9338C38.8423 79.139 38.728 79.2966 38.7334 79.5748C39.8084 80.7372 42.2935 80.0124 41.5299 78.4088C41.2391 77.7984 40.0992 77.5625 40.1317 76.9529C40.1812 76.031 41.5732 76.8071 41.9378 77.0106C41.9738 76.7945 42.0765 76.645 42.1125 76.4289C41.1275 75.57 39.1935 75.7554 39.3744 77.1861ZM36.5203 74.5642C36.1277 75.9391 35.4893 77.0682 35.122 78.4674C35.9458 78.6925 36.6013 79.085 37.4521 79.2831C37.5215 79.0994 37.6484 78.9743 37.6853 78.7582C37.1442 78.5034 36.4536 78.3971 35.9953 78.0595C36.1934 77.7516 36.2682 77.3221 36.4617 77.0106C37.0344 77.1186 37.4242 77.4076 37.9762 77.5355C38.0185 77.3257 38.1869 77.2411 38.1508 76.9529C37.6763 76.7477 37.1253 76.6189 36.6949 76.3695C36.8426 76.0328 36.9047 75.6096 37.1613 75.38C37.643 75.597 38.1049 75.8338 38.6758 75.9616C38.7865 75.8203 38.936 75.7176 38.909 75.4376C38.0977 75.1612 37.399 74.7731 36.5203 74.5642ZM57.842 75.4961C57.8033 75.768 57.9339 75.8707 57.9591 76.0787C58.6515 75.9175 59.1449 75.5556 59.8229 75.38C59.8364 76.6351 59.7995 77.8416 59.7067 78.9914C59.9642 79.1111 60.2199 78.7825 60.5225 78.7582C60.4342 77.4013 60.4892 75.7527 60.4639 74.5057C59.505 74.7515 58.7694 75.2188 57.842 75.4961ZM71.4746 75.8455C70.9551 76.5784 70.1421 77.0637 69.3777 77.5931C64.1222 81.2369 57.2811 84.2352 48.4628 84.2352C38.285 84.2352 31.0262 80.4176 25.2764 75.9616C30.9965 73.3271 38.1238 71.4498 46.1912 71.069C56.152 70.5981 64.6525 73.0012 71.4746 75.8455Z" fill="#8E6854"/>
<mask id="mask1_32_812" style="mask-type:luminance" maskUnits="userSpaceOnUse" x="22" y="76" width="53" height="12">
<path d="M22.2439 76.2885H74.5665V87.0894H22.2439V76.2885Z" fill="white"/>
</mask>
<g mask="url(#mask1_32_812)">
<path fill-rule="evenodd" clip-rule="evenodd" d="M23.5863 76.4866C23.625 76.4866 23.6647 76.4866 23.7034 76.4866C29.5594 81.3531 37.5908 85.8559 48.4043 85.7496C59.2736 85.6425 67.0393 81.5026 73.0476 76.4866C73.5455 76.6288 73.9317 76.8836 74.3873 77.0691C68.1513 82.5146 59.9435 87.0903 48.3458 87.0894C36.7849 87.0894 28.5564 82.5308 22.3636 77.0691C22.7706 76.8737 23.1884 76.6901 23.5863 76.4866Z" fill="#8E6854"/>
</g>
<path fill-rule="evenodd" clip-rule="evenodd" d="M55.4533 77.4769C55.067 76.4172 56.6427 76.3109 56.6769 77.0691C56.6994 77.5706 55.9278 77.8776 55.4533 77.4769Z" fill="#8E6854"/>
<path fill-rule="evenodd" clip-rule="evenodd" d="M51.7249 78.7582C50.6202 77.4094 53.1187 76.7999 52.9485 78.2342C52.8927 78.706 52.3426 78.9238 51.7249 78.7582Z" fill="#8E6854"/>
<path fill-rule="evenodd" clip-rule="evenodd" d="M56.2106 78.2342C57.635 77.7849 57.3694 79.7955 56.153 79.5154C55.7055 79.4137 55.5461 78.444 56.2106 78.2342Z" fill="#8E6854"/>
<path fill-rule="evenodd" clip-rule="evenodd" d="M73.6886 52.8336C71.6988 58.5672 80.8232 60.793 81.9613 55.4555C79.6149 54.6065 77.4576 56.0084 76.776 57.3778C76.8886 54.7217 75.6992 53.3667 73.6886 52.8336ZM19.8579 57.4949C19.1583 55.8985 16.8903 54.5948 14.615 55.5141C15.2966 58.0108 17.896 59.157 20.499 58.1936C21.9423 57.6597 23.156 56.1785 23.1785 54.4066C23.1866 53.8358 23.1146 53.1803 22.7706 52.8336C20.8942 53.4468 19.5752 54.9153 19.8579 57.4949ZM79.1062 49.2222C77.1038 49.7571 76.053 53.3721 77.6503 55.1062C79.5267 54.4318 80.5099 51.1247 79.1062 49.2222ZM17.5277 49.2222C16.0763 51.0725 17.0757 54.5768 19.0422 55.1062C20.462 53.2235 19.4887 49.7967 17.5277 49.2222ZM75.6695 42.8719C75.7235 44.0406 75.9756 45.013 76.0188 46.1925C76.2313 46.2933 76.5014 46.1411 76.9516 46.1925C76.9507 45.4019 76.632 44.489 76.7175 43.9784C77.2577 43.9748 77.671 43.8443 78.1743 43.8038C78.1716 44.4863 78.3526 44.9851 78.349 45.6685C78.6983 45.7063 78.918 45.6153 79.2233 45.6099C79.1629 44.9509 79.0018 44.3944 78.9901 43.6876C79.4889 43.7002 79.8211 43.5481 80.3298 43.5706C80.4126 44.2215 80.4748 45.0877 80.563 45.5514C80.8286 45.5262 81.2041 45.6099 81.3787 45.4929C81.2887 44.3395 81.1357 43.2509 80.9709 42.1723C79.2791 42.4811 77.4279 42.6306 75.6695 42.8719ZM16.3626 41.8229C15.5199 42.3623 15.727 44.2143 15.4884 45.2606C17.299 45.4704 19.089 45.6991 20.8483 45.9593C20.8636 45.5082 20.9915 45.1696 20.9654 44.6771C20.2703 44.5961 19.5031 44.5862 18.8675 44.4448C18.8261 44.2288 18.9674 44.1945 18.926 43.9784C19.667 43.6516 20.4963 43.4121 21.2562 43.1042C21.2427 42.6063 21.3669 42.2443 21.3732 41.7644C20.462 42.0976 19.73 42.6081 18.7513 42.8719C18.6928 41.7473 17.1946 41.2908 16.3626 41.8229ZM78.1743 36.9879C75.4624 36.7601 73.7066 39.7314 75.6695 41.7644C75.9666 41.6546 76.3808 41.66 76.6014 41.4736C76.1989 41.0486 75.8198 40.6984 75.8441 39.9592C75.9171 37.7569 80.4199 37.6191 79.5141 40.5417C79.8247 40.4256 80.2695 40.4418 80.5045 40.25C80.5081 38.4853 79.7725 37.1221 78.1743 36.9879ZM17.3531 36.5215C17.2531 37.1212 17.0019 37.5687 16.8867 38.153C18.4182 39.2623 19.8939 40.4283 21.4309 41.5321C21.556 41.1711 21.6821 40.8118 21.7802 40.4247C21.3615 40.1446 20.8636 39.9439 20.5575 39.5513C20.7331 38.9886 20.8717 38.3898 21.14 37.9198C21.6253 37.9585 22.0854 38.0225 22.5959 38.036C22.7616 37.6578 22.8534 37.2058 23.0038 36.8124C21.1328 36.7034 19.2637 36.5918 17.3531 36.5215ZM18.6343 33.725C20.3441 34.4048 21.8189 35.3177 23.4702 36.0551C23.6737 35.677 23.8421 35.2628 24.0527 34.8901C22.3429 34.1725 20.8249 33.264 19.1592 32.5014C19.0359 32.9615 18.7261 33.2343 18.6343 33.725ZM22.7706 26.9091C22.641 27.245 22.3609 27.4313 22.2466 27.7825C23.2307 28.4299 24.2742 29.0178 25.1593 29.7633C23.779 29.6679 22.2637 29.7075 20.9068 29.5886C20.6727 29.9569 20.3603 30.2468 20.2072 30.6952C21.7478 31.6415 23.1344 32.7409 24.6353 33.725C24.7802 33.4044 25.0657 33.2235 25.1593 32.8516C24.1338 32.0908 23.0038 31.4344 21.9549 30.6952C23.4288 30.7969 25.2746 30.8321 26.6746 30.8123C26.8817 30.5728 27.0681 30.3125 27.1987 29.9965C25.7148 28.9755 24.313 27.8725 22.7706 26.9091ZM73.7463 26.7921C72.0031 27.4178 70.3248 28.1093 68.5034 28.6568C68.7222 29.0205 68.9239 29.4014 69.3191 29.5886C69.7207 29.3681 70.1745 29.2015 70.6004 29.0061C70.9686 29.4743 71.3513 29.9263 71.7078 30.4044C71.417 30.851 71.01 31.1832 70.7759 31.6865C71.1154 31.9485 71.3017 32.3636 71.6493 32.6184C72.691 31.0572 73.8579 29.622 74.9114 28.0742C74.4846 27.6853 74.2613 27.0937 73.7463 26.7921ZM66.8143 27.317C67.2257 27.5259 67.4112 27.9626 67.8623 28.1327C68.5043 27.2828 69.6523 26.1015 70.5427 25.1615C70.7579 24.9337 71.4854 24.3683 71.4746 24.1711C71.4665 24.0117 70.4932 23.3689 70.4257 23.2968C69.3317 24.7473 67.9677 25.9268 66.8143 27.317ZM26.5576 23.006C25.8445 23.8451 24.9504 24.506 24.2859 25.3938C25.5915 26.594 26.8277 27.8626 28.0144 29.1808C28.4142 28.9404 28.6897 28.5748 28.9463 28.1904C28.4331 27.6753 27.8802 27.1981 27.3733 26.6759C27.8154 26.3221 28.1549 25.8647 28.5969 25.5108C28.5231 25.1966 28.2188 25.112 28.1305 24.8113C27.5408 25.1147 27.2932 25.7602 26.7323 26.0934C26.5225 25.6621 26.0543 25.4892 25.8589 25.0444C26.2299 24.5024 26.8682 24.2296 27.1987 23.6462C26.9213 23.4967 26.8655 23.1248 26.5576 23.006ZM63.9016 24.9868C64.7371 25.5099 65.4133 26.1924 66.2903 26.6759C66.5253 26.4841 66.7269 26.2582 66.8719 25.9772C66.3992 25.654 65.8878 25.3686 65.4745 24.9868C66.302 23.7173 67.3401 22.6576 68.154 21.3745C67.8326 21.0936 67.467 20.8568 67.1051 20.6173C66.0985 22.1344 64.9289 23.4895 63.9016 24.9868ZM28.8301 21.433C27.973 23.114 29.5594 25.6405 31.335 25.6855C32.3677 25.7116 33.7903 24.9229 34.0145 23.7632C34.3855 21.8499 32.582 19.8682 30.9856 20.0348C29.9601 20.141 29.1426 20.819 28.8301 21.433ZM63.319 18.4033C62.7959 19.3766 61.9793 20.8379 61.3373 21.9571C61.2283 22.1479 60.6836 23.0015 60.6971 23.0636C60.725 23.1897 61.1473 23.3067 61.3373 23.4139C62.0513 23.8136 62.6581 24.2584 63.319 24.5204C63.4559 24.2305 63.699 24.0459 63.7845 23.7047C63.2353 23.4769 62.7257 23.2104 62.2701 22.889C62.9733 21.5528 63.7818 20.3229 64.4841 18.9858C64.0852 18.8021 63.7728 18.5311 63.319 18.4033ZM36.8111 17.4129C35.7477 16.9114 34.2954 18.198 33.3734 18.4033C34.0793 20.0672 34.887 21.6284 35.5298 23.3553C35.9539 23.1771 36.4401 23.0618 36.7525 22.7728C36.4068 22.1867 36.1025 21.5591 35.8207 20.9081C36.8417 20.494 37.3738 21.9129 38.2679 22.1903C38.6685 22.0273 38.9675 21.7635 39.433 21.6653C38.7379 21.0207 37.7979 20.6209 37.1028 19.9762C38.0374 19.3514 37.5683 17.7694 36.8111 17.4129ZM58.8324 16.5386C57.7646 18.1125 56.4951 19.4837 55.3957 21.0252C55.7658 21.1206 56.062 21.2908 56.4447 21.3745C56.8012 21.0126 57.0119 20.5057 57.3765 20.1509C57.8979 20.3868 58.5371 20.5048 59.0071 20.792C58.9684 21.2971 58.8937 21.7653 58.8324 22.2488C59.2475 22.3964 59.6059 22.6017 60.1146 22.6558C60.1992 20.7605 60.3721 18.9525 60.5225 17.122C59.9615 16.9249 59.4393 16.6899 58.8324 16.5386ZM38.9666 16.1893C39.4393 17.8919 39.884 19.6224 40.2487 21.433C41.34 21.1458 42.4654 20.8928 43.5693 20.6173C43.509 20.2896 43.5099 19.8997 43.3361 19.6854C42.695 19.9177 41.9909 20.0879 41.2967 20.2671C41.1716 19.7908 41.0248 19.3352 40.9474 18.8111C41.5308 18.6176 42.2944 18.6041 42.7535 18.2871C42.6932 18.2142 42.6752 17.7964 42.5789 17.5875C41.8721 17.6389 41.4156 17.9387 40.7142 17.9954C40.6089 17.5767 40.5044 17.1563 40.4234 16.7142C41.0644 16.5395 41.7127 16.372 42.4042 16.2478C42.2998 15.9831 42.3637 15.55 42.171 15.3735C41.15 15.6931 40.0398 15.9227 38.9666 16.1893ZM49.0454 14.791C48.958 15.0539 48.9148 15.3591 48.9283 15.7238C49.401 15.7175 49.8656 15.7193 50.2105 15.8399C50.1267 17.33 49.9016 18.9867 49.8611 20.3256C50.2879 20.3256 50.7156 20.3256 51.1423 20.3256C51.2963 18.8679 51.2621 17.2211 51.4926 15.8399C51.8879 15.8912 52.2597 15.9651 52.7153 15.9561C52.7792 15.6895 52.8053 15.3861 52.8323 15.0827C51.579 14.9756 50.2996 14.8954 49.0454 14.791ZM44.385 17.2967C44.9009 18.026 46.6495 17.9324 46.7152 18.8111C46.7458 19.2235 46.473 19.4666 46.1912 19.5684C45.416 19.8475 44.7119 19.2947 44.385 19.3937C44.4679 19.5161 44.4345 19.9681 44.4426 20.3256C45.5474 20.5714 46.7503 20.5678 47.4139 20.0348C48.0369 19.5342 48.2161 18.1944 47.5309 17.529C46.9754 16.9906 45.4097 17.0743 45.3754 16.3063C45.3349 15.3888 46.8349 15.6301 47.4139 15.8984C47.4256 15.5203 47.3581 15.17 47.3563 14.9656C45.4736 14.1958 43.2695 15.7184 44.385 17.2967ZM73.514 36.3469C73.7391 36.5485 73.8309 36.8844 73.9795 37.1626C75.5578 36.2937 77.264 35.5527 78.7569 34.5992C78.5975 34.2922 78.4813 33.9429 78.2319 33.725C77.2829 34.348 76.2835 34.9225 75.2031 35.415C75.8901 34.1995 76.532 32.9371 77.2424 31.7441C77.0569 31.3471 76.9264 30.8951 76.6014 30.6376C75.0104 31.4353 73.5491 32.3627 71.8825 33.0839C72.0752 33.3963 72.1301 33.8465 72.465 34.0167C73.5824 33.4053 74.661 32.7562 75.7856 32.152C75.0203 33.5422 74.2154 34.8928 73.514 36.3469ZM81.7281 62.1552C78.0924 60.5282 74.517 58.84 70.4257 57.6696C72.0437 54.0374 72.9215 49.4491 72.3489 44.7942C71.8087 40.4112 70.134 36.7286 68.154 33.8996C64.2401 28.3083 57.7178 23.53 48.2882 23.53C38.8918 23.53 32.365 28.275 28.4223 33.8996C26.4576 36.7025 24.701 40.4175 24.2274 44.7942C23.7232 49.4554 24.5083 53.9564 26.0921 57.6696C22.1124 58.9139 18.3831 60.4076 14.9644 62.2138C12.4865 57.0033 11.389 50.2045 12.1678 43.3374C12.889 36.9834 15.3893 31.447 18.2849 27.1999C22.6617 20.7812 29.1219 15.5014 37.4521 12.9848C40.4072 12.0925 43.6584 11.5208 47.1807 11.3542C54.4548 11.0103 60.7502 13.1793 65.5907 15.7814C70.5004 18.4204 74.6773 22.0552 77.7664 26.3842C80.8412 30.6925 83.3605 36.0605 84.2915 42.6387C85.2882 49.6778 84.088 56.7872 81.7281 62.1552Z" fill="#8E6854"/>
</svg>
